<svg xmlns="http://www.w3.org/2000/svg" width="400" height="302.472" viewBox="0 0 400 302.472">
  <g id="Grupo_100492" data-name="Grupo 100492" transform="translate(-180 -2927.529)">
    <path id="Rectángulo_35793" data-name="Rectángulo 35793" d="M0,0H317a83,83,0,0,1,83,83V224a0,0,0,0,1,0,0H0a0,0,0,0,1,0,0V0A0,0,0,0,1,0,0Z" transform="translate(180 3006)" fill="#ffceca"/>
    <g id="Grupo_97964" data-name="Grupo 97964" transform="translate(183.267 2886.846)">
      <g id="Background_Complete" data-name="Background Complete" transform="translate(46.729 40.683)">
        <g id="Grupo_97676" data-name="Grupo 97676" transform="translate(146.149 218.501)">
          <g id="Grupo_97655" data-name="Grupo 97655" transform="translate(21.457 1.287)">
            <g id="Grupo_97654" data-name="Grupo 97654">
              <g id="Grupo_97653" data-name="Grupo 97653">
                <g id="Grupo_97652" data-name="Grupo 97652">
                  <g id="Grupo_97651" data-name="Grupo 97651">
                    <path id="Trazado_148943" data-name="Trazado 148943" d="M281.17,420.962a193.939,193.939,0,0,1,4.1-21.854l1.371-5.673c.454-1.861.9-3.707,1.456-5.485a96.962,96.962,0,0,1,3.756-10.035c1.349-3.134,2.744-6.059,4.067-8.784s2.618-5.239,3.89-7.481a76.735,76.735,0,0,1,6.781-10.125c.891-1.128,1.611-1.981,2.106-2.552.24-.272.427-.485.568-.646a1.691,1.691,0,0,1,.2-.211,1.539,1.539,0,0,1-.172.238l-.538.671c-.475.588-1.175,1.456-2.047,2.6a81.234,81.234,0,0,0-6.657,10.169c-1.253,2.245-2.523,4.761-3.838,7.487s-2.692,5.655-4.029,8.785a98.008,98.008,0,0,0-3.719,10c-.546,1.769-.99,3.6-1.444,5.464l-1.368,5.671a198.643,198.643,0,0,0-4.128,21.806" transform="translate(-281.17 -348.117)" fill="#e0e0e0"/>
                  </g>
                </g>
              </g>
            </g>
          </g>
          <g id="Grupo_97660" data-name="Grupo 97660" transform="translate(21.411 18.154)">
            <g id="Grupo_97659" data-name="Grupo 97659">
              <g id="Grupo_97658" data-name="Grupo 97658">
                <g id="Grupo_97657" data-name="Grupo 97657">
                  <g id="Grupo_97656" data-name="Grupo 97656">
                    <path id="Trazado_148944" data-name="Trazado 148944" d="M288.192,394.642a4.41,4.41,0,0,1-.362-.874c-.212-.57-.49-1.4-.82-2.441-.661-2.073-1.476-4.965-2.361-8.157s-1.74-6.067-2.431-8.124c-.342-1.029-.628-1.859-.832-2.431a4.38,4.38,0,0,1-.276-.905,4.232,4.232,0,0,1,.42.848c.249.555.576,1.373.953,2.394.761,2.04,1.661,4.912,2.548,8.109l2.249,8.184c.276.982.51,1.811.7,2.475A4.33,4.33,0,0,1,288.192,394.642Z" transform="translate(-281.106 -371.71)" fill="#e0e0e0"/>
                  </g>
                </g>
              </g>
            </g>
          </g>
          <g id="Grupo_97665" data-name="Grupo 97665" transform="translate(28.497 31.319)">
            <g id="Grupo_97664" data-name="Grupo 97664">
              <g id="Grupo_97663" data-name="Grupo 97663">
                <g id="Grupo_97662" data-name="Grupo 97662">
                  <g id="Grupo_97661" data-name="Grupo 97661">
                    <path id="Trazado_148945" data-name="Trazado 148945" d="M317.566,390.13a5.987,5.987,0,0,1-1.072.316c-.693.182-1.7.439-2.927.8-2.465.7-5.837,1.776-9.5,3.131s-6.932,2.735-9.265,3.8c-1.171.523-2.107.972-2.756,1.278a5.957,5.957,0,0,1-1.025.443,5.907,5.907,0,0,1,.955-.583c.628-.349,1.548-.838,2.707-1.4,2.309-1.131,5.569-2.551,9.246-3.917a98.006,98.006,0,0,1,9.568-3.028c1.244-.323,2.261-.54,2.967-.674A5.976,5.976,0,0,1,317.566,390.13Z" transform="translate(-291.018 -390.124)" fill="#e0e0e0"/>
                  </g>
                </g>
              </g>
            </g>
          </g>
          <g id="Grupo_97670" data-name="Grupo 97670" transform="translate(1.981 40.892)">
            <g id="Grupo_97669" data-name="Grupo 97669">
              <g id="Grupo_97668" data-name="Grupo 97668">
                <g id="Grupo_97667" data-name="Grupo 97667">
                  <g id="Grupo_97666" data-name="Grupo 97666">
                    <path id="Trazado_148946" data-name="Trazado 148946" d="M273.655,436.194a1.426,1.426,0,0,1-.245-.3l-.636-.913c-.549-.794-1.314-1.965-2.24-3.424-1.854-2.917-4.289-7.027-6.913-11.6s-5.019-8.7-6.809-11.651l-2.131-3.49-.575-.953a1.425,1.425,0,0,1-.177-.348,1.494,1.494,0,0,1,.245.3c.172.247.382.547.636.912.55.795,1.315,1.966,2.241,3.424,1.854,2.917,4.288,7.027,6.914,11.6s5.017,8.7,6.808,11.65c.876,1.433,1.6,2.613,2.13,3.49l.575.953A1.424,1.424,0,0,1,273.655,436.194Z" transform="translate(-253.928 -403.515)" fill="#e0e0e0"/>
                  </g>
                </g>
              </g>
            </g>
          </g>
          <g id="Grupo_97675" data-name="Grupo 97675" transform="translate(21.708 55.666)">
            <g id="Grupo_97674" data-name="Grupo 97674">
              <g id="Grupo_97673" data-name="Grupo 97673">
                <g id="Grupo_97672" data-name="Grupo 97672">
                  <g id="Grupo_97671" data-name="Grupo 97671">
                    <path id="Trazado_148947" data-name="Trazado 148947" d="M315.967,424.181a1.475,1.475,0,0,1-.337.21l-1,.533-3.687,1.925c-3.113,1.626-7.387,3.92-12.106,6.461s-9.02,4.8-12.168,6.361c-1.574.781-2.853,1.4-3.746,1.81l-1.031.466a1.448,1.448,0,0,1-.372.137,1.524,1.524,0,0,1,.337-.211l1-.533,3.687-1.925c3.113-1.625,7.387-3.92,12.108-6.462s9.018-4.8,12.166-6.361c1.574-.781,2.853-1.4,3.747-1.81l1.031-.466A1.474,1.474,0,0,1,315.967,424.181Z" transform="translate(-281.522 -424.179)" fill="#e0e0e0"/>
                  </g>
                </g>
              </g>
            </g>
          </g>
        </g>
        <g id="Grupo_97701" data-name="Grupo 97701" transform="translate(12.392)">
          <path id="Trazado_148956" data-name="Trazado 148956" d="M91.041,81.452l-6.977-2.177s-1.827,5.858-7.948,4.064a5.913,5.913,0,0,1-4.343-5.309,6.549,6.549,0,0,1,2.26-5.5c1.792-1.582,4.939-2.547,9.382-.251l4.908-15.731-6.9-2.152-2.875,9.215S68.093,63.1,64.766,73.76c-3.183,10.2,5.227,15.426,9.144,16.648C76.9,91.342,87.332,93.8,91.041,81.452Z" transform="translate(-64.062 -44.594)" fill="#ff9e95"/>
          <rect id="Rectángulo_35798" data-name="Rectángulo 35798" width="7.334" height="6.85" transform="matrix(-0.955, -0.298, 0.298, -0.955, 25.291, 8.723)" fill="#ff9e95"/>
        </g>
        <g id="Grupo_97702" data-name="Grupo 97702" transform="translate(58.352 12.319)">
          <path id="Trazado_148957" data-name="Trazado 148957" d="M128.624,64.693l2.794-.736a2.455,2.455,0,0,1,1.808-3.031,2.337,2.337,0,0,1,2.57.866,2.589,2.589,0,0,1,.4,2.315c-.267.907-1.119,1.89-3.089,2.055l1.661,6.3,2.762-.729-.973-3.69a5.581,5.581,0,0,0,2.484-6.294c-1.078-4.085-4.992-4.068-6.56-3.654C131.28,58.411,127.272,59.778,128.624,64.693Z" transform="translate(-128.349 -57.916)" fill="#ff9e95"/>
          <rect id="Rectángulo_35799" data-name="Rectángulo 35799" width="2.9" height="2.708" transform="matrix(0.967, -0.255, 0.255, 0.967, 6.752, 15.845)" fill="#ff9e95"/>
        </g>
        <g id="Grupo_97703" data-name="Grupo 97703" transform="translate(288.65 87.79)">
          <path id="Trazado_148958" data-name="Trazado 148958" d="M451.543,167.145l2.717.984a2.456,2.456,0,0,1,3.212-1.463,2.336,2.336,0,0,1,1.62,2.174,2.589,2.589,0,0,1-.99,2.13c-.736.593-2,.917-3.71-.069l-2.219,6.125,2.686.973,1.3-3.587a5.581,5.581,0,0,0,5.625-3.761c1.439-3.973-1.789-6.186-3.314-6.739C457.3,163.491,453.228,162.334,451.543,167.145Z" transform="translate(-450.785 -163.481)" fill="#ff9e95"/>
          <rect id="Rectángulo_35800" data-name="Rectángulo 35800" width="2.9" height="2.708" transform="translate(0.922 14.805) rotate(19.914)" fill="#ff9e95"/>
        </g>
        <g id="Grupo_97704" data-name="Grupo 97704" transform="translate(0 106.871)">
          <path id="Trazado_148959" data-name="Trazado 148959" d="M47.82,205.869l5.75-2.215s-1.86-4.827,3.123-6.847a4.985,4.985,0,0,1,5.649,1.234,5.522,5.522,0,0,1,1.385,4.814c-.356,1.984-1.93,4.268-6.067,5.078L62.654,220.9l5.686-2.19-2.926-7.594a11.9,11.9,0,0,0,3.795-13.92c-3.239-8.407-11.531-7.455-14.759-6.212C51.981,191.933,43.8,195.768,47.82,205.869Z" transform="translate(-46.729 -190.171)" fill="#ff9e95"/>
          <rect id="Rectángulo_35801" data-name="Rectángulo 35801" width="6.183" height="5.775" transform="matrix(0.933, -0.359, 0.359, 0.933, 16.938, 33.404)" fill="#ff9e95"/>
        </g>
        <g id="Grupo_97705" data-name="Grupo 97705" transform="translate(274.854 128.015)">
          <path id="Trazado_148960" data-name="Trazado 148960" d="M448.37,238.392l-4.074,1.569a3.711,3.711,0,0,1-2.214,4.852,3.533,3.533,0,0,1-4-.874,3.914,3.914,0,0,1-.982-3.412c.252-1.406,1.368-3.025,4.3-3.6l-3.54-9.187-4.029,1.552,2.073,5.381a8.431,8.431,0,0,0-2.689,9.864c2.295,5.958,8.171,5.283,10.458,4.4C445.421,248.268,451.216,245.55,448.37,238.392Z" transform="translate(-431.58 -222.026)" fill="#ff9e95"/>
          <rect id="Rectángulo_35802" data-name="Rectángulo 35802" width="4.382" height="4.092" transform="translate(5.56 3.819) rotate(158.931)" fill="#ff9e95"/>
        </g>
      </g>
      <g id="Speech_Bubble" data-name="Speech Bubble" transform="translate(288.387 50.262)">
        <g id="Grupo_97739" data-name="Grupo 97739">
          <g id="Grupo_97732" data-name="Grupo 97732" transform="translate(15.594 11.872)">
            <path id="Trazado_148967" data-name="Trazado 148967" d="M417.224,85.208h-2.846a2.419,2.419,0,0,1-2.483,2.433,2.3,2.3,0,0,1-2.231-1.47,2.551,2.551,0,0,1,.2-2.3c.483-.8,1.541-1.519,3.458-1.182V76.267h-2.814v3.759a5.5,5.5,0,0,0-3.946,5.37c0,4.162,3.732,5.128,5.329,5.128C413.116,90.524,417.277,90.229,417.224,85.208Z" transform="translate(-406.565 -72.278)" fill="#ff6d60"/>
            <rect id="Rectángulo_35803" data-name="Rectángulo 35803" width="2.856" height="2.667" transform="translate(6.768 2.667) rotate(180)" fill="#ff6d60"/>
          </g>
          <g id="Grupo_97738" data-name="Grupo 97738">
            <g id="Grupo_97737" data-name="Grupo 97737">
              <g id="Grupo_97736" data-name="Grupo 97736">
                <g id="Grupo_97735" data-name="Grupo 97735">
                  <g id="Grupo_97734" data-name="Grupo 97734">
                    <g id="Grupo_97733" data-name="Grupo 97733">
                      <path id="Trazado_148968" data-name="Trazado 148968" d="M426.592,75.075a2.047,2.047,0,0,0,.006-.36c-.007-.262-.017-.612-.03-1.059-.011-.232-.011-.494-.034-.78q-.061-.43-.132-.934l-.157-1.09q-.142-.573-.3-1.217a19.711,19.711,0,0,0-2.572-5.9,20.818,20.818,0,0,0-15.649-9.563,21.491,21.491,0,0,0-2.853-.058c-.482.034-.973.024-1.459.094l-1.469.222a20.928,20.928,0,0,0-5.806,1.982,22.345,22.345,0,0,0-5.217,3.792,21.908,21.908,0,0,0-3.925,5.463,19.847,19.847,0,0,0-2.044,6.659A13.22,13.22,0,0,0,384.8,74.1a15.98,15.98,0,0,0-.033,1.8,21.273,21.273,0,0,0,.455,3.6,21.019,21.019,0,0,0,3.013,7.159l-.022-.217-2.927,7.293-.174.432.449-.123,7.8-2.144-.192-.036a20.929,20.929,0,0,0,8.909,3.891,18.957,18.957,0,0,0,4.565.284,14.661,14.661,0,0,0,2.192-.207l1.067-.165c.351-.066.691-.172,1.033-.255a20.858,20.858,0,0,0,11.861-8.136,19.936,19.936,0,0,0,2.554-4.842l.39-1.091q.137-.538.263-1.035t.234-.947c.059-.3.09-.6.132-.872.07-.551.165-1.035.186-1.46s.026-.775.036-1.072c.006-.272.011-.488.015-.655a1.011,1.011,0,0,0-.008-.222,1.028,1.028,0,0,0-.031.222c-.013.167-.03.381-.051.651q-.029.443-.072,1.065c-.033.421-.139.9-.22,1.446a20.739,20.739,0,0,1-15.383,16.582c-.336.08-.67.184-1.015.246l-1.048.157a14.42,14.42,0,0,1-2.153.193,18.582,18.582,0,0,1-4.474-.3A20.545,20.545,0,0,1,393.43,91.5l-.087-.066-.105.029-7.8,2.128.275.309q1.435-3.563,2.935-7.289l.046-.114-.068-.1a20.588,20.588,0,0,1-2.943-7,20.9,20.9,0,0,1-.445-3.515,15.617,15.617,0,0,1,.031-1.756,12.752,12.752,0,0,1,.147-1.737,19.425,19.425,0,0,1,1.992-6.513,21.509,21.509,0,0,1,3.83-5.351,21.958,21.958,0,0,1,5.1-3.724,20.563,20.563,0,0,1,5.681-1.961l1.44-.222c.476-.071.957-.063,1.431-.1a20.555,20.555,0,0,1,18.262,9.36,19.837,19.837,0,0,1,2.617,5.8q.168.635.32,1.2l.177,1.078q.083.5.152.924c.031.284.039.543.057.774.032.445.058.793.077,1.053A1.969,1.969,0,0,0,426.592,75.075Z" transform="translate(-384.752 -54.081)" fill="#263238"/>
                    </g>
                  </g>
                </g>
              </g>
            </g>
          </g>
        </g>
      </g>
      <g id="Question_Mark" data-name="Question Mark" transform="translate(99.922 78.164)">
        <g id="Grupo_97748" data-name="Grupo 97748" transform="translate(0 0)">
          <g id="Grupo_97742" data-name="Grupo 97742">
            <g id="Grupo_97740" data-name="Grupo 97740" transform="translate(17.101)">
              <path id="Trazado_148969" data-name="Trazado 148969" d="M145.063,170.517h41.289s0-34.667,36.026-35.288c18.711-.322,28.411,11.934,32.353,21.323,4.578,10.9,3.192,23.33-2.94,33.441-7,11.546-22.085,23.148-49.91,18.245l-.264,91.987h40.826V245.694s57.259-14.8,57.259-77.9c0-60.375-48.824-73.418-75.062-74.256-14.6-.466-19.895-1.094-37.953,1.47C163.673,98.272,144.577,124.992,145.063,170.517Z" transform="translate(-145.054 -93.11)" fill="#ffa648"/>
              <rect id="Rectángulo_35804" data-name="Rectángulo 35804" width="41.434" height="38.697" transform="translate(56.448 226.294)" fill="#ffa648"/>
            </g>
            <g id="Grupo_97741" data-name="Grupo 97741" transform="translate(0 0.283)">
              <path id="Trazado_148971" data-name="Trazado 148971" d="M121.141,170.63H162.43s0-34.667,36.027-35.288c18.71-.322,28.411,11.934,32.353,21.323,4.577,10.9,3.191,23.33-2.941,33.441-7,11.546-22.349,22.041-50.174,17.139v93.094H218.52V245.806s57.259-14.8,57.259-77.9c0-60.375-54.143-74.4-77.319-74.4C180.737,93.506,120.362,97.79,121.141,170.63Z" transform="translate(-121.134 -93.506)" fill="#ffc967"/>
              <rect id="Rectángulo_35806" data-name="Rectángulo 35806" width="41.434" height="38.697" transform="translate(56.446 226.011)" fill="#ffc967"/>
            </g>
          </g>
          <g id="Grupo_97743" data-name="Grupo 97743" transform="translate(41.05 41.89)">
            <path id="Trazado_148973" data-name="Trazado 148973" d="M219.489,152.126a3.828,3.828,0,0,1-.618-.038c-.4-.02-.992-.134-1.759-.142a35.975,35.975,0,0,0-6.474.268,46.39,46.39,0,0,0-9.346,2.2,39.892,39.892,0,0,0-5.207,2.24,27.689,27.689,0,0,0-5.092,3.3,25.258,25.258,0,0,0-4.168,4.4A40.74,40.74,0,0,0,180,177.941a35.75,35.75,0,0,0-1.242,6.359c-.088.762-.111,1.357-.132,1.76a3.889,3.889,0,0,1-.056.616,3.793,3.793,0,0,1-.019-.618c0-.405,0-1,.063-1.772a33.091,33.091,0,0,1,1.132-6.417,41,41,0,0,1,3.652-8.951,41.755,41.755,0,0,1,3.133-4.787,25.37,25.37,0,0,1,4.221-4.47,27.747,27.747,0,0,1,5.162-3.334,39.47,39.47,0,0,1,5.262-2.24,45.183,45.183,0,0,1,9.427-2.136,33.4,33.4,0,0,1,6.515-.152c.77.031,1.358.169,1.76.213A3.828,3.828,0,0,1,219.489,152.126Z" transform="translate(-178.552 -151.705)" fill="#263238"/>
          </g>
          <g id="Grupo_97744" data-name="Grupo 97744" transform="translate(74.49 0.296)">
            <path id="Trazado_148974" data-name="Trazado 148974" d="M295.033,128.168a.871.871,0,0,1-.134-.162l-.362-.5-1.358-1.929c-.3-.416-.608-.894-.984-1.39l-1.289-1.564-1.478-1.8c-.538-.624-1.165-1.232-1.79-1.9-.641-.653-1.278-1.371-2-2.056l-2.308-2.087c-.4-.357-.8-.738-1.224-1.091l-1.33-1.047c-.907-.7-1.809-1.461-2.792-2.165a89.376,89.376,0,0,0-13.528-7.99l-3.767-1.7-3.743-1.453c-1.217-.5-2.461-.864-3.663-1.261-1.21-.375-2.374-.809-3.552-1.085l-3.419-.9c-1.108-.294-2.21-.468-3.261-.7-1.057-.2-2.066-.46-3.058-.583l-2.843-.411c-1.806-.31-3.464-.372-4.911-.518-.725-.056-1.4-.134-2.02-.163l-1.7-.046-2.359-.076-.613-.029a.873.873,0,0,1-.209-.023.888.888,0,0,1,.209-.016l.614-.007,2.362.006,1.708.014c.623.019,1.3.086,2.027.133,1.451.127,3.116.17,4.93.463l2.855.389c1,.117,2.01.373,3.072.565,1.056.223,2.163.392,3.276.681l3.436.886c1.185.272,2.355.7,3.57,1.077,1.208.4,2.458.753,3.681,1.257l3.76,1.453,3.784,1.709a87.789,87.789,0,0,1,13.571,8.049c.984.711,1.887,1.481,2.795,2.187l1.331,1.06c.428.357.821.742,1.223,1.1l2.3,2.112c.724.693,1.357,1.421,1.995,2.081.622.676,1.244,1.292,1.777,1.924l1.461,1.824,1.269,1.588c.368.5.671.989.96,1.413l1.3,1.971.33.517A.937.937,0,0,1,295.033,128.168Z" transform="translate(-225.328 -93.525)" fill="#263238"/>
          </g>
          <g id="Grupo_97745" data-name="Grupo 97745" transform="translate(97.555 123.585)">
            <path id="Trazado_148975" data-name="Trazado 148975" d="M299.929,265.978a2.851,2.851,0,0,1-.312.428l-.952,1.185c-.412.515-.928,1.137-1.558,1.832s-1.318,1.512-2.149,2.351c-.814.856-1.711,1.788-2.723,2.739-.985.981-2.1,1.958-3.264,3a89.423,89.423,0,0,1-16.7,11.514c-1.388.716-2.7,1.413-3.966,1.985-1.249.608-2.439,1.115-3.528,1.571-1.08.478-2.088.834-2.963,1.172s-1.637.6-2.266.8l-1.446.469a2.881,2.881,0,0,1-.511.139,2.81,2.81,0,0,1,.488-.21l1.421-.535c.62-.222,1.375-.5,2.24-.863s1.863-.729,2.933-1.22c1.08-.47,2.26-.99,3.5-1.608,1.256-.581,2.557-1.286,3.936-2.007,2.728-1.5,5.666-3.258,8.63-5.288,2.95-2.048,5.639-4.167,8.008-6.184,1.164-1.032,2.285-2,3.276-2.964,1.018-.939,1.922-1.857,2.746-2.7.841-.825,1.544-1.626,2.184-2.308s1.175-1.285,1.6-1.786l1-1.138A2.827,2.827,0,0,1,299.929,265.978Z" transform="translate(-257.591 -265.978)" fill="#263238"/>
          </g>
          <g id="Grupo_97746" data-name="Grupo 97746" transform="translate(96.478 152.58)">
            <path id="Trazado_148976" data-name="Trazado 148976" d="M256.271,357.828c-.1,0-.187-11.484-.187-25.646s.084-25.648.187-25.648.186,11.482.186,25.648S256.374,357.828,256.271,357.828Z" transform="translate(-256.084 -306.534)" fill="#263238"/>
          </g>
          <g id="Grupo_97747" data-name="Grupo 97747" transform="translate(98.053 226.372)">
            <path id="Trazado_148977" data-name="Trazado 148977" d="M258.474,445.747c-.1,0-.187-8.059-.187-18s.084-18,.187-18,.186,8.056.186,18S258.576,445.747,258.474,445.747Z" transform="translate(-258.287 -409.752)" fill="#263238"/>
          </g>
        </g>
      </g>
      <g id="Character" transform="translate(235.49 63.057)">
        <g id="Grupo_97963" data-name="Grupo 97963">
          <g id="Grupo_97765" data-name="Grupo 97765" transform="translate(0 45.766)">
            <path id="Trazado_148978" data-name="Trazado 148978" d="M315.351,190.712c-.721,1.439,1.95,2.6,3.492,3.066a19.491,19.491,0,0,0,10.985-1.042,9.839,9.839,0,0,0,3.731-4.185,29.329,29.329,0,0,0,1.895-5.353S318.562,184.3,315.351,190.712Z" transform="translate(-312.036 -149.453)" fill="#e8505b"/>
            <g id="Grupo_97749" data-name="Grupo 97749" transform="translate(3.193 33.745)" opacity="0.4">
              <path id="Trazado_148979" data-name="Trazado 148979" d="M315.351,190.712c-.721,1.439,1.95,2.6,3.492,3.066a19.491,19.491,0,0,0,10.985-1.042,9.839,9.839,0,0,0,3.731-4.185,29.329,29.329,0,0,0,1.895-5.353S318.562,184.3,315.351,190.712Z" transform="translate(-315.23 -183.198)"/>
            </g>
            <g id="Grupo_97751" data-name="Grupo 97751" transform="translate(49.929 31.716)">
              <path id="Trazado_148980" data-name="Trazado 148980" d="M381.7,185.326a16.2,16.2,0,0,0,9.534,2.993,6.761,6.761,0,0,0,4.54-1.428c.551-.5.962-1.148,1.53-1.633.385-.329.836-.579,1.2-.933a1.534,1.534,0,0,0,.526-1.357,2.83,2.83,0,0,0-.987-1.579c-1.94-1.1-4.254-1.061-6.484-1.01a22.234,22.234,0,0,0-6.541,1.283c-1.729.582-3.542,1.4-4.418,3" transform="translate(-380.602 -180.36)" fill="#e8505b"/>
              <g id="Grupo_97750" data-name="Grupo 97750" transform="translate(0 0.01)" opacity="0.4">
                <path id="Trazado_148981" data-name="Trazado 148981" d="M399.033,182.973a3,3,0,0,0-1.268-1.436,11.417,11.417,0,0,0-6.2-1.152,22.233,22.233,0,0,0-6.541,1.283c-1.729.582-3.542,1.4-4.418,3l1.1.661a16.2,16.2,0,0,0,9.534,2.993,6.761,6.761,0,0,0,4.54-1.428c.551-.5.962-1.148,1.53-1.633.385-.329.836-.579,1.2-.933A1.534,1.534,0,0,0,399.033,182.973Z" transform="translate(-380.602 -180.374)"/>
              </g>
            </g>
            <path id="Trazado_148982" data-name="Trazado 148982" d="M328.819,198.342l35.639.467a.458.458,0,0,0,.442-.6l-4.18-13.041s.616-6.516,1.467-14.358c1.293-11.9,3.011-26.861,3.033-26.821-2.434-6.831-16.818-8-16.818-8l-16.394.974-.577-.962-4.717,2.193a21.8,21.8,0,0,0-2.96,1.669c-3.113,2.086-10.625,6.863-11.993,12.2-3.165,12.327,2.2,26.089,2.2,26.089l3.441-2.69a24.161,24.161,0,0,1,2.732-1.825l6.907,18.506a3.263,3.263,0,0,0-1.5,2.376,3.677,3.677,0,0,0,3.28,3.821" transform="translate(-310.763 -135.996)" fill="#ff6d60"/>
            <g id="Grupo_97752" data-name="Grupo 97752" transform="translate(28.685 22.052)" opacity="0.3">
              <path id="Trazado_148983" data-name="Trazado 148983" d="M355.536,185.315c1.13-6.075.533-12.322-.069-18.473-1.979,5.032-1.907,10.7-4,15.687a6.705,6.705,0,0,0-.558,1.651,1.845,1.845,0,0,0,.476,1.612c.569.52,1.418.24,2.183.148a8.342,8.342,0,0,0,1.967-.626" transform="translate(-350.887 -166.842)"/>
            </g>
            <g id="Grupo_97753" data-name="Grupo 97753" transform="translate(19.728 50.068)" opacity="0.4">
              <path id="Trazado_148984" data-name="Trazado 148984" d="M338.837,210.552c2.878,1,5.9-.853,8.931-1.182a22.52,22.52,0,0,1,5.989.564,44.773,44.773,0,0,0,12.154.3,4.651,4.651,0,0,0,1.788-.462,2.157,2.157,0,0,0,.935-1.774c-6.73-.691-13.462-1.1-20.192-1.793a12.692,12.692,0,0,0-5.048.16c-2.035.631-3.6,2.228-5.037,3.8" transform="translate(-338.357 -206.03)"/>
            </g>
            <path id="Trazado_148985" data-name="Trazado 148985" d="M396.523,170.872c-2.914-6.551-13.172-24.682-13.172-24.682l-7.946,9.962,1.854,19.554s4.2-4.683,15.926-4.777a5.75,5.75,0,0,1,4.366,2.3Z" transform="translate(-329.191 -138.902)" fill="#ff6d60"/>
            <g id="Grupo_97754" data-name="Grupo 97754" transform="translate(17.303 19.86)">
              <path id="Trazado_148986" data-name="Trazado 148986" d="M337.3,172.425a27.048,27.048,0,0,1-1.339-4.276,27.057,27.057,0,0,1-.979-4.373,27.064,27.064,0,0,1,1.339,4.277A27.205,27.205,0,0,1,337.3,172.425Z" transform="translate(-334.965 -163.776)" fill="#263238"/>
            </g>
            <g id="Grupo_97755" data-name="Grupo 97755" transform="translate(45.612 15.922)">
              <path id="Trazado_148987" data-name="Trazado 148987" d="M374.565,158.269a4.815,4.815,0,0,1,.735.625,20.123,20.123,0,0,1,1.77,1.945,18.763,18.763,0,0,1,3.793,7.763,14.513,14.513,0,0,1,.228,4.789c-.184,1.463-.465,2.749-.644,3.838s-.3,1.972-.357,2.585a6.389,6.389,0,0,1-.1.956,3.824,3.824,0,0,1-.045-.964,22.644,22.644,0,0,1,.242-2.618c.147-1.1.4-2.4.563-3.838a14.711,14.711,0,0,0-.251-4.671A19.653,19.653,0,0,0,376.862,161C375.54,159.239,374.51,158.323,374.565,158.269Z" transform="translate(-374.563 -158.267)" fill="#263238"/>
            </g>
            <g id="Grupo_97756" data-name="Grupo 97756" transform="translate(19.661 54.987)">
              <path id="Trazado_148988" data-name="Trazado 148988" d="M356.94,218.71a3.327,3.327,0,0,1-.776.226,7.448,7.448,0,0,1-.931.18,12.522,12.522,0,0,1-1.248.152,18.473,18.473,0,0,1-3.273-.019,19.441,19.441,0,0,1-7.622-2.366,18.421,18.421,0,0,1-2.708-1.839,12.44,12.44,0,0,1-.942-.831,7.459,7.459,0,0,1-.664-.676,3.343,3.343,0,0,1-.512-.626c.054-.051.821.807,2.281,1.926a20.559,20.559,0,0,0,2.71,1.744,20.549,20.549,0,0,0,7.492,2.326,20.552,20.552,0,0,0,3.221.1C355.807,218.91,356.925,218.638,356.94,218.71Z" transform="translate(-338.264 -212.91)" fill="#263238"/>
            </g>
            <g id="Grupo_97757" data-name="Grupo 97757" transform="translate(47.082 56.71)">
              <path id="Trazado_148989" data-name="Trazado 148989" d="M378.881,215.32a2.524,2.524,0,0,1,.275,1.044,6.441,6.441,0,0,1-.192,2.605,4.542,4.542,0,0,1-1.4,2.214,1.974,1.974,0,0,1-.942.537c-.031-.054.316-.272.763-.729a5.066,5.066,0,0,0,1.223-2.128A13.9,13.9,0,0,0,378.881,215.32Z" transform="translate(-376.619 -215.32)" fill="#263238"/>
            </g>
            <g id="Grupo_97758" data-name="Grupo 97758" transform="translate(45.868 59.228)">
              <path id="Trazado_148990" data-name="Trazado 148990" d="M376.459,218.843a3.886,3.886,0,0,1-1.531,3.946c-.079-.078.588-.789,1-1.881C376.361,219.822,376.348,218.847,376.459,218.843Z" transform="translate(-374.922 -218.843)" fill="#263238"/>
            </g>
            <g id="Grupo_97759" data-name="Grupo 97759" transform="translate(38.487 35.699)">
              <path id="Trazado_148991" data-name="Trazado 148991" d="M367.134,185.936a14.462,14.462,0,0,1-1.272,1.83,14.546,14.546,0,0,1-1.25,1.844,6.634,6.634,0,0,1,2.522-3.675Z" transform="translate(-364.598 -185.93)" fill="#263238"/>
            </g>
            <g id="Grupo_97760" data-name="Grupo 97760" transform="translate(4.661 13.884)">
              <path id="Trazado_148992" data-name="Trazado 148992" d="M329.186,159.923a18.006,18.006,0,0,1-1.581-1.047,20.354,20.354,0,0,0-8.443-3.152,18.067,18.067,0,0,1-1.88-.244,6.6,6.6,0,0,1,1.91-.017,17.1,17.1,0,0,1,8.563,3.2A6.623,6.623,0,0,1,329.186,159.923Z" transform="translate(-317.282 -155.416)" fill="#263238"/>
            </g>
            <g id="Grupo_97761" data-name="Grupo 97761" transform="translate(47.83 7.047)">
              <path id="Trazado_148993" data-name="Trazado 148993" d="M384,145.856a31.035,31.035,0,0,0-3.612,3.38,31.023,31.023,0,0,0-2.715,4.136,4.409,4.409,0,0,1,.5-1.387,14.171,14.171,0,0,1,4.547-5.4A4.417,4.417,0,0,1,384,145.856Z" transform="translate(-377.666 -145.853)" fill="#263238"/>
            </g>
            <g id="Grupo_97762" data-name="Grupo 97762" transform="translate(18.776 1.159)">
              <path id="Trazado_148994" data-name="Trazado 148994" d="M357.7,137.618a1.359,1.359,0,0,1,.161.33,6.141,6.141,0,0,1,.333,1,8.48,8.48,0,0,1-.014,3.871,9.515,9.515,0,0,1-2.916,4.927,9.887,9.887,0,0,1-6.578,2.343,11.13,11.13,0,0,1-6.641-2.22,12.7,12.7,0,0,1-3.655-4.43,13.51,13.51,0,0,1-1.217-3.679,9.8,9.8,0,0,1-.128-1.045,1.357,1.357,0,0,1-.007-.367c.038,0,.081.5.277,1.385a14.648,14.648,0,0,0,1.309,3.587,12.722,12.722,0,0,0,3.625,4.274,10.916,10.916,0,0,0,6.439,2.123,9.637,9.637,0,0,0,6.35-2.228,9.392,9.392,0,0,0,2.886-4.731,8.773,8.773,0,0,0,.128-3.779C357.871,138.095,357.652,137.634,357.7,137.618Z" transform="translate(-337.026 -137.618)" fill="#263238"/>
            </g>
            <g id="Grupo_97763" data-name="Grupo 97763" transform="translate(38.503 35.941)" opacity="0.3">
              <path id="Trazado_148995" data-name="Trazado 148995" d="M368.063,187.3c-.011-.357-.057-.778-.367-.957a.7.7,0,0,0-.648.011,1.82,1.82,0,0,0-.518.428,8.745,8.745,0,0,0-1.91,3.053l3.5-.3C368.1,188.793,368.086,188.039,368.063,187.3Z" transform="translate(-364.62 -186.269)"/>
            </g>
            <g id="Grupo_97764" data-name="Grupo 97764" transform="translate(51.039 24.169)" opacity="0.3">
              <path id="Trazado_148996" data-name="Trazado 148996" d="M384.7,175.233a11.471,11.471,0,0,0-2.54-5.43,17.913,17.913,0,0,1,.155,11.128l.183-.474C383.467,178.477,384.964,177.237,384.7,175.233Z" transform="translate(-382.155 -169.803)"/>
            </g>
          </g>
          <g id="Grupo_97785" data-name="Grupo 97785" transform="translate(28.305 240.121)">
            <g id="Grupo_97766" data-name="Grupo 97766">
              <path id="Trazado_148997" data-name="Trazado 148997" d="M368.63,409.287l-2.138,32.067-13.941-.164-2.2-33.337Z" transform="translate(-350.355 -407.852)" fill="#ffbe9d"/>
            </g>
            <g id="Grupo_97784" data-name="Grupo 97784" transform="translate(1.205 28.948)">
              <g id="Grupo_97783" data-name="Grupo 97783">
                <g id="Grupo_97768" data-name="Grupo 97768">
                  <g id="Grupo_97767" data-name="Grupo 97767">
                    <path id="Trazado_148998" data-name="Trazado 148998" d="M367.37,448.676l0,.927s15.715,6.325,15.88,9.307l-31.212-.183.485-10.384A17.854,17.854,0,0,0,367.37,448.676Z" transform="translate(-352.04 -448.344)" fill="#ffa648"/>
                  </g>
                </g>
                <g id="Grupo_97771" data-name="Grupo 97771" transform="translate(2.711 3.288)">
                  <g id="Grupo_97770" data-name="Grupo 97770">
                    <g id="Grupo_97769" data-name="Grupo 97769">
                      <path id="Trazado_148999" data-name="Trazado 148999" d="M356.747,452.995a1.275,1.275,0,0,0-.889,1.45,1.225,1.225,0,0,0,1.428.894,1.344,1.344,0,0,0,.934-1.54,1.271,1.271,0,0,0-1.589-.766" transform="translate(-355.832 -452.944)" fill="#fff"/>
                    </g>
                  </g>
                </g>
                <g id="Grupo_97773" data-name="Grupo 97773" transform="translate(0 7.887)">
                  <g id="Grupo_97772" data-name="Grupo 97772">
                    <path id="Trazado_149000" data-name="Trazado 149000" d="M352.04,461.873l.117-2.5,29.873,1.089s1.386.613,1.223,1.591Z" transform="translate(-352.04 -459.376)" fill="#263238"/>
                  </g>
                </g>
                <g id="Grupo_97776" data-name="Grupo 97776" transform="translate(12.587 1.204)">
                  <g id="Grupo_97775" data-name="Grupo 97775">
                    <g id="Grupo_97774" data-name="Grupo 97774">
                      <path id="Trazado_149001" data-name="Trazado 149001" d="M372.5,450.172c-.006.152-.769.217-1.521.7-.765.466-1.155,1.124-1.3,1.062-.14-.03.092-.94,1.014-1.512S372.535,450.032,372.5,450.172Z" transform="translate(-369.646 -450.028)" fill="#263238"/>
                    </g>
                  </g>
                </g>
                <g id="Grupo_97779" data-name="Grupo 97779" transform="translate(16.626 2.658)">
                  <g id="Grupo_97778" data-name="Grupo 97778">
                    <g id="Grupo_97777" data-name="Grupo 97777">
                      <path id="Trazado_149002" data-name="Trazado 149002" d="M377.377,452.125c.034.148-.627.4-1.149,1.045-.54.626-.675,1.322-.826,1.315-.144.023-.244-.87.42-1.656S377.375,451.98,377.377,452.125Z" transform="translate(-375.296 -452.062)" fill="#263238"/>
                    </g>
                  </g>
                </g>
                <g id="Grupo_97782" data-name="Grupo 97782" transform="translate(20.364 4.027)">
                  <g id="Grupo_97781" data-name="Grupo 97781">
                    <g id="Grupo_97780" data-name="Grupo 97780">
                      <path id="Trazado_149003" data-name="Trazado 149003" d="M380.7,456.6c-.139.031-.346-.731.05-1.564s1.111-1.16,1.175-1.033c.086.126-.38.571-.695,1.259C380.9,455.943,380.856,456.586,380.7,456.6Z" transform="translate(-380.525 -453.977)" fill="#263238"/>
                    </g>
                  </g>
                </g>
              </g>
            </g>
          </g>
          <g id="Grupo_97892" data-name="Grupo 97892" transform="translate(7.44)">
            <path id="Trazado_149004" data-name="Trazado 149004" d="M359.856,79.039a5.065,5.065,0,0,0-1.911-5.709,8.3,8.3,0,0,0-6.193-1.218,24.648,24.648,0,0,0-6.107,2.11,6.894,6.894,0,0,0-11.7,3.821,4.381,4.381,0,0,0-5.191,5.754l9.663,3.394,10.554,18.564A8.443,8.443,0,0,0,361.394,94.53a7.244,7.244,0,0,0,1.483-1.834,7.4,7.4,0,0,0,3.415-4.573A7.81,7.81,0,0,0,359.856,79.039Z" transform="translate(-323.258 -71.979)" fill="#263238"/>
            <g id="Grupo_97886" data-name="Grupo 97886" transform="translate(0 5.031)">
              <g id="Grupo_97863" data-name="Grupo 97863" transform="translate(6.348)">
                <g id="Grupo_97862" data-name="Grupo 97862">
                  <g id="Grupo_97860" data-name="Grupo 97860" transform="translate(0 1.835)">
                    <g id="Grupo_97859" data-name="Grupo 97859">
                      <g id="Grupo_97858" data-name="Grupo 97858">
                        <g id="Grupo_97857" data-name="Grupo 97857">
                          <g id="Grupo_97842" data-name="Grupo 97842">
                            <g id="Grupo_97841" data-name="Grupo 97841">
                              <g id="Grupo_97840" data-name="Grupo 97840">
                                <g id="Grupo_97792" data-name="Grupo 97792">
                                  <g id="Grupo_97791" data-name="Grupo 97791">
                                    <g id="Grupo_97790" data-name="Grupo 97790">
                                      <g id="Grupo_97789" data-name="Grupo 97789">
                                        <g id="Grupo_97788" data-name="Grupo 97788">
                                          <g id="Grupo_97787" data-name="Grupo 97787">
                                            <g id="Grupo_97786" data-name="Grupo 97786">
                                              <path id="Trazado_149005" data-name="Trazado 149005" d="M353.9,120.484c-.6-3.022-1.018-5.092-1.012-5.07,0,0,5.7-2.219,5.305-10.178-.2-3.958-1.705-10.2-3.106-15.264-1.26-4.56-5.511-9.587-10.014-8.134l-13.614,6.649c-1.368.441-1.607,1.726-1.285,3.126l.022.683,5.3,21.918,2.238,9.8a8.275,8.275,0,0,0,9.237,6.277h0A8.276,8.276,0,0,0,353.9,120.484Z" transform="translate(-330.048 -81.583)" fill="#ffbe9d"/>
                                            </g>
                                          </g>
                                        </g>
                                      </g>
                                    </g>
                                  </g>
                                </g>
                                <g id="Grupo_97808" data-name="Grupo 97808" transform="translate(20.445 11.469)">
                                  <g id="Grupo_97799" data-name="Grupo 97799" transform="translate(2.529 1.502)">
                                    <g id="Grupo_97798" data-name="Grupo 97798">
                                      <g id="Grupo_97797" data-name="Grupo 97797">
                                        <g id="Grupo_97796" data-name="Grupo 97796">
                                          <g id="Grupo_97795" data-name="Grupo 97795">
                                            <g id="Grupo_97794" data-name="Grupo 97794">
                                              <g id="Grupo_97793" data-name="Grupo 97793">
                                                <path id="Trazado_149006" data-name="Trazado 149006" d="M364.16,100.439a1.009,1.009,0,0,1-.744,1.2.965.965,0,0,1-1.205-.676,1.011,1.011,0,0,1,.742-1.2A.967.967,0,0,1,364.16,100.439Z" transform="translate(-362.184 -99.726)" fill="#263238"/>
                                              </g>
                                            </g>
                                          </g>
                                        </g>
                                      </g>
                                    </g>
                                  </g>
                                  <g id="Grupo_97807" data-name="Grupo 97807">
                                    <g id="Grupo_97806" data-name="Grupo 97806">
                                      <g id="Grupo_97805" data-name="Grupo 97805">
                                        <g id="Grupo_97804" data-name="Grupo 97804">
                                          <g id="Grupo_97803" data-name="Grupo 97803">
                                            <g id="Grupo_97802" data-name="Grupo 97802">
                                              <g id="Grupo_97801" data-name="Grupo 97801">
                                                <g id="Grupo_97800" data-name="Grupo 97800">
                                                  <path id="Trazado_149007" data-name="Trazado 149007" d="M362.564,98.318c-.1.154-.96-.242-2.023-.016-1.065.21-1.73.921-1.872.815-.069-.046.007-.3.3-.623a2.766,2.766,0,0,1,1.466-.811,2.659,2.659,0,0,1,1.643.174C362.453,98.037,362.612,98.248,362.564,98.318Z" transform="translate(-358.646 -97.625)" fill="#263238"/>
                                                </g>
                                              </g>
                                            </g>
                                          </g>
                                        </g>
                                      </g>
                                    </g>
                                  </g>
                                </g>
                                <g id="Grupo_97824" data-name="Grupo 97824" transform="translate(10.166 13.989)">
                                  <g id="Grupo_97815" data-name="Grupo 97815" transform="translate(2.464 1.353)">
                                    <g id="Grupo_97814" data-name="Grupo 97814">
                                      <g id="Grupo_97813" data-name="Grupo 97813">
                                        <g id="Grupo_97812" data-name="Grupo 97812">
                                          <g id="Grupo_97811" data-name="Grupo 97811">
                                            <g id="Grupo_97810" data-name="Grupo 97810">
                                              <g id="Grupo_97809" data-name="Grupo 97809">
                                                <path id="Trazado_149008" data-name="Trazado 149008" d="M349.69,103.756a1.009,1.009,0,0,1-.744,1.2.965.965,0,0,1-1.2-.677,1.009,1.009,0,0,1,.742-1.2A.966.966,0,0,1,349.69,103.756Z" transform="translate(-347.715 -103.043)" fill="#263238"/>
                                              </g>
                                            </g>
                                          </g>
                                        </g>
                                      </g>
                                    </g>
                                  </g>
                                  <g id="Grupo_97823" data-name="Grupo 97823">
                                    <g id="Grupo_97822" data-name="Grupo 97822">
                                      <g id="Grupo_97821" data-name="Grupo 97821">
                                        <g id="Grupo_97820" data-name="Grupo 97820">
                                          <g id="Grupo_97819" data-name="Grupo 97819">
                                            <g id="Grupo_97818" data-name="Grupo 97818">
                                              <g id="Grupo_97817" data-name="Grupo 97817">
                                                <g id="Grupo_97816" data-name="Grupo 97816">
                                                  <path id="Trazado_149009" data-name="Trazado 149009" d="M348.186,101.843c-.1.154-.961-.242-2.022-.016-1.065.21-1.73.921-1.872.815-.069-.046.006-.3.3-.623a2.767,2.767,0,0,1,1.465-.812,2.666,2.666,0,0,1,1.644.174C348.074,101.563,348.234,101.773,348.186,101.843Z" transform="translate(-344.268 -101.15)" fill="#263238"/>
                                                </g>
                                              </g>
                                            </g>
                                          </g>
                                        </g>
                                      </g>
                                    </g>
                                  </g>
                                </g>
                                <g id="Grupo_97832" data-name="Grupo 97832" transform="translate(17.118 12.65)">
                                  <g id="Grupo_97831" data-name="Grupo 97831">
                                    <g id="Grupo_97830" data-name="Grupo 97830">
                                      <g id="Grupo_97829" data-name="Grupo 97829">
                                        <g id="Grupo_97828" data-name="Grupo 97828">
                                          <g id="Grupo_97827" data-name="Grupo 97827">
                                            <g id="Grupo_97826" data-name="Grupo 97826">
                                              <g id="Grupo_97825" data-name="Grupo 97825">
                                                <path id="Trazado_149010" data-name="Trazado 149010" d="M356.342,108.033a7.181,7.181,0,0,1,1.661-.674c.265-.085.511-.192.518-.387a1.408,1.408,0,0,0-.35-.766l-1.236-1.9A36.218,36.218,0,0,1,354,99.279a36.373,36.373,0,0,1,3.334,4.779l1.205,1.918a1.6,1.6,0,0,1,.364,1.036.7.7,0,0,1-.363.49,1.889,1.889,0,0,1-.448.161A7.09,7.09,0,0,1,356.342,108.033Z" transform="translate(-353.992 -99.278)" fill="#263238"/>
                                              </g>
                                            </g>
                                          </g>
                                        </g>
                                      </g>
                                    </g>
                                  </g>
                                </g>
                                <g id="Grupo_97839" data-name="Grupo 97839" transform="translate(11.948 33.243)">
                                  <g id="Grupo_97838" data-name="Grupo 97838">
                                    <g id="Grupo_97837" data-name="Grupo 97837">
                                      <g id="Grupo_97836" data-name="Grupo 97836">
                                        <g id="Grupo_97835" data-name="Grupo 97835">
                                          <g id="Grupo_97834" data-name="Grupo 97834">
                                            <g id="Grupo_97833" data-name="Grupo 97833">
                                              <path id="Trazado_149011" data-name="Trazado 149011" d="M357.653,128.67a20.02,20.02,0,0,1-10.892-.588s3.743,4.89,11.3,2.552Z" transform="translate(-346.761 -128.082)" fill="#eb996e"/>
                                            </g>
                                          </g>
                                        </g>
                                      </g>
                                    </g>
                                  </g>
                                </g>
                              </g>
                            </g>
                          </g>
                          <g id="Grupo_97849" data-name="Grupo 97849" transform="translate(9.422 12.578)">
                            <g id="Grupo_97848" data-name="Grupo 97848">
                              <g id="Grupo_97847" data-name="Grupo 97847">
                                <g id="Grupo_97846" data-name="Grupo 97846">
                                  <g id="Grupo_97845" data-name="Grupo 97845">
                                    <g id="Grupo_97844" data-name="Grupo 97844">
                                      <g id="Grupo_97843" data-name="Grupo 97843">
                                        <path id="Trazado_149012" data-name="Trazado 149012" d="M348.091,99.765c-.07.306-1.164.3-2.41.6-1.253.282-2.228.776-2.427.534-.09-.117.054-.414.432-.748a4.32,4.32,0,0,1,3.685-.868C347.858,99.418,348.12,99.62,348.091,99.765Z" transform="translate(-343.228 -99.176)" fill="#263238"/>
                                      </g>
                                    </g>
                                  </g>
                                </g>
                              </g>
                            </g>
                          </g>
                          <g id="Grupo_97856" data-name="Grupo 97856" transform="translate(19.632 8.057)">
                            <g id="Grupo_97855" data-name="Grupo 97855">
                              <g id="Grupo_97854" data-name="Grupo 97854">
                                <g id="Grupo_97853" data-name="Grupo 97853">
                                  <g id="Grupo_97852" data-name="Grupo 97852">
                                    <g id="Grupo_97851" data-name="Grupo 97851">
                                      <g id="Grupo_97850" data-name="Grupo 97850">
                                        <path id="Trazado_149013" data-name="Trazado 149013" d="M361.837,93.576c-.17.287-1.089.219-2.133.426-1.05.176-1.89.565-2.146.355-.114-.1-.026-.375.312-.684a3.423,3.423,0,0,1,1.648-.759,3.381,3.381,0,0,1,1.8.129C361.736,93.215,361.909,93.438,361.837,93.576Z" transform="translate(-357.51 -92.852)" fill="#263238"/>
                                      </g>
                                    </g>
                                  </g>
                                </g>
                              </g>
                            </g>
                          </g>
                        </g>
                      </g>
                    </g>
                  </g>
                  <g id="Grupo_97861" data-name="Grupo 97861" transform="translate(4.347)">
                    <path id="Trazado_149014" data-name="Trazado 149014" d="M336.543,82.635a5.385,5.385,0,0,0,7.3,3.916c1.132-.46,2.3-1.323,3.449-.907,1.208.438,1.588,2.044,2.71,2.672,1.6.9,3.534-.657,5.365-.5,1.413.119,2.509,1.219,3.616,2.106s2.644,1.631,3.893.959a15.949,15.949,0,0,0-1.265-3.443,5.365,5.365,0,0,0-2.619-2.476,20.118,20.118,0,0,1-1.909-.638c-1.29-.663-1.869-2.163-2.81-3.268a5.9,5.9,0,0,0-5.008-2.007c-1.548.159-3.016.939-4.57.872-1.15-.049-2.251-.56-3.4-.54-2.24.038-3.923,2-5.165,3.864" transform="translate(-336.129 -79.017)" fill="#263238"/>
                  </g>
                </g>
              </g>
              <path id="Trazado_149015" data-name="Trazado 149015" d="M339.812,85.143c-1.024-.076-3.13-.292-3.822-1.022a6.032,6.032,0,0,0-5.749-1.886A4.977,4.977,0,0,0,326.653,87a7.155,7.155,0,0,0-5.219,5.127,8.3,8.3,0,0,0,1.786,7.51,14.863,14.863,0,0,1,1.173,1.7,12.153,12.153,0,0,0-1.272,1.928c-1.634,3.617,2.8,5,2.8,5,.012,2.431,2.253,2.42,3.69,2.413,1.383-.006,2.233,3.826,3.352,3.678l-1.137-11.84a1.48,1.48,0,0,0,.524.1c2.711.048,2-5.079,1.125-6.4a15.36,15.36,0,0,0,2.032-3.271,11.082,11.082,0,0,0,.105-5.481C336.558,87.314,340.262,85.176,339.812,85.143Z" transform="translate(-321.17 -79.889)" fill="#263238"/>
              <g id="Grupo_97885" data-name="Grupo 97885" transform="translate(6.537 21.485)">
                <g id="Grupo_97873" data-name="Grupo 97873">
                  <g id="Grupo_97872" data-name="Grupo 97872">
                    <g id="Grupo_97871" data-name="Grupo 97871">
                      <g id="Grupo_97870" data-name="Grupo 97870">
                        <g id="Grupo_97869" data-name="Grupo 97869">
                          <g id="Grupo_97868" data-name="Grupo 97868">
                            <g id="Grupo_97867" data-name="Grupo 97867">
                              <g id="Grupo_97866" data-name="Grupo 97866">
                                <g id="Grupo_97865" data-name="Grupo 97865">
                                  <g id="Grupo_97864" data-name="Grupo 97864">
                                    <path id="Trazado_149016" data-name="Trazado 149016" d="M334.839,110.837a2.3,2.3,0,0,0-3.685-1.23c-.686.613-1.1,1.644-.663,3.369,1.155,4.6,5.537,2.494,5.512,2.36C335.987,115.254,335.334,112.737,334.839,110.837Z" transform="translate(-330.313 -109.069)" fill="#ffbe9d"/>
                                  </g>
                                </g>
                              </g>
                            </g>
                          </g>
                        </g>
                      </g>
                    </g>
                  </g>
                </g>
                <g id="Grupo_97884" data-name="Grupo 97884" transform="translate(1.275 1.431)">
                  <g id="Grupo_97883" data-name="Grupo 97883">
                    <g id="Grupo_97882" data-name="Grupo 97882">
                      <g id="Grupo_97881" data-name="Grupo 97881">
                        <g id="Grupo_97880" data-name="Grupo 97880">
                          <g id="Grupo_97879" data-name="Grupo 97879">
                            <g id="Grupo_97878" data-name="Grupo 97878">
                              <g id="Grupo_97877" data-name="Grupo 97877">
                                <g id="Grupo_97876" data-name="Grupo 97876">
                                  <g id="Grupo_97875" data-name="Grupo 97875">
                                    <g id="Grupo_97874" data-name="Grupo 97874">
                                      <path id="Trazado_149017" data-name="Trazado 149017" d="M334.669,114.516c-.024-.009-.066.076-.187.172a.826.826,0,0,1-.6.163c-.53-.056-1.134-.726-1.364-1.55a2.739,2.739,0,0,1-.064-1.2.955.955,0,0,1,.449-.766.421.421,0,0,1,.528.1c.094.113.088.212.114.214s.08-.1,0-.283a.53.53,0,0,0-.253-.243.627.627,0,0,0-.473-.006,1.163,1.163,0,0,0-.658.924,2.817,2.817,0,0,0,.044,1.353c.262.919.955,1.669,1.669,1.694a.882.882,0,0,0,.7-.305C334.688,114.63,334.686,114.521,334.669,114.516Z" transform="translate(-332.097 -111.071)" fill="#eb996e"/>
                                    </g>
                                  </g>
                                </g>
                              </g>
                            </g>
                          </g>
                        </g>
                      </g>
                    </g>
                  </g>
                </g>
              </g>
            </g>
            <g id="Grupo_97887" data-name="Grupo 97887" transform="translate(13.639 8.03)">
              <path id="Trazado_149018" data-name="Trazado 149018" d="M362.357,97.037c-.029-.035.416-.321,1-1.039a6.766,6.766,0,0,0,1.437-3.575,6.582,6.582,0,0,0-.257-2.651,5.69,5.69,0,0,0-1.634-2.54,6.719,6.719,0,0,0-6.571-1.279c-.215.069-.415.177-.618.261-.2.1-.38.217-.562.32l-.283.159,0-.315a2.323,2.323,0,0,0-.578-1.5,3.694,3.694,0,0,0-1.32-.944,4.873,4.873,0,0,0-3.069-.224c-1.973.448-3.647,1.35-5.227,1.531a5.055,5.055,0,0,1-3.566-.716,2.91,2.91,0,0,1-.7-.715,1.253,1.253,0,0,1-.159-.31,4.1,4.1,0,0,0,.937.91,5.035,5.035,0,0,0,3.453.579,12.4,12.4,0,0,0,2.4-.693,21.67,21.67,0,0,1,2.791-.914,6.192,6.192,0,0,1,1.616-.162,4.981,4.981,0,0,1,1.666.383,4.046,4.046,0,0,1,1.457,1.035,2.692,2.692,0,0,1,.671,1.742l-.287-.156c.194-.111.391-.233.6-.342.217-.09.43-.2.658-.278a7.026,7.026,0,0,1,6.928,1.375,5.967,5.967,0,0,1,1.7,2.7,6.766,6.766,0,0,1,.223,2.771,6.685,6.685,0,0,1-1.588,3.64,4.773,4.773,0,0,1-.8.739A1.431,1.431,0,0,1,362.357,97.037Z" transform="translate(-340.247 -83.212)" fill="#455a64"/>
            </g>
            <g id="Grupo_97888" data-name="Grupo 97888" transform="translate(14.206 2.993)">
              <path id="Trazado_149019" data-name="Trazado 149019" d="M361.648,78.867a5.1,5.1,0,0,0-1.481-.508,3.9,3.9,0,0,0-1.76.159,3.474,3.474,0,0,0-1.812,1.317l-.175.253-.107-.286a5.378,5.378,0,0,0-4.361-3.239,6.946,6.946,0,0,0-4.192,1.212,18.58,18.58,0,0,1-3.323,1.719,5.227,5.227,0,0,1-2.515.3,3.167,3.167,0,0,1-.667-.183c-.146-.063-.219-.1-.214-.114.011-.034.319.1.9.153a5.463,5.463,0,0,0,2.409-.4,20.082,20.082,0,0,0,3.239-1.768,11.38,11.38,0,0,1,2-.978,5.456,5.456,0,0,1,2.4-.307,5.64,5.64,0,0,1,4.622,3.494l-.282-.034a3.7,3.7,0,0,1,2-1.387,3.95,3.95,0,0,1,1.868-.093,3.351,3.351,0,0,1,1.12.428C361.549,78.755,361.657,78.855,361.648,78.867Z" transform="translate(-341.041 -76.166)" fill="#455a64"/>
            </g>
            <path id="Trazado_149020" data-name="Trazado 149020" d="M355.65,114.331a1.557,1.557,0,0,0-1.256-.365,1.84,1.84,0,0,0-1.2.879l-.019.027c-.011.02-.029.038-.039.059l.017-.012a.882.882,0,0,0-.134.54,1.3,1.3,0,0,0,.747.967,1.643,1.643,0,0,0,1.873-.271A1.342,1.342,0,0,0,355.65,114.331Z" transform="translate(-330.247 -83.946)" fill="#e8505b"/>
            <g id="Grupo_97889" data-name="Grupo 97889" transform="translate(22.528 30.679)">
              <path id="Trazado_149021" data-name="Trazado 149021" d="M355.913,116.822c-.055.011-.125-.212-.315-.511a2.242,2.242,0,0,0-2.321-1.056c-.351.054-.565.147-.593.1s.149-.222.53-.354a2.115,2.115,0,0,1,2.618,1.191C355.983,116.564,355.958,116.817,355.913,116.822Z" transform="translate(-352.682 -114.893)" fill="#263238"/>
            </g>
            <g id="Grupo_97890" data-name="Grupo 97890" transform="translate(8.397 32.413)">
              <path id="Trazado_149022" data-name="Trazado 149022" d="M335.687,118.4c.034-.022.2.357-.064.9a1.457,1.457,0,0,1-.762.689,1.479,1.479,0,0,1-1.941-1.223,1.457,1.457,0,0,1,.292-.985c.373-.475.789-.487.784-.445.024.056-.314.162-.566.593a1.287,1.287,0,0,0-.169.8,1.193,1.193,0,0,0,1.486.935,1.286,1.286,0,0,0,.65-.5C335.675,118.751,335.625,118.4,335.687,118.4Z" transform="translate(-332.916 -117.318)" fill="#e8505b"/>
            </g>
            <g id="Grupo_97891" data-name="Grupo 97891" transform="translate(7.126 31.883)">
              <path id="Trazado_149023" data-name="Trazado 149023" d="M332.766,117.911c.041.019-.021.244-.332.4a.9.9,0,0,1-.594.059.952.952,0,0,1-.654-1.209.9.9,0,0,1,.374-.465c.3-.177.52-.106.513-.062s-.176.093-.353.271a.68.68,0,0,0,.627,1.159C332.593,118.007,332.721,117.877,332.766,117.911Z" transform="translate(-331.137 -116.577)" fill="#e8505b"/>
            </g>
          </g>
          <g id="Grupo_97901" data-name="Grupo 97901" transform="translate(8.08 37)">
            <path id="Trazado_149024" data-name="Trazado 149024" d="M344.393,199.71s17.7,1.027,28.163,1.123c8.1.074,11.716-2.078,13.337-7.285,1.36-4.372-1.563-12.756-1.563-12.756-5.48.028-8.862.783-12.389,2.436l.94,3.833-28.539,2.461Z" transform="translate(-328.416 -140.001)" fill="#ffbe9d"/>
            <g id="Grupo_97893" data-name="Grupo 97893" transform="translate(44.298 46.953)">
              <path id="Trazado_149025" data-name="Trazado 149025" d="M390.145,193.609a10.321,10.321,0,0,0-6.117-4.17,2.524,2.524,0,0,1,1.135.1,7.574,7.574,0,0,1,4.475,3.051A2.536,2.536,0,0,1,390.145,193.609Z" transform="translate(-384.028 -189.41)" fill="#eb996e"/>
            </g>
            <g id="Grupo_97900" data-name="Grupo 97900">
              <path id="Trazado_149026" data-name="Trazado 149026" d="M331.56,174.391h0a34.238,34.238,0,0,0-9.5,4l4.275,11.627a6.564,6.564,0,0,0,9.269,3.711c5.383-3.076,7.282-12.056,7.282-12.056l5.917-25.65-9.8-6.142-7.446,24.508" transform="translate(-322.065 -131.189)" fill="#ffbe9d"/>
              <g id="Grupo_97899" data-name="Grupo 97899" transform="translate(7.825)">
                <path id="Trazado_149027" data-name="Trazado 149027" d="M345.01,142.487l.4-8.435-2.189-8.544c-.122-.474-.181-1.064.2-1.352a1.039,1.039,0,0,1,1.321.041c.6.613,3.457,8.117,3.457,8.117a43.814,43.814,0,0,1,5.112-2.734c.774-.127,1.739,2.207,1.8,2.391a13.6,13.6,0,0,1,.008,1.568s2.682.08,2.923.448a9.212,9.212,0,0,1,.31,2.276s1.134.364,1.317,1.224.548,2.275.014,2.585-1.664.932-1.664.932-.455,4.377-.572,4.775a27.147,27.147,0,0,1-2.632,2.85Z" transform="translate(-335.894 -123.793)" fill="#ffbe9d"/>
                <g id="Grupo_97894" data-name="Grupo 97894">
                  <path id="Trazado_149028" data-name="Trazado 149028" d="M333.011,186.452c.011-.024.267.152.821.332a5.593,5.593,0,0,0,2.527.2,7.05,7.05,0,0,0,3.659-1.687,16.963,16.963,0,0,0,3.4-4.307,19.332,19.332,0,0,0,1.325-2.954,30.266,30.266,0,0,0,.917-3.427c.561-2.409,1.166-5,1.808-7.76,1.29-5.515,2.733-11.68,4.287-18.321l.011-.049.037-.036c.492-.483.987-.979,1.476-1.49.244-.256.488-.515.721-.782a5.027,5.027,0,0,0,.325-.4c.084-.086.086-.259.119-.441.194-1.431.345-2.91.5-4.4l.01-.094.084-.047,1.363-.764c.1-.061.257-.137.321-.188a.4.4,0,0,0,.129-.239,2.282,2.282,0,0,0,.009-.741,11.12,11.12,0,0,0-.317-1.554,1.913,1.913,0,0,0-1.138-.918l-.124-.046-.005-.124c-.018-.414-.046-.84-.092-1.264-.024-.212-.051-.425-.1-.628a1.231,1.231,0,0,0-.082-.265c-.022-.046-.012-.011-.044-.041a.714.714,0,0,0-.12-.051,12.621,12.621,0,0,0-2.618-.3l-.187-.009.006-.184c.014-.441.032-.934.012-1.4a1.47,1.47,0,0,0-.167-.479c-.076-.172-.159-.342-.245-.51a6.132,6.132,0,0,0-.585-.944,1.579,1.579,0,0,0-.363-.356.348.348,0,0,0-.38-.044,9.264,9.264,0,0,0-1.008.462c-1.335.694-2.63,1.453-3.9,2.208l-.187.111-.079-.2q-1.014-2.539-2-5.012l-.979-2.453a1.017,1.017,0,0,0-.786-.736.8.8,0,0,0-.93.342.832.832,0,0,0-.109.509c.021.159.1.4.146.6q.163.619.324,1.232.322,1.226.638,2.429l1.239,4.72.006.025V134c-.142,2.935-.279,5.752-.408,8.435v.019l-.006.019c-2.7,8.791-4.942,16.083-6.513,21.193-.789,2.533-1.409,4.524-1.837,5.9l-.495,1.547c-.114.349-.184.525-.184.525s.039-.186.139-.54l.45-1.56,1.757-5.924c1.54-5.12,3.738-12.425,6.387-21.232l-.006.037c.122-2.682.25-5.5.382-8.436l.005.05q-.611-2.31-1.25-4.716l-.643-2.429-.326-1.23c-.051-.219-.116-.384-.157-.648a1.2,1.2,0,0,1,.154-.728,1.106,1.106,0,0,1,.579-.487,1.379,1.379,0,0,1,.739-.024,1.465,1.465,0,0,1,.655.334,1.446,1.446,0,0,1,.385.616q.487,1.217.982,2.452l2.007,5.012-.267-.09c1.278-.76,2.572-1.518,3.923-2.222a9.493,9.493,0,0,1,1.061-.484.811.811,0,0,1,.36-.051.779.779,0,0,1,.339.135,1.943,1.943,0,0,1,.453.438,6.479,6.479,0,0,1,.624,1.005c.089.174.174.349.254.528a1.751,1.751,0,0,1,.2.607c.021.507,0,.983-.011,1.436l-.181-.193a12.607,12.607,0,0,1,2.73.317,1.027,1.027,0,0,1,.184.08.459.459,0,0,1,.184.187,1.51,1.51,0,0,1,.118.362c.049.226.076.446.1.665.048.438.076.866.094,1.292l-.129-.169a2.26,2.26,0,0,1,1.366,1.13,10.808,10.808,0,0,1,.342,1.655,2.6,2.6,0,0,1-.017.869.76.76,0,0,1-.26.442,3.8,3.8,0,0,1-.365.217l-1.37.766.094-.141c-.161,1.493-.312,2.965-.51,4.414l-.046.277a.713.713,0,0,1-.132.312,4.868,4.868,0,0,1-.352.439c-.24.274-.487.535-.733.793-.495.514-.992,1.011-1.488,1.5l.049-.086-4.339,18.309-1.844,7.75a30.246,30.246,0,0,1-.945,3.448,19.527,19.527,0,0,1-1.361,2.98,16.97,16.97,0,0,1-3.48,4.327,7.111,7.111,0,0,1-3.756,1.676,5.508,5.508,0,0,1-2.562-.259,3.782,3.782,0,0,1-.608-.275A1.251,1.251,0,0,1,333.011,186.452Z" transform="translate(-333.011 -123.734)" fill="#eb996e"/>
                </g>
                <g id="Grupo_97895" data-name="Grupo 97895" transform="translate(15.521 9.528)">
                  <path id="Trazado_149029" data-name="Trazado 149029" d="M358.422,137.266c0,.053-.242.079-.62.1a7.154,7.154,0,0,0-1.424.169,2.815,2.815,0,0,0-1.213.648c-.262.244-.375.451-.428.428s-.014-.274.232-.6a2.406,2.406,0,0,1,1.316-.834,4.155,4.155,0,0,1,1.528-.072C358.2,137.151,358.425,137.216,358.422,137.266Z" transform="translate(-354.72 -137.062)" fill="#eb996e"/>
                </g>
                <g id="Grupo_97896" data-name="Grupo 97896" transform="translate(17.048 8.95)">
                  <path id="Trazado_149030" data-name="Trazado 149030" d="M356.934,137.114c-.1-.036-.1-.257-.014-.493s.238-.4.335-.363.1.257.014.493S357.03,137.15,356.934,137.114Z" transform="translate(-356.857 -136.253)" fill="#eb996e"/>
                </g>
                <g id="Grupo_97897" data-name="Grupo 97897" transform="translate(18.963 12.295)">
                  <path id="Trazado_149031" data-name="Trazado 149031" d="M363.145,141.044a6.712,6.712,0,0,1-2.122.294,1.45,1.45,0,0,0-1.181.568c-.189.292-.126.535-.18.55-.034.033-.228-.241-.055-.668a1.168,1.168,0,0,1,.511-.568,2.266,2.266,0,0,1,.86-.252A6.037,6.037,0,0,1,363.145,141.044Z" transform="translate(-359.536 -140.932)" fill="#eb996e"/>
                </g>
                <g id="Grupo_97898" data-name="Grupo 97898" transform="translate(21.849 14.979)">
                  <path id="Trazado_149032" data-name="Trazado 149032" d="M363.819,144.687c.1,0,.162.533.133,1.18s-.136,1.168-.239,1.164-.162-.533-.133-1.181S363.716,144.682,363.819,144.687Z" transform="translate(-363.573 -144.687)" fill="#eb996e"/>
                </g>
              </g>
            </g>
          </g>
          <g id="Grupo_97903" data-name="Grupo 97903" transform="translate(40.973 67.123)">
            <path id="Trazado_149033" data-name="Trazado 149033" d="M368.074,169.981l.636-2.192a.6.6,0,0,1,1-.252l.829.846.518-2.061a.6.6,0,0,1,1.12-.113l1.17,2.441Z" transform="translate(-368.074 -165.869)" fill="#fff"/>
            <g id="Grupo_97902" data-name="Grupo 97902" transform="translate(0.148 3.693)">
              <path id="Trazado_149034" data-name="Trazado 149034" d="M373.42,171.061a18.9,18.9,0,0,1-5.139,1.273,18.9,18.9,0,0,1,5.139-1.273Z" transform="translate(-368.28 -171.036)" fill="#fff"/>
            </g>
          </g>
          <g id="Grupo_97904" data-name="Grupo 97904" transform="translate(1.83 58.621)">
            <path id="Trazado_149035" data-name="Trazado 149035" d="M315.238,153.977c.017.014-.266.275-.636.849a7.269,7.269,0,0,0-.969,2.7,19.508,19.508,0,0,0-.129,4.283c.079,1.619.209,3.4.408,5.254a92.208,92.208,0,0,0,1.508,9.451c.255,1.2.483,2.164.642,2.831l.184.768c.041.176.054.27.054.27s-.033-.089-.083-.262c-.06-.217-.13-.468-.212-.761-.176-.663-.42-1.625-.688-2.822a83.748,83.748,0,0,1-1.554-9.458c-.2-1.862-.325-3.642-.4-5.263a19.1,19.1,0,0,1,.162-4.307,7.11,7.11,0,0,1,1.024-2.713A4.306,4.306,0,0,1,315.238,153.977Z" transform="translate(-313.322 -153.977)" fill="#fff"/>
          </g>
          <g id="Grupo_97905" data-name="Grupo 97905" transform="translate(3.746 48.901)">
            <path id="Trazado_149036" data-name="Trazado 149036" d="M331.047,140.382a.908.908,0,0,1-.161.087l-.472.225c-.409.2-1,.483-1.709.875a61.617,61.617,0,0,0-5.372,3.357c-2.041,1.4-3.851,2.73-5.172,3.674l-1.569,1.111-.433.3a.866.866,0,0,1-.157.094.845.845,0,0,1,.139-.119l.416-.317,1.541-1.15c1.305-.966,3.106-2.306,5.15-3.712a53.687,53.687,0,0,1,5.407-3.327c.718-.382,1.317-.656,1.735-.835l.484-.2A.785.785,0,0,1,331.047,140.382Z" transform="translate(-316.002 -140.381)" fill="#fff"/>
          </g>
          <g id="Grupo_97906" data-name="Grupo 97906" transform="translate(39.624 47.744)">
            <path id="Trazado_149037" data-name="Trazado 149037" d="M379.449,144.571a.582.582,0,0,1-.119-.09l-.322-.279a12.79,12.79,0,0,0-1.253-.934,25.441,25.441,0,0,0-4.6-2.326,46.688,46.688,0,0,0-4.9-1.631c-.637-.177-1.157-.307-1.516-.4l-.413-.105a.564.564,0,0,1-.142-.047.577.577,0,0,1,.149.018l.42.078c.363.072.888.186,1.53.35a39.69,39.69,0,0,1,4.929,1.594,23.316,23.316,0,0,1,4.6,2.377A9.081,9.081,0,0,1,379.449,144.571Z" transform="translate(-366.188 -138.762)" fill="#fff"/>
          </g>
          <g id="Grupo_97907" data-name="Grupo 97907" transform="translate(16.35 102.018)">
            <path id="Trazado_149038" data-name="Trazado 149038" d="M336.275,220.784a1.011,1.011,0,0,1-.279-.1,4.721,4.721,0,0,1-.709-.379,3.45,3.45,0,0,1-1.555-2.105,4.122,4.122,0,0,1,.277-2.617,3.609,3.609,0,0,1,.414-.691.976.976,0,0,1,.2-.217,8.337,8.337,0,0,0-.516.951,4.234,4.234,0,0,0-.228,2.541,3.48,3.48,0,0,0,1.469,2.052C335.895,220.6,336.287,220.759,336.275,220.784Z" transform="translate(-333.633 -214.679)" fill="#fff"/>
          </g>
          <g id="Grupo_97908" data-name="Grupo 97908" transform="translate(16.708 100.383)">
            <path id="Trazado_149039" data-name="Trazado 149039" d="M334.142,212.392a6.193,6.193,0,0,1,.538,1.837,6.191,6.191,0,0,1-.538-1.837Z" transform="translate(-334.133 -212.392)" fill="#fff"/>
          </g>
          <g id="Grupo_97962" data-name="Grupo 97962" transform="translate(8.626 108.112)">
            <g id="Grupo_97909" data-name="Grupo 97909">
              <path id="Trazado_149040" data-name="Trazado 149040" d="M340.585,375.762l21.808-.109-.4-75.393-.2-76.69-29.535-.367-5.309,10.01a35.944,35.944,0,0,0-4.086,12.974c-.371,3.464,2.225,14.763,3.131,17.638l8.13,25.781Z" transform="translate(-322.829 -223.203)" fill="#263238"/>
              <path id="Trazado_149041" data-name="Trazado 149041" d="M377.328,223.827l23.961,65.322a30.133,30.133,0,0,1-2.954,25.522l-27.82,54.3L354.873,349.4l23.278-48.645L357.63,267.511l3.453-43.616,9.666-.156Z" transform="translate(-331.964 -223.356)" fill="#263238"/>
            </g>
            <g id="Grupo_97910" data-name="Grupo 97910" transform="translate(36.969 22.354)">
              <path id="Trazado_149042" data-name="Trazado 149042" d="M374.545,254.471s.018.114.034.335c.015.237.036.564.062.984.047.883.115,2.156.2,3.787.16,3.306.39,8.061.673,13.931.271,5.887.593,12.89.952,20.663.174,3.889.358,7.971.549,12.2.136,2.115.074,4.272.1,6.459q.01,3.281.02,6.653c.03,17.967.058,34.23.077,46.021-.008,5.876-.014,10.636-.019,13.946-.01,1.633-.019,2.908-.024,3.792-.006.42-.011.748-.015.986-.006.222-.019.336-.019.336s-.013-.114-.02-.336l-.021-.986c-.011-.884-.026-2.158-.046-3.791-.024-3.31-.058-8.069-.1-13.944-.048-11.79-.114-28.051-.186-46.016q-.01-3.369-.019-6.652c-.024-2.187.04-4.344-.094-6.459-.182-4.231-.359-8.312-.527-12.2-.327-7.774-.623-14.777-.871-20.664-.234-5.87-.423-10.626-.555-13.934-.057-1.632-.1-2.905-.132-3.79-.011-.42-.019-.748-.025-.986C374.537,254.585,374.545,254.471,374.545,254.471Z" transform="translate(-374.54 -254.471)" fill="#455a64"/>
            </g>
            <g id="Grupo_97911" data-name="Grupo 97911" transform="translate(36.411 1.759)">
              <path id="Trazado_149043" data-name="Trazado 149043" d="M373.776,225.664a2.715,2.715,0,0,1,.151.71c.074.46.163,1.127.258,1.955.192,1.654.392,3.946.508,6.484s.12,4.841.079,6.505c-.02.832-.049,1.506-.081,1.97a2.71,2.71,0,0,1-.087.721,22.2,22.2,0,0,1-.1-2.691c-.026-1.661-.074-3.956-.188-6.487s-.273-4.82-.4-6.477A22.123,22.123,0,0,1,373.776,225.664Z" transform="translate(-373.759 -225.664)" fill="#455a64"/>
            </g>
            <g id="Grupo_97912" data-name="Grupo 97912" transform="translate(30.832 3.042)">
              <path id="Trazado_149044" data-name="Trazado 149044" d="M366.746,227.647a1.753,1.753,0,0,0-.483.815.926.926,0,0,0,.277.871.952.952,0,0,0,1.625-.744.927.927,0,0,0-.479-.779,1.74,1.74,0,0,0-.933-.166c-.009-.019.069-.1.254-.149a1.221,1.221,0,0,1,1.5,1.076,1.28,1.28,0,0,1-2.2,1.009,1.22,1.22,0,0,1,.166-1.839C366.63,227.637,366.738,227.627,366.746,227.647Z" transform="translate(-365.956 -227.459)" fill="#455a64"/>
            </g>
            <g id="Grupo_97913" data-name="Grupo 97913" transform="translate(8.734 1.936)">
              <path id="Trazado_149045" data-name="Trazado 149045" d="M346.493,225.911a2.138,2.138,0,0,1,.2.684,6.779,6.779,0,0,1,.064,1.942,7.823,7.823,0,0,1-.825,2.77,7.333,7.333,0,0,1-5.587,4.011,7.834,7.834,0,0,1-2.888-.1,6.785,6.785,0,0,1-1.821-.681,2.129,2.129,0,0,1-.586-.4,12.325,12.325,0,0,0,2.459.828,7.506,7.506,0,0,0,8.987-6.451A12.409,12.409,0,0,0,346.493,225.911Z" transform="translate(-335.045 -225.911)" fill="#455a64"/>
            </g>
            <g id="Grupo_97914" data-name="Grupo 97914" transform="translate(42.436 1.874)">
              <path id="Trazado_149046" data-name="Trazado 149046" d="M387.984,232.145a2.893,2.893,0,0,1-1.373-.162,6.382,6.382,0,0,1-4.334-4.775,2.893,2.893,0,0,1-.029-1.383c.066,0,.07.525.286,1.323a6.909,6.909,0,0,0,4.162,4.585C387.467,232.025,387.991,232.079,387.984,232.145Z" transform="translate(-382.187 -225.825)" fill="#455a64"/>
            </g>
            <g id="Grupo_97915" data-name="Grupo 97915" transform="translate(47.769 76.469)">
              <path id="Trazado_149047" data-name="Trazado 149047" d="M398.628,332.315a4.526,4.526,0,0,1-1.264,1.005,5.84,5.84,0,0,1-1.626.711,3.92,3.92,0,0,1-2.195-.058,6.387,6.387,0,0,1-3.055-2.431,5.669,5.669,0,0,1-.838-1.376,8.81,8.81,0,0,1,1.045,1.213,6.776,6.776,0,0,0,2.96,2.238,4.584,4.584,0,0,0,3.578-.527A14.8,14.8,0,0,1,398.628,332.315Z" transform="translate(-389.647 -330.165)" fill="#455a64"/>
            </g>
            <g id="Grupo_97916" data-name="Grupo 97916" transform="translate(47.076 76.869)">
              <path id="Trazado_149048" data-name="Trazado 149048" d="M392.893,336.646a35.451,35.451,0,0,1-4.21-5.92,35.527,35.527,0,0,1,4.21,5.92Z" transform="translate(-388.677 -330.724)" fill="#455a64"/>
            </g>
            <g id="Grupo_97917" data-name="Grupo 97917" transform="translate(13.826 22.91)">
              <path id="Trazado_149049" data-name="Trazado 149049" d="M343,257.228c-.1.039-.35-.373-.568-.919s-.318-1.019-.222-1.058.35.373.568.919S343.091,257.191,343,257.228Z" transform="translate(-342.168 -255.249)" fill="#fafafa"/>
            </g>
            <g id="Grupo_97918" data-name="Grupo 97918" transform="translate(28.31 25.285)">
              <path id="Trazado_149050" data-name="Trazado 149050" d="M362.614,260.153c-.1,0-.187-.354-.187-.791s.084-.791.187-.791.186.355.186.791S362.717,260.153,362.614,260.153Z" transform="translate(-362.427 -258.571)" fill="#fafafa"/>
            </g>
            <g id="Grupo_97919" data-name="Grupo 97919" transform="translate(22.543 32.406)">
              <path id="Trazado_149051" data-name="Trazado 149051" d="M354.625,270.508c-.1.007-.216-.43-.253-.976s.016-.994.119-1,.216.43.253.977S354.728,270.5,354.625,270.508Z" transform="translate(-354.361 -268.531)" fill="#fafafa"/>
            </g>
            <g id="Grupo_97920" data-name="Grupo 97920" transform="translate(10.96 38.822)">
              <path id="Trazado_149052" data-name="Trazado 149052" d="M339.611,278.6c-.085.063-.38-.2-.763-.475s-.721-.479-.687-.579.473-.039.907.278S339.694,278.546,339.611,278.6Z" transform="translate(-338.159 -277.506)" fill="#fafafa"/>
            </g>
            <g id="Grupo_97921" data-name="Grupo 97921" transform="translate(30.708 45.711)">
              <path id="Trazado_149053" data-name="Trazado 149053" d="M365.811,288.337c-.086-.057.022-.369.24-.7s.465-.547.55-.49-.022.369-.241.7S365.9,288.394,365.811,288.337Z" transform="translate(-365.782 -287.142)" fill="#fafafa"/>
            </g>
            <g id="Grupo_97922" data-name="Grupo 97922" transform="translate(19.213 46.247)">
              <path id="Trazado_149054" data-name="Trazado 149054" d="M349.89,290.529c-.1,0-.187-.591-.187-1.318s.084-1.318.187-1.318.186.59.186,1.318S349.993,290.529,349.89,290.529Z" transform="translate(-349.703 -287.892)" fill="#fafafa"/>
            </g>
            <g id="Grupo_97923" data-name="Grupo 97923" transform="translate(14.265 55.828)">
              <path id="Trazado_149055" data-name="Trazado 149055" d="M344.241,302.368c-.06.084-.434-.085-.834-.376s-.676-.595-.616-.678.434.085.835.376S344.3,302.285,344.241,302.368Z" transform="translate(-342.782 -301.293)" fill="#fafafa"/>
            </g>
            <g id="Grupo_97924" data-name="Grupo 97924" transform="translate(25.986 59.644)">
              <path id="Trazado_149056" data-name="Trazado 149056" d="M360.369,306.681c.042.094-.19.288-.518.434s-.628.187-.669.094.19-.288.518-.434S360.327,306.587,360.369,306.681Z" transform="translate(-359.177 -306.631)" fill="#fafafa"/>
            </g>
            <g id="Grupo_97925" data-name="Grupo 97925" transform="translate(18.06 70.106)">
              <path id="Trazado_149057" data-name="Trazado 149057" d="M349.43,323.905c-.092.046-.462-.508-.826-1.235s-.585-1.355-.493-1.4.461.507.826,1.235S349.521,323.859,349.43,323.905Z" transform="translate(-348.091 -321.265)" fill="#fafafa"/>
            </g>
            <g id="Grupo_97926" data-name="Grupo 97926" transform="translate(32.03 69.578)">
              <path id="Trazado_149058" data-name="Trazado 149058" d="M367.657,322.508c-.091-.049.072-.53.363-1.077s.6-.949.691-.9-.072.53-.363,1.076S367.748,322.556,367.657,322.508Z" transform="translate(-367.632 -320.526)" fill="#fafafa"/>
            </g>
            <g id="Grupo_97927" data-name="Grupo 97927" transform="translate(26.096 80.125)">
              <path id="Trazado_149059" data-name="Trazado 149059" d="M359.753,337.788c-.106-.016-.1-.58-.207-1.251s-.284-1.206-.189-1.254.443.458.557,1.2S359.85,337.808,359.753,337.788Z" transform="translate(-359.331 -335.28)" fill="#fafafa"/>
            </g>
            <g id="Grupo_97928" data-name="Grupo 97928" transform="translate(19.253 87.5)">
              <path id="Trazado_149060" data-name="Trazado 149060" d="M351.092,347.057c-.076.069-.432-.2-.8-.6s-.6-.781-.522-.85.433.2.8.6S351.168,346.988,351.092,347.057Z" transform="translate(-349.759 -345.596)" fill="#fafafa"/>
            </g>
            <g id="Grupo_97929" data-name="Grupo 97929" transform="translate(34.972 89.89)">
              <path id="Trazado_149061" data-name="Trazado 149061" d="M371.759,350.411c-.073-.071.189-.458.587-.861s.779-.672.852-.6-.19.458-.587.861S371.832,350.483,371.759,350.411Z" transform="translate(-371.747 -348.939)" fill="#fafafa"/>
            </g>
            <g id="Grupo_97930" data-name="Grupo 97930" transform="translate(26.626 98.456)">
              <path id="Trazado_149062" data-name="Trazado 149062" d="M360.149,363.3c-.1-.015-.1-.56,0-1.217s.263-1.177.365-1.161.1.56,0,1.217S360.251,363.314,360.149,363.3Z" transform="translate(-360.072 -360.921)" fill="#fafafa"/>
            </g>
            <g id="Grupo_97931" data-name="Grupo 97931" transform="translate(20.033 103.591)">
              <path id="Trazado_149063" data-name="Trazado 149063" d="M351.947,369.943c-.089.052-.4-.317-.7-.823s-.465-.959-.376-1.012.4.317.7.824S352.036,369.891,351.947,369.943Z" transform="translate(-350.85 -368.103)" fill="#fafafa"/>
            </g>
            <g id="Grupo_97932" data-name="Grupo 97932" transform="translate(32.704 111.216)">
              <path id="Trazado_149064" data-name="Trazado 149064" d="M370.425,378.786c.059.084-.3.447-.814.811s-.97.593-1.03.509.3-.447.814-.811S370.365,378.7,370.425,378.786Z" transform="translate(-368.574 -378.769)" fill="#fafafa"/>
            </g>
            <g id="Grupo_97933" data-name="Grupo 97933" transform="translate(23.337 116.12)">
              <path id="Trazado_149065" data-name="Trazado 149065" d="M355.508,388.27c-.1-.036.028-.612.087-1.323s.041-1.3.146-1.318.3.584.225,1.351S355.6,388.308,355.508,388.27Z" transform="translate(-355.471 -385.628)" fill="#fafafa"/>
            </g>
            <g id="Grupo_97934" data-name="Grupo 97934" transform="translate(26.762 128.238)">
              <path id="Trazado_149066" data-name="Trazado 149066" d="M361.337,403.906c-.081.064-.382-.179-.673-.543s-.463-.711-.382-.776.382.179.673.543S361.417,403.843,361.337,403.906Z" transform="translate(-360.262 -402.578)" fill="#fafafa"/>
            </g>
            <g id="Grupo_97935" data-name="Grupo 97935" transform="translate(21.492 134.703)">
              <path id="Trazado_149067" data-name="Trazado 149067" d="M354.358,413.736c-.085.058-.478-.367-.879-.949s-.656-1.1-.572-1.16.478.367.879.949S354.443,413.677,354.358,413.736Z" transform="translate(-352.892 -411.621)" fill="#fafafa"/>
            </g>
            <g id="Grupo_97936" data-name="Grupo 97936" transform="translate(36.34 126.662)">
              <path id="Trazado_149068" data-name="Trazado 149068" d="M373.726,401.433c-.1-.036-.086-.3.024-.593s.276-.5.372-.462.086.3-.023.593S373.822,401.469,373.726,401.433Z" transform="translate(-373.66 -400.374)" fill="#fafafa"/>
            </g>
            <g id="Grupo_97937" data-name="Grupo 97937" transform="translate(30.447 142.618)">
              <path id="Trazado_149069" data-name="Trazado 149069" d="M365.444,425.066c-.094-.049.085-.558.224-1.2s.2-1.172.3-1.177.216.566.06,1.258S365.529,425.115,365.444,425.066Z" transform="translate(-365.417 -422.693)" fill="#fafafa"/>
            </g>
            <g id="Grupo_97938" data-name="Grupo 97938" transform="translate(33.614 33.052)">
              <path id="Trazado_149070" data-name="Trazado 149070" d="M370.562,270.882c-.094.044-.32-.245-.506-.643s-.262-.756-.169-.8.32.244.506.642S370.655,270.838,370.562,270.882Z" transform="translate(-369.846 -269.435)" fill="#fafafa"/>
            </g>
            <g id="Grupo_97939" data-name="Grupo 97939" transform="translate(22.414 12.219)">
              <path id="Trazado_149071" data-name="Trazado 149071" d="M356.175,240.309c.056.091-.447.493-.978,1.065s-.905,1.1-1,1.045.153-.69.728-1.3S356.127,240.223,356.175,240.309Z" transform="translate(-354.18 -240.294)" fill="#fafafa"/>
            </g>
            <g id="Grupo_97940" data-name="Grupo 97940" transform="translate(32.304 10.115)">
              <path id="Trazado_149072" data-name="Trazado 149072" d="M368.952,239.206c-.1.021-.272-.4-.52-.894s-.482-.882-.4-.952.466.243.736.785S369.051,239.19,368.952,239.206Z" transform="translate(-368.014 -237.352)" fill="#fafafa"/>
            </g>
            <g id="Grupo_97941" data-name="Grupo 97941" transform="translate(5.686 17.251)">
              <path id="Trazado_149073" data-name="Trazado 149073" d="M330.818,249.316c-.1-.037,0-.512.218-1.059s.469-.959.565-.922,0,.512-.219,1.059S330.913,249.354,330.818,249.316Z" transform="translate(-330.782 -247.334)" fill="#fafafa"/>
            </g>
            <g id="Grupo_97942" data-name="Grupo 97942" transform="translate(5.02 28.698)">
              <path id="Trazado_149074" data-name="Trazado 149074" d="M331.441,264.678c-.066.079-.473-.152-.91-.516s-.738-.723-.672-.8.473.152.911.516S331.507,264.6,331.441,264.678Z" transform="translate(-329.85 -263.344)" fill="#fafafa"/>
            </g>
            <g id="Grupo_97943" data-name="Grupo 97943" transform="translate(24.094 2.343)">
              <path id="Trazado_149075" data-name="Trazado 149075" d="M357.109,227.8c-.1.038-.291-.226-.437-.59s-.186-.691-.091-.729.291.226.437.59S357.2,227.763,357.109,227.8Z" transform="translate(-356.53 -226.48)" fill="#fafafa"/>
            </g>
            <g id="Grupo_97944" data-name="Grupo 97944" transform="translate(41.896 7.098)">
              <path id="Trazado_149076" data-name="Trazado 149076" d="M381.5,234.976c-.1-.022-.091-.453.021-.962s.283-.9.383-.882.092.453-.02.962S381.6,235,381.5,234.976Z" transform="translate(-381.431 -233.132)" fill="#fafafa"/>
            </g>
            <g id="Grupo_97945" data-name="Grupo 97945" transform="translate(45.999 14.868)">
              <path id="Trazado_149077" data-name="Trazado 149077" d="M387.2,246.243c-.1-.039.034-.573.289-1.191s.539-1.089.634-1.05-.035.573-.29,1.192S387.3,246.283,387.2,246.243Z" transform="translate(-387.17 -244)" fill="#fafafa"/>
            </g>
            <g id="Grupo_97946" data-name="Grupo 97946" transform="translate(41.92 21.327)">
              <path id="Trazado_149078" data-name="Trazado 149078" d="M382.675,255.411c-.092.046-.432-.448-.76-1.1s-.518-1.223-.427-1.27.433.448.76,1.1S382.766,255.365,382.675,255.411Z" transform="translate(-381.465 -253.035)" fill="#fafafa"/>
            </g>
            <g id="Grupo_97947" data-name="Grupo 97947" transform="translate(49.283 28.579)">
              <path id="Trazado_149079" data-name="Trazado 149079" d="M391.807,264.895c-.1-.037-.026-.45.156-.924s.408-.827.5-.79.026.45-.156.924S391.9,264.931,391.807,264.895Z" transform="translate(-391.764 -263.178)" fill="#fafafa"/>
            </g>
            <g id="Grupo_97948" data-name="Grupo 97948" transform="translate(43.094 35.691)">
              <path id="Trazado_149080" data-name="Trazado 149080" d="M383.8,274.191c-.087.054-.305-.138-.488-.429s-.259-.571-.172-.626.305.138.488.429S383.889,274.136,383.8,274.191Z" transform="translate(-383.107 -273.126)" fill="#fafafa"/>
            </g>
            <g id="Grupo_97949" data-name="Grupo 97949" transform="translate(43.245 48.22)">
              <path id="Trazado_149081" data-name="Trazado 149081" d="M385.044,292.506c-.076.07-.52-.287-.994-.8s-.8-.979-.721-1.049.52.287.994.8S385.119,292.436,385.044,292.506Z" transform="translate(-383.319 -290.652)" fill="#fafafa"/>
            </g>
            <g id="Grupo_97950" data-name="Grupo 97950" transform="translate(50.761 40.571)">
              <path id="Trazado_149082" data-name="Trazado 149082" d="M395.3,281.805c-.081.064-.471-.3-.872-.808s-.66-.974-.579-1.038.471.3.871.809S395.377,281.741,395.3,281.805Z" transform="translate(-393.831 -279.952)" fill="#fafafa"/>
            </g>
            <g id="Grupo_97951" data-name="Grupo 97951" transform="translate(56.181 50.742)">
              <path id="Trazado_149083" data-name="Trazado 149083" d="M401.439,296.42c-.093-.044.069-.581.362-1.2s.606-1.084.7-1.039-.069.581-.362,1.2S401.532,296.464,401.439,296.42Z" transform="translate(-401.412 -294.179)" fill="#fafafa"/>
            </g>
            <g id="Grupo_97952" data-name="Grupo 97952" transform="translate(46.026 60.067)">
              <path id="Trazado_149084" data-name="Trazado 149084" d="M388.926,308.827c-.091.055-.422-.342-.883-.763s-.879-.724-.831-.819.581.08,1.083.545S389.013,308.779,388.926,308.827Z" transform="translate(-387.209 -307.222)" fill="#fafafa"/>
            </g>
            <g id="Grupo_97953" data-name="Grupo 97953" transform="translate(46.689 70.451)">
              <path id="Trazado_149085" data-name="Trazado 149085" d="M389.718,321.933c0,.1-.355.186-.791.186s-.791-.083-.791-.186.354-.186.791-.186S389.718,321.83,389.718,321.933Z" transform="translate(-388.136 -321.747)" fill="#fafafa"/>
            </g>
            <g id="Grupo_97954" data-name="Grupo 97954" transform="translate(56.948 66.022)">
              <path id="Trazado_149086" data-name="Trazado 149086" d="M402.509,317.662c-.09-.056.094-.5.231-1.063s.191-1.039.3-1.046.222.511.064,1.137S402.592,317.718,402.509,317.662Z" transform="translate(-402.486 -315.553)" fill="#fafafa"/>
            </g>
            <g id="Grupo_97955" data-name="Grupo 97955" transform="translate(64.753 68.776)">
              <path id="Trazado_149087" data-name="Trazado 149087" d="M414.267,321.766c-.1.034-.361-.467-.59-1.119s-.335-1.208-.238-1.241.361.466.59,1.118S414.364,321.732,414.267,321.766Z" transform="translate(-413.403 -319.405)" fill="#fafafa"/>
            </g>
            <g id="Grupo_97956" data-name="Grupo 97956" transform="translate(64.219 80.923)">
              <path id="Trazado_149088" data-name="Trazado 149088" d="M412.677,338.905c-.091-.047.129-.648.492-1.34s.731-1.215.822-1.167-.129.648-.493,1.34S412.768,338.953,412.677,338.905Z" transform="translate(-412.656 -336.395)" fill="#fafafa"/>
            </g>
            <g id="Grupo_97957" data-name="Grupo 97957" transform="translate(55.353 88.303)">
              <path id="Trazado_149089" data-name="Trazado 149089" d="M401.251,349.075c-.1.039-.388-.456-.656-1.106s-.407-1.21-.311-1.249.388.457.656,1.107S401.347,349.036,401.251,349.075Z" transform="translate(-400.255 -346.718)" fill="#fafafa"/>
            </g>
            <g id="Grupo_97958" data-name="Grupo 97958" transform="translate(46.294 93.258)">
              <path id="Trazado_149090" data-name="Trazado 149090" d="M388.9,353.835c0,.1-.3.187-.659.187s-.659-.084-.659-.187.295-.186.659-.186S388.9,353.732,388.9,353.835Z" transform="translate(-387.583 -353.649)" fill="#fafafa"/>
            </g>
            <g id="Grupo_97959" data-name="Grupo 97959" transform="translate(52.039 102.934)">
              <path id="Trazado_149091" data-name="Trazado 149091" d="M396.2,369.163c-.1.027-.3-.395-.443-.94s-.184-1.01-.084-1.037.3.395.444.942S396.3,369.137,396.2,369.163Z" transform="translate(-395.618 -367.184)" fill="#fafafa"/>
            </g>
            <g id="Grupo_97960" data-name="Grupo 97960" transform="translate(46.263 99.765)">
              <path id="Trazado_149092" data-name="Trazado 149092" d="M387.57,364.077c-.089-.053.017-.391.235-.755s.468-.616.555-.563-.017.39-.236.755S387.658,364.129,387.57,364.077Z" transform="translate(-387.539 -362.751)" fill="#fafafa"/>
            </g>
            <g id="Grupo_97961" data-name="Grupo 97961" transform="translate(45.803 111.505)">
              <path id="Trazado_149093" data-name="Trazado 149093" d="M387.255,381.414c-.1.012-.244-.48-.317-1.1s-.049-1.13.053-1.142.244.48.317,1.1S387.357,381.4,387.255,381.414Z" transform="translate(-386.896 -379.173)" fill="#fafafa"/>
            </g>
          </g>
        </g>
      </g>
    </g>
  </g>
</svg>
