<svg xmlns="http://www.w3.org/2000/svg" width="189.603" height="508.656" viewBox="0 0 189.603 508.656">
  <g id="Grupo_100499" data-name="Grupo 100499" transform="translate(2171 8102.995)">
    <g id="Grupo_98011" data-name="Grupo 98011" transform="translate(-2095.921 -7878.907)">
      <path id="Trazado_149390" data-name="Trazado 149390" d="M1036.6,1017.87c-11.147,0-20.181-1.635-20.181-3.665v93.168c0,2.031,9.034,3.666,20.181,3.666s20.181-1.635,20.181-3.666v-93.168C1056.776,1016.235,1047.739,1017.87,1036.6,1017.87Z" transform="translate(-1016.414 -826.471)" fill="#413c40"/>
      <path id="Trazado_149391" data-name="Trazado 149391" d="M1078,1108.585a3.421,3.421,0,0,1-3.422,3.419h0a3.421,3.421,0,0,1-3.421-3.419v-71.616a3.423,3.423,0,0,1,3.421-3.424h0a3.423,3.423,0,0,1,3.422,3.424Z" transform="translate(-1045.151 -836.623)" fill="#7a7378"/>
      <path id="Trazado_149392" data-name="Trazado 149392" d="M1056.776,1009.207c0,2.51-9.035,4.544-20.18,4.544s-20.181-2.034-20.181-4.544,9.036-4.543,20.181-4.543S1056.776,1006.7,1056.776,1009.207Z" transform="translate(-1016.414 -821.463)" fill="#2f2a2f"/>
      <path id="Trazado_149393" data-name="Trazado 149393" d="M1027.356,619.036V804.385c0,1.506,6.707,2.721,14.983,2.721s14.982-1.215,14.982-2.721V619.036Z" transform="translate(-1022.158 -619.036)" fill="#5f5860"/>
      <rect id="Rectángulo_35843" data-name="Rectángulo 35843" width="29.964" height="28.164" transform="translate(5.198 105.542)" fill="#413c40"/>
      <path id="Trazado_149394" data-name="Trazado 149394" d="M1069.652,945.082a3.421,3.421,0,0,1-3.421,3.42h0a3.422,3.422,0,0,1-3.422-3.42V911.216a3.423,3.423,0,0,1,3.422-3.422h0a3.423,3.423,0,0,1,3.421,3.422Z" transform="translate(-1040.768 -770.613)" fill="#7a7378"/>
    </g>
    <path id="Trazado_149395" data-name="Trazado 149395" d="M915.738,210.078a1.768,1.768,0,0,0-1.772-1.638H860.154a1.781,1.781,0,0,0-1.55.9,1.743,1.743,0,0,0,.034,1.777c5.91,9.589,10.175,22.205,14.3,34.406,7.3,21.588,9.438,41.978,24.723,41.978h21.575a1.787,1.787,0,0,0,1.3-.559,1.751,1.751,0,0,0,.473-1.321Z" transform="translate(-3029.378 -8282.409)" fill="#353032"/>
    <path id="Trazado_149396" data-name="Trazado 149396" d="M915.738,434.345a1.768,1.768,0,0,0-1.772-1.637H860.154a1.78,1.78,0,0,0-1.55.9,1.744,1.744,0,0,0,.034,1.777c5.91,9.588,10.175,22.205,14.3,34.406,7.3,21.587,9.438,41.978,24.723,41.978h21.575a1.789,1.789,0,0,0,1.3-.559,1.752,1.752,0,0,0,.473-1.321Z" transform="translate(-3029.378 -8400.134)" fill="#353032"/>
    <path id="Trazado_149397" data-name="Trazado 149397" d="M915.738,658.613a1.768,1.768,0,0,0-1.772-1.639H860.154a1.782,1.782,0,0,0-1.55.9,1.744,1.744,0,0,0,.034,1.777c5.91,9.588,10.175,22.2,14.3,34.406,7.3,21.586,9.438,41.977,24.723,41.977h21.575a1.785,1.785,0,0,0,1.3-.559,1.752,1.752,0,0,0,.473-1.32Z" transform="translate(-3029.378 -8517.857)" fill="#353032"/>
    <path id="Trazado_149398" data-name="Trazado 149398" d="M1130.915,210.078a1.769,1.769,0,0,1,1.772-1.638H1186.5a1.78,1.78,0,0,1,1.549.9,1.744,1.744,0,0,1-.032,1.777c-5.912,9.589-10.175,22.205-14.3,34.406-7.3,21.588-9.438,41.978-24.722,41.978H1127.42a1.784,1.784,0,0,1-1.3-.559,1.745,1.745,0,0,1-.474-1.321Z" transform="translate(-3169.673 -8282.409)" fill="#353032"/>
    <path id="Trazado_149399" data-name="Trazado 149399" d="M1130.915,434.345a1.768,1.768,0,0,1,1.772-1.637H1186.5a1.778,1.778,0,0,1,1.549.9,1.745,1.745,0,0,1-.032,1.777c-5.912,9.588-10.175,22.205-14.3,34.406-7.3,21.587-9.438,41.978-24.722,41.978H1127.42a1.786,1.786,0,0,1-1.3-.559,1.747,1.747,0,0,1-.474-1.321Z" transform="translate(-3169.673 -8400.134)" fill="#353032"/>
    <path id="Trazado_149400" data-name="Trazado 149400" d="M1130.915,658.613a1.769,1.769,0,0,1,1.772-1.639H1186.5a1.781,1.781,0,0,1,1.549.9,1.745,1.745,0,0,1-.032,1.777c-5.912,9.588-10.175,22.2-14.3,34.406-7.3,21.586-9.438,41.977-24.722,41.977H1127.42a1.782,1.782,0,0,1-1.3-.559,1.747,1.747,0,0,1-.474-1.32Z" transform="translate(-3169.673 -8517.857)" fill="#353032"/>
    <path id="Trazado_149401" data-name="Trazado 149401" d="M1053.7,182.044a9.907,9.907,0,0,1-9.921,9.9H973.9a9.9,9.9,0,0,1-9.9-9.9V157.265a9.9,9.9,0,0,1,9.9-9.922h69.881a9.911,9.911,0,0,1,9.921,9.923Z" transform="translate(-3084.824 -8250.338)" fill="#2f2a2f"/>
    <path id="Trazado_149402" data-name="Trazado 149402" d="M1053.7,823.986a9.908,9.908,0,0,1-9.921,9.9H973.9a9.9,9.9,0,0,1-9.9-9.9V799.209a9.9,9.9,0,0,1,9.9-9.923h69.881a9.911,9.911,0,0,1,9.921,9.923Z" transform="translate(-3084.824 -8587.312)" fill="#2f2a2f"/>
    <path id="Trazado_149403" data-name="Trazado 149403" d="M1054.52,642.743a8.191,8.191,0,0,1-8.2,8.191H988.55a8.186,8.186,0,0,1-8.183-8.191V622.256a8.185,8.185,0,0,1,8.183-8.187h57.768a8.19,8.19,0,0,1,8.2,8.187Z" transform="translate(-3093.413 -8495.335)" fill="#2f2a2f"/>
    <path id="Rectángulo_35844" data-name="Rectángulo 35844" d="M3.289,0h104.04a3.289,3.289,0,0,1,3.289,3.289V320.28a3.288,3.288,0,0,1-3.288,3.288H3.287A3.287,3.287,0,0,1,0,320.281V3.289A3.289,3.289,0,0,1,3.289,0Z" transform="translate(-2131.279 -8089.681)" fill="#272424"/>
    <g id="Grupo_98013" data-name="Grupo 98013" transform="translate(-2127.742 -7979.846)">
      <path id="Rectángulo_35846" data-name="Rectángulo 35846" d="M3.289,0h96.968a3.287,3.287,0,0,1,3.287,3.287v96.97a3.287,3.287,0,0,1-3.287,3.287H3.287A3.287,3.287,0,0,1,0,100.257V3.289A3.289,3.289,0,0,1,3.289,0Z" fill="#353032"/>
      <path id="Trazado_149415" data-name="Trazado 149415" d="M1053.779,461.891a48.551,48.551,0,1,1-48.549-48.558A48.562,48.562,0,0,1,1053.779,461.891Z" transform="translate(-953.236 -410.118)" fill="#413c40"/>
      <path id="Trazado_149416" data-name="Trazado 149416" d="M962.169,415.71a3.12,3.12,0,1,1-3.119-3.12A3.12,3.12,0,0,1,962.169,415.71Z" transform="translate(-952.844 -409.728)" fill="#5f5860"/>
      <path id="Trazado_149417" data-name="Trazado 149417" d="M962.169,607.737a3.12,3.12,0,1,1-3.119-3.121A3.12,3.12,0,0,1,962.169,607.737Z" transform="translate(-952.844 -510.527)" fill="#5f5860"/>
      <path id="Trazado_149418" data-name="Trazado 149418" d="M1154.178,415.71a3.119,3.119,0,1,1-3.119-3.12A3.12,3.12,0,0,1,1154.178,415.71Z" transform="translate(-1053.635 -409.728)" fill="#5f5860"/>
      <path id="Trazado_149419" data-name="Trazado 149419" d="M1154.178,607.737a3.119,3.119,0,1,1-3.119-3.121A3.12,3.12,0,0,1,1154.178,607.737Z" transform="translate(-1053.635 -510.527)" fill="#5f5860"/>
      <path id="Trazado_149420" data-name="Trazado 149420" d="M1054.5,469.485a41.679,41.679,0,1,1-41.677-41.684A41.687,41.687,0,0,1,1054.5,469.485Z" transform="translate(-960.829 -417.712)" fill="#272424"/>
      <path id="Trazado_149421" data-name="Trazado 149421" d="M1054.938,474.1a37.507,37.507,0,1,1-37.5-37.512A37.515,37.515,0,0,1,1054.938,474.1Z" transform="translate(-965.439 -422.322)" fill="#413c40"/>
      <path id="Trazado_149422" data-name="Trazado 149422" d="M1055.311,477.823a34.139,34.139,0,1,1-34.147-34.137A34.138,34.138,0,0,1,1055.311,477.823Z" transform="translate(-969.171 -426.051)" fill="#2f2a2f"/>
      <path id="Trazado_149423" data-name="Trazado 149423" d="M1058.373,569.962c0,1.776-2.125,3.213-4.749,3.213s-4.749-1.437-4.749-3.213,2.128-3.215,4.749-3.215S1058.373,568.187,1058.373,569.962Z" transform="translate(-1001.633 -490.649)" fill="#464045"/>
      <path id="Trazado_149424" data-name="Trazado 149424" d="M1021.41,483.368c13.223,0,25.2-3.59,33.922-9.408a34.14,34.14,0,0,0-67.841,0C996.219,479.78,1008.2,483.368,1021.41,483.368Z" transform="translate(-969.411 -426.051)" fill="#352f35"/>
      <path id="Trazado_149425" data-name="Trazado 149425" d="M1057.02,465.712c0,6.594-7.894,11.933-17.639,11.933s-17.645-5.339-17.645-11.933,7.907-11.947,17.645-11.947S1057.02,459.12,1057.02,465.712Z" transform="translate(-987.386 -431.342)" fill="#464045"/>
    </g>
    <g id="Grupo_98014" data-name="Grupo 98014" transform="translate(-2127.742 -7872.625)">
      <path id="Rectángulo_35847" data-name="Rectángulo 35847" d="M3.289,0h96.968a3.287,3.287,0,0,1,3.287,3.287v96.97a3.287,3.287,0,0,1-3.287,3.287H3.287A3.287,3.287,0,0,1,0,100.257V3.289A3.289,3.289,0,0,1,3.289,0Z" fill="#353032"/>
      <path id="Trazado_149426" data-name="Trazado 149426" d="M1053.779,687.585a48.551,48.551,0,1,1-48.549-48.557A48.561,48.561,0,0,1,1053.779,687.585Z" transform="translate(-953.236 -635.812)" fill="#413c40"/>
      <path id="Trazado_149427" data-name="Trazado 149427" d="M962.169,641.4a3.12,3.12,0,1,1-3.119-3.121A3.12,3.12,0,0,1,962.169,641.4Z" transform="translate(-952.844 -635.421)" fill="#5f5860"/>
      <path id="Trazado_149428" data-name="Trazado 149428" d="M962.169,833.428a3.12,3.12,0,1,1-3.119-3.12A3.12,3.12,0,0,1,962.169,833.428Z" transform="translate(-952.844 -736.22)" fill="#5f5860"/>
      <circle id="Elipse_4742" data-name="Elipse 4742" cx="3.12" cy="3.12" r="3.12" transform="translate(94.304 2.862)" fill="#5f5860"/>
      <path id="Trazado_149429" data-name="Trazado 149429" d="M1154.178,833.428a3.119,3.119,0,1,1-3.119-3.12A3.121,3.121,0,0,1,1154.178,833.428Z" transform="translate(-1053.635 -736.22)" fill="#5f5860"/>
      <path id="Trazado_149430" data-name="Trazado 149430" d="M1054.5,695.179a41.679,41.679,0,1,1-41.677-41.684A41.687,41.687,0,0,1,1054.5,695.179Z" transform="translate(-960.829 -643.406)" fill="#272424"/>
      <path id="Trazado_149431" data-name="Trazado 149431" d="M1054.938,699.788a37.507,37.507,0,1,1-37.5-37.512A37.515,37.515,0,0,1,1054.938,699.788Z" transform="translate(-965.439 -648.016)" fill="#413c40"/>
      <path id="Trazado_149432" data-name="Trazado 149432" d="M1055.311,703.517a34.139,34.139,0,1,1-34.147-34.137A34.138,34.138,0,0,1,1055.311,703.517Z" transform="translate(-969.171 -651.745)" fill="#2f2a2f"/>
      <path id="Trazado_149433" data-name="Trazado 149433" d="M1021.41,709.062c13.223,0,25.2-3.591,33.922-9.408a34.14,34.14,0,0,0-67.841,0C996.219,705.474,1008.2,709.062,1021.41,709.062Z" transform="translate(-969.411 -651.745)" fill="#352f35"/>
      <path id="Trazado_149434" data-name="Trazado 149434" d="M1057.02,691.406c0,6.594-7.894,11.934-17.639,11.934s-17.645-5.339-17.645-11.934,7.907-11.946,17.645-11.946S1057.02,684.814,1057.02,691.406Z" transform="translate(-987.386 -657.036)" fill="#464045"/>
      <path id="Trazado_149435" data-name="Trazado 149435" d="M1058.373,796.146c0,1.776-2.125,3.213-4.749,3.213s-4.749-1.438-4.749-3.213,2.128-3.215,4.749-3.215S1058.373,794.371,1058.373,796.146Z" transform="translate(-1001.633 -716.6)" fill="#464045"/>
    </g>
    <g id="Grupo_100498" data-name="Grupo 100498" transform="translate(-2127.512 -8087.071)">
      <path id="Rectángulo_35846-2" data-name="Rectángulo 35846" d="M3.289,0h96.968a3.287,3.287,0,0,1,3.287,3.287v96.97a3.287,3.287,0,0,1-3.287,3.287H3.287A3.287,3.287,0,0,1,0,100.257V3.289A3.289,3.289,0,0,1,3.289,0Z" fill="#353032"/>
      <path id="Trazado_149415-2" data-name="Trazado 149415" d="M1053.779,461.891a48.551,48.551,0,1,1-48.549-48.558A48.562,48.562,0,0,1,1053.779,461.891Z" transform="translate(-953.236 -410.118)" fill="#413c40"/>
      <path id="Trazado_149416-2" data-name="Trazado 149416" d="M962.169,415.71a3.12,3.12,0,1,1-3.119-3.12A3.12,3.12,0,0,1,962.169,415.71Z" transform="translate(-952.844 -409.728)" fill="#5f5860"/>
      <path id="Trazado_149417-2" data-name="Trazado 149417" d="M962.169,607.737a3.12,3.12,0,1,1-3.119-3.121A3.12,3.12,0,0,1,962.169,607.737Z" transform="translate(-952.844 -510.527)" fill="#5f5860"/>
      <path id="Trazado_149418-2" data-name="Trazado 149418" d="M1154.178,415.71a3.119,3.119,0,1,1-3.119-3.12A3.12,3.12,0,0,1,1154.178,415.71Z" transform="translate(-1053.635 -409.728)" fill="#5f5860"/>
      <path id="Trazado_149419-2" data-name="Trazado 149419" d="M1154.178,607.737a3.119,3.119,0,1,1-3.119-3.121A3.12,3.12,0,0,1,1154.178,607.737Z" transform="translate(-1053.635 -510.527)" fill="#5f5860"/>
      <path id="Trazado_149420-2" data-name="Trazado 149420" d="M1054.5,469.485a41.679,41.679,0,1,1-41.677-41.684A41.687,41.687,0,0,1,1054.5,469.485Z" transform="translate(-960.829 -417.712)" fill="#272424"/>
      <path id="Trazado_149421-2" data-name="Trazado 149421" d="M1054.938,474.1a37.507,37.507,0,1,1-37.5-37.512A37.515,37.515,0,0,1,1054.938,474.1Z" transform="translate(-965.439 -422.322)" fill="#413c40"/>
      <path id="Trazado_149422-2" data-name="Trazado 149422" d="M1055.311,477.823a34.139,34.139,0,1,1-34.147-34.137A34.138,34.138,0,0,1,1055.311,477.823Z" transform="translate(-969.171 -426.051)" fill="#2f2a2f"/>
      <path id="Trazado_149423-2" data-name="Trazado 149423" d="M1058.373,569.962c0,1.776-2.125,3.213-4.749,3.213s-4.749-1.437-4.749-3.213,2.128-3.215,4.749-3.215S1058.373,568.187,1058.373,569.962Z" transform="translate(-1001.633 -490.649)" fill="#464045"/>
      <path id="Trazado_149424-2" data-name="Trazado 149424" d="M1021.41,483.368c13.223,0,25.2-3.59,33.922-9.408a34.14,34.14,0,0,0-67.841,0C996.219,479.78,1008.2,483.368,1021.41,483.368Z" transform="translate(-969.411 -426.051)" fill="#352f35"/>
      <path id="Trazado_149425-2" data-name="Trazado 149425" d="M1057.02,465.712c0,6.594-7.894,11.933-17.639,11.933s-17.645-5.339-17.645-11.933,7.907-11.947,17.645-11.947S1057.02,459.12,1057.02,465.712Z" transform="translate(-987.386 -431.342)" fill="#464045"/>
    </g>
  </g>
</svg>
