<svg xmlns="http://www.w3.org/2000/svg" width="400" height="398.684" viewBox="0 0 400 398.684">
  <g id="Grupo_100491" data-name="Grupo 100491" transform="translate(-18.269 -20.963)">
    <g id="Floor" transform="translate(18.269 188.706)">
      <ellipse id="Floor-2" data-name="Floor" cx="200" cy="115.47" rx="200" ry="115.47" fill="#b3b2d4"/>
    </g>
    <g id="Shadows" transform="translate(32.181 208.729)">
      <path id="Shadow" d="M301.443,382.5a10.889,10.889,0,0,0-1.6-5.616h0a12.342,12.342,0,0,0-.686-1.05l-.035-.048a11.368,11.368,0,0,0-.751-.92l-.07-.075a9.71,9.71,0,0,0-.809-.783c-.024-.022-.05-.04-.075-.06a7.909,7.909,0,0,0-.888-.653c-.174-.109-.346-.206-.517-.291-.079-.04-.156-.068-.234-.1s-.181-.085-.27-.119c-.13-.049-.257-.086-.383-.123-.034-.01-.069-.024-.1-.033a3.9,3.9,0,0,0-.444-.086l-.026-.005a2.8,2.8,0,0,0-1.65.252h0l-.01,0v0c-4.569,2.292-30.9,19.044-43.017,26.6l-6.005,3.645a1.355,1.355,0,0,0-.443.42c-.015.021-.03.042-.045.065a1.782,1.782,0,0,0-.137.257c-.024.057-.043.119-.064.181s-.051.149-.069.234c-.01.05-.016.1-.024.157-.277.149-.613.333-.992.544l-.887.479a34.984,34.984,0,0,0-6.85-5.076c-8.305-4.794-19.311-7.435-30.989-7.435s-22.685,2.641-30.989,7.435c-8.6,4.968-13.343,11.677-13.343,18.89s4.739,13.922,13.342,18.889c8.305,4.795,19.311,7.435,30.989,7.435s22.684-2.641,30.99-7.435c8.605-4.968,13.343-11.676,13.343-18.889a17.387,17.387,0,0,0-2.818-9.333l.792-.428a1.774,1.774,0,0,0,1.7.167l.037-.02c4.113-2.265,44.193-19.346,52.387-23.741h0l.005,0h0A3.672,3.672,0,0,0,301.443,382.5Zm-70.872,49.009c-7.173,4.141-16.833,6.422-27.2,6.422s-20.03-2.281-27.2-6.422c-6.161-3.556-9.554-7.936-9.554-12.328s3.392-8.773,9.554-12.329c7.171-4.141,16.832-6.421,27.2-6.421s20.031,2.28,27.2,6.421c6.161,3.556,9.554,7.936,9.554,12.329S236.733,427.95,230.571,431.506Z" transform="translate(-51.355 -256.61)" fill="#8d8cbe"/>
      <path id="Shadow-2" data-name="Shadow" d="M290.584,262.753,249.927,239.23a8.268,8.268,0,0,0-7.48,0L35.925,358.466c-2.066,1.193-2.066,3.126,0,4.319L76.58,386.308a8.27,8.27,0,0,0,7.48,0l77.4-44.684,11.9,6.916c6.3,3.637,16.514,3.638,22.814,0l35.465-20.326c6.3-3.635,6.3-9.531,0-13.169l-11.888-6.911,70.84-41.066C292.65,265.879,292.65,263.945,290.584,262.753Z" transform="translate(-34.375 -238.336)" fill="#8d8cbe"/>
      <ellipse id="Shadow-3" data-name="Shadow" cx="39.865" cy="23.016" rx="39.865" ry="23.016" transform="translate(284.548 89.728)" fill="#8d8cbe"/>
    </g>
    <g id="Device" transform="translate(58.523 20.963)">
      <g id="Device-2" data-name="Device">
        <g id="Monitor">
          <g id="Grupo_97129" data-name="Grupo 97129" transform="translate(85.574 206.777)">
            <g id="Grupo_97128" data-name="Grupo 97128" transform="translate(0.005)">
              <path id="Trazado_148439" data-name="Trazado 148439" d="M213.817,348.109l30.556-17.668c3.149-1.818,4.724-4.2,4.725-6.585s.013-4.251.013-4.251l-28.753-16.32a6.723,6.723,0,0,1-3.041-5.268V260.345l-53.37,30.84,0,37.673a6.722,6.722,0,0,0,3.041,5.268L191,348.109C197.3,351.746,207.517,351.746,213.817,348.109Z" transform="translate(-163.944 -260.345)" fill="#37474f"/>
            </g>
            <path id="Trazado_148440" data-name="Trazado 148440" d="M176.758,339.467V343.7l-9.782-5.637a6.729,6.729,0,0,1-3.038-5.268V295.125l10.169-5.866c.21,2.582.439,5.251.649,7.85l-7.129,4.127v29.433a6.681,6.681,0,0,0,3.038,5.267Z" transform="translate(-163.938 -264.283)" fill="#263238"/>
            <path id="Trazado_148441" data-name="Trazado 148441" d="M168.206,327.7a6.724,6.724,0,0,0,3.041,5.269l20.333,11.854c6.3,3.637,16.514,3.638,22.814,0l30.571-17.666c6.3-3.635,6.3-9.531,0-13.168L224.62,302.129a6.724,6.724,0,0,1-3.042-5.268V267.424l-53.372,30.839Z" transform="translate(-164.519 -261.309)" fill="#455a64"/>
            <path id="Trazado_148442" data-name="Trazado 148442" d="M230.816,305.71v0l-6.2-3.577a6.722,6.722,0,0,1-3.042-5.268V267.424l-53.372,30.839V327.7a6.724,6.724,0,0,0,3.041,5.269l6.088,3.515Z" transform="translate(-164.519 -261.309)" opacity="0.15"/>
            <path id="Trazado_148443" data-name="Trazado 148443" d="M255.252,328.954v4.25c0,2.388-1.581,4.759-4.724,6.586l-30.561,17.658a22.881,22.881,0,0,1-10.888,2.7v-4.233a22.87,22.87,0,0,0,10.888-2.7l30.561-17.675C253.671,333.731,255.252,331.342,255.252,328.954Z" transform="translate(-170.086 -269.69)" fill="#37474f"/>
          </g>
          <path id="Trazado_148444" data-name="Trazado 148444" d="M68.437,334.774a8.156,8.156,0,0,0,7.369-.136l206.4-119.164a8.4,8.4,0,0,0,3.8-6.585V28.228a8.153,8.153,0,0,0-3.567-6.45,8.152,8.152,0,0,0-7.368.136L68.674,141.078a8.407,8.407,0,0,0-3.8,6.586l0,180.661A8.155,8.155,0,0,0,68.437,334.774Z" transform="translate(-64.87 -20.963)" fill="#455a64"/>
          <path id="Trazado_148445" data-name="Trazado 148445" d="M76.931,335.35l206.4-119.164a8.4,8.4,0,0,0,3.8-6.586V28.939c0-2.425-1.7-3.408-3.8-2.195L76.934,145.908a8.4,8.4,0,0,0-3.8,6.586l0,180.661C73.129,335.579,74.832,336.562,76.931,335.35Z" transform="translate(-65.995 -21.68)" fill="#37474f"/>
          <path id="Trazado_148446" data-name="Trazado 148446" d="M81.386,311.133l0-154.428a5.041,5.041,0,0,1,2.281-3.951L278.841,40.07c1.26-.726,2.281-.137,2.281,1.317l.007,154.432a5.041,5.041,0,0,1-2.281,3.951L83.666,312.45C82.407,313.177,81.386,312.587,81.386,311.133Z" transform="translate(-67.12 -23.523)" fill="#ffedcc"/>
          <path id="Trazado_148448" data-name="Trazado 148448" d="M196.174,305.064a2.257,2.257,0,0,1-1.144-.3,2.911,2.911,0,0,1-1.261-2.683,8.25,8.25,0,0,1,3.783-6.554h0a2.6,2.6,0,0,1,4.215,2.433,8.247,8.247,0,0,1-3.783,6.554A3.675,3.675,0,0,1,196.174,305.064Zm3.187-9.217a2.821,2.821,0,0,0-1.376.431h0a7.42,7.42,0,0,0-3.352,5.806,1.757,1.757,0,0,0,2.92,1.684,7.415,7.415,0,0,0,3.352-5.8,2.108,2.108,0,0,0-.829-1.936A1.416,1.416,0,0,0,199.36,295.847Z" transform="translate(-82.427 -58.286)" fill="#27debf"/>
        </g>
      </g>
    </g>
    <g id="Window" transform="translate(100.63 52.358)">
      <g id="Window-2" data-name="Window">
        <g id="Grupo_97131" data-name="Grupo 97131" transform="translate(0 11.459)">
          <g id="Grupo_97130" data-name="Grupo 97130" transform="translate(4.786 2.753)">
            <path id="Trazado_148449" data-name="Trazado 148449" d="M320.171,73.762,119.158,189.681V337.832A2.566,2.566,0,0,0,123,340.06l3.583-2.069,189.84-109.46a8.281,8.281,0,0,0,3.747-6.489Z" transform="translate(-119.158 -73.762)" fill="#f0f0f0"/>
            <path id="Trazado_148450" data-name="Trazado 148450" d="M319.308,75.257V222.043a7.45,7.45,0,0,1-3.315,5.74L126.152,337.243l-3.583,2.069a1.667,1.667,0,0,1-.84.23,1.739,1.739,0,0,1-1.19-.485,1.681,1.681,0,0,1-.517-1.225V190.18L319.308,75.257m.864-1.5L119.158,189.681V337.832a2.573,2.573,0,0,0,2.571,2.573A2.536,2.536,0,0,0,123,340.06l3.583-2.069,189.84-109.46a8.281,8.281,0,0,0,3.747-6.489V73.762Z" transform="translate(-119.158 -73.762)" fill="#e0e0e0"/>
          </g>
          <path id="Trazado_148451" data-name="Trazado 148451" d="M314.65,70.575,113.624,186.487l4.78,2.76L319.418,73.328Z" transform="translate(-113.618 -70.575)" fill="#455a64" opacity="0.8"/>
          <path id="Trazado_148452" data-name="Trazado 148452" d="M119.75,357.938a2.588,2.588,0,0,1-1.346-2.262V207.524l-4.78-2.76L113.617,352.1a4.152,4.152,0,0,0,.036.547,3.971,3.971,0,0,0,1.956,2.9l3.948,2.283.193.109Z" transform="translate(-113.617 -88.853)" fill="#ebebeb"/>
        </g>
        <g id="Grupo_97134" data-name="Grupo 97134" transform="translate(0.006)">
          <g id="Grupo_97132" data-name="Grupo 97132">
            <path id="Trazado_148453" data-name="Trazado 148453" d="M113.624,184.744v-10a4.162,4.162,0,0,1,1.864-3.249l197.3-113.737a4.109,4.109,0,0,1,3.735-.009l1.027.593a4.132,4.132,0,0,1,1.87,3.239V71.6L118.4,187.5Z" transform="translate(-113.624 -57.309)" fill="#ffc967"/>
            <path id="Trazado_148455" data-name="Trazado 148455" d="M119.158,177.973a4.163,4.163,0,0,1,1.864-3.249L318.307,60.98c1.03-.6,1.864-.123,1.864,1.07V72.062l-201.013,115.9Z" transform="translate(-114.378 -57.773)" fill="#ffa648"/>
            <path id="Trazado_148457" data-name="Trazado 148457" d="M118.949,193.888a3.858,3.858,0,0,0-.544,1.849v9.994l-4.777-2.755v-10a3.827,3.827,0,0,1,.544-1.84Z" transform="translate(-113.625 -75.536)" fill="#ffa648"/>
          </g>
          <g id="Grupo_97133" data-name="Grupo 97133" transform="translate(182.987 10.558)">
            <path id="Trazado_148459" data-name="Trazado 148459" d="M341.713,72.809c0,1.119.785,1.572,1.754,1.013a3.878,3.878,0,0,0,1.754-3.039c0-1.119-.785-1.572-1.754-1.013A3.878,3.878,0,0,0,341.713,72.809Z" transform="translate(-327.678 -69.531)" fill="#fafafa"/>
            <path id="Trazado_148460" data-name="Trazado 148460" d="M333.589,77.5c0,1.119.785,1.573,1.754,1.013a3.875,3.875,0,0,0,1.754-3.039c0-1.119-.785-1.572-1.754-1.012A3.875,3.875,0,0,0,333.589,77.5Z" transform="translate(-326.572 -70.17)" fill="#fafafa"/>
            <path id="Trazado_148461" data-name="Trazado 148461" d="M325.465,82.19c0,1.119.785,1.572,1.754,1.013a3.878,3.878,0,0,0,1.754-3.039c0-1.119-.785-1.572-1.754-1.013A3.878,3.878,0,0,0,325.465,82.19Z" transform="translate(-325.465 -70.809)" fill="#fafafa"/>
          </g>
        </g>
        <g id="Grupo_97268" data-name="Grupo 97268" transform="translate(4.786 21.138)">
          <path id="Trazado_148462" data-name="Trazado 148462" d="M119.158,203.366V351.452A2.566,2.566,0,0,0,123,353.679l3.583-2.069,43.928-25.329V173.752l-51.354,29.612Z" transform="translate(-119.158 -94.307)" fill="#fafafa"/>
          <path id="Trazado_148463" data-name="Trazado 148463" d="M182.672,163.727V307.557l141.937-81.947V81.78Z" transform="translate(-127.809 -81.78)" fill="#fafafa"/>
          <g id="Grupo_97135" data-name="Grupo 97135" transform="translate(5.74 93.909)">
            <path id="Trazado_148464" data-name="Trazado 148464" d="M159.662,193.848l-32.76,18.93a2.426,2.426,0,0,0-1.1,1.9v3.41c0,.7.492.984,1.1.634l32.76-18.93a2.428,2.428,0,0,0,1.1-1.9v-3.409C160.759,193.782,160.268,193.5,159.662,193.848Z" transform="translate(-125.803 -190.933)" fill="#ffe4b3"/>
            <path id="Trazado_148466" data-name="Trazado 148466" d="M172.8,194.766l-.966-.929a4.3,4.3,0,0,0,.307-1.543,1.824,1.824,0,0,0-.721-1.658,1.142,1.142,0,0,0-1.176.051,3.859,3.859,0,0,0-1.517,3.138,1.828,1.828,0,0,0,.721,1.658,1.03,1.03,0,0,0,.518.139,1.309,1.309,0,0,0,.657-.192,2.607,2.607,0,0,0,.857-.879l.792.763a.378.378,0,0,0,.263.106.385.385,0,0,0,.275-.117A.38.38,0,0,0,172.8,194.766Zm-2.556.006a.409.409,0,0,1-.415.052c-.158-.091-.342-.407-.342-1a3.148,3.148,0,0,1,1.137-2.48.563.563,0,0,1,.275-.088.281.281,0,0,1,.141.037c.157.091.341.407.341,1A3.144,3.144,0,0,1,170.247,194.772Z" transform="translate(-131.65 -190.497)" fill="#455a64"/>
          </g>
          <g id="Grupo_97152" data-name="Grupo 97152" transform="translate(5.725 115.838)">
            <g id="Grupo_97142" data-name="Grupo 97142" transform="translate(0 12.392)">
              <g id="Grupo_97136" data-name="Grupo 97136" transform="translate(0)">
                <path id="Trazado_148467" data-name="Trazado 148467" d="M126.6,233.909l-.735.424c-.043.025-.078,0-.078-.059v-1.989a.188.188,0,0,1,.078-.15l.735-.424c.043-.025.079,0,.079.06v1.989A.187.187,0,0,1,126.6,233.909Z" transform="translate(-125.786 -230.43)" fill="#455a64"/>
                <path id="Trazado_148468" data-name="Trazado 148468" d="M127.874,233.173l-.735.424c-.043.025-.079,0-.079-.059v-1.989a.189.189,0,0,1,.079-.15l.735-.424c.043-.025.079,0,.079.06v1.989A.189.189,0,0,1,127.874,233.173Z" transform="translate(-125.96 -230.329)" fill="#455a64"/>
                <path id="Trazado_148469" data-name="Trazado 148469" d="M129.149,232.437l-.735.424c-.043.025-.078,0-.078-.059v-1.99a.188.188,0,0,1,.078-.149l.735-.424c.043-.025.079,0,.079.06v1.989A.189.189,0,0,1,129.149,232.437Z" transform="translate(-126.133 -230.229)" fill="#455a64"/>
                <path id="Trazado_148470" data-name="Trazado 148470" d="M126.6,236.879l-.735.424c-.043.025-.078,0-.078-.059v-1.989a.188.188,0,0,1,.078-.15l.735-.424c.043-.025.079,0,.079.06v1.989A.187.187,0,0,1,126.6,236.879Z" transform="translate(-125.786 -230.834)" fill="#455a64"/>
                <path id="Trazado_148471" data-name="Trazado 148471" d="M127.874,236.143l-.735.424c-.043.025-.079,0-.079-.06v-1.989a.189.189,0,0,1,.079-.149l.735-.424c.043-.025.079,0,.079.06v1.989A.189.189,0,0,1,127.874,236.143Z" transform="translate(-125.96 -230.734)" fill="#455a64"/>
                <path id="Trazado_148472" data-name="Trazado 148472" d="M129.149,235.407l-.735.424c-.043.025-.078,0-.078-.06v-1.989a.188.188,0,0,1,.078-.149l.735-.424c.043-.025.079,0,.079.06v1.989A.189.189,0,0,1,129.149,235.407Z" transform="translate(-126.133 -230.634)" fill="#455a64"/>
              </g>
              <g id="Grupo_97139" data-name="Grupo 97139" transform="translate(0 10.008)">
                <g id="Grupo_97137" data-name="Grupo 97137" transform="translate(0 0.453)">
                  <path id="Trazado_148473" data-name="Trazado 148473" d="M126.715,244.7l-.9-.551c-.035-.021-.035-.1,0-.162l.9-1.6c.044-.077.107-.066.107.02v2.147C126.823,244.643,126.76,244.728,126.715,244.7Z" transform="translate(-125.786 -242.34)" fill="#455a64"/>
                </g>
                <g id="Grupo_97138" data-name="Grupo 97138" transform="translate(0.365)">
                  <path id="Trazado_148474" data-name="Trazado 148474" d="M126.393,243.555l1.191-.688v.567l-1.191.688c-.1.058-.184-.022-.184-.177A.489.489,0,0,1,126.393,243.555Z" transform="translate(-126.209 -241.959)" fill="#455a64"/>
                  <path id="Trazado_148475" data-name="Trazado 148475" d="M128.058,242.682l.406-.234v.566l-.406.235Z" transform="translate(-126.461 -241.902)" fill="#455a64"/>
                  <path id="Trazado_148476" data-name="Trazado 148476" d="M129.66,242.012v2.083a.482.482,0,0,1-.184.389c-.1.059-.184-.018-.184-.177v-1.8l-.5.291v-.567l.688-.4C129.577,241.776,129.66,241.857,129.66,242.012Z" transform="translate(-126.56 -241.816)" fill="#455a64"/>
                </g>
              </g>
              <g id="Grupo_97140" data-name="Grupo 97140" transform="translate(0 17.278)">
                <path id="Trazado_148477" data-name="Trazado 148477" d="M127.067,250.443a3.941,3.941,0,0,0-1.253,3.368c.149,1.085.792,1.043.861,1.546.008.054.043.074.082.052l.805-.457a.2.2,0,0,0,.083-.147c.085-.663.906-1.465.912-3.079C128.562,250.487,127.884,249.881,127.067,250.443Z" transform="translate(-125.786 -250.232)" fill="#455a64"/>
                <path id="Trazado_148478" data-name="Trazado 148478" d="M127.689,257.044l-.777.449c-.054.03-.1,0-.1-.073V256.7a.231.231,0,0,1,.1-.185l.777-.448c.054-.031.1,0,.1.073v.716A.23.23,0,0,1,127.689,257.044Z" transform="translate(-125.926 -251.026)" fill="#455a64"/>
              </g>
              <path id="Trazado_148479" data-name="Trazado 148479" d="M127.255,230.965a4.717,4.717,0,0,0-1.41,2.981,3.129,3.129,0,0,0,.206,1.63l-.261,1.359c-.022.112.04.171.1.1l.783-.853a1.216,1.216,0,0,0,1.139-.335,4.715,4.715,0,0,0,1.411-2.985C129.412,230.96,128.421,230.007,127.255,230.965Zm.282,4.453c-.721.416-1.307-.148-1.307-1.258a3.452,3.452,0,0,1,1.307-2.767c.72-.415,1.306.149,1.306,1.258A3.451,3.451,0,0,1,127.537,235.418Z" transform="translate(-125.786 -230.278)" fill="#455a64"/>
              <path id="Trazado_148480" data-name="Trazado 148480" d="M127.255,261.313a4.717,4.717,0,0,0-1.41,2.981,3.129,3.129,0,0,0,.206,1.63l-.261,1.359c-.022.112.04.171.1.1l.783-.853a1.216,1.216,0,0,0,1.139-.335,4.715,4.715,0,0,0,1.411-2.985C129.412,261.308,128.421,260.355,127.255,261.313Zm.282,4.453c-.721.416-1.307-.148-1.307-1.258a3.452,3.452,0,0,1,1.307-2.767c.72-.415,1.306.149,1.306,1.258A3.451,3.451,0,0,1,127.537,265.766Z" transform="translate(-125.786 -234.412)" fill="#455a64"/>
              <g id="Grupo_97141" data-name="Grupo 97141" transform="translate(0 35.771)">
                <path id="Trazado_148481" data-name="Trazado 148481" d="M128.548,272.377a1.819,1.819,0,0,1-.689,1.46c-.381.219-.69-.078-.69-.664a1.821,1.821,0,0,1,.69-1.46C128.24,271.493,128.548,271.79,128.548,272.377Z" transform="translate(-125.974 -271.64)" fill="#455a64"/>
                <path id="Trazado_148482" data-name="Trazado 148482" d="M129.992,272.658a1.211,1.211,0,0,1-.459.972c-.254.147-.46-.051-.46-.441a1.21,1.21,0,0,1,.46-.973C129.787,272.069,129.992,272.266,129.992,272.658Z" transform="translate(-126.234 -271.712)" fill="#455a64"/>
                <path id="Trazado_148483" data-name="Trazado 148483" d="M128.653,276.93l-1.628.941v-2.061a1.411,1.411,0,0,1,.59-1.126l.449-.26c.326-.187.589.012.589.446Z" transform="translate(-125.955 -272.01)" fill="#455a64"/>
                <path id="Trazado_148484" data-name="Trazado 148484" d="M129.619,274.128l-.448.258v2.376l.846-.488v-1.846C130.017,274.136,129.839,274,129.619,274.128Z" transform="translate(-126.247 -271.973)" fill="#455a64"/>
                <path id="Trazado_148485" data-name="Trazado 148485" d="M125.8,275.079c0,.39.206.588.46.442a1.214,1.214,0,0,0,.459-.973c0-.39-.206-.588-.459-.442A1.212,1.212,0,0,0,125.8,275.079Z" transform="translate(-125.788 -271.97)" fill="#455a64"/>
                <path id="Trazado_148486" data-name="Trazado 148486" d="M126.183,276.083l.448-.259V278.2l-.846.488v-1.846A.952.952,0,0,1,126.183,276.083Z" transform="translate(-125.786 -272.21)" fill="#455a64"/>
              </g>
            </g>
            <g id="Grupo_97151" data-name="Grupo 97151" transform="translate(7.033)">
              <path id="Trazado_148487" data-name="Trazado 148487" d="M134.863,227.093l19.182-11.075c.517-.3.935-.086.935.473a2,2,0,0,1-.935,1.553L134.863,229.12c-.516.3-.935.086-.935-.473A2.006,2.006,0,0,1,134.863,227.093Z" transform="translate(-133.928 -215.884)" fill="#e0e0e0"/>
              <path id="Trazado_148488" data-name="Trazado 148488" d="M134.863,237.546l19.182-11.075c.517-.3.935-.086.935.473a2.005,2.005,0,0,1-.935,1.553l-19.182,11.075c-.516.3-.935.086-.935-.472A2.006,2.006,0,0,1,134.863,237.546Z" transform="translate(-133.928 -217.307)" fill="#e0e0e0"/>
              <path id="Trazado_148489" data-name="Trazado 148489" d="M134.863,248l19.182-11.076c.517-.3.935-.086.935.473a2.005,2.005,0,0,1-.935,1.553l-19.182,11.075c-.516.3-.935.086-.935-.472A2.006,2.006,0,0,1,134.863,248Z" transform="translate(-133.928 -218.731)" fill="#e0e0e0"/>
              <path id="Trazado_148490" data-name="Trazado 148490" d="M134.863,258.452l19.182-11.076c.517-.3.935-.086.935.473a2.005,2.005,0,0,1-.935,1.553l-19.182,11.075c-.516.3-.935.086-.935-.473A2.006,2.006,0,0,1,134.863,258.452Z" transform="translate(-133.928 -220.155)" fill="#e0e0e0"/>
              <path id="Trazado_148491" data-name="Trazado 148491" d="M134.863,268.905l19.182-11.076c.517-.3.935-.086.935.473a2.006,2.006,0,0,1-.935,1.553l-19.182,11.075c-.516.3-.935.086-.935-.473A2.006,2.006,0,0,1,134.863,268.905Z" transform="translate(-133.928 -221.579)" fill="#e0e0e0"/>
              <path id="Trazado_148492" data-name="Trazado 148492" d="M138.926,277.44l19.182-11.076c.516-.3.935-.086.935.473a2.005,2.005,0,0,1-.935,1.553l-19.182,11.075c-.517.3-.936.086-.936-.473A2.005,2.005,0,0,1,138.926,277.44Z" transform="translate(-134.481 -222.741)" fill="#455a64"/>
              <path id="Trazado_148493" data-name="Trazado 148493" d="M138.926,284.5l19.182-11.076c.516-.3.935-.086.935.473a2,2,0,0,1-.935,1.553l-19.182,11.075c-.517.3-.936.086-.936-.473A2,2,0,0,1,138.926,284.5Z" transform="translate(-134.481 -223.703)" fill="#e0e0e0"/>
              <path id="Trazado_148494" data-name="Trazado 148494" d="M138.926,291.562l19.182-11.076c.516-.3.935-.086.935.473a2,2,0,0,1-.935,1.553l-19.182,11.075c-.517.3-.936.086-.936-.473A2.005,2.005,0,0,1,138.926,291.562Z" transform="translate(-134.481 -224.665)" fill="#e0e0e0"/>
              <path id="Trazado_148495" data-name="Trazado 148495" d="M143.247,296.05l19.182-11.075c.517-.3.935-.086.935.473A2,2,0,0,1,162.43,287l-19.182,11.075c-.517.3-.935.087-.935-.473A2.005,2.005,0,0,1,143.247,296.05Z" transform="translate(-135.07 -225.276)" fill="#e0e0e0"/>
              <g id="Grupo_97143" data-name="Grupo 97143" transform="translate(3.509 72.036)">
                <path id="Trazado_148496" data-name="Trazado 148496" d="M138.175,303.264l1.557-2.749c.06-.1.06-.243,0-.279l-1.557-.95c-.075-.046-.185.1-.185.246v3.7C137.99,303.378,138.1,303.4,138.175,303.264Z" transform="translate(-137.99 -299.278)" fill="#455a64"/>
              </g>
              <path id="Trazado_148497" data-name="Trazado 148497" d="M143.247,303.087l19.182-11.076c.517-.3.935-.086.935.473a2.006,2.006,0,0,1-.935,1.553l-19.182,11.075c-.517.3-.935.086-.935-.473A2,2,0,0,1,143.247,303.087Z" transform="translate(-135.07 -226.234)" fill="#e0e0e0"/>
              <g id="Grupo_97144" data-name="Grupo 97144" transform="translate(3.509 78.114)">
                <path id="Trazado_148498" data-name="Trazado 148498" d="M138.175,310.3l1.557-2.749c.06-.105.06-.243,0-.279l-1.557-.95c-.075-.046-.185.1-.185.246v3.7C137.99,310.415,138.1,310.434,138.175,310.3Z" transform="translate(-137.99 -306.315)" fill="#455a64"/>
              </g>
              <path id="Trazado_148499" data-name="Trazado 148499" d="M143.247,310.123l19.182-11.075c.517-.3.935-.086.935.473a2,2,0,0,1-.935,1.552L143.247,312.15c-.517.3-.935.086-.935-.473A2.005,2.005,0,0,1,143.247,310.123Z" transform="translate(-135.07 -227.193)" fill="#e0e0e0"/>
              <g id="Grupo_97145" data-name="Grupo 97145" transform="translate(3.509 84.192)">
                <path id="Trazado_148500" data-name="Trazado 148500" d="M138.175,317.338l1.557-2.749c.06-.1.06-.243,0-.279l-1.557-.949c-.075-.047-.185.1-.185.245v3.7C137.99,317.451,138.1,317.471,138.175,317.338Z" transform="translate(-137.99 -313.352)" fill="#455a64"/>
              </g>
              <path id="Trazado_148501" data-name="Trazado 148501" d="M143.247,317.16l19.182-11.076c.517-.3.935-.086.935.473a2.006,2.006,0,0,1-.935,1.553l-19.182,11.075c-.517.3-.935.086-.935-.473A2,2,0,0,1,143.247,317.16Z" transform="translate(-135.07 -228.151)" fill="#e0e0e0"/>
              <g id="Grupo_97146" data-name="Grupo 97146" transform="translate(3.509 90.27)">
                <path id="Trazado_148502" data-name="Trazado 148502" d="M138.175,324.374l1.557-2.749c.06-.105.06-.244,0-.279l-1.557-.95c-.075-.046-.185.1-.185.246v3.7C137.99,324.488,138.1,324.507,138.175,324.374Z" transform="translate(-137.99 -320.388)" fill="#455a64"/>
              </g>
              <path id="Trazado_148503" data-name="Trazado 148503" d="M143.247,324.2l19.182-11.075c.517-.3.935-.086.935.473a2,2,0,0,1-.935,1.553l-19.182,11.076c-.517.3-.935.085-.935-.473A2.005,2.005,0,0,1,143.247,324.2Z" transform="translate(-135.07 -229.11)" fill="#e0e0e0"/>
              <g id="Grupo_97147" data-name="Grupo 97147" transform="translate(3.509 96.349)">
                <path id="Trazado_148504" data-name="Trazado 148504" d="M138.175,331.411l1.557-2.749c.06-.1.06-.243,0-.279l-1.557-.949c-.075-.047-.185.1-.185.245v3.7C137.99,331.524,138.1,331.544,138.175,331.411Z" transform="translate(-137.99 -327.425)" fill="#455a64"/>
              </g>
              <path id="Trazado_148505" data-name="Trazado 148505" d="M143.247,331.233l19.182-11.076c.517-.3.935-.086.935.473a2,2,0,0,1-.935,1.553l-19.182,11.075c-.517.3-.935.086-.935-.473A2.005,2.005,0,0,1,143.247,331.233Z" transform="translate(-135.07 -230.068)" fill="#e0e0e0"/>
              <g id="Grupo_97148" data-name="Grupo 97148" transform="translate(3.509 102.426)">
                <path id="Trazado_148506" data-name="Trazado 148506" d="M138.175,338.447l1.557-2.749c.06-.105.06-.243,0-.28l-1.557-.949c-.075-.046-.185.1-.185.246v3.7C137.99,338.561,138.1,338.58,138.175,338.447Z" transform="translate(-137.99 -334.461)" fill="#455a64"/>
              </g>
              <path id="Trazado_148507" data-name="Trazado 148507" d="M143.247,338.269l19.182-11.075c.517-.3.935-.086.935.473a2,2,0,0,1-.935,1.553L143.247,340.3c-.517.3-.935.086-.935-.473A2,2,0,0,1,143.247,338.269Z" transform="translate(-135.07 -231.027)" fill="#e0e0e0"/>
              <g id="Grupo_97149" data-name="Grupo 97149" transform="translate(3.509 108.504)">
                <path id="Trazado_148508" data-name="Trazado 148508" d="M138.175,345.483l1.557-2.749c.06-.1.06-.243,0-.279l-1.557-.95c-.075-.046-.185.1-.185.246v3.7C137.99,345.6,138.1,345.616,138.175,345.483Z" transform="translate(-137.99 -341.497)" fill="#455a64"/>
              </g>
              <path id="Trazado_148509" data-name="Trazado 148509" d="M143.247,345.306l19.182-11.076c.517-.3.935-.086.935.473a2.006,2.006,0,0,1-.935,1.553l-19.182,11.075c-.517.3-.935.086-.935-.473A2,2,0,0,1,143.247,345.306Z" transform="translate(-135.07 -231.985)" fill="#e0e0e0"/>
              <g id="Grupo_97150" data-name="Grupo 97150" transform="translate(3.509 114.583)">
                <path id="Trazado_148510" data-name="Trazado 148510" d="M138.175,352.52l1.557-2.749c.06-.105.06-.244,0-.279l-1.557-.95c-.075-.046-.185.1-.185.246v3.7C137.99,352.634,138.1,352.653,138.175,352.52Z" transform="translate(-137.99 -348.534)" fill="#455a64"/>
              </g>
            </g>
          </g>
          <g id="Grupo_97161" data-name="Grupo 97161" transform="translate(58.372 7.405)">
            <g id="Grupo_97156" data-name="Grupo 97156" transform="translate(0 39.506)">
              <path id="Trazado_148511" data-name="Trazado 148511" d="M187.669,190.849l63.047-36.4a2.067,2.067,0,0,0,.936-1.62V136.756c0-.6-.419-.838-.936-.54L187.669,172.61a2.066,2.066,0,0,0-.935,1.62v16.08C186.734,190.905,187.153,191.147,187.669,190.849Z" transform="translate(-186.734 -136.088)" fill="#f0f0f0"/>
              <g id="Grupo_97155" data-name="Grupo 97155" transform="translate(4.093 34.449)">
                <g id="Grupo_97153" data-name="Grupo 97153" transform="translate(2.137 4.91)">
                  <path id="Trazado_148512" data-name="Trazado 148512" d="M194.149,185.967a.187.187,0,0,1,.006-.039l.415-1.727-.572.33a.029.029,0,0,1-.037,0,.065.065,0,0,1-.015-.047v-.312a.161.161,0,0,1,.015-.066.1.1,0,0,1,.037-.045l.916-.529a.029.029,0,0,1,.037,0,.064.064,0,0,1,.016.048v.275a.77.77,0,0,1-.032.168l-.415,1.73a.522.522,0,0,1-.021.061.084.084,0,0,1-.035.041l-.27.155a.025.025,0,0,1-.032,0A.056.056,0,0,1,194.149,185.967Z" transform="translate(-193.946 -181.909)" fill="#455a64"/>
                  <path id="Trazado_148513" data-name="Trazado 148513" d="M195.863,182.974a.466.466,0,0,1,.247-.078.242.242,0,0,1,.171.075.435.435,0,0,1,.1.2,1.268,1.268,0,0,1,.039.282c0,.085,0,.171,0,.263s0,.181,0,.263a1.956,1.956,0,0,1-.039.328,1.431,1.431,0,0,1-.1.314,1.19,1.19,0,0,1-.171.273.908.908,0,0,1-.247.207.473.473,0,0,1-.248.079.25.25,0,0,1-.172-.075.441.441,0,0,1-.1-.2,1.369,1.369,0,0,1-.04-.282c0-.079,0-.165,0-.257s0-.181,0-.268a2.16,2.16,0,0,1,.04-.328,1.477,1.477,0,0,1,.1-.314,1.26,1.26,0,0,1,.172-.274A.915.915,0,0,1,195.863,182.974Zm.2,1.191c.005-.169.005-.335,0-.495a1.2,1.2,0,0,0-.014-.128.231.231,0,0,0-.035-.088.082.082,0,0,0-.061-.037.158.158,0,0,0-.095.029.33.33,0,0,0-.1.081.431.431,0,0,0-.061.108.787.787,0,0,0-.035.128.951.951,0,0,0-.012.143q-.01.25,0,.495a.7.7,0,0,0,.011.129.208.208,0,0,0,.035.088.089.089,0,0,0,.062.037.169.169,0,0,0,.1-.029.325.325,0,0,0,.095-.082.406.406,0,0,0,.062-.108.517.517,0,0,0,.035-.128A1.059,1.059,0,0,0,196.068,184.165Z" transform="translate(-194.13 -181.823)" fill="#455a64"/>
                  <path id="Trazado_148514" data-name="Trazado 148514" d="M197.392,182.472c0,.078,0,.152,0,.225a1.071,1.071,0,0,1-.022.176.8.8,0,0,1-.056.166.655.655,0,0,1-.092.143.532.532,0,0,1-.131.108.269.269,0,0,1-.13.042.126.126,0,0,1-.092-.037.23.23,0,0,1-.055-.1.609.609,0,0,1-.023-.15c0-.037,0-.073,0-.108s0-.073,0-.116a.991.991,0,0,1,.023-.177.823.823,0,0,1,.055-.165.609.609,0,0,1,.092-.143.484.484,0,0,1,.13-.107.268.268,0,0,1,.131-.043.126.126,0,0,1,.091.037.239.239,0,0,1,.057.1A.667.667,0,0,1,197.392,182.472Zm.479-.624a.26.26,0,0,1,.028-.058.118.118,0,0,1,.041-.039l.157-.091c.015-.008.026-.009.034,0a.041.041,0,0,1,.013.035l0,.016a.113.113,0,0,1-.005.022l-.947,2.464a.326.326,0,0,1-.029.058.108.108,0,0,1-.041.038l-.157.091c-.015.009-.025.01-.034,0a.041.041,0,0,1-.013-.035l0-.016a.074.074,0,0,1,.006-.022Zm-.859,1.053a.236.236,0,0,0,.02.1c.011.02.03.022.058.005a.124.124,0,0,0,.059-.073.524.524,0,0,0,.021-.126,1.859,1.859,0,0,0,0-.2.289.289,0,0,0-.021-.1c-.011-.019-.029-.021-.059,0a.133.133,0,0,0-.058.072.439.439,0,0,0-.02.127A1.462,1.462,0,0,0,197.012,182.9Zm1.269.091c0,.076,0,.151,0,.225a1.081,1.081,0,0,1-.022.176.741.741,0,0,1-.056.165.608.608,0,0,1-.092.143.5.5,0,0,1-.13.107.273.273,0,0,1-.131.044.124.124,0,0,1-.092-.038.233.233,0,0,1-.056-.1.665.665,0,0,1-.022-.15c0-.038,0-.074,0-.108s0-.073,0-.117a1.07,1.07,0,0,1,.022-.176.814.814,0,0,1,.056-.166.575.575,0,0,1,.092-.143.482.482,0,0,1,.131-.108.258.258,0,0,1,.13-.042.119.119,0,0,1,.092.036.232.232,0,0,1,.056.1A.663.663,0,0,1,198.281,182.992Zm-.38.428a.251.251,0,0,0,.021.1c.01.02.029.021.059,0a.13.13,0,0,0,.058-.072.5.5,0,0,0,.02-.127,1.835,1.835,0,0,0,0-.2.265.265,0,0,0-.02-.1c-.011-.019-.03-.022-.058-.005a.125.125,0,0,0-.059.073.461.461,0,0,0-.021.126A1.827,1.827,0,0,0,197.9,183.421Z" transform="translate(-194.333 -181.654)" fill="#455a64"/>
                </g>
                <g id="Grupo_97154" data-name="Grupo 97154">
                  <path id="Trazado_148515" data-name="Trazado 148515" d="M193.834,180.464l-.633-.975a12.713,12.713,0,0,0-1.5,4.031l1.024-.079A9.368,9.368,0,0,1,193.834,180.464Z" transform="translate(-191.504 -176.449)" fill="#373660"/>
                  <path id="Trazado_148516" data-name="Trazado 148516" d="M195.856,178.124V176.47a7.175,7.175,0,0,0-2.419,2.608l.633.975A5.313,5.313,0,0,1,195.856,178.124Z" transform="translate(-191.74 -176.038)" fill="#373660"/>
                  <path id="Trazado_148517" data-name="Trazado 148517" d="M192.547,185.6a8.286,8.286,0,0,1,.15-1.533l-1.024.079a11.318,11.318,0,0,0-.2,2.074,7.942,7.942,0,0,0,.2,1.842l1.024-1.1A5.809,5.809,0,0,1,192.547,185.6Z" transform="translate(-191.472 -177.072)" fill="#373660"/>
                  <path id="Trazado_148518" data-name="Trazado 148518" d="M199.535,178.52a3.4,3.4,0,0,0-1.5-2.3,2.4,2.4,0,0,0-2.419.186v1.654a1.768,1.768,0,0,1,1.786-.133,2.506,2.506,0,0,1,1.107,1.7,5.854,5.854,0,0,1,.149,1.361,8.355,8.355,0,0,1-.149,1.533,9.388,9.388,0,0,1-1.107,2.977,5.305,5.305,0,0,1-1.786,1.929,1.766,1.766,0,0,1-1.785.133,2.5,2.5,0,0,1-1.106-1.7l-1.024,1.1a3.4,3.4,0,0,0,1.5,2.3,2.4,2.4,0,0,0,2.419-.186,7.182,7.182,0,0,0,2.419-2.608,12.72,12.72,0,0,0,1.5-4.031,11.328,11.328,0,0,0,.2-2.075A7.947,7.947,0,0,0,199.535,178.52Z" transform="translate(-191.504 -175.97)" fill="#ffc967"/>
                </g>
              </g>
              <path id="Trazado_148519" data-name="Trazado 148519" d="M207.979,171.91l19.182-11.076c.517-.3.936-.085.936.473a2,2,0,0,1-.936,1.553l-19.182,11.075c-.517.3-.935.086-.935-.472A2.005,2.005,0,0,1,207.979,171.91Z" transform="translate(-189.5 -139.441)" fill="#373660"/>
              <path id="Trazado_148520" data-name="Trazado 148520" d="M207.979,175.36,241.2,156.188c.517-.3.935-.085.935.473a2,2,0,0,1-.935,1.553l-33.217,19.173c-.517.3-.935.086-.935-.473A2.005,2.005,0,0,1,207.979,175.36Z" transform="translate(-189.5 -138.808)" fill="#e0e0e0"/>
            </g>
            <g id="Grupo_97160" data-name="Grupo 97160" transform="translate(68.414)">
              <path id="Trazado_148521" data-name="Trazado 148521" d="M266.871,145.113l63.048-36.4a2.069,2.069,0,0,0,.935-1.62V91.02c0-.6-.419-.838-.935-.54l-63.048,36.394a2.066,2.066,0,0,0-.935,1.62v16.079C265.936,145.169,266.355,145.411,266.871,145.113Z" transform="translate(-265.936 -90.352)" fill="#f0f0f0"/>
              <g id="Grupo_97159" data-name="Grupo 97159" transform="translate(4.662 34.116)">
                <g id="Grupo_97157" data-name="Grupo 97157" transform="translate(2.081 4.878)">
                  <path id="Trazado_148522" data-name="Trazado 148522" d="M273.742,138.732a1.161,1.161,0,0,1,.048-.335,1.342,1.342,0,0,1,.125-.3,1.249,1.249,0,0,1,.181-.249.907.907,0,0,1,.208-.171.491.491,0,0,1,.209-.07.271.271,0,0,1,.18.041.333.333,0,0,1,.126.159.723.723,0,0,1,.048.281,1.029,1.029,0,0,1-.013.165c-.009.054-.02.1-.033.155s-.028.1-.045.148-.033.094-.05.139l-.363.986a.394.394,0,0,0-.022.049.092.092,0,0,1-.039.044l-.3.176a.02.02,0,0,1-.028,0,.064.064,0,0,1-.01-.04.069.069,0,0,1,0-.025.071.071,0,0,1,.006-.018l.246-.674a.409.409,0,0,1-.18.026.27.27,0,0,1-.151-.064.37.37,0,0,1-.1-.157A.729.729,0,0,1,273.742,138.732Zm.768-.444a.248.248,0,0,0-.016-.1.107.107,0,0,0-.112-.071.176.176,0,0,0-.078.026.343.343,0,0,0-.078.064.5.5,0,0,0-.066.092.472.472,0,0,0-.046.109.4.4,0,0,0-.018.117.229.229,0,0,0,.018.1.116.116,0,0,0,.046.056.1.1,0,0,0,.066.015.175.175,0,0,0,.078-.025.312.312,0,0,0,.078-.064.5.5,0,0,0,.112-.2A.43.43,0,0,0,274.51,138.288Z" transform="translate(-273.742 -135.782)" fill="#455a64"/>
                  <path id="Trazado_148523" data-name="Trazado 148523" d="M275.789,136.814a.464.464,0,0,1,.247-.077.24.24,0,0,1,.171.075.435.435,0,0,1,.1.2,1.377,1.377,0,0,1,.039.282c0,.084,0,.171,0,.263s0,.18,0,.263a2.128,2.128,0,0,1-.039.327,1.425,1.425,0,0,1-.1.314,1.22,1.22,0,0,1-.171.273.924.924,0,0,1-.247.207.473.473,0,0,1-.249.079.249.249,0,0,1-.171-.075.448.448,0,0,1-.1-.2,1.37,1.37,0,0,1-.039-.282c0-.079,0-.165,0-.257s0-.181,0-.268a2.156,2.156,0,0,1,.039-.328,1.45,1.45,0,0,1,.1-.314,1.258,1.258,0,0,1,.171-.274A.951.951,0,0,1,275.789,136.814Zm.2,1.192c.006-.169.006-.335,0-.495a.881.881,0,0,0-.014-.128.217.217,0,0,0-.034-.088.082.082,0,0,0-.061-.037.162.162,0,0,0-.095.029.332.332,0,0,0-.1.082.4.4,0,0,0-.061.108.687.687,0,0,0-.035.128,1.056,1.056,0,0,0-.013.143q-.01.25,0,.495a.771.771,0,0,0,.012.129.2.2,0,0,0,.035.088.088.088,0,0,0,.062.037.171.171,0,0,0,.1-.03.31.31,0,0,0,.095-.081.4.4,0,0,0,.062-.108.552.552,0,0,0,.035-.128A.947.947,0,0,0,275.993,138.006Z" transform="translate(-273.944 -135.664)" fill="#455a64"/>
                  <path id="Trazado_148524" data-name="Trazado 148524" d="M277.317,136.313c0,.078,0,.151,0,.225a.98.98,0,0,1-.022.176.769.769,0,0,1-.055.165.647.647,0,0,1-.093.144.492.492,0,0,1-.13.107.265.265,0,0,1-.13.043.126.126,0,0,1-.092-.037.231.231,0,0,1-.055-.1.61.61,0,0,1-.024-.15c0-.037,0-.073,0-.108s0-.073,0-.116a1.019,1.019,0,0,1,.024-.178.778.778,0,0,1,.055-.164.606.606,0,0,1,.092-.143.471.471,0,0,1,.13-.107.268.268,0,0,1,.13-.043.124.124,0,0,1,.092.037.224.224,0,0,1,.056.1A.615.615,0,0,1,277.317,136.313Zm.479-.624a.3.3,0,0,1,.029-.058.11.11,0,0,1,.041-.039l.157-.091a.031.031,0,0,1,.034,0,.041.041,0,0,1,.013.035l0,.016a.075.075,0,0,1-.006.022l-.947,2.464a.277.277,0,0,1-.028.058.118.118,0,0,1-.041.038l-.156.091c-.015.008-.026.009-.034,0a.042.042,0,0,1-.013-.036l0-.016a.079.079,0,0,1,.006-.021Zm-.859,1.053a.248.248,0,0,0,.021.1c.01.02.03.022.058.005a.122.122,0,0,0,.058-.073.485.485,0,0,0,.022-.126,1.827,1.827,0,0,0,0-.2.267.267,0,0,0-.022-.1c-.01-.019-.029-.021-.058,0a.127.127,0,0,0-.058.072.47.47,0,0,0-.021.127A1.477,1.477,0,0,0,276.937,136.742Zm1.27.091c0,.076,0,.151,0,.225a1.3,1.3,0,0,1-.022.176.787.787,0,0,1-.056.165.638.638,0,0,1-.092.143.489.489,0,0,1-.13.107.257.257,0,0,1-.13.043.123.123,0,0,1-.092-.037.238.238,0,0,1-.055-.1.623.623,0,0,1-.022-.15c0-.038,0-.074,0-.108s0-.073,0-.117a1,1,0,0,1,.022-.177.827.827,0,0,1,.055-.165.6.6,0,0,1,.092-.143.491.491,0,0,1,.13-.108.254.254,0,0,1,.13-.042.12.12,0,0,1,.092.036.242.242,0,0,1,.056.1A.7.7,0,0,1,278.207,136.833Zm-.38.428a.238.238,0,0,0,.021.1c.01.019.029.021.058,0a.13.13,0,0,0,.059-.072.469.469,0,0,0,.019-.127,1.467,1.467,0,0,0,0-.2.252.252,0,0,0-.019-.1c-.011-.019-.03-.022-.059-.005a.128.128,0,0,0-.058.073.426.426,0,0,0-.021.126A1.843,1.843,0,0,0,277.827,137.261Z" transform="translate(-274.146 -135.495)" fill="#455a64"/>
                </g>
                <g id="Grupo_97158" data-name="Grupo 97158">
                  <path id="Trazado_148525" data-name="Trazado 148525" d="M275.717,132v-1.654a7.175,7.175,0,0,0-2.419,2.608l.633.976A5.308,5.308,0,0,1,275.717,132Z" transform="translate(-271.601 -129.916)" fill="#373660"/>
                  <path id="Trazado_148526" data-name="Trazado 148526" d="M279.365,132.4a3.4,3.4,0,0,0-1.5-2.3,2.4,2.4,0,0,0-2.419.186v1.654a1.77,1.77,0,0,1,1.785-.133,2.509,2.509,0,0,1,1.107,1.7,5.852,5.852,0,0,1,.149,1.36,8.358,8.358,0,0,1-.149,1.532,9.367,9.367,0,0,1-1.1,2.973,5.337,5.337,0,0,1-1.787,1.933,1.772,1.772,0,0,1-1.786.133,2.505,2.505,0,0,1-1.106-1.7,5.8,5.8,0,0,1-.15-1.361,8.279,8.279,0,0,1,.15-1.532,9.368,9.368,0,0,1,1.106-2.977l-.633-.976a12.711,12.711,0,0,0-1.5,4.031,11.318,11.318,0,0,0-.2,2.075,7.951,7.951,0,0,0,.2,1.842,3.4,3.4,0,0,0,1.5,2.3,2.4,2.4,0,0,0,2.419-.186,7.18,7.18,0,0,0,2.419-2.608v0a12.711,12.711,0,0,0,1.5-4.031,11.32,11.32,0,0,0,.2-2.075A7.94,7.94,0,0,0,279.365,132.4Z" transform="translate(-271.333 -129.848)" fill="#ff6d60"/>
                </g>
              </g>
              <path id="Trazado_148527" data-name="Trazado 148527" d="M287.822,125.788,307,114.714c.517-.3.936-.086.936.473a2.005,2.005,0,0,1-.936,1.552l-19.182,11.076c-.517.3-.935.086-.935-.473A2,2,0,0,1,287.822,125.788Z" transform="translate(-268.79 -93.652)" fill="#373660"/>
              <path id="Trazado_148528" data-name="Trazado 148528" d="M287.822,129.239l33.218-19.172c.516-.3.935-.086.935.473a2.006,2.006,0,0,1-.935,1.552l-33.218,19.173c-.517.3-.935.086-.935-.473A2.007,2.007,0,0,1,287.822,129.239Z" transform="translate(-268.79 -93.019)" fill="#e0e0e0"/>
            </g>
          </g>
          <g id="Grupo_97267" data-name="Grupo 97267" transform="translate(58.372 37.791)">
            <path id="Trazado_148529" data-name="Trazado 148529" d="M195.105,203.336l13.454-7.791c.517-.3.935-.086.935.473a2.005,2.005,0,0,1-.935,1.553L195.1,205.363c-.517.3-.935.086-.935-.473A2.005,2.005,0,0,1,195.105,203.336Z" transform="translate(-187.747 -135.048)" fill="#373660"/>
            <path id="Trazado_148530" data-name="Trazado 148530" d="M319.6,126.389h0m-.4.229V229.38a1.229,1.229,0,0,1-.5.872L187.6,305.94V203.178a1.224,1.224,0,0,1,.5-.872l1.639-.947a2.936,2.936,0,0,0,1.367-2.368v-5.944a1.227,1.227,0,0,1,.5-.872l18.821-10.863v5.524a1.412,1.412,0,0,0,1.382,1.532,1.692,1.692,0,0,0,.849-.244L319.2,126.618M210.828,181.085h0M319.55,125.53a.852.852,0,0,0-.418.128l-106.9,61.72a.852.852,0,0,1-.417.128c-.307,0-.518-.244-.518-.668v-5.944c0-.422-.21-.668-.517-.668a.852.852,0,0,0-.417.128l-19.182,11.075a2.069,2.069,0,0,0-.935,1.62v5.944a2.065,2.065,0,0,1-.935,1.62l-1.639.947a2.066,2.066,0,0,0-.935,1.62V306.359c0,.423.211.668.517.668a.838.838,0,0,0,.417-.128L319.133,231a2.066,2.066,0,0,0,.935-1.62V126.2c0-.422-.211-.668-.517-.668Z" transform="translate(-186.734 -125.53)" fill="#e0e0e0"/>
            <g id="Grupo_97163" data-name="Grupo 97163" transform="translate(7.506 68.927)">
              <path id="Trazado_148531" data-name="Trazado 148531" d="M196.371,218.532a.9.9,0,0,1-.459-.12,1.08,1.08,0,0,1-.49-.98v-3.917a2.511,2.511,0,0,1,1.151-1.994L207,205.511a.994.994,0,0,1,1.583.914v3.918a2.505,2.505,0,0,1-1.151,1.993l-10.425,6.012A1.285,1.285,0,0,1,196.371,218.532Zm.635-6.262a1.644,1.644,0,0,0-.72,1.246v3.917c0,.149.041.221.059.232s.1.009.229-.065L207,211.588a1.639,1.639,0,0,0,.72-1.245v-3.918c0-.148-.04-.22-.058-.231s-.1-.009-.23.065Z" transform="translate(-195.423 -205.326)" fill="#e0e0e0"/>
              <path id="Trazado_148532" data-name="Trazado 148532" d="M197.875,214.6l6.795-3.943c.344-.2.623-.057.623.315a1.336,1.336,0,0,1-.623,1.035l-6.8,3.943c-.344.2-.623.058-.623-.315A1.335,1.335,0,0,1,197.875,214.6Z" transform="translate(-195.672 -206.039)" fill="#e0e0e0"/>
              <g id="Grupo_97162" data-name="Grupo 97162" transform="translate(10.566 3.155)">
                <path id="Trazado_148533" data-name="Trazado 148533" d="M207.666,209.793l.563.8c.022.031.064.006.086-.049l.563-1.449c.027-.07,0-.135-.042-.109l-1.126.65A.137.137,0,0,0,207.666,209.793Z" transform="translate(-207.655 -208.978)" fill="#455a64"/>
              </g>
            </g>
            <g id="Grupo_97184" data-name="Grupo 97184" transform="translate(6.117 47.043)">
              <g id="Grupo_97182" data-name="Grupo 97182">
                <g id="Grupo_97164" data-name="Grupo 97164" transform="translate(0 72.928)">
                  <path id="Trazado_148534" data-name="Trazado 148534" d="M194.717,264.542c.5-.288.9-.054.9.521a2,2,0,0,1-.9,1.562c-.5.288-.9.054-.9-.521A1.992,1.992,0,0,1,194.717,264.542Z" transform="translate(-193.815 -264.418)" fill="#ff6d60"/>
                </g>
                <g id="Grupo_97165" data-name="Grupo 97165" transform="translate(7.017 64.825)">
                  <path id="Trazado_148535" data-name="Trazado 148535" d="M202.841,255.161c.5-.288.9-.054.9.521a1.994,1.994,0,0,1-.9,1.562c-.5.288-.9.054-.9-.521A1.993,1.993,0,0,1,202.841,255.161Z" transform="translate(-201.939 -255.037)" fill="#ff6d60"/>
                </g>
                <g id="Grupo_97166" data-name="Grupo 97166" transform="translate(14.035 60.774)">
                  <path id="Trazado_148536" data-name="Trazado 148536" d="M210.965,250.471c.5-.288.9-.054.9.52a1.992,1.992,0,0,1-.9,1.562c-.5.288-.9.054-.9-.52A1.992,1.992,0,0,1,210.965,250.471Z" transform="translate(-210.063 -250.347)" fill="#ff6d60"/>
                </g>
                <g id="Grupo_97167" data-name="Grupo 97167" transform="translate(21.052 58.501)">
                  <path id="Trazado_148537" data-name="Trazado 148537" d="M219.089,247.84c.5-.288.9-.054.9.521a1.994,1.994,0,0,1-.9,1.562c-.5.288-.9.054-.9-.521A1.993,1.993,0,0,1,219.089,247.84Z" transform="translate(-218.187 -247.716)" fill="#ff6d60"/>
                </g>
                <g id="Grupo_97168" data-name="Grupo 97168" transform="translate(28.078 51.205)">
                  <path id="Trazado_148538" data-name="Trazado 148538" d="M227.222,239.394c.5-.288.9-.054.9.52a1.991,1.991,0,0,1-.9,1.562c-.5.288-.9.054-.9-.52A1.994,1.994,0,0,1,227.222,239.394Z" transform="translate(-226.32 -239.27)" fill="#ff6d60"/>
                </g>
                <g id="Grupo_97169" data-name="Grupo 97169" transform="translate(35.087 48.619)">
                  <path id="Trazado_148539" data-name="Trazado 148539" d="M235.337,236.4c.5-.287.9-.054.9.521a1.992,1.992,0,0,1-.9,1.562c-.5.288-.9.054-.9-.521A2,2,0,0,1,235.337,236.4Z" transform="translate(-234.435 -236.276)" fill="#ff6d60"/>
                </g>
                <g id="Grupo_97170" data-name="Grupo 97170" transform="translate(42.104 40.515)">
                  <path id="Trazado_148540" data-name="Trazado 148540" d="M243.46,227.018c.5-.288.9-.054.9.521a1.993,1.993,0,0,1-.9,1.562c-.5.287-.9.054-.9-.521A1.992,1.992,0,0,1,243.46,227.018Z" transform="translate(-242.558 -226.894)" fill="#ff6d60"/>
                </g>
                <g id="Grupo_97171" data-name="Grupo 97171" transform="translate(49.122 38.49)">
                  <path id="Trazado_148541" data-name="Trazado 148541" d="M251.585,224.673c.5-.287.9-.054.9.521a1.992,1.992,0,0,1-.9,1.562c-.5.288-.9.054-.9-.521A2,2,0,0,1,251.585,224.673Z" transform="translate(-250.683 -224.55)" fill="#ff6d60"/>
                </g>
                <g id="Grupo_97172" data-name="Grupo 97172" transform="translate(56.14 16.206)">
                  <path id="Trazado_148542" data-name="Trazado 148542" d="M259.709,198.876c.5-.288.9-.054.9.521a1.993,1.993,0,0,1-.9,1.562c-.5.287-.9.054-.9-.521A1.994,1.994,0,0,1,259.709,198.876Z" transform="translate(-258.807 -198.752)" fill="#ff6d60"/>
                </g>
                <g id="Grupo_97173" data-name="Grupo 97173" transform="translate(63.158 28.361)">
                  <path id="Trazado_148543" data-name="Trazado 148543" d="M267.833,212.947c.5-.288.9-.054.9.521a1.992,1.992,0,0,1-.9,1.562c-.5.288-.9.054-.9-.521A1.993,1.993,0,0,1,267.833,212.947Z" transform="translate(-266.932 -212.823)" fill="#ff6d60"/>
                </g>
                <g id="Grupo_97174" data-name="Grupo 97174" transform="translate(70.175 28.361)">
                  <path id="Trazado_148544" data-name="Trazado 148544" d="M275.957,212.947c.5-.288.9-.054.9.521a1.992,1.992,0,0,1-.9,1.562c-.5.288-.9.054-.9-.521A1.993,1.993,0,0,1,275.957,212.947Z" transform="translate(-275.056 -212.823)" fill="#ff6d60"/>
                </g>
                <g id="Grupo_97175" data-name="Grupo 97175" transform="translate(77.193 28.361)">
                  <path id="Trazado_148545" data-name="Trazado 148545" d="M284.081,212.947c.5-.287.9-.054.9.521a1.992,1.992,0,0,1-.9,1.562c-.5.288-.9.054-.9-.521A1.994,1.994,0,0,1,284.081,212.947Z" transform="translate(-283.18 -212.824)" fill="#ff6d60"/>
                </g>
                <g id="Grupo_97176" data-name="Grupo 97176" transform="translate(84.21 16.206)">
                  <path id="Trazado_148546" data-name="Trazado 148546" d="M292.2,198.876c.5-.288.9-.054.9.521a1.993,1.993,0,0,1-.9,1.562c-.5.288-.9.054-.9-.521A1.994,1.994,0,0,1,292.2,198.876Z" transform="translate(-291.303 -198.752)" fill="#ff6d60"/>
                </g>
                <g id="Grupo_97177" data-name="Grupo 97177" transform="translate(91.227 13.878)">
                  <path id="Trazado_148547" data-name="Trazado 148547" d="M300.329,196.18c.5-.287.9-.054.9.521a1.992,1.992,0,0,1-.9,1.562c-.5.288-.9.054-.9-.521A2,2,0,0,1,300.329,196.18Z" transform="translate(-299.427 -196.057)" fill="#ff6d60"/>
                </g>
                <g id="Grupo_97178" data-name="Grupo 97178" transform="translate(98.269 4.052)">
                  <path id="Trazado_148548" data-name="Trazado 148548" d="M308.482,184.8c.5-.288.9-.054.9.52a1.994,1.994,0,0,1-.9,1.562c-.5.288-.9.054-.9-.52A1.99,1.99,0,0,1,308.482,184.8Z" transform="translate(-307.58 -184.681)" fill="#ff6d60"/>
                </g>
                <g id="Grupo_97179" data-name="Grupo 97179" transform="translate(104.889 3.743)">
                  <ellipse id="Elipse_4735" data-name="Elipse 4735" cx="1.275" cy="0.736" rx="1.275" ry="0.736" transform="translate(0 2.209) rotate(-60.003)" fill="#ff6d60"/>
                </g>
                <g id="Grupo_97180" data-name="Grupo 97180" transform="translate(111.907 3.743)">
                  <ellipse id="Elipse_4736" data-name="Elipse 4736" cx="1.275" cy="0.736" rx="1.275" ry="0.736" transform="translate(0 2.209) rotate(-60.003)" fill="#ff6d60"/>
                </g>
                <g id="Grupo_97181" data-name="Grupo 97181" transform="translate(119.298)">
                  <path id="Trazado_148549" data-name="Trazado 148549" d="M332.826,180.114c.5-.287.9-.054.9.521a1.994,1.994,0,0,1-.9,1.562c-.5.288-.9.054-.9-.521A1.993,1.993,0,0,1,332.826,180.114Z" transform="translate(-331.924 -179.991)" fill="#ff6d60"/>
                </g>
              </g>
              <g id="Grupo_97183" data-name="Grupo 97183" transform="translate(0.667 0.948)">
                <path id="Trazado_148550" data-name="Trazado 148550" d="M194.8,254.459a.216.216,0,0,1-.162-.358l7.086-8.142a.2.2,0,0,1,.055-.046l6.967-4.022,7.007-2.274,6.979-7.258a.226.226,0,0,1,.081-.053l6.967-2.566,6.982-8.063a.216.216,0,0,1,.1-.066l6.905-1.994,6.983-22.172a.215.215,0,0,1,.182-.15.222.222,0,0,1,.211.107L258.1,209.45l6.91-.01,6.876.01,6.954-12.047a.223.223,0,0,1,.119-.1L285.914,195l6.977-9.77a.216.216,0,0,1,.175-.09h13.977l6.968-4.023a.216.216,0,1,1,.216.374l-7.018,4.052a.215.215,0,0,1-.108.029H293.178l-6.954,9.736a.215.215,0,0,1-.107.079l-6.94,2.3L272.2,209.774a.218.218,0,0,1-.187.108h0l-7-.01-7.036.01h0a.218.218,0,0,1-.187-.108l-6.77-11.729-6.871,21.815A.218.218,0,0,1,244,220l-6.955,2.007-6.977,8.056a.232.232,0,0,1-.089.061l-6.971,2.569-6.983,7.26a.218.218,0,0,1-.09.055l-7.017,2.273-6.894,3.986-7.062,8.116A.219.219,0,0,1,194.8,254.459Z" transform="translate(-194.587 -181.088)" fill="#ff6d60"/>
              </g>
            </g>
            <g id="Grupo_97232" data-name="Grupo 97232" transform="translate(6.117 42.991)">
              <path id="Trazado_148551" data-name="Trazado 148551" d="M194.791,259.96a.432.432,0,0,1-.217-.806l119.3-68.876a.432.432,0,0,1,.432.748L195.006,259.9A.43.43,0,0,1,194.791,259.96Z" transform="translate(-193.889 -177.332)" fill="#e0e0e0"/>
              <g id="Grupo_97227" data-name="Grupo 97227">
                <g id="Grupo_97205" data-name="Grupo 97205">
                  <g id="Grupo_97203" data-name="Grupo 97203">
                    <g id="Grupo_97185" data-name="Grupo 97185" transform="translate(0 72.928)">
                      <path id="Trazado_148552" data-name="Trazado 148552" d="M194.717,259.852c.5-.288.9-.055.9.52a1.994,1.994,0,0,1-.9,1.562c-.5.288-.9.054-.9-.52A1.991,1.991,0,0,1,194.717,259.852Z" transform="translate(-193.815 -259.728)" fill="#ffa648"/>
                    </g>
                    <g id="Grupo_97186" data-name="Grupo 97186" transform="translate(7.017 60.773)">
                      <path id="Trazado_148553" data-name="Trazado 148553" d="M202.84,245.78c.5-.288.9-.054.9.521a1.993,1.993,0,0,1-.9,1.562c-.5.288-.9.054-.9-.521A1.993,1.993,0,0,1,202.84,245.78Z" transform="translate(-201.939 -245.656)" fill="#ffa648"/>
                    </g>
                    <g id="Grupo_97187" data-name="Grupo 97187" transform="translate(13.661 58.948)">
                      <ellipse id="Elipse_4737" data-name="Elipse 4737" cx="1.275" cy="0.736" rx="1.275" ry="0.736" transform="translate(0 2.209) rotate(-60.003)" fill="#ffa648"/>
                    </g>
                    <g id="Grupo_97188" data-name="Grupo 97188" transform="translate(21.052 44.567)">
                      <path id="Trazado_148554" data-name="Trazado 148554" d="M219.088,227.018c.5-.288.9-.054.9.521a1.994,1.994,0,0,1-.9,1.562c-.5.287-.9.054-.9-.521A1.993,1.993,0,0,1,219.088,227.018Z" transform="translate(-218.187 -226.894)" fill="#ffa648"/>
                    </g>
                    <g id="Grupo_97189" data-name="Grupo 97189" transform="translate(28.078 48.619)">
                      <path id="Trazado_148555" data-name="Trazado 148555" d="M227.222,231.709c.5-.288.9-.054.9.521a1.992,1.992,0,0,1-.9,1.562c-.5.288-.9.054-.9-.521A1.994,1.994,0,0,1,227.222,231.709Z" transform="translate(-226.32 -231.585)" fill="#ffa648"/>
                    </g>
                    <g id="Grupo_97190" data-name="Grupo 97190" transform="translate(35.089 46.593)">
                      <path id="Trazado_148556" data-name="Trazado 148556" d="M235.338,229.364c.5-.288.9-.054.9.521a1.993,1.993,0,0,1-.9,1.562c-.5.287-.9.054-.9-.521A1.993,1.993,0,0,1,235.338,229.364Z" transform="translate(-234.437 -229.24)" fill="#ffa648"/>
                    </g>
                    <g id="Grupo_97191" data-name="Grupo 97191" transform="translate(42.104 40.515)">
                      <path id="Trazado_148557" data-name="Trazado 148557" d="M243.46,222.328c.5-.288.9-.054.9.521a1.993,1.993,0,0,1-.9,1.562c-.5.288-.9.054-.9-.521A1.992,1.992,0,0,1,243.46,222.328Z" transform="translate(-242.558 -222.204)" fill="#ffa648"/>
                    </g>
                    <g id="Grupo_97192" data-name="Grupo 97192" transform="translate(49.122 32.412)">
                      <path id="Trazado_148558" data-name="Trazado 148558" d="M251.585,212.947c.5-.288.9-.054.9.521a1.994,1.994,0,0,1-.9,1.562c-.5.288-.9.054-.9-.521A1.992,1.992,0,0,1,251.585,212.947Z" transform="translate(-250.683 -212.823)" fill="#ffa648"/>
                    </g>
                    <g id="Grupo_97193" data-name="Grupo 97193" transform="translate(56.14 30.387)">
                      <path id="Trazado_148559" data-name="Trazado 148559" d="M259.709,210.6c.5-.288.9-.054.9.521a1.992,1.992,0,0,1-.9,1.562c-.5.288-.9.054-.9-.521A1.994,1.994,0,0,1,259.709,210.6Z" transform="translate(-258.807 -210.478)" fill="#ffa648"/>
                    </g>
                    <g id="Grupo_97194" data-name="Grupo 97194" transform="translate(63.157 24.309)">
                      <path id="Trazado_148560" data-name="Trazado 148560" d="M267.833,203.566c.5-.287.9-.054.9.521a1.994,1.994,0,0,1-.9,1.562c-.5.288-.9.054-.9-.521A1.993,1.993,0,0,1,267.833,203.566Z" transform="translate(-266.931 -203.443)" fill="#ffa648"/>
                    </g>
                    <g id="Grupo_97195" data-name="Grupo 97195" transform="translate(70.175 24.31)">
                      <path id="Trazado_148561" data-name="Trazado 148561" d="M275.957,203.567c.5-.288.9-.054.9.52a1.994,1.994,0,0,1-.9,1.562c-.5.288-.9.054-.9-.52A1.99,1.99,0,0,1,275.957,203.567Z" transform="translate(-275.055 -203.443)" fill="#ffa648"/>
                    </g>
                    <g id="Grupo_97196" data-name="Grupo 97196" transform="translate(77.193 8.103)">
                      <path id="Trazado_148562" data-name="Trazado 148562" d="M284.081,184.8c.5-.288.9-.054.9.52a1.99,1.99,0,0,1-.9,1.562c-.5.288-.9.054-.9-.52A1.993,1.993,0,0,1,284.081,184.8Z" transform="translate(-283.18 -184.681)" fill="#ffa648"/>
                    </g>
                    <g id="Grupo_97197" data-name="Grupo 97197" transform="translate(84.21 16.149)">
                      <path id="Trazado_148563" data-name="Trazado 148563" d="M292.2,194.119c.5-.288.9-.054.9.521a1.993,1.993,0,0,1-.9,1.562c-.5.287-.9.054-.9-.521A1.993,1.993,0,0,1,292.2,194.119Z" transform="translate(-291.304 -193.995)" fill="#ffa648"/>
                    </g>
                    <g id="Grupo_97198" data-name="Grupo 97198" transform="translate(91.227 8.103)">
                      <path id="Trazado_148564" data-name="Trazado 148564" d="M300.329,184.8c.5-.288.9-.054.9.52a1.993,1.993,0,0,1-.9,1.563c-.5.287-.9.054-.9-.521A1.994,1.994,0,0,1,300.329,184.8Z" transform="translate(-299.427 -184.681)" fill="#ffa648"/>
                    </g>
                    <g id="Grupo_97199" data-name="Grupo 97199" transform="translate(98.244 4.052)">
                      <path id="Trazado_148565" data-name="Trazado 148565" d="M308.453,180.114c.5-.287.9-.054.9.521a1.992,1.992,0,0,1-.9,1.562c-.5.288-.9.054-.9-.521A2,2,0,0,1,308.453,180.114Z" transform="translate(-307.551 -179.991)" fill="#ffa648"/>
                    </g>
                    <g id="Grupo_97200" data-name="Grupo 97200" transform="translate(105.262 4.051)">
                      <path id="Trazado_148566" data-name="Trazado 148566" d="M316.577,180.114c.5-.288.9-.054.9.521a1.993,1.993,0,0,1-.9,1.562c-.5.288-.9.054-.9-.521A1.994,1.994,0,0,1,316.577,180.114Z" transform="translate(-315.675 -179.99)" fill="#ffa648"/>
                    </g>
                    <g id="Grupo_97201" data-name="Grupo 97201" transform="translate(112.28)">
                      <path id="Trazado_148567" data-name="Trazado 148567" d="M324.7,175.424c.5-.288.9-.054.9.52a1.993,1.993,0,0,1-.9,1.562c-.5.288-.9.054-.9-.52A1.992,1.992,0,0,1,324.7,175.424Z" transform="translate(-323.8 -175.3)" fill="#ffa648"/>
                    </g>
                    <g id="Grupo_97202" data-name="Grupo 97202" transform="translate(119.298)">
                      <path id="Trazado_148568" data-name="Trazado 148568" d="M332.826,175.424c.5-.288.9-.054.9.52a1.993,1.993,0,0,1-.9,1.562c-.5.288-.9.054-.9-.52A1.992,1.992,0,0,1,332.826,175.424Z" transform="translate(-331.924 -175.3)" fill="#ffa648"/>
                    </g>
                  </g>
                  <g id="Grupo_97204" data-name="Grupo 97204" transform="translate(0.686 0.948)">
                    <path id="Trazado_148569" data-name="Trazado 148569" d="M194.825,249.758a.2.2,0,0,1-.108-.029.215.215,0,0,1-.079-.295l7.068-12.184a.211.211,0,0,1,.142-.1l6.863-1.466,6.972-14.594a.216.216,0,0,1,.3-.094L222.931,225l6.876-1.992,6.972-6.041,7.005-8.087a.211.211,0,0,1,.1-.066l6.973-2.013,6.981-6.046a.215.215,0,0,1,.142-.053h6.876l6.961-16.076a.215.215,0,0,1,.165-.128.219.219,0,0,1,.2.072l6.853,7.915,6.854-7.915a.2.2,0,0,1,.055-.045l7.043-4.066a.216.216,0,0,1,.108-.029h6.959L307,176.427a.216.216,0,0,1,.108-.029h7.018a.216.216,0,0,1,0,.432h-6.96l-6.943,4.008a.216.216,0,0,1-.108.029h-6.96l-6.961,4.018-6.992,8.076a.224.224,0,0,1-.327,0l-6.792-7.843L265.2,201.009a.216.216,0,0,1-.2.13h-6.937l-6.956,6.024a.22.22,0,0,1-.081.045l-6.957,2.007-6.985,8.06-7.03,6.094a.2.2,0,0,1-.082.044l-7.01,2.031a.218.218,0,0,1-.168-.021l-6.823-3.94-6.916,14.48a.219.219,0,0,1-.15.117l-6.874,1.468-7.019,12.1A.215.215,0,0,1,194.825,249.758Z" transform="translate(-194.609 -176.398)" fill="#ffa648"/>
                  </g>
                </g>
              </g>
              <g id="Grupo_97229" data-name="Grupo 97229" transform="translate(0 38.954)">
                <path id="Trazado_148588" data-name="Trazado 148588" d="M199.016,224.43l6.795-3.943c.345-.2.624-.057.624.315a1.335,1.335,0,0,1-.624,1.035l-6.795,3.943c-.344.2-.623.058-.623-.315A1.338,1.338,0,0,1,199.016,224.43Z" transform="translate(-194.439 -220.397)" fill="#e0e0e0"/>
                <g id="Grupo_97228" data-name="Grupo 97228" transform="translate(0 5.613)">
                  <path id="Trazado_148589" data-name="Trazado 148589" d="M194.717,227.019c.5-.288.9-.054.9.52a1.992,1.992,0,0,1-.9,1.562c-.5.288-.9.054-.9-.52A1.992,1.992,0,0,1,194.717,227.019Z" transform="translate(-193.815 -226.895)" fill="#ff6d60"/>
                </g>
              </g>
              <g id="Grupo_97231" data-name="Grupo 97231" transform="translate(0 42.995)">
                <path id="Trazado_148591" data-name="Trazado 148591" d="M199.016,229.108l6.795-3.943c.345-.2.624-.057.624.315a1.335,1.335,0,0,1-.624,1.035l-6.795,3.943c-.344.2-.623.057-.623-.315A1.336,1.336,0,0,1,199.016,229.108Z" transform="translate(-194.439 -225.075)" fill="#e0e0e0"/>
                <g id="Grupo_97230" data-name="Grupo 97230" transform="translate(0 5.624)">
                  <path id="Trazado_148592" data-name="Trazado 148592" d="M194.717,231.709c.5-.288.9-.054.9.521a2,2,0,0,1-.9,1.562c-.5.287-.9.054-.9-.521A1.992,1.992,0,0,1,194.717,231.709Z" transform="translate(-193.815 -231.585)" fill="#ffa648"/>
                </g>
              </g>
            </g>
            <g id="Grupo_97255" data-name="Grupo 97255" transform="translate(6.803 99.847)">
              <g id="Grupo_97237" data-name="Grupo 97237" transform="translate(0 24.359)">
                <g id="Grupo_97233" data-name="Grupo 97233" transform="translate(0 0.823)">
                  <path id="Trazado_148593" data-name="Trazado 148593" d="M194.825,290.964a.216.216,0,0,1-.155-.366l3.561-3.662,3.5-.443,3.529-4.561,3.534.485,3.434-3.1,3.5-2.1,3.574-4.953,3.548,1.113,3.41-3.047a.216.216,0,0,1,.288.322l-3.594,3.211-3.485-1.093-3.482,4.795-3.509,2.1-3.549,3.21-3.485-.479-3.487,4.506-3.523.446L194.98,290.9A.22.22,0,0,1,194.825,290.964Z" transform="translate(-194.609 -270.274)" fill="#ff6d60"/>
                </g>
                <g id="Grupo_97234" data-name="Grupo 97234" transform="translate(0.458 3.607)">
                  <path id="Trazado_148594" data-name="Trazado 148594" d="M196.284,280.161a1.017,1.017,0,0,1,.09-.079.788.788,0,0,1,.1-.066,1.024,1.024,0,0,1,.531-.161.645.645,0,0,1,.422.16,1.02,1.02,0,0,1,.276.445,2.143,2.143,0,0,1,.1.694,3.357,3.357,0,0,1-.1.808,3.764,3.764,0,0,1-.276.765,3.173,3.173,0,0,1-.422.647,2.038,2.038,0,0,1-.531.453,1.025,1.025,0,0,1-.532.161.645.645,0,0,1-.421-.161,1.018,1.018,0,0,1-.277-.444,2.112,2.112,0,0,1-.1-.694,3.014,3.014,0,0,1,.033-.446,4.043,4.043,0,0,1,.088-.422c.036-.137.076-.272.121-.4s.088-.257.133-.377l.935-2.66c.016-.035.036-.079.056-.131a.244.244,0,0,1,.1-.118l.294-.168a.052.052,0,0,1,.074.009.161.161,0,0,1,.029.106.261.261,0,0,1-.009.067.307.307,0,0,1-.018.05Zm-.657,2.246a1.345,1.345,0,0,0,.059.416.682.682,0,0,0,.167.283.4.4,0,0,0,.264.112.644.644,0,0,0,.352-.1,1.3,1.3,0,0,0,.352-.3,1.967,1.967,0,0,0,.264-.418,2.452,2.452,0,0,0,.168-.476,2.089,2.089,0,0,0,.058-.484,1.356,1.356,0,0,0-.058-.417.689.689,0,0,0-.168-.283.4.4,0,0,0-.264-.111.642.642,0,0,0-.352.1,1.317,1.317,0,0,0-.352.3,2,2,0,0,0-.264.417,2.469,2.469,0,0,0-.167.476A2.116,2.116,0,0,0,195.627,282.407Z" transform="translate(-195.139 -274.104)" fill="#455a64"/>
                  <path id="Trazado_148595" data-name="Trazado 148595" d="M199.153,280.811a1.043,1.043,0,0,0,.072.211.286.286,0,0,0,.138.145.414.414,0,0,0,.244.022,1.266,1.266,0,0,0,.393-.163,1.459,1.459,0,0,0,.3-.235,1.524,1.524,0,0,0,.252-.33,1.822,1.822,0,0,0,.171-.412,1.729,1.729,0,0,0,.065-.484,1.031,1.031,0,0,0-.061-.4.34.34,0,0,0-.168-.187.393.393,0,0,0-.249-.011,1.291,1.291,0,0,0-.313.133l-.427.246a.073.073,0,0,1-.1-.006.172.172,0,0,1-.041-.127v-.283a.415.415,0,0,1,.029-.148c.019-.05.037-.1.054-.138l.923-2.068-1.478.854a.074.074,0,0,1-.1-.007.17.17,0,0,1-.041-.127v-.283a.407.407,0,0,1,.041-.174.256.256,0,0,1,.1-.12l2.023-1.168a.075.075,0,0,1,.1.007.17.17,0,0,1,.04.126v.284a.509.509,0,0,1-.025.154,1.314,1.314,0,0,1-.067.168l-.909,2.035a1.084,1.084,0,0,1,.47-.149.53.53,0,0,1,.365.113.794.794,0,0,1,.236.369,1.922,1.922,0,0,1,.086.619,2.985,2.985,0,0,1-.1.783,3.249,3.249,0,0,1-.275.7,2.9,2.9,0,0,1-.405.57,2.131,2.131,0,0,1-.5.405,1.524,1.524,0,0,1-.593.219.613.613,0,0,1-.41-.087.648.648,0,0,1-.242-.311,1.351,1.351,0,0,1-.086-.46.318.318,0,0,1,.035-.143.2.2,0,0,1,.079-.1l.236-.137c.038-.022.068-.022.09,0A.158.158,0,0,1,199.153,280.811Z" transform="translate(-195.62 -273.776)" fill="#455a64"/>
                  <path id="Trazado_148596" data-name="Trazado 148596" d="M202.689,278.768a1.136,1.136,0,0,0,.072.212.3.3,0,0,0,.139.145.4.4,0,0,0,.244.02,1.2,1.2,0,0,0,.393-.163,1.449,1.449,0,0,0,.3-.233,1.541,1.541,0,0,0,.251-.331,1.852,1.852,0,0,0,.172-.411,1.734,1.734,0,0,0,.065-.484,1.02,1.02,0,0,0-.062-.4.336.336,0,0,0-.167-.187.388.388,0,0,0-.249-.01,1.186,1.186,0,0,0-.313.133l-.427.246a.075.075,0,0,1-.1-.007.168.168,0,0,1-.041-.126v-.285a.4.4,0,0,1,.029-.147c.018-.05.036-.1.054-.138l.923-2.067-1.478.854a.078.078,0,0,1-.1-.007.174.174,0,0,1-.041-.127v-.285a.417.417,0,0,1,.041-.174.278.278,0,0,1,.1-.12l2.022-1.167a.074.074,0,0,1,.1.007.171.171,0,0,1,.041.126v.284a.523.523,0,0,1-.025.153,1.335,1.335,0,0,1-.067.17l-.909,2.035a1.072,1.072,0,0,1,.469-.149.528.528,0,0,1,.365.114.776.776,0,0,1,.236.369,1.919,1.919,0,0,1,.086.619,3,3,0,0,1-.1.783,3.25,3.25,0,0,1-.275.7,2.78,2.78,0,0,1-.406.569,2.069,2.069,0,0,1-.495.405,1.484,1.484,0,0,1-.593.219.615.615,0,0,1-.411-.086.659.659,0,0,1-.242-.311,1.34,1.34,0,0,1-.084-.46.316.316,0,0,1,.034-.143.215.215,0,0,1,.079-.1l.237-.136c.038-.022.068-.021.09,0A.166.166,0,0,1,202.689,278.768Z" transform="translate(-196.102 -273.497)" fill="#455a64"/>
                </g>
                <g id="Grupo_97235" data-name="Grupo 97235" transform="translate(0.227 6.641)">
                  <path id="Trazado_148597" data-name="Trazado 148597" d="M195.5,294.671,225.817,277.1c.344-.2.623-.058.623.315a1.338,1.338,0,0,1-.623,1.035l-30.322,17.571c-.344.2-.623.057-.623-.315A1.335,1.335,0,0,1,195.5,294.671Z" transform="translate(-194.872 -277.01)" fill="#e0e0e0"/>
                </g>
                <g id="Grupo_97236" data-name="Grupo 97236" transform="translate(0.227)">
                  <path id="Trazado_148598" data-name="Trazado 148598" d="M195.5,273.355l6.795-3.943c.344-.2.623-.058.623.315a1.337,1.337,0,0,1-.623,1.035l-6.8,3.943c-.344.2-.623.057-.623-.315A1.335,1.335,0,0,1,195.5,273.355Z" transform="translate(-194.872 -269.322)" fill="#e0e0e0"/>
                </g>
              </g>
              <g id="Grupo_97243" data-name="Grupo 97243" transform="translate(0 46.543)">
                <g id="Grupo_97238" data-name="Grupo 97238">
                  <path id="Trazado_148599" data-name="Trazado 148599" d="M194.825,318.621a.215.215,0,0,1-.15-.06.218.218,0,0,1-.005-.306l3.561-3.662,3.519-.446,3.544-3.1,3.415-.931,3.561-7.09,3.572,1.749,3.444-3.035.059-.012,3.42-.649,3.452-5.97a.216.216,0,1,1,.374.216l-3.551,6.142-3.555.675-3.573,3.148-3.447-1.688-3.455,6.881-3.554.968-3.522,3.106-3.5.444-3.455,3.552A.216.216,0,0,1,194.825,318.621Z" transform="translate(-194.609 -295.004)" fill="#ffc967"/>
                </g>
                <g id="Grupo_97240" data-name="Grupo 97240" transform="translate(0.341 6.559)">
                  <path id="Trazado_148601" data-name="Trazado 148601" d="M196.671,311.555a.4.4,0,0,1-.041.174.257.257,0,0,1-.1.12l-.211.121a.074.074,0,0,1-.1-.006.169.169,0,0,1-.041-.127v-4.356l-.832,1.453a.2.2,0,0,1-.1.107.08.08,0,0,1-.093-.026l-.122-.174a.2.2,0,0,1-.029-.143.415.415,0,0,1,.054-.172l1.1-1.932a.355.355,0,0,1,.082-.1.8.8,0,0,1,.082-.055l.211-.121a.074.074,0,0,1,.1.006.169.169,0,0,1,.041.127Z" transform="translate(-195.004 -303.102)" fill="#455a64"/>
                  <path id="Trazado_148602" data-name="Trazado 148602" d="M199.277,307.346a3.243,3.243,0,0,0,.231-.568,2.228,2.228,0,0,0,.077-.621.94.94,0,0,0-.159-.609c-.105-.125-.274-.122-.5.011a1.126,1.126,0,0,0-.306.254,1.585,1.585,0,0,0-.211.339,2.247,2.247,0,0,0-.133.394c-.032.137-.06.276-.08.414a.481.481,0,0,1-.054.165.235.235,0,0,1-.079.092l-.238.137a.062.062,0,0,1-.079-.005.145.145,0,0,1-.033-.1,2.964,2.964,0,0,1,.087-.644,3.559,3.559,0,0,1,.236-.682,3.2,3.2,0,0,1,.377-.621,1.781,1.781,0,0,1,.511-.454.942.942,0,0,1,.5-.153.515.515,0,0,1,.359.156.93.93,0,0,1,.219.411,2.294,2.294,0,0,1,.075.614,4.042,4.042,0,0,1-.027.473,2.879,2.879,0,0,1-.084.44,4.035,4.035,0,0,1-.152.448q-.092.227-.226.485l-1.145,2.305,1.57-.906a.075.075,0,0,1,.1.006.172.172,0,0,1,.041.127v.284a.41.41,0,0,1-.041.174.267.267,0,0,1-.1.12l-2.212,1.277a.072.072,0,0,1-.1-.006.166.166,0,0,1-.042-.127v-.283a.5.5,0,0,1,.027-.166,1.559,1.559,0,0,1,.087-.2Z" transform="translate(-195.366 -302.883)" fill="#455a64"/>
                  <path id="Trazado_148603" data-name="Trazado 148603" d="M203.82,304.193q.005.352.005.665c0,.208,0,.431-.005.671a5.342,5.342,0,0,1-.086.906,3.894,3.894,0,0,1-.238.828,2.828,2.828,0,0,1-.4.692,2.021,2.021,0,0,1-.583.5,1,1,0,0,1-.582.17.565.565,0,0,1-.4-.225,1.348,1.348,0,0,1-.239-.554,3.868,3.868,0,0,1-.085-.809c0-.236-.005-.457-.005-.665s0-.432.005-.671a5.442,5.442,0,0,1,.085-.907,3.917,3.917,0,0,1,.239-.829,2.9,2.9,0,0,1,.4-.694,2.021,2.021,0,0,1,.582-.508.971.971,0,0,1,.583-.165.586.586,0,0,1,.4.229,1.348,1.348,0,0,1,.238.554A3.8,3.8,0,0,1,203.82,304.193Zm-2.136,2.57a1.619,1.619,0,0,0,.219.98c.138.157.342.158.608,0a1.454,1.454,0,0,0,.609-.707,3.192,3.192,0,0,0,.218-1.232c0-.24.005-.463.005-.672s0-.43-.005-.664a1.633,1.633,0,0,0-.218-.986c-.139-.159-.341-.162-.609-.009a1.462,1.462,0,0,0-.608.712,3.234,3.234,0,0,0-.219,1.237c0,.238,0,.462,0,.671S201.681,306.527,201.684,306.763Z" transform="translate(-195.848 -302.597)" fill="#455a64"/>
                </g>
                <g id="Grupo_97241" data-name="Grupo 97241" transform="translate(0.227 8.745)">
                  <path id="Trazado_148604" data-name="Trazado 148604" d="M195.5,322.788l30.321-17.57c.344-.2.623-.058.623.315a1.338,1.338,0,0,1-.623,1.035l-30.322,17.57c-.344.2-.623.058-.623-.315A1.336,1.336,0,0,1,195.5,322.788Z" transform="translate(-194.872 -305.128)" fill="#e0e0e0"/>
                </g>
                <g id="Grupo_97242" data-name="Grupo 97242" transform="translate(0.227 2.104)">
                  <path id="Trazado_148605" data-name="Trazado 148605" d="M195.5,301.473l6.795-3.943c.344-.2.623-.058.623.315a1.337,1.337,0,0,1-.623,1.035l-6.8,3.943c-.344.2-.623.057-.623-.316A1.335,1.335,0,0,1,195.5,301.473Z" transform="translate(-194.872 -297.44)" fill="#e0e0e0"/>
                </g>
              </g>
              <g id="Grupo_97248" data-name="Grupo 97248" transform="translate(42.105)">
                <g id="Grupo_97244" data-name="Grupo 97244" transform="translate(0 0.823)">
                  <path id="Trazado_148606" data-name="Trazado 148606" d="M243.569,262.765a.216.216,0,0,1-.135-.385l3.509-2.8,3.534-4.037,3.587-.519,3.422-.773,3.542-4.184,3.487.617,3.5-5.538,3.554.057L275,242.129a.216.216,0,0,1,.289.322l-3.564,3.186-3.48-.057-3.522,5.578-3.529-.624-3.475,4.1-3.58.808-3.446.5-3.455,3.943-3.537,2.826A.213.213,0,0,1,243.569,262.765Z" transform="translate(-243.354 -242.075)" fill="#ffa648"/>
                </g>
                <g id="Grupo_97245" data-name="Grupo 97245" transform="translate(0.457 3.737)">
                  <path id="Trazado_148607" data-name="Trazado 148607" d="M245.029,251.961a.887.887,0,0,1,.089-.079.7.7,0,0,1,.1-.066,1.016,1.016,0,0,1,.531-.161.645.645,0,0,1,.422.16,1.022,1.022,0,0,1,.276.444,2.15,2.15,0,0,1,.1.694,3.365,3.365,0,0,1-.1.809,3.783,3.783,0,0,1-.276.765,3.173,3.173,0,0,1-.422.647,2.055,2.055,0,0,1-.531.453,1.033,1.033,0,0,1-.532.161.646.646,0,0,1-.421-.161,1.016,1.016,0,0,1-.277-.445,2.126,2.126,0,0,1-.1-.693,2.9,2.9,0,0,1,.034-.446,3.843,3.843,0,0,1,.087-.422c.036-.137.076-.272.121-.4s.088-.257.133-.378l.935-2.659c.017-.035.036-.079.057-.131a.232.232,0,0,1,.1-.118l.294-.168a.05.05,0,0,1,.073.009.161.161,0,0,1,.029.106.262.262,0,0,1-.009.067.3.3,0,0,1-.018.049Zm-.658,2.245a1.347,1.347,0,0,0,.059.417.688.688,0,0,0,.168.283.4.4,0,0,0,.263.112.644.644,0,0,0,.352-.1,1.3,1.3,0,0,0,.352-.3,1.99,1.99,0,0,0,.264-.418,2.473,2.473,0,0,0,.168-.476,2.1,2.1,0,0,0,.058-.485,1.354,1.354,0,0,0-.058-.416.683.683,0,0,0-.168-.283.4.4,0,0,0-.264-.111.643.643,0,0,0-.352.1,1.317,1.317,0,0,0-.352.3,1.974,1.974,0,0,0-.263.417,2.468,2.468,0,0,0-.168.476A2.113,2.113,0,0,0,244.371,254.206Z" transform="translate(-243.883 -246.035)" fill="#455a64"/>
                  <path id="Trazado_148608" data-name="Trazado 148608" d="M249.073,250.42a3.3,3.3,0,0,0,.231-.568,2.256,2.256,0,0,0,.077-.621.947.947,0,0,0-.159-.609c-.106-.124-.275-.122-.5.011a1.144,1.144,0,0,0-.306.255,1.5,1.5,0,0,0-.21.339,2.182,2.182,0,0,0-.134.394c-.033.136-.06.276-.079.414a.494.494,0,0,1-.054.165.247.247,0,0,1-.08.093l-.236.136a.063.063,0,0,1-.08-.005.142.142,0,0,1-.033-.1,3.019,3.019,0,0,1,.087-.644,3.592,3.592,0,0,1,.236-.681,3.164,3.164,0,0,1,.378-.622,1.763,1.763,0,0,1,.51-.453.944.944,0,0,1,.5-.154.519.519,0,0,1,.359.157.939.939,0,0,1,.219.41,2.3,2.3,0,0,1,.074.614,4.042,4.042,0,0,1-.026.472,3.023,3.023,0,0,1-.085.441,3.7,3.7,0,0,1-.152.447c-.061.151-.137.314-.225.485l-1.145,2.306,1.569-.907a.076.076,0,0,1,.1.007.17.17,0,0,1,.04.126v.284a.4.4,0,0,1-.04.174.259.259,0,0,1-.1.12l-2.212,1.278a.074.074,0,0,1-.1-.007.167.167,0,0,1-.041-.127v-.283a.493.493,0,0,1,.026-.165,1.51,1.51,0,0,1,.087-.2Z" transform="translate(-244.37 -245.764)" fill="#455a64"/>
                  <path id="Trazado_148609" data-name="Trazado 148609" d="M253.02,245.463a.076.076,0,0,1,.1.007.173.173,0,0,1,.041.126v.285a.914.914,0,0,1-.016.159c-.01.059-.023.122-.041.19l-1.14,5.189a1.355,1.355,0,0,1-.053.161.229.229,0,0,1-.1.114l-.236.137a.065.065,0,0,1-.087-.005.153.153,0,0,1-.036-.113c0-.009,0-.023,0-.036a.553.553,0,0,1,.014-.068l1.145-5.2-1.684.973a.076.076,0,0,1-.1-.007.169.169,0,0,1-.041-.126v-.286a.408.408,0,0,1,.041-.174.264.264,0,0,1,.1-.119Z" transform="translate(-244.824 -245.448)" fill="#455a64"/>
                </g>
                <g id="Grupo_97246" data-name="Grupo 97246" transform="translate(0.228 6.64)">
                  <path id="Trazado_148610" data-name="Trazado 148610" d="M244.24,266.47,274.561,248.9c.345-.2.624-.057.624.315a1.335,1.335,0,0,1-.624,1.035L244.24,267.82c-.344.2-.623.058-.623-.315A1.338,1.338,0,0,1,244.24,266.47Z" transform="translate(-243.617 -248.809)" fill="#e0e0e0"/>
                </g>
                <g id="Grupo_97247" data-name="Grupo 97247" transform="translate(0.228)">
                  <path id="Trazado_148611" data-name="Trazado 148611" d="M244.24,245.154l6.795-3.942c.345-.2.624-.058.624.315a1.333,1.333,0,0,1-.624,1.034L244.24,246.5c-.344.2-.623.058-.623-.315A1.338,1.338,0,0,1,244.24,245.154Z" transform="translate(-243.617 -241.122)" fill="#e0e0e0"/>
                </g>
              </g>
              <g id="Grupo_97254" data-name="Grupo 97254" transform="translate(42.105 24.288)">
                <g id="Grupo_97249" data-name="Grupo 97249" transform="translate(0 0.835)">
                  <path id="Trazado_148612" data-name="Trazado 148612" d="M243.569,290.884a.216.216,0,0,1-.185-.328l3.587-5.882,3.606.668,3.395-.928,3.511-4.283,3.488-.879,3.546-6.319,3.624,1.052,3.408-.646,3.456-3.076a.213.213,0,0,1,.3.017.216.216,0,0,1-.017.3l-3.546,3.155-.058.012-3.568.676-3.394-.986-3.47,6.181-3.53.891-3.508,4.277-.066.018-3.556.972-.049-.008-3.361-.622-3.432,5.628A.218.218,0,0,1,243.569,290.884Z" transform="translate(-243.353 -270.207)" fill="#373660"/>
                </g>
                <g id="Grupo_97251" data-name="Grupo 97251" transform="translate(0.412 5.46)">
                  <path id="Trazado_148614" data-name="Trazado 148614" d="M245.257,281.748a.651.651,0,0,1-.072.053l-.066.043a1.044,1.044,0,0,1-.478.153.615.615,0,0,1-.41-.123.913.913,0,0,1-.29-.417,2.043,2.043,0,0,1-.111-.735,3.213,3.213,0,0,1,.1-.8,3.673,3.673,0,0,1,.28-.751,3.147,3.147,0,0,1,.411-.629,1.866,1.866,0,0,1,.495-.428,1.048,1.048,0,0,1,.536-.168.6.6,0,0,1,.406.157.98.98,0,0,1,.257.441,2.511,2.511,0,0,1,.048,1.113c-.027.15-.061.3-.1.451s-.086.3-.134.44-.093.276-.134.394l-.935,2.658c-.017.037-.035.08-.056.132a.224.224,0,0,1-.1.117l-.293.17a.052.052,0,0,1-.074-.009.17.17,0,0,1-.028-.106.261.261,0,0,1,.007-.067.226.226,0,0,1,.018-.05Zm.663-2.233a1.373,1.373,0,0,0-.06-.424.624.624,0,0,0-.164-.273.38.38,0,0,0-.255-.094.66.66,0,0,0-.323.1,1.238,1.238,0,0,0-.326.276,1.784,1.784,0,0,0-.252.387,2.185,2.185,0,0,0-.164.46,2.149,2.149,0,0,0-.059.493,1.358,1.358,0,0,0,.059.428.605.605,0,0,0,.164.27.376.376,0,0,0,.252.1.636.636,0,0,0,.326-.1,1.234,1.234,0,0,0,.323-.274,1.8,1.8,0,0,0,.255-.389,2.249,2.249,0,0,0,.164-.458A2.124,2.124,0,0,0,245.92,279.515Z" transform="translate(-243.83 -275.885)" fill="#455a64"/>
                  <path id="Trazado_148615" data-name="Trazado 148615" d="M247.718,280.831a1.077,1.077,0,0,0,.073.212.289.289,0,0,0,.138.144.407.407,0,0,0,.244.022,1.246,1.246,0,0,0,.393-.164,1.524,1.524,0,0,0,.555-.564,1.881,1.881,0,0,0,.171-.412,1.693,1.693,0,0,0,.065-.484,1.033,1.033,0,0,0-.061-.4.345.345,0,0,0-.168-.188.384.384,0,0,0-.25-.01,1.22,1.22,0,0,0-.312.133l-.427.246a.075.075,0,0,1-.1-.007.168.168,0,0,1-.041-.126v-.284a.415.415,0,0,1,.029-.148c.019-.051.036-.1.054-.138l.925-2.067-1.479.853a.073.073,0,0,1-.1-.007.168.168,0,0,1-.041-.126v-.284a.4.4,0,0,1,.041-.174.257.257,0,0,1,.1-.12l2.023-1.169a.076.076,0,0,1,.1.007.174.174,0,0,1,.041.127v.285a.541.541,0,0,1-.025.153,1.393,1.393,0,0,1-.068.169l-.908,2.034a1.076,1.076,0,0,1,.47-.149.526.526,0,0,1,.364.113.8.8,0,0,1,.238.37,1.97,1.97,0,0,1,.085.619,2.994,2.994,0,0,1-.1.783,3.206,3.206,0,0,1-.275.7,2.86,2.86,0,0,1-.405.569,2.112,2.112,0,0,1-.495.405,1.51,1.51,0,0,1-.594.219.618.618,0,0,1-.41-.087.644.644,0,0,1-.241-.31,1.326,1.326,0,0,1-.085-.461.346.346,0,0,1,.033-.143.218.218,0,0,1,.08-.1l.236-.136c.038-.022.067-.022.09,0A.155.155,0,0,1,247.718,280.831Z" transform="translate(-244.294 -275.561)" fill="#455a64"/>
                </g>
                <g id="Grupo_97252" data-name="Grupo 97252" transform="translate(0.228 6.64)">
                  <path id="Trazado_148616" data-name="Trazado 148616" d="M244.24,294.588l30.321-17.571c.345-.2.624-.057.624.315a1.335,1.335,0,0,1-.624,1.035L244.24,295.938c-.344.2-.623.058-.623-.315A1.336,1.336,0,0,1,244.24,294.588Z" transform="translate(-243.617 -276.927)" fill="#e0e0e0"/>
                </g>
                <g id="Grupo_97253" data-name="Grupo 97253" transform="translate(0.228)">
                  <path id="Trazado_148617" data-name="Trazado 148617" d="M244.24,273.272l6.795-3.942c.345-.2.624-.058.624.314a1.335,1.335,0,0,1-.624,1.035l-6.795,3.943c-.344.2-.623.058-.623-.315A1.338,1.338,0,0,1,244.24,273.272Z" transform="translate(-243.617 -269.24)" fill="#e0e0e0"/>
                </g>
              </g>
            </g>
            <g id="Grupo_97266" data-name="Grupo 97266" transform="translate(87.926 66.989)">
              <g id="Grupo_97260" data-name="Grupo 97260" transform="translate(0 14.233)">
                <g id="Grupo_97258" data-name="Grupo 97258">
                  <g id="Grupo_97257" data-name="Grupo 97257">
                    <g id="Grupo_97256" data-name="Grupo 97256">
                      <path id="Trazado_148618" data-name="Trazado 148618" d="M296.41,220.268a3.961,3.961,0,0,1,4-.3l-4,10.784Z" transform="translate(-289.599 -219.559)" fill="#ffc485"/>
                      <path id="Trazado_148619" data-name="Trazado 148619" d="M291.78,224.7a11.88,11.88,0,0,1,4-4.321v10.486Z" transform="translate(-288.968 -219.671)" fill="#ffa648"/>
                      <path id="Trazado_148620" data-name="Trazado 148620" d="M288.913,232.047a20.989,20.989,0,0,1,2.477-6.665l4,6.166Z" transform="translate(-288.578 -220.352)" fill="#ffa648"/>
                      <path id="Trazado_148622" data-name="Trazado 148622" d="M300.409,220.035a5.613,5.613,0,0,1,2.477,3.806l-6.476,6.979Z" transform="translate(-289.599 -219.624)" fill="#ffc485"/>
                      <path id="Trazado_148623" data-name="Trazado 148623" d="M288.86,239.5a13.042,13.042,0,0,1-.335-3.047,18.608,18.608,0,0,1,.335-3.433l6.476-.5Z" transform="translate(-288.525 -221.324)" fill="#ffc485"/>
                      <path id="Trazado_148624" data-name="Trazado 148624" d="M302.886,231.942a21.01,21.01,0,0,1-2.477,6.665l-4-6.166Z" transform="translate(-289.599 -221.245)" fill="#ffc485"/>
                      <path id="Trazado_148625" data-name="Trazado 148625" d="M295.779,243.006a3.963,3.963,0,0,1-4,.3l4-10.784Z" transform="translate(-288.968 -221.324)" fill="#ffc485"/>
                      <path id="Trazado_148626" data-name="Trazado 148626" d="M288.913,239.5l6.476-6.979-4,10.784A5.61,5.61,0,0,1,288.913,239.5Z" transform="translate(-288.578 -221.324)" fill="#ffc485"/>
                      <path id="Trazado_148627" data-name="Trazado 148627" d="M302.886,224.441a13.089,13.089,0,0,1,.335,3.047,18.692,18.692,0,0,1-.335,3.433l-6.476.5Z" transform="translate(-289.599 -220.224)" fill="#ffc485"/>
                      <path id="Trazado_148628" data-name="Trazado 148628" d="M300.409,238.686a11.9,11.9,0,0,1-4,4.321V232.52Z" transform="translate(-289.599 -221.324)" fill="#ffc485"/>
                    </g>
                  </g>
                </g>
                <g id="Grupo_97259" data-name="Grupo 97259" transform="translate(1.292 22.997)">
                  <path id="Trazado_148629" data-name="Trazado 148629" d="M292.379,250.215l6.795-3.943c.344-.2.623-.057.623.315a1.336,1.336,0,0,1-.623,1.035l-6.795,3.943c-.345.2-.624.057-.624-.315A1.335,1.335,0,0,1,292.379,250.215Z" transform="translate(-290.257 -246.182)" fill="#373660"/>
                  <path id="Trazado_148630" data-name="Trazado 148630" d="M290.644,255.647l9.792-5.68c.344-.2.623-.058.623.315a1.338,1.338,0,0,1-.623,1.035L290.644,257c-.344.2-.623.058-.623-.315A1.338,1.338,0,0,1,290.644,255.647Z" transform="translate(-290.021 -246.685)" fill="#e0e0e0"/>
                  <path id="Trazado_148631" data-name="Trazado 148631" d="M290.644,260.349l9.792-5.681c.344-.2.623-.058.623.315a1.336,1.336,0,0,1-.623,1.035l-9.792,5.681c-.344.2-.623.057-.623-.315A1.336,1.336,0,0,1,290.644,260.349Z" transform="translate(-290.021 -247.325)" fill="#e0e0e0"/>
                  <path id="Trazado_148632" data-name="Trazado 148632" d="M290.644,265.05l9.792-5.681c.344-.2.623-.057.623.315a1.336,1.336,0,0,1-.623,1.035l-9.792,5.681c-.344.2-.623.057-.623-.315A1.336,1.336,0,0,1,290.644,265.05Z" transform="translate(-290.021 -247.966)" fill="#e0e0e0"/>
                </g>
              </g>
              <g id="Grupo_97265" data-name="Grupo 97265" transform="translate(24.561)">
                <g id="Grupo_97263" data-name="Grupo 97263">
                  <g id="Grupo_97262" data-name="Grupo 97262">
                    <g id="Grupo_97261" data-name="Grupo 97261">
                      <path id="Trazado_148633" data-name="Trazado 148633" d="M324.844,203.791a3.96,3.96,0,0,1,4-.3l-4,10.784Z" transform="translate(-318.033 -203.082)" fill="#ff9e95"/>
                      <path id="Trazado_148634" data-name="Trazado 148634" d="M320.214,208.223a11.892,11.892,0,0,1,4-4.32v10.486Z" transform="translate(-317.402 -203.194)" fill="#ff6d60"/>
                      <path id="Trazado_148635" data-name="Trazado 148635" d="M317.347,215.569a21,21,0,0,1,2.477-6.665l4,6.166Z" transform="translate(-317.012 -203.875)" fill="#ff6d60"/>
                      <path id="Trazado_148636" data-name="Trazado 148636" d="M328.843,203.558a5.608,5.608,0,0,1,2.477,3.8l-6.476,6.979Z" transform="translate(-318.033 -203.147)" fill="#ff9e95"/>
                      <path id="Trazado_148637" data-name="Trazado 148637" d="M317.294,223.021a13.078,13.078,0,0,1-.335-3.046,18.688,18.688,0,0,1,.335-3.434l6.476-.5Z" transform="translate(-316.959 -204.847)" fill="#ff6d60"/>
                      <path id="Trazado_148638" data-name="Trazado 148638" d="M331.32,215.464a21,21,0,0,1-2.477,6.666l-4-6.167Z" transform="translate(-318.033 -204.768)" fill="#ff9e95"/>
                      <path id="Trazado_148639" data-name="Trazado 148639" d="M324.213,226.528a3.961,3.961,0,0,1-4,.3l4-10.784Z" transform="translate(-317.402 -204.847)" fill="#ff9e95"/>
                      <path id="Trazado_148640" data-name="Trazado 148640" d="M317.347,223.021l6.476-6.979-4,10.784A5.608,5.608,0,0,1,317.347,223.021Z" transform="translate(-317.012 -204.847)" fill="#ff6d60"/>
                      <path id="Trazado_148642" data-name="Trazado 148642" d="M331.32,207.963a13.047,13.047,0,0,1,.335,3.047,18.6,18.6,0,0,1-.335,3.433l-6.476.5Z" transform="translate(-318.033 -203.747)" fill="#ff9e95"/>
                      <path id="Trazado_148643" data-name="Trazado 148643" d="M328.843,222.209a11.891,11.891,0,0,1-4,4.32V216.042Z" transform="translate(-318.033 -204.847)" fill="#ff9e95"/>
                    </g>
                  </g>
                </g>
                <g id="Grupo_97264" data-name="Grupo 97264" transform="translate(1.292 23.049)">
                  <path id="Trazado_148644" data-name="Trazado 148644" d="M320.813,233.8l6.795-3.942c.344-.2.623-.058.623.315a1.338,1.338,0,0,1-.623,1.035l-6.795,3.942c-.345.2-.623.058-.623-.315A1.338,1.338,0,0,1,320.813,233.8Z" transform="translate(-318.691 -229.766)" fill="#373660"/>
                  <path id="Trazado_148645" data-name="Trazado 148645" d="M319.078,239.231l9.792-5.681c.344-.2.623-.057.623.315a1.336,1.336,0,0,1-.623,1.035l-9.792,5.681c-.344.2-.623.057-.623-.315A1.336,1.336,0,0,1,319.078,239.231Z" transform="translate(-318.455 -230.269)" fill="#e0e0e0"/>
                  <path id="Trazado_148646" data-name="Trazado 148646" d="M319.078,243.932l9.792-5.68c.344-.2.623-.058.623.315a1.336,1.336,0,0,1-.623,1.034l-9.792,5.681c-.344.2-.623.058-.623-.315A1.336,1.336,0,0,1,319.078,243.932Z" transform="translate(-318.455 -230.909)" fill="#e0e0e0"/>
                  <path id="Trazado_148647" data-name="Trazado 148647" d="M319.078,248.633l9.792-5.68c.344-.2.623-.058.623.315a1.338,1.338,0,0,1-.623,1.035l-9.792,5.68c-.344.2-.623.058-.623-.315A1.338,1.338,0,0,1,319.078,248.633Z" transform="translate(-318.455 -231.55)" fill="#e0e0e0"/>
                </g>
              </g>
            </g>
          </g>
        </g>
      </g>
    </g>
    <g id="Magnifying_Glass" data-name="Magnifying Glass" transform="translate(142.277 309.592)">
      <g id="Glass" transform="translate(0 0)">
        <g id="Grupo_97270" data-name="Grupo 97270" transform="translate(72.609)">
          <g id="Grupo_97269" data-name="Grupo 97269" transform="translate(9.671)">
            <path id="Trazado_148648" data-name="Trazado 148648" d="M315.484,365.1a11.53,11.53,0,0,0-4.911-9.206,3.681,3.681,0,0,0-3.637-.5l0,0c-5.779,2.9-46.391,28.943-48.988,30.225l-.033.017a1.852,1.852,0,0,0-.824,1.674,5.81,5.81,0,0,0,2.475,4.639,1.844,1.844,0,0,0,1.855.243l.037-.019c4.112-2.265,44.193-19.346,52.388-23.741h0l.005,0h0A3.673,3.673,0,0,0,315.484,365.1Z" transform="translate(-257.085 -355.105)" fill="#ff6d60"/>
            <path id="Trazado_148649" data-name="Trazado 148649" d="M313.887,359.485a10.4,10.4,0,0,0-3.314-3.591,3.687,3.687,0,0,0-3.628-.508c-.193.106-.252.141-.117.063-5.276,2.7-35.5,21.981-45.671,28.248l-.067.041-.411.253-.125.077-.232.142-.273.167-.02.012c-1.076.656-1.8,1.085-2.083,1.223l-.033.017a1.318,1.318,0,0,0-.239.184,2.038,2.038,0,0,0-.585,1.49,4.163,4.163,0,0,0,.029.582c.009.074.023.149.035.225.019.118.042.238.071.357.022.1.047.189.074.283.033.112.071.223.111.334.029.083.056.166.09.248.005.014.012.026.018.04Z" transform="translate(-257.085 -355.105)" opacity="0.1"/>
            <path id="Trazado_148650" data-name="Trazado 148650" d="M259.552,396.737a5.784,5.784,0,0,1-2.465-4.62c.056-1.67,1.25-2.307,2.667-1.424a5.786,5.786,0,0,1,2.465,4.62C262.163,396.981,260.969,397.619,259.552,396.737Z" transform="translate(-257.085 -359.898)" fill="#ff857b"/>
          </g>
          <path id="Trazado_148651" data-name="Trazado 148651" d="M245.891,398a4.448,4.448,0,0,0,1.893,3.55,1.416,1.416,0,0,0,1.411.19v0l.005,0h0l9.823-5.23.007,0h0a1.417,1.417,0,0,0,.628-1.278,4.448,4.448,0,0,0-1.894-3.55,1.414,1.414,0,0,0-1.417-.188h0l-9.822,5.229h0A1.409,1.409,0,0,0,245.891,398Z" transform="translate(-245.889 -360.044)" fill="#37474f"/>
          <path id="Trazado_148652" data-name="Trazado 148652" d="M246.529,396.717a1.409,1.409,0,0,0-.638,1.284,3.816,3.816,0,0,0,.3,1.515l12.668-6.758a3.821,3.821,0,0,0-1.088-1.081,1.414,1.414,0,0,0-1.417-.188l-9.822,5.229Z" transform="translate(-245.889 -360.044)" fill="#263238"/>
        </g>
        <g id="Grupo_97272" data-name="Grupo 97272" transform="translate(0 22.079)">
          <path id="Trazado_148653" data-name="Trazado 148653" d="M247.043,405.263c0-6.3-4.159-12.591-12.478-17.393-16.638-9.606-43.614-9.606-60.252,0-8.318,4.8-12.478,11.1-12.478,17.392h0v11.6c0,6.294,4.16,12.59,12.479,17.393,16.638,9.606,43.614,9.606,60.251,0,8.319-4.8,12.478-11.1,12.478-17.393v-11.6Zm-70.67-13.825c7.43-4.29,17.4-6.653,28.066-6.653s20.636,2.362,28.066,6.653c6.719,3.878,10.418,8.788,10.418,13.825s-3.7,9.946-10.418,13.824c-7.429,4.29-17.4,6.653-28.066,6.653s-20.635-2.362-28.066-6.653c-6.718-3.878-10.417-8.788-10.417-13.824S169.654,395.317,176.373,391.438Z" transform="translate(-161.831 -380.665)" fill="#ff857b"/>
          <g id="Grupo_97271" data-name="Grupo 97271" transform="translate(4.118 4.119)">
            <path id="Trazado_148655" data-name="Trazado 148655" d="M166.6,405.912a11.429,11.429,0,0,0,1.665,5.8c1.689-2.926,4.664-5.67,8.76-8.026,7.424-4.293,17.4-6.658,28.066-6.658s20.634,2.365,28.06,6.658c4.1,2.356,7.07,5.1,8.767,8.026a11.5,11.5,0,0,0,1.656-5.8c0-5.035-3.7-9.947-10.423-13.828-7.425-4.285-17.4-6.65-28.06-6.65s-20.642,2.365-28.066,6.65C170.3,395.965,166.6,400.877,166.6,405.912Z" transform="translate(-166.598 -385.434)" fill="#ff6d60"/>
          </g>
          <path id="Trazado_148657" data-name="Trazado 148657" d="M177.073,398.166c7.43-4.29,17.4-6.653,28.066-6.653s20.635,2.362,28.066,6.653c5.544,3.2,9.025,7.1,10.075,11.2-1.05,4.1-4.532,8-10.075,11.2-7.431,4.29-17.4,6.653-28.066,6.653s-20.636-2.363-28.066-6.653c-5.543-3.2-9.025-7.1-10.075-11.2C168.048,405.269,171.529,401.366,177.073,398.166Z" transform="translate(-162.535 -382.143)" fill="#fff" opacity="0.4"/>
          <path id="Trazado_148658" data-name="Trazado 148658" d="M194.4,432.455v11.586a55.777,55.777,0,0,1-20.082-6.51c-8.323-4.8-12.484-11.1-12.484-17.4V408.542a14.607,14.607,0,0,1,.511-3.8h.008c-2.019,7.49,1.969,15.418,11.965,21.194A55.935,55.935,0,0,0,194.4,432.455Z" transform="translate(-161.831 -383.945)" opacity="0.1"/>
        </g>
      </g>
    </g>
    <g id="Character" transform="translate(301.658 132.006)">
      <g id="Character-2" data-name="Character">
        <g id="Grupo_97279" data-name="Grupo 97279" transform="translate(30.233 78.711)">
          <g id="Grupo_97273" data-name="Grupo 97273" transform="translate(31.544 89.356)">
            <path id="Trazado_148659" data-name="Trazado 148659" d="M432.332,353.392c.5.2.612,1.176.644,3.1.026,1.459.281,4.01-1.437,4.48s-4.214.153-5.277-1.245c-1.327-1.746-2.216-3.275-4.117-5.412-1.65-1.853-3.44-3.587-4.065-6.148-.565-2.314-.029-3.3,1.555-3.934,2.179-.871,5.5,2.21,7.181,2.721C428.263,347.4,431.829,353.188,432.332,353.392Z" transform="translate(-417.862 -344.084)" fill="#263238"/>
          </g>
          <g id="Grupo_97274" data-name="Grupo 97274" transform="translate(39.478 95.877)">
            <path id="Trazado_148660" data-name="Trazado 148660" d="M433.624,352.638,433.57,355a5.79,5.79,0,0,1-5.979.027c-.1-.231-.544-3.4-.544-3.4Z" transform="translate(-427.047 -351.633)" fill="#ffa8a7"/>
          </g>
          <g id="Grupo_97275" data-name="Grupo 97275" transform="translate(0 111.845)">
            <path id="Trazado_148661" data-name="Trazado 148661" d="M407.9,370.135a39.892,39.892,0,0,1,.957,3.878c.258,1.436.621,3.835.1,4.9s-2.493,1.714-5.521,1.622c-1.96-.059-5.046,1.2-7.164,2.324-2.189,1.157-6.693,1.536-8.973,1.216-2.686-.377-5.442-2-5.852-3.127s.194-2.271,6.6-4.833c.059-.023,8.89-2.677,12.038-6Z" transform="translate(-381.344 -370.119)" fill="#263238"/>
          </g>
          <g id="Grupo_97276" data-name="Grupo 97276" transform="translate(18.733 109.289)">
            <path id="Trazado_148662" data-name="Trazado 148662" d="M410.913,367.176s-.048,1.755-.062,2.758-1.233,2.47-4.3,2.293c-2.152-.126-3.642-.739-3.516-2.51l.058-2.556Z" transform="translate(-403.032 -367.16)" fill="#ffa8a7"/>
          </g>
          <g id="Grupo_97277" data-name="Grupo 97277" transform="translate(12.114)">
            <path id="Trazado_148663" data-name="Trazado 148663" d="M431.553,306.173a64.239,64.239,0,0,0-2.514-12.379s1.083-10.607,1.716-20.672c.682-10.872,1.315-16.47-.822-32.172,0,0-33.334-2.994-34.243,9.571s.382,44.632.672,50.167,1.136,10.444,2.076,19.427c.928,8.865,3.617,29.812,3.617,29.812a8.294,8.294,0,0,0,7.816.016s3.037-25.1,2.921-31.479a54.509,54.509,0,0,0-2.1-13.972s.9-10.357,1.69-19.366,1.512-13.328,1.736-17.25l.764-.358s.42,15.582.711,21.118,1.05,10.854,2.418,21.154c1.186,8.936,4.893,27.869,4.893,27.869,3.962,2.259,6.411-.14,6.411-.14S432.462,313.924,431.553,306.173Z" transform="translate(-395.369 -240.638)" fill="#37474f"/>
          </g>
          <g id="Grupo_97278" data-name="Grupo 97278" transform="translate(30.859 19.542)">
            <path id="Trazado_148664" data-name="Trazado 148664" d="M417.069,270.957s8.612-4.005,12.961-7.7c0,0-4.084,5.489-9.336,7.844,0,0-2.284,19.294-2.266,18.911l-.638-19.072Z" transform="translate(-417.069 -263.261)" fill="#263238"/>
          </g>
        </g>
        <g id="Grupo_97293" data-name="Grupo 97293">
          <path id="Trazado_148665" data-name="Trazado 148665" d="M410.157,188.758l1.3,11.509,10.869-.548-1.208-13.432Z" transform="translate(-355.036 -154.525)" fill="#ffa8a7"/>
          <g id="Grupo_97284" data-name="Grupo 97284" transform="translate(0 25.688)">
            <path id="Trazado_148666" data-name="Trazado 148666" d="M428.8,194.244c4.046-.187,6.1.421,7.918,3.911s2.529,13.919,3.161,19.3.79,9.171-1.423,9.724-10.829.79-10.829.79Z" transform="translate(-357.416 -181.292)" fill="#37474f"/>
            <path id="Trazado_148667" data-name="Trazado 148667" d="M431.239,200.2c-.586-3.221-4.822-6.605-8.786-5.961q-1.381.224-2.691.455c-.476,1.936-5.782,3.147-10.85,1.954-1.528.4-6.558,1.342-7.829,1.765-3.643,1.21-5.147,4.795-5.714,16.676,0,0,.292,26.9.149,32.264a43.828,43.828,0,0,0,23.678,2.875c10.914-2.128,12.325-6.6,12.325-6.6L429.9,231.317S432.565,207.488,431.239,200.2Z" transform="translate(-353.021 -181.285)" fill="#455a64"/>
            <path id="Trazado_148668" data-name="Trazado 148668" d="M410.19,193.24l.081.724a16.131,16.131,0,0,0,6.674,0c3.531-.785,4.245-1.783,4.245-1.783l-.074-.821s.879-.326,1.341,1.027a14.7,14.7,0,0,1,.51,1.65s.407,2.473-3.745,3.732a12.831,12.831,0,0,1-10.338-1.129l-1.628.343s1.408-3.245,1.834-3.9a1.081,1.081,0,0,1,1.018-.564Z" transform="translate(-354.641 -180.899)" fill="#37474f"/>
            <g id="Grupo_97281" data-name="Grupo 97281" transform="translate(0.818)">
              <path id="Trazado_148669" data-name="Trazado 148669" d="M368.842,179.255,347.29,190.5,358,219.783l20.113-11.267Z" transform="translate(-347.29 -179.255)" fill="#455a64"/>
              <path id="Trazado_148670" data-name="Trazado 148670" d="M368.245,182.573l-18.081,9.436,9.477,25.173,16.873-9.453Z" transform="translate(-347.682 -179.707)" fill="#f5f5f5"/>
              <path id="Trazado_148671" data-name="Trazado 148671" d="M365.169,185.539l-.35-.9c-.193-.495-1.7-.2-3.361.659l-3.184,1.644c-1.664.859-2.855,1.955-2.661,2.45l.35.9Z" transform="translate(-348.421 -179.956)" opacity="0.15"/>
              <g id="Grupo_97280" data-name="Grupo 97280" transform="translate(5.345 1.718)">
                <path id="Trazado_148672" data-name="Trazado 148672" d="M364.531,181.526c-.119-.309-.774-.259-1.462.112l-1.246.674s-.769-1.935-3.636-.6-2.213,3.58-2.213,3.58l-1.323.73c-.731.4-1.251.984-1.163,1.3l.162.569,11.1-5.793S364.651,181.835,364.531,181.526Z" transform="translate(-353.478 -181.244)" fill="#ff6d60"/>
                <path id="Trazado_148673" data-name="Trazado 148673" d="M363.689,183.007c-1.033.508-1.439.752-1.142,1.515.339.871.656,1.5.656,1.5l-4.911,2.569s-.409-1.107-.588-1.535-.538-.631-1.32-.223l-.291-.307,7.746-3.948Z" transform="translate(-353.834 -181.425)" fill="#ff6d60"/>
                <path id="Trazado_148674" data-name="Trazado 148674" d="M363.689,183.007c-1.033.508-1.439.752-1.142,1.515.339.871.656,1.5.656,1.5l-4.911,2.569s-.409-1.107-.588-1.535-.538-.631-1.32-.223l-.291-.307,7.746-3.948Z" transform="translate(-353.834 -181.425)" opacity="0.3"/>
                <path id="Trazado_148675" data-name="Trazado 148675" d="M365.413,185.593l-.35-.9c-.194-.494-1.7-.2-3.361.659L358.518,187c-1.664.859-2.855,1.955-2.661,2.45l.35.9Z" transform="translate(-353.799 -181.681)" fill="#ff6d60"/>
              </g>
            </g>
            <g id="Grupo_97283" data-name="Grupo 97283" transform="translate(23.194 17.129)">
              <g id="Grupo_97282" data-name="Grupo 97282">
                <path id="Trazado_148676" data-name="Trazado 148676" d="M398.063,199.085c-4.975.433-7.1,1.34-10.83,8.075-4.054,7.31-11.846,20.539-12.834,22.21-1.375,2.324-1.634,5.858-.448,7.993,1.108,1.994,4.625,2.906,8.611-1.6,4.74-5.355,13.561-18.433,13.561-18.433S403.614,207.447,398.063,199.085Z" transform="translate(-373.196 -199.085)" fill="#ffa8a7"/>
              </g>
            </g>
            <path id="Trazado_148677" data-name="Trazado 148677" d="M372.355,239.3c-3.814-.463-12.721-12.548-15.255-16.5a28.16,28.16,0,0,0-7.717-8.143c-4.037-2.983-3.45-7.565-1.689-11.765.611-1.455,2.679-.508,2.679-.508l.729,1.993,1.262,3.451c.855.794,1.342,1.052,1.4.816.107-.446-.628-2.3-.611-4.236.022-2.327,1.652-.8,2.138.018a28.81,28.81,0,0,1,1.721,3.845c.813,2.083.477,4.192,1.467,5.612s14.28,14.153,14.28,14.153Z" transform="translate(-346.344 -182.365)" fill="#ffa8a7"/>
            <path id="Trazado_148678" data-name="Trazado 148678" d="M397.634,198.784c-3.015-.075-6.637.406-9.443,4.051S374.156,226.3,374.156,226.3l-6.3-5.648a10.984,10.984,0,0,0-4.846,6.849,68.326,68.326,0,0,0,5.706,7.745c2.663,2.923,5.635,4.95,8.07,4.052s4.923-2.828,10.169-10.13,10.968-15.921,10.968-15.921S401.536,204.83,397.634,198.784Z" transform="translate(-348.614 -181.914)" fill="#37474f"/>
          </g>
          <g id="Grupo_97285" data-name="Grupo 97285" transform="translate(45.035 20.145)">
            <path id="Trazado_148679" data-name="Trazado 148679" d="M400.91,172.837s-2.713,4.117-2.4,4.522,2.306.769,2.306.769Z" transform="translate(-398.481 -172.837)" fill="#f28f8f"/>
          </g>
          <g id="Grupo_97286" data-name="Grupo 97286" transform="translate(45.501 16.323)">
            <path id="Trazado_148680" data-name="Trazado 148680" d="M402.253,174.879a3.233,3.233,0,1,1,3.233-3.233A3.237,3.237,0,0,1,402.253,174.879Zm0-5.748a2.515,2.515,0,1,0,2.514,2.515A2.517,2.517,0,0,0,402.253,169.132Z" transform="translate(-399.02 -168.413)" fill="#263238"/>
          </g>
          <g id="Grupo_97287" data-name="Grupo 97287" transform="translate(47.248 8.216)">
            <path id="Trazado_148681" data-name="Trazado 148681" d="M408.794,159.565c-5.491,1.158-7.077,3.572-7.595,12.3-.54,9.115.391,11.98,1.588,13.207.809.828,5.3.978,7.567.353,2.836-.782,9.245-3.054,12.248-7.639,3.53-5.394,4.459-12.7.678-15.7C417.959,157.857,411.028,159.094,408.794,159.565Z" transform="translate(-401.042 -159.027)" fill="#ffa8a7"/>
          </g>
          <path id="Trazado_148682" data-name="Trazado 148682" d="M409.312,189.615l-.255-1.679a10.866,10.866,0,0,1-5.63,1.276C404.475,189.729,407.209,189.876,409.312,189.615Z" transform="translate(-354.119 -154.749)" fill="#f28f8f"/>
          <path id="Trazado_148683" data-name="Trazado 148683" d="M399.37,171.374l9.763,1.263-.393.686-9.37-1.216Z" transform="translate(-353.566 -152.493)" fill="#263238"/>
          <g id="Grupo_97292" data-name="Grupo 97292" transform="translate(44.278)">
            <g id="Grupo_97289" data-name="Grupo 97289">
              <g id="Grupo_97288" data-name="Grupo 97288">
                <path id="Trazado_148684" data-name="Trazado 148684" d="M399.795,161.79a3.063,3.063,0,0,0,1.24-.075A1.956,1.956,0,0,0,401.7,164a2.764,2.764,0,0,0,2.463.326,2.378,2.378,0,0,0-.269,1.7,2.753,2.753,0,0,0,2.844,2.052c.058,1.276.073,2.524,1.436,3.105,0,0,.868-3.369,3.707-2.946,2.858.427,3.244,4.069,1.443,6.283s-3.46,1.376-3.48,1.365c.166.084.223,1.157.282,1.361a9.866,9.866,0,0,0,.73,1.842,8.8,8.8,0,0,0,2.57,3.013,6.328,6.328,0,0,0,5.153,1.434,5.547,5.547,0,0,0,3.754-3.021,3.235,3.235,0,0,1,.612-1.091,3.577,3.577,0,0,1,1.4-.606,4.112,4.112,0,0,0,2.324-5.8,3.769,3.769,0,0,0,1.443-6.583,4.522,4.522,0,0,0,1.944-4.906,4.6,4.6,0,0,0-3.246-3.112c-1.109-.32-.682-.495-1.025-1.581a3.98,3.98,0,0,0-5.057-2.61,3.837,3.837,0,0,0-2.743-2.95,3.794,3.794,0,0,0-1.938-.075c-.455.118-1.392.542-1.563.977-.577-.568-.764-1.317-1.471-1.835a4.163,4.163,0,0,0-6.13,1.311,5.114,5.114,0,0,0-3.835-1.613,4.193,4.193,0,0,0-3.5,2.135,3.561,3.561,0,0,0,.471,3.992,4.084,4.084,0,0,0-2.121,1.836,2.571,2.571,0,0,0,.3,2.866,2.221,2.221,0,0,0,1.072.8A3.243,3.243,0,0,0,399.795,161.79Z" transform="translate(-397.604 -149.516)" fill="#263238"/>
              </g>
            </g>
            <g id="Grupo_97291" data-name="Grupo 97291" transform="translate(8.658 19.778)">
              <g id="Grupo_97290" data-name="Grupo 97290">
                <path id="Trazado_148685" data-name="Trazado 148685" d="M409.484,176.227l.1-3.814a1.907,1.907,0,1,0-.1,3.814Z" transform="translate(-407.627 -172.412)" fill="#263238"/>
              </g>
            </g>
          </g>
        </g>
      </g>
    </g>
  </g>
</svg>
