<svg xmlns="http://www.w3.org/2000/svg" width="1050" height="225" viewBox="0 0 1050 225">
  <g id="Trazado_151009" data-name="Trazado 151009" fill="none">
    <path d="M10,0H1040a10,10,0,0,1,10,10V198a10,10,0,0,1-10,10H873.2v17l-20.584-17H10A10,10,0,0,1,0,198V10A10,10,0,0,1,10,0Z" stroke="none"/>
    <path d="M 10 2 C 5.5887451171875 2 2 5.58880615234375 2 10 L 2 198 C 2 202.4111938476562 5.5887451171875 206 10 206 L 853.3361206054688 206 L 853.8906860351562 206.4578704833984 L 871.2010498046875 220.7542572021484 L 871.2010498046875 206 L 1040 206 C 1044.411254882812 206 1048 202.4111938476562 1048 198 L 1048 10 C 1048 5.58880615234375 1044.411254882812 2 1040 2 L 10 2 M 10 0 L 1040 0 C 1045.522827148438 0 1050 4.477203369140625 1050 10 L 1050 198 C 1050 203.5227966308594 1045.522827148438 208 1040 208 L 873.2010498046875 208 L 873.2010498046875 225 L 852.6170654296875 208 L 10 208 C 4.4771728515625 208 0 203.5227966308594 0 198 L 0 10 C 0 4.477203369140625 4.4771728515625 0 10 0 Z" stroke="none" fill="#ff6d60"/>
  </g>
</svg>
