<svg xmlns="http://www.w3.org/2000/svg" width="131.878" height="311.951" viewBox="0 0 131.878 311.951">
  <g id="Grupo_95426" data-name="Grupo 95426" transform="translate(-496.327 -160.627)">
    <g id="Grupo_95419" data-name="Grupo 95419">
      <g id="Grupo_95410" data-name="Grupo 95410">
        <path id="Trazado_147353" data-name="Trazado 147353" d="M503.407,246.55c-.894,3.288,1.937,6.21,2.851,6.758s7.123,3.1,10.959,3.2,9.5-8.037,7.488-8.95-16.073-1.918-17.625-1.918A11.692,11.692,0,0,0,503.407,246.55Z" fill="#ffc5c7"/>
        <path id="Trazado_147354" data-name="Trazado 147354" d="M513.609,244.815c.959,9.863,4.384,17.534,5.617,17.671s13.471-3.972,16.872-5.479.784-24.655-1.294-24.247-6.893,4.854-10.757,6.987S513.609,244.815,513.609,244.815Z" fill="#fff"/>
        <path id="Trazado_147355" data-name="Trazado 147355" d="M532.977,248.915c-1.295,1.974-11.147,6.977-16.505,8.8,1.079,2.913,2.166,4.7,2.754,4.77,1.055.118,10.178-2.878,14.915-4.688A67.989,67.989,0,0,0,532.977,248.915Z" fill="#dcedff"/>
        <path id="Trazado_147356" data-name="Trazado 147356" d="M503.427,246.094c-.379,3.913,3.105,4.475,7.4,3.47s11.872-10.5,15.251-14.794,9.657-11.941,10.89-12.626,3.973-1.048,6.576-4.908.137-11.941-.891-12.9-10.662,2.243-11.872,3.861.023,10.317-.388,11.413-9.064,10.046-12.717,12.237S503.7,243.263,503.427,246.094Z" fill="#ffc5c7"/>
        <path id="Trazado_147357" data-name="Trazado 147357" d="M537.365,210.793c1.145-.547,1.594-3.036.866-2.6s-1.943.429-3.588.407a13.609,13.609,0,0,1-2.309-.165,14.69,14.69,0,0,0-.3,1.962S536.219,211.341,537.365,210.793Z" fill="#fe8a8b"/>
        <path id="Trazado_147358" data-name="Trazado 147358" d="M544.645,211.359c-.58-1.246-1.029-2.191-1.029-2.191l-6.92,6.225a36.63,36.63,0,0,0-3.719-2.933l-.643,1.015a19.491,19.491,0,0,1,1.511,6.428s.913,1.1,1.461,1.187c0,0-7.717,10.959-12.557,16.347-4.812,5.356-8.178,9.989-10.371,11.478,4.383-2.425,10.7-10.332,13.7-14.145,3.379-4.293,9.657-11.941,10.89-12.626s3.973-1.048,6.576-4.908A9.514,9.514,0,0,0,544.645,211.359Z" fill="#fe8a8b"/>
        <path id="Trazado_147359" data-name="Trazado 147359" d="M531.137,211.984c.032.639,6.054,6.21,6.68,6.85a.963.963,0,0,0,.691,0c1.819-1.5,10.269-15.056,10.438-15.545.157-.456-4.458-5.118-5.881-6.365a1.366,1.366,0,0,0-1.2.139C540.17,199.324,531.1,211.159,531.137,211.984Z" fill="#0c0835"/>
        <path id="Trazado_147360" data-name="Trazado 147360" d="M531.828,211.984c.032.639,6.054,6.21,6.68,6.85s10.946-15.016,11.128-15.545c.158-.456-5.025-5.042-6.447-6.29a.433.433,0,0,0-.637.064C540.86,199.324,531.787,211.159,531.828,211.984Z" fill="#252384"/>
        <path id="Trazado_147361" data-name="Trazado 147361" d="M532.977,211.069c.03.6,5.663,5.809,6.249,6.407s10.24-14.047,10.411-14.542c.147-.427-4.7-4.717-6.032-5.884a.4.4,0,0,0-.6.059C541.427,199.224,532.938,210.3,532.977,211.069Z" fill="#57aff7"/>
        <path id="Trazado_147362" data-name="Trazado 147362" d="M537.388,203.429a7.946,7.946,0,0,0,2.568-3.317c.16-.685.137-1.3-.388-1.438s-2.329,2.009-3.2,2.648-1.964,1.964-1.621,2.854,2.191.548,2.4.411S537.388,203.429,537.388,203.429Z" fill="#ffc5c7"/>
        <path id="Trazado_147363" data-name="Trazado 147363" d="M539.863,198.854c.259.779-2.025,3.9-3.893,4.8l.614.767s.309-.068.707-.16a5.529,5.529,0,0,0,.1-.835,7.946,7.946,0,0,0,2.568-3.317A1.489,1.489,0,0,0,539.863,198.854Z" fill="#fe8a8b"/>
        <path id="Trazado_147364" data-name="Trazado 147364" d="M534.844,206.587c1.779-.915,3.114-.813,4.073-1.189s1.233-1.815.617-2.055-4.521.377-5.548.822-1.652,2.5-1.652,2.5Z" fill="#ffc5c7"/>
        <path id="Trazado_147365" data-name="Trazado 147365" d="M535.671,205.52a2.172,2.172,0,0,1-1.3,0c0,.378-.371.567-.813,1.1l1.287-.038c1.779-.915,3.114-.813,4.073-1.189a1.535,1.535,0,0,0,.857-.964C539.3,205.223,536.648,205.338,535.671,205.52Z" fill="#fe8a8b"/>
        <path id="Trazado_147366" data-name="Trazado 147366" d="M530.778,208.2c.822,1.265,5.342.717,6.256.58s1.521-.708,1.471-1.283c-.1-1.16-6.037-.955-6.54-.772S530.778,208.2,530.778,208.2Z" fill="#ffc5c7"/>
        <path id="Trazado_147367" data-name="Trazado 147367" d="M538.452,207.773a7.036,7.036,0,0,1-3.769,1.085,15.194,15.194,0,0,1-2.378.043,18.668,18.668,0,0,0,4.729-.124A1.637,1.637,0,0,0,538.452,207.773Z" fill="#fe8a8b"/>
      </g>
      <g id="Grupo_95413" data-name="Grupo 95413">
        <g id="Grupo_95411" data-name="Grupo 95411">
          <path id="Trazado_147368" data-name="Trazado 147368" d="M552.856,468.581c.273,2.4,1.232,3.288,4.726,3.767s8.63.411,11.3-2.192,4.315-5.616,4.52-6.918.137-2.739.548-3.424,2.584-1.112,2.316-4.932S552.856,468.581,552.856,468.581Z" fill="#ffdcdc"/>
          <path id="Trazado_147369" data-name="Trazado 147369" d="M575.475,445.811c-.393-5.3-12.962-3.257-13.031-1.134s-3.013,11.027-5.906,13.731l0,.006c-3.787,1.722-5.214,6.034-3.685,10.167,1.3,3.507,11.027,2.658,13.356,1.37,2.454-1.358,4.882-4.913,5.61-6.838h0c.527-1.135.757-2.819,1.922-4.257s1.781-1.164,2.329-2.877S575.869,451.115,575.475,445.811Z" fill="#ffa648"/>
          <path id="Trazado_147370" data-name="Trazado 147370" d="M564.734,445.586c-1.209,5.47-3.817,9.032-3.053,9.668s5.47,1.4,6.36,0,2.417-7.314,2.417-9.668S564.734,445.586,564.734,445.586Z" fill="#ffdcdc"/>
        </g>
        <g id="Grupo_95412" data-name="Grupo 95412">
          <path id="Trazado_147371" data-name="Trazado 147371" d="M536.925,450.072a16.41,16.41,0,0,0-1.672-9.847c-2.017-3.973-1.918-4.315-4.247-4.726s-10.821-1.575-10.821-1.575a14.08,14.08,0,0,1-6.439,6.712c-5,2.74-6.027,3.7-9.246,3.7s-10.334.379-7.534,8.9c0,0,2.26.982,7.922.936s11.415-.5,13.47-1.278,4.2-1.187,5.434-.685,5.251.32,7.534,0A21.493,21.493,0,0,0,536.925,450.072Z" fill="#ffa648"/>
          <path id="Trazado_147372" data-name="Trazado 147372" d="M510.065,442.267a.559.559,0,0,0-.282.844c.674,1.046,2.076,2.192,2.822,1.931.913-.32,5.147-3.523,7.4-5.479,1.05-.914,2.055-2.649,1.461-3.47s-2.146-1.781-2.785-1.279-1.872,2.912-4.475,5.063A13.173,13.173,0,0,1,510.065,442.267Z" fill="#ffdcdc"/>
          <path id="Trazado_147373" data-name="Trazado 147373" d="M496.966,453.238c5.616.548,18.553-.547,21.194-1.232s4.079-1.85,6.614-.891,10.342-.548,11.575-1.027.89,1.45,0,1.649-6.507,1.387-9.384,1.65-3.013-1.861-6.438-.285-9.041,1.575-11.507,1.575-9.52.548-10.822,0S496.966,453.238,496.966,453.238Z" fill="#ffdcdc"/>
        </g>
        <path id="Trazado_147374" data-name="Trazado 147374" d="M561.417,445.91c3.842,1.048,14.795.685,15.342-.822s-1.506-25.206-1.506-32.74-2.6-26.164-2.192-28.219.411-3.561-.274-7.123-.955-44.84-4.247-72.648L525.8,308.377s-6.849,26.3-7.4,44.931.091,27.579,0,30.319,1.165,5.479,1.45,7.671-.08,18.448-.446,24.292-.631,16.621-1.229,17.9,12.919,3.835,14.745,2.922,1.827-1.1,1.827-10.593,1.278-32.329,1.278-36.347,1.279-4.749.731-6.758,1.461-11.142,3.47-17.9,4.384-14.063,4.384-14.063,5.662,36.529,7.488,38.721,1.461,7.854,2.557,11.141,4.384,25.571,4.384,32.329S557.4,444.814,561.417,445.91Z" fill="#4d4c86"/>
        <path id="Trazado_147375" data-name="Trazado 147375" d="M570.518,446.445a26.471,26.471,0,0,0,4.7-.574c.456-1.949.942-4.4,1.447-7.251-.421-7.974-1.414-21.031-1.414-26.272,0-7.534-2.6-26.164-2.192-28.219s.411-3.561-.274-7.123-.955-44.84-4.247-72.648l-8.6.809-25.167,9.464a191.808,191.808,0,0,0,26.24-1.56s1.968,22.265,2.034,25.552,2.441,33.985,2.441,36.81,1.1,3.641,1.279,6.7a4.233,4.233,0,0,1-2.192,4.158s3.288,1.1,3.288,1.644.685,9.361.685,12.786,1.492,8.082,1.91,18.356,1.788,22.465,1.788,23.835C572.246,444.252,572.241,445.644,570.518,446.445Z" fill="#373660"/>
        <path id="Trazado_147376" data-name="Trazado 147376" d="M542.794,330.039l-9.178-2.329,7.124,3.425-5.754.137,4.409,1.574s1.374,11.446-1.486,19.111c-3.136,8.4-4.567,29.863-5.525,31.506s-3.425,1.233-3.425,1.233,2.6.274,2.74,2.192-.548,7.26-.548,12.922a172.956,172.956,0,0,1-1.1,18.463c-.548,3.82-.8,13.167-1.1,15.651s-4.025,1.9-4.025,1.9h0a47.963,47.963,0,0,0,5.37.735c5.642.531,4.47-1.558,4.462-12.66.14-10.345,1.264-30.662,1.264-34.43,0-4.019,1.279-4.749.731-6.758s1.461-11.142,3.47-17.9,4.384-14.063,4.384-14.063-1-9.342-1.135-11.534S542.794,330.039,542.794,330.039Z" fill="#373660"/>
      </g>
      <g id="Grupo_95414" data-name="Grupo 95414">
        <path id="Trazado_147377" data-name="Trazado 147377" d="M550.458,225.911c-9.863,4.84-11.41,4.653-15.654,6.849s-4.711,25.3-4.711,28.859-.046,17.717-.867,21.552-3.973,18.082-5.069,20.274-3.151,5.89-.548,8.082,8.338,3.7,21.087,2.877,26.995-8.63,27.68-9.726-4.521-21.233-4.521-25.068a50.173,50.173,0,0,0-.821-8.494c-.274-1.78,4.37-10.137,5.4-15.479s7.911-20.08,7.006-22.78-10.794-5.707-17.429-9.14S550.458,225.911,550.458,225.911Z" fill="#fff"/>
        <path id="Trazado_147378" data-name="Trazado 147378" d="M548.205,229.766a7.122,7.122,0,0,0,.135,1.732,4.12,4.12,0,0,0,.6,1.566,3.163,3.163,0,0,0,2.752,1.461,9.157,9.157,0,0,0,3.317-.663c1.089-.392,2.129-.919,3.193-1.425-.475.346-.968.666-1.459,1-.523.271-1.029.583-1.575.819a8.112,8.112,0,0,1-3.5.82l-.463-.022-.459-.1a3.282,3.282,0,0,1-.88-.335,3.237,3.237,0,0,1-1.292-1.335A5.072,5.072,0,0,1,548.205,229.766Z" fill="#dcedff"/>
        <path id="Trazado_147379" data-name="Trazado 147379" d="M572.376,304.678c.685-1.1-4.521-21.233-4.521-25.068a50.146,50.146,0,0,0-.821-8.493c-.274-1.781,4.37-10.138,5.4-15.48a30.292,30.292,0,0,1,1-3.527l-4.056-3.2c-3.025,7.015-5.491,19.344-8.094,22.357s-8.63,4.247-8.63,4.247,5.766,1.37,8.362.822c0,0,1.943,10.822,1.585,16.164s-1.442,13.425-1.585,14.521c-.053.409-.066,1.835-.062,3.461C567.279,308.055,571.989,305.3,572.376,304.678Z" fill="#dcedff"/>
        <path id="Trazado_147380" data-name="Trazado 147380" d="M561.644,213.985c-.318,5.716-.227,9.643.96,10.739,0,0-2.868,9.486-11.506,8.676-2.923-.274-2.284-5.206-.64-7.489l-.365-7.011Z" fill="#ffc5c7"/>
        <path id="Trazado_147381" data-name="Trazado 147381" d="M562.015,223.717h0c-.616-1.753-.625-5.17-.371-9.732L550.093,218.9l.234,4.5h0C552.246,224.287,562.015,223.717,562.015,223.717Z" fill="#fe8a8b"/>
      </g>
      <g id="Grupo_95415" data-name="Grupo 95415">
        <path id="Trazado_147382" data-name="Trazado 147382" d="M589.1,260.217c1.735,2.648,3.835,9.223,2.648,12.237s-12.146,16.438-17.078,21.461-6.027,5.845-6.94,7.489-5.3,8.424-6.393,9.452a5.519,5.519,0,0,1-2.945,1.164,5.2,5.2,0,0,1-4.1,1.233,16.51,16.51,0,0,1-4.258,1.986s-.685,1.163-1.3,1.267-1.3-1.13,0-3.6,3.219-3.493,3.63-5.068a34.731,34.731,0,0,1,2.07-4.789s-3.44,3.282-5.426,3.488-2.167-.959-1.015-1.918a27.926,27.926,0,0,0,4.1-4.247,8.252,8.252,0,0,1,5.685-3.424c2.534-.343,4.315-.617,5-1.1s4.3-5.137,6.912-10.16,5.083-11.442,11.192-17.077l-2.191-4.384Z" fill="#ffc5c7"/>
        <path id="Trazado_147383" data-name="Trazado 147383" d="M550.146,314.925a11.645,11.645,0,0,1,2.626-3.628l.417-.383c.124-.119.337-.27.387-.341.215-.25.409-.58.619-.877.407-.616.8-1.244,1.248-1.849a16.573,16.573,0,0,1-.883,2.06,6.827,6.827,0,0,1-.582.995,4.556,4.556,0,0,1-.431.409l-.394.379c-.53.505-1.036,1.037-1.546,1.567S550.623,314.347,550.146,314.925Z" fill="#fe8a8b"/>
        <path id="Trazado_147384" data-name="Trazado 147384" d="M554.438,312.779c.431-.738.925-1.377,1.374-2.049.467-.663.886-1.328,1.32-2.061a4.522,4.522,0,0,1-.869,2.371A6.044,6.044,0,0,1,554.438,312.779Z" fill="#fe8a8b"/>
        <path id="Trazado_147385" data-name="Trazado 147385" d="M556.421,313.071a4.927,4.927,0,0,0,1.974-1.051,5.519,5.519,0,0,0,2.945-1.164,29.445,29.445,0,0,0,2.531-3.4c-.022.025-1.261,1.272-2.161,2.3a2.922,2.922,0,0,1-2.9.97l.321-1.335S557.8,312.42,556.421,313.071Z" fill="#fe8a8b"/>
        <path id="Trazado_147386" data-name="Trazado 147386" d="M592.037,269.105c-.145,1.25-.232,2.244-2.325,5.524-2.355,3.691-16.027,19.246-18.973,22.123s-2.876,3.059-4.826,7.6c.824-1.284,1.516-2.4,1.82-2.952.913-1.644,2.009-2.466,6.94-7.489s15.891-18.447,17.078-21.461A7.59,7.59,0,0,0,592.037,269.105Z" fill="#fe8a8b"/>
        <path id="Trazado_147387" data-name="Trazado 147387" d="M582.469,265.511l.9,1.7a6.353,6.353,0,0,0-2.481,1.41l-1.742-3.374Z" fill="#fe8a8b"/>
        <path id="Trazado_147388" data-name="Trazado 147388" d="M571.127,256.225c-2.244-5.149-2.684-13.51,0-17.911s7.261-5.985,8.317-5.457,3.521,7.393,6.073,10.562,9.506,12.058,9.682,12.806-5.987,6.786-17.075,11.221C576.8,267.974,571.127,256.225,571.127,256.225Z" fill="#fff"/>
        <path id="Trazado_147389" data-name="Trazado 147389" d="M578.822,260.217l1.461,3.521s-7.843-8.481-10.9-14.809a24.112,24.112,0,0,0,1.739,7.3s5.677,11.749,7,11.221c1.9-.759,3.639-1.566,5.24-2.384Z" fill="#dcedff"/>
      </g>
      <g id="Grupo_95418" data-name="Grupo 95418">
        <path id="Trazado_147390" data-name="Trazado 147390" d="M567.53,206.541c2.015-4.922,4.481-10.127,1.376-12.867,0,0,3.47-1.1,5.3-.73a14.214,14.214,0,0,0-5.479-1.462s.718-8.31-1.193-11.872c0,0,.006,3.653-1,5.114a12.507,12.507,0,0,0-7.945-5.936c-5.936-1.643-11.689-1.826-15.8,2.375s-8.922,9.587-1.995,17.716a32.426,32.426,0,0,0,19.986,10.777C564.705,210.2,567.53,206.541,567.53,206.541Z" fill="#252384"/>
        <path id="Trazado_147391" data-name="Trazado 147391" d="M546.356,190.931a22.14,22.14,0,0,0,4.222,1.331c1.435.324,2.879.614,4.333.839s2.913.421,4.376.559a19.32,19.32,0,0,0,4.419,0,10.977,10.977,0,0,1-4.447.851,26.381,26.381,0,0,1-8.919-1.435A11.863,11.863,0,0,1,546.356,190.931Z" fill="#0c0835"/>
        <path id="Trazado_147392" data-name="Trazado 147392" d="M562.376,198.035c1.583-.392,4.206-2.926,4.206-2.926s-2.718,1.921-8.308,1.463a47.621,47.621,0,0,1-9.323-1.619s5.761,3.381,7.884,3.926S562.376,198.035,562.376,198.035Z" fill="#0c0835"/>
        <path id="Trazado_147393" data-name="Trazado 147393" d="M542.924,194.336c-2.6-1.282-3.349.019-3.349,1.115a11.559,11.559,0,0,0,1.217,3.428Z" fill="#0c0835"/>
        <path id="Trazado_147394" data-name="Trazado 147394" d="M570.295,198.363c-2.071,4.1-6.686,7.274-6.686,7.274s-1.8,2.431.221,3.417c.084.041.179.077.271.114a9.636,9.636,0,0,0,3.429-2.627C568.678,203.737,569.968,200.843,570.295,198.363Z" fill="#0c0835"/>
        <path id="Trazado_147395" data-name="Trazado 147395" d="M563.609,205.637s2.123-1.575,3.561,0-1.3,8.905-4.52,7.124c0,0-5.342,6.781-9.041,8.7s-6.164.959-7.4-.411-5.369-6.988-5.754-12.945c-.137-2.123.48-6.3.48-7.191s-.548-4.384.205-5.411a2.9,2.9,0,0,1,1.781-1.165,29,29,0,0,0,8.562,2.6,15.534,15.534,0,0,1-2.535-1.986s7.877,2.739,13.425,3.082a30.741,30.741,0,0,0,.205,4.52A18.234,18.234,0,0,0,563.609,205.637Z" fill="#ffc5c7"/>
        <path id="Trazado_147396" data-name="Trazado 147396" d="M566.474,207.641c-.191-1.343-1.317-1.608-2.238-.672-.943.959-1.31,4-1.119,4.444s1.7.416,2.047-.511-.48-1.509-1.343-1.234a3.31,3.31,0,0,1,.615-2.225c.753-.871,1.447-.538,1.607-.314A6.189,6.189,0,0,0,566.474,207.641Z" fill="#fe8a8b"/>
        <g id="Grupo_95417" data-name="Grupo 95417">
          <path id="Trazado_147397" data-name="Trazado 147397" d="M557.637,201.7a10.617,10.617,0,0,0-.967-.849,6.565,6.565,0,0,0-1.112-.689,3.581,3.581,0,0,0-1.256-.433,2.761,2.761,0,0,0-1.32.173v.061a6.188,6.188,0,0,0,.618.2l.592.167c.384.115.788.15,1.177.283a8.025,8.025,0,0,1,1.135.494c.374.189.732.413,1.094.637Z" fill="#0c0835"/>
          <path id="Trazado_147398" data-name="Trazado 147398" d="M542.6,200.163a4.745,4.745,0,0,1,1.19-.421,6.454,6.454,0,0,1,1.235-.145c.416-.009.821.076,1.231.073a11.98,11.98,0,0,0,1.284-.032l.017-.059a2.933,2.933,0,0,0-1.238-.52,3.846,3.846,0,0,0-1.336.048,5.565,5.565,0,0,0-1.285.342,4.388,4.388,0,0,0-1.132.663Z" fill="#0c0835"/>
          <path id="Trazado_147399" data-name="Trazado 147399" d="M553.4,204.109c.057-.58.381-1.022.723-.988s.573.531.516,1.111-.381,1.021-.724.987S553.337,204.688,553.4,204.109Z" fill="#0c0835"/>
          <path id="Trazado_147400" data-name="Trazado 147400" d="M544.3,203.377c.057-.579.33-1.026.61-1s.46.52.4,1.1-.331,1.026-.611,1S544.241,203.957,544.3,203.377Z" fill="#0c0835"/>
          <path id="Trazado_147401" data-name="Trazado 147401" d="M550.12,209.74a2.584,2.584,0,0,1-2.824-.028,1.193,1.193,0,0,0,.657,1.04,1.767,1.767,0,0,0,1.318-.071C549.683,210.5,549.841,210.1,550.12,209.74Z" fill="#fe8a8b"/>
          <g id="Grupo_95416" data-name="Grupo 95416">
            <path id="Trazado_147402" data-name="Trazado 147402" d="M553.047,213.14a77.892,77.892,0,0,1-7.963-.535c.449,1.936,1.859,3.848,4.022,3.849C551.053,216.455,552.456,214.855,553.047,213.14Z" fill="#c31f2a"/>
            <path id="Trazado_147403" data-name="Trazado 147403" d="M551.1,215.822a3.424,3.424,0,0,0-1.843-.018,2.863,2.863,0,0,0-2.461-.242,3.448,3.448,0,0,0,4.3.26Z" fill="#fb8384"/>
            <path id="Trazado_147404" data-name="Trazado 147404" d="M546.262,214.224a9.417,9.417,0,0,0,5.884-.227c.033-.286.076-.574.119-.862-1.886-.04-4.926-.269-6.55-.451A5.116,5.116,0,0,0,546.262,214.224Z" fill="#fff"/>
          </g>
        </g>
      </g>
    </g>
    <g id="Grupo_95425" data-name="Grupo 95425">
      <g id="Grupo_95420" data-name="Grupo 95420" opacity="0.25" style="mix-blend-mode: multiply;isolation: isolate">
        <path id="Trazado_147405" data-name="Trazado 147405" d="M600.512,189.889a19.409,19.409,0,0,1,1.432-3.049,7.163,7.163,0,0,1,2.3-2.372,9.3,9.3,0,0,1,3.974-1.293q.763-.1,2.166-.238a22.139,22.139,0,0,0,2.916-.48,9.923,9.923,0,0,0,2.725-1.039,3.572,3.572,0,0,0,1.663-1.891,2.615,2.615,0,0,0,.066-1.7,3.377,3.377,0,0,0-.9-1.475,4.514,4.514,0,0,0-1.585-.98,3.994,3.994,0,0,0-2.536-.181,6.24,6.24,0,0,0-2.008.97c-.577.425-1.091.771-1.542,1.044l-5.166-7.591a12.008,12.008,0,0,1,4.279-3,13.494,13.494,0,0,1,5.145-.992,15.722,15.722,0,0,1,5.524,1.026,17.348,17.348,0,0,1,4.2,2.278,13.391,13.391,0,0,1,3.345,3.53,10.7,10.7,0,0,1,1.638,4.728,12.8,12.8,0,0,1-.892,5.879,15.444,15.444,0,0,1-1.213,2.559,9.7,9.7,0,0,1-1.668,2.1,10.027,10.027,0,0,1-2.237,1.588,12.5,12.5,0,0,1-2.868,1.062,24.465,24.465,0,0,1-4.174.674,21.49,21.49,0,0,0-3.594.529,2.642,2.642,0,0,0-2,1.649Zm-3.728,10.587.192-.519a4.794,4.794,0,0,1,6.162-2.827h0a4.794,4.794,0,0,1,2.827,6.162l-.193.519a4.793,4.793,0,0,1-6.161,2.827h0A4.794,4.794,0,0,1,596.784,200.476Z" fill="#00264f"/>
        <path id="Trazado_147406" data-name="Trazado 147406" d="M584.708,190.815a14.174,14.174,0,0,1-.164-2.451,5.227,5.227,0,0,1,.628-2.325,6.777,6.777,0,0,1,2.079-2.229c.3-.224.732-.531,1.3-.917a16.147,16.147,0,0,0,1.691-1.337,7.25,7.25,0,0,0,1.372-1.626,2.6,2.6,0,0,0,.392-1.794,1.9,1.9,0,0,0-.557-1.107,2.458,2.458,0,0,0-1.1-.622,3.3,3.3,0,0,0-1.358-.065,2.917,2.917,0,0,0-1.682.78,4.556,4.556,0,0,0-.938,1.329c-.218.475-.424.877-.615,1.21l-5.978-3.017a8.749,8.749,0,0,1,1.671-3.424,9.829,9.829,0,0,1,2.932-2.451,11.447,11.447,0,0,1,3.887-1.3,12.62,12.62,0,0,1,3.486-.031,9.757,9.757,0,0,1,3.381,1.07,7.817,7.817,0,0,1,2.716,2.438,9.354,9.354,0,0,1,1.508,4.066,11.3,11.3,0,0,1,.13,2.061,7.074,7.074,0,0,1-.324,1.926,7.331,7.331,0,0,1-.866,1.8,9.142,9.142,0,0,1-1.455,1.691,17.805,17.805,0,0,1-2.425,1.9,15.714,15.714,0,0,0-2.106,1.607,1.925,1.925,0,0,0-.691,1.757Zm1.362,8.072-.06-.4a3.5,3.5,0,0,1,2.932-3.981h0a3.5,3.5,0,0,1,3.981,2.933l.061.4a3.5,3.5,0,0,1-2.933,3.981h0A3.5,3.5,0,0,1,586.07,198.887Z" fill="#00264f"/>
      </g>
      <g id="Grupo_95424" data-name="Grupo 95424">
        <g id="Grupo_95423" data-name="Grupo 95423">
          <g id="Grupo_95421" data-name="Grupo 95421">
            <path id="Trazado_147407" data-name="Trazado 147407" d="M595.512,184.889a19.409,19.409,0,0,1,1.432-3.049,7.163,7.163,0,0,1,2.3-2.372,9.3,9.3,0,0,1,3.974-1.293q.763-.1,2.166-.238a22.139,22.139,0,0,0,2.916-.48,9.923,9.923,0,0,0,2.725-1.039,3.572,3.572,0,0,0,1.663-1.891,2.615,2.615,0,0,0,.066-1.7,3.377,3.377,0,0,0-.9-1.475,4.514,4.514,0,0,0-1.585-.98,3.994,3.994,0,0,0-2.536-.181,6.24,6.24,0,0,0-2.008.97c-.577.425-1.091.771-1.542,1.044l-5.166-7.591a12.008,12.008,0,0,1,4.279-3,13.494,13.494,0,0,1,5.145-.992,15.722,15.722,0,0,1,5.524,1.026,17.348,17.348,0,0,1,4.2,2.278,13.391,13.391,0,0,1,3.345,3.53,10.7,10.7,0,0,1,1.638,4.728,12.8,12.8,0,0,1-.892,5.879,15.444,15.444,0,0,1-1.213,2.559,9.7,9.7,0,0,1-1.668,2.1,10.027,10.027,0,0,1-2.237,1.588,12.5,12.5,0,0,1-2.868,1.062,24.465,24.465,0,0,1-4.174.674,21.49,21.49,0,0,0-3.594.529,2.642,2.642,0,0,0-2,1.649Zm-3.728,10.587.192-.519a4.794,4.794,0,0,1,6.162-2.827h0a4.794,4.794,0,0,1,2.827,6.162l-.193.519a4.793,4.793,0,0,1-6.161,2.827h0A4.794,4.794,0,0,1,591.784,195.476Z" fill="#ff6d60"/>
          </g>
          <g id="Grupo_95422" data-name="Grupo 95422">
            <path id="Trazado_147408" data-name="Trazado 147408" d="M579.708,185.815a14.174,14.174,0,0,1-.164-2.451,5.227,5.227,0,0,1,.628-2.325,6.777,6.777,0,0,1,2.079-2.229c.3-.224.732-.531,1.3-.917a16.147,16.147,0,0,0,1.691-1.337,7.25,7.25,0,0,0,1.372-1.626,2.6,2.6,0,0,0,.392-1.794,1.9,1.9,0,0,0-.557-1.107,2.458,2.458,0,0,0-1.1-.622,3.3,3.3,0,0,0-1.358-.065,2.917,2.917,0,0,0-1.682.78,4.556,4.556,0,0,0-.938,1.329c-.218.475-.424.877-.615,1.21l-5.978-3.017a8.749,8.749,0,0,1,1.671-3.424,9.829,9.829,0,0,1,2.932-2.451,11.447,11.447,0,0,1,3.887-1.3,12.62,12.62,0,0,1,3.486-.031,9.757,9.757,0,0,1,3.381,1.07,7.817,7.817,0,0,1,2.716,2.438,9.354,9.354,0,0,1,1.508,4.066,11.3,11.3,0,0,1,.13,2.061,7.074,7.074,0,0,1-.324,1.926,7.331,7.331,0,0,1-.866,1.8,9.142,9.142,0,0,1-1.455,1.691,17.805,17.805,0,0,1-2.425,1.9,15.714,15.714,0,0,0-2.106,1.607,1.925,1.925,0,0,0-.691,1.757Zm1.362,8.072-.06-.4a3.5,3.5,0,0,1,2.932-3.981h0a3.5,3.5,0,0,1,3.981,2.933l.061.4a3.5,3.5,0,0,1-2.933,3.981h0A3.5,3.5,0,0,1,581.07,193.887Z" fill="#ff6d60"/>
          </g>
        </g>
      </g>
    </g>
  </g>
</svg>
