<svg xmlns="http://www.w3.org/2000/svg" width="363.721" height="236.906" viewBox="0 0 363.721 236.906">
  <g id="Grupo_100503" data-name="Grupo 100503" transform="translate(-36.955 -68.671)">
    <g id="Grupo_95383" data-name="Grupo 95383" transform="translate(84.911 81.188)">
      <path id="Trazado_147289" data-name="Trazado 147289" d="M190.754,130.241v-6.133a2.279,2.279,0,0,0-2.279-2.279h-5.839a29.238,29.238,0,0,0-5.254-12.135l4.292-4.291a2.28,2.28,0,0,0,0-3.223l-4.337-4.337a2.279,2.279,0,0,0-3.223,0l-4.52,4.52a29.306,29.306,0,0,0-11.905-4.406V91.043a2.279,2.279,0,0,0-2.28-2.28h-6.132a2.279,2.279,0,0,0-2.28,2.28v7.381a29.388,29.388,0,0,0-10.859,4.979l-5.566-5.561a2.279,2.279,0,0,0-3.223,0l-4.337,4.337a2.279,2.279,0,0,0,0,3.223l5.8,5.8a29.466,29.466,0,0,0-4.208,10.63h-8.389a2.279,2.279,0,0,0-2.279,2.279v6.133a2.279,2.279,0,0,0,2.279,2.279H124.6a29.434,29.434,0,0,0,4.208,10.623l-5.8,5.8a2.278,2.278,0,0,0,0,3.223l4.337,4.338a2.279,2.279,0,0,0,3.223,0l5.566-5.56A29.283,29.283,0,0,0,147,155.925v7.381a2.279,2.279,0,0,0,2.28,2.28h6.132a2.279,2.279,0,0,0,2.28-2.28v-6.915a29.334,29.334,0,0,0,11.905-4.414l4.52,4.52a2.28,2.28,0,0,0,3.223,0l4.337-4.337a2.279,2.279,0,0,0,0-3.223l-4.292-4.292a29.344,29.344,0,0,0,5.254-12.127h5.839A2.279,2.279,0,0,0,190.754,130.241Zm-23.839,5.429a15.762,15.762,0,0,1-6.031,5.507,15.29,15.29,0,0,1-4.16,1.469,15.762,15.762,0,0,1-8.159-.525,15.3,15.3,0,0,1-3.45-1.655,15.729,15.729,0,0,1-5.513-6.025,15.412,15.412,0,0,1-1.235-3.188,15.778,15.778,0,0,1,0-8.158,15.252,15.252,0,0,1,1.241-3.193,15.794,15.794,0,0,1,5.507-6.026,15.328,15.328,0,0,1,3.45-1.655,15.744,15.744,0,0,1,8.159-.525,15.309,15.309,0,0,1,4.16,1.468,15.8,15.8,0,0,1,6.031,5.507,15.787,15.787,0,0,1,0,17Z" transform="translate(-113.932 -88.763)" fill="#ff6d60"/>
      <path id="Trazado_147290" data-name="Trazado 147290" d="M193.566,121.829h-5.838a29.243,29.243,0,0,0-5.254-12.135l4.291-4.291a2.28,2.28,0,0,0,0-3.223l-4.337-4.337a2.279,2.279,0,0,0-3.223,0l-4.52,4.52a29.305,29.305,0,0,0-11.905-4.406V91.043a2.279,2.279,0,0,0-2.28-2.28h-6.132a2.279,2.279,0,0,0-2.28,2.28v7.381a29.389,29.389,0,0,0-10.859,4.979l-5.566-5.561a2.279,2.279,0,0,0-3.223,0L128.1,102.18a2.279,2.279,0,0,0,0,3.223l5.8,5.8a29.454,29.454,0,0,0-4.208,10.63h-.78a44.709,44.709,0,0,0,16.648,14.065,15.768,15.768,0,0,1-.865-1.454,15.414,15.414,0,0,1-1.235-3.188,15.778,15.778,0,0,1,0-8.158A15.253,15.253,0,0,1,144.7,119.9a15.794,15.794,0,0,1,5.507-6.026,15.328,15.328,0,0,1,3.45-1.655,15.744,15.744,0,0,1,8.159-.525,15.31,15.31,0,0,1,4.16,1.468,15.8,15.8,0,0,1,6.031,5.507,15.787,15.787,0,0,1,0,17,15.767,15.767,0,0,1-4.611,4.666,44.26,44.26,0,0,0,19.9-5.887c.162-.636.31-1.277.43-1.929h2.627a44.733,44.733,0,0,0,5.49-4.481v-3.931A2.279,2.279,0,0,0,193.566,121.829Z" transform="translate(-119.023 -88.763)" fill="#ff857b"/>
    </g>
    <g id="Grupo_95404" data-name="Grupo 95404" transform="translate(114.958 84.586)">
      <g id="Grupo_95393" data-name="Grupo 95393" transform="translate(0 35.014)">
        <rect id="Rectángulo_35662" data-name="Rectángulo 35662" width="50.116" height="32.715" transform="translate(94.9 147.346)" fill="#4d4c86"/>
        <rect id="Rectángulo_35663" data-name="Rectángulo 35663" width="50.116" height="14.52" transform="translate(94.9 147.346)" fill="#373660"/>
        <rect id="Rectángulo_35664" data-name="Rectángulo 35664" width="239.916" height="136.139" rx="6" fill="#373660"/>
        <rect id="Rectángulo_35665" data-name="Rectángulo 35665" width="223.189" height="115.609" transform="translate(8.364 14.158)" fill="#b3b2d4"/>
        <path id="Rectángulo_35666" data-name="Rectángulo 35666" d="M0,0H239.916a0,0,0,0,1,0,0V19.123a5,5,0,0,1-5,5H5a5,5,0,0,1-5-5V0A0,0,0,0,1,0,0Z" transform="translate(0 129.767)" fill="#6765a9"/>
        <circle id="Elipse_4706" data-name="Elipse 4706" cx="4.54" cy="4.54" r="4.54" transform="translate(115.418 138.267)" fill="#373660"/>
        <path id="Trazado_147291" data-name="Trazado 147291" d="M388.579,441.781H207.8a3.015,3.015,0,0,1-3.015-3.015h0a8.819,8.819,0,0,1,8.818-8.818H382.775a8.819,8.819,0,0,1,8.818,8.818h0A3.015,3.015,0,0,1,388.579,441.781Z" transform="translate(-178.232 -255.803)" fill="#6765a9"/>
        <g id="Grupo_95392" data-name="Grupo 95392" transform="translate(18.146 24.338)">
          <g id="Grupo_95385" data-name="Grupo 95385" transform="translate(154.147 7.193)">
            <rect id="Rectángulo_35667" data-name="Rectángulo 35667" width="49.477" height="12.375" rx="2.192" fill="#ffdb9a"/>
            <g id="Grupo_95384" data-name="Grupo 95384" transform="translate(3.906 3.273)">
              <path id="Trazado_147292" data-name="Trazado 147292" d="M448.054,211.249l-1.894.867.239-2.069-1.41-1.533,2.042-.412,1.023-1.814,1.023,1.814,2.042.412-1.41,1.533.239,2.069Z" transform="translate(-444.99 -206.287)" fill="#ff6d60"/>
              <path id="Trazado_147293" data-name="Trazado 147293" d="M462.314,211.249l-1.894.867.239-2.069-1.41-1.533,2.042-.412,1.023-1.814,1.023,1.814,2.042.412-1.41,1.533.239,2.069Z" transform="translate(-450.366 -206.287)" fill="#ff6d60"/>
              <path id="Trazado_147294" data-name="Trazado 147294" d="M476.574,211.249l-1.894.867.239-2.069-1.41-1.533,2.042-.412,1.023-1.814L477.6,208.1l2.042.412-1.41,1.533.239,2.069Z" transform="translate(-455.742 -206.287)" fill="#ff6d60"/>
              <path id="Trazado_147295" data-name="Trazado 147295" d="M490.834,211.249l-1.894.867.239-2.069-1.41-1.533,2.042-.412,1.023-1.814,1.023,1.814,2.042.412-1.41,1.533.239,2.069Z" transform="translate(-461.118 -206.287)" fill="#ff6d60"/>
              <path id="Trazado_147296" data-name="Trazado 147296" d="M505.094,211.249l-1.894.867.239-2.069-1.41-1.533,2.042-.412,1.023-1.814,1.023,1.814,2.042.412-1.41,1.533.239,2.069Z" transform="translate(-466.494 -206.287)" fill="#fff6e6"/>
            </g>
          </g>
          <g id="Grupo_95389" data-name="Grupo 95389">
            <rect id="Rectángulo_35668" data-name="Rectángulo 35668" width="55.301" height="17.199" rx="4.384" fill="#ffc967"/>
            <g id="Grupo_95388" data-name="Grupo 95388" transform="translate(2.898 2.294)">
              <g id="Grupo_95386" data-name="Grupo 95386" transform="translate(0 0)">
                <circle id="Elipse_4707" data-name="Elipse 4707" cx="4.822" cy="4.822" r="4.822" transform="translate(1.318 10.956) rotate(-88)" fill="#ff6d60"/>
                <path id="Trazado_147297" data-name="Trazado 147297" d="M200.865,205.169a4.8,4.8,0,0,0,6.474,0,3.249,3.249,0,0,0-2.027-2.759,2.005,2.005,0,1,0-2.421,0A3.249,3.249,0,0,0,200.865,205.169Z" transform="translate(-197.797 -195.297)" fill="#f7f7f7"/>
              </g>
              <g id="Grupo_95387" data-name="Grupo 95387" transform="translate(14.626 3.788)">
                <rect id="Rectángulo_35669" data-name="Rectángulo 35669" width="25.7" height="0.92" fill="#fff6e6"/>
                <rect id="Rectángulo_35670" data-name="Rectángulo 35670" width="33.397" height="0.92" transform="translate(0 2.057)" fill="#fff6e6"/>
                <rect id="Rectángulo_35671" data-name="Rectángulo 35671" width="33.397" height="0.92" transform="translate(0 4.113)" fill="#fff6e6"/>
              </g>
            </g>
          </g>
          <g id="Grupo_95390" data-name="Grupo 95390" transform="translate(0 23.996)">
            <rect id="Rectángulo_35672" data-name="Rectángulo 35672" width="31.539" height="7.889" rx="2.192" fill="#ffc485"/>
            <rect id="Rectángulo_35673" data-name="Rectángulo 35673" width="31.539" height="7.889" rx="2.192" transform="translate(0 11.146)" fill="#ffd3a3"/>
            <rect id="Rectángulo_35674" data-name="Rectángulo 35674" width="31.539" height="7.889" rx="2.192" transform="translate(0 22.292)" fill="#fff0e1"/>
            <path id="Trazado_147410" data-name="Trazado 147410" d="M2.192,0H29.347a2.192,2.192,0,0,1,2.192,2.192V5.7a2.192,2.192,0,0,1-2.192,2.192H2.192A2.192,2.192,0,0,1,0,5.7V2.192A2.192,2.192,0,0,1,2.192,0Z" transform="translate(36.334 11.146)" fill="#ff6d60"/>
            <rect id="Rectángulo_35676" data-name="Rectángulo 35676" width="31.539" height="7.889" rx="2.192" transform="translate(36.334 22.292)" fill="#ffb6b0"/>
          </g>
          <g id="Grupo_95391" data-name="Grupo 95391" transform="translate(172.086 39.087)">
            <rect id="Rectángulo_35677" data-name="Rectángulo 35677" width="31.539" height="7.889" rx="2.192" fill="#ff6d60"/>
            <rect id="Rectángulo_35678" data-name="Rectángulo 35678" width="31.539" height="7.889" rx="2.192" transform="translate(0 11.146)" fill="#ff9e95"/>
            <rect id="Rectángulo_35679" data-name="Rectángulo 35679" width="31.539" height="7.889" rx="2.192" transform="translate(0 22.292)" fill="#ffe7e4"/>
          </g>
        </g>
      </g>
      <g id="Grupo_95403" data-name="Grupo 95403" transform="translate(49.222 0)">
        <g id="Grupo_95394" data-name="Grupo 95394" transform="translate(24.514 50.579)">
          <path id="Trazado_147298" data-name="Trazado 147298" d="M288.912,181.742c-1.423,35.964-18.148,39.606,0,65.55s80.655,16.752,81.717-2.889-12.137-31.475-3.489-56.053S288.912,181.742,288.912,181.742Z" transform="translate(-280.521 -175.404)" fill="#252384"/>
          <path id="Trazado_147299" data-name="Trazado 147299" d="M298.05,193.08c-2.108,16.346-7.716,32.467-4.836,41.327,0,0,.315-9.969,2.182-12.371,0,0-1.863,13.992,3.844,25.342s67.32,9.187,67.32,9.187,1.261-12.43,0-21.438S362.9,222.62,362.207,217.8c0,0,3.8,7.845,5.277,10.847a22.311,22.311,0,0,1,1.678,7.4s.4-8-2.721-14.129-1.25-23.015-.325-29.582-43.459-14.357-48.289-11.723S298.05,193.08,298.05,193.08Z" transform="translate(-285.002 -177.169)" fill="#0c0835"/>
        </g>
        <g id="Grupo_95395" data-name="Grupo 95395" transform="translate(0 83.665)">
          <path id="Trazado_147300" data-name="Trazado 147300" d="M293.045,271.434c-21.415,7.254-36.777,9.985-41.214,23.981s-10.659,29.911-10.659,29.911H385.987s-7.169-32.983-15.02-38.445-38.575-14.614-47.962-16.182S293.045,271.434,293.045,271.434Z" transform="translate(-241.172 -244.211)" fill="#fff0e1"/>
          <path id="Trazado_147301" data-name="Trazado 147301" d="M418.357,323.1s.546,13.13-1.372,22.189h4.909Z" transform="translate(-307.455 -264.172)" fill="#ffe1c2"/>
          <path id="Trazado_147302" data-name="Trazado 147302" d="M295.237,331.4s-.419,10.069,1.053,17.015h-3.765Z" transform="translate(-260.532 -267.303)" fill="#ffe1c2"/>
          <path id="Trazado_147303" data-name="Trazado 147303" d="M258.658,297.774c1.876-4.947,7.933-10.755,7.939-10.761-7.349,3.38-12.494,7.591-14.767,14.759-4.438,14-10.659,29.911-10.659,29.911h11.683C252.343,316.777,256.78,302.724,258.658,297.774Z" transform="translate(-241.172 -250.567)" fill="#ffe1c2"/>
          <path id="Trazado_147304" data-name="Trazado 147304" d="M348.948,295.643s-10.412-.683-16.727-5.462-5.462-9.559-5.462-9.559a37.409,37.409,0,0,1-6.315,0c-1.706-.341.744-18.125,10.7-18.45s30.805,3.8,33.366,3.942,11.006,7.707,8.875,17.3c-.341,1.536-4.465-2.79-6.343-.571S363.627,294.448,348.948,295.643Z" transform="translate(-270.87 -241.196)" fill="#ffb566"/>
          <path id="Trazado_147305" data-name="Trazado 147305" d="M349.824,293.543a52.5,52.5,0,0,1-18.137-24.861c-.891-2.606.614-4.063,3.38-4.506Z" transform="translate(-275.2 -241.958)" fill="#ffa648"/>
          <path id="Trazado_147306" data-name="Trazado 147306" d="M367.348,298.316c7.323-4.687,14.065-16.208,16.113-20.048s2.13-7.455-4.141-8.123S367.348,298.316,367.348,298.316Z" transform="translate(-288.741 -244.204)" fill="#ffa648"/>
          <path id="Trazado_147307" data-name="Trazado 147307" d="M367.953,231.088c-1.886,15.227-2.967,23.368,2.126,29.683,0,0-9.075,18.434-15.56,22.189,0,0-15.532-11.094-19.8-28.845a21.655,21.655,0,0,0,2.9-9.729,147.414,147.414,0,0,0-.512-15.873Z" transform="translate(-276.44 -228.512)" fill="#ffc5c7"/>
          <path id="Trazado_147309" data-name="Trazado 147309" d="M337.711,244.521A22.049,22.049,0,0,1,334.959,254c7.026-1.247,22.1-4.137,31.55-7.505.149-4.174.776-9.15,1.534-15.274l-18.816-1.571-12.01-.781A143.031,143.031,0,0,1,337.711,244.521Z" transform="translate(-276.53 -228.648)" fill="#fe8a8b"/>
        </g>
        <g id="Grupo_95402" data-name="Grupo 95402" transform="translate(28.36)">
          <g id="Grupo_95396" data-name="Grupo 95396" transform="translate(72.391 15.373)">
            <path id="Trazado_147310" data-name="Trazado 147310" d="M419.734,150.964c.6-9.6.762-18.34-6.732-29.539s-5.91,18.354-5.788,18.692,6.643,12.8,6.643,12.8Z" transform="translate(-404.438 -118.892)" fill="#ffa6a4"/>
            <path id="Trazado_147311" data-name="Trazado 147311" d="M420.4,189.024c-.952,5.523-.307,10.083,2.341,10.539s5.565-3.651,6.517-9.173-.424-10.37-3.071-10.826S421.354,183.5,420.4,189.024Z" transform="translate(-409.337 -141.753)" fill="#f97068"/>
            <path id="Trazado_147312" data-name="Trazado 147312" d="M426.591,200.242l-1.667.678-1.634,4.527s-.277.561-.617,1.283a2.318,2.318,0,0,0,1.083.508c2.346.4,4.9-2.778,6.116-7.35C427.766,200.982,426.591,200.242,426.591,200.242Z" transform="translate(-410.35 -149.427)" fill="#cb3034"/>
            <path id="Trazado_147313" data-name="Trazado 147313" d="M411.508,167.457c2.054-.381,7.88,1.164,8.541,4.173,1.5,6.843-.994,22.717-5.578,26.635-1.671,1.428-6.323,1.138-7.974.63-4.19-1.286-4.2-7.985-2.672-16.873S408.657,167.985,411.508,167.457Z" transform="translate(-402.893 -137.18)" fill="#f97068"/>
            <path id="Trazado_147314" data-name="Trazado 147314" d="M419.2,200.457c-2.132,1.538-3.239,0-3.239,0-1.445,3.073-4.1,3.071-7.455,3.526l-1.881-.995s-1.837,1.351-3.56,2.574c.31,3.059,1.356,5.14,3.5,5.8,1.651.507,6.3.8,7.974-.63C416.543,209.011,418.151,205,419.2,200.457Z" transform="translate(-402.957 -149.642)" fill="#cb3034"/>
            <path id="Trazado_147315" data-name="Trazado 147315" d="M423.074,171.63c-.661-3.01-6.487-4.554-8.541-4.173a3.138,3.138,0,0,0-.515.146c3.765-.279,5.736,2.356,6.168,5.375s0,16.679-4.432,22.7a6.433,6.433,0,0,1-4.838,3.491c2.092.275,5.261.22,6.579-.907C422.08,194.347,424.578,178.473,423.074,171.63Z" transform="translate(-405.918 -137.18)" fill="#ffa6a4"/>
            <path id="Trazado_147316" data-name="Trazado 147316" d="M422.159,200.457c-2.132,1.538-3.239,0-3.239,0v0a21.84,21.84,0,0,1-3.164,7.685,6.433,6.433,0,0,1-4.838,3.491c2.092.275,5.261.22,6.579-.907C419.5,209.011,421.112,205,422.159,200.457Z" transform="translate(-405.918 -149.642)" fill="#f97068"/>
            <path id="Trazado_147317" data-name="Trazado 147317" d="M414.124,187.344c-.83,4.821-2.551,8.549-3.842,8.327s-1.664-4.311-.833-9.132,2.551-8.549,3.841-8.327S414.955,182.522,414.124,187.344Z" transform="translate(-405.198 -141.252)" fill="#cb3034"/>
          </g>
          <path id="Trazado_147318" data-name="Trazado 147318" d="M311.288,184.092q.087.21.178.421a48.589,48.589,0,0,0,9.592,13.655c5.476,5.58,12.907,10.43,20.786,11.486,8.468,1.135,16.236-3.575,21.9-9.618a21.781,21.781,0,0,0,5.477-9.941c.893-3.971.408-8.227,1.057-12.284a36.513,36.513,0,0,1,1.962-6.318,46.427,46.427,0,0,0,2.617-20.4c-.323-2.855-.789-6.947-2.334-9.423-1.777-2.846-5.885-5.085-8.658-6.82-8.888-5.562-20.671-7.6-30.771-4.454-10.325,3.215-18.743,11.491-23.093,21.278-2.07,4.659-3.274,9.244-2.268,14.265C308.984,172.194,308.8,178.063,311.288,184.092Z" transform="translate(-294.489 -107.297)" fill="#ffc5c7"/>
          <path id="Trazado_147319" data-name="Trazado 147319" d="M310.336,162.9s16.044,4.408,30.21,0,18.975-13.285,20.155-17.893c0,0,11.572,9.073,13.886,22.458,0,0,.795-23.766-6.589-26.725s-22.843-6.827-24.55-5.291-30.382,17.922-30.382,17.922Z" transform="translate(-295.607 -109.631)" fill="#fe8a8b"/>
          <g id="Grupo_95398" data-name="Grupo 95398" transform="translate(31.058 51.027)">
            <path id="Trazado_147320" data-name="Trazado 147320" d="M336.547,178.7a31.827,31.827,0,0,1,3.618-1.489,19.9,19.9,0,0,1,3.877-.887,10.827,10.827,0,0,1,4.041-.011,7.17,7.17,0,0,1,3.628,1.8l-.064.176a18.19,18.19,0,0,1-1.979-.024l-1.866-.1c-1.219-.047-2.418-.343-3.666-.345a24.717,24.717,0,0,0-3.75.3c-1.262.175-2.514.469-3.775.757Z" transform="translate(-336.547 -176.122)" fill="#0c0835"/>
            <path id="Trazado_147321" data-name="Trazado 147321" d="M394.4,179.188a14.436,14.436,0,0,0-3.7-1.036,19.735,19.735,0,0,0-3.781-.189c-1.264.059-2.479.4-3.724.474a36.557,36.557,0,0,1-3.9.166l-.064-.176a8.928,8.928,0,0,1,3.653-1.832,11.727,11.727,0,0,1,4.068-.126,16.912,16.912,0,0,1,3.97.776,13.278,13.278,0,0,1,3.575,1.782Z" transform="translate(-352.636 -176.209)" fill="#0c0835"/>
            <ellipse id="Elipse_4708" data-name="Elipse 4708" cx="1.219" cy="2.492" rx="1.219" ry="2.492" transform="translate(6.584 7.268)" fill="#0c0835"/>
            <ellipse id="Elipse_4709" data-name="Elipse 4709" cx="1.171" cy="2.492" rx="1.171" ry="2.492" transform="translate(32.281 7.388)" fill="#0c0835"/>
            <path id="Trazado_147322" data-name="Trazado 147322" d="M372.05,211.028a4.661,4.661,0,0,1-1.809,2.31,3.174,3.174,0,0,1-2.857.3c-1.481-.626-1.89-2.356.126-1.964a6.94,6.94,0,0,0,2.337.134C370.26,211.752,371.873,211.49,372.05,211.028Z" transform="translate(-347.701 -189.282)" fill="#fe8a8b"/>
            <g id="Grupo_95397" data-name="Grupo 95397" transform="translate(9.666 28.52)">
              <path id="Trazado_147323" data-name="Trazado 147323" d="M352.062,221.9a185.308,185.308,0,0,0,21.3.756c-1.635,5.421-5.655,10.732-11.165,10.537C356.543,232.994,353.258,227.552,352.062,221.9Z" transform="translate(-352.062 -221.901)" fill="#c31f2a"/>
              <path id="Trazado_147324" data-name="Trazado 147324" d="M370.973,234.461c-4.254-3.582-7.324-.518-7.324-.518a5.564,5.564,0,0,0-6.006-.178,9.213,9.213,0,0,0,4.913,3.256c.616.083,1.257.169,1.9.249A9.1,9.1,0,0,0,370.973,234.461Z" transform="translate(-354.166 -225.981)" fill="#fb8384"/>
              <path id="Trazado_147325" data-name="Trazado 147325" d="M354.181,222.137a13.109,13.109,0,0,0,.537,2.676,29.478,29.478,0,0,0,17.295.892,29.217,29.217,0,0,0,.471-2.911C367.9,222.865,359.106,222.622,354.181,222.137Z" transform="translate(-352.861 -221.99)" fill="#fff"/>
            </g>
          </g>
          <g id="Grupo_95399" data-name="Grupo 95399" transform="translate(61.247 75.785)">
            <path id="Trazado_147326" data-name="Trazado 147326" d="M400.455,230.172a5.627,5.627,0,0,1-1.21-.03c-3.877-.525-5.954-.815-5.954-.815l.237-1.7s2.075.289,5.947.814c3.57.487,8.148-5.186,9.356-11.855a.864.864,0,0,1,.962-.715h0a.854.854,0,0,1,.733.986C409.272,223.9,404.654,229.837,400.455,230.172Z" transform="translate(-388.129 -215.863)" fill="#ffa6a4"/>
            <path id="Trazado_147327" data-name="Trazado 147327" d="M410.324,216.339a.846.846,0,0,1-.011.185c-1.255,7.039-5.873,12.98-10.073,13.315a5.63,5.63,0,0,1-1.21-.03c-3.06-.414-4.993-.682-5.674-.776l-.066.473s2.077.29,5.954.815a5.668,5.668,0,0,0,1.21.03c4.2-.335,8.817-6.277,10.072-13.315A.827.827,0,0,0,410.324,216.339Z" transform="translate(-388.129 -216.043)" fill="#f97068"/>
            <path id="Trazado_147328" data-name="Trazado 147328" d="M390.261,236.165l-3.4-.465a2.145,2.145,0,0,1-1.835-2.417h0a2.146,2.146,0,0,1,2.417-1.835l3.4.466a2.145,2.145,0,0,1,1.835,2.417h0A2.145,2.145,0,0,1,390.261,236.165Z" transform="translate(-385.006 -221.731)" fill="#252384"/>
            <path id="Trazado_147329" data-name="Trazado 147329" d="M392.181,233.4a2.1,2.1,0,0,1-.015.423h0a2.145,2.145,0,0,1-2.417,1.835l-2.976-.407a2.136,2.136,0,0,1-1.71-1.378c-.011.052-.03.1-.037.155h0a2.145,2.145,0,0,0,1.835,2.417l3.4.465a2.145,2.145,0,0,0,2.417-1.834h0A2.132,2.132,0,0,0,392.181,233.4Z" transform="translate(-385.006 -222.474)" fill="#261b60"/>
          </g>
          <g id="Grupo_95400" data-name="Grupo 95400" transform="translate(3.294 0.16)">
            <path id="Trazado_147330" data-name="Trazado 147330" d="M380.89,126.915s17.069,7.169,17.239,30.552c0,0,13.655-15.02,5.633-37.55S372.527,98.24,372.527,98.24Z" transform="translate(-322.348 -95.892)" fill="#252384"/>
            <path id="Trazado_147331" data-name="Trazado 147331" d="M385.508,141.941s16.648,7.007,17.214,29.724c0-.131,0-.256,0-.391-.279-22.919-8.224-29.007-16.076-33.181l-1.87,1.339Z" transform="translate(-326.966 -110.918)" fill="#261b60"/>
            <path id="Trazado_147332" data-name="Trazado 147332" d="M302.449,146.319s47.052,2.731,50.806-21.164-8.306-29.695-14.224-30.268-17.446-1.943-27.309,7.624-20.873,15.361-19.647,46.311Z" transform="translate(-291.981 -94.473)" fill="#252384"/>
            <path id="Trazado_147333" data-name="Trazado 147333" d="M307.216,157.234c2.052-1.142,4.1-2.313,6.08-3.6q2.988-1.907,5.863-4.011a123.609,123.609,0,0,0,11.051-9.026,124.176,124.176,0,0,1-10.2,10.089q-2.688,2.392-5.533,4.618c-1.884,1.5-3.855,2.9-5.851,4.271Z" transform="translate(-297.725 -111.86)" fill="#0c0835"/>
            <path id="Trazado_147334" data-name="Trazado 147334" d="M334.051,110.638c-11.149,6.031-23.409,20.535-23.646,32.55a9.949,9.949,0,0,1-2.235-10.65c2.479-6.274,9.779-13.224,13.822-16.21S334.051,110.638,334.051,110.638Z" transform="translate(-297.813 -100.568)" fill="#0c0835"/>
            <path id="Trazado_147335" data-name="Trazado 147335" d="M305.251,141.182c-1.494-3.871-.47-17.081,0-20.835a35.188,35.188,0,0,1,2.005-7.318c.15-.7-.174-.916-.174-.916,7.763-11.947,18.779-13.656,29.949-17.15l-.642-.317c-6.313-.5-16.114-.428-24.666,7.867-9.863,9.566-20.873,15.361-19.647,46.312l10.373-2.5s16.091.931,30.2-3.072C316.96,146.33,306.744,145.052,305.251,141.182Z" transform="translate(-291.981 -94.474)" fill="#0c0835"/>
            <path id="Trazado_147336" data-name="Trazado 147336" d="M351.385,143.6c-4.611,7.2-10.318,13.916-32.1,17.045-14.513,2.085-16.807-.893-16.807-.893s25.33-1.687,35.564-6.88S351.385,143.6,351.385,143.6Z" transform="translate(-295.937 -112.994)" fill="#0c0835"/>
          </g>
          <g id="Grupo_95401" data-name="Grupo 95401">
            <path id="Trazado_147337" data-name="Trazado 147337" d="M310.053,112.583c2.82-8.25,16.955-17.565,33.34-17.792a34.008,34.008,0,0,0-18.206,1.593c-9.786,3.641-16.83,9.58-20.7,16.283S310.053,112.583,310.053,112.583Z" transform="translate(-293.049 -94.216)" fill="#ffa6a4"/>
            <path id="Trazado_147338" data-name="Trazado 147338" d="M324.675,98.958a32.9,32.9,0,0,0-13.939,11.18c-.452.057-4.539.818-4.6.83-.465.672-.906,1.351-1.305,2.042-.14.24-.257.46-.363.667a13.707,13.707,0,0,1,3.657.047,2.3,2.3,0,0,0,1.247-.094c.615-.406,1.028-.7,1.028-.7,2.82-8.25,16.955-17.565,33.34-17.792C338.223,95.063,333.636,95.374,324.675,98.958Z" transform="translate(-293.394 -94.559)" fill="#f97068"/>
            <path id="Trazado_147339" data-name="Trazado 147339" d="M305.759,152.052c-.772-15.326,1.394-25.779,3.328-28.624s-6-1.607-7.6.625c-1.032,1.447-4.524,13.638-3.243,28.105S305.759,152.052,305.759,152.052Z" transform="translate(-290.945 -104.606)" fill="#ffa6a4"/>
            <path id="Trazado_147340" data-name="Trazado 147340" d="M307.727,121.776c.682.259.88.6.4,1.339s-2.475,7.225-2.987,12.943-.256,11.72-.369,12.4-5.119,1.943-6.627,1.257c.044.806.1,1.619.172,2.441.095,1.068.217,1.974.361,2.743,1.52.171,3.63.247,5.557.276a30.781,30.781,0,0,0,1.594-3.126c-.772-15.326,1.394-25.779,3.328-28.624C309.933,122.278,309.1,121.8,307.727,121.776Z" transform="translate(-291.01 -104.607)" fill="#f97068"/>
            <path id="Trazado_147341" data-name="Trazado 147341" d="M302.236,169.078c-2-.59-7.958.346-8.926,3.271-2.2,6.652-1.35,22.7,2.807,27.069,1.514,1.592,6.171,1.782,7.866,1.448,4.3-.848,5-7.51,4.4-16.507S305.017,169.9,302.236,169.078Z" transform="translate(-288.744 -122.377)" fill="#f97068"/>
            <path id="Trazado_147342" data-name="Trazado 147342" d="M296.756,207.219c1.514,1.592,6.171,1.782,7.866,1.448,2.471-.487,3.75-2.9,4.279-6.569-2.068,1.774-7.355,1.206-10.028,0,0,0,.439-7.989-.977-12.494a98.631,98.631,0,0,0-4.071,10.769C294.487,203.362,295.461,205.857,296.756,207.219Z" transform="translate(-289.383 -130.177)" fill="#cb3034"/>
            <path id="Trazado_147343" data-name="Trazado 147343" d="M300.808,185.858c.543,8.037-1.354,14.71-4.239,14.9s-5.662-6.162-6.206-14.2,1.354-14.71,4.239-14.9S300.265,177.821,300.808,185.858Z" transform="translate(-288.043 -123.411)" fill="#ffa6a4"/>
            <path id="Trazado_147344" data-name="Trazado 147344" d="M298.191,199.881s-3.685.46-5.107,6.036c1.19,3.434,2.848,5.6,4.546,5.487,1.467-.1,2.677-1.88,3.442-4.659a12.377,12.377,0,0,1-2.478-.774S298.918,204.672,298.191,199.881Z" transform="translate(-289.103 -134.053)" fill="#f97068"/>
            <path id="Trazado_147345" data-name="Trazado 147345" d="M295.7,189.426c.407,6.019-.682,10.823-3.362,11s-5.183-4.552-5.589-10.571,1.436-11.046,4.116-11.226S295.3,183.406,295.7,189.426Z" transform="translate(-286.694 -126.04)" fill="#f97068"/>
            <path id="Trazado_147346" data-name="Trazado 147346" d="M292.58,206.359a4.3,4.3,0,0,1-3.471-1.944c1.063,2.542,2.57,4.134,4.142,4.027,2.306-.156,3.43-3.735,3.441-8.562C296.12,203.68,294.761,206.212,292.58,206.359Z" transform="translate(-287.605 -134.053)" fill="#cb3034"/>
          </g>
        </g>
      </g>
    </g>
    <g id="Grupo_95408" data-name="Grupo 95408" transform="translate(36.955 68.671)">
      <g id="Grupo_95405" data-name="Grupo 95405" transform="translate(0 112.793)">
        <path id="Trazado_147409" data-name="Trazado 147409" d="M3,0H48.925a3,3,0,0,1,3,3V28.1a3,3,0,0,1-3,3H3a3,3,0,0,1-3-3V3A3,3,0,0,1,3,0Z" transform="translate(0 0)" fill="#ffa648"/>
        <path id="Trazado_147347" data-name="Trazado 147347" d="M86.079,287.517H39.757a2.8,2.8,0,0,1-2.8-2.8l25.963-17.233L88.88,284.716A2.8,2.8,0,0,1,86.079,287.517Z" transform="translate(-36.955 -256.417)" fill="#ffb566"/>
        <path id="Trazado_147348" data-name="Trazado 147348" d="M86.079,249.721H39.757a2.8,2.8,0,0,0-2.8,2.8l25.963,17.233L88.88,252.523A2.8,2.8,0,0,0,86.079,249.721Z" transform="translate(-36.955 -249.721)" fill="#ffe1c2"/>
      </g>
      <g id="Grupo_95406" data-name="Grupo 95406" transform="translate(248.408)">
        <path id="Trazado_147349" data-name="Trazado 147349" d="M545.156,68.671H441.533a5.845,5.845,0,0,0-5.845,5.845V98.752a5.846,5.846,0,0,0,5.845,5.846h10.408l-3.547,8.756,11.794-8.756h84.968A5.845,5.845,0,0,0,551,98.752V74.516A5.845,5.845,0,0,0,545.156,68.671Z" transform="translate(-435.688 -68.671)" fill="#ffc967"/>
        <path id="Trazado_147350" data-name="Trazado 147350" d="M545.166,88.2H466.192a1.366,1.366,0,0,1,0-2.731h78.973a1.366,1.366,0,0,1,0,2.731Zm1.366,4.768a1.365,1.365,0,0,0-1.366-1.365H455.225a1.365,1.365,0,1,0,0,2.731h89.941A1.365,1.365,0,0,0,546.531,92.966ZM507.045,99.1a1.366,1.366,0,0,0-1.366-1.366H455.225a1.365,1.365,0,1,0,0,2.731h50.454A1.366,1.366,0,0,0,507.045,99.1Z" transform="translate(-442.539 -75.003)" fill="#fff"/>
      </g>
      <g id="Grupo_95407" data-name="Grupo 95407" transform="translate(27.366 155.192)">
        <path id="Trazado_147352" data-name="Trazado 147352" d="M89.756,344.256a16.759,16.759,0,0,1-.733-2.819,6.2,6.2,0,0,1,.217-2.847,8.033,8.033,0,0,1,1.929-3.056q.45-.491,1.309-1.355a19.17,19.17,0,0,0,1.674-1.931,8.587,8.587,0,0,0,1.239-2.2,3.092,3.092,0,0,0,.061-2.175,2.259,2.259,0,0,0-.895-1.167,2.922,2.922,0,0,0-1.415-.483,3.912,3.912,0,0,0-1.6.224,3.456,3.456,0,0,0-1.787,1.281,5.417,5.417,0,0,0-.8,1.755c-.149.6-.3,1.116-.449,1.546l-7.63-2.194a10.358,10.358,0,0,1,1.19-4.358,11.662,11.662,0,0,1,2.874-3.5,13.573,13.573,0,0,1,4.242-2.369,14.973,14.973,0,0,1,4.053-.807,11.57,11.57,0,0,1,4.175.5,9.256,9.256,0,0,1,3.7,2.239,11.079,11.079,0,0,1,2.655,4.4,13.385,13.385,0,0,1,.608,2.372,8.42,8.42,0,0,1,.048,2.315,8.7,8.7,0,0,1-.611,2.293,10.823,10.823,0,0,1-1.321,2.291,21.075,21.075,0,0,1-2.4,2.755,18.6,18.6,0,0,0-2.1,2.338,2.286,2.286,0,0,0-.417,2.2Zm3.37,9.1-.159-.452a4.146,4.146,0,0,1,2.537-5.286h0a4.145,4.145,0,0,1,5.285,2.536l.158.452a4.145,4.145,0,0,1-2.536,5.285h0A4.145,4.145,0,0,1,93.126,353.359Z" transform="translate(-80.882 -317.777)" fill="#ffd3a3"/>
      </g>
    </g>
  </g>
</svg>
