<svg xmlns="http://www.w3.org/2000/svg" xmlns:xlink="http://www.w3.org/1999/xlink" width="1031.667" height="225" viewBox="0 0 1031.667 225">
  <defs>
    <linearGradient id="linear-gradient" x1="0.5" x2="0.165" y2="0.602" gradientUnits="objectBoundingBox">
      <stop offset="0" stop-color="#6a2d9d"/>
      <stop offset="0.473" stop-color="#dbcde7"/>
      <stop offset="1" stop-color="#9368b7"/>
    </linearGradient>
    <clipPath id="clip-path">
      <path id="Recurso_1" data-name="Recurso 1" d="M0,0H1031.667V225H0Z" transform="translate(0.333 69)" fill="url(#linear-gradient)"/>
    </clipPath>
  </defs>
  <g id="Grupo_100500" data-name="Grupo 100500" transform="translate(3480 6926)">
    <rect id="Rectángulo_35757" data-name="Rectángulo 35757" width="1030" height="225" transform="translate(-3480 -6926)" fill="#fff6e6"/>
    <g id="Enmascarar_grupo_146" data-name="Enmascarar grupo 146" transform="translate(-3480.333 -6995)" clip-path="url(#clip-path)">
      <g id="Grupo_96525" data-name="Grupo 96525" transform="translate(-240.954 22.604)">
        <g id="Grupo_96524" data-name="Grupo 96524" transform="translate(129.66)" style="isolation: isolate">
          <path id="Trazado_148152" data-name="Trazado 148152" d="M254.088-172.669c-13.814,22.59-36.683,36.5-59.644,46.931s-47.117,18.375-68.089,32.974S87.439-55.079,85.716-27.976c-.689,10.846,1.2,22.09-1.939,32.409C80.14,16.4,69.991,25.128,58.866,28.473S35.8,30.354,24.741,26.746C-3.02,17.683-26.688-5.309-38.171-34.37s-10.569-63.648,2.432-91.936c14.218-30.935,40.795-52.46,66.43-72.8l76.162-60.434c16.645-13.208,33.3-29.807,51.878-39.8,36.819-19.817,88.16,8.6,102.3,48.154C270.042-225.981,268.154-195.3,254.088-172.669Z" transform="translate(46.18 305.819)" fill="#ffedcc"/>
        </g>
      </g>
      <g id="Grupo_96565" data-name="Grupo 96565" transform="translate(23.586 79.499)">
        <g id="Grupo_96528" data-name="Grupo 96528" transform="translate(75.039 181.582)">
          <g id="Grupo_96526" data-name="Grupo 96526" transform="translate(0 4.325)">
            <path id="Trazado_148153" data-name="Trazado 148153" d="M342.862,220.012h-7.917a1.336,1.336,0,0,1,0-2.662h7.917a1.336,1.336,0,0,1,0,2.662Z" transform="translate(-333.727 -217.35)" fill="#fff"/>
          </g>
          <g id="Grupo_96527" data-name="Grupo 96527" transform="translate(3.958)">
            <path id="Trazado_148154" data-name="Trazado 148154" d="M338.965,224.641a1.278,1.278,0,0,1-1.218-1.332v-8.65a1.223,1.223,0,1,1,2.437,0v8.65A1.279,1.279,0,0,1,338.965,224.641Z" transform="translate(-337.747 -213.329)" fill="#fff"/>
          </g>
        </g>
        <g id="Grupo_96531" data-name="Grupo 96531" transform="translate(423.693 383.582)">
          <g id="Grupo_96529" data-name="Grupo 96529" transform="translate(0 4.325)">
            <path id="Trazado_148155" data-name="Trazado 148155" d="M342.862,220.012h-7.917a1.336,1.336,0,0,1,0-2.662h7.917a1.336,1.336,0,0,1,0,2.662Z" transform="translate(-333.727 -217.35)" fill="#fff"/>
          </g>
          <g id="Grupo_96530" data-name="Grupo 96530" transform="translate(3.958)">
            <path id="Trazado_148156" data-name="Trazado 148156" d="M338.965,224.641a1.278,1.278,0,0,1-1.218-1.332v-8.65a1.223,1.223,0,1,1,2.437,0v8.65A1.279,1.279,0,0,1,338.965,224.641Z" transform="translate(-337.747 -213.329)" fill="#fff"/>
          </g>
        </g>
        <g id="Grupo_96534" data-name="Grupo 96534" transform="translate(441.708 57.853)">
          <g id="Grupo_96532" data-name="Grupo 96532" transform="translate(0 4.325)">
            <path id="Trazado_148157" data-name="Trazado 148157" d="M715.314,104.974H707.4a1.336,1.336,0,0,1,0-2.662h7.917a1.336,1.336,0,0,1,0,2.662Z" transform="translate(-706.179 -102.312)" fill="#fff"/>
          </g>
          <g id="Grupo_96533" data-name="Grupo 96533" transform="translate(3.959)">
            <path id="Trazado_148158" data-name="Trazado 148158" d="M711.418,109.6a1.278,1.278,0,0,1-1.218-1.33V99.621a1.223,1.223,0,1,1,2.437,0v8.651A1.278,1.278,0,0,1,711.418,109.6Z" transform="translate(-710.2 -98.291)" fill="#fff"/>
          </g>
        </g>
        <g id="Grupo_96537" data-name="Grupo 96537" transform="translate(137.828 55.369)">
          <g id="Grupo_96535" data-name="Grupo 96535" transform="translate(0 5.126)">
            <path id="Trazado_148159" data-name="Trazado 148159" d="M407.734,102.591h-9.385a.925.925,0,0,1,0-1.843h9.385a.925.925,0,0,1,0,1.843Z" transform="translate(-397.506 -100.748)" fill="#fff"/>
          </g>
          <g id="Grupo_96536" data-name="Grupo 96536" transform="translate(4.692)">
            <path id="Trazado_148160" data-name="Trazado 148160" d="M403.116,108.078a.885.885,0,0,1-.844-.922V96.9a.847.847,0,1,1,1.686,0v10.252A.884.884,0,0,1,403.116,108.078Z" transform="translate(-402.272 -95.982)" fill="#fff"/>
          </g>
        </g>
        <g id="Grupo_96540" data-name="Grupo 96540" transform="translate(0 247.914)">
          <g id="Grupo_96538" data-name="Grupo 96538" transform="translate(0 5.126)">
            <path id="Trazado_148161" data-name="Trazado 148161" d="M267.732,281.609h-9.385a.924.924,0,0,1,0-1.841h9.385a.924.924,0,0,1,0,1.841Z" transform="translate(-257.504 -279.768)" fill="#fff"/>
          </g>
          <g id="Grupo_96539" data-name="Grupo 96539" transform="translate(4.692)">
            <path id="Trazado_148162" data-name="Trazado 148162" d="M263.113,287.1a.883.883,0,0,1-.843-.921V275.923a.846.846,0,1,1,1.685,0v10.252A.883.883,0,0,1,263.113,287.1Z" transform="translate(-262.27 -275.002)" fill="#fff"/>
          </g>
        </g>
        <g id="Grupo_96543" data-name="Grupo 96543" transform="translate(219.368 28.707)" opacity="0.3">
          <g id="Grupo_96541" data-name="Grupo 96541" transform="translate(0 4.325)">
            <path id="Trazado_148163" data-name="Trazado 148163" d="M498.765,84.384h-7.917a1.336,1.336,0,0,1,0-2.662h7.917a1.336,1.336,0,0,1,0,2.662Z" transform="translate(-489.63 -81.722)" fill="#fff"/>
          </g>
          <g id="Grupo_96542" data-name="Grupo 96542" transform="translate(3.958)">
            <path id="Trazado_148164" data-name="Trazado 148164" d="M494.869,89.013a1.279,1.279,0,0,1-1.219-1.332v-8.65a1.223,1.223,0,1,1,2.437,0v8.65A1.278,1.278,0,0,1,494.869,89.013Z" transform="translate(-493.65 -77.701)" fill="#fff"/>
          </g>
        </g>
        <g id="Grupo_96546" data-name="Grupo 96546" transform="translate(120.685 226.077)">
          <g id="Grupo_96544" data-name="Grupo 96544" transform="translate(0 3.047)">
            <path id="Trazado_148165" data-name="Trazado 148165" d="M433.017,239.882h-5.578a.941.941,0,0,1,0-1.875h5.578a.941.941,0,0,1,0,1.875Z" transform="translate(-426.581 -238.007)" fill="#fff"/>
          </g>
          <g id="Grupo_96545" data-name="Grupo 96545" transform="translate(2.789)">
            <path id="Trazado_148166" data-name="Trazado 148166" d="M430.272,243.143a.9.9,0,0,1-.858-.937v-6.1a.862.862,0,1,1,1.717,0v6.1A.9.9,0,0,1,430.272,243.143Z" transform="translate(-429.414 -235.174)" fill="#fff"/>
          </g>
        </g>
        <g id="Grupo_96549" data-name="Grupo 96549" transform="translate(306.478 0.291)" opacity="0.3">
          <g id="Grupo_96547" data-name="Grupo 96547" transform="translate(0 2.163)">
            <path id="Trazado_148167" data-name="Trazado 148167" d="M573.385,48.113h-3.959a.668.668,0,0,1,0-1.33h3.959a.668.668,0,0,1,0,1.33Z" transform="translate(-568.816 -46.783)" fill="#fff"/>
          </g>
          <g id="Grupo_96548" data-name="Grupo 96548" transform="translate(1.98)">
            <path id="Trazado_148168" data-name="Trazado 148168" d="M571.436,50.428a.639.639,0,0,1-.609-.666V45.438a.612.612,0,1,1,1.219,0v4.325A.639.639,0,0,1,571.436,50.428Z" transform="translate(-570.827 -44.772)" fill="#fff"/>
          </g>
        </g>
        <g id="Grupo_96550" data-name="Grupo 96550" transform="translate(176.09 20.044)">
          <path id="Trazado_148169" data-name="Trazado 148169" d="M451.3,81.949a6.176,6.176,0,1,1,5.629-6.151A5.914,5.914,0,0,1,451.3,81.949Zm0-10.031a3.895,3.895,0,1,0,3.551,3.879A3.731,3.731,0,0,0,451.3,71.919Z" transform="translate(-445.669 -69.646)" fill="#fff"/>
        </g>
        <g id="Grupo_96551" data-name="Grupo 96551" transform="translate(428.414 178.158)">
          <path id="Trazado_148170" data-name="Trazado 148170" d="M715.979,240.39a3.088,3.088,0,1,1,2.816-3.075A2.958,2.958,0,0,1,715.979,240.39Zm0-5.015a1.947,1.947,0,1,0,1.775,1.94A1.865,1.865,0,0,0,715.979,235.375Z" transform="translate(-713.164 -234.239)" fill="#fff"/>
        </g>
        <g id="Grupo_96552" data-name="Grupo 96552" transform="translate(267.202)">
          <path id="Trazado_148171" data-name="Trazado 148171" d="M529.9,111.666a6.176,6.176,0,1,1,5.631-6.151A5.915,5.915,0,0,1,529.9,111.666Zm0-10.032a3.9,3.9,0,1,0,3.553,3.881A3.731,3.731,0,0,0,529.9,101.635Z" transform="translate(-524.272 -99.363)" fill="#fff"/>
        </g>
        <g id="Grupo_96553" data-name="Grupo 96553" transform="translate(19.841 326.263)">
          <path id="Trazado_148172" data-name="Trazado 148172" d="M234.55,360.15A6.175,6.175,0,1,1,240.181,354,5.914,5.914,0,0,1,234.55,360.15Zm0-10.032A3.9,3.9,0,1,0,238.1,354,3.73,3.73,0,0,0,234.55,350.118Z" transform="translate(-228.92 -347.848)" fill="#fff"/>
        </g>
        <g id="Grupo_96554" data-name="Grupo 96554" transform="translate(480.248 431.263)">
          <path id="Trazado_148173" data-name="Trazado 148173" d="M234.55,360.15A6.175,6.175,0,1,1,240.181,354,5.914,5.914,0,0,1,234.55,360.15Zm0-10.032A3.9,3.9,0,1,0,238.1,354,3.73,3.73,0,0,0,234.55,350.118Z" transform="translate(-228.92 -347.848)" fill="#fff"/>
        </g>
        <g id="Grupo_96555" data-name="Grupo 96555" transform="translate(19.971 73.97)">
          <path id="Trazado_148174" data-name="Trazado 148174" d="M283.062,124.794a5.782,5.782,0,1,1,5.271-5.76A5.538,5.538,0,0,1,283.062,124.794Zm0-10.943a5.2,5.2,0,1,0,4.744,5.183A4.984,4.984,0,0,0,283.062,113.851Z" transform="translate(-277.79 -113.276)" fill="#fff"/>
        </g>
        <g id="Grupo_96556" data-name="Grupo 96556" transform="translate(458.756 146.421)">
          <path id="Trazado_148175" data-name="Trazado 148175" d="M727.429,189.233a4.314,4.314,0,1,1,3.934-4.3A4.132,4.132,0,0,1,727.429,189.233Zm0-7.93a3.646,3.646,0,1,0,3.325,3.632A3.493,3.493,0,0,0,727.429,181.3Z" transform="translate(-723.496 -180.638)" fill="#fff"/>
        </g>
        <g id="Grupo_96557" data-name="Grupo 96557" transform="translate(58.949 135.926)">
          <path id="Trazado_148176" data-name="Trazado 148176" d="M321.317,179.475a4.314,4.314,0,1,1,3.933-4.3A4.133,4.133,0,0,1,321.317,179.475Zm0-7.929a3.646,3.646,0,1,0,3.324,3.631A3.492,3.492,0,0,0,321.317,171.546Z" transform="translate(-317.383 -170.88)" fill="#fff"/>
        </g>
        <g id="Grupo_96558" data-name="Grupo 96558" transform="translate(311.358 9.68)">
          <path id="Trazado_148177" data-name="Trazado 148177" d="M660.464,119.5a.459.459,0,0,1-.171-.033,15.946,15.946,0,0,1-1.529-.718.562.562,0,0,1-.225-.72.477.477,0,0,1,.66-.246,14.883,14.883,0,0,0,1.437.675.554.554,0,0,1,.29.692A.5.5,0,0,1,660.464,119.5Zm-4.782-3.029a.467.467,0,0,1-.313-.122,19.541,19.541,0,0,1-2.817-3.16.571.571,0,0,1,.085-.755.465.465,0,0,1,.69.092,18.568,18.568,0,0,0,2.667,2.991.571.571,0,0,1,.067.757A.473.473,0,0,1,655.682,116.47ZM641.5,113.776l-.042,0a10.229,10.229,0,0,1-3.7-1.045l-.252-.132a.563.563,0,0,1-.224-.721.477.477,0,0,1,.66-.244l.232.123a9.291,9.291,0,0,0,3.367.948.525.525,0,0,1,.449.581A.512.512,0,0,1,641.5,113.776Zm3.915-.288a.5.5,0,0,1-.481-.429.538.538,0,0,1,.383-.635,16.811,16.811,0,0,0,3.639-1.291.478.478,0,0,1,.65.274.559.559,0,0,1-.25.71,17.748,17.748,0,0,1-3.84,1.359A.447.447,0,0,1,645.42,113.487Zm-10.8-3.432a.474.474,0,0,1-.362-.174,16.771,16.771,0,0,1-2.3-3.656.561.561,0,0,1,.213-.724.473.473,0,0,1,.663.232,15.743,15.743,0,0,0,2.145,3.419.573.573,0,0,1-.029.76A.469.469,0,0,1,634.618,110.055Zm17.933-.06a.479.479,0,0,1-.394-.215.572.572,0,0,1,.1-.753,16.445,16.445,0,0,0,2.759-2.872.466.466,0,0,1,.693-.076.574.574,0,0,1,.07.757,17.462,17.462,0,0,1-2.932,3.051A.468.468,0,0,1,652.551,110Zm-1.686-.247a.49.49,0,0,1-.443-.3,20.835,20.835,0,0,1-1.334-4.167.54.54,0,0,1,.371-.643.49.49,0,0,1,.589.405,19.825,19.825,0,0,0,1.26,3.939.56.56,0,0,1-.229.717A.452.452,0,0,1,650.865,109.748Zm6.527-6.4a.465.465,0,0,1-.176-.035.555.555,0,0,1-.283-.695,10.129,10.129,0,0,0,.59-3.35q0-.316-.023-.633a.525.525,0,0,1,.455-.575.506.506,0,0,1,.528.5c.017.238.025.476.025.713a11.3,11.3,0,0,1-.655,3.734A.5.5,0,0,1,657.392,103.345Zm-39.075-.1a14.822,14.822,0,0,1-1.831-.112.528.528,0,0,1-.433-.595.5.5,0,0,1,.544-.473,15.033,15.033,0,0,0,3.814-.038.507.507,0,0,1,.548.47.529.529,0,0,1-.428.6A16.962,16.962,0,0,1,618.317,103.248Zm12.648-.732a.5.5,0,0,1-.474-.393l-.128-.513a31.809,31.809,0,0,1-.665-3.777.53.53,0,0,1,.427-.6.509.509,0,0,1,.549.467,30.885,30.885,0,0,0,.64,3.639l.124.495a.547.547,0,0,1-.341.664A.485.485,0,0,1,630.966,102.516Zm-6.654-.332a.5.5,0,0,1-.469-.376.548.548,0,0,1,.321-.674,22.675,22.675,0,0,0,3.569-1.591.472.472,0,0,1,.662.237.562.562,0,0,1-.218.723,23.5,23.5,0,0,1-3.716,1.657A.478.478,0,0,1,624.312,102.183Zm-11.559-.152a.464.464,0,0,1-.2-.046,11.5,11.5,0,0,1-2.79-1.925q-.307-.287-.591-.592a.573.573,0,0,1,0-.76.464.464,0,0,1,.7-.006c.172.186.352.366.539.54A10.49,10.49,0,0,0,612.954,101a.557.557,0,0,1,.248.71A.491.491,0,0,1,612.753,102.032Zm36.418-.6h-.014a.521.521,0,0,1-.479-.554,11.177,11.177,0,0,1,.918-4.39.474.474,0,0,1,.663-.236.562.562,0,0,1,.217.723,9.994,9.994,0,0,0-.812,3.935A.514.514,0,0,1,649.171,101.427Zm-17.838-3.074a.481.481,0,0,1-.406-.233.568.568,0,0,1,.128-.748,33.922,33.922,0,0,0,3.064-2.6.466.466,0,0,1,.7.051.573.573,0,0,1-.047.759,34.729,34.729,0,0,1-3.156,2.673A.459.459,0,0,1,631.333,98.353Zm-24.106-2.2a.487.487,0,0,1-.44-.3,18.533,18.533,0,0,1-1.306-4.191.539.539,0,0,1,.381-.636.5.5,0,0,1,.583.415,17.372,17.372,0,0,0,1.223,3.932.562.562,0,0,1-.22.722A.461.461,0,0,1,607.227,96.148Zm-22-.279-.289,0a.54.54,0,0,1,.011-1.076h.011l.265,0a16.573,16.573,0,0,0,3.539-.415.5.5,0,0,1,.579.422.537.537,0,0,1-.387.632A17.449,17.449,0,0,1,585.231,95.87Zm71.363-.667a.471.471,0,0,1-.34-.148,2.687,2.687,0,0,0-1.981-.806h0a3.7,3.7,0,0,0-1.221.214.486.486,0,0,1-.619-.347.549.549,0,0,1,.319-.677,4.6,4.6,0,0,1,1.521-.266h0a3.593,3.593,0,0,1,2.66,1.1.574.574,0,0,1,.016.76A.472.472,0,0,1,656.595,95.2ZM581.1,95.087a.46.46,0,0,1-.178-.037c-.155-.066-.308-.134-.462-.209a10.164,10.164,0,0,1-2.985-2.232.574.574,0,0,1-.008-.76.464.464,0,0,1,.7-.009,9.2,9.2,0,0,0,2.7,2.018c.138.067.277.13.417.189a.555.555,0,0,1,.283.695A.5.5,0,0,1,581.1,95.087Zm11.567-.747a.5.5,0,0,1-.47-.374.55.55,0,0,1,.32-.677c1.23-.427,2.47-.906,3.686-1.42a.48.48,0,0,1,.636.308.553.553,0,0,1-.281.7c-1.234.522-2.493,1.007-3.743,1.441A.451.451,0,0,1,592.667,94.339Zm37.318-.329h-.01a.519.519,0,0,1-.482-.549,33.3,33.3,0,0,1,.368-4.357.5.5,0,0,1,.565-.443.533.533,0,0,1,.406.617,32.548,32.548,0,0,0-.354,4.2A.515.515,0,0,1,629.985,94.01Zm7.267-1.3a.468.468,0,0,1-.331-.14.572.572,0,0,1-.034-.759,36.566,36.566,0,0,0,2.437-3.3.466.466,0,0,1,.687-.125.571.571,0,0,1,.113.751,37.382,37.382,0,0,1-2.508,3.393A.472.472,0,0,1,637.253,92.708Zm-37.247-1.477a.491.491,0,0,1-.447-.313.561.561,0,0,1,.241-.714c1.173-.589,2.351-1.229,3.5-1.9a.47.47,0,0,1,.665.22.564.564,0,0,1-.2.728c-1.166.682-2.361,1.33-3.552,1.93A.457.457,0,0,1,600.006,91.231Zm-24.472-1.947a.491.491,0,0,1-.442-.3,15.834,15.834,0,0,1-1.233-4.24.533.533,0,0,1,.41-.614.5.5,0,0,1,.564.446,14.613,14.613,0,0,0,1.142,3.931.563.563,0,0,1-.224.721A.456.456,0,0,1,575.534,89.284Zm29.995-1.468a.516.516,0,0,1-.492-.525q-.008-.334-.007-.668a35.215,35.215,0,0,1,.2-3.7.5.5,0,0,1,.545-.471.529.529,0,0,1,.433.6,33.643,33.643,0,0,0-.2,3.577q0,.321.007.642a.52.52,0,0,1-.48.551Zm1.416-.645a.484.484,0,0,1-.419-.256.567.567,0,0,1,.161-.74c1.1-.742,2.2-1.532,3.263-2.347a.468.468,0,0,1,.686.131.57.57,0,0,1-.12.75c-1.078.827-2.193,1.628-3.315,2.382A.457.457,0,0,1,606.945,87.171Zm34.88-1.446a.457.457,0,0,1-.237-.067.564.564,0,0,1-.194-.73c.4-.789.77-1.6,1.107-2.409.195-.47.366-.942.509-1.4a.483.483,0,0,1,.622-.338.55.55,0,0,1,.31.681c-.153.5-.336,1-.545,1.506-.346.834-.73,1.669-1.139,2.482A.488.488,0,0,1,641.825,85.725Zm-10.565-.176a.439.439,0,0,1-.148-.025.55.55,0,0,1-.322-.675,31.956,31.956,0,0,1,1.48-4.067.475.475,0,0,1,.659-.25.562.562,0,0,1,.228.718,30.462,30.462,0,0,0-1.427,3.921A.5.5,0,0,1,631.259,85.549ZM613.387,82.23a.48.48,0,0,1-.386-.2.571.571,0,0,1,.079-.755c1.019-.887,2.023-1.816,2.982-2.759a.464.464,0,0,1,.7.04.574.574,0,0,1-.037.759c-.975.958-1.993,1.9-3.028,2.8A.466.466,0,0,1,613.387,82.23Zm-39.121-1.321a.408.408,0,0,1-.051,0,.527.527,0,0,1-.439-.59,23.605,23.605,0,0,1,.839-4.308.484.484,0,0,1,.618-.35.548.548,0,0,1,.32.674,22.385,22.385,0,0,0-.8,4.095A.511.511,0,0,1,574.266,80.909Zm32.143-1.621a.454.454,0,0,1-.113-.015.542.542,0,0,1-.366-.647,39.818,39.818,0,0,1,1.148-4.182.483.483,0,0,1,.631-.321.552.552,0,0,1,.293.689,38.872,38.872,0,0,0-1.114,4.061A.5.5,0,0,1,606.409,79.288Zm28.3-1.438a.462.462,0,0,1-.29-.1.571.571,0,0,1-.106-.752,9.35,9.35,0,0,1,3.045-3.041.473.473,0,0,1,.664.226.562.562,0,0,1-.207.726A8.4,8.4,0,0,0,635.1,77.63.478.478,0,0,1,634.706,77.85Zm9.177-.257a.5.5,0,0,1-.48-.429,3.7,3.7,0,0,0-.855-1.808,3.048,3.048,0,0,0-1.295-.852.55.55,0,0,1-.32-.675.484.484,0,0,1,.618-.35,4.01,4.01,0,0,1,1.7,1.126,4.769,4.769,0,0,1,1.113,2.341.537.537,0,0,1-.381.636A.464.464,0,0,1,643.883,77.593Zm-24.647-1.117a.467.467,0,0,1-.345-.155.572.572,0,0,1-.006-.76c.911-1.013,1.8-2.068,2.65-3.134a.463.463,0,0,1,.7-.054.573.573,0,0,1,.049.758c-.86,1.084-1.767,2.154-2.693,3.184A.472.472,0,0,1,619.236,76.476Zm-42.664-3.745a.453.453,0,0,1-.22-.057.563.563,0,0,1-.221-.722q.174-.381.358-.755a34.428,34.428,0,0,1,1.663-3.016.467.467,0,0,1,.682-.145.567.567,0,0,1,.133.746c-.583.944-1.125,1.927-1.61,2.921q-.177.363-.347.73A.488.488,0,0,1,576.572,72.731Zm32.56-1.5a.448.448,0,0,1-.229-.062.563.563,0,0,1-.206-.726,27.4,27.4,0,0,1,2.148-3.7.466.466,0,0,1,.69-.1.572.572,0,0,1,.095.754,26.173,26.173,0,0,0-2.062,3.556A.488.488,0,0,1,609.132,71.235Zm15.182-1.318a.452.452,0,0,1-.26-.082.566.566,0,0,1-.158-.74,9.273,9.273,0,0,0,1.174-3.143,5.716,5.716,0,0,0,.063-.613.514.514,0,0,1,.519-.507.521.521,0,0,1,.464.567,6.586,6.586,0,0,1-.077.738,10.383,10.383,0,0,1-1.307,3.527A.483.483,0,0,1,624.315,69.917Zm-43.354-4.3a.467.467,0,0,1-.324-.133.573.573,0,0,1-.047-.758,34.726,34.726,0,0,1,2.809-3.106.464.464,0,0,1,.695.042.576.576,0,0,1-.037.76,33.24,33.24,0,0,0-2.724,3.012A.476.476,0,0,1,580.961,65.614Zm32.946-1.156a.474.474,0,0,1-.37-.184.572.572,0,0,1,.046-.759,16.6,16.6,0,0,1,3.342-2.491.476.476,0,0,1,.663.233.563.563,0,0,1-.214.725,15.54,15.54,0,0,0-3.143,2.343A.467.467,0,0,1,613.907,64.457Zm10.536-2.545a.476.476,0,0,1-.368-.181,3.027,3.027,0,0,0-1.2-.915,3.757,3.757,0,0,0-1.946-.172.5.5,0,0,1-.555-.459.532.532,0,0,1,.42-.607,4.65,4.65,0,0,1,2.426.23,4.033,4.033,0,0,1,1.595,1.208.573.573,0,0,1-.041.759A.466.466,0,0,1,624.443,61.913Zm-37.632-2.03a.483.483,0,0,1-.4-.23.57.57,0,0,1,.122-.749,32.941,32.941,0,0,1,3.405-2.281.474.474,0,0,1,.666.223.564.564,0,0,1-.2.727,31.947,31.947,0,0,0-3.3,2.212A.462.462,0,0,1,586.81,59.883Zm6.937-4.03a.494.494,0,0,1-.46-.345.554.554,0,0,1,.284-.695,29.4,29.4,0,0,1,3.819-1.295.489.489,0,0,1,.594.4.54.54,0,0,1-.363.649,28.517,28.517,0,0,0-3.7,1.256A.458.458,0,0,1,593.747,55.853Z" transform="translate(-573.773 -53.502)" fill="#fff"/>
        </g>
        <g id="Grupo_96562" data-name="Grupo 96562" transform="translate(62.826 15.822)">
          <g id="Grupo_96559" data-name="Grupo 96559" transform="translate(28.449)">
            <path id="Trazado_148178" data-name="Trazado 148178" d="M350.711,60.906a.5.5,0,0,1-.467-.364.551.551,0,0,1,.308-.683c.634-.237,1.28-.448,1.922-.629a.487.487,0,0,1,.6.386.545.545,0,0,1-.353.655c-.616.174-1.239.378-1.851.606A.434.434,0,0,1,350.711,60.906Z" transform="translate(-350.218 -59.212)" fill="#fff"/>
          </g>
          <g id="Grupo_96560" data-name="Grupo 96560" transform="translate(0 2.312)">
            <path id="Trazado_148179" data-name="Trazado 148179" d="M342.1,163.8h-.041a18.862,18.862,0,0,1-3.971-.807.548.548,0,0,1-.336-.667.487.487,0,0,1,.61-.367,17.867,17.867,0,0,0,3.777.768.526.526,0,0,1,.45.58A.512.512,0,0,1,342.1,163.8Zm-7.545-2.36a.457.457,0,0,1-.221-.057,23.451,23.451,0,0,1-3.435-2.3.571.571,0,0,1-.106-.752.468.468,0,0,1,.689-.114,22.442,22.442,0,0,0,3.292,2.2.563.563,0,0,1,.221.722A.49.49,0,0,1,334.558,161.441Zm-6.336-5.082a.471.471,0,0,1-.353-.163,25.309,25.309,0,0,1-2.545-3.411.569.569,0,0,1,.13-.748.469.469,0,0,1,.683.143,24.183,24.183,0,0,0,2.439,3.265.574.574,0,0,1-.011.76A.468.468,0,0,1,328.222,156.359Zm-4.4-7.1a.493.493,0,0,1-.45-.32c-.087-.213-.168-.427-.247-.642a28.256,28.256,0,0,1-1.043-3.528.54.54,0,0,1,.359-.651.491.491,0,0,1,.6.393,27.071,27.071,0,0,0,1,3.385q.112.307.233.608a.558.558,0,0,1-.25.71A.461.461,0,0,1,323.819,149.255Zm-1.906-8.332a.511.511,0,0,1-.489-.492c-.068-.848-.1-1.718-.1-2.587q0-.9.048-1.8a.508.508,0,0,1,.52-.506.522.522,0,0,1,.463.568c-.031.579-.047,1.158-.046,1.736,0,.839.032,1.678.1,2.5a.526.526,0,0,1-.448.582Zm.444-8.584a.419.419,0,0,1-.1-.011.537.537,0,0,1-.389-.63,37.541,37.541,0,0,1,1.015-4.235.482.482,0,0,1,.621-.342.548.548,0,0,1,.313.679,36.394,36.394,0,0,0-.983,4.1A.507.507,0,0,1,322.357,132.338Zm2.461-8.174a.46.46,0,0,1-.21-.051.56.56,0,0,1-.235-.716,37.055,37.055,0,0,1,1.924-3.836.468.468,0,0,1,.678-.17.568.568,0,0,1,.155.742,36.361,36.361,0,0,0-1.867,3.724A.49.49,0,0,1,324.818,124.164Zm4.2-7.28a.468.468,0,0,1-.311-.12.572.572,0,0,1-.071-.757,39.854,39.854,0,0,1,2.69-3.232.466.466,0,0,1,.7,0,.575.575,0,0,1,0,.761,38.509,38.509,0,0,0-2.62,3.146A.476.476,0,0,1,329.014,116.884Zm20.586-3.105q-.552,0-1.1-.02a.54.54,0,0,1,.034-1.074c.984.035,1.974.019,2.955-.033q.464-.024.935-.065a.54.54,0,0,1,.075,1.072c-.322.028-.643.049-.962.067C350.892,113.759,350.246,113.779,349.6,113.779Zm-5-.5a.447.447,0,0,1-.1-.011,16.2,16.2,0,0,1-3.432-1.166c-.143-.069-.283-.139-.422-.211a.559.559,0,0,1-.235-.715.475.475,0,0,1,.655-.257c.132.068.265.133.4.2a15.283,15.283,0,0,0,3.234,1.1.538.538,0,0,1,.385.633A.506.506,0,0,1,344.6,113.279Zm11.751-.325a.5.5,0,0,1-.474-.392.546.546,0,0,1,.341-.664,9.713,9.713,0,0,0,3.38-1.754.465.465,0,0,1,.689.105.572.572,0,0,1-.1.754,10.82,10.82,0,0,1-3.706,1.93A.445.445,0,0,1,356.348,112.954Zm-21.734-2.129a.476.476,0,0,1-.383-.2.573.573,0,0,1,.075-.756c.585-.516,1.191-1.021,1.813-1.51a19.933,19.933,0,0,1-1.659-2.1.572.572,0,0,1,.1-.753.465.465,0,0,1,.689.108,18.626,18.626,0,0,0,1.687,2.12q.292-.219.59-.436a.469.469,0,0,1,.683.151.57.57,0,0,1-.139.745c-.132.1-.265.194-.395.29.063.061.127.122.191.181a.572.572,0,0,1,.059.757.463.463,0,0,1-.694.065c-.13-.12-.259-.244-.388-.369q-.989.773-1.921,1.592A.461.461,0,0,1,334.613,110.825Zm27.606-3.114a.473.473,0,0,1-.164-.031.552.552,0,0,1-.3-.686,7.567,7.567,0,0,0,.366-2.3,6.313,6.313,0,0,0-.2-1.615.545.545,0,0,1,.334-.667.486.486,0,0,1,.61.366,7.417,7.417,0,0,1,.243,1.917,8.757,8.757,0,0,1-.422,2.654A.5.5,0,0,1,362.219,107.712Zm-21.042-1.657a.485.485,0,0,1-.431-.281.563.563,0,0,1,.195-.729c1.147-.685,2.348-1.337,3.57-1.937a.477.477,0,0,1,.651.27.559.559,0,0,1-.247.711c-1.2.589-2.376,1.228-3.5,1.9A.466.466,0,0,1,341.177,106.054Zm-8.368-3.265a.491.491,0,0,1-.443-.3,27.9,27.9,0,0,1-1.441-4.108.548.548,0,0,1,.336-.667.485.485,0,0,1,.61.367,26.585,26.585,0,0,0,1.381,3.939.56.56,0,0,1-.228.718A.458.458,0,0,1,332.809,102.789Zm15.559-.275a.5.5,0,0,1-.463-.354.552.552,0,0,1,.294-.689c1.233-.49,2.505-.944,3.784-1.35a.489.489,0,0,1,.61.367.548.548,0,0,1-.336.667c-1.258.4-2.51.844-3.722,1.327A.467.467,0,0,1,348.367,102.514Zm11.48-2.134a.47.47,0,0,1-.18-.038,6.167,6.167,0,0,0-3.633-.2.5.5,0,0,1-.566-.442.534.534,0,0,1,.4-.618,7.017,7.017,0,0,1,4.154.261.556.556,0,0,1,.279.7A.5.5,0,0,1,359.847,100.38ZM330.6,94.545a.51.51,0,0,1-.487-.472q-.043-.379-.076-.758c-.078-.892-.117-1.809-.117-2.723,0-.3,0-.6.013-.906a.509.509,0,0,1,.508-.519.52.52,0,0,1,.476.555c-.009.29-.012.581-.013.872,0,.879.038,1.761.113,2.621.02.243.045.485.072.727a.53.53,0,0,1-.428.6A.389.389,0,0,1,330.6,94.545Zm.233-8.589a.4.4,0,0,1-.087-.009.535.535,0,0,1-.4-.623,34.671,34.671,0,0,1,.97-4.253.486.486,0,0,1,.619-.346.548.548,0,0,1,.318.677,33.348,33.348,0,0,0-.937,4.11A.506.506,0,0,1,330.837,85.955Zm2.408-8.187a.448.448,0,0,1-.211-.053A.56.56,0,0,1,332.8,77a36.048,36.048,0,0,1,1.944-3.828.468.468,0,0,1,.68-.163.569.569,0,0,1,.149.743,34.556,34.556,0,0,0-1.882,3.71A.493.493,0,0,1,333.245,77.768Zm4.243-7.247a.466.466,0,0,1-.315-.125.573.573,0,0,1-.063-.757,33.481,33.481,0,0,1,2.758-3.177.463.463,0,0,1,.7.028.572.572,0,0,1-.026.76,32.485,32.485,0,0,0-2.671,3.078A.476.476,0,0,1,337.488,70.521Zm5.777-5.846a.48.48,0,0,1-.4-.227.571.571,0,0,1,.117-.75,28.533,28.533,0,0,1,3.428-2.279.476.476,0,0,1,.664.231.565.565,0,0,1-.212.725,27.341,27.341,0,0,0-3.311,2.2A.461.461,0,0,1,343.265,64.676Z" transform="translate(-321.321 -61.361)" fill="#fff"/>
          </g>
          <g id="Grupo_96561" data-name="Grupo 96561" transform="translate(24.313 103.134)">
            <path id="Trazado_148180" data-name="Trazado 148180" d="M346.51,156.6a.51.51,0,0,1-.487-.462.532.532,0,0,1,.418-.608,15.822,15.822,0,0,0,1.873-.41.488.488,0,0,1,.6.385.543.543,0,0,1-.352.655,16.647,16.647,0,0,1-1.983.435A.535.535,0,0,1,346.51,156.6Z" transform="translate(-346.018 -155.102)" fill="#fff"/>
          </g>
        </g>
        <g id="Grupo_96563" data-name="Grupo 96563" transform="translate(396.504 150.719)">
          <path id="Trazado_148181" data-name="Trazado 148181" d="M696.941,285.083h-.031a21.04,21.04,0,0,1-3.973-.667.541.541,0,0,1-.36-.651.49.49,0,0,1,.595-.394,20.191,20.191,0,0,0,3.8.638.523.523,0,0,1,.46.57A.512.512,0,0,1,696.941,285.083Zm3.929-.127a.511.511,0,0,1-.487-.472.532.532,0,0,1,.428-.6,19.425,19.425,0,0,0,3.752-.9.486.486,0,0,1,.618.35.548.548,0,0,1-.32.675,20.378,20.378,0,0,1-3.929.945A.4.4,0,0,1,700.87,284.956Zm-11.539-1.91a.448.448,0,0,1-.2-.045,22.481,22.481,0,0,1-3.523-2.113.567.567,0,0,1-.135-.745.465.465,0,0,1,.682-.147,21.476,21.476,0,0,0,3.372,2.021.558.558,0,0,1,.253.709A.492.492,0,0,1,689.331,283.046Zm19.006-.677a.487.487,0,0,1-.435-.286.564.564,0,0,1,.206-.727,22.108,22.108,0,0,0,3.237-2.275.464.464,0,0,1,.69.1.572.572,0,0,1-.089.755,22.991,22.991,0,0,1-3.379,2.376A.461.461,0,0,1,708.337,282.37Zm-25.509-4.1a.465.465,0,0,1-.343-.153q-.4-.424-.775-.87a.576.576,0,0,1,.029-.761.467.467,0,0,1,.7.032c.238.283.484.56.736.828a.574.574,0,0,1,.01.76A.474.474,0,0,1,682.828,278.274Zm31.7-1.15a.464.464,0,0,1-.33-.14.573.573,0,0,1-.034-.759,22.427,22.427,0,0,0,2.3-3.356.472.472,0,0,1,.678-.177.571.571,0,0,1,.162.741,23.761,23.761,0,0,1-2.415,3.515A.474.474,0,0,1,714.531,277.124Zm4.058-7.307a.451.451,0,0,1-.162-.029.553.553,0,0,1-.3-.685,15.844,15.844,0,0,0,.755-4.052c.014-.3.2-.546.517-.51a.522.522,0,0,1,.467.565,17,17,0,0,1-.808,4.35A.5.5,0,0,1,718.589,269.817Zm-3.77-7.3a.5.5,0,0,1-.479-.417.541.541,0,0,1,.37-.644,11.583,11.583,0,0,0,2.306-.872q.524-.258,1.033-.55a9.854,9.854,0,0,0-1.526-2.51.572.572,0,0,1,.028-.759.462.462,0,0,1,.7.03,11.173,11.173,0,0,1,2.092,3.871.55.55,0,0,1-.307.682.48.48,0,0,1-.615-.31q-.489.277-.993.527a12.617,12.617,0,0,1-2.492.94A.482.482,0,0,1,714.819,262.515Zm-3.875-.168a.455.455,0,0,1-.178-.037c-.066-.028-.133-.058-.2-.089a5.087,5.087,0,0,1-2.6-3.4.542.542,0,0,1,.351-.656.483.483,0,0,1,.6.385,4.071,4.071,0,0,0,2.046,2.685l.159.071a.555.555,0,0,1,.281.7A.494.494,0,0,1,710.944,262.347Zm10.79-3.8a.477.477,0,0,1-.382-.2.575.575,0,0,1,.07-.757,23.141,23.141,0,0,0,2.758-2.932.463.463,0,0,1,.694-.055.572.572,0,0,1,.05.758,24.411,24.411,0,0,1-2.88,3.063A.468.468,0,0,1,721.734,258.543Zm-11.936-3a.486.486,0,0,1-.432-.281.562.562,0,0,1,.2-.729,4.83,4.83,0,0,1,3.5-.431,6.947,6.947,0,0,1,.71.205.549.549,0,0,1,.32.675.488.488,0,0,1-.618.351,5.593,5.593,0,0,0-.617-.18,3.921,3.921,0,0,0-2.827.323A.453.453,0,0,1,709.8,255.546Zm17.078-3.47a.46.46,0,0,1-.258-.08.565.565,0,0,1-.161-.739,28.623,28.623,0,0,0,1.759-3.753.475.475,0,0,1,.644-.287.556.556,0,0,1,.264.7,29.565,29.565,0,0,1-1.829,3.9A.48.48,0,0,1,726.875,252.076Zm3.03-7.905a.456.456,0,0,1-.118-.015.543.543,0,0,1-.36-.651c.153-.672.281-1.356.384-2.033.106-.7.19-1.414.25-2.127a.507.507,0,0,1,.536-.487.528.528,0,0,1,.445.585c-.062.739-.149,1.481-.26,2.206-.106.7-.241,1.414-.4,2.113A.5.5,0,0,1,729.906,244.171Zm.733-8.538a.513.513,0,0,1-.491-.513,36.948,36.948,0,0,0-.426-4.205.535.535,0,0,1,.4-.623.5.5,0,0,1,.57.438,37.772,37.772,0,0,1,.439,4.341.522.522,0,0,1-.469.563Zm-49.4-.825a.436.436,0,0,1-.11-.014.541.541,0,0,1-.369-.645,31.1,31.1,0,0,1,1.2-4.179.48.48,0,0,1,.639-.3.554.554,0,0,1,.276.7,30.111,30.111,0,0,0-1.151,4.025A.5.5,0,0,1,681.243,234.808Zm48.059-7.634a.5.5,0,0,1-.472-.384,41.326,41.326,0,0,0-1.31-3.992.558.558,0,0,1,.262-.7.481.481,0,0,1,.646.287,42.7,42.7,0,0,1,1.347,4.1.547.547,0,0,1-.332.668A.432.432,0,0,1,729.3,227.174Zm-45.176-.339a.46.46,0,0,1-.245-.071.565.565,0,0,1-.182-.735,33.2,33.2,0,0,1,2.218-3.635.466.466,0,0,1,.69-.1.572.572,0,0,1,.091.754,32.291,32.291,0,0,0-2.145,3.517A.483.483,0,0,1,684.126,226.835Zm4.774-6.811a.467.467,0,0,1-.346-.156.573.573,0,0,1,0-.76,33.47,33.47,0,0,1,2.987-2.9.465.465,0,0,1,.691.091.573.573,0,0,1-.084.755,32.56,32.56,0,0,0-2.9,2.811A.472.472,0,0,1,688.9,220.023Zm37.358-.766a.488.488,0,0,1-.432-.28q-.322-.639-.665-1.265a25.376,25.376,0,0,0-1.4-2.3.571.571,0,0,1,.1-.753.464.464,0,0,1,.689.1,26.777,26.777,0,0,1,1.458,2.4q.352.642.682,1.3a.565.565,0,0,1-.195.73A.454.454,0,0,1,726.257,219.258Zm-31.177-4.533a.485.485,0,0,1-.421-.259.567.567,0,0,1,.166-.739,32.029,32.029,0,0,1,3.539-2.028.476.476,0,0,1,.651.271.557.557,0,0,1-.247.71,31.329,31.329,0,0,0-3.434,1.967A.457.457,0,0,1,695.08,214.724Zm26.275-2.1a.458.458,0,0,1-.275-.091,11.868,11.868,0,0,0-3.437-1.7.547.547,0,0,1-.333-.668.488.488,0,0,1,.611-.364,12.788,12.788,0,0,1,3.708,1.839.568.568,0,0,1,.134.746A.482.482,0,0,1,721.355,212.628Zm-19.1-1.415a.5.5,0,0,1-.472-.381.549.549,0,0,1,.327-.671,28.407,28.407,0,0,1,3.893-1,.5.5,0,0,1,.567.443.535.535,0,0,1-.4.618,27.38,27.38,0,0,0-3.767.97A.447.447,0,0,1,702.25,211.213Zm11.677-1.2a.529.529,0,0,1-.059,0,24.472,24.472,0,0,0-3.859-.195.5.5,0,0,1-.505-.524.52.52,0,0,1,.479-.552,25.655,25.655,0,0,1,4,.2.529.529,0,0,1,.429.6A.509.509,0,0,1,713.927,210.01Z" transform="translate(-680.751 -208.727)" fill="#fff"/>
        </g>
        <g id="Grupo_96564" data-name="Grupo 96564" transform="translate(46.089 294.045)">
          <path id="Trazado_148182" data-name="Trazado 148182" d="M292.256,366.161a14.318,14.318,0,0,1-1.6-.089c-.133-.013-.268-.03-.4-.048a.532.532,0,0,1-.427-.6.5.5,0,0,1,.55-.467c.125.017.251.034.378.046a13.981,13.981,0,0,0,3.427-.048.506.506,0,0,1,.549.468.531.531,0,0,1-.428.6A15.172,15.172,0,0,1,292.256,366.161Zm5.8-1.158a.5.5,0,0,1-.462-.351.551.551,0,0,1,.29-.69,17.156,17.156,0,0,0,3.42-1.867.469.469,0,0,1,.681.162.568.568,0,0,1-.149.743,18.153,18.153,0,0,1-3.61,1.969A.444.444,0,0,1,298.052,365Zm-11.546-.048a.445.445,0,0,1-.179-.037,17.331,17.331,0,0,1-3.569-2.072.566.566,0,0,1-.128-.746.467.467,0,0,1,.683-.14,16.49,16.49,0,0,0,3.373,1.956.554.554,0,0,1,.279.7A.5.5,0,0,1,286.506,364.955Zm-15.121-2a.5.5,0,0,1-.057,0,15.869,15.869,0,0,1-3.936-1.026.556.556,0,0,1-.292-.692.485.485,0,0,1,.633-.318,14.907,14.907,0,0,0,3.707.967.529.529,0,0,1,.434.6A.51.51,0,0,1,271.385,362.955Zm3.923-.069a.508.508,0,0,1-.485-.457.532.532,0,0,1,.413-.613,11.984,11.984,0,0,0,3.452-1.126l.16-.083a.474.474,0,0,1,.658.251.562.562,0,0,1-.229.718l-.173.089a12.854,12.854,0,0,1-3.718,1.214A.431.431,0,0,1,275.308,362.886Zm29.318-2.5a.472.472,0,0,1-.346-.156.575.575,0,0,1,0-.76,17.815,17.815,0,0,0,2.362-3.273.47.47,0,0,1,.678-.177.568.568,0,0,1,.161.74,18.932,18.932,0,0,1-2.5,3.469A.472.472,0,0,1,304.625,360.388Zm-24.573-.241a.473.473,0,0,1-.358-.17,20.094,20.094,0,0,1-2.429-3.525.565.565,0,0,1,.172-.736.469.469,0,0,1,.674.187,18.967,18.967,0,0,0,2.3,3.336.574.574,0,0,1-.022.76A.466.466,0,0,1,280.052,360.147Zm-16-.125a.456.456,0,0,1-.272-.089,17.05,17.05,0,0,1-3.083-2.867.575.575,0,0,1,.031-.76.465.465,0,0,1,.7.034,16,16,0,0,0,2.9,2.7.571.571,0,0,1,.138.746A.482.482,0,0,1,264.055,360.022Zm18.2-.868a.471.471,0,0,1-.352-.162.574.574,0,0,1,.008-.76,14.166,14.166,0,0,0,2.285-3.291.472.472,0,0,1,.669-.21.564.564,0,0,1,.192.73A15.278,15.278,0,0,1,282.6,359,.468.468,0,0,1,282.259,359.154Zm-23.5-5.387a.489.489,0,0,1-.428-.271,23.01,23.01,0,0,1-1.63-4.026.549.549,0,0,1,.313-.679.483.483,0,0,1,.621.342,21.848,21.848,0,0,0,1.552,3.829.567.567,0,0,1-.183.735A.462.462,0,0,1,258.755,353.767Zm17.335-.97a.5.5,0,0,1-.47-.38,19,19,0,0,1-.567-2.771c-.068-.544-.111-1.08-.129-1.594a.523.523,0,0,1,.475-.558.493.493,0,0,1,.51.517c.016.48.056.981.12,1.487a17.89,17.89,0,0,0,.532,2.6.548.548,0,0,1-.325.672A.432.432,0,0,1,276.09,352.8Zm9.928-1.069a.439.439,0,0,1-.1-.013.539.539,0,0,1-.376-.64,14.19,14.19,0,0,0,.275-2.74,12.859,12.859,0,0,0-.071-1.358.531.531,0,0,1,.432-.6.51.51,0,0,1,.546.472,14.176,14.176,0,0,1,.077,1.484,15.229,15.229,0,0,1-.3,2.969A.5.5,0,0,1,286.018,351.728Zm-29.735-6.075a.508.508,0,0,1-.486-.465,27.763,27.763,0,0,1-.215-3.456c0-.31,0-.621.015-.93a.549.549,0,0,1,.509-.518.522.522,0,0,1,.475.557q-.015.445-.015.892a26.766,26.766,0,0,0,.2,3.31.529.529,0,0,1-.421.6A.471.471,0,0,1,256.283,345.653ZM276,344.346a.431.431,0,0,1-.18-.038.554.554,0,0,1-.278-.7,8.15,8.15,0,0,1,.8-1.633,6.282,6.282,0,0,1,1.877-1.879.47.47,0,0,1,.674.19.566.566,0,0,1-.174.736,5.27,5.27,0,0,0-1.572,1.57,7.055,7.055,0,0,0-.689,1.41A.5.5,0,0,1,276,344.346Zm9.061-.978a.488.488,0,0,1-.432-.282,5.34,5.34,0,0,0-2.038-2.388,3.18,3.18,0,0,0-.489-.22.549.549,0,0,1-.317-.677.484.484,0,0,1,.619-.347,4.115,4.115,0,0,1,.635.286,6.343,6.343,0,0,1,2.455,2.834.564.564,0,0,1-.2.729A.464.464,0,0,1,285.065,343.368Zm-28.013-6.739-.488-.072-.477-.13a30.926,30.926,0,0,1,1.114-4.185.483.483,0,0,1,.633-.316.554.554,0,0,1,.289.693A29.788,29.788,0,0,0,257.052,336.629Zm2.242-7.573a.467.467,0,0,1-.234-.063.565.565,0,0,1-.2-.729,36.712,36.712,0,0,1,2.111-3.707.469.469,0,0,1,.686-.128.57.57,0,0,1,.117.75,35.515,35.515,0,0,0-2.047,3.6A.489.489,0,0,1,259.293,329.056Zm4.528-7.017a.463.463,0,0,1-.326-.135.572.572,0,0,1-.042-.758c.866-1.069,1.8-2.116,2.791-3.11a.463.463,0,0,1,.7.031.572.572,0,0,1-.028.759c-.962.97-1.876,1.991-2.722,3.032A.471.471,0,0,1,263.821,322.039Z" transform="translate(-255.582 -317.893)" fill="#fff"/>
        </g>
      </g>
    </g>
  </g>
</svg>
