<svg xmlns="http://www.w3.org/2000/svg" width="294.779" height="255.287" viewBox="0 0 294.779 255.287">
  <g id="Grupo_100492" data-name="Grupo 100492" transform="translate(-887.146 -3565.001)">
    <path id="Trazado_147696" data-name="Trazado 147696" d="M493.253,430.021,419.559,302.378l73.694-127.644H640.64l73.7,127.644-73.7,127.644Z" transform="translate(467.587 3390.267)" fill="#ffc967"/>
    <path id="Trazado_151022" data-name="Trazado 151022" d="M-45.7-4.814a5.193,5.193,0,0,1-.8,2.622A4.833,4.833,0,0,1-48.56-.43,7,7,0,0,1-51.582.2,5.584,5.584,0,0,1-56-1.631a7.54,7.54,0,0,1-1.611-5.156v-.7a8.607,8.607,0,0,1,.728-3.657,5.513,5.513,0,0,1,2.095-2.422,5.844,5.844,0,0,1,3.164-.854,6.129,6.129,0,0,1,4.16,1.362,5.383,5.383,0,0,1,1.787,3.755h-3.418a2.547,2.547,0,0,0-.654-1.865,2.691,2.691,0,0,0-1.875-.566,2.048,2.048,0,0,0-1.875.957,6.151,6.151,0,0,0-.625,3.057v1.006a6.806,6.806,0,0,0,.571,3.252,2.091,2.091,0,0,0,1.968.977,2.632,2.632,0,0,0,1.807-.557,2.363,2.363,0,0,0,.664-1.768ZM-39.121.2a5.432,5.432,0,0,1-3.936-1.45,5.008,5.008,0,0,1-1.5-3.774V-5.3a6.489,6.489,0,0,1,.6-2.861,4.395,4.395,0,0,1,1.753-1.919,5.292,5.292,0,0,1,2.734-.679A4.574,4.574,0,0,1-35.957-9.38a5.43,5.43,0,0,1,1.289,3.853v1.279h-6.543a2.372,2.372,0,0,0,.771,1.4,2.3,2.3,0,0,0,1.543.508,2.958,2.958,0,0,0,2.441-1.094l1.5,1.777A4.2,4.2,0,0,1-36.694-.308,5.891,5.891,0,0,1-39.121.2Zm-.371-8.418q-1.445,0-1.719,1.914h3.32v-.254a1.63,1.63,0,0,0-.4-1.226A1.593,1.593,0,0,0-39.492-8.223Zm12.539.635-1.084-.078a1.947,1.947,0,0,0-1.992.977V0H-33.32V-10.566h3.086l.107,1.357a2.548,2.548,0,0,1,2.314-1.553,3.209,3.209,0,0,1,.918.117Zm5.508-5.605v2.627h1.738v2.285h-1.738v4.834a1.234,1.234,0,0,0,.215.83,1.152,1.152,0,0,0,.85.234,4.828,4.828,0,0,0,.82-.059V-.088A6.074,6.074,0,0,1-21.416.2a3.448,3.448,0,0,1-2.51-.8,3.282,3.282,0,0,1-.811-2.432V-8.281h-1.348v-2.285h1.348v-2.627ZM-14.941,0h-3.3V-10.566h3.3Zm-3.5-13.291a1.469,1.469,0,0,1,.508-1.152,1.916,1.916,0,0,1,1.318-.449,1.916,1.916,0,0,1,1.318.449,1.469,1.469,0,0,1,.508,1.152,1.469,1.469,0,0,1-.508,1.152,1.916,1.916,0,0,1-1.318.449,1.916,1.916,0,0,1-1.318-.449A1.469,1.469,0,0,1-18.437-13.291ZM-12.148,0V-8.281h-1.533v-2.285h1.533v-.352a4.034,4.034,0,0,1,1.387-3.232,5.541,5.541,0,0,1,3.6-1.055,12.787,12.787,0,0,1,3.438.566l-.449,2.6-.547-.146a8.7,8.7,0,0,0-2.246-.283q-1.885,0-1.885,1.719v.186h2.07v2.285h-2.07V0Zm9.941,0H-5.518V-10.566h3.311ZM4.268-2.344A1.464,1.464,0,0,0,5.342-2.72a1.379,1.379,0,0,0,.371-1.05H8.8A3.653,3.653,0,0,1,7.554-.918,4.631,4.631,0,0,1,4.346.2,4.689,4.689,0,0,1,.713-1.25a5.7,5.7,0,0,1-1.328-4v-.137A6.436,6.436,0,0,1-.024-8.218,4.3,4.3,0,0,1,1.68-10.1a5.081,5.081,0,0,1,2.637-.659A4.573,4.573,0,0,1,7.588-9.619,4.053,4.053,0,0,1,8.8-6.523H5.713a1.807,1.807,0,0,0-.4-1.26,1.382,1.382,0,0,0-1.074-.439q-1.279,0-1.494,1.631a11.508,11.508,0,0,0-.068,1.426,4.52,4.52,0,0,0,.381,2.207A1.319,1.319,0,0,0,4.268-2.344ZM16.143,0a3.716,3.716,0,0,1-.312-.947A3.06,3.06,0,0,1,13.291.2a3.749,3.749,0,0,1-2.539-.9A2.875,2.875,0,0,1,9.707-2.979a2.955,2.955,0,0,1,1.27-2.6,6.468,6.468,0,0,1,3.691-.879h1.016v-.559q0-1.462-1.26-1.462a1.03,1.03,0,0,0-1.172,1.158H9.961a2.95,2.95,0,0,1,1.3-2.487,5.479,5.479,0,0,1,3.325-.956,4.8,4.8,0,0,1,3.193.986,3.429,3.429,0,0,1,1.2,2.705v4.678a4.79,4.79,0,0,0,.449,2.227V0ZM14.082-2.148A1.836,1.836,0,0,0,15.1-2.412a1.653,1.653,0,0,0,.581-.6V-4.7h-.957q-1.719,0-1.719,1.543a.942.942,0,0,0,.3.728A1.1,1.1,0,0,0,14.082-2.148Zm11.191-.2a1.464,1.464,0,0,0,1.074-.376,1.379,1.379,0,0,0,.371-1.05H29.8A3.653,3.653,0,0,1,28.56-.918,4.631,4.631,0,0,1,25.352.2,4.689,4.689,0,0,1,21.719-1.25a5.7,5.7,0,0,1-1.328-4v-.137a6.436,6.436,0,0,1,.591-2.827,4.3,4.3,0,0,1,1.7-1.885,5.081,5.081,0,0,1,2.637-.659,4.573,4.573,0,0,1,3.271,1.143,4.053,4.053,0,0,1,1.211,3.1H26.719a1.807,1.807,0,0,0-.4-1.26,1.382,1.382,0,0,0-1.074-.439q-1.279,0-1.494,1.631a11.508,11.508,0,0,0-.068,1.426,4.52,4.52,0,0,0,.381,2.207A1.319,1.319,0,0,0,25.273-2.344ZM34.668,0h-3.3V-10.566h3.3Zm-3.5-13.291a1.469,1.469,0,0,1,.508-1.152A1.916,1.916,0,0,1,33-14.893a1.916,1.916,0,0,1,1.318.449,1.469,1.469,0,0,1,.508,1.152,1.469,1.469,0,0,1-.508,1.152A1.916,1.916,0,0,1,33-11.689a1.916,1.916,0,0,1-1.318-.449A1.469,1.469,0,0,1,31.172-13.291Zm5.107,7.91A6.236,6.236,0,0,1,36.895-8.2a4.4,4.4,0,0,1,1.768-1.9,5.323,5.323,0,0,1,2.705-.664,4.858,4.858,0,0,1,3.74,1.47,5.64,5.64,0,0,1,1.367,4v.117A5.472,5.472,0,0,1,45.1-1.255,4.871,4.871,0,0,1,41.387.2a4.927,4.927,0,0,1-3.623-1.353,5.29,5.29,0,0,1-1.475-3.667Zm3.291.205a3.932,3.932,0,0,0,.459,2.148,1.529,1.529,0,0,0,1.357.684q1.758,0,1.8-2.705v-.332q0-2.842-1.816-2.842-1.65,0-1.787,2.451ZM41.816-15h3.477l-2.715,3.066-2.686,0Zm9.131,4.434.107,1.24a3.583,3.583,0,0,1,3.018-1.436,3.015,3.015,0,0,1,2.466.986,4.7,4.7,0,0,1,.845,2.969V0h-3.3V-6.67a1.783,1.783,0,0,0-.322-1.177,1.491,1.491,0,0,0-1.172-.376,1.569,1.569,0,0,0-1.436.762V0H47.861V-10.566Z" transform="translate(1048 3750.137)" fill="#12263f"/>
    <path id="Trazado_151021" data-name="Trazado 151021" d="M-4.635-6.973A8.147,8.147,0,0,1-6.187-1.641,5.366,5.366,0,0,1-10.564.234a5.4,5.4,0,0,1-4.406-1.887,8.135,8.135,0,0,1-1.559-5.32V-10.09a8.147,8.147,0,0,1,1.553-5.332A5.379,5.379,0,0,1-10.588-17.3,5.381,5.381,0,0,1-6.193-15.41a8.155,8.155,0,0,1,1.559,5.332Zm-3.949-3.621a6.085,6.085,0,0,0-.48-2.748,1.606,1.606,0,0,0-1.523-.908,1.568,1.568,0,0,0-1.482.844,5.733,5.733,0,0,0-.5,2.555v4.359a6.131,6.131,0,0,0,.48,2.795,1.612,1.612,0,0,0,1.523.885,1.59,1.59,0,0,0,1.488-.861,5.853,5.853,0,0,0,.492-2.7ZM7.846-6.668H9.58v3.047H7.846V0H3.9V-3.621H-2.7l-.234-2.414L3.9-17.027v-.035H7.846Zm-7.02,0H3.9v-5.25l-.246.4Zm13,2.836a2.248,2.248,0,0,1,1.559.557A1.826,1.826,0,0,1,16-1.852a1.826,1.826,0,0,1-.621,1.424,2.248,2.248,0,0,1-1.559.557,2.229,2.229,0,0,1-1.564-.562,1.839,1.839,0,0,1-.615-1.418,1.839,1.839,0,0,1,.615-1.418A2.229,2.229,0,0,1,13.822-3.832Z" transform="translate(968.677 3750.137)" fill="#12263f"/>
    <g id="Grupo_98595" data-name="Grupo 98595" transform="translate(914.793 3516.639)">
      <g id="Grupo_98578" data-name="Grupo 98578" transform="translate(84.309 72.719)">
        <g id="Grupo_98564" data-name="Grupo 98564" transform="translate(15.598 0)">
          <path id="Trazado_150052" data-name="Trazado 150052" d="M223.588,105.188H188.362l-.347-3.737a6.4,6.4,0,0,1,6.48-7.143h20.941a8,8,0,0,1,7.806,7.143Z" transform="translate(-187.984 -86.24)" fill="#eaa813"/>
          <path id="Trazado_150053" data-name="Trazado 150053" d="M221.034,72.719a4.947,4.947,0,0,0-5.007,5.52,6.186,6.186,0,0,0,6.031,5.519,4.946,4.946,0,0,0,5.007-5.519A6.186,6.186,0,0,0,221.034,72.719Zm.75,8.076a2.869,2.869,0,0,1-2.794-2.556,2.294,2.294,0,0,1,2.32-2.557,2.869,2.869,0,0,1,2.794,2.557A2.294,2.294,0,0,1,221.783,80.8Z" transform="translate(-205.532 -72.719)" fill="#eaa813"/>
        </g>
        <path id="Trazado_150054" data-name="Trazado 150054" d="M215.44,194.019H158.377a4.591,4.591,0,0,1-4.477-4.1l-7.638-82.284a3.671,3.671,0,0,1,3.716-4.1h57.064a4.591,4.591,0,0,1,4.477,4.1l7.638,82.284A3.671,3.671,0,0,1,215.44,194.019Z" transform="translate(-146.244 -92.023)" fill="#164767"/>
        <path id="Trazado_150055" data-name="Trazado 150055" d="M219.124,194.019H162.061a4.591,4.591,0,0,1-4.477-4.1l-7.638-82.284a3.671,3.671,0,0,1,3.716-4.1h57.063a4.591,4.591,0,0,1,4.477,4.1l7.638,82.284A3.671,3.671,0,0,1,219.124,194.019Z" transform="translate(-148.551 -92.023)" fill="#2480ef"/>
        <path id="Trazado_150056" data-name="Trazado 150056" d="M227.209,193.1H175.8l-6.963-75.01h51.408Z" transform="translate(-160.395 -101.135)" fill="#9ce5e5"/>
        <path id="Trazado_150057" data-name="Trazado 150057" d="M186.148,193.6l-5.893-63.487a1.814,1.814,0,0,1,1.837-2.025h39.884a2.269,2.269,0,0,1,2.213,2.025l5.893,63.487a1.815,1.815,0,0,1-1.837,2.025H188.361A2.269,2.269,0,0,1,186.148,193.6Z" transform="translate(-167.54 -107.398)" fill="#fff"/>
        <g id="Grupo_98565" data-name="Grupo 98565" transform="translate(17.884 0)">
          <path id="Trazado_150058" data-name="Trazado 150058" d="M229.7,105.188H194.478l-.347-3.737a6.4,6.4,0,0,1,6.48-7.143h20.941a8,8,0,0,1,7.805,7.143Z" transform="translate(-194.1 -86.24)" fill="#ffc121"/>
          <path id="Trazado_150059" data-name="Trazado 150059" d="M227.149,72.719a4.946,4.946,0,0,0-5.007,5.52,6.185,6.185,0,0,0,6.031,5.519,4.946,4.946,0,0,0,5.007-5.519A6.185,6.185,0,0,0,227.149,72.719Zm.75,8.076a2.869,2.869,0,0,1-2.794-2.556,2.293,2.293,0,0,1,2.319-2.557,2.868,2.868,0,0,1,2.794,2.557A2.293,2.293,0,0,1,227.9,80.8Z" transform="translate(-211.648 -72.719)" fill="#ffc121"/>
        </g>
        <path id="Trazado_150060" data-name="Trazado 150060" d="M229.756,117.158H194.53l-.347-3.737h35.226Z" transform="translate(-176.268 -98.21)" fill="#ffdc21"/>
        <g id="Grupo_98576" data-name="Grupo 98576" transform="translate(18.93 38.626)">
          <g id="Grupo_98566" data-name="Grupo 98566">
            <path id="Trazado_150061" data-name="Trazado 150061" d="M229.533,177.42h-31.9a.75.75,0,0,1-.732-.67h0a.6.6,0,0,1,.607-.67h31.9a.751.751,0,0,1,.732.67h0A.6.6,0,0,1,229.533,177.42Z" transform="translate(-196.9 -176.081)" fill="#33c7ca"/>
            <path id="Trazado_150062" data-name="Trazado 150062" d="M230.279,185.456h-31.9a.75.75,0,0,1-.732-.67h0a.6.6,0,0,1,.607-.67h31.9a.751.751,0,0,1,.732.67h0A.6.6,0,0,1,230.279,185.456Z" transform="translate(-197.367 -181.114)" fill="#33c7ca"/>
            <path id="Trazado_150063" data-name="Trazado 150063" d="M208.6,193.492h-9.474a.75.75,0,0,1-.732-.67h0a.6.6,0,0,1,.607-.67h9.475a.751.751,0,0,1,.732.67h0A.6.6,0,0,1,208.6,193.492Z" transform="translate(-197.835 -186.147)" fill="#33c7ca"/>
          </g>
          <g id="Grupo_98569" data-name="Grupo 98569" transform="translate(1.157 10.868)">
            <g id="Grupo_98567" data-name="Grupo 98567" transform="translate(11.625 2.279)">
              <path id="Trazado_150064" data-name="Trazado 150064" d="M252.174,212.6H231.838a.75.75,0,0,1-.732-.67h0a.6.6,0,0,1,.607-.67H252.05a.751.751,0,0,1,.732.67h0A.6.6,0,0,1,252.174,212.6Z" transform="translate(-231.103 -211.261)" fill="#33c7ca"/>
              <path id="Trazado_150065" data-name="Trazado 150065" d="M252.92,220.636H232.584a.75.75,0,0,1-.732-.67h0a.6.6,0,0,1,.607-.67H252.8a.751.751,0,0,1,.732.67h0A.6.6,0,0,1,252.92,220.636Z" transform="translate(-231.57 -216.294)" fill="#33c7ca"/>
              <path id="Trazado_150066" data-name="Trazado 150066" d="M242.8,228.673h-9.474A.751.751,0,0,1,232.6,228h0a.6.6,0,0,1,.608-.67h9.474a.751.751,0,0,1,.732.67h0A.6.6,0,0,1,242.8,228.673Z" transform="translate(-232.037 -221.328)" fill="#33c7ca"/>
            </g>
            <g id="Grupo_98568" data-name="Grupo 98568">
              <path id="Trazado_150067" data-name="Trazado 150067" d="M207.964,209.487h-7.38a.579.579,0,0,0-.586.646l.685,7.38a.724.724,0,0,0,.706.646h7.38a.579.579,0,0,0,.586-.646l-.685-7.38A.724.724,0,0,0,207.964,209.487Zm.485,7.749a.039.039,0,0,1-.039.043h-6.826a.048.048,0,0,1-.047-.043l-.634-6.826a.039.039,0,0,1,.039-.043h6.826a.048.048,0,0,1,.047.043Z" transform="translate(-199.995 -207.871)" fill="#9ce5e5"/>
              <path id="Trazado_150068" data-name="Trazado 150068" d="M209.881,213.617l-3.579-2.6.972-1.419,2.073,1.5,4.167-5.942,1.512,1.118Z" transform="translate(-203.945 -205.163)" fill="#ffc121"/>
            </g>
          </g>
          <g id="Grupo_98572" data-name="Grupo 98572" transform="translate(2.268 22.844)">
            <g id="Grupo_98570" data-name="Grupo 98570" transform="translate(11.625 2.279)">
              <path id="Trazado_150069" data-name="Trazado 150069" d="M255.149,244.647H234.812a.751.751,0,0,1-.732-.67h0a.6.6,0,0,1,.608-.67h20.337a.751.751,0,0,1,.732.67h0A.6.6,0,0,1,255.149,244.647Z" transform="translate(-234.077 -243.308)" fill="#33c7ca"/>
              <path id="Trazado_150070" data-name="Trazado 150070" d="M255.895,252.683H235.558a.751.751,0,0,1-.732-.67h0a.6.6,0,0,1,.608-.67H255.77a.751.751,0,0,1,.732.67h0A.6.6,0,0,1,255.895,252.683Z" transform="translate(-234.544 -248.341)" fill="#33c7ca"/>
              <path id="Trazado_150071" data-name="Trazado 150071" d="M245.779,260.72H236.3a.751.751,0,0,1-.732-.67h0a.6.6,0,0,1,.608-.669h9.474a.75.75,0,0,1,.732.669h0A.6.6,0,0,1,245.779,260.72Z" transform="translate(-235.012 -253.375)" fill="#33c7ca"/>
            </g>
            <g id="Grupo_98571" data-name="Grupo 98571">
              <path id="Trazado_150072" data-name="Trazado 150072" d="M210.938,241.534h-7.38a.579.579,0,0,0-.586.646l.685,7.38a.724.724,0,0,0,.706.646h7.38a.579.579,0,0,0,.586-.646l-.685-7.38A.724.724,0,0,0,210.938,241.534Zm.485,7.749a.038.038,0,0,1-.039.043h-6.826a.048.048,0,0,1-.047-.043l-.634-6.826a.039.039,0,0,1,.039-.043h6.826a.049.049,0,0,1,.047.043Z" transform="translate(-202.97 -239.918)" fill="#9ce5e5"/>
              <path id="Trazado_150073" data-name="Trazado 150073" d="M212.855,245.664l-3.58-2.6.972-1.419,2.073,1.5,4.167-5.942L218,238.328Z" transform="translate(-206.919 -237.21)" fill="#ffc121"/>
            </g>
          </g>
          <g id="Grupo_98575" data-name="Grupo 98575" transform="translate(3.38 34.82)">
            <g id="Grupo_98573" data-name="Grupo 98573" transform="translate(11.625 2.279)">
              <path id="Trazado_150074" data-name="Trazado 150074" d="M258.124,276.694H237.787a.751.751,0,0,1-.732-.67h0a.6.6,0,0,1,.608-.67H258a.751.751,0,0,1,.732.67h0A.6.6,0,0,1,258.124,276.694Z" transform="translate(-237.052 -275.355)" fill="#33c7ca"/>
              <path id="Trazado_150075" data-name="Trazado 150075" d="M258.87,284.73H238.533a.751.751,0,0,1-.732-.67h0a.6.6,0,0,1,.607-.67h20.337a.751.751,0,0,1,.732.67h0A.6.6,0,0,1,258.87,284.73Z" transform="translate(-237.519 -280.388)" fill="#33c7ca"/>
              <path id="Trazado_150076" data-name="Trazado 150076" d="M248.754,292.767h-9.475a.75.75,0,0,1-.732-.669h0a.6.6,0,0,1,.607-.67h9.475a.75.75,0,0,1,.732.67h0A.6.6,0,0,1,248.754,292.767Z" transform="translate(-237.987 -285.422)" fill="#33c7ca"/>
            </g>
            <g id="Grupo_98574" data-name="Grupo 98574">
              <path id="Trazado_150077" data-name="Trazado 150077" d="M213.913,273.581h-7.38a.579.579,0,0,0-.586.646l.685,7.38a.724.724,0,0,0,.706.646h7.38a.579.579,0,0,0,.586-.646l-.685-7.38A.724.724,0,0,0,213.913,273.581Zm.485,7.749a.038.038,0,0,1-.039.043h-6.826a.048.048,0,0,1-.047-.043l-.633-6.826a.039.039,0,0,1,.039-.043h6.826a.049.049,0,0,1,.047.043Z" transform="translate(-205.945 -271.965)" fill="#9ce5e5"/>
              <path id="Trazado_150078" data-name="Trazado 150078" d="M215.83,277.711l-3.579-2.6.972-1.419,2.073,1.5,4.167-5.942,1.512,1.118Z" transform="translate(-209.894 -269.257)" fill="#ffc121"/>
            </g>
          </g>
        </g>
        <g id="Grupo_98577" data-name="Grupo 98577" transform="translate(17.857 25.377)">
          <path id="Trazado_150079" data-name="Trazado 150079" d="M194.027,140.9l.812,8.969h1.705l-.812-8.969Z" transform="translate(-194.027 -140.797)" fill="#33c7ca"/>
          <path id="Trazado_150080" data-name="Trazado 150080" d="M205.118,145.861a5.358,5.358,0,0,0-.941-1.209l-.776-.766a3.812,3.812,0,0,1-.52-.589,1.231,1.231,0,0,1-.164-.561.881.881,0,0,1,.053-.5c.016-.028.058-.1.246-.1a.254.254,0,0,1,.257.158,2.527,2.527,0,0,1,.169.824l.072.795h1.6l-.068-.748a3.905,3.905,0,0,0-.546-1.849,1.764,1.764,0,0,0-1.571-.689,1.745,1.745,0,0,0-1.524.6,2.538,2.538,0,0,0-.3,1.71,2.939,2.939,0,0,0,.376,1.232,4.634,4.634,0,0,0,.811,1l.692.652a3.649,3.649,0,0,1,.658.794,2.1,2.1,0,0,1,.254.861,1.73,1.73,0,0,1-.027.692c-.013.036-.04.109-.237.109a.305.305,0,0,1-.306-.181,2.752,2.752,0,0,1-.191-.933l-.095-1.043h-1.638l.089.982a4.024,4.024,0,0,0,.6,1.965,1.867,1.867,0,0,0,1.628.724,1.657,1.657,0,0,0,1.532-.67,3.115,3.115,0,0,0,.272-1.9A3.47,3.47,0,0,0,205.118,145.861Z" transform="translate(-198.448 -140.626)" fill="#33c7ca"/>
          <path id="Trazado_150081" data-name="Trazado 150081" d="M217.343,143.164a3.4,3.4,0,0,0-.639-1.866,2,2,0,0,0-1.638-.672,1.864,1.864,0,0,0-1.442.538,2.6,2.6,0,0,0-.466,2.036l.355,3.919a3.576,3.576,0,0,0,.675,1.982,2.039,2.039,0,0,0,1.656.693,1.693,1.693,0,0,0,1.546-.711,3.189,3.189,0,0,0,.308-2Zm-2.117,3.934-.362-4a1.874,1.874,0,0,1,.041-.794c.031-.079.083-.152.256-.152a.289.289,0,0,1,.294.169,2.487,2.487,0,0,1,.175.818l.361,3.993a3.034,3.034,0,0,1-.011.973c-.027.1-.078.158-.248.158a.305.305,0,0,1-.316-.183h0A3.142,3.142,0,0,1,215.226,147.1Z" transform="translate(-205.995 -140.626)" fill="#33c7ca"/>
          <path id="Trazado_150082" data-name="Trazado 150082" d="M234.518,143.476a7.811,7.811,0,0,0-.26-1.506,1.884,1.884,0,0,0-.661-.985,2.253,2.253,0,0,0-1.372-.359,1.785,1.785,0,0,0-1.385.513,3.042,3.042,0,0,0-.407,2.3l.028.312a4.306,4.306,0,0,0,.568,2,1.634,1.634,0,0,0,1.452.717,2.039,2.039,0,0,0,.6-.078l.09,1a3.656,3.656,0,0,1,.032.683c-.019.066-.046.134-.064.183a.386.386,0,0,1-.185.026.238.238,0,0,1-.241-.153,3.314,3.314,0,0,1-.186-.99l-.033-.362h-1.632l.062.686a2.942,2.942,0,0,0,.631,1.773,2,2,0,0,0,1.53.565,1.591,1.591,0,0,0,1.463-.706,3.66,3.66,0,0,0,.275-2.19Zm-1.577,1.284c-.009.123-.04.234-.313.234a.288.288,0,0,1-.293-.167,2.772,2.772,0,0,1-.183-.917l-.069-.764a2.31,2.31,0,0,1,.024-.841c.029-.089.077-.144.226-.144a.282.282,0,0,1,.285.167,2.479,2.479,0,0,1,.176.839Z" transform="translate(-216.807 -140.626)" fill="#33c7ca"/>
          <path id="Trazado_150083" data-name="Trazado 150083" d="M247.508,143.072a3.05,3.05,0,0,0-.67-1.813,2.154,2.154,0,0,0-1.672-.632,1.837,1.837,0,0,0-1.583.649,2.675,2.675,0,0,0-.348,1.832l.371,4.095a3.407,3.407,0,0,0,.669,1.912,2.085,2.085,0,0,0,1.686.685,1.766,1.766,0,0,0,1.589-.7,3.01,3.01,0,0,0,.33-1.93Zm-2.2,4.119-.378-4.178c-.053-.588.033-.724.05-.744.1-.12.176-.12.2-.12a1.411,1.411,0,0,1,.232.013c.259.068.356.523.391.891l.378,4.173a1.723,1.723,0,0,1-.047.9.3.3,0,0,1-.285.145.385.385,0,0,1-.33-.155A2.017,2.017,0,0,1,245.305,147.191Z" transform="translate(-224.833 -140.626)" fill="#33c7ca"/>
          <path id="Trazado_150084" data-name="Trazado 150084" d="M260.668,143.072a3.05,3.05,0,0,0-.67-1.813,2.155,2.155,0,0,0-1.672-.632,1.837,1.837,0,0,0-1.583.649,2.675,2.675,0,0,0-.348,1.832l.371,4.095a3.407,3.407,0,0,0,.669,1.912,2.085,2.085,0,0,0,1.686.685,1.765,1.765,0,0,0,1.588-.7,3.008,3.008,0,0,0,.33-1.93Zm-2.2,4.119-.378-4.178c-.053-.588.033-.724.05-.744.1-.12.176-.12.2-.12a1.411,1.411,0,0,1,.232.013c.259.068.356.523.391.891l.378,4.173a1.723,1.723,0,0,1-.047.9.3.3,0,0,1-.285.145.385.385,0,0,1-.33-.155A2.017,2.017,0,0,1,258.465,147.191Z" transform="translate(-233.075 -140.626)" fill="#33c7ca"/>
          <path id="Trazado_150085" data-name="Trazado 150085" d="M271.125,140.886h-1.339l-.046.136a1.335,1.335,0,0,1-.436.642,1.358,1.358,0,0,1-.66.294l-.187.027.121,1.339h.182a1.858,1.858,0,0,0,.654-.123,1.421,1.421,0,0,0,.205-.1l.611,6.752h1.706Z" transform="translate(-240.643 -140.789)" fill="#33c7ca"/>
        </g>
      </g>
      <g id="Grupo_98581" data-name="Grupo 98581" transform="translate(129.288 133.089)">
        <g id="Grupo_98580" data-name="Grupo 98580">
          <path id="Trazado_150086" data-name="Trazado 150086" d="M342.872,273.293l2.313,1.826c.889-.859,6.78-3.911,7-6.153a2.749,2.749,0,0,0-.647-2.262,2.45,2.45,0,0,0-3.673.1C346.687,267.92,342.872,273.293,342.872,273.293Z" transform="translate(-314.371 -254.093)" fill="#164767"/>
          <path id="Trazado_150087" data-name="Trazado 150087" d="M352.646,398.271H350.8l-.162-1.932h1.848Z" transform="translate(-319.234 -335.773)" fill="#e7afa7"/>
          <path id="Trazado_150088" data-name="Trazado 150088" d="M398.12,398.271h-1.848l-.723-1.932H397.4Z" transform="translate(-347.363 -335.773)" fill="#e7afa7"/>
          <path id="Trazado_150089" data-name="Trazado 150089" d="M367.941,260.124l3.489-.045-1.468-3.982-1.956.5Z" transform="translate(-330.072 -247.939)" fill="#f79889"/>
          <path id="Trazado_150090" data-name="Trazado 150090" d="M367.522,280.748l1.508-15.188a1.487,1.487,0,0,0-1.352-1.58l-9.057.74a1.271,1.271,0,0,0-1.321,1.359l1.24,14.669Z" transform="translate(-323.406 -252.876)" fill="#164767"/>
          <path id="Trazado_150091" data-name="Trazado 150091" d="M361.861,308.85l-3.457,4.576-6.691,28.745h-3.45l4.563-33.321Z" transform="translate(-317.747 -280.978)" fill="#1eafaf"/>
          <path id="Trazado_150092" data-name="Trazado 150092" d="M364.931,308.85l.823,3.865a2.158,2.158,0,0,0,2.123,1.768h0l7.785,27.689h3.37L372.3,308.85Z" transform="translate(-328.187 -280.978)" fill="#33c7ca"/>
          <path id="Trazado_150093" data-name="Trazado 150093" d="M375.4,249.075a.632.632,0,1,0,.6-.664A.632.632,0,0,0,375.4,249.075Z" transform="translate(-334.745 -243.125)" fill="#f79889"/>
          <path id="Trazado_150094" data-name="Trazado 150094" d="M364.97,240.822a1.973,1.973,0,0,0-1.21.783,1.92,1.92,0,0,0-.351,1.2h0l.075,2.317a2.628,2.628,0,0,0,2.587,2.589,2.558,2.558,0,0,0,2.393-2.75l-.066-2.137v0S368.254,240.31,364.97,240.822Z" transform="translate(-327.233 -238.329)" fill="#f79889"/>
          <path id="Trazado_150095" data-name="Trazado 150095" d="M368.565,250.07c-1.006,1.972-1.888.724-2.953.815-.883.076-1.491,1.309-2-.411-.077,2.678,1.212,3.124,2.587,3.076C367.588,253.5,368.937,253.008,368.565,250.07Z" transform="translate(-327.356 -244.164)" fill="#164767"/>
          <path id="Trazado_150096" data-name="Trazado 150096" d="M342.261,399.166l1.018.447.945-.447.848,2.768h-7.863c0-1.384,2.956-1.384,2.956-1.384Z" transform="translate(-310.825 -337.543)" fill="#164767"/>
          <path id="Trazado_150097" data-name="Trazado 150097" d="M388.242,399.166l1.018.447.945-.447.848,2.768h-7.863c0-1.384,2.956-1.384,2.956-1.384Z" transform="translate(-339.622 -337.543)" fill="#164767"/>
          <g id="Grupo_98579" data-name="Grupo 98579">
            <path id="Trazado_150098" data-name="Trazado 150098" d="M268.082,240.9a12.525,12.525,0,1,0,16.945-5.157A12.525,12.525,0,0,0,268.082,240.9Zm19.116,10.2a9.14,9.14,0,1,1-3.764-12.367A9.151,9.151,0,0,1,287.2,251.095Z" transform="translate(-266.606 -234.266)" fill="#ffc121"/>
            <rect id="Rectángulo_35962" data-name="Rectángulo 35962" width="3.501" height="22.647" transform="matrix(0.471, -0.882, 0.882, 0.471, 20.666, 18.844)" fill="#ffc121"/>
            <path id="Trazado_150099" data-name="Trazado 150099" d="M364.036,298.129h0a3.5,3.5,0,0,1-4.737,1.441l-10.915-5.822,3.3-6.178,10.915,5.821A3.5,3.5,0,0,1,364.036,298.129Z" transform="translate(-317.824 -267.651)" fill="#2480ef"/>
          </g>
          <path id="Trazado_150100" data-name="Trazado 150100" d="M374.145,306.525h0a.827.827,0,0,0,1.185-.09l1.047-1.4,1.014-.5-1.261-1.143-.472.184a2.383,2.383,0,0,0-1.237,1.071l-.5.91A.781.781,0,0,0,374.145,306.525Z" transform="translate(-333.764 -277.557)" fill="#f79889"/>
          <path id="Trazado_150101" data-name="Trazado 150101" d="M381.234,295.7l6.368-5.268-2.764-2.171-5.755,5.47Z" transform="translate(-337.05 -268.083)" fill="#164767"/>
          <path id="Trazado_150102" data-name="Trazado 150102" d="M393.579,286.585a2.008,2.008,0,1,0,1.607-2.341A2.008,2.008,0,0,0,393.579,286.585Z" transform="translate(-346.108 -265.546)" fill="#164767"/>
          <path id="Trazado_150103" data-name="Trazado 150103" d="M384.563,273.594l3.614-.795c-.6-1.083-3.611-7.7-5.718-8.5a2.747,2.747,0,0,0-2.352.034,2.449,2.449,0,0,0-.86,3.572C380.013,269.335,384.563,273.594,384.563,273.594Z" transform="translate(-336.889 -252.921)" fill="#164767"/>
          <path id="Trazado_150104" data-name="Trazado 150104" d="M328.754,288.224l.056.177a3.617,3.617,0,0,0,4.643,2.326h0Z" transform="translate(-305.529 -268.06)" fill="#164767"/>
          <path id="Trazado_150105" data-name="Trazado 150105" d="M330.215,287.1a1.467,1.467,0,0,0-1.442.259.254.254,0,0,0,.038.419l1.84,1a.25.25,0,0,0,.361-.144A1.265,1.265,0,0,0,330.215,287.1Z" transform="translate(-305.483 -267.302)" fill="#f79889"/>
          <path id="Trazado_150106" data-name="Trazado 150106" d="M328.9,287.4l-.608-.329a.222.222,0,0,1-.116-.2l.008-.461a.358.358,0,0,1,.358-.352h0a.357.357,0,0,1,.358.358Z" transform="translate(-305.165 -266.705)" fill="#f79889"/>
          <path id="Trazado_150107" data-name="Trazado 150107" d="M368.074,237.953a.8.8,0,0,0-.082-.05c-.321-.171-.52.014-.833.021a1.593,1.593,0,0,1-.929-.359,3.442,3.442,0,0,0-1.109-.68,1.261,1.261,0,0,0-1.2.373c-.254.273-.274.681-.512.965-.116.138-.3.159-.449.262a1.071,1.071,0,0,0-.4,1.246c.03.085.153.615.283.547.2-.1.2-.381.311-.572a.8.8,0,0,1,.832-.28,8.524,8.524,0,0,0,.911.2,4.794,4.794,0,0,0,1.253-.272,1.026,1.026,0,0,1,1.146.349,1.112,1.112,0,0,1,.041.744,1.308,1.308,0,0,0-.012.928.7.7,0,0,0,1.212-.122,1.789,1.789,0,0,0,.2-.774,4.984,4.984,0,0,0-.186-1.737A1.425,1.425,0,0,0,368.074,237.953Z" transform="translate(-326.664 -235.886)" fill="#164767"/>
        </g>
      </g>
      <g id="Grupo_98588" data-name="Grupo 98588" transform="translate(56.438 136.273)">
        <g id="Grupo_98587" data-name="Grupo 98587" transform="translate(11.038 0)">
          <path id="Trazado_150108" data-name="Trazado 150108" d="M113.224,242.888a3.539,3.539,0,0,0-3.028.629,10.033,10.033,0,0,1-1.485,1.324c-.592.315-1.334.314-1.866.721a2.157,2.157,0,0,0-.7,1.816c.025.674.225,1.328.313,2,.2,1.527-.686,2.429-1.6,3.525a4.9,4.9,0,0,0-1.225,2.537,2.486,2.486,0,0,0,1.129,2.447,2.394,2.394,0,0,0,1.08.27,9.656,9.656,0,0,0,2.671-.582,3.064,3.064,0,0,1,2.636.259c.209.161.383.367.6.513a1.889,1.889,0,0,0,2.434-.649,4.881,4.881,0,0,0,.7-2.653,20.884,20.884,0,0,0-.023-2.514,5.351,5.351,0,0,1,.527-2.331c.235-.6.612-1.1.853-1.694a4.274,4.274,0,0,0-2.084-5.263A3.825,3.825,0,0,0,113.224,242.888Z" transform="translate(-102.715 -242.787)" fill="#164767"/>
          <path id="Trazado_150109" data-name="Trazado 150109" d="M133.008,278.575l2.651-1.6-3.975-7.587a1.729,1.729,0,0,0-2.5-.744h0c-.887.565-1.254,2.481-.671,3.93S133.008,278.575,133.008,278.575Z" transform="translate(-118.127 -258.808)" fill="#33c7ca"/>
          <path id="Trazado_150110" data-name="Trazado 150110" d="M124.184,265.906l-2.126-.348.538-3.692,2.126.348Z" transform="translate(-114.264 -254.736)" fill="#f79889"/>
          <path id="Trazado_150111" data-name="Trazado 150111" d="M125.189,250.289c.25.868,1.07,1.527,1.043,2.218l-.067.3c-.006.013-.01.025-.016.038l.009-.007-.2.9a2.115,2.115,0,0,1-4.126-.928l.228-1.013C122.562,250.874,124.355,251.521,125.189,250.289Z" transform="translate(-114.088 -247.486)" fill="#f79889"/>
          <g id="Grupo_98582" data-name="Grupo 98582" transform="translate(3.384 9.542)">
            <path id="Trazado_150112" data-name="Trazado 150112" d="M115.8,280.812l-2.34-10.115a1.389,1.389,0,0,1,1.312-1.6l5.839-.772a1.389,1.389,0,0,1,1.446,1.482l.98,11.007Z" transform="translate(-112.255 -268.321)" fill="#9ce5e5"/>
            <path id="Trazado_150113" data-name="Trazado 150113" d="M125.287,301.745l-3.665,5.907,10.217,33.2h2.113s-4.746-34.307-5.836-39.11Z" transform="translate(-117.375 -289.255)" fill="#eaa813"/>
            <path id="Trazado_150114" data-name="Trazado 150114" d="M118.169,301.745c-.55,16.109-5.884,39.11-5.884,39.11H110.26c-.04-4.966.3-28.828.625-30.933a18.665,18.665,0,0,1,1.314-4.537,16.053,16.053,0,0,1,1.607-3.64h4.363Z" transform="translate(-110.256 -289.255)" fill="#ffc121"/>
          </g>
          <path id="Trazado_150115" data-name="Trazado 150115" d="M150.238,408.136h1.319l-.393-1.733h-1.581Z" transform="translate(-131.503 -345.259)" fill="#f79889"/>
          <path id="Trazado_150116" data-name="Trazado 150116" d="M111.165,408.136h1.319l.086-1.733h-1.581Z" transform="translate(-107.331 -345.259)" fill="#f79889"/>
          <path id="Trazado_150117" data-name="Trazado 150117" d="M130.372,279.744a1.813,1.813,0,1,0,1.971-1.64A1.813,1.813,0,0,0,130.372,279.744Z" transform="translate(-119.466 -264.901)" fill="#9ce5e5"/>
          <path id="Trazado_150118" data-name="Trazado 150118" d="M125.651,268.413l-.584,3.857-3.309-3.352Z" transform="translate(-114.076 -258.837)" fill="#f79889"/>
          <path id="Trazado_150119" data-name="Trazado 150119" d="M121.161,254.922a.757.757,0,1,1-.737-.776A.757.757,0,0,1,121.161,254.922Z" transform="translate(-112.754 -249.901)" fill="#f79889"/>
          <path id="Trazado_150120" data-name="Trazado 150120" d="M151.517,409.159l-.672.295-1.06-.295-.56,1.829h5.63c0-.914-1.953-.914-1.953-.914Z" transform="translate(-131.278 -346.986)" fill="#164767"/>
          <path id="Trazado_150121" data-name="Trazado 150121" d="M111.641,409.159l-.672.295-1.06-.295-.56,1.829h5.63c0-.914-1.953-.914-1.953-.914Z" transform="translate(-106.304 -346.986)" fill="#164767"/>
          <path id="Trazado_150122" data-name="Trazado 150122" d="M147.023,285.575l.068.182a3.8,3.8,0,0,1-2.339,4.934h0Z" transform="translate(-128.477 -269.585)" fill="#33c7ca"/>
          <g id="Grupo_98583" data-name="Grupo 98583" transform="translate(8.9 14.096)">
            <path id="Trazado_150123" data-name="Trazado 150123" d="M131.353,289.886l-6.337-.581,4.022-8.8,6.337.581Z" transform="translate(-125.016 -280.509)" fill="#006cff"/>
          </g>
          <g id="Grupo_98584" data-name="Grupo 98584" transform="translate(17.129 15.342)">
            <path id="Trazado_150124" data-name="Trazado 150124" d="M147.21,285.8a1.286,1.286,0,0,1,1.136-.6.223.223,0,0,1,.2.31l-.731,1.685a.22.22,0,0,1-.328.1A1.11,1.11,0,0,1,147.21,285.8Z" transform="translate(-147.036 -284.69)" fill="#f79889"/>
            <path id="Trazado_150125" data-name="Trazado 150125" d="M149.646,285.029l.242-.556a.2.2,0,0,0-.027-.2l-.255-.315a.314.314,0,0,0-.437-.05h0a.314.314,0,0,0-.054.441Z" transform="translate(-148.296 -283.841)" fill="#f79889"/>
          </g>
          <g id="Grupo_98585" data-name="Grupo 98585" transform="translate(8.73 16.394)">
            <path id="Trazado_150126" data-name="Trazado 150126" d="M128.542,288.966h0a.734.734,0,0,1-.743.78l-1.684-.025-1.384.542-.17-1.5.828-.336a2.43,2.43,0,0,1,1.535-.286l.99.143A.734.734,0,0,1,128.542,288.966Z" transform="translate(-124.561 -287.572)" fill="#f79889"/>
            <path id="Trazado_150127" data-name="Trazado 150127" d="M128.149,287.3l.947.23a.193.193,0,0,0,.2,0l.472-.29a.314.314,0,0,0,.1-.428h0a.314.314,0,0,0-.43-.109Z" transform="translate(-126.808 -286.657)" fill="#f79889"/>
          </g>
          <g id="Grupo_98586" data-name="Grupo 98586" transform="translate(0 10.389)">
            <path id="Trazado_150128" data-name="Trazado 150128" d="M113.944,291.231l-6.382,2.8-.225-3.757,6.478-.836Z" transform="translate(-105.045 -282.396)" fill="#33c7ca"/>
            <path id="Trazado_150129" data-name="Trazado 150129" d="M104.622,280.862l-3.089-.929,4.194-8.292a1.729,1.729,0,0,1,2.485-.8h0c.9.544,1.313,2.451.764,3.913S104.622,280.862,104.622,280.862Z" transform="translate(-101.409 -270.588)" fill="#33c7ca"/>
            <circle id="Elipse_4753" data-name="Elipse 4753" cx="1.792" cy="1.792" r="1.792" transform="translate(0 8.209)" fill="#33c7ca"/>
          </g>
        </g>
      </g>
      <g id="Grupo_98594" data-name="Grupo 98594" transform="translate(47.353 90.805)">
        <g id="Grupo_98590" data-name="Grupo 98590" transform="translate(18.398 16.036)">
          <rect id="Rectángulo_35963" data-name="Rectángulo 35963" width="25.144" height="22.081" rx="2.678" fill="#33c7ca"/>
          <g id="Grupo_98589" data-name="Grupo 98589" transform="translate(4.614 3.442)">
            <rect id="Rectángulo_35964" data-name="Rectángulo 35964" width="3.819" height="9.159" rx="1.91" transform="translate(0 5.574)" fill="#fff"/>
            <path id="Trazado_150130" data-name="Trazado 150130" d="M114.913,191.313a.617.617,0,1,1-.617-.617A.617.617,0,0,1,114.913,191.313Z" transform="translate(-111.905 -184.171)" fill="#9ce5e5"/>
            <path id="Trazado_150131" data-name="Trazado 150131" d="M133.072,182.178a1.112,1.112,0,0,0-.766-1.019,1.515,1.515,0,0,0,.759-1.236,1.62,1.62,0,0,0-1.688-1.468h-3.153a.515.515,0,0,1-.488-.682,8.582,8.582,0,0,0,.7-2.211,2.425,2.425,0,0,0-.8-2.106.863.863,0,0,0-.786-.187.921.921,0,0,0-.54.631,5.692,5.692,0,0,0-.134.852,3.487,3.487,0,0,1-.552,1.417,6.857,6.857,0,0,1-1.121,1.079,3.853,3.853,0,0,0-.827,1.28,1.738,1.738,0,0,1-1.605,1.077h-.607v7.915h8.808c.705,0,1.467-.457,1.467-1.131a1.173,1.173,0,0,0-.462-.972s1.144-.266,1.144-.951a1.186,1.186,0,0,0-.5-.991S133.072,182.959,133.072,182.178Z" transform="translate(-116.781 -173.237)" fill="#fff"/>
          </g>
        </g>
        <g id="Grupo_98593" data-name="Grupo 98593" transform="translate(0 0)">
          <rect id="Rectángulo_35965" data-name="Rectángulo 35965" width="28.881" height="12.718" rx="2.678" fill="#9ce5e5"/>
          <g id="Grupo_98592" data-name="Grupo 98592" transform="translate(4.474 2.463)">
            <g id="Grupo_98591" data-name="Grupo 98591" transform="translate(4.237 0.223)">
              <path id="Trazado_150132" data-name="Trazado 150132" d="M85.691,129.642H71.334a.67.67,0,0,1-.67-.67h0a.67.67,0,0,1,.67-.67H85.691a.67.67,0,0,1,.67.67h0A.67.67,0,0,1,85.691,129.642Z" transform="translate(-70.664 -128.303)" fill="#fff"/>
              <path id="Trazado_150133" data-name="Trazado 150133" d="M85.691,137.679H71.334a.67.67,0,0,1-.67-.67h0a.669.669,0,0,1,.67-.669H85.691a.67.67,0,0,1,.67.669h0A.67.67,0,0,1,85.691,137.679Z" transform="translate(-70.664 -133.337)" fill="#fff"/>
              <path id="Trazado_150134" data-name="Trazado 150134" d="M80.808,145.715H71.334a.67.67,0,0,1-.67-.67h0a.67.67,0,0,1,.67-.67h9.474a.67.67,0,0,1,.67.67h0A.67.67,0,0,1,80.808,145.715Z" transform="translate(-70.664 -138.37)" fill="#fff"/>
            </g>
            <path id="Trazado_150135" data-name="Trazado 150135" d="M61.111,128.6a.893.893,0,1,1-.893-.893A.893.893,0,0,1,61.111,128.6Z" transform="translate(-59.325 -127.706)" fill="#fff"/>
            <path id="Trazado_150136" data-name="Trazado 150136" d="M61.111,136.635a.893.893,0,1,1-.893-.893A.893.893,0,0,1,61.111,136.635Z" transform="translate(-59.325 -132.739)" fill="#fff"/>
            <path id="Trazado_150137" data-name="Trazado 150137" d="M61.111,144.672a.893.893,0,1,1-.893-.893A.893.893,0,0,1,61.111,144.672Z" transform="translate(-59.325 -137.773)" fill="#fff"/>
          </g>
        </g>
      </g>
    </g>
  </g>
</svg>
