<svg xmlns="http://www.w3.org/2000/svg" width="294.779" height="255.287" viewBox="0 0 294.779 255.287">
  <g id="Grupo_100493" data-name="Grupo 100493" transform="translate(-180 -3711.785)">
    <path id="Trazado_147675" data-name="Trazado 147675" d="M131.677,505.075,57.983,377.431l73.694-127.644H279.064l73.7,127.644-73.7,127.644Z" transform="translate(122.017 3461.997)" fill="#ffc967"/>
    <path id="Trazado_151017" data-name="Trazado 151017" d="M1.074,21V6.781h4.58a6.737,6.737,0,0,1,3.389.854,6.006,6.006,0,0,1,2.349,2.412,7.283,7.283,0,0,1,.854,3.491v.654a7.325,7.325,0,0,1-.825,3.5A6.032,6.032,0,0,1,9.1,20.116,6.589,6.589,0,0,1,5.752,21ZM4.5,9.428v8.936H5.693a2.666,2.666,0,0,0,2.266-1.05,5.145,5.145,0,0,0,.791-3.12v-.615a5.1,5.1,0,0,0-.791-3.105,2.713,2.713,0,0,0-2.3-1.045ZM17.324,21h-3.3V10.434h3.3Zm-3.5-13.291a1.469,1.469,0,0,1,.508-1.152,1.916,1.916,0,0,1,1.318-.449,1.916,1.916,0,0,1,1.318.449,1.469,1.469,0,0,1,.508,1.152,1.469,1.469,0,0,1-.508,1.152,1.916,1.916,0,0,1-1.318.449,1.916,1.916,0,0,1-1.318-.449A1.469,1.469,0,0,1,13.828,7.709ZM25.3,21a3.716,3.716,0,0,1-.312-.947A3.06,3.06,0,0,1,22.451,21.2a3.749,3.749,0,0,1-2.539-.9,2.875,2.875,0,0,1-1.045-2.271,2.955,2.955,0,0,1,1.27-2.6,6.468,6.468,0,0,1,3.691-.879h1.016v-.559q0-1.462-1.26-1.462a1.03,1.03,0,0,0-1.172,1.158H19.121a2.95,2.95,0,0,1,1.3-2.487,5.479,5.479,0,0,1,3.325-.956,4.8,4.8,0,0,1,3.193.986,3.429,3.429,0,0,1,1.2,2.705v4.678a4.79,4.79,0,0,0,.449,2.227V21Zm-2.061-2.148a1.836,1.836,0,0,0,1.021-.264,1.653,1.653,0,0,0,.581-.6V16.3h-.957q-1.719,0-1.719,1.543a.942.942,0,0,0,.3.728A1.1,1.1,0,0,0,23.242,18.852Zm6.338-3.213a7.134,7.134,0,0,1,.527-2.832,4.245,4.245,0,0,1,1.514-1.9,3.99,3.99,0,0,1,2.295-.669,3.173,3.173,0,0,1,2.578,1.113l.117-.918H39.6V20.6a4.455,4.455,0,0,1-.649,2.427,4.167,4.167,0,0,1-1.88,1.582,6.91,6.91,0,0,1-2.852.552,5.961,5.961,0,0,1-2.251-.439A4.063,4.063,0,0,1,30.3,23.578l1.377-1.934A3.018,3.018,0,0,0,34.1,22.729a1.96,1.96,0,0,0,2.188-2.246V20.15A3.09,3.09,0,0,1,33.9,21.2a3.819,3.819,0,0,1-3.125-1.479,6.13,6.13,0,0,1-1.191-3.96Zm3.3.205a3.759,3.759,0,0,0,.488,2.056,1.541,1.541,0,0,0,1.367.757,1.748,1.748,0,0,0,1.553-.713V13.5a1.7,1.7,0,0,0-1.533-.723,1.551,1.551,0,0,0-1.377.786A4.287,4.287,0,0,0,32.881,15.844Zm11.611-5.41.107,1.24a3.583,3.583,0,0,1,3.018-1.436,3.015,3.015,0,0,1,2.466.986,4.7,4.7,0,0,1,.845,2.969V21h-3.3V14.33a1.783,1.783,0,0,0-.322-1.177,1.491,1.491,0,0,0-1.172-.376,1.569,1.569,0,0,0-1.436.762V21H41.406V10.434Zm7.842,5.186a6.236,6.236,0,0,1,.615-2.817,4.4,4.4,0,0,1,1.768-1.9,5.323,5.323,0,0,1,2.705-.664,4.858,4.858,0,0,1,3.74,1.47,5.64,5.64,0,0,1,1.367,4v.117a5.472,5.472,0,0,1-1.372,3.921,4.871,4.871,0,0,1-3.716,1.45,4.927,4.927,0,0,1-3.623-1.353,5.29,5.29,0,0,1-1.475-3.667Zm3.291.205a3.932,3.932,0,0,0,.459,2.148,1.529,1.529,0,0,0,1.357.684q1.758,0,1.8-2.705v-.332q0-2.842-1.816-2.842-1.65,0-1.787,2.451ZM57.871,6h3.477L58.633,9.066l-2.686,0ZM69.512,18.031a.76.76,0,0,0-.439-.674,6.684,6.684,0,0,0-1.67-.527,7.615,7.615,0,0,1-2.031-.718,3.4,3.4,0,0,1-1.221-1.079,2.577,2.577,0,0,1-.42-1.455,2.92,2.92,0,0,1,1.2-2.4,4.948,4.948,0,0,1,3.145-.942,5.482,5.482,0,0,1,3.359.947,2.962,2.962,0,0,1,1.27,2.49H69.4q0-1.27-1.338-1.27a1.326,1.326,0,0,0-.869.288.892.892,0,0,0-.352.718.819.819,0,0,0,.43.713,4.06,4.06,0,0,0,1.372.449,11.857,11.857,0,0,1,1.655.42,3.007,3.007,0,0,1,2.383,2.939A2.767,2.767,0,0,1,71.4,20.287a5.631,5.631,0,0,1-3.325.908,5.747,5.747,0,0,1-2.422-.488,4.05,4.05,0,0,1-1.66-1.328,3.007,3.007,0,0,1-.6-1.768h3.076a1.272,1.272,0,0,0,.488,1.069,2.009,2.009,0,0,0,1.2.337,1.58,1.58,0,0,0,1.011-.273A.875.875,0,0,0,69.512,18.031ZM78.057,7.807v2.627h1.738v2.285H78.057v4.834a1.234,1.234,0,0,0,.215.83,1.152,1.152,0,0,0,.85.234,4.828,4.828,0,0,0,.82-.059v2.354a6.074,6.074,0,0,1-1.855.283,3.448,3.448,0,0,1-2.51-.8,3.282,3.282,0,0,1-.811-2.432V12.719H73.418V10.434h1.348V7.807ZM84.561,21h-3.3V10.434h3.3Zm-3.5-13.291a1.469,1.469,0,0,1,.508-1.152,2.159,2.159,0,0,1,2.637,0,1.469,1.469,0,0,1,.508,1.152,1.469,1.469,0,0,1-.508,1.152,2.159,2.159,0,0,1-2.637,0A1.469,1.469,0,0,1,81.064,7.709Zm9.99,10.947a1.464,1.464,0,0,0,1.074-.376,1.379,1.379,0,0,0,.371-1.05h3.086a3.653,3.653,0,0,1-1.245,2.852A4.631,4.631,0,0,1,91.133,21.2,4.689,4.689,0,0,1,87.5,19.75a5.7,5.7,0,0,1-1.328-4v-.137a6.436,6.436,0,0,1,.591-2.827,4.3,4.3,0,0,1,1.7-1.885,5.081,5.081,0,0,1,2.637-.659,4.573,4.573,0,0,1,3.271,1.143,4.053,4.053,0,0,1,1.211,3.1H92.5a1.806,1.806,0,0,0-.4-1.26,1.382,1.382,0,0,0-1.074-.439q-1.279,0-1.494,1.631a11.508,11.508,0,0,0-.068,1.426,4.52,4.52,0,0,0,.381,2.207A1.319,1.319,0,0,0,91.055,18.656Zm5.508-3.037a6.236,6.236,0,0,1,.615-2.817,4.4,4.4,0,0,1,1.768-1.9,5.323,5.323,0,0,1,2.705-.664,4.858,4.858,0,0,1,3.74,1.47,5.64,5.64,0,0,1,1.367,4v.117a5.472,5.472,0,0,1-1.372,3.921,4.871,4.871,0,0,1-3.716,1.45,4.927,4.927,0,0,1-3.623-1.353,5.29,5.29,0,0,1-1.475-3.667Zm3.291.205a3.932,3.932,0,0,0,.459,2.148,1.529,1.529,0,0,0,1.357.684q1.758,0,1.8-2.705v-.332q0-2.842-1.816-2.842-1.65,0-1.787,2.451Zm17.559.566,1.758-5.957H122.7l-4.307,12.334-.186.449a3.272,3.272,0,0,1-3.242,2.051,5.158,5.158,0,0,1-1.357-.195V22.729h.43a2.251,2.251,0,0,0,1.06-.2,1.216,1.216,0,0,0,.542-.718l.264-.7-3.672-10.673h3.516Zm-106.68,26.4a6.372,6.372,0,0,1-1.108,3.931A3.554,3.554,0,0,1,6.631,48.2a3.046,3.046,0,0,1-2.393-1.064v4.932H.947V37.434H4.023l.1.977a3.046,3.046,0,0,1,2.49-1.172,3.582,3.582,0,0,1,3.037,1.44,6.45,6.45,0,0,1,1.084,3.96ZM7.441,42.59q0-2.812-1.641-2.812a1.549,1.549,0,0,0-1.562.84v4.16a1.6,1.6,0,0,0,1.582.879q1.572,0,1.621-2.715ZM15.654,48h-3.3V33h3.3Zm7.979,0a3.716,3.716,0,0,1-.312-.947A3.06,3.06,0,0,1,20.781,48.2a3.749,3.749,0,0,1-2.539-.9A2.875,2.875,0,0,1,17.2,45.021a2.955,2.955,0,0,1,1.27-2.6,6.468,6.468,0,0,1,3.691-.879h1.016v-.559q0-1.462-1.26-1.462a1.03,1.03,0,0,0-1.172,1.158H17.451a2.95,2.95,0,0,1,1.3-2.487,5.479,5.479,0,0,1,3.325-.956,4.8,4.8,0,0,1,3.193.986,3.429,3.429,0,0,1,1.2,2.705v4.678a4.79,4.79,0,0,0,.449,2.227V48Zm-2.061-2.148a1.836,1.836,0,0,0,1.021-.264,1.653,1.653,0,0,0,.581-.6V43.3h-.957q-1.719,0-1.719,1.543a.942.942,0,0,0,.3.728A1.1,1.1,0,0,0,21.572,45.852Zm9.746-8.418.107,1.24a3.583,3.583,0,0,1,3.018-1.436,3.015,3.015,0,0,1,2.466.986,4.7,4.7,0,0,1,.845,2.969V48h-3.3V41.33a1.783,1.783,0,0,0-.322-1.177,1.491,1.491,0,0,0-1.172-.376,1.569,1.569,0,0,0-1.436.762V48H28.232V37.434ZM43.047,48h-3.3V37.434h3.3Zm-3.5-13.291a1.469,1.469,0,0,1,.508-1.152,2.159,2.159,0,0,1,2.637,0,1.561,1.561,0,0,1,0,2.3,2.159,2.159,0,0,1-2.637,0A1.469,1.469,0,0,1,39.551,34.709ZM45.84,48V39.719H44.307V37.434H45.84v-.352a4.034,4.034,0,0,1,1.387-3.232,5.541,5.541,0,0,1,3.6-1.055,12.787,12.787,0,0,1,3.438.566l-.449,2.6-.547-.146a8.7,8.7,0,0,0-2.246-.283q-1.885,0-1.885,1.719v.186h2.07v2.285h-2.07V48Zm9.941,0H52.471V37.434h3.311Zm6.475-2.344a1.464,1.464,0,0,0,1.074-.376,1.379,1.379,0,0,0,.371-1.05h3.086a3.653,3.653,0,0,1-1.245,2.852A4.631,4.631,0,0,1,62.334,48.2,4.689,4.689,0,0,1,58.7,46.75a5.7,5.7,0,0,1-1.328-4v-.137a6.436,6.436,0,0,1,.591-2.827,4.3,4.3,0,0,1,1.7-1.885,5.081,5.081,0,0,1,2.637-.659,4.573,4.573,0,0,1,3.271,1.143,4.053,4.053,0,0,1,1.211,3.1H63.7a1.807,1.807,0,0,0-.4-1.26,1.382,1.382,0,0,0-1.074-.439q-1.279,0-1.494,1.631a11.507,11.507,0,0,0-.068,1.426,4.52,4.52,0,0,0,.381,2.207A1.319,1.319,0,0,0,62.256,45.656ZM74.131,48a3.716,3.716,0,0,1-.312-.947A3.06,3.06,0,0,1,71.279,48.2a3.749,3.749,0,0,1-2.539-.9A2.875,2.875,0,0,1,67.7,45.021a2.955,2.955,0,0,1,1.27-2.6,6.468,6.468,0,0,1,3.691-.879h1.016v-.559q0-1.462-1.26-1.462a1.03,1.03,0,0,0-1.172,1.158H67.949a2.95,2.95,0,0,1,1.3-2.487,5.479,5.479,0,0,1,3.325-.956,4.8,4.8,0,0,1,3.193.986,3.429,3.429,0,0,1,1.2,2.705v4.678a4.79,4.79,0,0,0,.449,2.227V48ZM72.07,45.852a1.836,1.836,0,0,0,1.021-.264,1.653,1.653,0,0,0,.581-.6V43.3h-.957Q71,43.3,71,44.846a.942.942,0,0,0,.3.728A1.1,1.1,0,0,0,72.07,45.852Zm11.191-.2a1.464,1.464,0,0,0,1.074-.376,1.379,1.379,0,0,0,.371-1.05h3.086a3.653,3.653,0,0,1-1.245,2.852A4.631,4.631,0,0,1,83.34,48.2a4.689,4.689,0,0,1-3.633-1.445,5.7,5.7,0,0,1-1.328-4v-.137a6.436,6.436,0,0,1,.591-2.827,4.3,4.3,0,0,1,1.7-1.885,5.081,5.081,0,0,1,2.637-.659,4.573,4.573,0,0,1,3.271,1.143,4.053,4.053,0,0,1,1.211,3.1H84.707a1.806,1.806,0,0,0-.4-1.26,1.382,1.382,0,0,0-1.074-.439q-1.279,0-1.494,1.631a11.508,11.508,0,0,0-.068,1.426,4.52,4.52,0,0,0,.381,2.207A1.319,1.319,0,0,0,83.262,45.656ZM92.656,48h-3.3V37.434h3.3Zm-3.5-13.291a1.469,1.469,0,0,1,.508-1.152,2.159,2.159,0,0,1,2.637,0,1.561,1.561,0,0,1,0,2.3,2.159,2.159,0,0,1-2.637,0A1.469,1.469,0,0,1,89.16,34.709Zm5.107,7.91a6.236,6.236,0,0,1,.615-2.817,4.4,4.4,0,0,1,1.768-1.9,5.323,5.323,0,0,1,2.705-.664,4.858,4.858,0,0,1,3.74,1.47,5.64,5.64,0,0,1,1.367,4v.117a5.472,5.472,0,0,1-1.372,3.921,4.871,4.871,0,0,1-3.716,1.45,4.927,4.927,0,0,1-3.623-1.353,5.29,5.29,0,0,1-1.475-3.667Zm3.291.205a3.932,3.932,0,0,0,.459,2.148,1.529,1.529,0,0,0,1.357.684q1.758,0,1.8-2.705v-.332q0-2.842-1.816-2.842-1.65,0-1.787,2.451ZM99.8,33h3.477l-2.715,3.066-2.686,0Zm9.131,4.434.107,1.24a3.583,3.583,0,0,1,3.018-1.436,3.015,3.015,0,0,1,2.466.986,4.7,4.7,0,0,1,.845,2.969V48h-3.3V41.33a1.783,1.783,0,0,0-.322-1.177,1.491,1.491,0,0,0-1.172-.376,1.569,1.569,0,0,0-1.436.762V48H105.85V37.434Z" transform="translate(274 3864)" fill="#12263f"/>
    <path id="Trazado_151018" data-name="Trazado 151018" d="M-4.635-6.973A8.147,8.147,0,0,1-6.187-1.641,5.366,5.366,0,0,1-10.564.234a5.4,5.4,0,0,1-4.406-1.887,8.135,8.135,0,0,1-1.559-5.32V-10.09a8.147,8.147,0,0,1,1.553-5.332A5.379,5.379,0,0,1-10.588-17.3,5.381,5.381,0,0,1-6.193-15.41a8.155,8.155,0,0,1,1.559,5.332Zm-3.949-3.621a6.085,6.085,0,0,0-.48-2.748,1.606,1.606,0,0,0-1.523-.908,1.568,1.568,0,0,0-1.482.844,5.733,5.733,0,0,0-.5,2.555v4.359a6.131,6.131,0,0,0,.48,2.795,1.612,1.612,0,0,0,1.523.885,1.59,1.59,0,0,0,1.488-.861,5.853,5.853,0,0,0,.492-2.7ZM6.17,0H2.209V-12.609l-3.891,1.137v-3l7.488-2.59H6.17Zm7.652-3.832a2.248,2.248,0,0,1,1.559.557A1.826,1.826,0,0,1,16-1.852a1.826,1.826,0,0,1-.621,1.424,2.248,2.248,0,0,1-1.559.557,2.229,2.229,0,0,1-1.564-.562,1.839,1.839,0,0,1-.615-1.418,1.839,1.839,0,0,1,.615-1.418A2.229,2.229,0,0,1,13.822-3.832Z" transform="translate(250 3883)" fill="#12263f"/>
    <g id="Grupo_96040" data-name="Grupo 96040" transform="translate(-407.349 3733.199)">
      <g id="Board" transform="translate(703.597 1.694)">
        <g id="Grupo_96034" data-name="Grupo 96034" transform="translate(0)">
          <g id="Grupo_96025" data-name="Grupo 96025">
            <path id="Trazado_147707" data-name="Trazado 147707" d="M829.4,69.852H748.2a1.5,1.5,0,0,1-1.5-1.591l2.735-49.784a1.707,1.707,0,0,1,1.679-1.592h81.2a1.5,1.5,0,0,1,1.5,1.592L831.08,68.261A1.707,1.707,0,0,1,829.4,69.852Z" transform="translate(-746.258 -14.543)" fill="#263238"/>
            <path id="Trazado_147708" data-name="Trazado 147708" d="M855.372,21.461h-7.849a4.467,4.467,0,0,1-4.5-4.752l.08-1.452a4.942,4.942,0,0,1,4.864-4.6h7.844a4.472,4.472,0,0,1,4.5,4.757l-.08,1.447A4.942,4.942,0,0,1,855.372,21.461Z" transform="translate(-806.388 -10.653)" fill="#263238"/>
            <path id="Trazado_147709" data-name="Trazado 147709" d="M879.231,119.461h-2.515L869.793,13.6h2.515Z" transform="translate(-823.102 -12.495)" fill="#263238"/>
            <path id="Trazado_147710" data-name="Trazado 147710" d="M844.675,119.461h2.515L854.113,13.6H851.6Z" transform="translate(-807.423 -12.495)" fill="#263238"/>
            <path id="Trazado_147711" data-name="Trazado 147711" d="M828.25,69.852h-81.2a1.5,1.5,0,0,1-1.5-1.591l2.735-49.784a1.707,1.707,0,0,1,1.679-1.592h81.2a1.5,1.5,0,0,1,1.5,1.592l-2.735,49.784A1.707,1.707,0,0,1,828.25,69.852Z" transform="translate(-745.54 -14.543)" fill="#407bff"/>
            <path id="Trazado_147712" data-name="Trazado 147712" d="M750.98,70.861a1.192,1.192,0,0,1-1.2-1.271l2.6-47.374a1.361,1.361,0,0,1,1.341-1.271h78.794a1.191,1.191,0,0,1,1.2,1.271l-2.6,47.374a1.36,1.36,0,0,1-1.341,1.271Z" transform="translate(-748.185 -17.078)" fill="#263238" opacity="0.4"/>
            <path id="Trazado_147713" data-name="Trazado 147713" d="M835.765,49.088H812.047a1.011,1.011,0,0,1-1.021-1.08l1.184-21.564a.143.143,0,0,0-.144-.153.163.163,0,0,0-.161.153l-1.184,21.564a1.154,1.154,0,0,1-1.139,1.08H784.935a1.011,1.011,0,0,1-1.021-1.08L785.1,26.445a.143.143,0,0,0-.144-.153.163.163,0,0,0-.161.153l-1.184,21.564a1.155,1.155,0,0,1-1.139,1.08H758.752a.163.163,0,0,0-.161.153.143.143,0,0,0,.144.153h23.718a1.012,1.012,0,0,1,1.021,1.08l-1.185,21.564a.143.143,0,0,0,.144.153.163.163,0,0,0,.161-.153l1.184-21.564a1.155,1.155,0,0,1,1.139-1.08h24.647a1.012,1.012,0,0,1,1.021,1.08L809.4,72.037a.143.143,0,0,0,.144.153.163.163,0,0,0,.161-.153l1.185-21.564a1.155,1.155,0,0,1,1.139-1.08h23.718a.163.163,0,0,0,.161-.153A.143.143,0,0,0,835.765,49.088Z" transform="translate(-753.687 -20.415)" fill="#fff" opacity="0.1"/>
          </g>
          <g id="Grupo_96026" data-name="Grupo 96026" transform="translate(32.812 8.959)">
            <path id="Trazado_147714" data-name="Trazado 147714" d="M844.345,36.693h-9.527l-.532,9.689,9.513.254Z" transform="translate(-833.75 -35.866)" fill="#263238" opacity="0.4"/>
            <path id="Trazado_147715" data-name="Trazado 147715" d="M842.422,44.847l-9.562-.466a83.787,83.787,0,0,0,.995-9.887l9.618.466A83.814,83.814,0,0,1,842.422,44.847Z" transform="translate(-832.86 -34.494)" fill="#fff"/>
          </g>
          <g id="Grupo_96027" data-name="Grupo 96027" transform="translate(44.977 15.899)">
            <path id="Trazado_147716" data-name="Trazado 147716" d="M875.772,53.918l-9.539.727.209,9.661,9.544-.474Z" transform="translate(-865.857 -53.558)" fill="#263238" opacity="0.4"/>
            <path id="Trazado_147717" data-name="Trazado 147717" d="M874.843,62.859l-9.61.268a82.577,82.577,0,0,0,.239-9.893l9.666-.272A82.875,82.875,0,0,1,874.843,62.859Z" transform="translate(-865.233 -52.962)" fill="#407bff"/>
          </g>
          <g id="Grupo_96028" data-name="Grupo 96028" transform="translate(6.917 31.865)">
            <path id="Trazado_147718" data-name="Trazado 147718" d="M785.641,99.695l-17.587-.672-1.578,15.645,17.545,1.082Z" transform="translate(-765.525 -97.681)" fill="#263238" opacity="0.4"/>
            <path id="Trazado_147719" data-name="Trazado 147719" d="M781.569,112.812l-17.623-1.429a119.427,119.427,0,0,0,2.444-15.933l17.726,1.432A119.617,119.617,0,0,1,781.569,112.812Z" transform="translate(-763.946 -95.451)" fill="#fff"/>
          </g>
          <g id="Grupo_96029" data-name="Grupo 96029" transform="translate(7.28 9.991)" opacity="0.3" style="mix-blend-mode: multiply;isolation: isolate">
            <path id="Trazado_147720" data-name="Trazado 147720" d="M767.749,39.224h0a.931.931,0,0,1-.937-.991h0a1.063,1.063,0,0,1,1.046-.992h0a.932.932,0,0,1,.937.992h0A1.064,1.064,0,0,1,767.749,39.224Z" transform="translate(-766.098 -37.241)" fill="#263238"/>
            <path id="Trazado_147721" data-name="Trazado 147721" d="M788.833,39.224h-12.2a.931.931,0,0,1-.937-.991h0a1.064,1.064,0,0,1,1.046-.992h12.2a.931.931,0,0,1,.937.992h0A1.063,1.063,0,0,1,788.833,39.224Z" transform="translate(-771.642 -37.241)" fill="#263238" opacity="0.8"/>
            <path id="Trazado_147722" data-name="Trazado 147722" d="M767.117,50.731h0a.932.932,0,0,1-.937-.992h0a1.064,1.064,0,0,1,1.046-.991h0a.931.931,0,0,1,.937.991h0A1.064,1.064,0,0,1,767.117,50.731Z" transform="translate(-765.703 -44.424)" fill="#263238"/>
            <path id="Trazado_147723" data-name="Trazado 147723" d="M790.363,50.731H776a.931.931,0,0,1-.937-.992h0a1.063,1.063,0,0,1,1.046-.991h14.364a.931.931,0,0,1,.937.991h0A1.063,1.063,0,0,1,790.363,50.731Z" transform="translate(-771.247 -44.424)" fill="#263238" opacity="0.8"/>
            <path id="Trazado_147724" data-name="Trazado 147724" d="M766.485,62.237h0a.932.932,0,0,1-.937-.992h0a1.064,1.064,0,0,1,1.046-.992h0a.931.931,0,0,1,.937.992h0A1.063,1.063,0,0,1,766.485,62.237Z" transform="translate(-765.309 -51.606)" fill="#263238"/>
            <path id="Trazado_147725" data-name="Trazado 147725" d="M782.358,62.237h-6.991a.931.931,0,0,1-.937-.992h0a1.064,1.064,0,0,1,1.046-.992h6.991a.931.931,0,0,1,.937.992h0A1.064,1.064,0,0,1,782.358,62.237Z" transform="translate(-770.853 -51.606)" fill="#263238" opacity="0.8"/>
            <path id="Trazado_147726" data-name="Trazado 147726" d="M799.587,73.744H792.6a.931.931,0,0,1-.937-.991h0a1.063,1.063,0,0,1,1.046-.992H799.7a.931.931,0,0,1,.937.992h0A1.063,1.063,0,0,1,799.587,73.744Z" transform="translate(-781.608 -58.789)" fill="#263238" opacity="0.8"/>
            <path id="Trazado_147727" data-name="Trazado 147727" d="M765.853,73.744h0a.931.931,0,0,1-.937-.991h0a1.064,1.064,0,0,1,1.046-.992h0a.931.931,0,0,1,.937.992h0A1.063,1.063,0,0,1,765.853,73.744Z" transform="translate(-764.914 -58.789)" fill="#263238"/>
            <path id="Trazado_147728" data-name="Trazado 147728" d="M777.963,73.744h-3.229a.931.931,0,0,1-.937-.991h0a1.063,1.063,0,0,1,1.046-.992h3.229a.931.931,0,0,1,.937.992h0A1.063,1.063,0,0,1,777.963,73.744Z" transform="translate(-770.458 -58.789)" fill="#263238" opacity="0.8"/>
          </g>
          <g id="Grupo_96031" data-name="Grupo 96031" transform="translate(30.416 33.083)">
            <path id="Trazado_147729" data-name="Trazado 147729" d="M839.2,111.278h-4.732l-.65,11.84h4.732Z" transform="translate(-831.065 -106.549)" fill="#407bff"/>
            <path id="Trazado_147730" data-name="Trazado 147730" d="M858.528,117.773H853.8l-.516,9.4h4.732Z" transform="translate(-843.21 -110.604)" fill="#407bff"/>
            <path id="Trazado_147731" data-name="Trazado 147731" d="M878.331,100.995H873.6l-.863,15.7h4.732Z" transform="translate(-855.356 -100.13)" fill="#407bff"/>
            <g id="Grupo_96030" data-name="Grupo 96030">
              <path id="Trazado_147732" data-name="Trazado 147732" d="M830.945,113.483q-.7,0-1.419-.037a8.033,8.033,0,0,1-2.863-.581.305.305,0,0,1,.25-.557,7.461,7.461,0,0,0,2.644.528,24.127,24.127,0,0,0,15.653-4.653,17.431,17.431,0,0,0,4.069-3.944.305.305,0,0,1,.5.346,17.779,17.779,0,0,1-4.224,4.1A24.782,24.782,0,0,1,830.945,113.483Z" transform="translate(-826.483 -102.073)" fill="#fff"/>
              <path id="Trazado_147733" data-name="Trazado 147733" d="M883.351,103.2a.305.305,0,0,1-.282-.422,5.37,5.37,0,0,0,.263-3.286,20.606,20.606,0,0,1-3.78,2.007.305.305,0,1,1-.228-.566,20,20,0,0,0,4.008-2.181.3.3,0,0,1,.464.152,5.937,5.937,0,0,1-.162,4.108A.306.306,0,0,1,883.351,103.2Z" transform="translate(-859.348 -98.694)" fill="#fff"/>
            </g>
          </g>
          <g id="Grupo_96033" data-name="Grupo 96033" transform="translate(60.672 8.806)">
            <path id="Trazado_147734" data-name="Trazado 147734" d="M925.664,51.2h-17.6A1.053,1.053,0,0,1,907,50.074l.817-14.881a1.184,1.184,0,0,1,1.166-1.106h17.6a1.053,1.053,0,0,1,1.061,1.122l-.818,14.881A1.183,1.183,0,0,1,925.664,51.2Zm-16.679-16.8a.874.874,0,0,0-.862.817l-.818,14.881a.748.748,0,0,0,.756.8h17.6a.875.875,0,0,0,.862-.817l.817-14.881a.747.747,0,0,0-.756-.8Z" transform="translate(-906.999 -34.088)" fill="#407bff"/>
            <path id="Trazado_147735" data-name="Trazado 147735" d="M928.417,44.943H908.892a.153.153,0,0,1,0-.305h19.525a.153.153,0,1,1,0,.305Z" transform="translate(-908.086 -40.674)" fill="#407bff"/>
            <path id="Trazado_147736" data-name="Trazado 147736" d="M919.283,57.782h-.009a.153.153,0,0,1-.144-.16l.705-12.839a.153.153,0,1,1,.3.017l-.705,12.838A.153.153,0,0,1,919.283,57.782Z" transform="translate(-914.572 -40.674)" fill="#407bff"/>
            <g id="Grupo_96032" data-name="Grupo 96032" transform="translate(6.82 5.49)">
              <path id="Trazado_147737" data-name="Trazado 147737" d="M937.291,49h-10.6a.153.153,0,1,1,0-.305h10.6a.153.153,0,1,1,0,.305Z" transform="translate(-926.016 -48.698)" fill="#407bff"/>
              <path id="Trazado_147738" data-name="Trazado 147738" d="M935.523,53.984h-9.106a.153.153,0,0,1,0-.305h9.106a.153.153,0,0,1,0,.305Z" transform="translate(-925.845 -51.807)" fill="#407bff"/>
              <path id="Trazado_147739" data-name="Trazado 147739" d="M931.435,59.125h-5.3a.153.153,0,0,1,0-.305h5.3a.153.153,0,0,1,0,.305Z" transform="translate(-925.669 -55.016)" fill="#407bff"/>
              <path id="Trazado_147740" data-name="Trazado 147740" d="M932.054,69.158h-6.47a.153.153,0,1,1,0-.305h6.47a.153.153,0,1,1,0,.305Z" transform="translate(-925.325 -61.279)" fill="#407bff"/>
              <path id="Trazado_147741" data-name="Trazado 147741" d="M930.6,74.3h-5.3a.153.153,0,0,1,0-.305h5.3a.153.153,0,1,1,0,.305Z" transform="translate(-925.148 -64.488)" fill="#407bff"/>
              <path id="Trazado_147742" data-name="Trazado 147742" d="M944.842,74.3h-1.7a.153.153,0,0,1,0-.305h1.7a.153.153,0,1,1,0,.305Z" transform="translate(-936.286 -64.488)" fill="#407bff"/>
              <path id="Trazado_147743" data-name="Trazado 147743" d="M935.786,64.106h-9.926a.153.153,0,0,1,0-.305h9.926a.153.153,0,1,1,0,.305Z" transform="translate(-925.498 -58.126)" fill="#407bff"/>
            </g>
          </g>
          <path id="Trazado_147744" data-name="Trazado 147744" d="M916.474,112.932a7.124,7.124,0,0,1-5.354-1.944,7,7,0,0,1-1.422-5.823,7.033,7.033,0,0,1,4.49-5.91,10.757,10.757,0,0,1,9.1.123,4.164,4.164,0,0,1,2.3,2.333.305.305,0,0,1-.582.183,3.593,3.593,0,0,0-2-1.971,10.143,10.143,0,0,0-8.582-.11,6.43,6.43,0,0,0-4.135,5.441,6.407,6.407,0,0,0,1.266,5.319c1.561,1.686,4.146,1.807,5.548,1.73a9.429,9.429,0,0,0,6.314-2.563c1.714-1.765,2.194-4.4,1.117-6.139a1.919,1.919,0,0,0-1.316-.976.305.305,0,0,1,.06-.607,2.442,2.442,0,0,1,1.774,1.261c1.22,1.966.7,4.927-1.2,6.886a10.032,10.032,0,0,1-6.718,2.748Q916.807,112.932,916.474,112.932Z" transform="translate(-847.947 -65.369)" fill="#fff"/>
        </g>
      </g>
      <g id="Character" transform="translate(678.349 -3.699)">
        <g id="Grupo_96039" data-name="Grupo 96039">
          <path id="Trazado_147745" data-name="Trazado 147745" d="M705.74,48.925l-1.084,1.889-1.062,1.929c-.7,1.288-1.367,2.588-1.977,3.893-.3.655-.593,1.306-.856,1.961l-.049.118a.173.173,0,0,1-.016.028.281.281,0,0,0-.032.052.69.69,0,0,0-.051.108.745.745,0,0,0,.045.421,4.175,4.175,0,0,0,.9,1.372,16.322,16.322,0,0,0,1.467,1.391l-.881,1.876a9.216,9.216,0,0,1-1.214-.429,9.383,9.383,0,0,1-1.147-.588,6.5,6.5,0,0,1-2.118-1.964,4.368,4.368,0,0,1-.663-1.714,3.9,3.9,0,0,1-.02-1.021,3.5,3.5,0,0,1,.086-.5l.062-.244.046-.148c.242-.768.492-1.529.785-2.262.571-1.475,1.215-2.9,1.916-4.288.351-.694.714-1.38,1.1-2.055s.76-1.338,1.2-2.025Z" transform="translate(-689.968 -27.776)" fill="#ffc3bd"/>
          <path id="Trazado_147746" data-name="Trazado 147746" d="M709.931,86.19l1.974-.513.113,3.188a3.213,3.213,0,0,1-2.49-.715Z" transform="translate(-697.812 -52.092)" fill="#ffc3bd"/>
          <path id="Trazado_147747" data-name="Trazado 147747" d="M718.652,84.247l-.445,2.8-2.239.926-.113-3.188Z" transform="translate(-701.761 -51.2)" fill="#ffc3bd"/>
          <path id="Trazado_147748" data-name="Trazado 147748" d="M745.014,11.856c.044.218.2.372.339.343s.222-.23.178-.448-.2-.371-.339-.342S744.969,11.637,745.014,11.856Z" transform="translate(-719.955 -5.729)" fill="#263238"/>
          <path id="Trazado_147749" data-name="Trazado 147749" d="M745.5,13.6a7.965,7.965,0,0,0,1.422,1.654,1.283,1.283,0,0,1-1,.407Z" transform="translate(-720.268 -7.103)" fill="#ed847e"/>
          <path id="Trazado_147750" data-name="Trazado 147750" d="M742.035,8.714a.131.131,0,0,1-.1-.22,1.3,1.3,0,0,1,1.113-.433.131.131,0,0,1-.043.258h0a1.038,1.038,0,0,0-.877.352A.13.13,0,0,1,742.035,8.714Z" transform="translate(-718.022 -3.637)" fill="#263238"/>
          <path id="Trazado_147751" data-name="Trazado 147751" d="M727.46,20.772c.4,2.02.791,5.72-.622,7.068,0,0,.552,2.049,4.3,2.049,4.126,0,1.972-2.048,1.972-2.048-2.252-.538-2.194-2.209-1.8-3.778Z" transform="translate(-708.617 -11.577)" fill="#ffc3bd"/>
          <path id="Trazado_147752" data-name="Trazado 147752" d="M724.088,37.588c-.3-.561-.634-1.2.053-1.4.756-.221,5.613-.632,7.039-.216-.438.78.3,1.738.3,1.738Z" transform="translate(-706.681 -20.95)" fill="#263238"/>
          <path id="Trazado_147753" data-name="Trazado 147753" d="M690.937,290.158a.89.89,0,0,0,.687-.038.266.266,0,0,0,.063-.3.3.3,0,0,0-.168-.192c-.373-.178-1.229.171-1.266.186a.065.065,0,0,0,0,.119A3.477,3.477,0,0,0,690.937,290.158Zm.449-.441a.349.349,0,0,1,.077.025.175.175,0,0,1,.1.112c.035.118-.009.155-.023.167-.148.126-.7.01-1.088-.145A2.147,2.147,0,0,1,691.386,289.717Z" transform="translate(-685.755 -179.37)" fill="#407bff"/>
          <path id="Trazado_147754" data-name="Trazado 147754" d="M690.264,288.688a.062.062,0,0,0,.032,0c.312-.091.98-.565.988-.879a.213.213,0,0,0-.167-.212.358.358,0,0,0-.29.023c-.369.188-.6.953-.612.985a.066.066,0,0,0,.049.083Zm.781-.976.029.008c.081.028.08.068.079.085,0,.185-.445.557-.768.708a1.575,1.575,0,0,1,.5-.776A.233.233,0,0,1,691.046,287.712Z" transform="translate(-685.755 -178.123)" fill="#407bff"/>
          <path id="Trazado_147755" data-name="Trazado 147755" d="M744.884,291.256c.354,0,.7-.048.811-.208a.248.248,0,0,0-.005-.286.328.328,0,0,0-.207-.153c-.459-.125-1.424.425-1.465.449a.065.065,0,0,0,.02.121A4.827,4.827,0,0,0,744.884,291.256Zm.438-.535a.489.489,0,0,1,.126.015.2.2,0,0,1,.128.092c.046.081.029.121.013.145-.129.178-.826.182-1.34.11A2.958,2.958,0,0,1,745.322,290.721Z" transform="translate(-719.321 -180.005)" fill="#407bff"/>
          <path id="Trazado_147756" data-name="Trazado 147756" d="M744.049,290.082a.068.068,0,0,0,.027-.006c.333-.15.993-.747.943-1.059-.012-.073-.064-.165-.244-.183a.478.478,0,0,0-.363.112,1.865,1.865,0,0,0-.429,1.063.065.065,0,0,0,.027.059A.067.067,0,0,0,744.049,290.082Zm.674-1.119.039,0c.118.012.125.058.128.073.03.188-.418.656-.758.861a1.531,1.531,0,0,1,.365-.851A.347.347,0,0,1,744.723,288.963Z" transform="translate(-719.32 -178.907)" fill="#407bff"/>
          <path id="Trazado_147757" data-name="Trazado 147757" d="M736.08,281.365h2.76l.275-6.393h-2.761Z" transform="translate(-714.386 -170.255)" fill="#ffc3bd"/>
          <path id="Trazado_147758" data-name="Trazado 147758" d="M682.161,278.692l2.7.584,2.709-5.954-2.7-.584Z" transform="translate(-680.728 -168.861)" fill="#ffc3bd"/>
          <path id="Trazado_147759" data-name="Trazado 147759" d="M682.739,288.318l-3.031-.656a.24.24,0,0,0-.269.135l-1.052,2.283a.406.406,0,0,0,.291.565c1.062.211,1.59.26,2.922.549.82.178,2.671.629,3.8.874,1.108.24,1.523-.843,1.081-1.045a7.665,7.665,0,0,1-3.344-2.444A.67.67,0,0,0,682.739,288.318Z" transform="translate(-678.349 -178.173)" fill="#263238"/>
          <path id="Trazado_147760" data-name="Trazado 147760" d="M737.058,291.134h-3.014a.241.241,0,0,0-.235.188l-.545,2.454a.4.4,0,0,0,.4.491c1.087-.018,2.659-.082,4.026-.082,1.6,0,2.978.087,4.853.087,1.133,0,1.448-1.146.974-1.249-2.16-.472-3.923-.523-5.789-1.674A1.278,1.278,0,0,0,737.058,291.134Z" transform="translate(-712.622 -180.344)" fill="#263238"/>
          <g id="Grupo_96035" data-name="Grupo 96035" transform="translate(8.557 16.813)">
            <path id="Trazado_147761" data-name="Trazado 147761" d="M705.842,41.117c-2.587.593-4.72,7.2-4.72,7.2l5.2,3.96a11.339,11.339,0,0,0,2.756-5.1C709.963,43.712,708.488,40.511,705.842,41.117Z" transform="translate(-701.122 -41.043)" fill="#407bff"/>
            <path id="Trazado_147762" data-name="Trazado 147762" d="M705.842,41.117c-2.587.593-4.72,7.2-4.72,7.2l5.2,3.96a11.339,11.339,0,0,0,2.756-5.1C709.963,43.712,708.488,40.511,705.842,41.117Z" transform="translate(-701.122 -41.043)" fill="#fafafa" opacity="0.2"/>
          </g>
          <path id="Trazado_147763" data-name="Trazado 147763" d="M716.308,54.167c-1.405,1.39-1.864,3.923-1.973,6.125l.229.177a11.349,11.349,0,0,0,2.758-5.1c.053-.207.1-.413.135-.616Z" transform="translate(-700.812 -32.423)" opacity="0.2"/>
          <g id="Grupo_96036" data-name="Grupo 96036" transform="translate(13.278 16.171)">
            <path id="Trazado_147764" data-name="Trazado 147764" d="M729.15,40.194s2.938,3.318.163,23.86H714.548c-.1-2.267,1.322-13.323-.864-24a38.494,38.494,0,0,1,4.943-.624,54.182,54.182,0,0,1,6.277,0A27.71,27.71,0,0,1,729.15,40.194Z" transform="translate(-713.684 -39.335)" fill="#407bff"/>
            <path id="Trazado_147765" data-name="Trazado 147765" d="M729.15,40.194s2.938,3.318.163,23.86H714.548c-.1-2.267,1.322-13.323-.864-24a38.494,38.494,0,0,1,4.943-.624,54.182,54.182,0,0,1,6.277,0A27.71,27.71,0,0,1,729.15,40.194Z" transform="translate(-713.684 -39.335)" fill="#fafafa" opacity="0.2"/>
          </g>
          <path id="Trazado_147766" data-name="Trazado 147766" d="M752.589,58.246l-.056-.048-3.356.8c-.192,2.27,2.142,4.983,3.344,6.223A64.411,64.411,0,0,0,752.589,58.246Z" transform="translate(-722.555 -34.939)" opacity="0.2"/>
          <g id="Grupo_96037" data-name="Grupo 96037" transform="translate(2.742 103.878)">
            <path id="Trazado_147767" data-name="Trazado 147767" d="M739.334,274.976l-.141,3.3h-2.762l.141-3.3Z" transform="translate(-717.348 -274.137)" opacity="0.2"/>
            <path id="Trazado_147768" data-name="Trazado 147768" d="M687.044,272.741l2.7.584-1.4,3.069-2.7-.584Z" transform="translate(-685.646 -272.741)" opacity="0.2"/>
          </g>
          <path id="Trazado_147769" data-name="Trazado 147769" d="M725.194,7.423c.709,2.646.99,4.231,2.623,5.331A3.64,3.64,0,0,0,733.428,9.7c.086-2.524-1.088-6.428-3.928-6.962A3.737,3.737,0,0,0,725.194,7.423Z" transform="translate(-707.508 -0.279)" fill="#ffc3bd"/>
          <path id="Trazado_147770" data-name="Trazado 147770" d="M721.427,8.086c1.125.644,5.227-1.508,4.385-4.77A6.266,6.266,0,0,0,727.2-.637c-.177-2.074-1.6-2.864-3.114-2.419-1.335.392-1.3,1.123-1.3,1.123s-6.308.743-4.962,3.307C715.258,4.174,720.023,7.282,721.427,8.086Z" transform="translate(-702.525 3.373)" fill="#263238"/>
          <path id="Trazado_147771" data-name="Trazado 147771" d="M716.468,8.181s-.752-1.3-1.848-.572A2.809,2.809,0,0,1,716.468,8.181Z" transform="translate(-700.99 -3.222)" fill="#263238"/>
          <path id="Trazado_147772" data-name="Trazado 147772" d="M742.2.4s1.375-3.1-.768-4.1A5.307,5.307,0,0,1,742.2.4Z" transform="translate(-717.725 3.699)" fill="#263238"/>
          <path id="Trazado_147773" data-name="Trazado 147773" d="M737.319,13.437a3.1,3.1,0,0,0,1.114,1.647c.719.535,1.255.009,1.2-.8-.046-.732-.475-1.892-1.267-2.108S737.113,12.643,737.319,13.437Z" transform="translate(-715.13 -6.183)" fill="#ffc3bd"/>
          <path id="Trazado_147774" data-name="Trazado 147774" d="M705.162,105.117s-3.133,21.1-4.853,29c-1.883,8.655-11.983,37.29-11.983,37.29l-4.941-1.07S690.447,147,692.027,134.9c1.214-9.294,3.607-29.785,3.607-29.785Z" transform="translate(-681.493 -64.227)" fill="#263238"/>
          <path id="Trazado_147775" data-name="Trazado 147775" d="M688.919,275.331c.021,0-.921,1.787-.921,1.787l-5.56-1.2.469-1.671Z" transform="translate(-680.901 -169.8)" fill="#407bff"/>
          <path id="Trazado_147776" data-name="Trazado 147776" d="M730.958,125.073c-3.622.71-3.239,14.219-2.8,21.167,1.045-4.911,2.574-14.362,3.619-21.069A1.237,1.237,0,0,0,730.958,125.073Z" transform="translate(-709.269 -76.667)" opacity="0.3"/>
          <path id="Trazado_147777" data-name="Trazado 147777" d="M739.153,105.117s.38,20.64.08,29.058c-.312,8.756-3.371,37.427-3.371,37.427h-4.677s-.171-28.159-.38-36.759c-.227-9.375-1.359-29.727-1.359-29.727Z" transform="translate(-710.246 -64.227)" fill="#263238"/>
          <path id="Trazado_147778" data-name="Trazado 147778" d="M807.654,66.393h-9.527l-.532,9.689,9.513.254Z" transform="translate(-752.786 -40.055)" fill="#263238" opacity="0.4"/>
          <path id="Trazado_147779" data-name="Trazado 147779" d="M795.189,64.84l-9.541-1.177a82.716,82.716,0,0,0,1.72-9.744l9.6,1.181A82.7,82.7,0,0,1,795.189,64.84Z" transform="translate(-745.328 -32.267)" fill="#407bff"/>
          <path id="Trazado_147780" data-name="Trazado 147780" d="M738.769,277.09c.022,0-.264,1.942-.264,1.942h-5.688l-.154-1.733Z" transform="translate(-712.253 -171.578)" fill="#407bff"/>
          <path id="Trazado_147781" data-name="Trazado 147781" d="M752.486,48.321c.424.661.908,1.4,1.391,2.089s.984,1.383,1.5,2.048a28.08,28.08,0,0,0,3.289,3.671c.291.269.588.517.888.747l.226.17A.732.732,0,0,0,759.65,57c-.1-.019-.146,0-.12.012a1.255,1.255,0,0,0,.618-.142,7.247,7.247,0,0,0,.95-.493,32.981,32.981,0,0,0,3.969-3.076l1.613,1.3a19.165,19.165,0,0,1-3.614,4.409,8.894,8.894,0,0,1-1.292.951,5.046,5.046,0,0,1-1.9.7,3.329,3.329,0,0,1-1.437-.122,3.219,3.219,0,0,1-.73-.337L757.388,60q-.645-.418-1.228-.879a27.235,27.235,0,0,1-4.047-4.063c-.589-.728-1.16-1.465-1.689-2.23s-1.039-1.513-1.537-2.375Z" transform="translate(-722.381 -28.773)" fill="#ffc3bd"/>
          <g id="Grupo_96038" data-name="Grupo 96038" transform="translate(24.602 16.92)">
            <path id="Trazado_147782" data-name="Trazado 147782" d="M743.9,45.614c-.883,3.7,5.814,7.325,5.814,7.325l4.35-5.1a36.126,36.126,0,0,0-4.444-5.365C746.576,39.557,744.572,42.8,743.9,45.614Z" transform="translate(-743.82 -41.328)" fill="#407bff"/>
            <path id="Trazado_147783" data-name="Trazado 147783" d="M743.9,45.614c-.883,3.7,5.814,7.325,5.814,7.325l4.35-5.1a36.126,36.126,0,0,0-4.444-5.365C746.576,39.557,744.572,42.8,743.9,45.614Z" transform="translate(-743.82 -41.328)" fill="#fafafa" opacity="0.2"/>
          </g>
          <path id="Trazado_147784" data-name="Trazado 147784" d="M790.785,58.147l1.026-3.3,2.7,1.346s-.394,2.4-2.36,2.822Z" transform="translate(-748.535 -32.849)" fill="#ffc3bd"/>
          <path id="Trazado_147785" data-name="Trazado 147785" d="M794.6,52.418l2.437.671-.819,1.589-2.7-1.346Z" transform="translate(-750.24 -31.331)" fill="#ffc3bd"/>
        </g>
      </g>
    </g>
  </g>
</svg>
