<svg xmlns="http://www.w3.org/2000/svg" width="429.824" height="439.131" viewBox="0 0 429.824 439.131">
  <g id="Grupo_100489" data-name="Grupo 100489" transform="translate(-27.485 -42.633)">
    <g id="Background_Complete" data-name="Background Complete">
      <g id="Grupo_95562" data-name="Grupo 95562">
        <path id="Trazado_147542" data-name="Trazado 147542" d="M52.509,288.967l4.209,8.529,9.412,1.368L59.32,305.5l1.608,9.374-8.419-4.426-8.419,4.426L45.7,305.5l-6.811-6.639L48.3,297.5Z" fill="#ffd3a3"/>
      </g>
      <g id="Grupo_95563" data-name="Grupo 95563">
        <path id="Trazado_147543" data-name="Trazado 147543" d="M57.732,214.661,67.079,233.6l20.9,3.037L72.856,251.38l3.57,20.816-18.694-9.828L39.038,272.2l3.57-20.816L27.485,236.638l20.9-3.037Z" fill="#ffd3a3"/>
      </g>
      <g id="Grupo_95564" data-name="Grupo 95564">
        <path id="Trazado_147544" data-name="Trazado 147544" d="M444.271,175.324l4.029,8.163,9.008,1.309-6.519,6.354,1.539,8.972-8.057-4.236-8.057,4.236,1.539-8.972-6.519-6.354,9.009-1.309Z" fill="#ffd3a3"/>
      </g>
      <g id="Grupo_95565" data-name="Grupo 95565">
        <path id="Trazado_147545" data-name="Trazado 147545" d="M312.049,43.068l4.029,8.163,9.009,1.309-6.519,6.354,1.539,8.972-8.057-4.236-8.058,4.236,1.539-8.972-6.519-6.354,9.008-1.309Z" fill="#ffd3a3"/>
      </g>
      <g id="Grupo_95566" data-name="Grupo 95566">
        <path id="Trazado_147546" data-name="Trazado 147546" d="M404.224,130.409l2.637,5.343,5.9.857-4.267,4.159,1.007,5.872-5.274-2.773-5.274,2.773,1.007-5.872-4.267-4.159,5.9-.857Z" fill="#ffd3a3"/>
      </g>
      <g id="Grupo_95567" data-name="Grupo 95567">
        <path id="Trazado_147547" data-name="Trazado 147547" d="M160.924,400.108l5.136,10.406,11.484,1.669-8.31,8.1,1.962,11.438-10.272-5.4-10.272,5.4,1.962-11.438-8.31-8.1,11.484-1.669Z" fill="#ffd3a3"/>
      </g>
      <g id="Grupo_95568" data-name="Grupo 95568">
        <path id="Trazado_147548" data-name="Trazado 147548" d="M174.481,389.764l2.122,4.3,4.745.69-3.433,3.347.811,4.726-4.244-2.231-4.244,2.231.811-4.726-3.433-3.347,4.745-.69Z" fill="#ffd3a3"/>
      </g>
    </g>
    <g id="Stars">
      <g id="Grupo_95569" data-name="Grupo 95569">
        <path id="Trazado_147549" data-name="Trazado 147549" d="M364.135,349.92l4.516,9.15,10.1,1.467-7.306,7.122,1.725,10.057-9.031-4.748-9.031,4.748,1.725-10.057-7.306-7.122,10.1-1.467Z" fill="#ff6d60"/>
      </g>
      <g id="Grupo_95570" data-name="Grupo 95570">
        <path id="Trazado_147550" data-name="Trazado 147550" d="M385.678,341.811l2.128,4.311,4.758.691-3.443,3.356.813,4.739-4.256-2.237-4.256,2.237.813-4.739-3.443-3.356,4.758-.691Z" fill="#ff6d60"/>
      </g>
    </g>
    <g id="Speech_Bubble" data-name="Speech Bubble">
      <g id="Grupo_95591" data-name="Grupo 95591">
        <g id="Grupo_95586" data-name="Grupo 95586">
          <g id="Grupo_95585" data-name="Grupo 95585">
            <g id="Grupo_95584" data-name="Grupo 95584">
              <g id="Grupo_95583" data-name="Grupo 95583">
                <g id="Grupo_95582" data-name="Grupo 95582">
                  <g id="Grupo_95581" data-name="Grupo 95581">
                    <g id="Grupo_95580" data-name="Grupo 95580">
                      <g id="Grupo_95579" data-name="Grupo 95579">
                        <g id="Grupo_95578" data-name="Grupo 95578">
                          <g id="Grupo_95577" data-name="Grupo 95577">
                            <g id="Grupo_95576" data-name="Grupo 95576">
                              <g id="Grupo_95575" data-name="Grupo 95575">
                                <g id="Grupo_95574" data-name="Grupo 95574">
                                  <g id="Grupo_95571" data-name="Grupo 95571">
                                    <path id="Trazado_147551" data-name="Trazado 147551" d="M357.442,103.66l3.531-11.06a34.474,34.474,0,1,1,27.765,18.971,32.393,32.393,0,0,1-19.835-8.6h0Z" fill="#fafafa"/>
                                  </g>
                                  <g id="Grupo_95573" data-name="Grupo 95573">
                                    <g id="Grupo_95572" data-name="Grupo 95572">
                                      <path id="Trazado_147552" data-name="Trazado 147552" d="M357.442,103.66s.265-.028.763-.064l2.2-.159,8.487-.581.047,0,.036.033a31.732,31.732,0,0,0,14.956,7.766,35.561,35.561,0,0,0,5.261.751l2.8.106c.948-.007,1.91-.106,2.888-.156a34.331,34.331,0,0,0,22.7-11.577,33.881,33.881,0,0,0,7.075-12.822,34.84,34.84,0,0,0,.85-15.509,30.439,30.439,0,0,0-.914-3.931,15.773,15.773,0,0,0-.656-1.926c-.244-.634-.468-1.28-.731-1.911a35.111,35.111,0,0,0-4.228-7.1,31.921,31.921,0,0,0-2.706-3.147,17.58,17.58,0,0,0-1.5-1.418c-.518-.45-1-.935-1.543-1.353l-1.645-1.213-.82-.6-.871-.521-1.735-1.038c-.584-.332-1.208-.585-1.807-.881a34.251,34.251,0,0,0-46.575,18.891l-.492,1.371a8.964,8.964,0,0,0-.421,1.369q-.344,1.38-.676,2.716a48.234,48.234,0,0,0-.614,5.275,34.263,34.263,0,0,0,3.5,16.527l.021.042-.014.043c-1.17,3.563-2.069,6.3-2.683,8.173l-.7,2.12c-.16.479-.252.732-.252.732s.06-.229.2-.7q.225-.735.646-2.1c.588-1.9,1.451-4.677,2.574-8.291l.006.085a34.261,34.261,0,0,1-3.642-16.641,47.9,47.9,0,0,1,.594-5.332q.33-1.353.671-2.75a9.2,9.2,0,0,1,.42-1.386l.492-1.389a34.6,34.6,0,0,1,47.165-19.218c.608.3,1.241.557,1.834.893l1.763,1.052.884.529.833.611,1.67,1.232c.547.424,1.042.916,1.567,1.372a18.127,18.127,0,0,1,1.52,1.44,32.392,32.392,0,0,1,2.748,3.194,35.619,35.619,0,0,1,4.29,7.211c.267.641.494,1.3.742,1.941a16.192,16.192,0,0,1,.665,1.955,30.9,30.9,0,0,1,.926,3.991,35.3,35.3,0,0,1-.879,15.739,34.328,34.328,0,0,1-7.2,12.993,34.679,34.679,0,0,1-23.017,11.659c-.99.047-1.963.143-2.922.145l-2.83-.118a35.732,35.732,0,0,1-5.307-.785,31.755,31.755,0,0,1-15.034-7.938l.083.03-8.574.448-2.175.106C357.675,103.657,357.442,103.66,357.442,103.66Z" fill="#263238"/>
                                    </g>
                                  </g>
                                </g>
                              </g>
                            </g>
                          </g>
                        </g>
                      </g>
                    </g>
                  </g>
                </g>
              </g>
            </g>
          </g>
        </g>
        <g id="Grupo_95590" data-name="Grupo 95590">
          <g id="Grupo_95589" data-name="Grupo 95589">
            <g id="Grupo_95588" data-name="Grupo 95588">
              <g id="Grupo_95587" data-name="Grupo 95587">
                <path id="Trazado_147553" data-name="Trazado 147553" d="M372.306,76l5.672-4.911,9.553,9.8,21.417-17.836,4.533,5.644L386.042,91.04Z" fill="#ff6d60"/>
              </g>
            </g>
          </g>
        </g>
      </g>
    </g>
    <g id="Form">
      <g id="Grupo_95707" data-name="Grupo 95707">
        <g id="Grupo_95636" data-name="Grupo 95636">
          <g id="Grupo_95612" data-name="Grupo 95612">
            <g id="Grupo_95599" data-name="Grupo 95599">
              <g id="Grupo_95594" data-name="Grupo 95594">
                <g id="Grupo_95593" data-name="Grupo 95593">
                  <g id="Grupo_95592" data-name="Grupo 95592">
                    <path id="Trazado_147554" data-name="Trazado 147554" d="M298.111,349.494,106.349,392.23a8.635,8.635,0,0,1-10.307-6.549L33.809,106.432a8.636,8.636,0,0,1,6.55-10.307L232.122,53.389a8.634,8.634,0,0,1,10.306,6.55l62.233,279.249A8.634,8.634,0,0,1,298.111,349.494Z" fill="#e0e0e0"/>
                  </g>
                </g>
              </g>
              <g id="Grupo_95598" data-name="Grupo 95598">
                <g id="Grupo_95597" data-name="Grupo 95597">
                  <g id="Grupo_95596" data-name="Grupo 95596">
                    <g id="Grupo_95595" data-name="Grupo 95595">
                      <path id="Trazado_147555" data-name="Trazado 147555" d="M298.111,349.494s.214-.066.637-.187a9.283,9.283,0,0,0,1.8-.783,8.885,8.885,0,0,0,2.423-2.109,8.678,8.678,0,0,0,1.753-4.049,8.209,8.209,0,0,0-.021-2.67c-.156-.931-.412-1.9-.63-2.925q-.689-3.066-1.5-6.7c-1.085-4.844-2.337-10.433-3.747-16.725l-23.824-106.6c-5.024-22.505-10.526-47.156-16.433-73.619q-4.428-19.848-9.151-41.013-2.358-10.572-4.784-21.448-1.22-5.433-2.454-10.937a8.412,8.412,0,0,0-8.138-6.347,11.889,11.889,0,0,0-2.783.4l-2.8.625-5.631,1.256-11.362,2.534-23.112,5.154-47.67,10.629L40.428,96.322a8.427,8.427,0,0,0-6.487,9.654c.9,4.256,1.886,8.519,2.821,12.757Q39.6,131.453,42.393,144L53.4,193.4c7.215,32.39,14.173,63.633,20.8,93.395s12.922,58.045,18.815,84.514q1.1,4.962,2.19,9.84c.369,1.62.706,3.255,1.1,4.843a8.391,8.391,0,0,0,2.477,4.07,8.565,8.565,0,0,0,4.244,2.08,9.085,9.085,0,0,0,2.369.074c.779-.1,1.564-.294,2.348-.468l9.307-2.07,35.331-7.861L259,358.127,288,351.706l7.542-1.66c1.7-.372,2.572-.552,2.572-.552s-.866.208-2.563.593l-7.533,1.7-28.977,6.5-106.6,23.824-35.325,7.886-9.305,2.077c-.783.173-1.562.365-2.383.475a9.439,9.439,0,0,1-2.461-.075,8.9,8.9,0,0,1-4.41-2.158,8.73,8.73,0,0,1-2.578-4.229c-.4-1.616-.731-3.231-1.1-4.857q-1.089-4.876-2.2-9.839c-5.9-26.466-12.213-54.745-18.852-84.505s-13.6-61-20.825-93.39q-5.415-24.291-11.013-49.4l-5.632-25.268c-.937-4.247-1.912-8.481-2.825-12.777a8.842,8.842,0,0,1,6.8-10.128L140.586,73.581l47.672-10.619,23.114-5.147,11.363-2.531,5.631-1.254,2.8-.624A12.3,12.3,0,0,1,234.036,53a8.8,8.8,0,0,1,8.5,6.634q1.233,5.511,2.452,10.95,2.421,10.874,4.775,21.45,4.708,21.147,9.131,41.018c5.889,26.467,11.375,51.121,16.383,73.63l23.7,106.63c1.4,6.3,2.636,11.886,3.71,16.734q.805,3.635,1.485,6.706c.215,1.026.466,1.99.622,2.932a8.307,8.307,0,0,1,.011,2.7,8.717,8.717,0,0,1-1.787,4.076,8.876,8.876,0,0,1-2.451,2.107,9.092,9.092,0,0,1-1.812.767C298.328,349.442,298.111,349.494,298.111,349.494Z" fill="#263238"/>
                    </g>
                  </g>
                </g>
              </g>
            </g>
            <g id="Grupo_95602" data-name="Grupo 95602" opacity="0.3">
              <g id="Grupo_95601" data-name="Grupo 95601">
                <g id="Grupo_95600" data-name="Grupo 95600">
                  <path id="Trazado_147556" data-name="Trazado 147556" d="M116.073,382.344,290.794,342.4l-5.528-34.246-9.9-19.189L108.224,354.618Z"/>
                </g>
              </g>
            </g>
            <g id="Grupo_95605" data-name="Grupo 95605" opacity="0.3">
              <g id="Grupo_95604" data-name="Grupo 95604">
                <g id="Grupo_95603" data-name="Grupo 95603">
                  <path id="Trazado_147557" data-name="Trazado 147557" d="M189.016,63.631l6.609,10.914,1.288,5.782-4.486,1Z"/>
                </g>
              </g>
            </g>
            <g id="Grupo_95611" data-name="Grupo 95611">
              <g id="Grupo_95607" data-name="Grupo 95607">
                <g id="Grupo_95606" data-name="Grupo 95606">
                  <path id="Trazado_147558" data-name="Trazado 147558" d="M43.764,108.05l60.618,272,190.011-42.345-10.839-48.637L233.774,65.7Z" fill="#fff"/>
                </g>
              </g>
              <g id="Grupo_95610" data-name="Grupo 95610">
                <g id="Grupo_95609" data-name="Grupo 95609">
                  <g id="Grupo_95608" data-name="Grupo 95608">
                    <path id="Trazado_147559" data-name="Trazado 147559" d="M43.764,108.05,233.737,65.54l.165-.037.037.165c16.857,75.589,37.894,169.919,60.652,271.971l.005.022.046.2-.2.046L104.423,380.238l-.186.042-.042-.187C68.514,219.469,44.132,109.707,43.764,108.05c.37,1.656,24.9,111.385,60.8,271.96l-.228-.145L294.346,337.5l-.158.25,0-.022c-22.729-102.059-43.739-196.394-60.574-271.988l.2.128Z" fill="#263238"/>
                  </g>
                </g>
              </g>
            </g>
          </g>
          <g id="Grupo_95635" data-name="Grupo 95635">
            <g id="Grupo_95615" data-name="Grupo 95615">
              <g id="Grupo_95614" data-name="Grupo 95614">
                <g id="Grupo_95613" data-name="Grupo 95613">
                  <path id="Rectángulo_35699" data-name="Rectángulo 35699" d="M6.326,0H92.173A6.326,6.326,0,0,1,98.5,6.326V28.569a0,0,0,0,1,0,0H0a0,0,0,0,1,0,0V6.326A6.326,6.326,0,0,1,6.326,0Z" transform="translate(91.098 77.077) rotate(-12.564)" fill="#373660"/>
                </g>
              </g>
            </g>
            <g id="Grupo_95618" data-name="Grupo 95618" style="isolation: isolate">
              <g id="Grupo_95617" data-name="Grupo 95617">
                <g id="Grupo_95616" data-name="Grupo 95616">
                  <path id="Trazado_147560" data-name="Trazado 147560" d="M149.066,53.15,124.6,58.6l7.534,20.336,18.432-4.108Z" fill="#373660"/>
                </g>
              </g>
            </g>
            <g id="Grupo_95622" data-name="Grupo 95622">
              <g id="Grupo_95621" data-name="Grupo 95621">
                <g id="Grupo_95620" data-name="Grupo 95620">
                  <g id="Grupo_95619" data-name="Grupo 95619">
                    <path id="Trazado_147561" data-name="Trazado 147561" d="M181.062,57.027c.025.112-18.713,4.382-41.847,9.538S97.3,75.812,97.274,75.7s18.709-4.381,41.851-9.538S181.037,56.916,181.062,57.027Z" fill="#455a64"/>
                  </g>
                </g>
              </g>
            </g>
            <g id="Grupo_95626" data-name="Grupo 95626">
              <g id="Grupo_95625" data-name="Grupo 95625">
                <g id="Grupo_95624" data-name="Grupo 95624">
                  <g id="Grupo_95623" data-name="Grupo 95623">
                    <path id="Trazado_147562" data-name="Trazado 147562" d="M98.462,99.983c-.112.025-1.081-3.9-2.165-8.764s-1.873-8.83-1.762-8.855,1.081,3.9,2.165,8.765S98.573,99.958,98.462,99.983Z" fill="#455a64"/>
                  </g>
                </g>
              </g>
            </g>
            <g id="Grupo_95630" data-name="Grupo 95630">
              <g id="Grupo_95629" data-name="Grupo 95629">
                <g id="Grupo_95628" data-name="Grupo 95628">
                  <g id="Grupo_95627" data-name="Grupo 95627">
                    <path id="Trazado_147563" data-name="Trazado 147563" d="M188.873,77.644a81.084,81.084,0,0,1-1.984-7.953,81.088,81.088,0,0,1-1.581-8.043,81.333,81.333,0,0,1,1.984,7.953A81.731,81.731,0,0,1,188.873,77.644Z" fill="#455a64"/>
                  </g>
                </g>
              </g>
            </g>
            <g id="Grupo_95634" data-name="Grupo 95634">
              <g id="Grupo_95633" data-name="Grupo 95633">
                <g id="Grupo_95632" data-name="Grupo 95632">
                  <g id="Grupo_95631" data-name="Grupo 95631">
                    <path id="Trazado_147564" data-name="Trazado 147564" d="M185.063,82.387c.025.111-19.21,4.493-42.957,9.785s-43.026,9.494-43.051,9.382,19.206-4.492,42.961-9.786S185.038,82.275,185.063,82.387Z" fill="#455a64"/>
                  </g>
                </g>
              </g>
            </g>
          </g>
        </g>
        <g id="Grupo_95639" data-name="Grupo 95639">
          <g id="Grupo_95638" data-name="Grupo 95638">
            <g id="Grupo_95637" data-name="Grupo 95637">
              <path id="Trazado_147565" data-name="Trazado 147565" d="M134.45,161.514c.025.113-12.948,3.1-28.972,6.671s-29.041,6.376-29.066,6.263,12.945-3.1,28.975-6.671S134.425,161.4,134.45,161.514Z" fill="#263238"/>
            </g>
          </g>
        </g>
        <g id="Grupo_95642" data-name="Grupo 95642">
          <g id="Grupo_95641" data-name="Grupo 95641">
            <g id="Grupo_95640" data-name="Grupo 95640">
              <path id="Trazado_147566" data-name="Trazado 147566" d="M231.163,150.622c.026.113-33.872,7.764-75.7,17.086s-75.777,16.791-75.8,16.679,33.866-7.762,75.711-17.088S231.138,150.51,231.163,150.622Z" fill="#263238"/>
            </g>
          </g>
        </g>
        <g id="Grupo_95645" data-name="Grupo 95645">
          <g id="Grupo_95644" data-name="Grupo 95644">
            <g id="Grupo_95643" data-name="Grupo 95643">
              <path id="Trazado_147567" data-name="Trazado 147567" d="M233.247,159.97c.025.113-33.873,7.764-75.7,17.086s-75.776,16.791-75.8,16.678,33.865-7.761,75.71-17.087S233.221,159.857,233.247,159.97Z" fill="#263238"/>
            </g>
          </g>
        </g>
        <g id="Grupo_95648" data-name="Grupo 95648">
          <g id="Grupo_95647" data-name="Grupo 95647">
            <g id="Grupo_95646" data-name="Grupo 95646">
              <path id="Trazado_147568" data-name="Trazado 147568" d="M235.33,169.318c.025.113-33.873,7.763-75.7,17.086-41.846,9.325-75.777,16.791-75.8,16.678s33.865-7.762,75.71-17.087S235.3,169.205,235.33,169.318Z" fill="#263238"/>
            </g>
          </g>
        </g>
        <g id="Grupo_95651" data-name="Grupo 95651">
          <g id="Grupo_95650" data-name="Grupo 95650">
            <g id="Grupo_95649" data-name="Grupo 95649">
              <path id="Trazado_147569" data-name="Trazado 147569" d="M237.413,178.666c.025.113-33.873,7.763-75.7,17.086-41.845,9.325-75.777,16.791-75.8,16.678s33.866-7.762,75.711-17.087S237.388,178.553,237.413,178.666Z" fill="#263238"/>
            </g>
          </g>
        </g>
        <g id="Grupo_95654" data-name="Grupo 95654">
          <g id="Grupo_95653" data-name="Grupo 95653">
            <g id="Grupo_95652" data-name="Grupo 95652">
              <path id="Trazado_147570" data-name="Trazado 147570" d="M239.5,188.014c.026.113-33.872,7.763-75.7,17.085s-75.776,16.792-75.8,16.679,33.866-7.762,75.711-17.087S239.471,187.9,239.5,188.014Z" fill="#263238"/>
            </g>
          </g>
        </g>
        <g id="Grupo_95657" data-name="Grupo 95657">
          <g id="Grupo_95656" data-name="Grupo 95656">
            <g id="Grupo_95655" data-name="Grupo 95655">
              <path id="Trazado_147571" data-name="Trazado 147571" d="M117.372,253.814a2.393,2.393,0,0,1-.092-.317c-.057-.232-.13-.526-.22-.89-.192-.811-.458-1.933-.793-3.342-.668-2.892-1.606-6.955-2.727-11.815l.216.138L97.361,241.27c-.037.054.3-.471.157-.246v0l0,.009,0,.017.008.035.016.071.031.14.063.281.124.56q.125.558.248,1.112.246,1.108.487,2.194.481,2.17.94,4.241l1.7,7.742-.216-.138,11.855-2.547,3.362-.7.9-.179a2.068,2.068,0,0,1,.325-.051,1.44,1.44,0,0,1-.278.082l-.856.213-3.3.784-11.928,2.753-.176.04-.04-.178c-.538-2.385-1.124-4.982-1.745-7.732-.308-1.377-.626-2.793-.95-4.239q-.243-1.086-.49-2.193-.123-.553-.248-1.112l-.125-.56-.063-.281-.031-.14-.016-.07-.007-.036,0-.017,0-.009v0c-.143.222.192-.308.159-.254l16.408-3.627.178-.039.038.176c1.058,4.923,1.943,9.039,2.572,11.968l.693,3.323c.07.354.126.639.171.865A1.454,1.454,0,0,1,117.372,253.814Z" fill="#263238"/>
            </g>
          </g>
        </g>
        <g id="Grupo_95660" data-name="Grupo 95660">
          <g id="Grupo_95659" data-name="Grupo 95659">
            <g id="Grupo_95658" data-name="Grupo 95658">
              <rect id="Rectángulo_35700" data-name="Rectángulo 35700" width="117.218" height="9.779" transform="translate(124.867 238.867) rotate(-12.564)" fill="#e0e0e0"/>
            </g>
          </g>
        </g>
        <g id="Grupo_95663" data-name="Grupo 95663">
          <g id="Grupo_95662" data-name="Grupo 95662">
            <g id="Grupo_95661" data-name="Grupo 95661">
              <path id="Trazado_147572" data-name="Trazado 147572" d="M123.713,282.265a1.983,1.983,0,0,1-.092-.316c-.057-.232-.13-.526-.22-.89-.192-.811-.459-1.933-.793-3.343-.668-2.891-1.606-6.954-2.728-11.814l.216.137-16.4,3.683c-.036.054.3-.471.158-.247v.005l0,.009,0,.017.008.035.016.071.031.14.062.281.125.56q.125.558.248,1.112.246,1.107.487,2.193.481,2.172.94,4.242c.606,2.753,1.178,5.353,1.7,7.741l-.216-.137,11.855-2.547,3.363-.7.9-.179a2.341,2.341,0,0,1,.326-.052,1.3,1.3,0,0,1-.278.083l-.856.212-3.3.785L107.349,286.1l-.176.04-.04-.178-1.745-7.733q-.463-2.065-.95-4.238-.243-1.086-.49-2.193c-.083-.369-.165-.74-.249-1.112l-.124-.56-.063-.281-.031-.14-.016-.071-.008-.035,0-.017,0-.009v-.005c-.142.222.192-.307.16-.253l16.408-3.627.178-.04.038.177c1.058,4.923,1.943,9.039,2.572,11.968.292,1.4.524,2.517.692,3.322.07.355.127.64.172.866A1.46,1.46,0,0,1,123.713,282.265Z" fill="#263238"/>
            </g>
          </g>
        </g>
        <g id="Grupo_95666" data-name="Grupo 95666">
          <g id="Grupo_95665" data-name="Grupo 95665">
            <g id="Grupo_95664" data-name="Grupo 95664">
              <rect id="Rectángulo_35701" data-name="Rectángulo 35701" width="117.218" height="9.779" transform="matrix(0.976, -0.218, 0.218, 0.976, 131.208, 267.319)" fill="#e0e0e0"/>
            </g>
          </g>
        </g>
        <g id="Grupo_95669" data-name="Grupo 95669">
          <g id="Grupo_95668" data-name="Grupo 95668">
            <g id="Grupo_95667" data-name="Grupo 95667">
              <path id="Trazado_147573" data-name="Trazado 147573" d="M130.053,310.717a2.273,2.273,0,0,1-.091-.316c-.058-.233-.13-.526-.22-.89-.193-.811-.459-1.933-.793-3.343-.668-2.891-1.606-6.954-2.728-11.814l.216.137-16.395,3.683c-.037.054.3-.472.158-.247v.005l0,.008,0,.018.008.035.015.071.032.14.062.281.125.56q.125.558.247,1.112l.488,2.193q.48,2.172.939,4.242c.606,2.753,1.179,5.353,1.7,7.741l-.216-.137,11.855-2.547,3.363-.7.9-.179a2.364,2.364,0,0,1,.325-.052,1.351,1.351,0,0,1-.277.083l-.856.213-3.3.784L113.69,314.55l-.176.04-.04-.178c-.539-2.385-1.125-4.982-1.745-7.733q-.463-2.065-.95-4.238-.243-1.086-.49-2.193-.125-.553-.249-1.112l-.125-.56-.062-.281-.031-.14-.016-.071-.008-.035,0-.017,0-.009v-.005c-.142.222.192-.307.16-.253l16.407-3.627.179-.04.038.177c1.058,4.923,1.942,9.039,2.572,11.968.292,1.4.524,2.517.692,3.322.07.354.127.64.171.866A1.353,1.353,0,0,1,130.053,310.717Z" fill="#263238"/>
            </g>
          </g>
        </g>
        <g id="Grupo_95672" data-name="Grupo 95672">
          <g id="Grupo_95671" data-name="Grupo 95671">
            <g id="Grupo_95670" data-name="Grupo 95670">
              <rect id="Rectángulo_35702" data-name="Rectángulo 35702" width="117.218" height="9.779" transform="matrix(0.976, -0.218, 0.218, 0.976, 137.549, 295.771)" fill="#e0e0e0"/>
            </g>
          </g>
        </g>
        <g id="Grupo_95678" data-name="Grupo 95678">
          <g id="Grupo_95677" data-name="Grupo 95677">
            <g id="Grupo_95676" data-name="Grupo 95676">
              <g id="Grupo_95675" data-name="Grupo 95675">
                <g id="Grupo_95674" data-name="Grupo 95674">
                  <g id="Grupo_95673" data-name="Grupo 95673">
                    <path id="Trazado_147574" data-name="Trazado 147574" d="M101.615,247.935l1.718-2.7,5.108,2.84,6.575-9.919,2.545,1.753-8.485,12.5Z" fill="#ff6d60"/>
                  </g>
                </g>
              </g>
            </g>
          </g>
        </g>
        <g id="Grupo_95684" data-name="Grupo 95684">
          <g id="Grupo_95683" data-name="Grupo 95683">
            <g id="Grupo_95682" data-name="Grupo 95682">
              <g id="Grupo_95681" data-name="Grupo 95681">
                <g id="Grupo_95680" data-name="Grupo 95680">
                  <g id="Grupo_95679" data-name="Grupo 95679">
                    <path id="Trazado_147575" data-name="Trazado 147575" d="M107.744,275.435l1.718-2.7,5.108,2.84,6.575-9.919,2.545,1.753L115.2,279.9Z" fill="#ff6d60"/>
                  </g>
                </g>
              </g>
            </g>
          </g>
        </g>
        <g id="Grupo_95690" data-name="Grupo 95690">
          <g id="Grupo_95689" data-name="Grupo 95689">
            <g id="Grupo_95688" data-name="Grupo 95688">
              <g id="Grupo_95687" data-name="Grupo 95687">
                <g id="Grupo_95686" data-name="Grupo 95686">
                  <g id="Grupo_95685" data-name="Grupo 95685">
                    <path id="Trazado_147576" data-name="Trazado 147576" d="M114.028,303.631l1.718-2.7,5.108,2.84,6.575-9.918,2.546,1.753-8.486,12.5Z" fill="#ff6d60"/>
                  </g>
                </g>
              </g>
            </g>
          </g>
        </g>
        <g id="Grupo_95693" data-name="Grupo 95693">
          <g id="Grupo_95692" data-name="Grupo 95692">
            <g id="Grupo_95691" data-name="Grupo 95691">
              <path id="Trazado_147577" data-name="Trazado 147577" d="M166.4,339.015c.025.112-9.635,2.361-21.574,5.022s-21.641,4.727-21.666,4.614,9.633-2.361,21.575-5.023S166.37,338.9,166.4,339.015Z" fill="#263238"/>
            </g>
          </g>
        </g>
        <g id="Grupo_95696" data-name="Grupo 95696">
          <g id="Grupo_95695" data-name="Grupo 95695">
            <g id="Grupo_95694" data-name="Grupo 95694">
              <path id="Trazado_147578" data-name="Trazado 147578" d="M187.941,333.864A79.977,79.977,0,0,1,180,335.847a79.936,79.936,0,0,1-8.028,1.575,80.028,80.028,0,0,1,7.937-1.984A80.022,80.022,0,0,1,187.941,333.864Z" fill="#263238"/>
            </g>
          </g>
        </g>
        <g id="Grupo_95699" data-name="Grupo 95699">
          <g id="Grupo_95698" data-name="Grupo 95698">
            <g id="Grupo_95697" data-name="Grupo 95697">
              <path id="Trazado_147579" data-name="Trazado 147579" d="M259.281,311.409c.025.113-8.666,2.146-19.411,4.541s-19.479,4.245-19.5,4.132,8.665-2.146,19.413-4.541S259.256,311.3,259.281,311.409Z" fill="#263238"/>
            </g>
          </g>
        </g>
        <g id="Grupo_95702" data-name="Grupo 95702">
          <g id="Grupo_95701" data-name="Grupo 95701">
            <g id="Grupo_95700" data-name="Grupo 95700">
              <path id="Trazado_147580" data-name="Trazado 147580" d="M249.992,337.733c-.024-.008.085-.274.191-.8a5.271,5.271,0,0,0-.121-2.31,21.23,21.23,0,0,0-1.382-3.442,11.548,11.548,0,0,1-1.369-4.768,7.346,7.346,0,0,1,2.535-5.383,6.959,6.959,0,0,1,6.645-1.238,6.765,6.765,0,0,1,3.163,2.076,3.253,3.253,0,0,1,.751,1.872,1.746,1.746,0,0,1-1.173,1.69,14.832,14.832,0,0,1-1.968.488l-1.987.409c-1.337.264-2.7.509-4.093.692a30.036,30.036,0,0,1-8.181.046,4.988,4.988,0,0,0-3.591.586,12.516,12.516,0,0,0-2.165,2.923,3.5,3.5,0,0,1-1.394,1.246,2.56,2.56,0,0,1-1.835.076,16.3,16.3,0,0,1-2.918-1.682,3.575,3.575,0,0,0-1.407-.532,2.007,2.007,0,0,0-1.34.338,7.811,7.811,0,0,0-1.694,2.22,5.284,5.284,0,0,1-4.222,2.436,4.977,4.977,0,0,1-3.5-1.241,5.1,5.1,0,0,1-1.384-1.918,3.209,3.209,0,0,1-.227-.795c.022-.006.082.274.3.761a5.253,5.253,0,0,0,1.413,1.828,4.828,4.828,0,0,0,3.383,1.131,5.043,5.043,0,0,0,3.987-2.363,7.936,7.936,0,0,1,1.758-2.325,2.336,2.336,0,0,1,1.558-.406,3.893,3.893,0,0,1,1.546.565,16.493,16.493,0,0,0,2.854,1.631,2.181,2.181,0,0,0,1.572-.069,3.131,3.131,0,0,0,1.234-1.125,12.556,12.556,0,0,1,2.239-3.02,3.769,3.769,0,0,1,1.874-.705,9.525,9.525,0,0,1,2,.032,29.787,29.787,0,0,0,8.086-.054c1.379-.181,2.734-.423,4.066-.685l1.982-.406a14.845,14.845,0,0,0,1.9-.462,1.325,1.325,0,0,0,.923-1.3,2.873,2.873,0,0,0-.66-1.632,6.4,6.4,0,0,0-2.965-1.956,6.61,6.61,0,0,0-6.3,1.136,7.055,7.055,0,0,0-2.463,5.123,11.446,11.446,0,0,0,1.286,4.666,20.276,20.276,0,0,1,1.328,3.5,5.126,5.126,0,0,1,.044,2.365A3.642,3.642,0,0,1,249.992,337.733Z" fill="#263238"/>
            </g>
          </g>
        </g>
        <g id="Grupo_95705" data-name="Grupo 95705">
          <g id="Grupo_95704" data-name="Grupo 95704">
            <g id="Grupo_95703" data-name="Grupo 95703">
              <path id="Trazado_147581" data-name="Trazado 147581" d="M270.667,324.931a2.685,2.685,0,0,1-.522.155l-1.514.365-5.576,1.293c-4.709,1.092-11.206,2.633-18.354,4.445s-13.6,3.557-18.256,4.842l-5.519,1.521-1.5.4a2.644,2.644,0,0,1-.533.112,2.626,2.626,0,0,1,.509-.193l1.482-.476c1.29-.407,3.163-.971,5.484-1.65,4.641-1.358,11.08-3.147,18.234-4.963s13.664-3.31,18.392-4.328c2.363-.509,4.28-.906,5.607-1.163l1.531-.288A2.628,2.628,0,0,1,270.667,324.931Z" fill="#263238"/>
            </g>
          </g>
        </g>
        <g id="Grupo_95706" data-name="Grupo 95706">
          <rect id="Rectángulo_35703" data-name="Rectángulo 35703" width="79.571" height="14.95" transform="translate(110.985 122.807) rotate(-12.564)" fill="#e0e0e0"/>
        </g>
      </g>
    </g>
    <g id="Character">
      <g id="Grupo_96023" data-name="Grupo 96023">
        <g id="Grupo_95802" data-name="Grupo 95802">
          <g id="Grupo_95717" data-name="Grupo 95717">
            <g id="Grupo_95712" data-name="Grupo 95712" style="isolation: isolate">
              <g id="Grupo_95711" data-name="Grupo 95711">
                <g id="Grupo_95710" data-name="Grupo 95710">
                  <g id="Grupo_95709" data-name="Grupo 95709">
                    <g id="Grupo_95708" data-name="Grupo 95708">
                      <path id="Trazado_147582" data-name="Trazado 147582" d="M262.119,342.306l25.092,132.562,22.93-42.367L353.6,458.009,307.468,328.925Z" fill="#ff6d60"/>
                    </g>
                  </g>
                </g>
              </g>
            </g>
            <g id="Grupo_95714" data-name="Grupo 95714" opacity="0.3">
              <g id="Grupo_95713" data-name="Grupo 95713">
                <path id="Trazado_147583" data-name="Trazado 147583" d="M270.558,386.89A15.086,15.086,0,0,0,283.9,382.8c2.286-2.366,3.811-5.579,6.694-7.162,2.587-1.422,5.778-1.22,8.624-.434s5.526,2.105,8.384,2.846a21.907,21.907,0,0,0,16.719-2.482l-7.238-20.1-33.6-4.2L267.459,370.52Z"/>
              </g>
            </g>
            <g id="Grupo_95716" data-name="Grupo 95716">
              <g id="Grupo_95715" data-name="Grupo 95715">
                <path id="Trazado_147584" data-name="Trazado 147584" d="M308.506,427.236c-.139.036-3.876-13.731-8.345-30.747s-7.981-30.846-7.842-30.883,3.875,13.729,8.346,30.75S308.645,427.2,308.506,427.236Z" fill="#263238"/>
              </g>
            </g>
          </g>
          <g id="Grupo_95722" data-name="Grupo 95722">
            <g id="Grupo_95721" data-name="Grupo 95721">
              <g id="Grupo_95720" data-name="Grupo 95720">
                <g id="Grupo_95719" data-name="Grupo 95719">
                  <g id="Grupo_95718" data-name="Grupo 95718">
                    <path id="Trazado_147585" data-name="Trazado 147585" d="M265.792,349.2,240.7,481.763,217.769,439.4,174.307,464.9l46.135-129.084Z" fill="#ff6d60"/>
                  </g>
                </g>
              </g>
            </g>
          </g>
          <g id="Grupo_95723" data-name="Grupo 95723" opacity="0.3">
            <path id="Trazado_147586" data-name="Trazado 147586" d="M206.643,374.429s7.137,5.875,15.651,3.168,13.8-3.276,18.4,0,17.076,13.956,17.076,13.956l2.9-15.294-16.745-23-17.489,3.531-12.455,1.244-4.63,8.764Z"/>
          </g>
          <g id="Grupo_95724" data-name="Grupo 95724">
            <path id="Trazado_147587" data-name="Trazado 147587" d="M412.9,229.537c0,9.511-12.157,17.7-13.935,26.693-1.832,9.262,6.23,21.471,2.7,29.993-3.6,8.67-17.965,11.586-23.124,19.293-5.2,7.766-2.427,22.151-9.011,28.735s-20.969,3.811-28.735,9.01c-7.706,5.159-10.622,19.529-19.293,23.125-8.521,3.533-20.73-4.529-29.992-2.7-8.989,1.778-17.182,13.935-26.693,13.935s-17.7-12.157-26.693-13.935c-9.262-1.832-21.471,6.23-29.993,2.7-8.67-3.6-11.586-17.966-19.293-23.125-7.766-5.2-22.15-2.427-28.735-9.011s-3.811-20.969-9.01-28.735c-5.159-7.706-19.529-10.622-23.125-19.293-3.533-8.521,4.529-20.73,2.7-29.992-1.778-8.989-13.935-17.182-13.935-26.693s12.157-17.7,13.935-26.693c1.832-9.262-6.23-21.471-2.7-29.993,3.595-8.67,17.965-11.586,23.124-19.293,5.2-7.765,2.427-22.15,9.011-28.735s20.969-3.811,28.735-9.01c7.707-5.159,10.622-19.529,19.293-23.125,8.521-3.533,20.73,4.529,29.992,2.7,8.989-1.778,17.182-13.935,26.693-13.935s17.7,12.157,26.693,13.935c9.262,1.832,21.471-6.23,29.993-2.7,8.67,3.595,11.586,17.965,19.293,23.125,7.766,5.2,22.15,2.426,28.735,9.01s3.811,20.969,9.01,28.735c5.159,7.707,19.529,10.622,23.125,19.293,3.533,8.521-4.529,20.73-2.7,29.992C400.747,211.833,412.9,220.026,412.9,229.537Z" fill="#ff6d60"/>
          </g>
          <g id="Grupo_95726" data-name="Grupo 95726">
            <g id="Grupo_95725" data-name="Grupo 95725">
              <path id="Trazado_147588" data-name="Trazado 147588" d="M230.168,146.531a1.759,1.759,0,0,1-.269-.409c-.186-.331-.411-.734-.682-1.219-.586-1.062-1.394-2.62-2.359-4.562-1.932-3.882-4.43-9.336-6.839-15.5s-4.26-11.876-5.467-16.041c-.6-2.083-1.065-3.776-1.353-4.954l-.324-1.359A1.708,1.708,0,0,1,212.8,102a1.788,1.788,0,0,1,.18.455l.418,1.332,1.509,4.9c1.3,4.131,3.2,9.8,5.6,15.959s4.841,11.615,6.685,15.532l2.209,4.63c.236.5.432.919.594,1.263A1.766,1.766,0,0,1,230.168,146.531Z" fill="#263238"/>
            </g>
          </g>
          <g id="Grupo_95728" data-name="Grupo 95728">
            <g id="Grupo_95727" data-name="Grupo 95727">
              <path id="Trazado_147589" data-name="Trazado 147589" d="M243.346,141.519a5.017,5.017,0,0,1-.382-1.1c-.215-.719-.5-1.765-.828-3.063-.66-2.6-1.478-6.209-2.218-10.231s-1.257-7.691-1.562-10.352c-.153-1.331-.26-2.41-.314-3.158a4.964,4.964,0,0,1-.035-1.166,5.01,5.01,0,0,1,.236,1.143c.129.848.289,1.9.478,3.132.4,2.645.973,6.294,1.709,10.307s1.5,7.627,2.064,10.24c.263,1.224.486,2.259.667,3.1A5.037,5.037,0,0,1,243.346,141.519Z" fill="#263238"/>
            </g>
          </g>
          <g id="Grupo_95730" data-name="Grupo 95730">
            <g id="Grupo_95729" data-name="Grupo 95729">
              <path id="Trazado_147590" data-name="Trazado 147590" d="M266.6,139.209c-.144,0-.514-11.214-.827-25.051s-.45-25.063-.306-25.066.514,11.212.826,25.054S266.739,139.206,266.6,139.209Z" fill="#263238"/>
            </g>
          </g>
          <g id="Grupo_95732" data-name="Grupo 95732">
            <g id="Grupo_95731" data-name="Grupo 95731">
              <path id="Trazado_147591" data-name="Trazado 147591" d="M289.99,116.161c.137.042-1.477,5.651-3.6,12.526s-3.966,12.417-4.1,12.374,1.476-5.65,3.6-12.528S289.852,116.118,289.99,116.161Z" fill="#263238"/>
            </g>
          </g>
          <g id="Grupo_95734" data-name="Grupo 95734">
            <g id="Grupo_95733" data-name="Grupo 95733">
              <path id="Trazado_147592" data-name="Trazado 147592" d="M299.54,145.147a1.738,1.738,0,0,1,.125-.473c.124-.359.275-.794.456-1.319.4-1.144,1.024-2.784,1.8-4.806,1.562-4.042,3.811-9.59,6.369-15.685s4.935-11.591,6.688-15.553l2.106-4.679.6-1.26a1.75,1.75,0,0,1,.241-.425,1.729,1.729,0,0,1-.145.467c-.139.353-.307.782-.509,1.3-.493,1.2-1.152,2.8-1.954,4.744-1.7,4.064-4,9.547-6.546,15.608s-4.813,11.553-6.507,15.62c-.8,1.946-1.462,3.547-1.954,4.743l-.548,1.283A1.8,1.8,0,0,1,299.54,145.147Z" fill="#263238"/>
            </g>
          </g>
          <g id="Grupo_95736" data-name="Grupo 95736">
            <g id="Grupo_95735" data-name="Grupo 95735">
              <path id="Trazado_147593" data-name="Trazado 147593" d="M312.041,151.666a4.961,4.961,0,0,1,.57-1.018c.394-.638.988-1.545,1.739-2.654,1.5-2.219,3.658-5.23,6.172-8.455s4.913-6.049,6.7-8.046c.892-1,1.628-1.795,2.15-2.333a5,5,0,0,1,.849-.8,5.076,5.076,0,0,1-.7.935l-2.024,2.439c-1.712,2.054-4.057,4.909-6.567,8.125s-4.705,6.186-6.282,8.347l-1.872,2.556A5.039,5.039,0,0,1,312.041,151.666Z" fill="#263238"/>
            </g>
          </g>
          <g id="Grupo_95738" data-name="Grupo 95738">
            <g id="Grupo_95737" data-name="Grupo 95737">
              <path id="Trazado_147594" data-name="Trazado 147594" d="M330.221,166.571c-.1-.1,7.814-7.625,17.67-16.795s17.929-16.52,18.027-16.415-7.813,7.624-17.672,16.8S330.319,166.676,330.221,166.571Z" fill="#263238"/>
            </g>
          </g>
          <g id="Grupo_95740" data-name="Grupo 95740">
            <g id="Grupo_95739" data-name="Grupo 95739">
              <path id="Trazado_147595" data-name="Trazado 147595" d="M361.984,169.677a27.652,27.652,0,0,1-3.015,1.642c-1.876.98-4.432,2.394-7.252,3.977s-5.419,2.953-7.344,3.852c-.962.449-1.747.8-2.3,1.016a3.161,3.161,0,0,1-.878.3,27.8,27.8,0,0,1,3.014-1.641c1.876-.98,4.433-2.394,7.254-3.978s5.418-2.953,7.342-3.852c.963-.449,1.748-.8,2.3-1.016A3.16,3.16,0,0,1,361.984,169.677Z" fill="#263238"/>
            </g>
          </g>
          <g id="Grupo_95742" data-name="Grupo 95742">
            <g id="Grupo_95741" data-name="Grupo 95741">
              <path id="Trazado_147596" data-name="Trazado 147596" d="M391.388,181.874c.048.136-9.37,3.575-21.034,7.681s-21.161,7.326-21.209,7.191,9.369-3.575,21.036-7.682S391.34,181.738,391.388,181.874Z" fill="#263238"/>
            </g>
          </g>
          <g id="Grupo_95744" data-name="Grupo 95744">
            <g id="Grupo_95743" data-name="Grupo 95743">
              <path id="Trazado_147597" data-name="Trazado 147597" d="M400.747,235.34c-.014.144-10.249-.714-22.859-1.914s-22.825-2.29-22.811-2.433,10.247.713,22.861,1.914S400.76,235.2,400.747,235.34Z" fill="#263238"/>
            </g>
          </g>
          <g id="Grupo_95746" data-name="Grupo 95746">
            <g id="Grupo_95745" data-name="Grupo 95745">
              <path id="Trazado_147598" data-name="Trazado 147598" d="M393.22,283.3c-.062.13-9.631-4.263-21.372-9.809s-21.213-10.151-21.151-10.28,9.629,4.261,21.374,9.809S393.281,283.167,393.22,283.3Z" fill="#263238"/>
            </g>
          </g>
          <g id="Grupo_95748" data-name="Grupo 95748">
            <g id="Grupo_95747" data-name="Grupo 95747">
              <path id="Trazado_147599" data-name="Trazado 147599" d="M361.74,328.925c-.11.093-7.012-7.912-15.414-17.878s-15.128-18.124-15.018-18.216,7.01,7.911,15.416,17.88S361.85,328.833,361.74,328.925Z" fill="#263238"/>
            </g>
          </g>
          <g id="Grupo_95750" data-name="Grupo 95750">
            <g id="Grupo_95749" data-name="Grupo 95749">
              <path id="Trazado_147600" data-name="Trazado 147600" d="M335.465,334.953a7.132,7.132,0,0,1-.835-1.124c-.509-.742-1.226-1.829-2.1-3.183-1.738-2.707-4.068-6.494-6.523-10.746s-4.565-8.167-6.039-11.027c-.737-1.43-1.32-2.594-1.707-3.407a7.23,7.23,0,0,1-.556-1.285,7.307,7.307,0,0,1,.736,1.191c.486.873,1.107,1.99,1.852,3.327,1.555,2.813,3.715,6.692,6.165,10.941s4.729,8.057,6.385,10.812l1.953,3.268A7.312,7.312,0,0,1,335.465,334.953Z" fill="#263238"/>
            </g>
          </g>
          <g id="Grupo_95752" data-name="Grupo 95752">
            <g id="Grupo_95751" data-name="Grupo 95751">
              <path id="Trazado_147601" data-name="Trazado 147601" d="M319.141,357.9a1.712,1.712,0,0,1-.26-.41l-.654-1.222c-.563-1.064-1.336-2.625-2.257-4.57-1.843-3.889-4.211-9.352-6.463-15.524s-3.949-11.883-5.04-16.046c-.547-2.082-.959-3.774-1.213-4.95-.113-.54-.207-.987-.285-1.357a1.762,1.762,0,0,1-.065-.481,1.7,1.7,0,0,1,.167.457c.1.362.229.8.38,1.332.346,1.236.809,2.891,1.371,4.9,1.18,4.131,2.932,9.8,5.174,15.966s4.555,11.626,6.309,15.548l2.1,4.635.566,1.264A1.749,1.749,0,0,1,319.141,357.9Z" fill="#263238"/>
            </g>
          </g>
          <g id="Grupo_95754" data-name="Grupo 95754">
            <g id="Grupo_95753" data-name="Grupo 95753">
              <path id="Trazado_147602" data-name="Trazado 147602" d="M286.079,341.813a28.594,28.594,0,0,1-.433-3.482c-.231-2.151-.594-5.116-1.137-8.369s-1.168-6.177-1.649-8.286a29,29,0,0,1-.725-3.432,3.294,3.294,0,0,1,.349.879c.195.576.446,1.417.733,2.464.575,2.093,1.257,5.019,1.806,8.289s.852,6.257.99,8.423c.07,1.083.106,1.961.109,2.568A3.389,3.389,0,0,1,286.079,341.813Z" fill="#263238"/>
            </g>
          </g>
          <g id="Grupo_95756" data-name="Grupo 95756">
            <g id="Grupo_95755" data-name="Grupo 95755">
              <path id="Trazado_147603" data-name="Trazado 147603" d="M264.451,370.6a1.9,1.9,0,0,1-.044-.513c-.006-.4-.014-.882-.023-1.47-.013-1.277-.005-3.125.037-5.407.076-4.565.285-10.869.651-17.824s.809-13.249,1.176-17.8c.186-2.275.352-4.114.483-5.384.065-.585.12-1.068.164-1.461a1.949,1.949,0,0,1,.093-.507,1.883,1.883,0,0,1,.011.515c-.018.4-.04.88-.066,1.469-.08,1.352-.187,3.176-.317,5.394-.266,4.627-.626,10.884-1.024,17.8-.365,6.951-.633,13.248-.8,17.807-.083,2.221-.152,4.046-.2,5.4-.03.588-.055,1.073-.075,1.468A1.9,1.9,0,0,1,264.451,370.6Z" fill="#263238"/>
            </g>
          </g>
          <g id="Grupo_95758" data-name="Grupo 95758">
            <g id="Grupo_95757" data-name="Grupo 95757">
              <path id="Trazado_147604" data-name="Trazado 147604" d="M246.87,320.234a11.857,11.857,0,0,1-.3,2.552c-.26,1.563-.681,3.713-1.232,6.067s-1.131,4.468-1.592,5.984a11.894,11.894,0,0,1-.865,2.419,13.29,13.29,0,0,1,.51-2.515c.411-1.717.9-3.755,1.44-6.007.516-2.256.984-4.3,1.378-6.019A13.292,13.292,0,0,1,246.87,320.234Z" fill="#263238"/>
            </g>
          </g>
          <g id="Grupo_95760" data-name="Grupo 95760">
            <g id="Grupo_95759" data-name="Grupo 95759">
              <path id="Trazado_147605" data-name="Trazado 147605" d="M215.082,304.961a55.569,55.569,0,0,1-4.376,6.2,55.275,55.275,0,0,1-4.79,5.885,110.7,110.7,0,0,1,9.166-12.085Z" fill="#263238"/>
            </g>
          </g>
          <g id="Grupo_95762" data-name="Grupo 95762">
            <g id="Grupo_95761" data-name="Grupo 95761">
              <path id="Trazado_147606" data-name="Trazado 147606" d="M198.406,293.757c.108.1-6.1,7.382-13.86,16.274s-14.144,16.027-14.253,15.933,6.1-7.38,13.861-16.276S198.3,293.662,198.406,293.757Z" fill="#263238"/>
            </g>
          </g>
          <g id="Grupo_95764" data-name="Grupo 95764">
            <g id="Grupo_95763" data-name="Grupo 95763">
              <path id="Trazado_147607" data-name="Trazado 147607" d="M190.06,281.355a100.258,100.258,0,0,1-7.71,6.692,99.639,99.639,0,0,1-8.043,6.29,100.821,100.821,0,0,1,7.712-6.692A100.169,100.169,0,0,1,190.06,281.355Z" fill="#263238"/>
            </g>
          </g>
          <g id="Grupo_95766" data-name="Grupo 95766">
            <g id="Grupo_95765" data-name="Grupo 95765">
              <path id="Trazado_147608" data-name="Trazado 147608" d="M180.3,262.641c.063.13-8.581,4.424-19.3,9.591s-19.469,9.253-19.532,9.123,8.58-4.423,19.306-9.592S180.236,262.512,180.3,262.641Z" fill="#263238"/>
            </g>
          </g>
          <g id="Grupo_95768" data-name="Grupo 95768">
            <g id="Grupo_95767" data-name="Grupo 95767">
              <path id="Trazado_147609" data-name="Trazado 147609" d="M176.375,253.307a3.291,3.291,0,0,1-.9.267c-.584.139-1.435.315-2.491.51-2.111.392-5.047.838-8.308,1.165s-6.229.471-8.376.505c-1.074.018-1.942.015-2.543-.006a3.267,3.267,0,0,1-.933-.084,26.769,26.769,0,0,1,3.462-.278c2.137-.129,5.088-.331,8.338-.655s6.18-.713,8.3-1.011A26.894,26.894,0,0,1,176.375,253.307Z" fill="#263238"/>
            </g>
          </g>
          <g id="Grupo_95770" data-name="Grupo 95770">
            <g id="Grupo_95769" data-name="Grupo 95769">
              <path id="Trazado_147610" data-name="Trazado 147610" d="M173.209,231.762a11.29,11.29,0,0,1-1.75-.038l-4.755-.245c-4.016-.194-9.566-.378-15.7-.347s-11.683.278-15.7.516l-4.752.295a11.152,11.152,0,0,1-1.749.057,11.4,11.4,0,0,1,1.731-.259c1.117-.136,2.739-.295,4.745-.46,4.012-.333,9.571-.635,15.718-.67s11.707.212,15.722.5c2.008.143,3.631.285,4.75.41A11.111,11.111,0,0,1,173.209,231.762Z" fill="#263238"/>
            </g>
          </g>
          <g id="Grupo_95772" data-name="Grupo 95772">
            <g id="Grupo_95771" data-name="Grupo 95771">
              <path id="Trazado_147611" data-name="Trazado 147611" d="M175.173,212.839c-.038.139-6.514-1.547-14.461-3.765s-14.361-4.128-14.323-4.266,6.513,1.547,14.463,3.765S175.212,212.7,175.173,212.839Z" fill="#263238"/>
            </g>
          </g>
          <g id="Grupo_95774" data-name="Grupo 95774">
            <g id="Grupo_95773" data-name="Grupo 95773">
              <path id="Trazado_147612" data-name="Trazado 147612" d="M179.358,196.974a1.62,1.62,0,0,1-.472-.106l-1.322-.4c-1.147-.354-2.792-.914-4.808-1.648a158.1,158.1,0,0,1-30.045-14.8c-1.811-1.151-3.257-2.113-4.237-2.806l-1.124-.8a1.732,1.732,0,0,1-.372-.31,1.7,1.7,0,0,1,.431.223l1.177.722c1.012.64,2.486,1.554,4.319,2.662,3.662,2.22,8.806,5.152,14.667,8.042s11.322,5.173,15.314,6.723c2,.777,3.618,1.389,4.744,1.8l1.29.493A1.7,1.7,0,0,1,179.358,196.974Z" fill="#263238"/>
            </g>
          </g>
          <g id="Grupo_95776" data-name="Grupo 95776">
            <g id="Grupo_95775" data-name="Grupo 95775">
              <path id="Trazado_147613" data-name="Trazado 147613" d="M188.771,181.026c-.083.117-5.145-3.305-11.3-7.644s-11.09-7.952-11.007-8.069,5.144,3.3,11.307,7.644S188.854,180.908,188.771,181.026Z" fill="#263238"/>
            </g>
          </g>
          <g id="Grupo_95778" data-name="Grupo 95778">
            <g id="Grupo_95777" data-name="Grupo 95777">
              <path id="Trazado_147614" data-name="Trazado 147614" d="M168.876,132.417a1.61,1.61,0,0,1,.379.278l1.017.87,3.683,3.265,12.113,10.807,12.163,10.755,3.676,3.272.985.907c.221.212.332.329.32.343a1.582,1.582,0,0,1-.389-.263l-1.048-.833c-.9-.732-2.2-1.807-3.785-3.147-3.176-2.681-7.524-6.432-12.268-10.645s-8.979-8.086-12.015-10.924c-1.519-1.419-2.739-2.577-3.572-3.388l-.951-.942C168.97,132.552,168.864,132.43,168.876,132.417Z" fill="#263238"/>
            </g>
          </g>
          <g id="Grupo_95780" data-name="Grupo 95780">
            <g id="Grupo_95779" data-name="Grupo 95779">
              <path id="Trazado_147615" data-name="Trazado 147615" d="M200.071,133.326c.028-.022.269.225.68.692s.989,1.159,1.684,2.026c1.392,1.736,3.244,4.192,5.162,6.994s3.533,5.421,4.645,7.347c.557.963.992,1.751,1.277,2.305a3.47,3.47,0,0,1,.4.884,28.163,28.163,0,0,1-1.99-3c-1.191-1.874-2.851-4.45-4.761-7.245s-3.71-5.275-5.024-7.064A28.33,28.33,0,0,1,200.071,133.326Z" fill="#263238"/>
            </g>
          </g>
          <g id="Grupo_95781" data-name="Grupo 95781" opacity="0.2">
            <path id="Trazado_147616" data-name="Trazado 147616" d="M160.1,124.823l43.5,38.091,10.814-8.652-25.244-38.683s-1.934,1.423-6.961,2.859C177.346,119.829,163.008,120.2,160.1,124.823Z"/>
          </g>
          <g id="Grupo_95782" data-name="Grupo 95782" opacity="0.2">
            <path id="Trazado_147617" data-name="Trazado 147617" d="M208.528,92.6l21.245,53.171,13.573-4.253L238.823,95.4s-2.338.547-7.524-.112C226.275,94.652,214.08,89.884,208.528,92.6Z"/>
          </g>
          <g id="Grupo_95783" data-name="Grupo 95783" opacity="0.3">
            <path id="Trazado_147618" data-name="Trazado 147618" d="M265.171,81.467l1.425,57.742,12.724.611L292.2,95.5a20.882,20.882,0,0,1-7.492-3.1C280.306,89.585,271.334,81.008,265.171,81.467Z"/>
          </g>
          <g id="Grupo_95784" data-name="Grupo 95784" opacity="0.2">
            <path id="Trazado_147619" data-name="Trazado 147619" d="M320.65,92.376l-21.111,53.232,11.494,5.494,29.051-35.86a25.807,25.807,0,0,1-5.517-6.487C331.8,104.318,327.081,94.153,320.65,92.376Z"/>
          </g>
          <g id="Grupo_95785" data-name="Grupo 95785" opacity="0.2">
            <path id="Trazado_147620" data-name="Trazado 147620" d="M370.229,125.594l-39.321,40.977,8.763,11.81,38.42-25.643a22.978,22.978,0,0,1-2.527-7.481C374.639,140.277,374.505,131.2,370.229,125.594Z"/>
          </g>
          <g id="Grupo_95786" data-name="Grupo 95786" opacity="0.2">
            <path id="Trazado_147621" data-name="Trazado 147621" d="M401.268,171.852l-52.95,21.792,4.393,13.528,46.069-5s-.288-1.424.317-6.617C399.683,190.526,404.966,179.29,401.268,171.852Z"/>
          </g>
          <g id="Grupo_95787" data-name="Grupo 95787" opacity="0.2">
            <path id="Trazado_147622" data-name="Trazado 147622" d="M412.986,229.537l-57.724,2.021-.48,12.731,44.035,12.883a17.127,17.127,0,0,1,1.747-5.257C403.8,245.784,412.986,237.14,412.986,229.537Z"/>
          </g>
          <g id="Grupo_95788" data-name="Grupo 95788" opacity="0.2">
            <path id="Trazado_147623" data-name="Trazado 147623" d="M402.353,284.122,349.2,263.4l-5.376,11.55,36.159,28.679a34.09,34.09,0,0,1,6.277-4.764C390.672,296.056,401.13,291.51,402.353,284.122Z"/>
          </g>
          <g id="Grupo_95797" data-name="Grupo 95797" opacity="0.2">
            <g id="Grupo_95789" data-name="Grupo 95789">
              <path id="Trazado_147624" data-name="Trazado 147624" d="M324.177,283.3l-13.154,11.04c1,1.042,18.529,30.841,29.332,49.263.149-.11.288-.237.44-.339,7.117-4.764,19.774-2.855,26.911-7.565Z"/>
            </g>
            <g id="Grupo_95790" data-name="Grupo 95790">
              <path id="Trazado_147625" data-name="Trazado 147625" d="M300,304.181l-19.642,6.7,9.3,53.324a13.577,13.577,0,0,1,1.849-.513c9.262-1.832,21.471,6.23,29.993,2.7a12.4,12.4,0,0,0,3.218-2.011Z"/>
            </g>
            <g id="Grupo_95791" data-name="Grupo 95791">
              <path id="Trazado_147626" data-name="Trazado 147626" d="M264.136,377.6l3.139-69.661-16.982-4.3-12.636,59.978c.156.025.313.046.467.077C246.9,365.424,254.914,377.041,264.136,377.6Z"/>
            </g>
            <g id="Grupo_95792" data-name="Grupo 95792">
              <path id="Trazado_147627" data-name="Trazado 147627" d="M221.435,296.11s-22.441,30.057-34.173,46.245a13.992,13.992,0,0,1,1.576.906c7.707,5.159,10.623,19.529,19.293,23.125a11.149,11.149,0,0,0,1.22.413L240.7,307.46Z"/>
            </g>
            <g id="Grupo_95793" data-name="Grupo 95793">
              <path id="Trazado_147628" data-name="Trazado 147628" d="M198.406,271.908l-47.86,32.9c.183.236.382.465.547.711,5.2,7.766,2.426,22.151,9.01,28.735a11.662,11.662,0,0,0,2.023,1.571c16.912-19.063,47.272-53.277,48.373-54.466Z"/>
            </g>
            <g id="Grupo_95794" data-name="Grupo 95794">
              <path id="Trazado_147629" data-name="Trazado 147629" d="M187.44,248.423l-56.586,9.139c.9,9.076-6.253,20.541-2.886,28.66a11.32,11.32,0,0,0,.729,1.431c19.8-9.859,61.176-30.368,62.9-30.481Z"/>
            </g>
            <g id="Grupo_95795" data-name="Grupo 95795">
              <path id="Trazado_147630" data-name="Trazado 147630" d="M184.35,216.9l-53.491-15.438a13.882,13.882,0,0,1-.194,1.378c-1.778,8.989-13.935,17.182-13.935,26.693a11.8,11.8,0,0,0,.161,1.9h65.293Z"/>
            </g>
            <g id="Grupo_95796" data-name="Grupo 95796">
              <path id="Trazado_147631" data-name="Trazado 147631" d="M128.185,172.426c19.988,10.713,59.078,32.382,59.078,32.382l9.62-18.269L151.7,152.517c-.194.353-.381.711-.6,1.041C146.022,161.134,132.074,164.093,128.185,172.426Z"/>
            </g>
          </g>
          <g id="Grupo_95799" data-name="Grupo 95799">
            <g id="Grupo_95798" data-name="Grupo 95798">
              <path id="Trazado_147632" data-name="Trazado 147632" d="M412.9,229.537s-.025-.213-.062-.633a9.668,9.668,0,0,0-.264-1.86,20.027,20.027,0,0,0-3-6.7c-1.717-2.763-4.32-5.846-7.034-9.759a23.482,23.482,0,0,1-3.434-6.854,19.536,19.536,0,0,1-.018-8.707c.552-3.049,1.46-6.189,2.256-9.52.734-3.313,1.527-6.931.788-10.614a12.12,12.12,0,0,0-2.485-5.062,23.287,23.287,0,0,0-4.447-3.947c-3.319-2.355-7.132-4.24-10.786-6.7a24.669,24.669,0,0,1-5.1-4.362,16.489,16.489,0,0,1-3.125-6.186c-1.287-4.546-1.569-9.414-2.547-14.275a22.6,22.6,0,0,0-2.463-7.057,12,12,0,0,0-5.7-4.929,31.506,31.506,0,0,0-7.647-2.044c-2.653-.437-5.367-.746-8.094-1.23a25.713,25.713,0,0,1-8.016-2.523,18.926,18.926,0,0,1-6.164-5.971c-1.661-2.385-3.087-4.945-4.607-7.471a39.824,39.824,0,0,0-5.2-7.206,12.29,12.29,0,0,0-7.887-3.868,30.3,30.3,0,0,0-9.144,1.074c-3.04.73-6.083,1.618-9.236,2.21a19.547,19.547,0,0,1-9.657-.181,33.135,33.135,0,0,1-8.532-4.927c-2.662-1.959-5.263-4.046-8.115-5.778-2.838-1.676-6.076-3.074-9.446-2.695l-.625.048c-.206.035-.409.089-.614.132-.409.1-.823.172-1.227.287a19.357,19.357,0,0,0-2.362.924,31.013,31.013,0,0,0-4.433,2.573c-2.848,1.942-5.532,4.172-8.449,6.153a31.425,31.425,0,0,1-4.6,2.661,15.584,15.584,0,0,1-5.208,1.317,36.535,36.535,0,0,1-10.667-1.52,72.384,72.384,0,0,0-10.6-2.226,16.5,16.5,0,0,0-5.37.361,11.76,11.76,0,0,0-4.7,2.583c-2.757,2.408-4.685,5.646-6.6,8.829a60.66,60.66,0,0,1-6.268,9.415,15.727,15.727,0,0,1-4.5,3.57,25.656,25.656,0,0,1-5.456,1.863c-3.759.825-7.6,1.179-11.384,1.864-3.742.68-7.636,1.743-10.411,4.432a14.123,14.123,0,0,0-2.956,4.891,31.29,31.29,0,0,0-1.459,5.652c-.7,3.857-1.024,7.82-1.958,11.714a20.368,20.368,0,0,1-2.128,5.634,16.194,16.194,0,0,1-4.008,4.535c-3.16,2.54-6.754,4.42-10.187,6.522a45.761,45.761,0,0,0-4.959,3.434,16.184,16.184,0,0,0-3.879,4.523,11.669,11.669,0,0,0-1.392,5.763,29.829,29.829,0,0,0,.7,6.034c.846,4,2.115,7.934,2.792,12.044a20.957,20.957,0,0,1,.207,6.258,16.915,16.915,0,0,1-2.09,5.929c-2.083,3.655-4.8,6.859-7.214,10.262a33.908,33.908,0,0,0-3.226,5.335,12.565,12.565,0,0,0-.018,11.922,33.556,33.556,0,0,0,3.22,5.341c2.409,3.406,5.132,6.608,7.218,10.263a16.994,16.994,0,0,1,2.1,5.925,20.771,20.771,0,0,1-.2,6.26c-.672,4.113-1.944,8.051-2.79,12.049a30.076,30.076,0,0,0-.71,6.035,11.714,11.714,0,0,0,1.382,5.768,16.108,16.108,0,0,0,3.871,4.531,46.013,46.013,0,0,0,4.958,3.437c3.435,2.1,7.029,3.984,10.192,6.521a16.279,16.279,0,0,1,4.014,4.532,20.248,20.248,0,0,1,2.133,5.633c.938,3.895,1.26,7.859,1.96,11.718a31.326,31.326,0,0,0,1.457,5.654,14.084,14.084,0,0,0,2.953,4.893c2.772,2.694,6.667,3.759,10.409,4.44,3.786.686,7.626,1.039,11.386,1.864a25.724,25.724,0,0,1,5.458,1.862,15.7,15.7,0,0,1,4.5,3.569,60.56,60.56,0,0,1,6.27,9.416c1.918,3.184,3.846,6.423,6.6,8.83a11.743,11.743,0,0,0,4.7,2.585,16.493,16.493,0,0,0,5.37.361,72.373,72.373,0,0,0,10.6-2.227,36.58,36.58,0,0,1,10.669-1.519,15.585,15.585,0,0,1,5.208,1.318,31.52,31.52,0,0,1,4.6,2.662c2.917,1.982,5.6,4.212,8.451,6.154a30.966,30.966,0,0,0,4.434,2.573,19.9,19.9,0,0,0,2.361.924c.4.113.819.189,1.228.285.205.043.408.1.615.132l.625.048c3.37.377,6.608-1.024,9.445-2.7,2.853-1.735,5.454-3.82,8.116-5.78a33.036,33.036,0,0,1,8.534-4.925,19.562,19.562,0,0,1,9.658-.176c3.153.592,6.2,1.481,9.236,2.211a30.239,30.239,0,0,0,9.145,1.07,12.29,12.29,0,0,0,7.883-3.876,39.788,39.788,0,0,0,5.2-7.207c1.52-2.526,2.947-5.086,4.608-7.471a18.913,18.913,0,0,1,6.168-5.966,25.754,25.754,0,0,1,8.017-2.52c2.728-.483,5.441-.792,8.1-1.229A31.447,31.447,0,0,0,365.5,336.7a11.988,11.988,0,0,0,5.691-4.933,22.671,22.671,0,0,0,2.459-7.059c.976-4.861,1.259-9.729,2.548-14.274a16.442,16.442,0,0,1,3.128-6.184,24.72,24.72,0,0,1,5.1-4.359c3.653-2.457,7.466-4.343,10.784-6.7a23.318,23.318,0,0,0,4.446-3.948,12.114,12.114,0,0,0,2.48-5.063,16.972,16.972,0,0,0,.153-5.449,43.967,43.967,0,0,0-.944-5.165c-.8-3.33-1.7-6.47-2.256-9.518a19.55,19.55,0,0,1,.021-8.707,23.509,23.509,0,0,1,3.435-6.852c2.714-3.913,5.316-7,7.033-9.758a19.988,19.988,0,0,0,3-6.7,9.65,9.65,0,0,0,.264-1.859c.037-.42.062-.633.062-.633s-.007.213-.036.634a9.216,9.216,0,0,1-.238,1.869,19.825,19.825,0,0,1-2.959,6.748c-1.707,2.779-4.3,5.878-6.994,9.788a23.417,23.417,0,0,0-3.39,6.813,19.365,19.365,0,0,0,.006,8.623c.557,3.033,1.47,6.167,2.276,9.5a44.157,44.157,0,0,1,.959,5.191,17.2,17.2,0,0,1-.145,5.526,12.354,12.354,0,0,1-2.523,5.176,23.485,23.485,0,0,1-4.49,4c-3.337,2.377-7.15,4.271-10.777,6.719a24.45,24.45,0,0,0-5.037,4.311,16.142,16.142,0,0,0-3.06,6.077c-1.27,4.5-1.548,9.36-2.522,14.254a22.954,22.954,0,0,1-2.491,7.167,12.339,12.339,0,0,1-5.842,5.079,31.727,31.727,0,0,1-7.729,2.082c-2.665.442-5.377.754-8.089,1.238a25.385,25.385,0,0,0-7.9,2.487,18.539,18.539,0,0,0-6.034,5.857c-1.643,2.364-3.065,4.918-4.586,7.453a40.192,40.192,0,0,1-5.247,7.286,12.715,12.715,0,0,1-8.134,4,30.662,30.662,0,0,1-9.278-1.073c-3.053-.731-6.093-1.615-9.216-2.2a19.168,19.168,0,0,0-9.446.169,32.681,32.681,0,0,0-8.409,4.868c-2.653,1.955-5.259,4.05-8.146,5.808-.744.4-1.454.869-2.239,1.2-.388.177-.767.371-1.162.533l-1.21.429a12.241,12.241,0,0,1-5.106.6l-.65-.051c-.214-.034-.424-.091-.636-.135-.422-.1-.851-.178-1.269-.3a20.124,20.124,0,0,1-2.423-.945,31.532,31.532,0,0,1-4.5-2.607c-2.871-1.956-5.561-4.187-8.453-6.149a31.1,31.1,0,0,0-4.532-2.62,15.1,15.1,0,0,0-5.048-1.275,36.141,36.141,0,0,0-10.523,1.511A72.72,72.72,0,0,1,215,367.443a17,17,0,0,1-5.536-.373,12.237,12.237,0,0,1-4.9-2.684c-2.843-2.484-4.781-5.757-6.708-8.948a60.2,60.2,0,0,0-6.216-9.336,15.258,15.258,0,0,0-4.358-3.457,25.313,25.313,0,0,0-5.343-1.818c-3.716-.815-7.55-1.167-11.367-1.856a31.467,31.467,0,0,1-5.654-1.486,12.573,12.573,0,0,1-8.092-8.162,31.806,31.806,0,0,1-1.482-5.742c-.706-3.89-1.03-7.847-1.957-11.687a19.758,19.758,0,0,0-2.079-5.5,15.757,15.757,0,0,0-3.9-4.391c-3.1-2.491-6.684-4.368-10.137-6.48a46.465,46.465,0,0,1-5.019-3.479,16.623,16.623,0,0,1-4-4.683,12.241,12.241,0,0,1-1.444-6.008,30.581,30.581,0,0,1,.72-6.147c.855-4.032,2.123-7.967,2.784-12.024a20.227,20.227,0,0,0,.195-6.106,16.475,16.475,0,0,0-2.044-5.744c-2.048-3.591-4.762-6.787-7.189-10.215a34.007,34.007,0,0,1-3.268-5.423,13.075,13.075,0,0,1,.02-12.361,34.4,34.4,0,0,1,3.272-5.417c2.43-3.424,5.139-6.622,7.185-10.213a16.4,16.4,0,0,0,2.029-5.747,20.445,20.445,0,0,0-.2-6.1c-.667-4.055-1.933-7.989-2.787-12.021a30.34,30.34,0,0,1-.712-6.146,12.193,12.193,0,0,1,1.456-6,16.706,16.706,0,0,1,4-4.674,46.381,46.381,0,0,1,5.019-3.476c3.451-2.111,7.032-3.988,10.132-6.48a15.676,15.676,0,0,0,3.89-4.395,19.852,19.852,0,0,0,2.074-5.5c.924-3.84,1.249-7.8,1.955-11.684a31.8,31.8,0,0,1,1.484-5.741,12.56,12.56,0,0,1,8.1-8.153,31.451,31.451,0,0,1,5.653-1.484c3.816-.689,7.649-1.041,11.364-1.856a25.206,25.206,0,0,0,5.341-1.82,15.24,15.24,0,0,0,4.357-3.457,60.3,60.3,0,0,0,6.214-9.335c1.927-3.19,3.865-6.462,6.707-8.946a12.248,12.248,0,0,1,4.9-2.683A16.938,16.938,0,0,1,215,91.631a72.566,72.566,0,0,1,10.677,2.244A36.14,36.14,0,0,0,236.2,95.386a15.11,15.11,0,0,0,5.048-1.274,31.029,31.029,0,0,0,4.531-2.618c2.892-1.962,5.582-4.193,8.453-6.149a31.467,31.467,0,0,1,4.5-2.607,20.052,20.052,0,0,1,2.422-.946c.417-.118.846-.2,1.268-.3.212-.044.423-.1.636-.136l.65-.05a12.255,12.255,0,0,1,5.106.6l1.21.429c.395.161.775.356,1.162.533.785.334,1.5.8,2.239,1.2,2.888,1.757,5.494,3.852,8.146,5.807a32.758,32.758,0,0,0,8.408,4.87,19.148,19.148,0,0,0,9.444.174c3.124-.584,6.163-1.468,9.216-2.2a30.659,30.659,0,0,1,9.277-1.076,12.7,12.7,0,0,1,8.137,3.995,40.092,40.092,0,0,1,5.249,7.284c1.522,2.535,2.943,5.089,4.585,7.454a18.566,18.566,0,0,0,6.032,5.861,25.382,25.382,0,0,0,7.9,2.491c2.711.484,5.423.8,8.088,1.237a31.851,31.851,0,0,1,7.731,2.079,12.351,12.351,0,0,1,5.847,5.075,22.94,22.94,0,0,1,2.494,7.165c.976,4.894,1.253,9.754,2.521,14.255a16.2,16.2,0,0,0,3.057,6.079,24.45,24.45,0,0,0,5.034,4.314c3.627,2.449,7.441,4.343,10.779,6.719a23.488,23.488,0,0,1,4.491,4,12.364,12.364,0,0,1,2.528,5.174,17.209,17.209,0,0,1,.147,5.527,43.951,43.951,0,0,1-.959,5.191c-.8,3.337-1.719,6.471-2.276,9.5a19.375,19.375,0,0,0-.008,8.625,23.4,23.4,0,0,0,3.389,6.814c2.693,3.911,5.288,7.01,7,9.789a19.835,19.835,0,0,1,2.96,6.749,9.159,9.159,0,0,1,.238,1.87C412.9,229.324,412.9,229.537,412.9,229.537Z" fill="#263238"/>
            </g>
          </g>
          <g id="Grupo_95801" data-name="Grupo 95801">
            <g id="Grupo_95800" data-name="Grupo 95800">
              <path id="Trazado_147633" data-name="Trazado 147633" d="M237.042,366.959c.139.035-3.552,15-8.244,33.421s-8.609,33.332-8.749,33.3,3.552-15,8.245-33.424S236.9,366.923,237.042,366.959Z" fill="#263238"/>
            </g>
          </g>
        </g>
        <g id="Grupo_96022" data-name="Grupo 96022">
          <g id="Grupo_95803" data-name="Grupo 95803">
            <circle id="Elipse_4713" data-name="Elipse 4713" cx="90.776" cy="90.776" r="90.776" transform="translate(174.041 138.761)" fill="#fff"/>
          </g>
          <g id="Grupo_95804" data-name="Grupo 95804">
            <path id="Trazado_147634" data-name="Trazado 147634" d="M208.922,198.083c-1.252,1.251-8.136,13.768-8.762,24.094s.859,68.318.859,68.318l.268,3.842c16.342,19.111,75.739,47.549,129.241-.1h0l3-35.668-8.828-75.51-30.665-7.51L286.842,163.9l-47.925,11.22-4.274,10.1Z" fill="#455a64"/>
          </g>
          <g id="Grupo_95975" data-name="Grupo 95975">
            <g id="Grupo_95974" data-name="Grupo 95974">
              <g id="Grupo_95973" data-name="Grupo 95973">
                <g id="Grupo_95812" data-name="Grupo 95812">
                  <g id="Grupo_95811" data-name="Grupo 95811">
                    <g id="Grupo_95810" data-name="Grupo 95810">
                      <g id="Grupo_95809" data-name="Grupo 95809">
                        <g id="Grupo_95808" data-name="Grupo 95808">
                          <g id="Grupo_95807" data-name="Grupo 95807">
                            <g id="Grupo_95806" data-name="Grupo 95806">
                              <g id="Grupo_95805" data-name="Grupo 95805">
                                <path id="Trazado_147635" data-name="Trazado 147635" d="M283.518,133.536c2.11-7.845,4.187-15.745,4.916-23.836s.054-16.451-3.164-23.91c-.488-1.13-4.54-8.676-5.757-8.492-.871.131,1.751,7.23,1.348,8.012-3.848,7.467-4.546,16.245-3.441,24.571a110.049,110.049,0,0,0,6.1,23.655" fill="#263238"/>
                              </g>
                            </g>
                          </g>
                        </g>
                      </g>
                    </g>
                  </g>
                </g>
                <g id="Grupo_95815" data-name="Grupo 95815">
                  <g id="Grupo_95814" data-name="Grupo 95814">
                    <g id="Grupo_95813" data-name="Grupo 95813">
                      <path id="Trazado_147636" data-name="Trazado 147636" d="M282.723,102.542c-.387-20.369-12.564-37.123-32.915-36.172l-1.876.2a36.423,36.423,0,0,0-32.6,37.11c.433,17.653,1.139,37.153,2.245,46.532,2.289,19.416,22.053,20.39,22.053,20.39.043,0,.906,12.768.906,12.768l8.352,9.074L287.6,168.464Z" fill="#ffbf9d"/>
                    </g>
                  </g>
                </g>
                <g id="Grupo_95825" data-name="Grupo 95825">
                  <g id="Grupo_95824" data-name="Grupo 95824">
                    <g id="Grupo_95823" data-name="Grupo 95823">
                      <g id="Grupo_95822" data-name="Grupo 95822">
                        <g id="Grupo_95821" data-name="Grupo 95821">
                          <g id="Grupo_95820" data-name="Grupo 95820">
                            <g id="Grupo_95819" data-name="Grupo 95819">
                              <g id="Grupo_95818" data-name="Grupo 95818">
                                <g id="Grupo_95817" data-name="Grupo 95817">
                                  <g id="Grupo_95816" data-name="Grupo 95816">
                                    <path id="Trazado_147637" data-name="Trazado 147637" d="M239.631,170.748s12.33-.573,24.524-10.152c0,0-4.084,17.61-23.668,17.905Z" fill="#ff9a6c"/>
                                  </g>
                                </g>
                              </g>
                            </g>
                          </g>
                        </g>
                      </g>
                    </g>
                  </g>
                </g>
                <g id="Grupo_95841" data-name="Grupo 95841">
                  <g id="Grupo_95840" data-name="Grupo 95840">
                    <g id="Grupo_95839" data-name="Grupo 95839">
                      <g id="Grupo_95838" data-name="Grupo 95838">
                        <g id="Grupo_95837" data-name="Grupo 95837">
                          <g id="Grupo_95836" data-name="Grupo 95836">
                            <g id="Grupo_95835" data-name="Grupo 95835">
                              <g id="Grupo_95834" data-name="Grupo 95834">
                                <g id="Grupo_95833" data-name="Grupo 95833">
                                  <g id="Grupo_95832" data-name="Grupo 95832">
                                    <g id="Grupo_95831" data-name="Grupo 95831">
                                      <g id="Grupo_95830" data-name="Grupo 95830">
                                        <g id="Grupo_95829" data-name="Grupo 95829">
                                          <g id="Grupo_95828" data-name="Grupo 95828">
                                            <g id="Grupo_95827" data-name="Grupo 95827">
                                              <g id="Grupo_95826" data-name="Grupo 95826">
                                                <path id="Trazado_147638" data-name="Trazado 147638" d="M226.516,119.513a2.793,2.793,0,0,0,2.973,2.519,2.669,2.669,0,0,0,2.6-2.805,2.792,2.792,0,0,0-2.969-2.521A2.673,2.673,0,0,0,226.516,119.513Z" fill="#263238"/>
                                              </g>
                                            </g>
                                          </g>
                                        </g>
                                      </g>
                                    </g>
                                  </g>
                                </g>
                              </g>
                            </g>
                          </g>
                        </g>
                      </g>
                    </g>
                  </g>
                </g>
                <g id="Grupo_95858" data-name="Grupo 95858">
                  <g id="Grupo_95857" data-name="Grupo 95857">
                    <g id="Grupo_95856" data-name="Grupo 95856">
                      <g id="Grupo_95855" data-name="Grupo 95855">
                        <g id="Grupo_95854" data-name="Grupo 95854">
                          <g id="Grupo_95853" data-name="Grupo 95853">
                            <g id="Grupo_95852" data-name="Grupo 95852">
                              <g id="Grupo_95851" data-name="Grupo 95851">
                                <g id="Grupo_95850" data-name="Grupo 95850">
                                  <g id="Grupo_95849" data-name="Grupo 95849">
                                    <g id="Grupo_95848" data-name="Grupo 95848">
                                      <g id="Grupo_95847" data-name="Grupo 95847">
                                        <g id="Grupo_95846" data-name="Grupo 95846">
                                          <g id="Grupo_95845" data-name="Grupo 95845">
                                            <g id="Grupo_95844" data-name="Grupo 95844">
                                              <g id="Grupo_95843" data-name="Grupo 95843">
                                                <g id="Grupo_95842" data-name="Grupo 95842">
                                                  <path id="Trazado_147639" data-name="Trazado 147639" d="M220.339,111.308c.382.326,2.321-1.453,5.31-1.76,2.98-.349,5.335.957,5.621.556.142-.178-.278-.795-1.306-1.389a7.653,7.653,0,0,0-4.547-.893,7.357,7.357,0,0,0-4.179,1.852C220.394,110.476,220.152,111.164,220.339,111.308Z" fill="#263238"/>
                                                </g>
                                              </g>
                                            </g>
                                          </g>
                                        </g>
                                      </g>
                                    </g>
                                  </g>
                                </g>
                              </g>
                            </g>
                          </g>
                        </g>
                      </g>
                    </g>
                  </g>
                </g>
                <g id="Grupo_95874" data-name="Grupo 95874">
                  <g id="Grupo_95873" data-name="Grupo 95873">
                    <g id="Grupo_95872" data-name="Grupo 95872">
                      <g id="Grupo_95871" data-name="Grupo 95871">
                        <g id="Grupo_95870" data-name="Grupo 95870">
                          <g id="Grupo_95869" data-name="Grupo 95869">
                            <g id="Grupo_95868" data-name="Grupo 95868">
                              <g id="Grupo_95867" data-name="Grupo 95867">
                                <g id="Grupo_95866" data-name="Grupo 95866">
                                  <g id="Grupo_95865" data-name="Grupo 95865">
                                    <g id="Grupo_95864" data-name="Grupo 95864">
                                      <g id="Grupo_95863" data-name="Grupo 95863">
                                        <g id="Grupo_95862" data-name="Grupo 95862">
                                          <g id="Grupo_95861" data-name="Grupo 95861">
                                            <g id="Grupo_95860" data-name="Grupo 95860">
                                              <g id="Grupo_95859" data-name="Grupo 95859">
                                                <path id="Trazado_147640" data-name="Trazado 147640" d="M252.909,117.272a2.791,2.791,0,0,0,2.973,2.518,2.669,2.669,0,0,0,2.6-2.805,2.793,2.793,0,0,0-2.97-2.52A2.673,2.673,0,0,0,252.909,117.272Z" fill="#263238"/>
                                              </g>
                                            </g>
                                          </g>
                                        </g>
                                      </g>
                                    </g>
                                  </g>
                                </g>
                              </g>
                            </g>
                          </g>
                        </g>
                      </g>
                    </g>
                  </g>
                </g>
                <g id="Grupo_95891" data-name="Grupo 95891">
                  <g id="Grupo_95890" data-name="Grupo 95890">
                    <g id="Grupo_95889" data-name="Grupo 95889">
                      <g id="Grupo_95888" data-name="Grupo 95888">
                        <g id="Grupo_95887" data-name="Grupo 95887">
                          <g id="Grupo_95886" data-name="Grupo 95886">
                            <g id="Grupo_95885" data-name="Grupo 95885">
                              <g id="Grupo_95884" data-name="Grupo 95884">
                                <g id="Grupo_95883" data-name="Grupo 95883">
                                  <g id="Grupo_95882" data-name="Grupo 95882">
                                    <g id="Grupo_95881" data-name="Grupo 95881">
                                      <g id="Grupo_95880" data-name="Grupo 95880">
                                        <g id="Grupo_95879" data-name="Grupo 95879">
                                          <g id="Grupo_95878" data-name="Grupo 95878">
                                            <g id="Grupo_95877" data-name="Grupo 95877">
                                              <g id="Grupo_95876" data-name="Grupo 95876">
                                                <g id="Grupo_95875" data-name="Grupo 95875">
                                                  <path id="Trazado_147641" data-name="Trazado 147641" d="M249.73,109.432c.384.326,2.325-1.452,5.312-1.759,2.98-.35,5.335.956,5.621.556.141-.179-.275-.795-1.306-1.389a7.654,7.654,0,0,0-4.547-.894,7.367,7.367,0,0,0-4.179,1.852C249.789,108.6,249.545,109.288,249.73,109.432Z" fill="#263238"/>
                                                </g>
                                              </g>
                                            </g>
                                          </g>
                                        </g>
                                      </g>
                                    </g>
                                  </g>
                                </g>
                              </g>
                            </g>
                          </g>
                        </g>
                      </g>
                    </g>
                  </g>
                </g>
                <g id="Grupo_95907" data-name="Grupo 95907">
                  <g id="Grupo_95906" data-name="Grupo 95906">
                    <g id="Grupo_95905" data-name="Grupo 95905">
                      <g id="Grupo_95904" data-name="Grupo 95904">
                        <g id="Grupo_95903" data-name="Grupo 95903">
                          <g id="Grupo_95902" data-name="Grupo 95902">
                            <g id="Grupo_95901" data-name="Grupo 95901">
                              <g id="Grupo_95900" data-name="Grupo 95900">
                                <g id="Grupo_95899" data-name="Grupo 95899">
                                  <g id="Grupo_95898" data-name="Grupo 95898">
                                    <g id="Grupo_95897" data-name="Grupo 95897">
                                      <g id="Grupo_95896" data-name="Grupo 95896">
                                        <g id="Grupo_95895" data-name="Grupo 95895">
                                          <g id="Grupo_95894" data-name="Grupo 95894">
                                            <g id="Grupo_95893" data-name="Grupo 95893">
                                              <g id="Grupo_95892" data-name="Grupo 95892">
                                                <path id="Trazado_147642" data-name="Trazado 147642" d="M241.433,133.519c0-.172-1.894-.3-4.944-.365-.771,0-1.51-.073-1.693-.58a3.909,3.909,0,0,1,.271-2.316q.784-2.881,1.643-6.047c2.262-8.6,3.813-15.64,3.466-15.729s-2.462,6.812-4.723,15.414q-.809,3.178-1.545,6.072a4.442,4.442,0,0,0-.08,3.036,1.925,1.925,0,0,0,1.372.983,5.189,5.189,0,0,0,1.314.043C239.56,133.874,241.44,133.69,241.433,133.519Z" fill="#263238"/>
                                              </g>
                                            </g>
                                          </g>
                                        </g>
                                      </g>
                                    </g>
                                  </g>
                                </g>
                              </g>
                            </g>
                          </g>
                        </g>
                      </g>
                    </g>
                  </g>
                </g>
                <g id="Grupo_95923" data-name="Grupo 95923">
                  <g id="Grupo_95922" data-name="Grupo 95922">
                    <g id="Grupo_95921" data-name="Grupo 95921">
                      <g id="Grupo_95920" data-name="Grupo 95920">
                        <g id="Grupo_95919" data-name="Grupo 95919">
                          <g id="Grupo_95918" data-name="Grupo 95918">
                            <g id="Grupo_95917" data-name="Grupo 95917">
                              <g id="Grupo_95916" data-name="Grupo 95916">
                                <g id="Grupo_95915" data-name="Grupo 95915">
                                  <g id="Grupo_95914" data-name="Grupo 95914">
                                    <g id="Grupo_95913" data-name="Grupo 95913">
                                      <g id="Grupo_95912" data-name="Grupo 95912">
                                        <g id="Grupo_95911" data-name="Grupo 95911">
                                          <g id="Grupo_95910" data-name="Grupo 95910">
                                            <g id="Grupo_95909" data-name="Grupo 95909">
                                              <g id="Grupo_95908" data-name="Grupo 95908">
                                                <path id="Trazado_147643" data-name="Trazado 147643" d="M250.444,134.658c-.489.023-.154,3.267-2.687,5.861s-6.022,2.6-6,3.058c-.023.208.836.548,2.3.435a8.124,8.124,0,0,0,5.028-2.37,7.071,7.071,0,0,0,2.044-4.892C251.11,135.381,250.663,134.616,250.444,134.658Z" fill="#263238"/>
                                              </g>
                                            </g>
                                          </g>
                                        </g>
                                      </g>
                                    </g>
                                  </g>
                                </g>
                              </g>
                            </g>
                          </g>
                        </g>
                      </g>
                    </g>
                  </g>
                </g>
                <g id="Grupo_95935" data-name="Grupo 95935">
                  <g id="Grupo_95934" data-name="Grupo 95934">
                    <g id="Grupo_95933" data-name="Grupo 95933">
                      <g id="Grupo_95932" data-name="Grupo 95932">
                        <g id="Grupo_95931" data-name="Grupo 95931">
                          <g id="Grupo_95930" data-name="Grupo 95930">
                            <g id="Grupo_95929" data-name="Grupo 95929">
                              <g id="Grupo_95928" data-name="Grupo 95928">
                                <g id="Grupo_95927" data-name="Grupo 95927">
                                  <g id="Grupo_95926" data-name="Grupo 95926">
                                    <g id="Grupo_95925" data-name="Grupo 95925">
                                      <g id="Grupo_95924" data-name="Grupo 95924">
                                        <path id="Trazado_147644" data-name="Trazado 147644" d="M248.617,97.291c.38.782,3.323.082,6.873.135,3.55-.018,6.485.709,6.873-.068.171-.37-.4-1.082-1.628-1.748a11.952,11.952,0,0,0-10.472-.052C249.03,96.212,248.45,96.919,248.617,97.291Z" fill="#263238"/>
                                      </g>
                                    </g>
                                  </g>
                                </g>
                              </g>
                            </g>
                          </g>
                        </g>
                      </g>
                    </g>
                  </g>
                </g>
                <g id="Grupo_95947" data-name="Grupo 95947">
                  <g id="Grupo_95946" data-name="Grupo 95946">
                    <g id="Grupo_95945" data-name="Grupo 95945">
                      <g id="Grupo_95944" data-name="Grupo 95944">
                        <g id="Grupo_95943" data-name="Grupo 95943">
                          <g id="Grupo_95942" data-name="Grupo 95942">
                            <g id="Grupo_95941" data-name="Grupo 95941">
                              <g id="Grupo_95940" data-name="Grupo 95940">
                                <g id="Grupo_95939" data-name="Grupo 95939">
                                  <g id="Grupo_95938" data-name="Grupo 95938">
                                    <g id="Grupo_95937" data-name="Grupo 95937">
                                      <g id="Grupo_95936" data-name="Grupo 95936">
                                        <path id="Trazado_147645" data-name="Trazado 147645" d="M220.526,101.247c.6.623,2.581-.3,5.053-.592,2.46-.381,4.618-.026,5.026-.787.175-.366-.227-1.012-1.21-1.557a7.363,7.363,0,0,0-8.121,1.111C220.473,100.211,220.26,100.94,220.526,101.247Z" fill="#263238"/>
                                      </g>
                                    </g>
                                  </g>
                                </g>
                              </g>
                            </g>
                          </g>
                        </g>
                      </g>
                    </g>
                  </g>
                </g>
                <g id="Grupo_95955" data-name="Grupo 95955">
                  <g id="Grupo_95954" data-name="Grupo 95954">
                    <g id="Grupo_95953" data-name="Grupo 95953">
                      <g id="Grupo_95952" data-name="Grupo 95952">
                        <g id="Grupo_95951" data-name="Grupo 95951">
                          <g id="Grupo_95950" data-name="Grupo 95950">
                            <g id="Grupo_95949" data-name="Grupo 95949">
                              <g id="Grupo_95948" data-name="Grupo 95948">
                                <path id="Trazado_147646" data-name="Trazado 147646" d="M282.653,117.106c.316-.179,12.942-5.36,13.918,7.976s-12.614,11.566-12.665,11.185S282.653,117.106,282.653,117.106Z" fill="#ffbf9d"/>
                              </g>
                            </g>
                          </g>
                        </g>
                      </g>
                    </g>
                  </g>
                </g>
                <g id="Grupo_95964" data-name="Grupo 95964">
                  <g id="Grupo_95963" data-name="Grupo 95963">
                    <g id="Grupo_95962" data-name="Grupo 95962">
                      <g id="Grupo_95961" data-name="Grupo 95961">
                        <g id="Grupo_95960" data-name="Grupo 95960">
                          <g id="Grupo_95959" data-name="Grupo 95959">
                            <g id="Grupo_95958" data-name="Grupo 95958">
                              <g id="Grupo_95957" data-name="Grupo 95957">
                                <g id="Grupo_95956" data-name="Grupo 95956">
                                  <path id="Trazado_147647" data-name="Trazado 147647" d="M287.61,130.917c.055-.047.244.145.65.3a2.325,2.325,0,0,0,1.739-.091c1.371-.62,2.394-2.944,2.282-5.353a7.692,7.692,0,0,0-.894-3.278,2.692,2.692,0,0,0-1.877-1.656,1.186,1.186,0,0,0-1.325.738c-.151.386-.047.646-.117.674-.034.036-.3-.2-.235-.761a1.485,1.485,0,0,1,.464-.874,1.758,1.758,0,0,1,1.259-.434,3.275,3.275,0,0,1,2.579,1.89,7.92,7.92,0,0,1,1.078,3.658c.111,2.694-1.081,5.309-2.968,6.008a2.5,2.5,0,0,1-2.15-.2C287.657,131.237,287.565,130.944,287.61,130.917Z" fill="#ff9a6c"/>
                                </g>
                              </g>
                            </g>
                          </g>
                        </g>
                      </g>
                    </g>
                  </g>
                </g>
                <g id="Grupo_95972" data-name="Grupo 95972">
                  <g id="Grupo_95971" data-name="Grupo 95971">
                    <g id="Grupo_95970" data-name="Grupo 95970">
                      <g id="Grupo_95969" data-name="Grupo 95969">
                        <g id="Grupo_95968" data-name="Grupo 95968">
                          <g id="Grupo_95967" data-name="Grupo 95967">
                            <g id="Grupo_95966" data-name="Grupo 95966">
                              <g id="Grupo_95965" data-name="Grupo 95965">
                                <path id="Trazado_147648" data-name="Trazado 147648" d="M222.543,81.015c-2.236-1.052,3.795-8.463,8.947-11.213,7.787-4.155,19.891-7.184,27.422-5.563,9.067,1.952,16.75,5.906,21.741,13.722s7.281,17.151,7.616,26.419c.1,2.828,0,5.79-1.355,8.274-1.674,3.07-5.13,5.159-4.712,9.218a5.6,5.6,0,0,1-1.124,4.163c-2.274,2.755-5.418.506-6.948-1.852-3.27-5.038-4-11.257-4.642-17.228-.457-4.244-.91-8.58.028-12.745.509-2.266,1.422-4.435,1.806-6.726s.15-4.849-1.374-6.6a8.364,8.364,0,0,0-1.155-1.027,13.945,13.945,0,0,0-13.975-1.74c-7.343,3.142-19.921,7.939-23.436,5.6-5.058-3.358-6.365-5.676-6.365-5.676Z" fill="#263238"/>
                              </g>
                            </g>
                          </g>
                        </g>
                      </g>
                    </g>
                  </g>
                </g>
              </g>
            </g>
          </g>
          <g id="Grupo_95976" data-name="Grupo 95976">
            <path id="Trazado_147649" data-name="Trazado 147649" d="M208.922,198.083c-.773,1.069-11.7,4.7-15.85,11.605s-8.249,37.929-8.249,37.929l-2.639,20.421c5.2,8.226,12.174,19.116,19.575,26.8Z" fill="#455a64"/>
          </g>
          <g id="Grupo_95978" data-name="Grupo 95978" opacity="0.3">
            <g id="Grupo_95977" data-name="Grupo 95977">
              <path id="Trazado_147650" data-name="Trazado 147650" d="M291.047,228.033a52.715,52.715,0,0,0,2.362,12.306c1.432,3.935,3.942,7.631,7.606,9.657,1.535.849,3.266,1.409,4.551,2.6,1.38,1.282,2.075,3.144,3.324,4.554a13.087,13.087,0,0,0,5.611,3.287,49.3,49.3,0,0,0,18.62,2.966c.2-2.14.21-10,.406-12.142Z"/>
            </g>
          </g>
          <g id="Grupo_96011" data-name="Grupo 96011">
            <g id="Grupo_95982" data-name="Grupo 95982">
              <g id="Grupo_95979" data-name="Grupo 95979">
                <path id="Trazado_147651" data-name="Trazado 147651" d="M324.7,183.063s13.783,4.075,17.82,9.947,11.193,28.626,12.661,32.846.183,14.007-2.569,21.041-7.529,13.09-15.783,14.007-21.293-3.853-24.224-6.973-4.158-10.121-4.158-10.121a77.6,77.6,0,0,0,10.818-2.714" fill="#455a64"/>
              </g>
              <g id="Grupo_95981" data-name="Grupo 95981">
                <g id="Grupo_95980" data-name="Grupo 95980">
                  <path id="Trazado_147652" data-name="Trazado 147652" d="M319.264,241.1a.726.726,0,0,1-.171.075l-.521.188c-.462.158-1.15.387-2.06.661a74.086,74.086,0,0,1-8.043,1.925l.111-.158a33.966,33.966,0,0,0,1.407,5.057,20.335,20.335,0,0,0,1.193,2.7,9.547,9.547,0,0,0,1.847,2.514,13.338,13.338,0,0,0,2.788,1.838,33.068,33.068,0,0,0,3.243,1.49,51.3,51.3,0,0,0,7.322,2.318,37.008,37.008,0,0,0,8.224,1.057c.717.032,1.43-.064,2.153-.1a19.232,19.232,0,0,0,2.15-.384,15.034,15.034,0,0,0,4.141-1.606,18.726,18.726,0,0,0,6.569-6.413,33.977,33.977,0,0,0,3.9-8.863,50.881,50.881,0,0,0,1.592-7.334,34.836,34.836,0,0,0,.359-7.252,12.737,12.737,0,0,0-.716-3.423q-.558-1.68-1.105-3.327-1.1-3.288-2.149-6.431c-1.419-4.181-2.819-8.135-4.222-11.8a73.159,73.159,0,0,0-4.432-9.936,11.787,11.787,0,0,0-3.113-3.482,26.657,26.657,0,0,0-3.505-2.35,55.227,55.227,0,0,0-6.108-2.953c-1.723-.714-3.084-1.213-4.011-1.54l-1.055-.371a2.245,2.245,0,0,1-.356-.138,1.909,1.909,0,0,1,.372.087l1.073.322c.938.3,2.313.765,4.053,1.452a52.9,52.9,0,0,1,6.176,2.888,26.646,26.646,0,0,1,3.568,2.344,12.1,12.1,0,0,1,3.22,3.55,72.311,72.311,0,0,1,4.521,9.971c1.423,3.666,2.84,7.62,4.273,11.8q1.059,3.14,2.167,6.429.551,1.644,1.111,3.321a13.335,13.335,0,0,1,.747,3.546,35.253,35.253,0,0,1-.355,7.365,51.093,51.093,0,0,1-1.605,7.408,34.409,34.409,0,0,1-3.969,9,19.2,19.2,0,0,1-6.758,6.572,15.486,15.486,0,0,1-4.273,1.647,19.4,19.4,0,0,1-2.21.388c-.741.037-1.476.131-2.2.1a37.256,37.256,0,0,1-8.329-1.1,51.176,51.176,0,0,1-7.375-2.372,33.371,33.371,0,0,1-3.273-1.526,13.653,13.653,0,0,1-2.857-1.915,9.857,9.857,0,0,1-1.9-2.622,20.444,20.444,0,0,1-1.19-2.758,33.62,33.62,0,0,1-1.369-5.121l-.025-.135.136-.023a82.19,82.19,0,0,0,8.05-1.795l2.078-.593.531-.152A.746.746,0,0,1,319.264,241.1Z" fill="#263238"/>
                </g>
              </g>
            </g>
            <g id="Grupo_95984" data-name="Grupo 95984">
              <g id="Grupo_95983" data-name="Grupo 95983">
                <path id="Trazado_147653" data-name="Trazado 147653" d="M344.548,233.728c-.1.024-.415-1.7-1.573-4.235a28.991,28.991,0,0,0-6.218-8.829,20.316,20.316,0,0,0-4.834-3.44l-1.218-.545a15.826,15.826,0,0,0-3.4-.845l-.5-.076h-1.361a6.353,6.353,0,0,0-1.406.121,5.519,5.519,0,0,1-1.214.124,5.562,5.562,0,0,1,1.18-.324,5.859,5.859,0,0,1,1.424-.212l.9-.041.494-.02.517.06a10.993,10.993,0,0,1,2.288.406,11.507,11.507,0,0,1,1.241.377l1.265.541a19.929,19.929,0,0,1,4.982,3.494,27.191,27.191,0,0,1,6.2,9.06,15.736,15.736,0,0,1,.656,1.788,11.705,11.705,0,0,1,.385,1.385A5.5,5.5,0,0,1,344.548,233.728Z" fill="#263238"/>
              </g>
            </g>
            <g id="Grupo_95986" data-name="Grupo 95986">
              <g id="Grupo_95985" data-name="Grupo 95985">
                <path id="Trazado_147654" data-name="Trazado 147654" d="M352.068,221.363a25.3,25.3,0,0,0-2.078-4.2,16.409,16.409,0,0,0-8.782-6.648c-4.231-1.288-8.339-.89-11.206-.615l-3.427.41a6.058,6.058,0,0,1-1.267.1,5.88,5.88,0,0,1,1.235-.3c.8-.159,1.964-.373,3.414-.575a26.692,26.692,0,0,1,11.4.483,15.706,15.706,0,0,1,5.557,3.035,16.41,16.41,0,0,1,3.382,3.912,14.117,14.117,0,0,1,1.47,3.156A4.72,4.72,0,0,1,352.068,221.363Z" fill="#263238"/>
              </g>
            </g>
            <g id="Grupo_95988" data-name="Grupo 95988">
              <g id="Grupo_95987" data-name="Grupo 95987">
                <path id="Trazado_147655" data-name="Trazado 147655" d="M341.676,206.568a30.665,30.665,0,0,0-16.3.641,8.145,8.145,0,0,1,2.257-.946,22.729,22.729,0,0,1,11.716-.461A8.122,8.122,0,0,1,341.676,206.568Z" fill="#263238"/>
              </g>
            </g>
            <g id="Grupo_95990" data-name="Grupo 95990">
              <g id="Grupo_95989" data-name="Grupo 95989">
                <path id="Trazado_147656" data-name="Trazado 147656" d="M319.377,186.5c.082.013-.117,1.406-.278,3.664a55.227,55.227,0,0,0,1.483,17.248l-.361.116c-.409-1.156-.731-2.1-.942-2.748a4.078,4.078,0,0,1-.276-1.034,4.089,4.089,0,0,1,.473.96c.271.631.647,1.549,1.1,2.688l-.361.116a45.956,45.956,0,0,1-1.483-17.379c.126-1.133.274-2.044.4-2.67A3.658,3.658,0,0,1,319.377,186.5Z" fill="#263238"/>
              </g>
            </g>
            <g id="Grupo_96008" data-name="Grupo 96008">
              <g id="Grupo_95991" data-name="Grupo 95991">
                <path id="Trazado_147657" data-name="Trazado 147657" d="M299.892,160.846s-7.154,0-8.051,8.6c-.689,6.6,0,13.006,0,15.9s-1.273,13.167-1.273,13.167-4.881,4.33-4.8,9.531c.083,5.226,3.8,6.824,3.8,6.824a8.821,8.821,0,0,0,2.064,9.5s-2.078,4.794-.369,8.022a7.676,7.676,0,0,0,4.292,3.333,4.878,4.878,0,0,0,2.961,6.71,21.317,21.317,0,0,0,7.435.913l5.337-.1,4.7,2.6s8.051-3.509,8.258-8.257l.206-4.749s-2.271-7.844-2.477-10.322,1.858-8.464.619-11.148-5.574-4.261-5.161-8.014-.413-5.818-2.271-7.882-10.069-6.193-10.069-6.193-2.111-5.987-2.111-10.116S307.118,162.424,299.892,160.846Z" fill="#ffbf9d"/>
              </g>
              <g id="Grupo_95993" data-name="Grupo 95993">
                <g id="Grupo_95992" data-name="Grupo 95992">
                  <path id="Trazado_147658" data-name="Trazado 147658" d="M304.712,190.827a10.61,10.61,0,0,1-1.98,1.284c-1.257.736-3.011,1.722-4.965,2.783s-3.736,2-5.039,2.649a10.678,10.678,0,0,1-2.16.963,10.7,10.7,0,0,1,1.983-1.286c1.256-.736,3.01-1.721,4.962-2.781s3.734-1.994,5.037-2.648A10.77,10.77,0,0,1,304.712,190.827Z" fill="#ff9a6c"/>
                </g>
              </g>
              <g id="Grupo_95995" data-name="Grupo 95995">
                <g id="Grupo_95994" data-name="Grupo 95994">
                  <path id="Trazado_147659" data-name="Trazado 147659" d="M309.408,206.991c.021.029-.2.226-.624.559s-1.055.786-1.862,1.309a36.966,36.966,0,0,1-13.956,5.343c-.95.149-1.724.239-2.26.269a2.664,2.664,0,0,1-.838,0,30.111,30.111,0,0,1,3.031-.633,45.683,45.683,0,0,0,13.831-5.294A30.345,30.345,0,0,1,309.408,206.991Z" fill="#ff9a6c"/>
                </g>
              </g>
              <g id="Grupo_95997" data-name="Grupo 95997">
                <g id="Grupo_95996" data-name="Grupo 95996">
                  <path id="Trazado_147660" data-name="Trazado 147660" d="M315.549,201.85c.13.045-.138.964-.986,1.73s-1.781.954-1.814.821c-.05-.143.716-.515,1.464-1.206S315.412,201.787,315.549,201.85Z" fill="#ff9a6c"/>
                </g>
              </g>
              <g id="Grupo_95999" data-name="Grupo 95999">
                <g id="Grupo_95998" data-name="Grupo 95998">
                  <path id="Trazado_147661" data-name="Trazado 147661" d="M312.6,221.151a15.539,15.539,0,0,1-2.993,1.1,58.494,58.494,0,0,1-15.161,2.439,15.483,15.483,0,0,1-3.185-.1,25.478,25.478,0,0,1,3.168-.267c1.953-.138,4.647-.394,7.6-.867s5.585-1.077,7.483-1.559A25.427,25.427,0,0,1,312.6,221.151Z" fill="#ff9a6c"/>
                </g>
              </g>
              <g id="Grupo_96001" data-name="Grupo 96001">
                <g id="Grupo_96000" data-name="Grupo 96000">
                  <path id="Trazado_147662" data-name="Trazado 147662" d="M319.137,219.961a14.052,14.052,0,0,1,.549-1.531,8.666,8.666,0,0,0-.882-7.383,13.482,13.482,0,0,1-.894-1.359c.04-.045.574.323,1.2,1.152a7.841,7.841,0,0,1,.922,7.719A3.258,3.258,0,0,1,319.137,219.961Z" fill="#ff9a6c"/>
                </g>
              </g>
              <g id="Grupo_96003" data-name="Grupo 96003">
                <g id="Grupo_96002" data-name="Grupo 96002">
                  <path id="Trazado_147663" data-name="Trazado 147663" d="M312.974,235.626a10.445,10.445,0,0,1-2.542.6,39.058,39.058,0,0,1-12.57-.036,10.4,10.4,0,0,1-2.539-.614,17.241,17.241,0,0,1,2.59.25,55.31,55.31,0,0,0,12.469.035A17.067,17.067,0,0,1,312.974,235.626Z" fill="#ff9a6c"/>
                </g>
              </g>
              <g id="Grupo_96005" data-name="Grupo 96005">
                <g id="Grupo_96004" data-name="Grupo 96004">
                  <path id="Trazado_147664" data-name="Trazado 147664" d="M300.278,179.264c.029.056-.324.324-.992.563a6.3,6.3,0,0,1-5.339-.635c-.594-.389-.873-.733-.832-.78a8.957,8.957,0,0,0,7.163.852Z" fill="#ff9a6c"/>
                </g>
              </g>
              <g id="Grupo_96007" data-name="Grupo 96007">
                <g id="Grupo_96006" data-name="Grupo 96006">
                  <path id="Trazado_147665" data-name="Trazado 147665" d="M320.623,220.566a1.956,1.956,0,0,1,.114.772,8.848,8.848,0,0,1-.247,2.11c-.193.875-.523,1.885-.838,3a8.478,8.478,0,0,0-.374,3.641c.172,1.265,1.119,2.292,1.268,3.578a4.759,4.759,0,0,1-.786,3.093,10.749,10.749,0,0,1-1.291,1.683c-.341.364-.549.546-.575.523-.08-.06.688-.877,1.546-2.388a4.549,4.549,0,0,0,.631-2.843c-.12-1.086-1.078-2.11-1.306-3.556a8.538,8.538,0,0,1,.426-3.864c.347-1.129.708-2.114.942-2.959A18.7,18.7,0,0,0,320.623,220.566Z" fill="#ff9a6c"/>
                </g>
              </g>
            </g>
            <g id="Grupo_96010" data-name="Grupo 96010">
              <g id="Grupo_96009" data-name="Grupo 96009">
                <path id="Trazado_147666" data-name="Trazado 147666" d="M323.312,226.848a3.535,3.535,0,0,1,.335.939c.179.615.419,1.511.646,2.636a23.655,23.655,0,0,1,.477,4.014,10.724,10.724,0,0,1-.9,4.9,14,14,0,0,1-3.074,3.915,27.968,27.968,0,0,1-3.176,2.494c-.949.644-1.744,1.123-2.3,1.436a3.553,3.553,0,0,1-.9.436c-.044-.071,1.154-.824,2.986-2.172a32.992,32.992,0,0,0,3.06-2.543,14.207,14.207,0,0,0,2.934-3.793,10.624,10.624,0,0,0,.893-4.666,26.918,26.918,0,0,0-.36-3.955C323.562,228.245,323.229,226.868,323.312,226.848Z" fill="#263238"/>
              </g>
            </g>
          </g>
          <g id="Grupo_96013" data-name="Grupo 96013">
            <g id="Grupo_96012" data-name="Grupo 96012">
              <path id="Trazado_147667" data-name="Trazado 147667" d="M247.856,193.563a7.61,7.61,0,0,1-1.158-.866l-3.03-2.507-2.076-1.751a5.913,5.913,0,0,0-1.179-.847,1.467,1.467,0,0,0-1.339-.046c-.863.451-1.439,1.559-2.176,2.477l-2.2,2.97-3.444,4.605-.647.865.205-1.058a52.169,52.169,0,0,1,2.489-8.724c.4-1.045.758-1.861,1.016-2.413a3.848,3.848,0,0,1,.443-.83,4.237,4.237,0,0,1-.291.894c-.21.57-.519,1.4-.879,2.454a61.42,61.42,0,0,0-2.292,8.711l-.441-.194,3.423-4.621,2.211-2.963,1.058-1.409a3.875,3.875,0,0,1,1.322-1.2,1.939,1.939,0,0,1,1.748.07,6.219,6.219,0,0,1,1.259.93l2.034,1.8,2.922,2.633A7.74,7.74,0,0,1,247.856,193.563Z" fill="#263238"/>
            </g>
          </g>
          <g id="Grupo_96015" data-name="Grupo 96015">
            <g id="Grupo_96014" data-name="Grupo 96014">
              <path id="Trazado_147668" data-name="Trazado 147668" d="M290.081,185.106a2,2,0,0,1-.39.349l-1.181.921-4.406,3.315-14.712,10.83-.224.164-.15-.235c-.115-.18-.239-.376-.364-.571l-7.384-11.656.27.087a55.1,55.1,0,0,0-8.2,4.087c-.946.573-1.675,1.047-2.173,1.368a4.766,4.766,0,0,1-.779.472,4.5,4.5,0,0,1,.7-.583c.475-.358,1.183-.867,2.113-1.475a49.314,49.314,0,0,1,8.167-4.281l.17-.07.1.156c2.16,3.37,4.714,7.352,7.448,11.615.125.2.249.391.364.571l-.372-.07,14.805-10.7,4.5-3.182,1.238-.843A2.073,2.073,0,0,1,290.081,185.106Z" fill="#263238"/>
            </g>
          </g>
          <g id="Grupo_96017" data-name="Grupo 96017">
            <g id="Grupo_96016" data-name="Grupo 96016">
              <path id="Trazado_147669" data-name="Trazado 147669" d="M200.334,224.875a3.548,3.548,0,0,1,.055.706c.014.515.032,1.187.055,2.024.034,1.818.081,4.345.139,7.443.119,6.285.371,14.962.7,24.548s.519,18.277.544,24.565c.01,3.144,0,5.688-.027,7.446-.017.837-.032,1.51-.042,2.025a3.587,3.587,0,0,1-.051.705,3.594,3.594,0,0,1-.054-.705c-.014-.515-.033-1.187-.056-2.024-.034-1.817-.081-4.345-.139-7.442-.119-6.285-.37-14.963-.7-24.553s-.518-18.272-.543-24.56c-.01-3.144,0-5.689.026-7.447.018-.837.032-1.51.043-2.025A3.67,3.67,0,0,1,200.334,224.875Z" fill="#263238"/>
            </g>
          </g>
          <g id="Grupo_96019" data-name="Grupo 96019">
            <g id="Grupo_96018" data-name="Grupo 96018">
              <path id="Trazado_147670" data-name="Trazado 147670" d="M248.185,315.2a1.328,1.328,0,0,1-.05-.288c-.025-.22-.057-.5-.1-.849-.076-.785-.184-1.879-.32-3.27-.278-2.84-.6-6.958-.916-12.051s-.594-11.165-.767-17.91c-.146-6.746-.183-14.166-.024-21.952.179-7.788.539-15.2.978-21.936.466-6.732,1-12.787,1.544-17.861s1.038-9.174,1.439-12c.2-1.383.351-2.472.462-3.253.055-.347.1-.625.134-.844a.147.147,0,1,1,.052.007c-.021.221-.048.5-.082.851-.087.783-.209,1.876-.365,3.264-.338,2.832-.781,6.936-1.274,12.011s-.992,11.128-1.431,17.856c-.412,6.729-.757,14.135-.936,21.915-.159,7.778-.137,15.19-.017,21.93.146,6.74.374,12.808.654,17.9s.536,9.211.751,12.055c.1,1.394.169,2.491.223,3.278.018.351.033.632.045.854A1.207,1.207,0,0,1,248.185,315.2Z" fill="#263238"/>
            </g>
          </g>
          <g id="Grupo_96021" data-name="Grupo 96021">
            <g id="Grupo_96020" data-name="Grupo 96020">
              <path id="Trazado_147671" data-name="Trazado 147671" d="M218.389,151.516s-.353.247-1.056.708l-3.126,2.032c-1.373.894-2.961,2.16-4.9,3.566-.955.722-1.913,1.588-2.977,2.464l-1.634,1.375c-.553.482-1.084,1.022-1.651,1.553a89.4,89.4,0,0,0-14.465,17.363l-1.779,2.861c-.627.956-1.113,2.015-1.689,3.043-.545,1.045-1.152,2.08-1.671,3.179s-1.017,2.229-1.537,3.367c-.253.572-.537,1.137-.77,1.727s-.453,1.19-.681,1.792c-.451,1.205-.935,2.417-1.377,3.662-.74,2.537-1.674,5.092-2.232,7.817a91.982,91.982,0,0,0-1.407,36.072A90.536,90.536,0,0,0,319.8,301.429a95.39,95.39,0,0,0,8.944-7.8l2.029-2.119c.683-.7,1.343-1.413,1.966-2.157l1.9-2.195,1.788-2.271a89.828,89.828,0,0,0,17.59-39.862,91.538,91.538,0,0,0,1.187-10.207c.107-1.684.105-3.359.162-5.019-.031-1.659-.122-3.305-.179-4.937q-.048-1.222-.1-2.437c-.048-.807-.18-1.6-.266-2.4q-.289-2.39-.572-4.736c-.248-1.555-.607-3.077-.9-4.6a41.64,41.64,0,0,0-1.043-4.47q-.63-2.185-1.245-4.327a18.214,18.214,0,0,0-.706-2.1q-.387-1.032-.771-2.053c-.533-1.351-.968-2.727-1.564-4.018s-1.2-2.561-1.787-3.819a89.873,89.873,0,0,0-17.253-24.371,93.97,93.97,0,0,0-17.827-13.892l-3.817-2.193a17.753,17.753,0,0,0-1.777-.915l-1.684-.8-2.992-1.426c-.9-.458-1.787-.718-2.542-1.034l-3.476-1.347c-.782-.307-1.179-.477-1.179-.477s.408.136,1.2.426l3.5,1.3c.759.309,1.648.561,2.555,1.012l3.007,1.406,1.692.792a17.756,17.756,0,0,1,1.786.906l3.837,2.177a93.485,93.485,0,0,1,17.929,13.861,89.912,89.912,0,0,1,17.378,24.415l1.8,3.831c.6,1.295,1.042,2.675,1.579,4.032q.387,1.024.778,2.06a18.122,18.122,0,0,1,.713,2.107q.622,2.149,1.258,4.344a41.752,41.752,0,0,1,1.055,4.488c.3,1.524.66,3.053.912,4.615q.288,2.357.582,4.757c.087.8.221,1.6.271,2.413q.049,1.219.1,2.449c.059,1.639.152,3.292.186,4.959-.055,1.668-.051,3.352-.156,5.044a91.952,91.952,0,0,1-1.181,10.258,90.232,90.232,0,0,1-17.647,40.09q-.9,1.139-1.8,2.284l-1.912,2.208c-.627.749-1.289,1.469-1.976,2.171l-2.039,2.131a95.894,95.894,0,0,1-8.989,7.849,91,91,0,0,1-145.1-57.669,92.189,92.189,0,0,1,1.475-36.227c.567-2.735,1.51-5.3,2.259-7.843.446-1.249.935-2.465,1.39-3.673q.348-.9.689-1.8c.235-.591.522-1.157.777-1.73q.788-1.713,1.551-3.376c.524-1.1,1.136-2.138,1.686-3.186.581-1.029,1.072-2.09,1.7-3.048q.912-1.456,1.793-2.865a88.934,88.934,0,0,1,14.572-17.353c.571-.53,1.106-1.068,1.662-1.548l1.645-1.368c1.071-.873,2.037-1.734,3-2.451,1.952-1.4,3.553-2.649,4.936-3.53l3.157-1.99C218.017,151.733,218.389,151.516,218.389,151.516Z" fill="#263238"/>
            </g>
          </g>
        </g>
      </g>
    </g>
  </g>
</svg>
