<svg xmlns="http://www.w3.org/2000/svg" xmlns:xlink="http://www.w3.org/1999/xlink" width="1240.5" height="629.333" viewBox="0 0 1240.5 629.333">
  <defs>
    <linearGradient id="linear-gradient" x1="0.5" x2="0.165" y2="0.602" gradientUnits="objectBoundingBox">
      <stop offset="0" stop-color="#6a2d9d"/>
      <stop offset="0.473" stop-color="#dbcde7"/>
      <stop offset="1" stop-color="#9368b7"/>
    </linearGradient>
    <clipPath id="clip-path">
      <path id="Recurso_1" data-name="Recurso 1" d="M0,0H1240V629.333H0Z" transform="translate(0.333 69)" fill="url(#linear-gradient)"/>
    </clipPath>
  </defs>
  <g id="Grupo_100506" data-name="Grupo 100506" transform="translate(6937.5 8447.352)">
    <g id="Grupo_100505" data-name="Grupo 100505">
      <g id="Grupo_100504" data-name="Grupo 100504">
        <rect id="Rectángulo_35647" data-name="Rectángulo 35647" width="1240" height="627" rx="15" transform="translate(-6937.5 -8446.185)" fill="#ffedcc"/>
        <g id="Enmascarar_grupo_168" data-name="Enmascarar grupo 168" transform="translate(-6937.333 -8516.352)" clip-path="url(#clip-path)">
          <g id="Grupo_98729" data-name="Grupo 98729" transform="translate(-264.129 18.312)">
            <path id="Trazado_150454" data-name="Trazado 150454" d="M99.765,462.9c-36.381-10.4-70.526-34.623-88.16-70.823s-15.74-84.79,9.591-115.527c29.831-36.2,79.556-38.917,122.336-52.286,56.438-17.636,106.691-58.5,138.421-112.572,14.3-24.365,25.18-51.568,43.776-72.2C345.853,17.157,373.857,4.348,402.278.978s57.24,2.23,84.025,12.786c53.747,21.181,102.883,67.41,113.245,128.853,7.963,47.22-8.346,97.025-36.606,134.2s-67.361,62.912-108.187,81.37-83.81,30.247-126.09,44.146c-34.144,11.225-71.526,21.516-102.94,40.42-22.166,13.338-37.528,26.262-63.976,27.274A198.662,198.662,0,0,1,99.765,462.9Z" transform="translate(-121.086 449.586) rotate(-3)" fill="#fff6e6"/>
            <g id="Grupo_98728" data-name="Grupo 98728" transform="translate(-47.539 -223.645)" style="isolation: isolate">
              <path id="Trazado_150455" data-name="Trazado 150455" d="M725.733,36.475c-35.512,58.074-94.3,93.831-153.329,120.648s-121.126,47.238-175.04,84.768S297.321,338.77,292.891,408.445c-1.772,27.883,3.08,56.788-4.985,83.314-9.35,30.754-35.441,53.2-64.04,61.8s-59.306,4.837-87.728-4.44c-71.365-23.3-132.21-82.4-161.731-157.114s-27.169-163.624,6.253-236.343C17.211,76.139,85.534,20.8,151.437-31.493L347.23-186.854c42.791-33.955,85.618-76.626,133.365-102.324,94.651-50.944,226.638,22.112,262.986,123.793C766.748-100.576,761.894-21.7,725.733,36.475Z" transform="translate(46.18 305.819)" fill="#ffe4b3"/>
            </g>
          </g>
          <g id="Grupo_98769" data-name="Grupo 98769" transform="translate(25.738 80.47)">
            <g id="Grupo_98732" data-name="Grupo 98732" transform="translate(81.981 198.38)">
              <g id="Grupo_98730" data-name="Grupo 98730" transform="translate(0 4.725)">
                <path id="Trazado_150456" data-name="Trazado 150456" d="M343.707,220.258h-8.65a1.46,1.46,0,0,1,0-2.908h8.65a1.46,1.46,0,0,1,0,2.908Z" transform="translate(-333.727 -217.35)" fill="#fff"/>
              </g>
              <g id="Grupo_98731" data-name="Grupo 98731" transform="translate(4.324)">
                <path id="Trazado_150457" data-name="Trazado 150457" d="M339.077,225.687a1.4,1.4,0,0,1-1.33-1.455v-9.45a1.336,1.336,0,1,1,2.662,0v9.45A1.4,1.4,0,0,1,339.077,225.687Z" transform="translate(-337.747 -213.329)" fill="#fff"/>
              </g>
            </g>
            <g id="Grupo_98735" data-name="Grupo 98735" transform="translate(462.89 419.067)">
              <g id="Grupo_98733" data-name="Grupo 98733" transform="translate(0 4.725)">
                <path id="Trazado_150458" data-name="Trazado 150458" d="M343.707,220.258h-8.65a1.46,1.46,0,0,1,0-2.908h8.65a1.46,1.46,0,0,1,0,2.908Z" transform="translate(-333.727 -217.35)" fill="#fff"/>
              </g>
              <g id="Grupo_98734" data-name="Grupo 98734" transform="translate(4.324)">
                <path id="Trazado_150459" data-name="Trazado 150459" d="M339.077,225.687a1.4,1.4,0,0,1-1.33-1.455v-9.45a1.336,1.336,0,1,1,2.662,0v9.45A1.4,1.4,0,0,1,339.077,225.687Z" transform="translate(-337.747 -213.329)" fill="#fff"/>
              </g>
            </g>
            <g id="Grupo_98738" data-name="Grupo 98738" transform="translate(482.571 63.205)">
              <g id="Grupo_98736" data-name="Grupo 98736" transform="translate(0 4.725)">
                <path id="Trazado_150460" data-name="Trazado 150460" d="M716.159,105.22h-8.65a1.46,1.46,0,0,1,0-2.908h8.65a1.46,1.46,0,0,1,0,2.908Z" transform="translate(-706.179 -102.312)" fill="#fff"/>
              </g>
              <g id="Grupo_98737" data-name="Grupo 98737" transform="translate(4.325)">
                <path id="Trazado_150461" data-name="Trazado 150461" d="M711.531,110.649a1.4,1.4,0,0,1-1.33-1.454V99.745a1.336,1.336,0,1,1,2.662,0V109.2A1.4,1.4,0,0,1,711.531,110.649Z" transform="translate(-710.2 -98.291)" fill="#fff"/>
              </g>
            </g>
            <g id="Grupo_98741" data-name="Grupo 98741" transform="translate(150.579 60.492)">
              <g id="Grupo_98739" data-name="Grupo 98739" transform="translate(0 5.6)">
                <path id="Trazado_150462" data-name="Trazado 150462" d="M408.68,102.762H398.427a1.011,1.011,0,0,1,0-2.014H408.68a1.011,1.011,0,0,1,0,2.014Z" transform="translate(-397.506 -100.748)" fill="#fff"/>
              </g>
              <g id="Grupo_98740" data-name="Grupo 98740" transform="translate(5.126)">
                <path id="Trazado_150463" data-name="Trazado 150463" d="M403.194,109.2a.967.967,0,0,1-.922-1.007v-11.2a.925.925,0,1,1,1.842,0v11.2A.966.966,0,0,1,403.194,109.2Z" transform="translate(-402.272 -95.982)" fill="#fff"/>
              </g>
            </g>
            <g id="Grupo_98744" data-name="Grupo 98744" transform="translate(0 270.849)">
              <g id="Grupo_98742" data-name="Grupo 98742" transform="translate(0 5.6)">
                <path id="Trazado_150464" data-name="Trazado 150464" d="M268.678,281.78H258.425a1.01,1.01,0,0,1,0-2.012h10.253a1.01,1.01,0,0,1,0,2.012Z" transform="translate(-257.504 -279.768)" fill="#fff"/>
              </g>
              <g id="Grupo_98743" data-name="Grupo 98743" transform="translate(5.126)">
                <path id="Trazado_150465" data-name="Trazado 150465" d="M263.191,288.214a.965.965,0,0,1-.921-1.006v-11.2a.924.924,0,1,1,1.841,0v11.2A.965.965,0,0,1,263.191,288.214Z" transform="translate(-262.27 -275.002)" fill="#fff"/>
              </g>
            </g>
            <g id="Grupo_98747" data-name="Grupo 98747" transform="translate(239.662 31.363)" opacity="0.3">
              <g id="Grupo_98745" data-name="Grupo 98745" transform="translate(0 4.725)">
                <path id="Trazado_150466" data-name="Trazado 150466" d="M499.61,84.63h-8.65a1.46,1.46,0,0,1,0-2.908h8.65a1.46,1.46,0,0,1,0,2.908Z" transform="translate(-489.63 -81.722)" fill="#fff"/>
              </g>
              <g id="Grupo_98746" data-name="Grupo 98746" transform="translate(4.324)">
                <path id="Trazado_150467" data-name="Trazado 150467" d="M494.981,90.059A1.4,1.4,0,0,1,493.65,88.6v-9.45a1.336,1.336,0,1,1,2.662,0V88.6A1.4,1.4,0,0,1,494.981,90.059Z" transform="translate(-493.65 -77.701)" fill="#fff"/>
              </g>
            </g>
            <g id="Grupo_98750" data-name="Grupo 98750" transform="translate(131.85 246.992)">
              <g id="Grupo_98748" data-name="Grupo 98748" transform="translate(0 3.329)">
                <path id="Trazado_150468" data-name="Trazado 150468" d="M433.613,240.055h-6.094a1.028,1.028,0,0,1,0-2.048h6.094a1.028,1.028,0,0,1,0,2.048Z" transform="translate(-426.581 -238.007)" fill="#fff"/>
              </g>
              <g id="Grupo_98749" data-name="Grupo 98749" transform="translate(3.047)">
                <path id="Trazado_150469" data-name="Trazado 150469" d="M430.352,243.88a.984.984,0,0,1-.938-1.023V236.2a.941.941,0,1,1,1.876,0v6.659A.983.983,0,0,1,430.352,243.88Z" transform="translate(-429.414 -235.174)" fill="#fff"/>
              </g>
            </g>
            <g id="Grupo_98753" data-name="Grupo 98753" transform="translate(334.831 0.318)" opacity="0.3">
              <g id="Grupo_98751" data-name="Grupo 98751" transform="translate(0 2.363)">
                <path id="Trazado_150470" data-name="Trazado 150470" d="M573.808,48.237h-4.325a.729.729,0,0,1,0-1.454h4.325a.73.73,0,0,1,0,1.454Z" transform="translate(-568.816 -46.783)" fill="#fff"/>
              </g>
              <g id="Grupo_98752" data-name="Grupo 98752" transform="translate(2.163)">
                <path id="Trazado_150471" data-name="Trazado 150471" d="M571.493,50.952a.7.7,0,0,1-.666-.727V45.5a.668.668,0,1,1,1.331,0v4.725A.7.7,0,0,1,571.493,50.952Z" transform="translate(-570.827 -44.772)" fill="#fff"/>
              </g>
            </g>
            <g id="Grupo_98754" data-name="Grupo 98754" transform="translate(192.38 21.898)">
              <path id="Trazado_150472" data-name="Trazado 150472" d="M451.821,83.087a6.747,6.747,0,1,1,6.15-6.72A6.461,6.461,0,0,1,451.821,83.087Zm0-10.958a4.255,4.255,0,1,0,3.879,4.238A4.076,4.076,0,0,0,451.821,72.129Z" transform="translate(-445.669 -69.646)" fill="#fff"/>
            </g>
            <g id="Grupo_98755" data-name="Grupo 98755" transform="translate(468.048 194.639)">
              <path id="Trazado_150473" data-name="Trazado 150473" d="M716.24,240.959a3.373,3.373,0,1,1,3.076-3.359A3.231,3.231,0,0,1,716.24,240.959Zm0-5.479a2.128,2.128,0,1,0,1.939,2.12A2.037,2.037,0,0,0,716.24,235.48Z" transform="translate(-713.164 -234.239)" fill="#fff"/>
            </g>
            <g id="Grupo_98756" data-name="Grupo 98756" transform="translate(291.921)">
              <path id="Trazado_150474" data-name="Trazado 150474" d="M530.423,112.8a6.747,6.747,0,1,1,6.152-6.72A6.463,6.463,0,0,1,530.423,112.8Zm0-10.96a4.255,4.255,0,1,0,3.882,4.24A4.076,4.076,0,0,0,530.423,101.845Z" transform="translate(-524.272 -99.363)" fill="#fff"/>
            </g>
            <g id="Grupo_98757" data-name="Grupo 98757" transform="translate(21.676 356.446)">
              <path id="Trazado_150475" data-name="Trazado 150475" d="M235.071,361.288a6.746,6.746,0,1,1,6.152-6.721A6.461,6.461,0,0,1,235.071,361.288Zm0-10.96a4.256,4.256,0,1,0,3.881,4.238A4.075,4.075,0,0,0,235.071,350.329Z" transform="translate(-228.92 -347.848)" fill="#fff"/>
            </g>
            <g id="Grupo_98758" data-name="Grupo 98758" transform="translate(524.676 471.16)">
              <path id="Trazado_150476" data-name="Trazado 150476" d="M235.071,361.288a6.746,6.746,0,1,1,6.152-6.721A6.461,6.461,0,0,1,235.071,361.288Zm0-10.96a4.256,4.256,0,1,0,3.881,4.238A4.075,4.075,0,0,0,235.071,350.329Z" transform="translate(-228.92 -347.848)" fill="#fff"/>
            </g>
            <g id="Grupo_98759" data-name="Grupo 98759" transform="translate(21.819 80.813)">
              <path id="Trazado_150477" data-name="Trazado 150477" d="M283.55,125.86a6.316,6.316,0,1,1,5.758-6.292A6.05,6.05,0,0,1,283.55,125.86Zm0-11.955a5.685,5.685,0,1,0,5.183,5.663A5.445,5.445,0,0,0,283.55,113.9Z" transform="translate(-277.79 -113.276)" fill="#fff"/>
            </g>
            <g id="Grupo_98760" data-name="Grupo 98760" transform="translate(501.196 159.966)">
              <path id="Trazado_150478" data-name="Trazado 150478" d="M727.793,190.028a4.713,4.713,0,1,1,4.3-4.7A4.515,4.515,0,0,1,727.793,190.028Zm0-8.664a3.984,3.984,0,1,0,3.632,3.968A3.816,3.816,0,0,0,727.793,181.364Z" transform="translate(-723.496 -180.638)" fill="#fff"/>
            </g>
            <g id="Grupo_98761" data-name="Grupo 98761" transform="translate(64.403 148.5)">
              <path id="Trazado_150479" data-name="Trazado 150479" d="M321.681,180.27a4.713,4.713,0,1,1,4.3-4.7A4.515,4.515,0,0,1,321.681,180.27Zm0-8.662a3.983,3.983,0,1,0,3.631,3.967A3.815,3.815,0,0,0,321.681,171.607Z" transform="translate(-317.383 -170.88)" fill="#fff"/>
            </g>
            <g id="Grupo_98762" data-name="Grupo 98762" transform="translate(340.162 10.576)">
              <path id="Trazado_150480" data-name="Trazado 150480" d="M668.483,125.6a.5.5,0,0,1-.187-.036,17.423,17.423,0,0,1-1.67-.785.614.614,0,0,1-.246-.786.521.521,0,0,1,.721-.269,16.255,16.255,0,0,0,1.57.738.6.6,0,0,1,.317.756A.543.543,0,0,1,668.483,125.6ZM663.26,122.3a.51.51,0,0,1-.342-.133,21.352,21.352,0,0,1-3.077-3.452.623.623,0,0,1,.092-.825.508.508,0,0,1,.754.1,20.284,20.284,0,0,0,2.914,3.268.624.624,0,0,1,.073.827A.516.516,0,0,1,663.26,122.3Zm-15.489-2.943-.046,0a11.175,11.175,0,0,1-4.043-1.142l-.275-.145a.615.615,0,0,1-.244-.787.521.521,0,0,1,.721-.267l.254.134a10.15,10.15,0,0,0,3.678,1.035.573.573,0,0,1,.49.635A.559.559,0,0,1,647.771,119.352Zm4.277-.315a.551.551,0,0,1-.526-.469.588.588,0,0,1,.418-.693,18.365,18.365,0,0,0,3.975-1.41.523.523,0,0,1,.71.3.611.611,0,0,1-.273.776,19.389,19.389,0,0,1-4.2,1.485A.488.488,0,0,1,652.048,119.037Zm-11.8-3.75a.518.518,0,0,1-.4-.19,18.32,18.32,0,0,1-2.508-3.994.613.613,0,0,1,.232-.791.517.517,0,0,1,.724.254,17.2,17.2,0,0,0,2.344,3.735.626.626,0,0,1-.032.831A.512.512,0,0,1,640.247,115.287Zm19.592-.066a.523.523,0,0,1-.43-.235.625.625,0,0,1,.108-.823,17.966,17.966,0,0,0,3.015-3.137.509.509,0,0,1,.757-.083.627.627,0,0,1,.076.827,19.077,19.077,0,0,1-3.2,3.334A.511.511,0,0,1,659.839,115.221Zm-1.842-.27a.535.535,0,0,1-.484-.333,22.766,22.766,0,0,1-1.457-4.552.59.59,0,0,1,.406-.7.535.535,0,0,1,.643.443,21.664,21.664,0,0,0,1.377,4.3.611.611,0,0,1-.251.784A.494.494,0,0,1,658,114.951Zm7.131-7a.508.508,0,0,1-.193-.039.606.606,0,0,1-.31-.759,11.066,11.066,0,0,0,.644-3.66q0-.345-.025-.692a.573.573,0,0,1,.5-.629.553.553,0,0,1,.577.542c.018.26.027.521.027.779a12.345,12.345,0,0,1-.715,4.08A.54.54,0,0,1,665.128,107.956Zm-42.69-.106a16.193,16.193,0,0,1-2-.122.577.577,0,0,1-.473-.65.548.548,0,0,1,.595-.517,16.423,16.423,0,0,0,4.167-.041.554.554,0,0,1,.6.513.578.578,0,0,1-.468.653A18.53,18.53,0,0,1,622.438,107.85Zm13.819-.8a.546.546,0,0,1-.517-.429l-.14-.56a34.749,34.749,0,0,1-.726-4.127.579.579,0,0,1,.467-.656.556.556,0,0,1,.6.51,33.733,33.733,0,0,0,.7,3.975l.135.541a.6.6,0,0,1-.372.725A.53.53,0,0,1,636.257,107.05Zm-7.27-.363a.543.543,0,0,1-.512-.411.6.6,0,0,1,.351-.737,24.772,24.772,0,0,0,3.9-1.738.516.516,0,0,1,.723.259.614.614,0,0,1-.238.79,25.672,25.672,0,0,1-4.06,1.811A.522.522,0,0,1,628.987,106.687Zm-12.628-.166a.507.507,0,0,1-.219-.051,12.563,12.563,0,0,1-3.048-2.1q-.336-.314-.645-.646a.626.626,0,0,1-.005-.831.507.507,0,0,1,.76-.007c.188.2.385.4.588.59a11.461,11.461,0,0,0,2.789,1.925.609.609,0,0,1,.271.776A.536.536,0,0,1,616.359,106.521Zm39.787-.66h-.015a.569.569,0,0,1-.523-.605,12.21,12.21,0,0,1,1-4.8.518.518,0,0,1,.724-.257.614.614,0,0,1,.237.79,10.918,10.918,0,0,0-.887,4.3A.562.562,0,0,1,656.146,105.861ZM636.658,102.5a.525.525,0,0,1-.443-.255.621.621,0,0,1,.14-.817A37.051,37.051,0,0,0,639.7,98.6a.509.509,0,0,1,.759.055.626.626,0,0,1-.052.83,37.949,37.949,0,0,1-3.448,2.92A.5.5,0,0,1,636.658,102.5Zm-26.336-2.409a.532.532,0,0,1-.481-.325,20.25,20.25,0,0,1-1.427-4.579.588.588,0,0,1,.416-.694.542.542,0,0,1,.637.454,18.979,18.979,0,0,0,1.336,4.3.614.614,0,0,1-.24.788A.5.5,0,0,1,610.322,100.094Zm-24.031-.3-.316,0a.59.59,0,0,1,.012-1.175H586l.289,0a18.106,18.106,0,0,0,3.867-.454.542.542,0,0,1,.632.461.587.587,0,0,1-.423.691A19.062,19.062,0,0,1,586.291,99.789Zm77.965-.729a.514.514,0,0,1-.371-.162,2.935,2.935,0,0,0-2.164-.88h0a4.047,4.047,0,0,0-1.334.234.531.531,0,0,1-.677-.38.6.6,0,0,1,.349-.739,5.021,5.021,0,0,1,1.662-.29h0a3.925,3.925,0,0,1,2.906,1.2.627.627,0,0,1,.017.831A.515.515,0,0,1,664.257,99.061Zm-82.478-.127a.5.5,0,0,1-.195-.04c-.169-.072-.337-.147-.5-.228a11.1,11.1,0,0,1-3.261-2.438.627.627,0,0,1-.009-.831.507.507,0,0,1,.76-.009,10.05,10.05,0,0,0,2.946,2.2c.151.073.3.142.456.207a.606.606,0,0,1,.309.759A.544.544,0,0,1,581.778,98.934Zm12.637-.817a.547.547,0,0,1-.513-.409.6.6,0,0,1,.35-.739c1.343-.466,2.7-.989,4.027-1.551a.524.524,0,0,1,.695.336.6.6,0,0,1-.307.76c-1.349.57-2.723,1.1-4.089,1.575A.493.493,0,0,1,594.415,98.117Zm40.771-.36h-.011a.567.567,0,0,1-.527-.6,36.4,36.4,0,0,1,.4-4.76.543.543,0,0,1,.617-.484.583.583,0,0,1,.443.674,35.547,35.547,0,0,0-.387,4.593A.563.563,0,0,1,635.186,97.758Zm7.94-1.423a.511.511,0,0,1-.361-.153.625.625,0,0,1-.037-.83,39.963,39.963,0,0,0,2.662-3.6.509.509,0,0,1,.751-.136.624.624,0,0,1,.124.82,40.852,40.852,0,0,1-2.74,3.707A.516.516,0,0,1,643.125,96.335Zm-40.692-1.613a.536.536,0,0,1-.488-.342.613.613,0,0,1,.263-.78c1.282-.644,2.568-1.343,3.823-2.076a.514.514,0,0,1,.727.241.616.616,0,0,1-.219.8c-1.273.745-2.579,1.454-3.881,2.108A.5.5,0,0,1,602.433,94.721ZM575.7,92.595a.537.537,0,0,1-.483-.328,17.3,17.3,0,0,1-1.347-4.632.583.583,0,0,1,.447-.671.546.546,0,0,1,.616.488,15.967,15.967,0,0,0,1.248,4.295.615.615,0,0,1-.244.787A.5.5,0,0,1,575.7,92.595Zm32.77-1.6a.564.564,0,0,1-.538-.573q-.008-.365-.008-.73a38.472,38.472,0,0,1,.222-4.045.548.548,0,0,1,.6-.515.578.578,0,0,1,.473.651A36.763,36.763,0,0,0,609,89.688q0,.351.008.7a.568.568,0,0,1-.525.6Zm1.547-.705a.529.529,0,0,1-.458-.28.62.62,0,0,1,.176-.808c1.206-.811,2.4-1.673,3.565-2.564a.511.511,0,0,1,.75.143.623.623,0,0,1-.131.819c-1.178.9-2.4,1.779-3.621,2.6A.5.5,0,0,1,610.014,90.286Zm38.107-1.579a.5.5,0,0,1-.259-.073.616.616,0,0,1-.212-.8c.435-.862.841-1.747,1.209-2.632.213-.513.4-1.029.556-1.533a.528.528,0,0,1,.68-.369.6.6,0,0,1,.339.744c-.167.542-.367,1.1-.6,1.645-.378.911-.8,1.824-1.245,2.712A.533.533,0,0,1,648.12,88.706Zm-11.543-.193a.48.48,0,0,1-.161-.027.6.6,0,0,1-.352-.738,34.908,34.908,0,0,1,1.617-4.443.519.519,0,0,1,.72-.273.614.614,0,0,1,.25.785,33.278,33.278,0,0,0-1.56,4.284A.545.545,0,0,1,636.577,88.514Zm-19.525-3.626a.524.524,0,0,1-.422-.222.624.624,0,0,1,.086-.825c1.113-.969,2.21-1.983,3.258-3.014a.507.507,0,0,1,.761.043.627.627,0,0,1-.041.83c-1.065,1.047-2.178,2.076-3.308,3.06A.509.509,0,0,1,617.052,84.887Zm-42.74-1.443a.447.447,0,0,1-.056,0,.576.576,0,0,1-.48-.645,25.788,25.788,0,0,1,.916-4.706.529.529,0,0,1,.675-.382.6.6,0,0,1,.35.737,24.463,24.463,0,0,0-.871,4.473A.558.558,0,0,1,574.312,83.445Zm35.117-1.771a.5.5,0,0,1-.124-.016.592.592,0,0,1-.4-.707,43.506,43.506,0,0,1,1.254-4.569.528.528,0,0,1,.689-.35.6.6,0,0,1,.32.753,42.465,42.465,0,0,0-1.218,4.437A.551.551,0,0,1,609.428,81.674ZM640.343,80.1a.5.5,0,0,1-.317-.113.624.624,0,0,1-.116-.821,10.216,10.216,0,0,1,3.327-3.322.517.517,0,0,1,.726.247.615.615,0,0,1-.226.793,9.176,9.176,0,0,0-2.96,2.975A.522.522,0,0,1,640.343,80.1Zm10.026-.281a.551.551,0,0,1-.525-.469,4.048,4.048,0,0,0-.935-1.975,3.33,3.33,0,0,0-1.414-.931.6.6,0,0,1-.349-.738.529.529,0,0,1,.675-.382,4.381,4.381,0,0,1,1.859,1.23,5.21,5.21,0,0,1,1.216,2.558.587.587,0,0,1-.416.694A.507.507,0,0,1,650.369,79.822ZM623.442,78.6a.51.51,0,0,1-.376-.169.625.625,0,0,1-.006-.831c.995-1.107,1.97-2.26,2.9-3.424a.506.506,0,0,1,.759-.059.626.626,0,0,1,.054.828c-.94,1.184-1.931,2.354-2.942,3.478A.515.515,0,0,1,623.442,78.6Zm-46.611-4.092a.5.5,0,0,1-.24-.062.615.615,0,0,1-.241-.788q.19-.416.391-.825a37.606,37.606,0,0,1,1.817-3.295.51.51,0,0,1,.745-.159.62.62,0,0,1,.145.815c-.637,1.032-1.229,2.106-1.759,3.191q-.194.4-.379.8A.533.533,0,0,1,576.831,74.509ZM612.4,72.875a.49.49,0,0,1-.251-.068.615.615,0,0,1-.225-.793,29.939,29.939,0,0,1,2.347-4.046.509.509,0,0,1,.754-.114.625.625,0,0,1,.1.824,28.6,28.6,0,0,0-2.252,3.885A.533.533,0,0,1,612.4,72.875Zm16.587-1.439a.494.494,0,0,1-.284-.089.618.618,0,0,1-.172-.808,10.132,10.132,0,0,0,1.282-3.433,6.259,6.259,0,0,0,.069-.67.562.562,0,0,1,.567-.553.569.569,0,0,1,.507.619,7.19,7.19,0,0,1-.084.806,11.343,11.343,0,0,1-1.428,3.853A.528.528,0,0,1,628.99,71.436Zm-47.365-4.7a.51.51,0,0,1-.354-.146.626.626,0,0,1-.052-.828,37.944,37.944,0,0,1,3.069-3.394.506.506,0,0,1,.759.046.629.629,0,0,1-.041.831,36.32,36.32,0,0,0-2.976,3.29A.52.52,0,0,1,581.626,66.734Zm35.994-1.263a.518.518,0,0,1-.4-.2.625.625,0,0,1,.05-.83,18.135,18.135,0,0,1,3.652-2.721.52.52,0,0,1,.724.255.616.616,0,0,1-.233.792,16.979,16.979,0,0,0-3.434,2.559A.511.511,0,0,1,617.62,65.471Zm11.511-2.78a.521.521,0,0,1-.4-.2,3.307,3.307,0,0,0-1.314-1,4.1,4.1,0,0,0-2.126-.188.55.55,0,0,1-.607-.5.581.581,0,0,1,.459-.663,5.081,5.081,0,0,1,2.65.251,4.405,4.405,0,0,1,1.742,1.32.626.626,0,0,1-.045.83A.509.509,0,0,1,629.13,62.691Zm-41.114-2.217a.528.528,0,0,1-.442-.251.623.623,0,0,1,.133-.818,35.988,35.988,0,0,1,3.72-2.492.517.517,0,0,1,.728.243.616.616,0,0,1-.221.794,34.905,34.905,0,0,0-3.611,2.417A.5.5,0,0,1,588.016,60.474Zm7.578-4.4a.54.54,0,0,1-.5-.377.605.605,0,0,1,.31-.759,32.121,32.121,0,0,1,4.172-1.415.534.534,0,0,1,.648.432.59.59,0,0,1-.4.709,31.156,31.156,0,0,0-4.04,1.372A.5.5,0,0,1,595.595,56.071Z" transform="translate(-573.773 -53.502)" fill="#fff"/>
            </g>
            <g id="Grupo_98766" data-name="Grupo 98766" transform="translate(68.638 17.285)">
              <g id="Grupo_98763" data-name="Grupo 98763" transform="translate(31.08)">
                <path id="Trazado_150481" data-name="Trazado 150481" d="M350.757,61.063a.545.545,0,0,1-.51-.4.6.6,0,0,1,.337-.746c.693-.258,1.4-.49,2.1-.687a.532.532,0,0,1,.655.422.6.6,0,0,1-.386.716c-.673.19-1.354.412-2.022.662A.474.474,0,0,1,350.757,61.063Z" transform="translate(-350.218 -59.212)" fill="#fff"/>
              </g>
              <g id="Grupo_98764" data-name="Grupo 98764" transform="translate(0 2.526)">
                <path id="Trazado_150482" data-name="Trazado 150482" d="M344.026,173.277h-.045a20.607,20.607,0,0,1-4.339-.881.6.6,0,0,1-.367-.729.532.532,0,0,1,.667-.4,19.521,19.521,0,0,0,4.127.839.575.575,0,0,1,.492.633A.56.56,0,0,1,344.026,173.277Zm-8.243-2.578a.5.5,0,0,1-.241-.062,25.619,25.619,0,0,1-3.753-2.51.624.624,0,0,1-.116-.821.511.511,0,0,1,.753-.125,24.518,24.518,0,0,0,3.6,2.4.615.615,0,0,1,.241.788A.535.535,0,0,1,335.783,170.7Zm-6.922-5.552a.515.515,0,0,1-.386-.179,27.653,27.653,0,0,1-2.78-3.726.621.621,0,0,1,.142-.817.512.512,0,0,1,.746.156,26.42,26.42,0,0,0,2.664,3.567.627.627,0,0,1-.012.831A.511.511,0,0,1,328.861,165.147Zm-4.811-7.761a.539.539,0,0,1-.492-.35c-.095-.233-.184-.466-.27-.7a30.873,30.873,0,0,1-1.139-3.854.59.59,0,0,1,.393-.711.537.537,0,0,1,.652.429,29.574,29.574,0,0,0,1.093,3.7q.123.335.255.664a.609.609,0,0,1-.273.776A.5.5,0,0,1,324.05,157.386Zm-2.082-9.1a.558.558,0,0,1-.535-.537c-.074-.926-.112-1.877-.112-2.826q0-.982.053-1.966a.555.555,0,0,1,.568-.552.571.571,0,0,1,.505.62c-.033.632-.052,1.266-.051,1.9,0,.917.035,1.833.108,2.726a.575.575,0,0,1-.489.636Zm.485-9.378a.458.458,0,0,1-.1-.012.587.587,0,0,1-.425-.689,41.016,41.016,0,0,1,1.109-4.627.526.526,0,0,1,.679-.374.6.6,0,0,1,.342.741,39.764,39.764,0,0,0-1.073,4.484A.553.553,0,0,1,322.452,138.9Zm2.689-8.93a.5.5,0,0,1-.229-.055.612.612,0,0,1-.257-.783,40.482,40.482,0,0,1,2.1-4.191.512.512,0,0,1,.741-.186.621.621,0,0,1,.169.811,39.732,39.732,0,0,0-2.039,4.068A.535.535,0,0,1,325.141,129.974Zm4.584-7.954a.511.511,0,0,1-.34-.132.624.624,0,0,1-.077-.827,43.532,43.532,0,0,1,2.938-3.531.509.509,0,0,1,.762,0,.629.629,0,0,1,0,.832,42.072,42.072,0,0,0-2.862,3.437A.52.52,0,0,1,329.725,122.02Zm22.491-3.392q-.6,0-1.206-.022a.589.589,0,0,1,.038-1.174c1.076.039,2.156.021,3.229-.036q.507-.026,1.022-.07a.589.589,0,0,1,.082,1.172c-.352.031-.7.054-1.051.073C353.627,118.607,352.922,118.628,352.216,118.628Zm-5.466-.546a.488.488,0,0,1-.109-.012,17.7,17.7,0,0,1-3.749-1.274c-.156-.075-.309-.152-.461-.23a.61.61,0,0,1-.257-.781.519.519,0,0,1,.715-.281c.144.074.289.146.433.215a16.7,16.7,0,0,0,3.533,1.2.588.588,0,0,1,.421.692A.552.552,0,0,1,346.75,118.082Zm12.838-.355a.546.546,0,0,1-.517-.428.6.6,0,0,1,.372-.725,10.612,10.612,0,0,0,3.692-1.917.508.508,0,0,1,.753.115.625.625,0,0,1-.105.824,11.821,11.821,0,0,1-4.048,2.108A.486.486,0,0,1,359.588,117.727ZM335.843,115.4a.52.52,0,0,1-.418-.219.625.625,0,0,1,.082-.826c.639-.564,1.3-1.115,1.981-1.65a21.778,21.778,0,0,1-1.812-2.3.625.625,0,0,1,.109-.823.508.508,0,0,1,.753.118,20.347,20.347,0,0,0,1.844,2.316q.319-.24.644-.476a.512.512,0,0,1,.746.165.622.622,0,0,1-.152.814c-.144.106-.289.212-.431.317.069.067.139.133.209.2a.625.625,0,0,1,.065.827.506.506,0,0,1-.758.071c-.142-.132-.283-.267-.424-.4q-1.081.844-2.1,1.739A.5.5,0,0,1,335.843,115.4ZM366,112a.517.517,0,0,1-.18-.034.6.6,0,0,1-.327-.75,8.267,8.267,0,0,0,.4-2.509,6.9,6.9,0,0,0-.222-1.765.6.6,0,0,1,.365-.729.531.531,0,0,1,.667.4,8.1,8.1,0,0,1,.266,2.094,9.568,9.568,0,0,1-.461,2.9A.543.543,0,0,1,366,112Zm-22.989-1.811a.53.53,0,0,1-.471-.307.615.615,0,0,1,.213-.8c1.253-.749,2.565-1.461,3.9-2.116a.521.521,0,0,1,.711.295.61.61,0,0,1-.27.777c-1.31.644-2.6,1.342-3.825,2.076A.509.509,0,0,1,343.014,110.189Zm-9.142-3.567a.537.537,0,0,1-.484-.331,30.484,30.484,0,0,1-1.575-4.488.6.6,0,0,1,.367-.729.529.529,0,0,1,.667.4,29.045,29.045,0,0,0,1.509,4.3.612.612,0,0,1-.25.785A.5.5,0,0,1,333.872,106.621Zm17-.3a.543.543,0,0,1-.505-.387.6.6,0,0,1,.322-.753c1.347-.536,2.737-1.032,4.134-1.475a.534.534,0,0,1,.667.4.6.6,0,0,1-.367.729c-1.375.435-2.743.922-4.067,1.45A.511.511,0,0,1,350.869,106.321Zm12.542-2.331a.514.514,0,0,1-.2-.041,6.737,6.737,0,0,0-3.969-.221.549.549,0,0,1-.618-.483.584.584,0,0,1,.442-.676,7.666,7.666,0,0,1,4.539.286.607.607,0,0,1,.3.761A.542.542,0,0,1,363.411,103.989Zm-31.949-6.375a.557.557,0,0,1-.532-.516q-.047-.414-.083-.828c-.085-.974-.128-1.976-.128-2.975,0-.331,0-.66.014-.989a.556.556,0,0,1,.555-.568.568.568,0,0,1,.521.606c-.01.317-.013.635-.014.953,0,.96.042,1.924.124,2.864.022.266.049.53.079.794a.579.579,0,0,1-.468.654A.425.425,0,0,1,331.462,97.615Zm.255-9.384a.438.438,0,0,1-.095-.009.584.584,0,0,1-.436-.68,37.879,37.879,0,0,1,1.059-4.646.531.531,0,0,1,.677-.378.6.6,0,0,1,.347.739,36.429,36.429,0,0,0-1.024,4.49A.553.553,0,0,1,331.717,88.231Zm2.631-8.944a.489.489,0,0,1-.23-.058.612.612,0,0,1-.257-.783,39.385,39.385,0,0,1,2.124-4.182.511.511,0,0,1,.743-.179.622.622,0,0,1,.162.812,37.751,37.751,0,0,0-2.056,4.053A.539.539,0,0,1,334.348,79.286Zm4.636-7.917a.51.51,0,0,1-.344-.136.626.626,0,0,1-.069-.827,36.578,36.578,0,0,1,3.013-3.471.506.506,0,0,1,.759.031.625.625,0,0,1-.028.831,35.488,35.488,0,0,0-2.918,3.363A.52.52,0,0,1,338.984,71.369Zm6.311-6.386a.524.524,0,0,1-.439-.248.624.624,0,0,1,.128-.819,31.175,31.175,0,0,1,3.745-2.49.52.52,0,0,1,.725.253.617.617,0,0,1-.231.792,29.87,29.87,0,0,0-3.617,2.405A.5.5,0,0,1,345.295,64.982Z" transform="translate(-321.321 -61.361)" fill="#fff"/>
              </g>
              <g id="Grupo_98765" data-name="Grupo 98765" transform="translate(26.563 112.676)">
                <path id="Trazado_150483" data-name="Trazado 150483" d="M346.556,156.739a.557.557,0,0,1-.532-.505.581.581,0,0,1,.457-.664,17.285,17.285,0,0,0,2.047-.448.533.533,0,0,1,.656.421.594.594,0,0,1-.385.716,18.185,18.185,0,0,1-2.166.475A.586.586,0,0,1,346.556,156.739Z" transform="translate(-346.018 -155.102)" fill="#fff"/>
              </g>
            </g>
            <g id="Grupo_98767" data-name="Grupo 98767" transform="translate(433.186 164.662)">
              <path id="Trazado_150484" data-name="Trazado 150484" d="M698.438,292.147h-.033a22.986,22.986,0,0,1-4.341-.729.591.591,0,0,1-.394-.711.535.535,0,0,1,.65-.43,22.059,22.059,0,0,0,4.153.7.571.571,0,0,1,.5.623A.56.56,0,0,1,698.438,292.147Zm4.293-.139a.558.558,0,0,1-.532-.516.581.581,0,0,1,.468-.656,21.223,21.223,0,0,0,4.1-.986.531.531,0,0,1,.675.382.6.6,0,0,1-.349.738A22.26,22.26,0,0,1,702.8,292,.432.432,0,0,1,702.731,292.008Zm-12.607-2.087a.49.49,0,0,1-.216-.049,24.559,24.559,0,0,1-3.849-2.309.62.62,0,0,1-.147-.814.508.508,0,0,1,.745-.161,23.46,23.46,0,0,0,3.684,2.208.61.61,0,0,1,.276.774A.538.538,0,0,1,690.124,289.922Zm20.764-.739a.532.532,0,0,1-.475-.313.616.616,0,0,1,.225-.794,24.151,24.151,0,0,0,3.536-2.485.507.507,0,0,1,.754.1.625.625,0,0,1-.1.825,25.117,25.117,0,0,1-3.691,2.6A.5.5,0,0,1,710.889,289.182Zm-27.868-4.475a.508.508,0,0,1-.374-.167q-.436-.464-.846-.951a.629.629,0,0,1,.031-.832.511.511,0,0,1,.76.035c.26.309.529.612.8.9a.627.627,0,0,1,.011.831A.518.518,0,0,1,683.021,284.708Zm34.636-1.256a.507.507,0,0,1-.36-.153.626.626,0,0,1-.038-.83,24.5,24.5,0,0,0,2.517-3.666.516.516,0,0,1,.741-.194.624.624,0,0,1,.177.81,25.957,25.957,0,0,1-2.638,3.84A.518.518,0,0,1,717.656,283.452Zm4.433-7.983a.493.493,0,0,1-.177-.032.6.6,0,0,1-.331-.749,17.311,17.311,0,0,0,.825-4.426c.015-.324.22-.6.565-.557a.571.571,0,0,1,.51.617,18.577,18.577,0,0,1-.883,4.752A.543.543,0,0,1,722.09,275.468Zm-4.119-7.977a.55.55,0,0,1-.524-.456.591.591,0,0,1,.4-.7,12.652,12.652,0,0,0,2.519-.953q.573-.282,1.128-.6a10.765,10.765,0,0,0-1.667-2.743.625.625,0,0,1,.03-.83.5.5,0,0,1,.759.033,12.207,12.207,0,0,1,2.286,4.229.6.6,0,0,1-.336.745.525.525,0,0,1-.672-.338q-.534.3-1.085.576a13.783,13.783,0,0,1-2.722,1.027A.527.527,0,0,1,717.97,267.491Zm-4.233-.183a.5.5,0,0,1-.195-.04c-.072-.031-.145-.063-.216-.1a5.557,5.557,0,0,1-2.842-3.712.592.592,0,0,1,.384-.717.528.528,0,0,1,.655.421,4.448,4.448,0,0,0,2.235,2.933l.173.078a.606.606,0,0,1,.307.76A.54.54,0,0,1,713.737,267.308Zm11.788-4.156a.521.521,0,0,1-.417-.216.628.628,0,0,1,.076-.827,25.279,25.279,0,0,0,3.014-3.2.505.505,0,0,1,.758-.06.625.625,0,0,1,.055.828,26.669,26.669,0,0,1-3.146,3.347A.511.511,0,0,1,725.525,263.152Zm-13.04-3.275a.531.531,0,0,1-.472-.307.614.614,0,0,1,.215-.8,5.277,5.277,0,0,1,3.828-.471,7.59,7.59,0,0,1,.776.224.6.6,0,0,1,.35.738.533.533,0,0,1-.675.383,6.11,6.11,0,0,0-.674-.2,4.284,4.284,0,0,0-3.089.353A.5.5,0,0,1,712.485,259.877Zm18.658-3.791a.5.5,0,0,1-.282-.087.617.617,0,0,1-.176-.807,31.27,31.27,0,0,0,1.922-4.1.519.519,0,0,1,.7-.314.608.608,0,0,1,.288.768,32.3,32.3,0,0,1-2,4.26A.525.525,0,0,1,731.143,256.086Zm3.311-8.637a.5.5,0,0,1-.129-.016.593.593,0,0,1-.394-.711c.167-.734.306-1.482.419-2.221.116-.764.208-1.545.273-2.324a.553.553,0,0,1,.585-.532.577.577,0,0,1,.486.639c-.068.807-.162,1.618-.284,2.41-.116.769-.264,1.545-.436,2.309A.549.549,0,0,1,734.453,247.449Zm.8-9.328a.56.56,0,0,1-.537-.56,40.363,40.363,0,0,0-.466-4.594.585.585,0,0,1,.437-.68.549.549,0,0,1,.623.478,41.268,41.268,0,0,1,.48,4.743.57.57,0,0,1-.512.615Zm-53.966-.9a.476.476,0,0,1-.12-.015.591.591,0,0,1-.4-.705,33.971,33.971,0,0,1,1.306-4.565.525.525,0,0,1,.7-.33.605.605,0,0,1,.3.763,32.9,32.9,0,0,0-1.257,4.4A.551.551,0,0,1,681.289,237.221Zm52.5-8.34a.546.546,0,0,1-.515-.42,45.139,45.139,0,0,0-1.432-4.362.61.61,0,0,1,.286-.77.526.526,0,0,1,.706.314,46.633,46.633,0,0,1,1.471,4.483.6.6,0,0,1-.362.73A.473.473,0,0,1,733.794,228.88Zm-49.356-.37a.5.5,0,0,1-.268-.078.618.618,0,0,1-.2-.8,36.272,36.272,0,0,1,2.423-3.972.509.509,0,0,1,.754-.109.625.625,0,0,1,.1.824,35.284,35.284,0,0,0-2.344,3.842A.528.528,0,0,1,684.438,228.51Zm5.215-7.442a.51.51,0,0,1-.379-.17.626.626,0,0,1,0-.831,36.567,36.567,0,0,1,3.263-3.168.508.508,0,0,1,.755.1.626.626,0,0,1-.091.825,35.582,35.582,0,0,0-3.164,3.072A.515.515,0,0,1,689.653,221.068Zm40.814-.837a.533.533,0,0,1-.472-.306q-.352-.7-.726-1.382a27.722,27.722,0,0,0-1.528-2.517.624.624,0,0,1,.107-.823.507.507,0,0,1,.753.114,29.252,29.252,0,0,1,1.593,2.623q.384.7.745,1.419a.617.617,0,0,1-.213.8A.5.5,0,0,1,730.467,220.232Zm-34.061-4.953a.53.53,0,0,1-.46-.283.62.62,0,0,1,.182-.807,35,35,0,0,1,3.867-2.216.52.52,0,0,1,.711.3.609.609,0,0,1-.27.776,34.226,34.226,0,0,0-3.751,2.149A.5.5,0,0,1,696.406,215.279Zm28.705-2.29a.5.5,0,0,1-.3-.1,12.967,12.967,0,0,0-3.755-1.858.6.6,0,0,1-.364-.73.534.534,0,0,1,.668-.4,13.971,13.971,0,0,1,4.05,2.009.621.621,0,0,1,.146.815A.526.526,0,0,1,725.111,212.989Zm-20.872-1.546a.547.547,0,0,1-.515-.416.6.6,0,0,1,.357-.733,31.034,31.034,0,0,1,4.253-1.1.548.548,0,0,1,.619.484.584.584,0,0,1-.442.676,29.912,29.912,0,0,0-4.115,1.06A.488.488,0,0,1,704.239,211.442ZM717,210.129a.578.578,0,0,1-.065,0,26.736,26.736,0,0,0-4.216-.213.546.546,0,0,1-.552-.572.568.568,0,0,1,.524-.6,28.03,28.03,0,0,1,4.372.221.577.577,0,0,1,.469.653A.556.556,0,0,1,717,210.129Z" transform="translate(-680.751 -208.727)" fill="#fff"/>
            </g>
            <g id="Grupo_98768" data-name="Grupo 98768" transform="translate(50.352 321.247)">
              <path id="Trazado_150485" data-name="Trazado 150485" d="M295.648,370.627a15.646,15.646,0,0,1-1.753-.1c-.145-.014-.293-.033-.442-.053a.582.582,0,0,1-.467-.657.546.546,0,0,1,.6-.51c.137.019.274.038.413.051a15.275,15.275,0,0,0,3.744-.053.553.553,0,0,1,.6.511.58.58,0,0,1-.468.656A16.579,16.579,0,0,1,295.648,370.627Zm6.333-1.266a.542.542,0,0,1-.5-.383.6.6,0,0,1,.317-.754,18.744,18.744,0,0,0,3.736-2.04.513.513,0,0,1,.744.177.621.621,0,0,1-.162.812,19.83,19.83,0,0,1-3.944,2.151A.485.485,0,0,1,301.981,369.361Zm-12.614-.053a.486.486,0,0,1-.2-.04,18.933,18.933,0,0,1-3.9-2.263.618.618,0,0,1-.14-.815.51.51,0,0,1,.746-.153,18.015,18.015,0,0,0,3.685,2.137.605.605,0,0,1,.3.761A.541.541,0,0,1,289.367,369.308Zm-16.52-2.184a.548.548,0,0,1-.062,0,17.337,17.337,0,0,1-4.3-1.121.607.607,0,0,1-.319-.756.53.53,0,0,1,.692-.348,16.285,16.285,0,0,0,4.049,1.056.578.578,0,0,1,.474.651A.558.558,0,0,1,272.847,367.124Zm4.286-.075a.555.555,0,0,1-.53-.5.581.581,0,0,1,.451-.67,13.092,13.092,0,0,0,3.771-1.23l.174-.09a.518.518,0,0,1,.718.274.614.614,0,0,1-.251.785l-.189.1a14.042,14.042,0,0,1-4.062,1.327A.472.472,0,0,1,277.133,367.049Zm32.03-2.73a.516.516,0,0,1-.379-.17.628.628,0,0,1,0-.831,19.464,19.464,0,0,0,2.58-3.576.514.514,0,0,1,.741-.194.621.621,0,0,1,.176.808,20.683,20.683,0,0,1-2.735,3.79A.515.515,0,0,1,309.162,364.319Zm-26.847-.263a.517.517,0,0,1-.391-.186,21.954,21.954,0,0,1-2.653-3.851.617.617,0,0,1,.188-.8.512.512,0,0,1,.737.2,20.725,20.725,0,0,0,2.513,3.645.627.627,0,0,1-.024.831A.509.509,0,0,1,282.316,364.056Zm-17.477-.136a.5.5,0,0,1-.3-.1,18.627,18.627,0,0,1-3.369-3.133.629.629,0,0,1,.033-.831.508.508,0,0,1,.761.038,17.481,17.481,0,0,0,3.169,2.946.624.624,0,0,1,.151.815A.527.527,0,0,1,264.839,363.92Zm19.888-.948a.515.515,0,0,1-.385-.177.627.627,0,0,1,.009-.831,15.475,15.475,0,0,0,2.5-3.6.516.516,0,0,1,.731-.229.616.616,0,0,1,.21.8A16.693,16.693,0,0,1,285.1,362.8.511.511,0,0,1,284.727,362.971Zm-25.679-5.886a.534.534,0,0,1-.468-.3,25.135,25.135,0,0,1-1.781-4.4.6.6,0,0,1,.342-.741.527.527,0,0,1,.679.374,23.872,23.872,0,0,0,1.7,4.183.619.619,0,0,1-.2.8A.505.505,0,0,1,259.048,357.086Zm18.938-1.06a.544.544,0,0,1-.513-.415,20.754,20.754,0,0,1-.62-3.027c-.074-.595-.122-1.18-.141-1.741a.572.572,0,0,1,.518-.61.539.539,0,0,1,.557.565c.017.524.061,1.072.131,1.625a19.553,19.553,0,0,0,.581,2.841.6.6,0,0,1-.355.734A.472.472,0,0,1,277.987,356.026Zm10.847-1.168a.48.48,0,0,1-.114-.014.589.589,0,0,1-.411-.7,15.5,15.5,0,0,0,.3-2.994,14.052,14.052,0,0,0-.077-1.484.58.58,0,0,1,.472-.652.557.557,0,0,1,.6.516,15.5,15.5,0,0,1,.084,1.622,16.633,16.633,0,0,1-.326,3.243A.551.551,0,0,1,288.834,354.858Zm-32.486-6.637a.555.555,0,0,1-.531-.508,30.333,30.333,0,0,1-.234-3.775c0-.338.005-.678.016-1.016a.6.6,0,0,1,.556-.566.571.571,0,0,1,.519.609q-.016.486-.016.974a29.242,29.242,0,0,0,.224,3.617.578.578,0,0,1-.46.66A.517.517,0,0,1,256.348,348.221Zm21.545-1.428a.47.47,0,0,1-.2-.041.6.6,0,0,1-.3-.761,8.9,8.9,0,0,1,.873-1.784,6.864,6.864,0,0,1,2.051-2.053.513.513,0,0,1,.737.208.619.619,0,0,1-.19.8,5.757,5.757,0,0,0-1.718,1.716,7.706,7.706,0,0,0-.753,1.54A.54.54,0,0,1,277.893,346.793Zm9.9-1.068a.534.534,0,0,1-.472-.308,5.835,5.835,0,0,0-2.226-2.609,3.473,3.473,0,0,0-.535-.241.6.6,0,0,1-.346-.739.528.528,0,0,1,.677-.38,4.5,4.5,0,0,1,.694.313,6.93,6.93,0,0,1,2.682,3.1.616.616,0,0,1-.216.8A.507.507,0,0,1,287.792,345.725Zm-30.6-7.363-.534-.079-.522-.142a33.782,33.782,0,0,1,1.218-4.572.528.528,0,0,1,.692-.345.605.605,0,0,1,.316.757A32.55,32.55,0,0,0,257.188,338.362Zm2.449-8.274a.51.51,0,0,1-.256-.069.617.617,0,0,1-.218-.8,40.118,40.118,0,0,1,2.306-4.05.512.512,0,0,1,.75-.14.623.623,0,0,1,.128.819,38.793,38.793,0,0,0-2.236,3.929A.534.534,0,0,1,259.637,330.089Zm4.946-7.666a.506.506,0,0,1-.356-.148.625.625,0,0,1-.046-.828c.946-1.168,1.971-2.311,3.049-3.4a.506.506,0,0,1,.759.034.625.625,0,0,1-.03.83c-1.051,1.06-2.05,2.175-2.974,3.313A.515.515,0,0,1,264.583,322.423Z" transform="translate(-255.582 -317.893)" fill="#fff"/>
            </g>
          </g>
          <g id="Grupo_98809" data-name="Grupo 98809" transform="translate(1203.717 749.07) rotate(-180)">
            <g id="Grupo_98772" data-name="Grupo 98772" transform="translate(81.981 198.38)">
              <g id="Grupo_98770" data-name="Grupo 98770" transform="translate(0 4.725)">
                <path id="Trazado_150486" data-name="Trazado 150486" d="M343.707,220.258h-8.65a1.46,1.46,0,0,1,0-2.908h8.65a1.46,1.46,0,0,1,0,2.908Z" transform="translate(-333.727 -217.35)" fill="#fff"/>
              </g>
              <g id="Grupo_98771" data-name="Grupo 98771" transform="translate(4.324)">
                <path id="Trazado_150487" data-name="Trazado 150487" d="M339.077,225.687a1.4,1.4,0,0,1-1.33-1.455v-9.45a1.336,1.336,0,1,1,2.662,0v9.45A1.4,1.4,0,0,1,339.077,225.687Z" transform="translate(-337.747 -213.329)" fill="#fff"/>
              </g>
            </g>
            <g id="Grupo_98775" data-name="Grupo 98775" transform="translate(462.89 419.067)">
              <g id="Grupo_98773" data-name="Grupo 98773" transform="translate(0 4.725)">
                <path id="Trazado_150488" data-name="Trazado 150488" d="M343.707,220.258h-8.65a1.46,1.46,0,0,1,0-2.908h8.65a1.46,1.46,0,0,1,0,2.908Z" transform="translate(-333.727 -217.35)" fill="#fff"/>
              </g>
              <g id="Grupo_98774" data-name="Grupo 98774" transform="translate(4.324)">
                <path id="Trazado_150489" data-name="Trazado 150489" d="M339.077,225.687a1.4,1.4,0,0,1-1.33-1.455v-9.45a1.336,1.336,0,1,1,2.662,0v9.45A1.4,1.4,0,0,1,339.077,225.687Z" transform="translate(-337.747 -213.329)" fill="#fff"/>
              </g>
            </g>
            <g id="Grupo_98778" data-name="Grupo 98778" transform="translate(482.571 63.205)">
              <g id="Grupo_98776" data-name="Grupo 98776" transform="translate(0 4.725)">
                <path id="Trazado_150490" data-name="Trazado 150490" d="M716.159,105.22h-8.65a1.46,1.46,0,0,1,0-2.908h8.65a1.46,1.46,0,0,1,0,2.908Z" transform="translate(-706.179 -102.312)" fill="#fff"/>
              </g>
              <g id="Grupo_98777" data-name="Grupo 98777" transform="translate(4.325)">
                <path id="Trazado_150491" data-name="Trazado 150491" d="M711.531,110.649a1.4,1.4,0,0,1-1.33-1.454V99.745a1.336,1.336,0,1,1,2.662,0V109.2A1.4,1.4,0,0,1,711.531,110.649Z" transform="translate(-710.2 -98.291)" fill="#fff"/>
              </g>
            </g>
            <g id="Grupo_98781" data-name="Grupo 98781" transform="translate(150.579 60.492)">
              <g id="Grupo_98779" data-name="Grupo 98779" transform="translate(0 5.6)">
                <path id="Trazado_150492" data-name="Trazado 150492" d="M408.68,102.762H398.427a1.011,1.011,0,0,1,0-2.014H408.68a1.011,1.011,0,0,1,0,2.014Z" transform="translate(-397.506 -100.748)" fill="#fff"/>
              </g>
              <g id="Grupo_98780" data-name="Grupo 98780" transform="translate(5.126)">
                <path id="Trazado_150493" data-name="Trazado 150493" d="M403.194,109.2a.967.967,0,0,1-.922-1.007v-11.2a.925.925,0,1,1,1.842,0v11.2A.966.966,0,0,1,403.194,109.2Z" transform="translate(-402.272 -95.982)" fill="#fff"/>
              </g>
            </g>
            <g id="Grupo_98784" data-name="Grupo 98784" transform="translate(0 270.849)">
              <g id="Grupo_98782" data-name="Grupo 98782" transform="translate(0 5.6)">
                <path id="Trazado_150494" data-name="Trazado 150494" d="M268.678,281.78H258.425a1.01,1.01,0,0,1,0-2.012h10.253a1.01,1.01,0,0,1,0,2.012Z" transform="translate(-257.504 -279.768)" fill="#fff"/>
              </g>
              <g id="Grupo_98783" data-name="Grupo 98783" transform="translate(5.126)">
                <path id="Trazado_150495" data-name="Trazado 150495" d="M263.191,288.214a.965.965,0,0,1-.921-1.006v-11.2a.924.924,0,1,1,1.841,0v11.2A.965.965,0,0,1,263.191,288.214Z" transform="translate(-262.27 -275.002)" fill="#fff"/>
              </g>
            </g>
            <g id="Grupo_98787" data-name="Grupo 98787" transform="translate(239.662 31.363)" opacity="0.3">
              <g id="Grupo_98785" data-name="Grupo 98785" transform="translate(0 4.725)">
                <path id="Trazado_150496" data-name="Trazado 150496" d="M499.61,84.63h-8.65a1.46,1.46,0,0,1,0-2.908h8.65a1.46,1.46,0,0,1,0,2.908Z" transform="translate(-489.63 -81.722)" fill="#fff"/>
              </g>
              <g id="Grupo_98786" data-name="Grupo 98786" transform="translate(4.324)">
                <path id="Trazado_150497" data-name="Trazado 150497" d="M494.981,90.059A1.4,1.4,0,0,1,493.65,88.6v-9.45a1.336,1.336,0,1,1,2.662,0V88.6A1.4,1.4,0,0,1,494.981,90.059Z" transform="translate(-493.65 -77.701)" fill="#fff"/>
              </g>
            </g>
            <g id="Grupo_98790" data-name="Grupo 98790" transform="translate(131.85 246.992)">
              <g id="Grupo_98788" data-name="Grupo 98788" transform="translate(0 3.329)">
                <path id="Trazado_150498" data-name="Trazado 150498" d="M433.613,240.055h-6.094a1.028,1.028,0,0,1,0-2.048h6.094a1.028,1.028,0,0,1,0,2.048Z" transform="translate(-426.581 -238.007)" fill="#fff"/>
              </g>
              <g id="Grupo_98789" data-name="Grupo 98789" transform="translate(3.047)">
                <path id="Trazado_150499" data-name="Trazado 150499" d="M430.352,243.88a.984.984,0,0,1-.938-1.023V236.2a.941.941,0,1,1,1.876,0v6.659A.983.983,0,0,1,430.352,243.88Z" transform="translate(-429.414 -235.174)" fill="#fff"/>
              </g>
            </g>
            <g id="Grupo_98793" data-name="Grupo 98793" transform="translate(334.831 0.318)" opacity="0.3">
              <g id="Grupo_98791" data-name="Grupo 98791" transform="translate(0 2.363)">
                <path id="Trazado_150500" data-name="Trazado 150500" d="M573.808,48.237h-4.325a.729.729,0,0,1,0-1.454h4.325a.73.73,0,0,1,0,1.454Z" transform="translate(-568.816 -46.783)" fill="#fff"/>
              </g>
              <g id="Grupo_98792" data-name="Grupo 98792" transform="translate(2.163)">
                <path id="Trazado_150501" data-name="Trazado 150501" d="M571.493,50.952a.7.7,0,0,1-.666-.727V45.5a.668.668,0,1,1,1.331,0v4.725A.7.7,0,0,1,571.493,50.952Z" transform="translate(-570.827 -44.772)" fill="#fff"/>
              </g>
            </g>
            <g id="Grupo_98794" data-name="Grupo 98794" transform="translate(192.38 21.898)">
              <path id="Trazado_150502" data-name="Trazado 150502" d="M451.821,83.087a6.747,6.747,0,1,1,6.15-6.72A6.461,6.461,0,0,1,451.821,83.087Zm0-10.958a4.255,4.255,0,1,0,3.879,4.238A4.076,4.076,0,0,0,451.821,72.129Z" transform="translate(-445.669 -69.646)" fill="#fff"/>
            </g>
            <g id="Grupo_98795" data-name="Grupo 98795" transform="translate(468.048 194.639)">
              <path id="Trazado_150503" data-name="Trazado 150503" d="M716.24,240.959a3.373,3.373,0,1,1,3.076-3.359A3.231,3.231,0,0,1,716.24,240.959Zm0-5.479a2.128,2.128,0,1,0,1.939,2.12A2.037,2.037,0,0,0,716.24,235.48Z" transform="translate(-713.164 -234.239)" fill="#fff"/>
            </g>
            <g id="Grupo_98796" data-name="Grupo 98796" transform="translate(291.921)">
              <path id="Trazado_150504" data-name="Trazado 150504" d="M530.423,112.8a6.747,6.747,0,1,1,6.152-6.72A6.463,6.463,0,0,1,530.423,112.8Zm0-10.96a4.255,4.255,0,1,0,3.882,4.24A4.076,4.076,0,0,0,530.423,101.845Z" transform="translate(-524.272 -99.363)" fill="#fff"/>
            </g>
            <g id="Grupo_98797" data-name="Grupo 98797" transform="translate(21.676 356.446)">
              <path id="Trazado_150505" data-name="Trazado 150505" d="M235.071,361.288a6.746,6.746,0,1,1,6.152-6.721A6.461,6.461,0,0,1,235.071,361.288Zm0-10.96a4.256,4.256,0,1,0,3.881,4.238A4.075,4.075,0,0,0,235.071,350.329Z" transform="translate(-228.92 -347.848)" fill="#fff"/>
            </g>
            <g id="Grupo_98798" data-name="Grupo 98798" transform="translate(524.676 471.16)">
              <path id="Trazado_150506" data-name="Trazado 150506" d="M235.071,361.288a6.746,6.746,0,1,1,6.152-6.721A6.461,6.461,0,0,1,235.071,361.288Zm0-10.96a4.256,4.256,0,1,0,3.881,4.238A4.075,4.075,0,0,0,235.071,350.329Z" transform="translate(-228.92 -347.848)" fill="#fff"/>
            </g>
            <g id="Grupo_98799" data-name="Grupo 98799" transform="translate(21.819 80.813)">
              <path id="Trazado_150507" data-name="Trazado 150507" d="M283.55,125.86a6.316,6.316,0,1,1,5.758-6.292A6.05,6.05,0,0,1,283.55,125.86Zm0-11.955a5.685,5.685,0,1,0,5.183,5.663A5.445,5.445,0,0,0,283.55,113.9Z" transform="translate(-277.79 -113.276)" fill="#fff"/>
            </g>
            <g id="Grupo_98800" data-name="Grupo 98800" transform="translate(501.196 159.966)">
              <path id="Trazado_150508" data-name="Trazado 150508" d="M727.793,190.028a4.713,4.713,0,1,1,4.3-4.7A4.515,4.515,0,0,1,727.793,190.028Zm0-8.664a3.984,3.984,0,1,0,3.632,3.968A3.816,3.816,0,0,0,727.793,181.364Z" transform="translate(-723.496 -180.638)" fill="#fff"/>
            </g>
            <g id="Grupo_98801" data-name="Grupo 98801" transform="translate(64.403 148.5)">
              <path id="Trazado_150509" data-name="Trazado 150509" d="M321.681,180.27a4.713,4.713,0,1,1,4.3-4.7A4.515,4.515,0,0,1,321.681,180.27Zm0-8.662a3.983,3.983,0,1,0,3.631,3.967A3.815,3.815,0,0,0,321.681,171.607Z" transform="translate(-317.383 -170.88)" fill="#fff"/>
            </g>
            <g id="Grupo_98802" data-name="Grupo 98802" transform="translate(340.162 10.576)">
              <path id="Trazado_150510" data-name="Trazado 150510" d="M668.483,125.6a.5.5,0,0,1-.187-.036,17.423,17.423,0,0,1-1.67-.785.614.614,0,0,1-.246-.786.521.521,0,0,1,.721-.269,16.255,16.255,0,0,0,1.57.738.6.6,0,0,1,.317.756A.543.543,0,0,1,668.483,125.6ZM663.26,122.3a.51.51,0,0,1-.342-.133,21.352,21.352,0,0,1-3.077-3.452.623.623,0,0,1,.092-.825.508.508,0,0,1,.754.1,20.284,20.284,0,0,0,2.914,3.268.624.624,0,0,1,.073.827A.516.516,0,0,1,663.26,122.3Zm-15.489-2.943-.046,0a11.175,11.175,0,0,1-4.043-1.142l-.275-.145a.615.615,0,0,1-.244-.787.521.521,0,0,1,.721-.267l.254.134a10.15,10.15,0,0,0,3.678,1.035.573.573,0,0,1,.49.635A.559.559,0,0,1,647.771,119.352Zm4.277-.315a.551.551,0,0,1-.526-.469.588.588,0,0,1,.418-.693,18.365,18.365,0,0,0,3.975-1.41.523.523,0,0,1,.71.3.611.611,0,0,1-.273.776,19.389,19.389,0,0,1-4.2,1.485A.488.488,0,0,1,652.048,119.037Zm-11.8-3.75a.518.518,0,0,1-.4-.19,18.32,18.32,0,0,1-2.508-3.994.613.613,0,0,1,.232-.791.517.517,0,0,1,.724.254,17.2,17.2,0,0,0,2.344,3.735.626.626,0,0,1-.032.831A.512.512,0,0,1,640.247,115.287Zm19.592-.066a.523.523,0,0,1-.43-.235.625.625,0,0,1,.108-.823,17.966,17.966,0,0,0,3.015-3.137.509.509,0,0,1,.757-.083.627.627,0,0,1,.076.827,19.077,19.077,0,0,1-3.2,3.334A.511.511,0,0,1,659.839,115.221Zm-1.842-.27a.535.535,0,0,1-.484-.333,22.766,22.766,0,0,1-1.457-4.552.59.59,0,0,1,.406-.7.535.535,0,0,1,.643.443,21.664,21.664,0,0,0,1.377,4.3.611.611,0,0,1-.251.784A.494.494,0,0,1,658,114.951Zm7.131-7a.508.508,0,0,1-.193-.039.606.606,0,0,1-.31-.759,11.066,11.066,0,0,0,.644-3.66q0-.345-.025-.692a.573.573,0,0,1,.5-.629.553.553,0,0,1,.577.542c.018.26.027.521.027.779a12.345,12.345,0,0,1-.715,4.08A.54.54,0,0,1,665.128,107.956Zm-42.69-.106a16.193,16.193,0,0,1-2-.122.577.577,0,0,1-.473-.65.548.548,0,0,1,.595-.517,16.423,16.423,0,0,0,4.167-.041.554.554,0,0,1,.6.513.578.578,0,0,1-.468.653A18.53,18.53,0,0,1,622.438,107.85Zm13.819-.8a.546.546,0,0,1-.517-.429l-.14-.56a34.749,34.749,0,0,1-.726-4.127.579.579,0,0,1,.467-.656.556.556,0,0,1,.6.51,33.733,33.733,0,0,0,.7,3.975l.135.541a.6.6,0,0,1-.372.725A.53.53,0,0,1,636.257,107.05Zm-7.27-.363a.543.543,0,0,1-.512-.411.6.6,0,0,1,.351-.737,24.772,24.772,0,0,0,3.9-1.738.516.516,0,0,1,.723.259.614.614,0,0,1-.238.79,25.672,25.672,0,0,1-4.06,1.811A.522.522,0,0,1,628.987,106.687Zm-12.628-.166a.507.507,0,0,1-.219-.051,12.563,12.563,0,0,1-3.048-2.1q-.336-.314-.645-.646a.626.626,0,0,1-.005-.831.507.507,0,0,1,.76-.007c.188.2.385.4.588.59a11.461,11.461,0,0,0,2.789,1.925.609.609,0,0,1,.271.776A.536.536,0,0,1,616.359,106.521Zm39.787-.66h-.015a.569.569,0,0,1-.523-.605,12.21,12.21,0,0,1,1-4.8.518.518,0,0,1,.724-.257.614.614,0,0,1,.237.79,10.918,10.918,0,0,0-.887,4.3A.562.562,0,0,1,656.146,105.861ZM636.658,102.5a.525.525,0,0,1-.443-.255.621.621,0,0,1,.14-.817A37.051,37.051,0,0,0,639.7,98.6a.509.509,0,0,1,.759.055.626.626,0,0,1-.052.83,37.949,37.949,0,0,1-3.448,2.92A.5.5,0,0,1,636.658,102.5Zm-26.336-2.409a.532.532,0,0,1-.481-.325,20.25,20.25,0,0,1-1.427-4.579.588.588,0,0,1,.416-.694.542.542,0,0,1,.637.454,18.979,18.979,0,0,0,1.336,4.3.614.614,0,0,1-.24.788A.5.5,0,0,1,610.322,100.094Zm-24.031-.3-.316,0a.59.59,0,0,1,.012-1.175H586l.289,0a18.106,18.106,0,0,0,3.867-.454.542.542,0,0,1,.632.461.587.587,0,0,1-.423.691A19.062,19.062,0,0,1,586.291,99.789Zm77.965-.729a.514.514,0,0,1-.371-.162,2.935,2.935,0,0,0-2.164-.88h0a4.047,4.047,0,0,0-1.334.234.531.531,0,0,1-.677-.38.6.6,0,0,1,.349-.739,5.021,5.021,0,0,1,1.662-.29h0a3.925,3.925,0,0,1,2.906,1.2.627.627,0,0,1,.017.831A.515.515,0,0,1,664.257,99.061Zm-82.478-.127a.5.5,0,0,1-.195-.04c-.169-.072-.337-.147-.5-.228a11.1,11.1,0,0,1-3.261-2.438.627.627,0,0,1-.009-.831.507.507,0,0,1,.76-.009,10.05,10.05,0,0,0,2.946,2.2c.151.073.3.142.456.207a.606.606,0,0,1,.309.759A.544.544,0,0,1,581.778,98.934Zm12.637-.817a.547.547,0,0,1-.513-.409.6.6,0,0,1,.35-.739c1.343-.466,2.7-.989,4.027-1.551a.524.524,0,0,1,.695.336.6.6,0,0,1-.307.76c-1.349.57-2.723,1.1-4.089,1.575A.493.493,0,0,1,594.415,98.117Zm40.771-.36h-.011a.567.567,0,0,1-.527-.6,36.4,36.4,0,0,1,.4-4.76.543.543,0,0,1,.617-.484.583.583,0,0,1,.443.674,35.547,35.547,0,0,0-.387,4.593A.563.563,0,0,1,635.186,97.758Zm7.94-1.423a.511.511,0,0,1-.361-.153.625.625,0,0,1-.037-.83,39.963,39.963,0,0,0,2.662-3.6.509.509,0,0,1,.751-.136.624.624,0,0,1,.124.82,40.852,40.852,0,0,1-2.74,3.707A.516.516,0,0,1,643.125,96.335Zm-40.692-1.613a.536.536,0,0,1-.488-.342.613.613,0,0,1,.263-.78c1.282-.644,2.568-1.343,3.823-2.076a.514.514,0,0,1,.727.241.616.616,0,0,1-.219.8c-1.273.745-2.579,1.454-3.881,2.108A.5.5,0,0,1,602.433,94.721ZM575.7,92.595a.537.537,0,0,1-.483-.328,17.3,17.3,0,0,1-1.347-4.632.583.583,0,0,1,.447-.671.546.546,0,0,1,.616.488,15.967,15.967,0,0,0,1.248,4.295.615.615,0,0,1-.244.787A.5.5,0,0,1,575.7,92.595Zm32.77-1.6a.564.564,0,0,1-.538-.573q-.008-.365-.008-.73a38.472,38.472,0,0,1,.222-4.045.548.548,0,0,1,.6-.515.578.578,0,0,1,.473.651A36.763,36.763,0,0,0,609,89.688q0,.351.008.7a.568.568,0,0,1-.525.6Zm1.547-.705a.529.529,0,0,1-.458-.28.62.62,0,0,1,.176-.808c1.206-.811,2.4-1.673,3.565-2.564a.511.511,0,0,1,.75.143.623.623,0,0,1-.131.819c-1.178.9-2.4,1.779-3.621,2.6A.5.5,0,0,1,610.014,90.286Zm38.107-1.579a.5.5,0,0,1-.259-.073.616.616,0,0,1-.212-.8c.435-.862.841-1.747,1.209-2.632.213-.513.4-1.029.556-1.533a.528.528,0,0,1,.68-.369.6.6,0,0,1,.339.744c-.167.542-.367,1.1-.6,1.645-.378.911-.8,1.824-1.245,2.712A.533.533,0,0,1,648.12,88.706Zm-11.543-.193a.48.48,0,0,1-.161-.027.6.6,0,0,1-.352-.738,34.908,34.908,0,0,1,1.617-4.443.519.519,0,0,1,.72-.273.614.614,0,0,1,.25.785,33.278,33.278,0,0,0-1.56,4.284A.545.545,0,0,1,636.577,88.514Zm-19.525-3.626a.524.524,0,0,1-.422-.222.624.624,0,0,1,.086-.825c1.113-.969,2.21-1.983,3.258-3.014a.507.507,0,0,1,.761.043.627.627,0,0,1-.041.83c-1.065,1.047-2.178,2.076-3.308,3.06A.509.509,0,0,1,617.052,84.887Zm-42.74-1.443a.447.447,0,0,1-.056,0,.576.576,0,0,1-.48-.645,25.788,25.788,0,0,1,.916-4.706.529.529,0,0,1,.675-.382.6.6,0,0,1,.35.737,24.463,24.463,0,0,0-.871,4.473A.558.558,0,0,1,574.312,83.445Zm35.117-1.771a.5.5,0,0,1-.124-.016.592.592,0,0,1-.4-.707,43.506,43.506,0,0,1,1.254-4.569.528.528,0,0,1,.689-.35.6.6,0,0,1,.32.753,42.465,42.465,0,0,0-1.218,4.437A.551.551,0,0,1,609.428,81.674ZM640.343,80.1a.5.5,0,0,1-.317-.113.624.624,0,0,1-.116-.821,10.216,10.216,0,0,1,3.327-3.322.517.517,0,0,1,.726.247.615.615,0,0,1-.226.793,9.176,9.176,0,0,0-2.96,2.975A.522.522,0,0,1,640.343,80.1Zm10.026-.281a.551.551,0,0,1-.525-.469,4.048,4.048,0,0,0-.935-1.975,3.33,3.33,0,0,0-1.414-.931.6.6,0,0,1-.349-.738.529.529,0,0,1,.675-.382,4.381,4.381,0,0,1,1.859,1.23,5.21,5.21,0,0,1,1.216,2.558.587.587,0,0,1-.416.694A.507.507,0,0,1,650.369,79.822ZM623.442,78.6a.51.51,0,0,1-.376-.169.625.625,0,0,1-.006-.831c.995-1.107,1.97-2.26,2.9-3.424a.506.506,0,0,1,.759-.059.626.626,0,0,1,.054.828c-.94,1.184-1.931,2.354-2.942,3.478A.515.515,0,0,1,623.442,78.6Zm-46.611-4.092a.5.5,0,0,1-.24-.062.615.615,0,0,1-.241-.788q.19-.416.391-.825a37.606,37.606,0,0,1,1.817-3.295.51.51,0,0,1,.745-.159.62.62,0,0,1,.145.815c-.637,1.032-1.229,2.106-1.759,3.191q-.194.4-.379.8A.533.533,0,0,1,576.831,74.509ZM612.4,72.875a.49.49,0,0,1-.251-.068.615.615,0,0,1-.225-.793,29.939,29.939,0,0,1,2.347-4.046.509.509,0,0,1,.754-.114.625.625,0,0,1,.1.824,28.6,28.6,0,0,0-2.252,3.885A.533.533,0,0,1,612.4,72.875Zm16.587-1.439a.494.494,0,0,1-.284-.089.618.618,0,0,1-.172-.808,10.132,10.132,0,0,0,1.282-3.433,6.259,6.259,0,0,0,.069-.67.562.562,0,0,1,.567-.553.569.569,0,0,1,.507.619,7.19,7.19,0,0,1-.084.806,11.343,11.343,0,0,1-1.428,3.853A.528.528,0,0,1,628.99,71.436Zm-47.365-4.7a.51.51,0,0,1-.354-.146.626.626,0,0,1-.052-.828,37.944,37.944,0,0,1,3.069-3.394.506.506,0,0,1,.759.046.629.629,0,0,1-.041.831,36.32,36.32,0,0,0-2.976,3.29A.52.52,0,0,1,581.626,66.734Zm35.994-1.263a.518.518,0,0,1-.4-.2.625.625,0,0,1,.05-.83,18.135,18.135,0,0,1,3.652-2.721.52.52,0,0,1,.724.255.616.616,0,0,1-.233.792,16.979,16.979,0,0,0-3.434,2.559A.511.511,0,0,1,617.62,65.471Zm11.511-2.78a.521.521,0,0,1-.4-.2,3.307,3.307,0,0,0-1.314-1,4.1,4.1,0,0,0-2.126-.188.55.55,0,0,1-.607-.5.581.581,0,0,1,.459-.663,5.081,5.081,0,0,1,2.65.251,4.405,4.405,0,0,1,1.742,1.32.626.626,0,0,1-.045.83A.509.509,0,0,1,629.13,62.691Zm-41.114-2.217a.528.528,0,0,1-.442-.251.623.623,0,0,1,.133-.818,35.988,35.988,0,0,1,3.72-2.492.517.517,0,0,1,.728.243.616.616,0,0,1-.221.794,34.905,34.905,0,0,0-3.611,2.417A.5.5,0,0,1,588.016,60.474Zm7.578-4.4a.54.54,0,0,1-.5-.377.605.605,0,0,1,.31-.759,32.121,32.121,0,0,1,4.172-1.415.534.534,0,0,1,.648.432.59.59,0,0,1-.4.709,31.156,31.156,0,0,0-4.04,1.372A.5.5,0,0,1,595.595,56.071Z" transform="translate(-573.773 -53.502)" fill="#fff"/>
            </g>
            <g id="Grupo_98806" data-name="Grupo 98806" transform="translate(68.638 17.285)">
              <g id="Grupo_98803" data-name="Grupo 98803" transform="translate(31.08)">
                <path id="Trazado_150511" data-name="Trazado 150511" d="M350.757,61.063a.545.545,0,0,1-.51-.4.6.6,0,0,1,.337-.746c.693-.258,1.4-.49,2.1-.687a.532.532,0,0,1,.655.422.6.6,0,0,1-.386.716c-.673.19-1.354.412-2.022.662A.474.474,0,0,1,350.757,61.063Z" transform="translate(-350.218 -59.212)" fill="#fff"/>
              </g>
              <g id="Grupo_98804" data-name="Grupo 98804" transform="translate(0 2.526)">
                <path id="Trazado_150512" data-name="Trazado 150512" d="M344.026,173.277h-.045a20.607,20.607,0,0,1-4.339-.881.6.6,0,0,1-.367-.729.532.532,0,0,1,.667-.4,19.521,19.521,0,0,0,4.127.839.575.575,0,0,1,.492.633A.56.56,0,0,1,344.026,173.277Zm-8.243-2.578a.5.5,0,0,1-.241-.062,25.619,25.619,0,0,1-3.753-2.51.624.624,0,0,1-.116-.821.511.511,0,0,1,.753-.125,24.518,24.518,0,0,0,3.6,2.4.615.615,0,0,1,.241.788A.535.535,0,0,1,335.783,170.7Zm-6.922-5.552a.515.515,0,0,1-.386-.179,27.653,27.653,0,0,1-2.78-3.726.621.621,0,0,1,.142-.817.512.512,0,0,1,.746.156,26.42,26.42,0,0,0,2.664,3.567.627.627,0,0,1-.012.831A.511.511,0,0,1,328.861,165.147Zm-4.811-7.761a.539.539,0,0,1-.492-.35c-.095-.233-.184-.466-.27-.7a30.873,30.873,0,0,1-1.139-3.854.59.59,0,0,1,.393-.711.537.537,0,0,1,.652.429,29.574,29.574,0,0,0,1.093,3.7q.123.335.255.664a.609.609,0,0,1-.273.776A.5.5,0,0,1,324.05,157.386Zm-2.082-9.1a.558.558,0,0,1-.535-.537c-.074-.926-.112-1.877-.112-2.826q0-.982.053-1.966a.555.555,0,0,1,.568-.552.571.571,0,0,1,.505.62c-.033.632-.052,1.266-.051,1.9,0,.917.035,1.833.108,2.726a.575.575,0,0,1-.489.636Zm.485-9.378a.458.458,0,0,1-.1-.012.587.587,0,0,1-.425-.689,41.016,41.016,0,0,1,1.109-4.627.526.526,0,0,1,.679-.374.6.6,0,0,1,.342.741,39.764,39.764,0,0,0-1.073,4.484A.553.553,0,0,1,322.452,138.9Zm2.689-8.93a.5.5,0,0,1-.229-.055.612.612,0,0,1-.257-.783,40.482,40.482,0,0,1,2.1-4.191.512.512,0,0,1,.741-.186.621.621,0,0,1,.169.811,39.732,39.732,0,0,0-2.039,4.068A.535.535,0,0,1,325.141,129.974Zm4.584-7.954a.511.511,0,0,1-.34-.132.624.624,0,0,1-.077-.827,43.532,43.532,0,0,1,2.938-3.531.509.509,0,0,1,.762,0,.629.629,0,0,1,0,.832,42.072,42.072,0,0,0-2.862,3.437A.52.52,0,0,1,329.725,122.02Zm22.491-3.392q-.6,0-1.206-.022a.589.589,0,0,1,.038-1.174c1.076.039,2.156.021,3.229-.036q.507-.026,1.022-.07a.589.589,0,0,1,.082,1.172c-.352.031-.7.054-1.051.073C353.627,118.607,352.922,118.628,352.216,118.628Zm-5.466-.546a.488.488,0,0,1-.109-.012,17.7,17.7,0,0,1-3.749-1.274c-.156-.075-.309-.152-.461-.23a.61.61,0,0,1-.257-.781.519.519,0,0,1,.715-.281c.144.074.289.146.433.215a16.7,16.7,0,0,0,3.533,1.2.588.588,0,0,1,.421.692A.552.552,0,0,1,346.75,118.082Zm12.838-.355a.546.546,0,0,1-.517-.428.6.6,0,0,1,.372-.725,10.612,10.612,0,0,0,3.692-1.917.508.508,0,0,1,.753.115.625.625,0,0,1-.105.824,11.821,11.821,0,0,1-4.048,2.108A.486.486,0,0,1,359.588,117.727ZM335.843,115.4a.52.52,0,0,1-.418-.219.625.625,0,0,1,.082-.826c.639-.564,1.3-1.115,1.981-1.65a21.778,21.778,0,0,1-1.812-2.3.625.625,0,0,1,.109-.823.508.508,0,0,1,.753.118,20.347,20.347,0,0,0,1.844,2.316q.319-.24.644-.476a.512.512,0,0,1,.746.165.622.622,0,0,1-.152.814c-.144.106-.289.212-.431.317.069.067.139.133.209.2a.625.625,0,0,1,.065.827.506.506,0,0,1-.758.071c-.142-.132-.283-.267-.424-.4q-1.081.844-2.1,1.739A.5.5,0,0,1,335.843,115.4ZM366,112a.517.517,0,0,1-.18-.034.6.6,0,0,1-.327-.75,8.267,8.267,0,0,0,.4-2.509,6.9,6.9,0,0,0-.222-1.765.6.6,0,0,1,.365-.729.531.531,0,0,1,.667.4,8.1,8.1,0,0,1,.266,2.094,9.568,9.568,0,0,1-.461,2.9A.543.543,0,0,1,366,112Zm-22.989-1.811a.53.53,0,0,1-.471-.307.615.615,0,0,1,.213-.8c1.253-.749,2.565-1.461,3.9-2.116a.521.521,0,0,1,.711.295.61.61,0,0,1-.27.777c-1.31.644-2.6,1.342-3.825,2.076A.509.509,0,0,1,343.014,110.189Zm-9.142-3.567a.537.537,0,0,1-.484-.331,30.484,30.484,0,0,1-1.575-4.488.6.6,0,0,1,.367-.729.529.529,0,0,1,.667.4,29.045,29.045,0,0,0,1.509,4.3.612.612,0,0,1-.25.785A.5.5,0,0,1,333.872,106.621Zm17-.3a.543.543,0,0,1-.505-.387.6.6,0,0,1,.322-.753c1.347-.536,2.737-1.032,4.134-1.475a.534.534,0,0,1,.667.4.6.6,0,0,1-.367.729c-1.375.435-2.743.922-4.067,1.45A.511.511,0,0,1,350.869,106.321Zm12.542-2.331a.514.514,0,0,1-.2-.041,6.737,6.737,0,0,0-3.969-.221.549.549,0,0,1-.618-.483.584.584,0,0,1,.442-.676,7.666,7.666,0,0,1,4.539.286.607.607,0,0,1,.3.761A.542.542,0,0,1,363.411,103.989Zm-31.949-6.375a.557.557,0,0,1-.532-.516q-.047-.414-.083-.828c-.085-.974-.128-1.976-.128-2.975,0-.331,0-.66.014-.989a.556.556,0,0,1,.555-.568.568.568,0,0,1,.521.606c-.01.317-.013.635-.014.953,0,.96.042,1.924.124,2.864.022.266.049.53.079.794a.579.579,0,0,1-.468.654A.425.425,0,0,1,331.462,97.615Zm.255-9.384a.438.438,0,0,1-.095-.009.584.584,0,0,1-.436-.68,37.879,37.879,0,0,1,1.059-4.646.531.531,0,0,1,.677-.378.6.6,0,0,1,.347.739,36.429,36.429,0,0,0-1.024,4.49A.553.553,0,0,1,331.717,88.231Zm2.631-8.944a.489.489,0,0,1-.23-.058.612.612,0,0,1-.257-.783,39.385,39.385,0,0,1,2.124-4.182.511.511,0,0,1,.743-.179.622.622,0,0,1,.162.812,37.751,37.751,0,0,0-2.056,4.053A.539.539,0,0,1,334.348,79.286Zm4.636-7.917a.51.51,0,0,1-.344-.136.626.626,0,0,1-.069-.827,36.578,36.578,0,0,1,3.013-3.471.506.506,0,0,1,.759.031.625.625,0,0,1-.028.831,35.488,35.488,0,0,0-2.918,3.363A.52.52,0,0,1,338.984,71.369Zm6.311-6.386a.524.524,0,0,1-.439-.248.624.624,0,0,1,.128-.819,31.175,31.175,0,0,1,3.745-2.49.52.52,0,0,1,.725.253.617.617,0,0,1-.231.792,29.87,29.87,0,0,0-3.617,2.405A.5.5,0,0,1,345.295,64.982Z" transform="translate(-321.321 -61.361)" fill="#fff"/>
              </g>
              <g id="Grupo_98805" data-name="Grupo 98805" transform="translate(26.563 112.676)">
                <path id="Trazado_150513" data-name="Trazado 150513" d="M346.556,156.739a.557.557,0,0,1-.532-.505.581.581,0,0,1,.457-.664,17.285,17.285,0,0,0,2.047-.448.533.533,0,0,1,.656.421.594.594,0,0,1-.385.716,18.185,18.185,0,0,1-2.166.475A.586.586,0,0,1,346.556,156.739Z" transform="translate(-346.018 -155.102)" fill="#fff"/>
              </g>
            </g>
            <g id="Grupo_98807" data-name="Grupo 98807" transform="translate(433.186 164.662)">
              <path id="Trazado_150514" data-name="Trazado 150514" d="M698.438,292.147h-.033a22.986,22.986,0,0,1-4.341-.729.591.591,0,0,1-.394-.711.535.535,0,0,1,.65-.43,22.059,22.059,0,0,0,4.153.7.571.571,0,0,1,.5.623A.56.56,0,0,1,698.438,292.147Zm4.293-.139a.558.558,0,0,1-.532-.516.581.581,0,0,1,.468-.656,21.223,21.223,0,0,0,4.1-.986.531.531,0,0,1,.675.382.6.6,0,0,1-.349.738A22.26,22.26,0,0,1,702.8,292,.432.432,0,0,1,702.731,292.008Zm-12.607-2.087a.49.49,0,0,1-.216-.049,24.559,24.559,0,0,1-3.849-2.309.62.62,0,0,1-.147-.814.508.508,0,0,1,.745-.161,23.46,23.46,0,0,0,3.684,2.208.61.61,0,0,1,.276.774A.538.538,0,0,1,690.124,289.922Zm20.764-.739a.532.532,0,0,1-.475-.313.616.616,0,0,1,.225-.794,24.151,24.151,0,0,0,3.536-2.485.507.507,0,0,1,.754.1.625.625,0,0,1-.1.825,25.117,25.117,0,0,1-3.691,2.6A.5.5,0,0,1,710.889,289.182Zm-27.868-4.475a.508.508,0,0,1-.374-.167q-.436-.464-.846-.951a.629.629,0,0,1,.031-.832.511.511,0,0,1,.76.035c.26.309.529.612.8.9a.627.627,0,0,1,.011.831A.518.518,0,0,1,683.021,284.708Zm34.636-1.256a.507.507,0,0,1-.36-.153.626.626,0,0,1-.038-.83,24.5,24.5,0,0,0,2.517-3.666.516.516,0,0,1,.741-.194.624.624,0,0,1,.177.81,25.957,25.957,0,0,1-2.638,3.84A.518.518,0,0,1,717.656,283.452Zm4.433-7.983a.493.493,0,0,1-.177-.032.6.6,0,0,1-.331-.749,17.311,17.311,0,0,0,.825-4.426c.015-.324.22-.6.565-.557a.571.571,0,0,1,.51.617,18.577,18.577,0,0,1-.883,4.752A.543.543,0,0,1,722.09,275.468Zm-4.119-7.977a.55.55,0,0,1-.524-.456.591.591,0,0,1,.4-.7,12.652,12.652,0,0,0,2.519-.953q.573-.282,1.128-.6a10.765,10.765,0,0,0-1.667-2.743.625.625,0,0,1,.03-.83.5.5,0,0,1,.759.033,12.207,12.207,0,0,1,2.286,4.229.6.6,0,0,1-.336.745.525.525,0,0,1-.672-.338q-.534.3-1.085.576a13.783,13.783,0,0,1-2.722,1.027A.527.527,0,0,1,717.97,267.491Zm-4.233-.183a.5.5,0,0,1-.195-.04c-.072-.031-.145-.063-.216-.1a5.557,5.557,0,0,1-2.842-3.712.592.592,0,0,1,.384-.717.528.528,0,0,1,.655.421,4.448,4.448,0,0,0,2.235,2.933l.173.078a.606.606,0,0,1,.307.76A.54.54,0,0,1,713.737,267.308Zm11.788-4.156a.521.521,0,0,1-.417-.216.628.628,0,0,1,.076-.827,25.279,25.279,0,0,0,3.014-3.2.505.505,0,0,1,.758-.06.625.625,0,0,1,.055.828,26.669,26.669,0,0,1-3.146,3.347A.511.511,0,0,1,725.525,263.152Zm-13.04-3.275a.531.531,0,0,1-.472-.307.614.614,0,0,1,.215-.8,5.277,5.277,0,0,1,3.828-.471,7.59,7.59,0,0,1,.776.224.6.6,0,0,1,.35.738.533.533,0,0,1-.675.383,6.11,6.11,0,0,0-.674-.2,4.284,4.284,0,0,0-3.089.353A.5.5,0,0,1,712.485,259.877Zm18.658-3.791a.5.5,0,0,1-.282-.087.617.617,0,0,1-.176-.807,31.27,31.27,0,0,0,1.922-4.1.519.519,0,0,1,.7-.314.608.608,0,0,1,.288.768,32.3,32.3,0,0,1-2,4.26A.525.525,0,0,1,731.143,256.086Zm3.311-8.637a.5.5,0,0,1-.129-.016.593.593,0,0,1-.394-.711c.167-.734.306-1.482.419-2.221.116-.764.208-1.545.273-2.324a.553.553,0,0,1,.585-.532.577.577,0,0,1,.486.639c-.068.807-.162,1.618-.284,2.41-.116.769-.264,1.545-.436,2.309A.549.549,0,0,1,734.453,247.449Zm.8-9.328a.56.56,0,0,1-.537-.56,40.363,40.363,0,0,0-.466-4.594.585.585,0,0,1,.437-.68.549.549,0,0,1,.623.478,41.268,41.268,0,0,1,.48,4.743.57.57,0,0,1-.512.615Zm-53.966-.9a.476.476,0,0,1-.12-.015.591.591,0,0,1-.4-.705,33.971,33.971,0,0,1,1.306-4.565.525.525,0,0,1,.7-.33.605.605,0,0,1,.3.763,32.9,32.9,0,0,0-1.257,4.4A.551.551,0,0,1,681.289,237.221Zm52.5-8.34a.546.546,0,0,1-.515-.42,45.139,45.139,0,0,0-1.432-4.362.61.61,0,0,1,.286-.77.526.526,0,0,1,.706.314,46.633,46.633,0,0,1,1.471,4.483.6.6,0,0,1-.362.73A.473.473,0,0,1,733.794,228.88Zm-49.356-.37a.5.5,0,0,1-.268-.078.618.618,0,0,1-.2-.8,36.272,36.272,0,0,1,2.423-3.972.509.509,0,0,1,.754-.109.625.625,0,0,1,.1.824,35.284,35.284,0,0,0-2.344,3.842A.528.528,0,0,1,684.438,228.51Zm5.215-7.442a.51.51,0,0,1-.379-.17.626.626,0,0,1,0-.831,36.567,36.567,0,0,1,3.263-3.168.508.508,0,0,1,.755.1.626.626,0,0,1-.091.825,35.582,35.582,0,0,0-3.164,3.072A.515.515,0,0,1,689.653,221.068Zm40.814-.837a.533.533,0,0,1-.472-.306q-.352-.7-.726-1.382a27.722,27.722,0,0,0-1.528-2.517.624.624,0,0,1,.107-.823.507.507,0,0,1,.753.114,29.252,29.252,0,0,1,1.593,2.623q.384.7.745,1.419a.617.617,0,0,1-.213.8A.5.5,0,0,1,730.467,220.232Zm-34.061-4.953a.53.53,0,0,1-.46-.283.62.62,0,0,1,.182-.807,35,35,0,0,1,3.867-2.216.52.52,0,0,1,.711.3.609.609,0,0,1-.27.776,34.226,34.226,0,0,0-3.751,2.149A.5.5,0,0,1,696.406,215.279Zm28.705-2.29a.5.5,0,0,1-.3-.1,12.967,12.967,0,0,0-3.755-1.858.6.6,0,0,1-.364-.73.534.534,0,0,1,.668-.4,13.971,13.971,0,0,1,4.05,2.009.621.621,0,0,1,.146.815A.526.526,0,0,1,725.111,212.989Zm-20.872-1.546a.547.547,0,0,1-.515-.416.6.6,0,0,1,.357-.733,31.034,31.034,0,0,1,4.253-1.1.548.548,0,0,1,.619.484.584.584,0,0,1-.442.676,29.912,29.912,0,0,0-4.115,1.06A.488.488,0,0,1,704.239,211.442ZM717,210.129a.578.578,0,0,1-.065,0,26.736,26.736,0,0,0-4.216-.213.546.546,0,0,1-.552-.572.568.568,0,0,1,.524-.6,28.03,28.03,0,0,1,4.372.221.577.577,0,0,1,.469.653A.556.556,0,0,1,717,210.129Z" transform="translate(-680.751 -208.727)" fill="#fff"/>
            </g>
            <g id="Grupo_98808" data-name="Grupo 98808" transform="translate(50.352 321.247)">
              <path id="Trazado_150515" data-name="Trazado 150515" d="M295.648,370.627a15.646,15.646,0,0,1-1.753-.1c-.145-.014-.293-.033-.442-.053a.582.582,0,0,1-.467-.657.546.546,0,0,1,.6-.51c.137.019.274.038.413.051a15.275,15.275,0,0,0,3.744-.053.553.553,0,0,1,.6.511.58.58,0,0,1-.468.656A16.579,16.579,0,0,1,295.648,370.627Zm6.333-1.266a.542.542,0,0,1-.5-.383.6.6,0,0,1,.317-.754,18.744,18.744,0,0,0,3.736-2.04.513.513,0,0,1,.744.177.621.621,0,0,1-.162.812,19.83,19.83,0,0,1-3.944,2.151A.485.485,0,0,1,301.981,369.361Zm-12.614-.053a.486.486,0,0,1-.2-.04,18.933,18.933,0,0,1-3.9-2.263.618.618,0,0,1-.14-.815.51.51,0,0,1,.746-.153,18.015,18.015,0,0,0,3.685,2.137.605.605,0,0,1,.3.761A.541.541,0,0,1,289.367,369.308Zm-16.52-2.184a.548.548,0,0,1-.062,0,17.337,17.337,0,0,1-4.3-1.121.607.607,0,0,1-.319-.756.53.53,0,0,1,.692-.348,16.285,16.285,0,0,0,4.049,1.056.578.578,0,0,1,.474.651A.558.558,0,0,1,272.847,367.124Zm4.286-.075a.555.555,0,0,1-.53-.5.581.581,0,0,1,.451-.67,13.092,13.092,0,0,0,3.771-1.23l.174-.09a.518.518,0,0,1,.718.274.614.614,0,0,1-.251.785l-.189.1a14.042,14.042,0,0,1-4.062,1.327A.472.472,0,0,1,277.133,367.049Zm32.03-2.73a.516.516,0,0,1-.379-.17.628.628,0,0,1,0-.831,19.464,19.464,0,0,0,2.58-3.576.514.514,0,0,1,.741-.194.621.621,0,0,1,.176.808,20.683,20.683,0,0,1-2.735,3.79A.515.515,0,0,1,309.162,364.319Zm-26.847-.263a.517.517,0,0,1-.391-.186,21.954,21.954,0,0,1-2.653-3.851.617.617,0,0,1,.188-.8.512.512,0,0,1,.737.2,20.725,20.725,0,0,0,2.513,3.645.627.627,0,0,1-.024.831A.509.509,0,0,1,282.316,364.056Zm-17.477-.136a.5.5,0,0,1-.3-.1,18.627,18.627,0,0,1-3.369-3.133.629.629,0,0,1,.033-.831.508.508,0,0,1,.761.038,17.481,17.481,0,0,0,3.169,2.946.624.624,0,0,1,.151.815A.527.527,0,0,1,264.839,363.92Zm19.888-.948a.515.515,0,0,1-.385-.177.627.627,0,0,1,.009-.831,15.475,15.475,0,0,0,2.5-3.6.516.516,0,0,1,.731-.229.616.616,0,0,1,.21.8A16.693,16.693,0,0,1,285.1,362.8.511.511,0,0,1,284.727,362.971Zm-25.679-5.886a.534.534,0,0,1-.468-.3,25.135,25.135,0,0,1-1.781-4.4.6.6,0,0,1,.342-.741.527.527,0,0,1,.679.374,23.872,23.872,0,0,0,1.7,4.183.619.619,0,0,1-.2.8A.505.505,0,0,1,259.048,357.086Zm18.938-1.06a.544.544,0,0,1-.513-.415,20.754,20.754,0,0,1-.62-3.027c-.074-.595-.122-1.18-.141-1.741a.572.572,0,0,1,.518-.61.539.539,0,0,1,.557.565c.017.524.061,1.072.131,1.625a19.553,19.553,0,0,0,.581,2.841.6.6,0,0,1-.355.734A.472.472,0,0,1,277.987,356.026Zm10.847-1.168a.48.48,0,0,1-.114-.014.589.589,0,0,1-.411-.7,15.5,15.5,0,0,0,.3-2.994,14.052,14.052,0,0,0-.077-1.484.58.58,0,0,1,.472-.652.557.557,0,0,1,.6.516,15.5,15.5,0,0,1,.084,1.622,16.633,16.633,0,0,1-.326,3.243A.551.551,0,0,1,288.834,354.858Zm-32.486-6.637a.555.555,0,0,1-.531-.508,30.333,30.333,0,0,1-.234-3.775c0-.338.005-.678.016-1.016a.6.6,0,0,1,.556-.566.571.571,0,0,1,.519.609q-.016.486-.016.974a29.242,29.242,0,0,0,.224,3.617.578.578,0,0,1-.46.66A.517.517,0,0,1,256.348,348.221Zm21.545-1.428a.47.47,0,0,1-.2-.041.6.6,0,0,1-.3-.761,8.9,8.9,0,0,1,.873-1.784,6.864,6.864,0,0,1,2.051-2.053.513.513,0,0,1,.737.208.619.619,0,0,1-.19.8,5.757,5.757,0,0,0-1.718,1.716,7.706,7.706,0,0,0-.753,1.54A.54.54,0,0,1,277.893,346.793Zm9.9-1.068a.534.534,0,0,1-.472-.308,5.835,5.835,0,0,0-2.226-2.609,3.473,3.473,0,0,0-.535-.241.6.6,0,0,1-.346-.739.528.528,0,0,1,.677-.38,4.5,4.5,0,0,1,.694.313,6.93,6.93,0,0,1,2.682,3.1.616.616,0,0,1-.216.8A.507.507,0,0,1,287.792,345.725Zm-30.6-7.363-.534-.079-.522-.142a33.782,33.782,0,0,1,1.218-4.572.528.528,0,0,1,.692-.345.605.605,0,0,1,.316.757A32.55,32.55,0,0,0,257.188,338.362Zm2.449-8.274a.51.51,0,0,1-.256-.069.617.617,0,0,1-.218-.8,40.118,40.118,0,0,1,2.306-4.05.512.512,0,0,1,.75-.14.623.623,0,0,1,.128.819,38.793,38.793,0,0,0-2.236,3.929A.534.534,0,0,1,259.637,330.089Zm4.946-7.666a.506.506,0,0,1-.356-.148.625.625,0,0,1-.046-.828c.946-1.168,1.971-2.311,3.049-3.4a.506.506,0,0,1,.759.034.625.625,0,0,1-.03.83c-1.051,1.06-2.05,2.175-2.974,3.313A.515.515,0,0,1,264.583,322.423Z" transform="translate(-255.582 -317.893)" fill="#fff"/>
            </g>
          </g>
        </g>
      </g>
    </g>
  </g>
</svg>
