<svg xmlns="http://www.w3.org/2000/svg" xmlns:xlink="http://www.w3.org/1999/xlink" width="1600" height="220" viewBox="0 0 1600 220">
  <defs>
    <linearGradient id="linear-gradient" x1="0.5" x2="0.165" y2="0.602" gradientUnits="objectBoundingBox">
      <stop offset="0" stop-color="#6a2d9d"/>
      <stop offset="0.473" stop-color="#dbcde7"/>
      <stop offset="1" stop-color="#9368b7"/>
    </linearGradient>
    <clipPath id="clip-path">
      <path id="Recurso_1" data-name="Recurso 1" d="M0,0H1600V220H0Z" transform="translate(0.333 69)" fill="url(#linear-gradient)"/>
    </clipPath>
  </defs>
  <g id="Grupo_95367" data-name="Grupo 95367" transform="translate(-0.333 -69)">
    <g id="Grupo_53028" data-name="Grupo 53028" transform="translate(0.333)">
      <g id="Grupo_49020" data-name="Grupo 49020" transform="translate(0 69)">
        <g id="Group_1153" data-name="Group 1153">
          <path id="Recurso_1-2" data-name="Recurso 1" d="M0,0H1600V220H0Z" fill="#ffc967"/>
        </g>
      </g>
    </g>
    <g id="Enmascarar_grupo_144" data-name="Enmascarar grupo 144" clip-path="url(#clip-path)">
      <g id="Grupo_91510" data-name="Grupo 91510" transform="translate(104.352 186.819)">
        <path id="Trazado_140506" data-name="Trazado 140506" d="M59.272,249.654C37.747,243.93,17.508,230.734,6.993,211.1s-9.523-45.923,5.365-62.49C29.89,129.1,59.266,127.759,84.509,120.637a144.076,144.076,0,0,0,81.5-60.553c8.385-13.147,14.744-27.839,25.678-38.957C203.519,9.094,220.033,2.235,236.818.486S270.647,1.843,286.5,7.625c31.814,11.6,60.969,36.746,67.253,70.022,4.829,25.573-4.678,52.481-21.279,72.522s-39.639,33.867-63.715,43.748-49.444,16.148-74.391,23.559c-20.146,5.985-42.208,11.456-60.721,21.6-13.063,7.16-22.106,14.113-37.732,14.592A128.03,128.03,0,0,1,59.272,249.654Z" transform="translate(-323.628 58.791) rotate(-3)" fill="#fff6e6"/>
        <path id="Trazado_140508" data-name="Trazado 140508" d="M59.272,249.654C37.747,243.93,17.508,230.734,6.993,211.1s-9.523-45.923,5.365-62.49C29.89,129.1,59.266,127.759,84.509,120.637a144.076,144.076,0,0,0,81.5-60.553c8.385-13.147,14.744-27.839,25.678-38.957C203.519,9.094,220.033,2.235,236.818.486S270.647,1.843,286.5,7.625c31.814,11.6,60.969,36.746,67.253,70.022,4.829,25.573-4.678,52.481-21.279,72.522s-39.639,33.867-63.715,43.748-49.444,16.148-74.391,23.559c-20.146,5.985-42.208,11.456-60.721,21.6-13.063,7.16-22.106,14.113-37.732,14.592A128.03,128.03,0,0,1,59.272,249.654Z" transform="translate(1311.745 -50.477) rotate(-3)" fill="#ffd280"/>
        <g id="Grupo_91509" data-name="Grupo 91509" transform="translate(-166.561 -305.819)" style="isolation: isolate">
          <path id="Trazado_140507" data-name="Trazado 140507" d="M317.559-158.182c-16.734,25.048-44.437,40.471-72.252,52.037S188.231-85.77,162.826-69.582,115.684-27.8,113.6,2.255c-.835,12.027,1.452,24.494-2.349,35.935-4.406,13.265-16.7,22.947-30.177,26.656S53.125,66.932,39.732,62.93A122.394,122.394,0,0,1-36.479-4.835a122.393,122.393,0,0,1,2.947-101.939c17.223-34.3,49.418-58.168,80.473-80.724l92.261-67.01c20.164-14.645,40.345-33.05,62.844-44.134,44.6-21.973,106.8,9.537,123.924,53.394C336.886-217.294,334.6-183.275,317.559-158.182Z" transform="translate(46.18 305.819)" fill="#ffd280"/>
        </g>
      </g>
      <g id="Grupo_91511" data-name="Grupo 91511" transform="translate(-233.926 35.018)">
        <g id="Grupo_91095" data-name="Grupo 91095" transform="translate(341.645 226.063)">
          <g id="Grupo_91093" data-name="Grupo 91093" transform="translate(0 4.325)">
            <path id="Trazado_138664" data-name="Trazado 138664" d="M343.707,220.012h-8.65a1.331,1.331,0,0,1,0-2.662h8.65a1.331,1.331,0,0,1,0,2.662Z" transform="translate(-333.727 -217.35)" fill="#f6f6f6"/>
          </g>
          <g id="Grupo_91094" data-name="Grupo 91094" transform="translate(4.324)">
            <path id="Trazado_138665" data-name="Trazado 138665" d="M339.077,224.641a1.331,1.331,0,0,1-1.33-1.332v-8.65a1.331,1.331,0,0,1,2.662,0v8.65A1.331,1.331,0,0,1,339.077,224.641Z" transform="translate(-337.747 -213.329)" fill="#f6f6f6"/>
          </g>
        </g>
        <g id="Grupo_91505" data-name="Grupo 91505" transform="translate(722.553 428.063)">
          <g id="Grupo_91093-2" data-name="Grupo 91093" transform="translate(0 4.325)">
            <path id="Trazado_138664-2" data-name="Trazado 138664" d="M343.707,220.012h-8.65a1.331,1.331,0,0,1,0-2.662h8.65a1.331,1.331,0,0,1,0,2.662Z" transform="translate(-333.727 -217.35)" fill="#f6f6f6"/>
          </g>
          <g id="Grupo_91094-2" data-name="Grupo 91094" transform="translate(4.324)">
            <path id="Trazado_138665-2" data-name="Trazado 138665" d="M339.077,224.641a1.331,1.331,0,0,1-1.33-1.332v-8.65a1.331,1.331,0,0,1,2.662,0v8.65A1.331,1.331,0,0,1,339.077,224.641Z" transform="translate(-337.747 -213.329)" fill="#f6f6f6"/>
          </g>
        </g>
        <g id="Grupo_91098" data-name="Grupo 91098" transform="translate(742.234 102.334)">
          <g id="Grupo_91096" data-name="Grupo 91096" transform="translate(0 4.325)">
            <path id="Trazado_138666" data-name="Trazado 138666" d="M716.159,104.974h-8.65a1.331,1.331,0,0,1,0-2.662h8.65a1.331,1.331,0,0,1,0,2.662Z" transform="translate(-706.179 -102.312)" fill="#f6f6f6"/>
          </g>
          <g id="Grupo_91097" data-name="Grupo 91097" transform="translate(4.325 0)">
            <path id="Trazado_138667" data-name="Trazado 138667" d="M711.53,109.6a1.331,1.331,0,0,1-1.33-1.33V99.621a1.331,1.331,0,0,1,2.662,0v8.651A1.331,1.331,0,0,1,711.53,109.6Z" transform="translate(-710.2 -98.291)" fill="#f6f6f6"/>
          </g>
        </g>
        <g id="Grupo_91101" data-name="Grupo 91101" transform="translate(410.242 99.851)">
          <g id="Grupo_91099" data-name="Grupo 91099" transform="translate(0 5.126)">
            <path id="Trazado_138668" data-name="Trazado 138668" d="M408.68,102.591H398.427a.922.922,0,0,1,0-1.843H408.68a.922.922,0,0,1,0,1.843Z" transform="translate(-397.506 -100.748)" fill="#f6f6f6"/>
          </g>
          <g id="Grupo_91100" data-name="Grupo 91100" transform="translate(5.126)">
            <path id="Trazado_138669" data-name="Trazado 138669" d="M403.194,108.078a.921.921,0,0,1-.922-.922V96.9a.921.921,0,1,1,1.842,0v10.252A.921.921,0,0,1,403.194,108.078Z" transform="translate(-402.272 -95.982)" fill="#f6f6f6"/>
          </g>
        </g>
        <g id="Grupo_91104" data-name="Grupo 91104" transform="translate(259.663 292.395)">
          <g id="Grupo_91102" data-name="Grupo 91102" transform="translate(0 5.126)">
            <path id="Trazado_138670" data-name="Trazado 138670" d="M268.678,281.609H258.425a.921.921,0,0,1,0-1.841h10.253a.921.921,0,0,1,0,1.841Z" transform="translate(-257.504 -279.768)" fill="#f6f6f6"/>
          </g>
          <g id="Grupo_91103" data-name="Grupo 91103" transform="translate(5.126)">
            <path id="Trazado_138671" data-name="Trazado 138671" d="M263.191,287.1a.92.92,0,0,1-.921-.921V275.923a.921.921,0,0,1,1.841,0v10.252A.92.92,0,0,1,263.191,287.1Z" transform="translate(-262.27 -275.002)" fill="#f6f6f6"/>
          </g>
        </g>
        <g id="Grupo_91107" data-name="Grupo 91107" transform="translate(499.326 73.189)" opacity="0.3">
          <g id="Grupo_91105" data-name="Grupo 91105" transform="translate(0 4.325)">
            <path id="Trazado_138672" data-name="Trazado 138672" d="M499.61,84.384h-8.65a1.331,1.331,0,0,1,0-2.662h8.65a1.331,1.331,0,0,1,0,2.662Z" transform="translate(-489.63 -81.722)" fill="#f6f6f6"/>
          </g>
          <g id="Grupo_91106" data-name="Grupo 91106" transform="translate(4.324)">
            <path id="Trazado_138673" data-name="Trazado 138673" d="M494.981,89.013a1.331,1.331,0,0,1-1.331-1.332v-8.65a1.331,1.331,0,0,1,2.662,0v8.65A1.331,1.331,0,0,1,494.981,89.013Z" transform="translate(-493.65 -77.701)" fill="#f6f6f6"/>
          </g>
        </g>
        <g id="Grupo_91110" data-name="Grupo 91110" transform="translate(391.514 270.558)">
          <g id="Grupo_91108" data-name="Grupo 91108" transform="translate(0 3.047)">
            <path id="Trazado_138674" data-name="Trazado 138674" d="M433.613,239.882h-6.094a.937.937,0,1,1,0-1.875h6.094a.937.937,0,1,1,0,1.875Z" transform="translate(-426.581 -238.007)" fill="#f6f6f6"/>
          </g>
          <g id="Grupo_91109" data-name="Grupo 91109" transform="translate(3.047)">
            <path id="Trazado_138675" data-name="Trazado 138675" d="M430.352,243.143a.938.938,0,0,1-.938-.937v-6.1a.938.938,0,0,1,1.876,0v6.1A.937.937,0,0,1,430.352,243.143Z" transform="translate(-429.414 -235.174)" fill="#f6f6f6"/>
          </g>
        </g>
        <g id="Grupo_91113" data-name="Grupo 91113" transform="translate(594.494 44.772)" opacity="0.3">
          <g id="Grupo_91111" data-name="Grupo 91111" transform="translate(0 2.163)">
            <path id="Trazado_138676" data-name="Trazado 138676" d="M573.808,48.113h-4.325a.665.665,0,1,1,0-1.33h4.325a.665.665,0,1,1,0,1.33Z" transform="translate(-568.816 -46.783)" fill="#f6f6f6"/>
          </g>
          <g id="Grupo_91112" data-name="Grupo 91112" transform="translate(2.163)">
            <path id="Trazado_138677" data-name="Trazado 138677" d="M571.493,50.428a.666.666,0,0,1-.666-.666V45.438a.666.666,0,1,1,1.331,0v4.325A.666.666,0,0,1,571.493,50.428Z" transform="translate(-570.827 -44.772)" fill="#f6f6f6"/>
          </g>
        </g>
        <g id="Grupo_91114" data-name="Grupo 91114" transform="translate(452.044 64.525)">
          <path id="Trazado_138678" data-name="Trazado 138678" d="M451.821,81.949a6.152,6.152,0,1,1,6.15-6.151A6.158,6.158,0,0,1,451.821,81.949Zm0-10.031A3.879,3.879,0,1,0,455.7,75.8,3.885,3.885,0,0,0,451.821,71.919Z" transform="translate(-445.669 -69.646)" fill="#f6f6f6"/>
        </g>
        <g id="Grupo_91115" data-name="Grupo 91115" transform="translate(727.711 222.639)">
          <path id="Trazado_138679" data-name="Trazado 138679" d="M716.24,240.39a3.076,3.076,0,1,1,3.076-3.075A3.079,3.079,0,0,1,716.24,240.39Zm0-5.015a1.94,1.94,0,1,0,1.939,1.94A1.941,1.941,0,0,0,716.24,235.375Z" transform="translate(-713.164 -234.239)" fill="#f6f6f6"/>
        </g>
        <g id="Grupo_91116" data-name="Grupo 91116" transform="translate(551.585 44.481)">
          <path id="Trazado_138680" data-name="Trazado 138680" d="M530.423,111.666a6.152,6.152,0,1,1,6.152-6.151A6.159,6.159,0,0,1,530.423,111.666Zm0-10.032a3.88,3.88,0,1,0,3.882,3.881A3.884,3.884,0,0,0,530.423,101.635Z" transform="translate(-524.272 -99.363)" fill="#f6f6f6"/>
        </g>
        <g id="Grupo_91117" data-name="Grupo 91117" transform="translate(281.339 370.744)">
          <path id="Trazado_138681" data-name="Trazado 138681" d="M235.071,360.15A6.151,6.151,0,1,1,241.223,354,6.158,6.158,0,0,1,235.071,360.15Zm0-10.032A3.881,3.881,0,1,0,238.952,354,3.884,3.884,0,0,0,235.071,350.118Z" transform="translate(-228.92 -347.848)" fill="#f6f6f6"/>
        </g>
        <g id="Grupo_91506" data-name="Grupo 91506" transform="translate(784.339 475.744)">
          <path id="Trazado_138681-2" data-name="Trazado 138681" d="M235.071,360.15A6.151,6.151,0,1,1,241.223,354,6.158,6.158,0,0,1,235.071,360.15Zm0-10.032A3.881,3.881,0,1,0,238.952,354,3.884,3.884,0,0,0,235.071,350.118Z" transform="translate(-228.92 -347.848)" fill="#f6f6f6"/>
        </g>
        <g id="Grupo_91118" data-name="Grupo 91118" transform="translate(281.482 118.451)">
          <path id="Trazado_138682" data-name="Trazado 138682" d="M283.55,124.794a5.759,5.759,0,1,1,5.758-5.76A5.766,5.766,0,0,1,283.55,124.794Zm0-10.943a5.184,5.184,0,1,0,5.183,5.183A5.189,5.189,0,0,0,283.55,113.851Z" transform="translate(-277.79 -113.276)" fill="#f6f6f6"/>
        </g>
        <g id="Grupo_91119" data-name="Grupo 91119" transform="translate(760.86 190.902)">
          <path id="Trazado_138683" data-name="Trazado 138683" d="M727.793,189.233a4.3,4.3,0,1,1,4.3-4.3A4.3,4.3,0,0,1,727.793,189.233Zm0-7.93a3.632,3.632,0,1,0,3.632,3.632A3.636,3.636,0,0,0,727.793,181.3Z" transform="translate(-723.496 -180.638)" fill="#f6f6f6"/>
        </g>
        <g id="Grupo_91120" data-name="Grupo 91120" transform="translate(324.066 180.407)">
          <path id="Trazado_138684" data-name="Trazado 138684" d="M321.681,179.475a4.3,4.3,0,1,1,4.3-4.3A4.3,4.3,0,0,1,321.681,179.475Zm0-7.929a3.632,3.632,0,1,0,3.631,3.631A3.636,3.636,0,0,0,321.681,171.546Z" transform="translate(-317.383 -170.88)" fill="#f6f6f6"/>
        </g>
        <g id="Grupo_91121" data-name="Grupo 91121" transform="translate(599.826 54.162)">
          <path id="Trazado_138685" data-name="Trazado 138685" d="M668.483,119.5a.542.542,0,0,1-.187-.033c-.567-.211-1.129-.453-1.67-.718a.538.538,0,1,1,.474-.966,16.989,16.989,0,0,0,1.57.675.538.538,0,0,1-.187,1.042Zm-5.224-3.029a.537.537,0,0,1-.342-.122,20.237,20.237,0,0,1-3.077-3.16.537.537,0,1,1,.846-.663,19.23,19.23,0,0,0,2.914,2.991.538.538,0,0,1-.341.953Zm-15.489-2.694-.046,0a11.974,11.974,0,0,1-4.043-1.045l-.275-.132a.538.538,0,0,1,.476-.965l.254.123a10.877,10.877,0,0,0,3.678.948.538.538,0,0,1-.044,1.074Zm4.277-.288a.537.537,0,0,1-.107-1.064,19.517,19.517,0,0,0,3.975-1.291.538.538,0,0,1,.437.984,20.6,20.6,0,0,1-4.2,1.359A.532.532,0,0,1,652.048,113.487Zm-11.8-3.432a.538.538,0,0,1-.4-.174,16.639,16.639,0,0,1-2.508-3.656.538.538,0,1,1,.956-.492,15.619,15.619,0,0,0,2.344,3.419.538.538,0,0,1-.4.9Zm19.592-.06a.538.538,0,0,1-.323-.968,17.2,17.2,0,0,0,3.015-2.872.538.538,0,0,1,.834.681,18.259,18.259,0,0,1-3.2,3.051A.541.541,0,0,1,659.839,110ZM658,109.748a.537.537,0,0,1-.484-.3,19.6,19.6,0,0,1-1.457-4.167.538.538,0,0,1,1.049-.238,18.65,18.65,0,0,0,1.377,3.939.537.537,0,0,1-.251.717A.531.531,0,0,1,658,109.748Zm7.131-6.4a.549.549,0,0,1-.193-.035.539.539,0,0,1-.31-.695,9.363,9.363,0,0,0,.644-3.35c0-.211-.009-.422-.025-.633a.538.538,0,0,1,1.073-.08c.018.238.027.476.027.713A10.445,10.445,0,0,1,665.63,103,.537.537,0,0,1,665.128,103.345Zm-42.69-.1a17.672,17.672,0,0,1-2-.112.537.537,0,1,1,.122-1.068,17.931,17.931,0,0,0,4.167-.038.538.538,0,0,1,.131,1.068A20.219,20.219,0,0,1,622.438,103.248Zm13.819-.732a.537.537,0,0,1-.517-.393l-.14-.513a29.373,29.373,0,0,1-.726-3.777.538.538,0,0,1,.467-.6.544.544,0,0,1,.6.467,28.514,28.514,0,0,0,.7,3.639l.135.495a.539.539,0,0,1-.372.664A.576.576,0,0,1,636.257,102.516Zm-7.27-.332a.538.538,0,0,1-.161-1.051,25.972,25.972,0,0,0,3.9-1.591.538.538,0,1,1,.485.959,26.919,26.919,0,0,1-4.06,1.657A.567.567,0,0,1,628.987,102.183Zm-12.628-.152a.547.547,0,0,1-.219-.046,12.656,12.656,0,0,1-3.048-1.925q-.336-.287-.645-.592a.538.538,0,0,1,.755-.767c.188.186.385.366.588.54A11.547,11.547,0,0,0,616.579,101a.538.538,0,0,1-.219,1.028Zm39.787-.6h-.015a.539.539,0,0,1-.523-.554,10.378,10.378,0,0,1,1-4.39.538.538,0,0,1,.96.487,9.278,9.278,0,0,0-.887,3.935A.537.537,0,0,1,656.146,101.427Zm-19.488-3.074a.537.537,0,0,1-.3-.981,36.443,36.443,0,0,0,3.347-2.6.538.538,0,1,1,.708.81,37.319,37.319,0,0,1-3.448,2.673A.533.533,0,0,1,636.658,98.353Zm-26.336-2.2a.534.534,0,0,1-.481-.3,17.416,17.416,0,0,1-1.427-4.191.538.538,0,0,1,1.053-.22,16.322,16.322,0,0,0,1.336,3.932.536.536,0,0,1-.481.778Zm-24.031-.279-.316,0a.538.538,0,0,1,.012-1.076H586l.289,0a19.709,19.709,0,0,0,3.867-.415.537.537,0,1,1,.21,1.054A20.75,20.75,0,0,1,586.291,95.87Zm77.965-.667a.538.538,0,0,1-.371-.148,3.088,3.088,0,0,0-2.164-.806h0a4.386,4.386,0,0,0-1.334.214.538.538,0,1,1-.328-1.024,5.441,5.441,0,0,1,1.662-.266h0a4.113,4.113,0,0,1,2.906,1.1.538.538,0,0,1-.372.927Zm-82.478-.116a.542.542,0,0,1-.195-.037c-.169-.066-.337-.134-.5-.209a11.086,11.086,0,0,1-3.261-2.232.538.538,0,1,1,.752-.769,10.033,10.033,0,0,0,2.946,2.018c.151.067.3.13.456.189a.537.537,0,0,1-.194,1.039Zm12.637-.747a.538.538,0,0,1-.164-1.051c1.343-.427,2.7-.906,4.027-1.42a.538.538,0,0,1,.388,1c-1.349.522-2.723,1.007-4.089,1.441A.534.534,0,0,1,594.415,94.339Zm40.771-.329h-.011a.538.538,0,0,1-.527-.549,30.548,30.548,0,0,1,.4-4.357.537.537,0,0,1,1.06.174,29.849,29.849,0,0,0-.387,4.2A.538.538,0,0,1,635.186,94.01Zm7.94-1.3a.538.538,0,0,1-.4-.9,36.976,36.976,0,0,0,2.662-3.3.538.538,0,1,1,.874.626,37.789,37.789,0,0,1-2.74,3.393A.535.535,0,0,1,643.125,92.708Zm-40.692-1.477a.538.538,0,0,1-.225-1.027c1.282-.589,2.568-1.229,3.823-1.9a.538.538,0,0,1,.508.949c-1.273.682-2.579,1.33-3.881,1.93A.537.537,0,0,1,602.433,91.231ZM575.7,89.284a.54.54,0,0,1-.483-.3,14.835,14.835,0,0,1-1.347-4.24.538.538,0,0,1,1.064-.168,13.692,13.692,0,0,0,1.248,3.931.539.539,0,0,1-.482.777Zm32.77-1.468a.539.539,0,0,1-.538-.525c-.005-.223-.008-.445-.008-.668a32.264,32.264,0,0,1,.222-3.7.538.538,0,0,1,1.069.125A30.831,30.831,0,0,0,609,86.623c0,.214,0,.428.008.642a.538.538,0,0,1-.525.551Zm1.547-.645a.538.538,0,0,1-.282-1c1.206-.742,2.4-1.532,3.565-2.347a.538.538,0,1,1,.618.881c-1.178.827-2.4,1.628-3.621,2.382A.532.532,0,0,1,610.013,87.171Zm38.107-1.446a.538.538,0,0,1-.471-.8c.435-.789.841-1.6,1.209-2.409.213-.47.4-.942.556-1.4a.537.537,0,0,1,1.018.343,15.848,15.848,0,0,1-.6,1.506c-.378.834-.8,1.669-1.245,2.482A.539.539,0,0,1,648.12,85.725Zm-11.543-.176a.52.52,0,0,1-.161-.025.539.539,0,0,1-.352-.675,30.251,30.251,0,0,1,1.617-4.067.538.538,0,0,1,.969.469,28.838,28.838,0,0,0-1.56,3.921A.538.538,0,0,1,636.577,85.549ZM617.052,82.23a.538.538,0,0,1-.336-.958c1.113-.887,2.21-1.816,3.258-2.759a.538.538,0,1,1,.721.8c-1.065.958-2.178,1.9-3.308,2.8A.537.537,0,0,1,617.052,82.23Zm-42.74-1.321a.488.488,0,0,1-.056,0,.537.537,0,0,1-.48-.59,21.846,21.846,0,0,1,.916-4.308.538.538,0,0,1,1.025.325,20.715,20.715,0,0,0-.871,4.095A.538.538,0,0,1,574.312,80.909Zm35.117-1.621a.541.541,0,0,1-.524-.663,37.187,37.187,0,0,1,1.254-4.182.538.538,0,1,1,1.01.369,36.3,36.3,0,0,0-1.218,4.061A.539.539,0,0,1,609.428,79.288Zm30.914-1.438a.537.537,0,0,1-.433-.855,9.846,9.846,0,0,1,3.327-3.041.538.538,0,0,1,.5.952,8.838,8.838,0,0,0-2.96,2.723A.535.535,0,0,1,640.343,77.85Zm10.026-.257a.537.537,0,0,1-.525-.429,3.582,3.582,0,0,0-.935-1.808A3.369,3.369,0,0,0,647.5,74.5a.538.538,0,0,1,.326-1.025,4.43,4.43,0,0,1,1.859,1.126,4.613,4.613,0,0,1,1.216,2.341.536.536,0,0,1-.416.636A.552.552,0,0,1,650.369,77.593Zm-26.927-1.117a.538.538,0,0,1-.383-.915c.995-1.013,1.97-2.068,2.9-3.134a.538.538,0,0,1,.813.7c-.94,1.084-1.931,2.154-2.942,3.184A.537.537,0,0,1,623.442,76.476Zm-46.611-3.745a.531.531,0,0,1-.24-.057.539.539,0,0,1-.241-.722q.19-.381.391-.755a33.666,33.666,0,0,1,1.817-3.016.537.537,0,1,1,.891.6A32.958,32.958,0,0,0,577.69,71.7q-.194.363-.379.73A.536.536,0,0,1,576.831,72.731Zm35.573-1.5a.525.525,0,0,1-.251-.062.537.537,0,0,1-.225-.726,26.946,26.946,0,0,1,2.347-3.7.538.538,0,1,1,.857.65,25.734,25.734,0,0,0-2.252,3.556A.538.538,0,0,1,612.4,71.235Zm16.587-1.318a.526.526,0,0,1-.284-.082.536.536,0,0,1-.172-.74,8.8,8.8,0,0,0,1.282-3.143,5.261,5.261,0,0,0,.069-.613.542.542,0,0,1,.567-.507.536.536,0,0,1,.507.567,6.043,6.043,0,0,1-.084.738,9.844,9.844,0,0,1-1.428,3.527A.537.537,0,0,1,628.99,69.917Zm-47.365-4.3a.538.538,0,0,1-.405-.892,36.032,36.032,0,0,1,3.069-3.106.539.539,0,0,1,.718.8,34.491,34.491,0,0,0-2.976,3.012A.538.538,0,0,1,581.625,65.614Zm35.994-1.156a.538.538,0,0,1-.354-.943,18.112,18.112,0,0,1,3.652-2.491.538.538,0,0,1,.49.958,16.961,16.961,0,0,0-3.434,2.343A.536.536,0,0,1,617.62,64.457Zm11.51-2.545a.539.539,0,0,1-.4-.181,3.3,3.3,0,0,0-1.314-.915,4.463,4.463,0,0,0-2.126-.172.538.538,0,0,1-.147-1.066,5.522,5.522,0,0,1,2.65.23,4.39,4.39,0,0,1,1.742,1.208.539.539,0,0,1-.4.9Zm-41.114-2.03a.538.538,0,0,1-.309-.979,36.389,36.389,0,0,1,3.72-2.281.538.538,0,0,1,.507.95,35.3,35.3,0,0,0-3.611,2.212A.535.535,0,0,1,588.016,59.883Zm7.578-4.03a.538.538,0,0,1-.193-1.04,34.21,34.21,0,0,1,4.172-1.295.537.537,0,1,1,.252,1.044,33.179,33.179,0,0,0-4.04,1.256A.541.541,0,0,1,595.595,55.853Z" transform="translate(-573.773 -53.502)" fill="#f6f6f6"/>
        </g>
        <g id="Grupo_91125" data-name="Grupo 91125" transform="translate(328.302 60.303)">
          <g id="Grupo_91122" data-name="Grupo 91122" transform="translate(31.08)">
            <path id="Trazado_138686" data-name="Trazado 138686" d="M350.757,60.906a.537.537,0,0,1-.173-1.047c.693-.237,1.4-.448,2.1-.629a.538.538,0,0,1,.269,1.041c-.673.174-1.354.378-2.022.606A.514.514,0,0,1,350.757,60.906Z" transform="translate(-350.218 -59.212)" fill="#f6f6f6"/>
          </g>
          <g id="Grupo_91123" data-name="Grupo 91123" transform="translate(0 2.312)">
            <path id="Trazado_138687" data-name="Trazado 138687" d="M344.026,163.8h-.045a22.288,22.288,0,0,1-4.339-.807.538.538,0,1,1,.3-1.034,21.112,21.112,0,0,0,4.127.768.538.538,0,0,1-.043,1.073Zm-8.243-2.36a.536.536,0,0,1-.241-.057,25.908,25.908,0,0,1-3.753-2.3.537.537,0,1,1,.637-.866,24.8,24.8,0,0,0,3.6,2.2.538.538,0,0,1-.24,1.02Zm-6.922-5.082a.536.536,0,0,1-.386-.163,25.617,25.617,0,0,1-2.78-3.411.537.537,0,1,1,.888-.6,24.475,24.475,0,0,0,2.664,3.265.539.539,0,0,1-.386.913Zm-4.811-7.1a.539.539,0,0,1-.492-.32c-.095-.213-.184-.427-.27-.642a26.472,26.472,0,0,1-1.139-3.528.538.538,0,0,1,1.044-.258,25.362,25.362,0,0,0,1.093,3.385q.123.307.255.608a.538.538,0,0,1-.492.756Zm-2.082-8.332a.537.537,0,0,1-.535-.492c-.074-.848-.112-1.718-.112-2.587q0-.9.053-1.8a.538.538,0,0,1,1.073.062c-.033.579-.052,1.158-.051,1.736,0,.839.035,1.678.108,2.5a.538.538,0,0,1-.489.582Zm.485-8.584a.5.5,0,0,1-.1-.011.538.538,0,0,1-.425-.63,34.912,34.912,0,0,1,1.109-4.235.537.537,0,1,1,1.021.337,33.845,33.845,0,0,0-1.073,4.1A.539.539,0,0,1,322.452,132.338Zm2.689-8.174a.536.536,0,0,1-.486-.767,35.917,35.917,0,0,1,2.1-3.836.537.537,0,1,1,.91.572,35.25,35.25,0,0,0-2.039,3.724A.537.537,0,0,1,325.141,124.164Zm4.584-7.28a.538.538,0,0,1-.417-.878,40.9,40.9,0,0,1,2.938-3.232.538.538,0,1,1,.757.766,39.522,39.522,0,0,0-2.862,3.146A.536.536,0,0,1,329.725,116.884Zm22.491-3.105q-.6,0-1.206-.02a.539.539,0,0,1-.519-.555.55.55,0,0,1,.557-.519c1.076.035,2.156.019,3.229-.033q.507-.024,1.022-.065a.549.549,0,0,1,.577.495.536.536,0,0,1-.495.578c-.352.028-.7.049-1.051.067C353.627,113.759,352.922,113.779,352.216,113.779Zm-5.466-.5a.532.532,0,0,1-.109-.011,18.845,18.845,0,0,1-3.749-1.166c-.156-.069-.309-.139-.461-.211a.537.537,0,1,1,.458-.972c.144.068.289.133.433.2a17.775,17.775,0,0,0,3.533,1.1.537.537,0,0,1-.105,1.064Zm12.838-.325a.538.538,0,0,1-.145-1.055,10.983,10.983,0,0,0,3.692-1.754.538.538,0,0,1,.647.859,12.232,12.232,0,0,1-4.048,1.93A.528.528,0,0,1,359.588,112.954Zm-23.745-2.129a.537.537,0,0,1-.337-.956c.639-.516,1.3-1.021,1.981-1.51a20.315,20.315,0,0,1-1.812-2.1.538.538,0,0,1,.862-.645,19.005,19.005,0,0,0,1.844,2.12q.319-.219.644-.436a.538.538,0,1,1,.595.9c-.144.1-.289.194-.431.29.069.061.139.122.209.181a.538.538,0,1,1-.694.822c-.142-.12-.283-.244-.424-.369q-1.081.773-2.1,1.592A.532.532,0,0,1,335.843,110.825ZM366,107.712a.559.559,0,0,1-.18-.031.538.538,0,0,1-.327-.686,6.984,6.984,0,0,0,.4-2.3,5.809,5.809,0,0,0-.222-1.615.537.537,0,1,1,1.031-.3,6.826,6.826,0,0,1,.266,1.917,8.082,8.082,0,0,1-.461,2.654A.538.538,0,0,1,366,107.712Zm-22.989-1.657a.538.538,0,0,1-.258-1.01c1.253-.685,2.565-1.337,3.9-1.937a.538.538,0,0,1,.441.981c-1.31.589-2.6,1.228-3.825,1.9A.545.545,0,0,1,343.014,106.054Zm-9.142-3.265a.539.539,0,0,1-.484-.3,26.368,26.368,0,0,1-1.575-4.108.538.538,0,1,1,1.034-.3,25.122,25.122,0,0,0,1.509,3.939.538.538,0,0,1-.484.772Zm17-.275a.538.538,0,0,1-.184-1.043c1.347-.49,2.737-.944,4.134-1.35a.538.538,0,0,1,.3,1.034c-1.375.4-2.743.844-4.067,1.327A.552.552,0,0,1,350.869,102.514Zm12.542-2.134a.555.555,0,0,1-.2-.038,7.326,7.326,0,0,0-3.969-.2.538.538,0,0,1-.176-1.06,8.335,8.335,0,0,1,4.539.261.538.538,0,0,1-.2,1.039Zm-31.949-5.835a.538.538,0,0,1-.532-.472q-.047-.379-.083-.758c-.085-.892-.128-1.809-.128-2.723,0-.3,0-.6.014-.906a.538.538,0,0,1,1.076.035c-.01.29-.013.581-.014.872,0,.879.042,1.761.124,2.621.022.243.049.485.079.727a.537.537,0,0,1-.468.6A.463.463,0,0,1,331.462,94.545Zm.255-8.589a.477.477,0,0,1-.095-.009.537.537,0,0,1-.436-.623,32.2,32.2,0,0,1,1.059-4.253.538.538,0,0,1,1.024.33,30.965,30.965,0,0,0-1.024,4.11A.538.538,0,0,1,331.717,85.955Zm2.631-8.187a.526.526,0,0,1-.23-.053.538.538,0,0,1-.257-.716,34.98,34.98,0,0,1,2.124-3.828.538.538,0,1,1,.906.58,33.536,33.536,0,0,0-2.056,3.71A.54.54,0,0,1,334.348,77.768Zm4.636-7.247a.538.538,0,0,1-.413-.882,34.545,34.545,0,0,1,3.013-3.177.538.538,0,0,1,.731.788,33.521,33.521,0,0,0-2.918,3.078A.538.538,0,0,1,338.984,70.521Zm6.311-5.846a.538.538,0,0,1-.311-.977,31.549,31.549,0,0,1,3.745-2.279.538.538,0,0,1,.494.956,30.228,30.228,0,0,0-3.617,2.2A.535.535,0,0,1,345.295,64.676Z" transform="translate(-321.321 -61.361)" fill="#f6f6f6"/>
          </g>
          <g id="Grupo_91124" data-name="Grupo 91124" transform="translate(26.563 103.134)">
            <path id="Trazado_138688" data-name="Trazado 138688" d="M346.556,156.6a.538.538,0,0,1-.075-1.07,18.673,18.673,0,0,0,2.047-.41.537.537,0,1,1,.271,1.04,19.646,19.646,0,0,1-2.166.435A.638.638,0,0,1,346.556,156.6Z" transform="translate(-346.018 -155.102)" fill="#f6f6f6"/>
          </g>
        </g>
        <g id="Grupo_91126" data-name="Grupo 91126" transform="translate(692.849 195.2)">
          <path id="Trazado_138689" data-name="Trazado 138689" d="M698.438,285.083H698.4a24.937,24.937,0,0,1-4.341-.667.538.538,0,0,1,.256-1.044,23.931,23.931,0,0,0,4.153.638.538.538,0,0,1-.034,1.074Zm4.293-.127a.538.538,0,0,1-.065-1.072,22.87,22.87,0,0,0,4.1-.9.538.538,0,0,1,.326,1.025,23.992,23.992,0,0,1-4.293.945A.472.472,0,0,1,702.731,284.956Zm-12.607-1.91a.528.528,0,0,1-.216-.045,25.119,25.119,0,0,1-3.849-2.113.537.537,0,0,1,.6-.893,24,24,0,0,0,3.684,2.021.538.538,0,0,1-.216,1.03Zm20.764-.677a.537.537,0,0,1-.251-1.013,24.286,24.286,0,0,0,3.536-2.275.537.537,0,1,1,.657.851,25.258,25.258,0,0,1-3.691,2.376A.54.54,0,0,1,710.889,282.37Zm-27.868-4.1a.53.53,0,0,1-.374-.153q-.436-.424-.846-.87a.538.538,0,1,1,.792-.729c.26.283.529.56.8.828a.538.538,0,0,1-.375.924Zm34.636-1.15a.531.531,0,0,1-.36-.14.537.537,0,0,1-.038-.759,22.469,22.469,0,0,0,2.517-3.356.539.539,0,1,1,.919.564,23.8,23.8,0,0,1-2.638,3.515A.537.537,0,0,1,717.656,277.124Zm4.433-7.307a.533.533,0,0,1-.177-.029.539.539,0,0,1-.331-.685,14.654,14.654,0,0,0,.825-4.052.5.5,0,0,1,.565-.51.538.538,0,0,1,.51.565,15.728,15.728,0,0,1-.883,4.35A.537.537,0,0,1,722.09,269.817Zm-4.119-7.3a.538.538,0,0,1-.119-1.062,13.4,13.4,0,0,0,2.519-.872q.573-.258,1.128-.55a9.743,9.743,0,0,0-1.667-2.51.537.537,0,1,1,.789-.729,10.919,10.919,0,0,1,2.286,3.871.537.537,0,0,1-1.008.372q-.534.277-1.085.527a14.6,14.6,0,0,1-2.722.94A.573.573,0,0,1,717.97,262.515Zm-4.233-.168a.538.538,0,0,1-.195-.037c-.072-.028-.145-.058-.216-.089a5.178,5.178,0,0,1-2.842-3.4.536.536,0,0,1,.384-.656.53.53,0,0,1,.655.385,4.142,4.142,0,0,0,2.235,2.685l.173.071a.538.538,0,0,1-.195,1.039Zm11.788-3.8a.538.538,0,0,1-.341-.955,24.131,24.131,0,0,0,3.014-2.932.538.538,0,1,1,.813.7,25.456,25.456,0,0,1-3.146,3.063A.538.538,0,0,1,725.525,258.543Zm-13.04-3a.538.538,0,0,1-.257-1.01,5.711,5.711,0,0,1,3.828-.431c.262.056.523.125.776.205a.538.538,0,0,1-.326,1.026,6.547,6.547,0,0,0-.674-.18,4.638,4.638,0,0,0-3.089.323A.53.53,0,0,1,712.485,255.546Zm18.658-3.47a.537.537,0,0,1-.458-.818,27.587,27.587,0,0,0,1.922-3.753.538.538,0,0,1,.992.416,28.5,28.5,0,0,1-2,3.9A.533.533,0,0,1,731.143,252.076Zm3.311-7.905a.536.536,0,0,1-.523-.666c.167-.672.306-1.356.419-2.033.116-.7.208-1.414.273-2.127a.538.538,0,1,1,1.071.1c-.068.739-.162,1.481-.284,2.206-.116.7-.264,1.414-.436,2.113A.538.538,0,0,1,734.453,244.171Zm.8-8.538a.536.536,0,0,1-.537-.513,33.933,33.933,0,0,0-.466-4.205.538.538,0,1,1,1.059-.185,34.682,34.682,0,0,1,.48,4.341.538.538,0,0,1-.512.563Zm-53.966-.825a.518.518,0,0,1-.12-.014.537.537,0,0,1-.4-.645,29.1,29.1,0,0,1,1.306-4.179.537.537,0,1,1,1,.4,28.173,28.173,0,0,0-1.257,4.025A.538.538,0,0,1,681.289,234.808Zm52.5-7.634a.538.538,0,0,1-.515-.384,38.9,38.9,0,0,0-1.432-3.992.538.538,0,1,1,.992-.417,40.2,40.2,0,0,1,1.471,4.1.537.537,0,0,1-.362.668A.512.512,0,0,1,733.794,227.174Zm-49.356-.339a.538.538,0,0,1-.467-.806,32.806,32.806,0,0,1,2.423-3.635.537.537,0,1,1,.853.654,31.914,31.914,0,0,0-2.344,3.517A.534.534,0,0,1,684.438,226.835Zm5.215-6.811a.537.537,0,0,1-.381-.916,35.321,35.321,0,0,1,3.263-2.9.538.538,0,0,1,.664.846,34.377,34.377,0,0,0-3.164,2.811A.537.537,0,0,1,689.653,220.023Zm40.814-.766a.539.539,0,0,1-.472-.28q-.352-.639-.726-1.265a25.088,25.088,0,0,0-1.528-2.3.538.538,0,0,1,.859-.649,26.46,26.46,0,0,1,1.593,2.4q.384.642.745,1.3a.538.538,0,0,1-.213.73A.531.531,0,0,1,730.467,219.258Zm-34.061-4.533a.538.538,0,0,1-.279-1,35.947,35.947,0,0,1,3.867-2.028.538.538,0,0,1,.441.981,35.169,35.169,0,0,0-3.751,1.967A.532.532,0,0,1,696.406,214.724Zm28.705-2.1a.531.531,0,0,1-.3-.091,13.478,13.478,0,0,0-3.755-1.7.538.538,0,0,1,.3-1.031,14.519,14.519,0,0,1,4.05,1.839.538.538,0,0,1-.3.984Zm-20.872-1.415a.538.538,0,0,1-.158-1.052,33.386,33.386,0,0,1,4.253-1,.538.538,0,0,1,.177,1.062,32.18,32.18,0,0,0-4.115.97A.53.53,0,0,1,704.239,211.213ZM717,210.01a.631.631,0,0,1-.065,0,29.184,29.184,0,0,0-4.216-.195.523.523,0,0,1-.552-.524.538.538,0,0,1,.524-.552,30.6,30.6,0,0,1,4.372.2A.538.538,0,0,1,717,210.01Z" transform="translate(-680.751 -208.727)" fill="#f6f6f6"/>
        </g>
        <g id="Grupo_91127" data-name="Grupo 91127" transform="translate(310.016 338.526)">
          <path id="Trazado_138690" data-name="Trazado 138690" d="M295.648,366.161a17.075,17.075,0,0,1-1.753-.089c-.145-.013-.293-.03-.442-.048a.538.538,0,0,1,.134-1.068c.137.017.274.034.413.046a16.676,16.676,0,0,0,3.744-.048.538.538,0,1,1,.132,1.068A18.085,18.085,0,0,1,295.648,366.161ZM301.981,365a.537.537,0,0,1-.187-1.041,19.339,19.339,0,0,0,3.736-1.867.538.538,0,1,1,.582.906,20.463,20.463,0,0,1-3.944,1.969A.525.525,0,0,1,301.981,365Zm-12.614-.048a.525.525,0,0,1-.2-.037,19.426,19.426,0,0,1-3.9-2.072.537.537,0,1,1,.607-.886,18.485,18.485,0,0,0,3.685,1.956.537.537,0,0,1-.2,1.038Zm-16.52-2a.6.6,0,0,1-.062,0,18.638,18.638,0,0,1-4.3-1.026.538.538,0,1,1,.372-1.01,17.508,17.508,0,0,0,4.049.967.538.538,0,0,1-.059,1.072Zm4.286-.069a.538.538,0,0,1-.08-1.07,13.959,13.959,0,0,0,3.771-1.126l.174-.083a.538.538,0,1,1,.468.969l-.189.089a14.971,14.971,0,0,1-4.062,1.214A.513.513,0,0,1,277.133,362.886Zm32.03-2.5a.537.537,0,0,1-.381-.916,17.958,17.958,0,0,0,2.58-3.273.538.538,0,1,1,.917.563,19.082,19.082,0,0,1-2.735,3.469A.538.538,0,0,1,309.162,360.388Zm-26.847-.241a.537.537,0,0,1-.391-.17,20.142,20.142,0,0,1-2.653-3.525.538.538,0,0,1,.925-.549,19.013,19.013,0,0,0,2.512,3.336.538.538,0,0,1-.393.907Zm-17.477-.125a.53.53,0,0,1-.3-.089,18.1,18.1,0,0,1-3.369-2.867.538.538,0,1,1,.795-.726,16.981,16.981,0,0,0,3.169,2.7.538.538,0,0,1-.3.986Zm19.888-.868a.538.538,0,0,1-.376-.923,14.215,14.215,0,0,0,2.5-3.291.538.538,0,0,1,.941.521A15.332,15.332,0,0,1,285.1,359,.534.534,0,0,1,284.727,359.154Zm-25.679-5.387a.541.541,0,0,1-.468-.271,21.937,21.937,0,0,1-1.781-4.026.537.537,0,0,1,1.021-.337,20.829,20.829,0,0,0,1.7,3.829.537.537,0,0,1-.467.8Zm18.938-.97a.537.537,0,0,1-.513-.38,17.6,17.6,0,0,1-.62-2.771c-.074-.544-.122-1.08-.141-1.594a.541.541,0,0,1,.518-.558.517.517,0,0,1,.557.517,14.83,14.83,0,0,0,.131,1.487,16.574,16.574,0,0,0,.581,2.6.537.537,0,0,1-.355.672A.512.512,0,0,1,277.987,352.8Zm10.847-1.069a.522.522,0,0,1-.114-.013.537.537,0,0,1-.411-.64,13.032,13.032,0,0,0,.3-2.74,11.784,11.784,0,0,0-.077-1.358.539.539,0,0,1,.472-.6.545.545,0,0,1,.6.472,12.989,12.989,0,0,1,.084,1.484,13.986,13.986,0,0,1-.326,2.969A.538.538,0,0,1,288.834,351.728Zm-32.486-6.075a.537.537,0,0,1-.531-.465,25.447,25.447,0,0,1-.234-3.456c0-.31.005-.621.016-.93a.576.576,0,0,1,.556-.518.54.54,0,0,1,.519.557q-.016.445-.016.892a24.531,24.531,0,0,0,.224,3.31.536.536,0,0,1-.46.6A.561.561,0,0,1,256.348,345.653Zm21.545-1.307a.508.508,0,0,1-.2-.038.537.537,0,0,1-.3-.7,7.887,7.887,0,0,1,.873-1.633,6.6,6.6,0,0,1,2.051-1.879.538.538,0,1,1,.546.926,5.54,5.54,0,0,0-1.718,1.57,6.827,6.827,0,0,0-.753,1.41A.538.538,0,0,1,277.893,344.346Zm9.9-.978a.539.539,0,0,1-.472-.282,5.513,5.513,0,0,0-2.226-2.388,3.64,3.64,0,0,0-.535-.22.538.538,0,0,1,.33-1.024,4.71,4.71,0,0,1,.694.286,6.558,6.558,0,0,1,2.682,2.834.537.537,0,0,1-.216.729A.543.543,0,0,1,287.792,343.368Zm-30.6-6.739-.533-.072-.522-.13a28.862,28.862,0,0,1,1.218-4.185.538.538,0,1,1,1.008.376A27.8,27.8,0,0,0,257.188,336.629Zm2.449-7.573a.547.547,0,0,1-.256-.063.539.539,0,0,1-.218-.729,36.023,36.023,0,0,1,2.306-3.707.538.538,0,1,1,.878.622,34.841,34.841,0,0,0-2.236,3.6A.539.539,0,0,1,259.637,329.056Zm4.946-7.017a.531.531,0,0,1-.356-.135.537.537,0,0,1-.046-.758,43.454,43.454,0,0,1,3.049-3.11.538.538,0,0,1,.729.791c-1.051.97-2.05,1.991-2.974,3.032A.533.533,0,0,1,264.583,322.039Z" transform="translate(-255.582 -317.893)" fill="#f6f6f6"/>
        </g>
      </g>
      <g id="Grupo_91512" data-name="Grupo 91512" transform="translate(1796.38 395.546) rotate(180)">
        <g id="Grupo_91095-2" data-name="Grupo 91095" transform="translate(341.645 226.063)">
          <g id="Grupo_91093-3" data-name="Grupo 91093" transform="translate(0 4.325)">
            <path id="Trazado_138664-3" data-name="Trazado 138664" d="M343.707,220.012h-8.65a1.331,1.331,0,0,1,0-2.662h8.65a1.331,1.331,0,0,1,0,2.662Z" transform="translate(-333.727 -217.35)" fill="#fff"/>
          </g>
          <g id="Grupo_91094-3" data-name="Grupo 91094" transform="translate(4.324)">
            <path id="Trazado_138665-3" data-name="Trazado 138665" d="M339.077,224.641a1.331,1.331,0,0,1-1.33-1.332v-8.65a1.331,1.331,0,0,1,2.662,0v8.65A1.331,1.331,0,0,1,339.077,224.641Z" transform="translate(-337.747 -213.329)" fill="#fff"/>
          </g>
        </g>
        <g id="Grupo_91505-2" data-name="Grupo 91505" transform="translate(722.553 428.063)">
          <g id="Grupo_91093-4" data-name="Grupo 91093" transform="translate(0 4.325)">
            <path id="Trazado_138664-4" data-name="Trazado 138664" d="M343.707,220.012h-8.65a1.331,1.331,0,0,1,0-2.662h8.65a1.331,1.331,0,0,1,0,2.662Z" transform="translate(-333.727 -217.35)" fill="#fff"/>
          </g>
          <g id="Grupo_91094-4" data-name="Grupo 91094" transform="translate(4.324)">
            <path id="Trazado_138665-4" data-name="Trazado 138665" d="M339.077,224.641a1.331,1.331,0,0,1-1.33-1.332v-8.65a1.331,1.331,0,0,1,2.662,0v8.65A1.331,1.331,0,0,1,339.077,224.641Z" transform="translate(-337.747 -213.329)" fill="#fff"/>
          </g>
        </g>
        <g id="Grupo_91098-2" data-name="Grupo 91098" transform="translate(742.234 102.334)">
          <g id="Grupo_91096-2" data-name="Grupo 91096" transform="translate(0 4.325)">
            <path id="Trazado_138666-2" data-name="Trazado 138666" d="M716.159,104.974h-8.65a1.331,1.331,0,0,1,0-2.662h8.65a1.331,1.331,0,0,1,0,2.662Z" transform="translate(-706.179 -102.312)" fill="#fff"/>
          </g>
          <g id="Grupo_91097-2" data-name="Grupo 91097" transform="translate(4.325 0)">
            <path id="Trazado_138667-2" data-name="Trazado 138667" d="M711.53,109.6a1.331,1.331,0,0,1-1.33-1.33V99.621a1.331,1.331,0,0,1,2.662,0v8.651A1.331,1.331,0,0,1,711.53,109.6Z" transform="translate(-710.2 -98.291)" fill="#fff"/>
          </g>
        </g>
        <g id="Grupo_91101-2" data-name="Grupo 91101" transform="translate(410.242 99.851)">
          <g id="Grupo_91099-2" data-name="Grupo 91099" transform="translate(0 5.126)">
            <path id="Trazado_138668-2" data-name="Trazado 138668" d="M408.68,102.591H398.427a.922.922,0,0,1,0-1.843H408.68a.922.922,0,0,1,0,1.843Z" transform="translate(-397.506 -100.748)" fill="#fff"/>
          </g>
          <g id="Grupo_91100-2" data-name="Grupo 91100" transform="translate(5.126)">
            <path id="Trazado_138669-2" data-name="Trazado 138669" d="M403.194,108.078a.921.921,0,0,1-.922-.922V96.9a.921.921,0,1,1,1.842,0v10.252A.921.921,0,0,1,403.194,108.078Z" transform="translate(-402.272 -95.982)" fill="#fff"/>
          </g>
        </g>
        <g id="Grupo_91104-2" data-name="Grupo 91104" transform="translate(259.663 292.395)">
          <g id="Grupo_91102-2" data-name="Grupo 91102" transform="translate(0 5.126)">
            <path id="Trazado_138670-2" data-name="Trazado 138670" d="M268.678,281.609H258.425a.921.921,0,0,1,0-1.841h10.253a.921.921,0,0,1,0,1.841Z" transform="translate(-257.504 -279.768)" fill="#fff"/>
          </g>
          <g id="Grupo_91103-2" data-name="Grupo 91103" transform="translate(5.126)">
            <path id="Trazado_138671-2" data-name="Trazado 138671" d="M263.191,287.1a.92.92,0,0,1-.921-.921V275.923a.921.921,0,0,1,1.841,0v10.252A.92.92,0,0,1,263.191,287.1Z" transform="translate(-262.27 -275.002)" fill="#fff"/>
          </g>
        </g>
        <g id="Grupo_91107-2" data-name="Grupo 91107" transform="translate(499.326 73.189)" opacity="0.3">
          <g id="Grupo_91105-2" data-name="Grupo 91105" transform="translate(0 4.325)">
            <path id="Trazado_138672-2" data-name="Trazado 138672" d="M499.61,84.384h-8.65a1.331,1.331,0,0,1,0-2.662h8.65a1.331,1.331,0,0,1,0,2.662Z" transform="translate(-489.63 -81.722)" fill="#fff"/>
          </g>
          <g id="Grupo_91106-2" data-name="Grupo 91106" transform="translate(4.324)">
            <path id="Trazado_138673-2" data-name="Trazado 138673" d="M494.981,89.013a1.331,1.331,0,0,1-1.331-1.332v-8.65a1.331,1.331,0,0,1,2.662,0v8.65A1.331,1.331,0,0,1,494.981,89.013Z" transform="translate(-493.65 -77.701)" fill="#fff"/>
          </g>
        </g>
        <g id="Grupo_91110-2" data-name="Grupo 91110" transform="translate(391.514 270.558)">
          <g id="Grupo_91108-2" data-name="Grupo 91108" transform="translate(0 3.047)">
            <path id="Trazado_138674-2" data-name="Trazado 138674" d="M433.613,239.882h-6.094a.937.937,0,1,1,0-1.875h6.094a.937.937,0,1,1,0,1.875Z" transform="translate(-426.581 -238.007)" fill="#fff"/>
          </g>
          <g id="Grupo_91109-2" data-name="Grupo 91109" transform="translate(3.047)">
            <path id="Trazado_138675-2" data-name="Trazado 138675" d="M430.352,243.143a.938.938,0,0,1-.938-.937v-6.1a.938.938,0,0,1,1.876,0v6.1A.937.937,0,0,1,430.352,243.143Z" transform="translate(-429.414 -235.174)" fill="#fff"/>
          </g>
        </g>
        <g id="Grupo_91113-2" data-name="Grupo 91113" transform="translate(594.494 44.772)" opacity="0.3">
          <g id="Grupo_91111-2" data-name="Grupo 91111" transform="translate(0 2.163)">
            <path id="Trazado_138676-2" data-name="Trazado 138676" d="M573.808,48.113h-4.325a.665.665,0,1,1,0-1.33h4.325a.665.665,0,1,1,0,1.33Z" transform="translate(-568.816 -46.783)" fill="#fff"/>
          </g>
          <g id="Grupo_91112-2" data-name="Grupo 91112" transform="translate(2.163)">
            <path id="Trazado_138677-2" data-name="Trazado 138677" d="M571.493,50.428a.666.666,0,0,1-.666-.666V45.438a.666.666,0,1,1,1.331,0v4.325A.666.666,0,0,1,571.493,50.428Z" transform="translate(-570.827 -44.772)" fill="#fff"/>
          </g>
        </g>
        <g id="Grupo_91114-2" data-name="Grupo 91114" transform="translate(452.044 64.525)">
          <path id="Trazado_138678-2" data-name="Trazado 138678" d="M451.821,81.949a6.152,6.152,0,1,1,6.15-6.151A6.158,6.158,0,0,1,451.821,81.949Zm0-10.031A3.879,3.879,0,1,0,455.7,75.8,3.885,3.885,0,0,0,451.821,71.919Z" transform="translate(-445.669 -69.646)" fill="#fff"/>
        </g>
        <g id="Grupo_91115-2" data-name="Grupo 91115" transform="translate(727.711 222.639)">
          <path id="Trazado_138679-2" data-name="Trazado 138679" d="M716.24,240.39a3.076,3.076,0,1,1,3.076-3.075A3.079,3.079,0,0,1,716.24,240.39Zm0-5.015a1.94,1.94,0,1,0,1.939,1.94A1.941,1.941,0,0,0,716.24,235.375Z" transform="translate(-713.164 -234.239)" fill="#fff"/>
        </g>
        <g id="Grupo_91116-2" data-name="Grupo 91116" transform="translate(551.585 44.481)">
          <path id="Trazado_138680-2" data-name="Trazado 138680" d="M530.423,111.666a6.152,6.152,0,1,1,6.152-6.151A6.159,6.159,0,0,1,530.423,111.666Zm0-10.032a3.88,3.88,0,1,0,3.882,3.881A3.884,3.884,0,0,0,530.423,101.635Z" transform="translate(-524.272 -99.363)" fill="#fff"/>
        </g>
        <g id="Grupo_91117-2" data-name="Grupo 91117" transform="translate(281.339 370.744)">
          <path id="Trazado_138681-3" data-name="Trazado 138681" d="M235.071,360.15A6.151,6.151,0,1,1,241.223,354,6.158,6.158,0,0,1,235.071,360.15Zm0-10.032A3.881,3.881,0,1,0,238.952,354,3.884,3.884,0,0,0,235.071,350.118Z" transform="translate(-228.92 -347.848)" fill="#fff"/>
        </g>
        <g id="Grupo_91506-2" data-name="Grupo 91506" transform="translate(784.339 475.744)">
          <path id="Trazado_138681-4" data-name="Trazado 138681" d="M235.071,360.15A6.151,6.151,0,1,1,241.223,354,6.158,6.158,0,0,1,235.071,360.15Zm0-10.032A3.881,3.881,0,1,0,238.952,354,3.884,3.884,0,0,0,235.071,350.118Z" transform="translate(-228.92 -347.848)" fill="#fff"/>
        </g>
        <g id="Grupo_91118-2" data-name="Grupo 91118" transform="translate(281.482 118.451)">
          <path id="Trazado_138682-2" data-name="Trazado 138682" d="M283.55,124.794a5.759,5.759,0,1,1,5.758-5.76A5.766,5.766,0,0,1,283.55,124.794Zm0-10.943a5.184,5.184,0,1,0,5.183,5.183A5.189,5.189,0,0,0,283.55,113.851Z" transform="translate(-277.79 -113.276)" fill="#fff"/>
        </g>
        <g id="Grupo_91119-2" data-name="Grupo 91119" transform="translate(760.86 190.902)">
          <path id="Trazado_138683-2" data-name="Trazado 138683" d="M727.793,189.233a4.3,4.3,0,1,1,4.3-4.3A4.3,4.3,0,0,1,727.793,189.233Zm0-7.93a3.632,3.632,0,1,0,3.632,3.632A3.636,3.636,0,0,0,727.793,181.3Z" transform="translate(-723.496 -180.638)" fill="#fff"/>
        </g>
        <g id="Grupo_91120-2" data-name="Grupo 91120" transform="translate(324.066 180.407)">
          <path id="Trazado_138684-2" data-name="Trazado 138684" d="M321.681,179.475a4.3,4.3,0,1,1,4.3-4.3A4.3,4.3,0,0,1,321.681,179.475Zm0-7.929a3.632,3.632,0,1,0,3.631,3.631A3.636,3.636,0,0,0,321.681,171.546Z" transform="translate(-317.383 -170.88)" fill="#fff"/>
        </g>
        <g id="Grupo_91121-2" data-name="Grupo 91121" transform="translate(599.826 54.162)">
          <path id="Trazado_138685-2" data-name="Trazado 138685" d="M668.483,119.5a.542.542,0,0,1-.187-.033c-.567-.211-1.129-.453-1.67-.718a.538.538,0,1,1,.474-.966,16.989,16.989,0,0,0,1.57.675.538.538,0,0,1-.187,1.042Zm-5.224-3.029a.537.537,0,0,1-.342-.122,20.237,20.237,0,0,1-3.077-3.16.537.537,0,1,1,.846-.663,19.23,19.23,0,0,0,2.914,2.991.538.538,0,0,1-.341.953Zm-15.489-2.694-.046,0a11.974,11.974,0,0,1-4.043-1.045l-.275-.132a.538.538,0,0,1,.476-.965l.254.123a10.877,10.877,0,0,0,3.678.948.538.538,0,0,1-.044,1.074Zm4.277-.288a.537.537,0,0,1-.107-1.064,19.517,19.517,0,0,0,3.975-1.291.538.538,0,0,1,.437.984,20.6,20.6,0,0,1-4.2,1.359A.532.532,0,0,1,652.048,113.487Zm-11.8-3.432a.538.538,0,0,1-.4-.174,16.639,16.639,0,0,1-2.508-3.656.538.538,0,1,1,.956-.492,15.619,15.619,0,0,0,2.344,3.419.538.538,0,0,1-.4.9Zm19.592-.06a.538.538,0,0,1-.323-.968,17.2,17.2,0,0,0,3.015-2.872.538.538,0,0,1,.834.681,18.259,18.259,0,0,1-3.2,3.051A.541.541,0,0,1,659.839,110ZM658,109.748a.537.537,0,0,1-.484-.3,19.6,19.6,0,0,1-1.457-4.167.538.538,0,0,1,1.049-.238,18.65,18.65,0,0,0,1.377,3.939.537.537,0,0,1-.251.717A.531.531,0,0,1,658,109.748Zm7.131-6.4a.549.549,0,0,1-.193-.035.539.539,0,0,1-.31-.695,9.363,9.363,0,0,0,.644-3.35c0-.211-.009-.422-.025-.633a.538.538,0,0,1,1.073-.08c.018.238.027.476.027.713A10.445,10.445,0,0,1,665.63,103,.537.537,0,0,1,665.128,103.345Zm-42.69-.1a17.672,17.672,0,0,1-2-.112.537.537,0,1,1,.122-1.068,17.931,17.931,0,0,0,4.167-.038.538.538,0,0,1,.131,1.068A20.219,20.219,0,0,1,622.438,103.248Zm13.819-.732a.537.537,0,0,1-.517-.393l-.14-.513a29.373,29.373,0,0,1-.726-3.777.538.538,0,0,1,.467-.6.544.544,0,0,1,.6.467,28.514,28.514,0,0,0,.7,3.639l.135.495a.539.539,0,0,1-.372.664A.576.576,0,0,1,636.257,102.516Zm-7.27-.332a.538.538,0,0,1-.161-1.051,25.972,25.972,0,0,0,3.9-1.591.538.538,0,1,1,.485.959,26.919,26.919,0,0,1-4.06,1.657A.567.567,0,0,1,628.987,102.183Zm-12.628-.152a.547.547,0,0,1-.219-.046,12.656,12.656,0,0,1-3.048-1.925q-.336-.287-.645-.592a.538.538,0,0,1,.755-.767c.188.186.385.366.588.54A11.547,11.547,0,0,0,616.579,101a.538.538,0,0,1-.219,1.028Zm39.787-.6h-.015a.539.539,0,0,1-.523-.554,10.378,10.378,0,0,1,1-4.39.538.538,0,0,1,.96.487,9.278,9.278,0,0,0-.887,3.935A.537.537,0,0,1,656.146,101.427Zm-19.488-3.074a.537.537,0,0,1-.3-.981,36.443,36.443,0,0,0,3.347-2.6.538.538,0,1,1,.708.81,37.319,37.319,0,0,1-3.448,2.673A.533.533,0,0,1,636.658,98.353Zm-26.336-2.2a.534.534,0,0,1-.481-.3,17.416,17.416,0,0,1-1.427-4.191.538.538,0,0,1,1.053-.22,16.322,16.322,0,0,0,1.336,3.932.536.536,0,0,1-.481.778Zm-24.031-.279-.316,0a.538.538,0,0,1,.012-1.076H586l.289,0a19.709,19.709,0,0,0,3.867-.415.537.537,0,1,1,.21,1.054A20.75,20.75,0,0,1,586.291,95.87Zm77.965-.667a.538.538,0,0,1-.371-.148,3.088,3.088,0,0,0-2.164-.806h0a4.386,4.386,0,0,0-1.334.214.538.538,0,1,1-.328-1.024,5.441,5.441,0,0,1,1.662-.266h0a4.113,4.113,0,0,1,2.906,1.1.538.538,0,0,1-.372.927Zm-82.478-.116a.542.542,0,0,1-.195-.037c-.169-.066-.337-.134-.5-.209a11.086,11.086,0,0,1-3.261-2.232.538.538,0,1,1,.752-.769,10.033,10.033,0,0,0,2.946,2.018c.151.067.3.13.456.189a.537.537,0,0,1-.194,1.039Zm12.637-.747a.538.538,0,0,1-.164-1.051c1.343-.427,2.7-.906,4.027-1.42a.538.538,0,0,1,.388,1c-1.349.522-2.723,1.007-4.089,1.441A.534.534,0,0,1,594.415,94.339Zm40.771-.329h-.011a.538.538,0,0,1-.527-.549,30.548,30.548,0,0,1,.4-4.357.537.537,0,0,1,1.06.174,29.849,29.849,0,0,0-.387,4.2A.538.538,0,0,1,635.186,94.01Zm7.94-1.3a.538.538,0,0,1-.4-.9,36.976,36.976,0,0,0,2.662-3.3.538.538,0,1,1,.874.626,37.789,37.789,0,0,1-2.74,3.393A.535.535,0,0,1,643.125,92.708Zm-40.692-1.477a.538.538,0,0,1-.225-1.027c1.282-.589,2.568-1.229,3.823-1.9a.538.538,0,0,1,.508.949c-1.273.682-2.579,1.33-3.881,1.93A.537.537,0,0,1,602.433,91.231ZM575.7,89.284a.54.54,0,0,1-.483-.3,14.835,14.835,0,0,1-1.347-4.24.538.538,0,0,1,1.064-.168,13.692,13.692,0,0,0,1.248,3.931.539.539,0,0,1-.482.777Zm32.77-1.468a.539.539,0,0,1-.538-.525c-.005-.223-.008-.445-.008-.668a32.264,32.264,0,0,1,.222-3.7.538.538,0,0,1,1.069.125A30.831,30.831,0,0,0,609,86.623c0,.214,0,.428.008.642a.538.538,0,0,1-.525.551Zm1.547-.645a.538.538,0,0,1-.282-1c1.206-.742,2.4-1.532,3.565-2.347a.538.538,0,1,1,.618.881c-1.178.827-2.4,1.628-3.621,2.382A.532.532,0,0,1,610.013,87.171Zm38.107-1.446a.538.538,0,0,1-.471-.8c.435-.789.841-1.6,1.209-2.409.213-.47.4-.942.556-1.4a.537.537,0,0,1,1.018.343,15.848,15.848,0,0,1-.6,1.506c-.378.834-.8,1.669-1.245,2.482A.539.539,0,0,1,648.12,85.725Zm-11.543-.176a.52.52,0,0,1-.161-.025.539.539,0,0,1-.352-.675,30.251,30.251,0,0,1,1.617-4.067.538.538,0,0,1,.969.469,28.838,28.838,0,0,0-1.56,3.921A.538.538,0,0,1,636.577,85.549ZM617.052,82.23a.538.538,0,0,1-.336-.958c1.113-.887,2.21-1.816,3.258-2.759a.538.538,0,1,1,.721.8c-1.065.958-2.178,1.9-3.308,2.8A.537.537,0,0,1,617.052,82.23Zm-42.74-1.321a.488.488,0,0,1-.056,0,.537.537,0,0,1-.48-.59,21.846,21.846,0,0,1,.916-4.308.538.538,0,0,1,1.025.325,20.715,20.715,0,0,0-.871,4.095A.538.538,0,0,1,574.312,80.909Zm35.117-1.621a.541.541,0,0,1-.524-.663,37.187,37.187,0,0,1,1.254-4.182.538.538,0,1,1,1.01.369,36.3,36.3,0,0,0-1.218,4.061A.539.539,0,0,1,609.428,79.288Zm30.914-1.438a.537.537,0,0,1-.433-.855,9.846,9.846,0,0,1,3.327-3.041.538.538,0,0,1,.5.952,8.838,8.838,0,0,0-2.96,2.723A.535.535,0,0,1,640.343,77.85Zm10.026-.257a.537.537,0,0,1-.525-.429,3.582,3.582,0,0,0-.935-1.808A3.369,3.369,0,0,0,647.5,74.5a.538.538,0,0,1,.326-1.025,4.43,4.43,0,0,1,1.859,1.126,4.613,4.613,0,0,1,1.216,2.341.536.536,0,0,1-.416.636A.552.552,0,0,1,650.369,77.593Zm-26.927-1.117a.538.538,0,0,1-.383-.915c.995-1.013,1.97-2.068,2.9-3.134a.538.538,0,0,1,.813.7c-.94,1.084-1.931,2.154-2.942,3.184A.537.537,0,0,1,623.442,76.476Zm-46.611-3.745a.531.531,0,0,1-.24-.057.539.539,0,0,1-.241-.722q.19-.381.391-.755a33.666,33.666,0,0,1,1.817-3.016.537.537,0,1,1,.891.6A32.958,32.958,0,0,0,577.69,71.7q-.194.363-.379.73A.536.536,0,0,1,576.831,72.731Zm35.573-1.5a.525.525,0,0,1-.251-.062.537.537,0,0,1-.225-.726,26.946,26.946,0,0,1,2.347-3.7.538.538,0,1,1,.857.65,25.734,25.734,0,0,0-2.252,3.556A.538.538,0,0,1,612.4,71.235Zm16.587-1.318a.526.526,0,0,1-.284-.082.536.536,0,0,1-.172-.74,8.8,8.8,0,0,0,1.282-3.143,5.261,5.261,0,0,0,.069-.613.542.542,0,0,1,.567-.507.536.536,0,0,1,.507.567,6.043,6.043,0,0,1-.084.738,9.844,9.844,0,0,1-1.428,3.527A.537.537,0,0,1,628.99,69.917Zm-47.365-4.3a.538.538,0,0,1-.405-.892,36.032,36.032,0,0,1,3.069-3.106.539.539,0,0,1,.718.8,34.491,34.491,0,0,0-2.976,3.012A.538.538,0,0,1,581.625,65.614Zm35.994-1.156a.538.538,0,0,1-.354-.943,18.112,18.112,0,0,1,3.652-2.491.538.538,0,0,1,.49.958,16.961,16.961,0,0,0-3.434,2.343A.536.536,0,0,1,617.62,64.457Zm11.51-2.545a.539.539,0,0,1-.4-.181,3.3,3.3,0,0,0-1.314-.915,4.463,4.463,0,0,0-2.126-.172.538.538,0,0,1-.147-1.066,5.522,5.522,0,0,1,2.65.23,4.39,4.39,0,0,1,1.742,1.208.539.539,0,0,1-.4.9Zm-41.114-2.03a.538.538,0,0,1-.309-.979,36.389,36.389,0,0,1,3.72-2.281.538.538,0,0,1,.507.95,35.3,35.3,0,0,0-3.611,2.212A.535.535,0,0,1,588.016,59.883Zm7.578-4.03a.538.538,0,0,1-.193-1.04,34.21,34.21,0,0,1,4.172-1.295.537.537,0,1,1,.252,1.044,33.179,33.179,0,0,0-4.04,1.256A.541.541,0,0,1,595.595,55.853Z" transform="translate(-573.773 -53.502)" fill="#fff"/>
        </g>
        <g id="Grupo_91125-2" data-name="Grupo 91125" transform="translate(328.302 60.303)">
          <g id="Grupo_91122-2" data-name="Grupo 91122" transform="translate(31.08)">
            <path id="Trazado_138686-2" data-name="Trazado 138686" d="M350.757,60.906a.537.537,0,0,1-.173-1.047c.693-.237,1.4-.448,2.1-.629a.538.538,0,0,1,.269,1.041c-.673.174-1.354.378-2.022.606A.514.514,0,0,1,350.757,60.906Z" transform="translate(-350.218 -59.212)" fill="#fff"/>
          </g>
          <g id="Grupo_91123-2" data-name="Grupo 91123" transform="translate(0 2.312)">
            <path id="Trazado_138687-2" data-name="Trazado 138687" d="M344.026,163.8h-.045a22.288,22.288,0,0,1-4.339-.807.538.538,0,1,1,.3-1.034,21.112,21.112,0,0,0,4.127.768.538.538,0,0,1-.043,1.073Zm-8.243-2.36a.536.536,0,0,1-.241-.057,25.908,25.908,0,0,1-3.753-2.3.537.537,0,1,1,.637-.866,24.8,24.8,0,0,0,3.6,2.2.538.538,0,0,1-.24,1.02Zm-6.922-5.082a.536.536,0,0,1-.386-.163,25.617,25.617,0,0,1-2.78-3.411.537.537,0,1,1,.888-.6,24.475,24.475,0,0,0,2.664,3.265.539.539,0,0,1-.386.913Zm-4.811-7.1a.539.539,0,0,1-.492-.32c-.095-.213-.184-.427-.27-.642a26.472,26.472,0,0,1-1.139-3.528.538.538,0,0,1,1.044-.258,25.362,25.362,0,0,0,1.093,3.385q.123.307.255.608a.538.538,0,0,1-.492.756Zm-2.082-8.332a.537.537,0,0,1-.535-.492c-.074-.848-.112-1.718-.112-2.587q0-.9.053-1.8a.538.538,0,0,1,1.073.062c-.033.579-.052,1.158-.051,1.736,0,.839.035,1.678.108,2.5a.538.538,0,0,1-.489.582Zm.485-8.584a.5.5,0,0,1-.1-.011.538.538,0,0,1-.425-.63,34.912,34.912,0,0,1,1.109-4.235.537.537,0,1,1,1.021.337,33.845,33.845,0,0,0-1.073,4.1A.539.539,0,0,1,322.452,132.338Zm2.689-8.174a.536.536,0,0,1-.486-.767,35.917,35.917,0,0,1,2.1-3.836.537.537,0,1,1,.91.572,35.25,35.25,0,0,0-2.039,3.724A.537.537,0,0,1,325.141,124.164Zm4.584-7.28a.538.538,0,0,1-.417-.878,40.9,40.9,0,0,1,2.938-3.232.538.538,0,1,1,.757.766,39.522,39.522,0,0,0-2.862,3.146A.536.536,0,0,1,329.725,116.884Zm22.491-3.105q-.6,0-1.206-.02a.539.539,0,0,1-.519-.555.55.55,0,0,1,.557-.519c1.076.035,2.156.019,3.229-.033q.507-.024,1.022-.065a.549.549,0,0,1,.577.495.536.536,0,0,1-.495.578c-.352.028-.7.049-1.051.067C353.627,113.759,352.922,113.779,352.216,113.779Zm-5.466-.5a.532.532,0,0,1-.109-.011,18.845,18.845,0,0,1-3.749-1.166c-.156-.069-.309-.139-.461-.211a.537.537,0,1,1,.458-.972c.144.068.289.133.433.2a17.775,17.775,0,0,0,3.533,1.1.537.537,0,0,1-.105,1.064Zm12.838-.325a.538.538,0,0,1-.145-1.055,10.983,10.983,0,0,0,3.692-1.754.538.538,0,0,1,.647.859,12.232,12.232,0,0,1-4.048,1.93A.528.528,0,0,1,359.588,112.954Zm-23.745-2.129a.537.537,0,0,1-.337-.956c.639-.516,1.3-1.021,1.981-1.51a20.315,20.315,0,0,1-1.812-2.1.538.538,0,0,1,.862-.645,19.005,19.005,0,0,0,1.844,2.12q.319-.219.644-.436a.538.538,0,1,1,.595.9c-.144.1-.289.194-.431.29.069.061.139.122.209.181a.538.538,0,1,1-.694.822c-.142-.12-.283-.244-.424-.369q-1.081.773-2.1,1.592A.532.532,0,0,1,335.843,110.825ZM366,107.712a.559.559,0,0,1-.18-.031.538.538,0,0,1-.327-.686,6.984,6.984,0,0,0,.4-2.3,5.809,5.809,0,0,0-.222-1.615.537.537,0,1,1,1.031-.3,6.826,6.826,0,0,1,.266,1.917,8.082,8.082,0,0,1-.461,2.654A.538.538,0,0,1,366,107.712Zm-22.989-1.657a.538.538,0,0,1-.258-1.01c1.253-.685,2.565-1.337,3.9-1.937a.538.538,0,0,1,.441.981c-1.31.589-2.6,1.228-3.825,1.9A.545.545,0,0,1,343.014,106.054Zm-9.142-3.265a.539.539,0,0,1-.484-.3,26.368,26.368,0,0,1-1.575-4.108.538.538,0,1,1,1.034-.3,25.122,25.122,0,0,0,1.509,3.939.538.538,0,0,1-.484.772Zm17-.275a.538.538,0,0,1-.184-1.043c1.347-.49,2.737-.944,4.134-1.35a.538.538,0,0,1,.3,1.034c-1.375.4-2.743.844-4.067,1.327A.552.552,0,0,1,350.869,102.514Zm12.542-2.134a.555.555,0,0,1-.2-.038,7.326,7.326,0,0,0-3.969-.2.538.538,0,0,1-.176-1.06,8.335,8.335,0,0,1,4.539.261.538.538,0,0,1-.2,1.039Zm-31.949-5.835a.538.538,0,0,1-.532-.472q-.047-.379-.083-.758c-.085-.892-.128-1.809-.128-2.723,0-.3,0-.6.014-.906a.538.538,0,0,1,1.076.035c-.01.29-.013.581-.014.872,0,.879.042,1.761.124,2.621.022.243.049.485.079.727a.537.537,0,0,1-.468.6A.463.463,0,0,1,331.462,94.545Zm.255-8.589a.477.477,0,0,1-.095-.009.537.537,0,0,1-.436-.623,32.2,32.2,0,0,1,1.059-4.253.538.538,0,0,1,1.024.33,30.965,30.965,0,0,0-1.024,4.11A.538.538,0,0,1,331.717,85.955Zm2.631-8.187a.526.526,0,0,1-.23-.053.538.538,0,0,1-.257-.716,34.98,34.98,0,0,1,2.124-3.828.538.538,0,1,1,.906.58,33.536,33.536,0,0,0-2.056,3.71A.54.54,0,0,1,334.348,77.768Zm4.636-7.247a.538.538,0,0,1-.413-.882,34.545,34.545,0,0,1,3.013-3.177.538.538,0,0,1,.731.788,33.521,33.521,0,0,0-2.918,3.078A.538.538,0,0,1,338.984,70.521Zm6.311-5.846a.538.538,0,0,1-.311-.977,31.549,31.549,0,0,1,3.745-2.279.538.538,0,0,1,.494.956,30.228,30.228,0,0,0-3.617,2.2A.535.535,0,0,1,345.295,64.676Z" transform="translate(-321.321 -61.361)" fill="#fff"/>
          </g>
          <g id="Grupo_91124-2" data-name="Grupo 91124" transform="translate(26.563 103.134)">
            <path id="Trazado_138688-2" data-name="Trazado 138688" d="M346.556,156.6a.538.538,0,0,1-.075-1.07,18.673,18.673,0,0,0,2.047-.41.537.537,0,1,1,.271,1.04,19.646,19.646,0,0,1-2.166.435A.638.638,0,0,1,346.556,156.6Z" transform="translate(-346.018 -155.102)" fill="#fff"/>
          </g>
        </g>
        <g id="Grupo_91126-2" data-name="Grupo 91126" transform="translate(692.849 195.2)">
          <path id="Trazado_138689-2" data-name="Trazado 138689" d="M698.438,285.083H698.4a24.937,24.937,0,0,1-4.341-.667.538.538,0,0,1,.256-1.044,23.931,23.931,0,0,0,4.153.638.538.538,0,0,1-.034,1.074Zm4.293-.127a.538.538,0,0,1-.065-1.072,22.87,22.87,0,0,0,4.1-.9.538.538,0,0,1,.326,1.025,23.992,23.992,0,0,1-4.293.945A.472.472,0,0,1,702.731,284.956Zm-12.607-1.91a.528.528,0,0,1-.216-.045,25.119,25.119,0,0,1-3.849-2.113.537.537,0,0,1,.6-.893,24,24,0,0,0,3.684,2.021.538.538,0,0,1-.216,1.03Zm20.764-.677a.537.537,0,0,1-.251-1.013,24.286,24.286,0,0,0,3.536-2.275.537.537,0,1,1,.657.851,25.258,25.258,0,0,1-3.691,2.376A.54.54,0,0,1,710.889,282.37Zm-27.868-4.1a.53.53,0,0,1-.374-.153q-.436-.424-.846-.87a.538.538,0,1,1,.792-.729c.26.283.529.56.8.828a.538.538,0,0,1-.375.924Zm34.636-1.15a.531.531,0,0,1-.36-.14.537.537,0,0,1-.038-.759,22.469,22.469,0,0,0,2.517-3.356.539.539,0,1,1,.919.564,23.8,23.8,0,0,1-2.638,3.515A.537.537,0,0,1,717.656,277.124Zm4.433-7.307a.533.533,0,0,1-.177-.029.539.539,0,0,1-.331-.685,14.654,14.654,0,0,0,.825-4.052.5.5,0,0,1,.565-.51.538.538,0,0,1,.51.565,15.728,15.728,0,0,1-.883,4.35A.537.537,0,0,1,722.09,269.817Zm-4.119-7.3a.538.538,0,0,1-.119-1.062,13.4,13.4,0,0,0,2.519-.872q.573-.258,1.128-.55a9.743,9.743,0,0,0-1.667-2.51.537.537,0,1,1,.789-.729,10.919,10.919,0,0,1,2.286,3.871.537.537,0,0,1-1.008.372q-.534.277-1.085.527a14.6,14.6,0,0,1-2.722.94A.573.573,0,0,1,717.97,262.515Zm-4.233-.168a.538.538,0,0,1-.195-.037c-.072-.028-.145-.058-.216-.089a5.178,5.178,0,0,1-2.842-3.4.536.536,0,0,1,.384-.656.53.53,0,0,1,.655.385,4.142,4.142,0,0,0,2.235,2.685l.173.071a.538.538,0,0,1-.195,1.039Zm11.788-3.8a.538.538,0,0,1-.341-.955,24.131,24.131,0,0,0,3.014-2.932.538.538,0,1,1,.813.7,25.456,25.456,0,0,1-3.146,3.063A.538.538,0,0,1,725.525,258.543Zm-13.04-3a.538.538,0,0,1-.257-1.01,5.711,5.711,0,0,1,3.828-.431c.262.056.523.125.776.205a.538.538,0,0,1-.326,1.026,6.547,6.547,0,0,0-.674-.18,4.638,4.638,0,0,0-3.089.323A.53.53,0,0,1,712.485,255.546Zm18.658-3.47a.537.537,0,0,1-.458-.818,27.587,27.587,0,0,0,1.922-3.753.538.538,0,0,1,.992.416,28.5,28.5,0,0,1-2,3.9A.533.533,0,0,1,731.143,252.076Zm3.311-7.905a.536.536,0,0,1-.523-.666c.167-.672.306-1.356.419-2.033.116-.7.208-1.414.273-2.127a.538.538,0,1,1,1.071.1c-.068.739-.162,1.481-.284,2.206-.116.7-.264,1.414-.436,2.113A.538.538,0,0,1,734.453,244.171Zm.8-8.538a.536.536,0,0,1-.537-.513,33.933,33.933,0,0,0-.466-4.205.538.538,0,1,1,1.059-.185,34.682,34.682,0,0,1,.48,4.341.538.538,0,0,1-.512.563Zm-53.966-.825a.518.518,0,0,1-.12-.014.537.537,0,0,1-.4-.645,29.1,29.1,0,0,1,1.306-4.179.537.537,0,1,1,1,.4,28.173,28.173,0,0,0-1.257,4.025A.538.538,0,0,1,681.289,234.808Zm52.5-7.634a.538.538,0,0,1-.515-.384,38.9,38.9,0,0,0-1.432-3.992.538.538,0,1,1,.992-.417,40.2,40.2,0,0,1,1.471,4.1.537.537,0,0,1-.362.668A.512.512,0,0,1,733.794,227.174Zm-49.356-.339a.538.538,0,0,1-.467-.806,32.806,32.806,0,0,1,2.423-3.635.537.537,0,1,1,.853.654,31.914,31.914,0,0,0-2.344,3.517A.534.534,0,0,1,684.438,226.835Zm5.215-6.811a.537.537,0,0,1-.381-.916,35.321,35.321,0,0,1,3.263-2.9.538.538,0,0,1,.664.846,34.377,34.377,0,0,0-3.164,2.811A.537.537,0,0,1,689.653,220.023Zm40.814-.766a.539.539,0,0,1-.472-.28q-.352-.639-.726-1.265a25.088,25.088,0,0,0-1.528-2.3.538.538,0,0,1,.859-.649,26.46,26.46,0,0,1,1.593,2.4q.384.642.745,1.3a.538.538,0,0,1-.213.73A.531.531,0,0,1,730.467,219.258Zm-34.061-4.533a.538.538,0,0,1-.279-1,35.947,35.947,0,0,1,3.867-2.028.538.538,0,0,1,.441.981,35.169,35.169,0,0,0-3.751,1.967A.532.532,0,0,1,696.406,214.724Zm28.705-2.1a.531.531,0,0,1-.3-.091,13.478,13.478,0,0,0-3.755-1.7.538.538,0,0,1,.3-1.031,14.519,14.519,0,0,1,4.05,1.839.538.538,0,0,1-.3.984Zm-20.872-1.415a.538.538,0,0,1-.158-1.052,33.386,33.386,0,0,1,4.253-1,.538.538,0,0,1,.177,1.062,32.18,32.18,0,0,0-4.115.97A.53.53,0,0,1,704.239,211.213ZM717,210.01a.631.631,0,0,1-.065,0,29.184,29.184,0,0,0-4.216-.195.523.523,0,0,1-.552-.524.538.538,0,0,1,.524-.552,30.6,30.6,0,0,1,4.372.2A.538.538,0,0,1,717,210.01Z" transform="translate(-680.751 -208.727)" fill="#fff"/>
        </g>
        <g id="Grupo_91127-2" data-name="Grupo 91127" transform="translate(310.016 338.526)">
          <path id="Trazado_138690-2" data-name="Trazado 138690" d="M295.648,366.161a17.075,17.075,0,0,1-1.753-.089c-.145-.013-.293-.03-.442-.048a.538.538,0,0,1,.134-1.068c.137.017.274.034.413.046a16.676,16.676,0,0,0,3.744-.048.538.538,0,1,1,.132,1.068A18.085,18.085,0,0,1,295.648,366.161ZM301.981,365a.537.537,0,0,1-.187-1.041,19.339,19.339,0,0,0,3.736-1.867.538.538,0,1,1,.582.906,20.463,20.463,0,0,1-3.944,1.969A.525.525,0,0,1,301.981,365Zm-12.614-.048a.525.525,0,0,1-.2-.037,19.426,19.426,0,0,1-3.9-2.072.537.537,0,1,1,.607-.886,18.485,18.485,0,0,0,3.685,1.956.537.537,0,0,1-.2,1.038Zm-16.52-2a.6.6,0,0,1-.062,0,18.638,18.638,0,0,1-4.3-1.026.538.538,0,1,1,.372-1.01,17.508,17.508,0,0,0,4.049.967.538.538,0,0,1-.059,1.072Zm4.286-.069a.538.538,0,0,1-.08-1.07,13.959,13.959,0,0,0,3.771-1.126l.174-.083a.538.538,0,1,1,.468.969l-.189.089a14.971,14.971,0,0,1-4.062,1.214A.513.513,0,0,1,277.133,362.886Zm32.03-2.5a.537.537,0,0,1-.381-.916,17.958,17.958,0,0,0,2.58-3.273.538.538,0,1,1,.917.563,19.082,19.082,0,0,1-2.735,3.469A.538.538,0,0,1,309.162,360.388Zm-26.847-.241a.537.537,0,0,1-.391-.17,20.142,20.142,0,0,1-2.653-3.525.538.538,0,0,1,.925-.549,19.013,19.013,0,0,0,2.512,3.336.538.538,0,0,1-.393.907Zm-17.477-.125a.53.53,0,0,1-.3-.089,18.1,18.1,0,0,1-3.369-2.867.538.538,0,1,1,.795-.726,16.981,16.981,0,0,0,3.169,2.7.538.538,0,0,1-.3.986Zm19.888-.868a.538.538,0,0,1-.376-.923,14.215,14.215,0,0,0,2.5-3.291.538.538,0,0,1,.941.521A15.332,15.332,0,0,1,285.1,359,.534.534,0,0,1,284.727,359.154Zm-25.679-5.387a.541.541,0,0,1-.468-.271,21.937,21.937,0,0,1-1.781-4.026.537.537,0,0,1,1.021-.337,20.829,20.829,0,0,0,1.7,3.829.537.537,0,0,1-.467.8Zm18.938-.97a.537.537,0,0,1-.513-.38,17.6,17.6,0,0,1-.62-2.771c-.074-.544-.122-1.08-.141-1.594a.541.541,0,0,1,.518-.558.517.517,0,0,1,.557.517,14.83,14.83,0,0,0,.131,1.487,16.574,16.574,0,0,0,.581,2.6.537.537,0,0,1-.355.672A.512.512,0,0,1,277.987,352.8Zm10.847-1.069a.522.522,0,0,1-.114-.013.537.537,0,0,1-.411-.64,13.032,13.032,0,0,0,.3-2.74,11.784,11.784,0,0,0-.077-1.358.539.539,0,0,1,.472-.6.545.545,0,0,1,.6.472,12.989,12.989,0,0,1,.084,1.484,13.986,13.986,0,0,1-.326,2.969A.538.538,0,0,1,288.834,351.728Zm-32.486-6.075a.537.537,0,0,1-.531-.465,25.447,25.447,0,0,1-.234-3.456c0-.31.005-.621.016-.93a.576.576,0,0,1,.556-.518.54.54,0,0,1,.519.557q-.016.445-.016.892a24.531,24.531,0,0,0,.224,3.31.536.536,0,0,1-.46.6A.561.561,0,0,1,256.348,345.653Zm21.545-1.307a.508.508,0,0,1-.2-.038.537.537,0,0,1-.3-.7,7.887,7.887,0,0,1,.873-1.633,6.6,6.6,0,0,1,2.051-1.879.538.538,0,1,1,.546.926,5.54,5.54,0,0,0-1.718,1.57,6.827,6.827,0,0,0-.753,1.41A.538.538,0,0,1,277.893,344.346Zm9.9-.978a.539.539,0,0,1-.472-.282,5.513,5.513,0,0,0-2.226-2.388,3.64,3.64,0,0,0-.535-.22.538.538,0,0,1,.33-1.024,4.71,4.71,0,0,1,.694.286,6.558,6.558,0,0,1,2.682,2.834.537.537,0,0,1-.216.729A.543.543,0,0,1,287.792,343.368Zm-30.6-6.739-.533-.072-.522-.13a28.862,28.862,0,0,1,1.218-4.185.538.538,0,1,1,1.008.376A27.8,27.8,0,0,0,257.188,336.629Zm2.449-7.573a.547.547,0,0,1-.256-.063.539.539,0,0,1-.218-.729,36.023,36.023,0,0,1,2.306-3.707.538.538,0,1,1,.878.622,34.841,34.841,0,0,0-2.236,3.6A.539.539,0,0,1,259.637,329.056Zm4.946-7.017a.531.531,0,0,1-.356-.135.537.537,0,0,1-.046-.758,43.454,43.454,0,0,1,3.049-3.11.538.538,0,0,1,.729.791c-1.051.97-2.05,1.991-2.974,3.032A.533.533,0,0,1,264.583,322.039Z" transform="translate(-255.582 -317.893)" fill="#fff"/>
        </g>
      </g>
    </g>
  </g>
</svg>
