<svg xmlns="http://www.w3.org/2000/svg" xmlns:xlink="http://www.w3.org/1999/xlink" width="1240" height="522" viewBox="0 0 1240 522">
  <defs>
    <clipPath id="clip-path">
      <rect id="Rectángulo_36015" data-name="Rectángulo 36015" width="1240" height="522" transform="translate(180 11979)" fill="#d9d9e9"/>
    </clipPath>
  </defs>
  <g id="Grupo_100505" data-name="Grupo 100505" transform="translate(-180 -11909.633)">
    <rect id="Rectángulo_36014" data-name="Rectángulo 36014" width="1240" height="522" transform="translate(180 11909.633)" fill="#d9d9e9"/>
    <g id="Enmascarar_grupo_172" data-name="Enmascarar grupo 172" transform="translate(0 -69.367)" clip-path="url(#clip-path)">
      <path id="Trazado_150702" data-name="Trazado 150702" d="M985.04,610.366c80.555,53.465,49.839,103.567,106.312,154.884,31.7,28.8,86.929,45.272,119.1,94.495,59.971,91.766-37.127,167.586-104.612,216.64-26.842,19.512-69.225,32.617-90.152,81-10.976,25.379-5.241,87.5-66.992,110.434-64.209,23.844-107.335-32.065-150.007-35.719-56.721-4.859-86.548,10.635-143.524,10.58-74.654-.069-150.78-9.2-193.4-78.587-16.388-26.686-26.621-56.56-33.634-86.947-6.367-27.574-3.441-56.542-19.992-81.1-24.54-36.407-61.563-50.832-70.7-98.584-19.566-102.287,89.667-130.362,165.516-164.415,41.526-18.645,52.79-74.913,83.209-106.387,43.967-45.49,108.751-70.958,172.138-72.3S921.382,568.117,985.04,610.366Z" transform="translate(-401.802 11633.719)" fill="#cecee5"/>
      <path id="Trazado_150703" data-name="Trazado 150703" d="M985.04,610.366c80.555,53.465,49.839,103.567,106.312,154.884,31.7,28.8,86.929,45.272,119.1,94.495,59.971,91.766-37.127,167.586-104.612,216.64-26.842,19.512-69.225,32.617-90.152,81-10.976,25.379-5.241,87.5-66.992,110.434-64.209,23.844-107.335-32.065-150.007-35.719-56.721-4.859-86.548,10.635-143.524,10.58-74.654-.069-150.78-9.2-193.4-78.587-16.388-26.686-26.621-56.56-33.634-86.947-6.367-27.574-3.441-56.542-19.992-81.1-24.54-36.407-61.563-50.832-70.7-98.584-19.566-102.287,89.667-130.362,165.516-164.415,41.526-18.645,52.79-74.913,83.209-106.387,43.967-45.49,108.751-70.958,172.138-72.3S921.382,568.117,985.04,610.366Z" transform="translate(312.865 11585.719)" fill="#cecee5"/>
      <g id="Grupo_99056" data-name="Grupo 99056" transform="translate(587.2 12018.621)">
        <g id="Grupo_98684" data-name="Grupo 98684" transform="translate(-217.407 255.682)">
          <g id="Grupo_98682" data-name="Grupo 98682" transform="translate(0 6.659)">
            <path id="Trazado_150422" data-name="Trazado 150422" d="M347.793,221.449H335.6a2.058,2.058,0,0,1,0-4.1h12.191a2.058,2.058,0,0,1,0,4.1Z" transform="translate(-333.727 -217.35)" fill="#8d8cbe"/>
          </g>
          <g id="Grupo_98683" data-name="Grupo 98683" transform="translate(6.094)">
            <path id="Trazado_150423" data-name="Trazado 150423" d="M339.622,230.746a1.968,1.968,0,0,1-1.875-2.05V215.378a1.883,1.883,0,1,1,3.752,0V228.7A1.969,1.969,0,0,1,339.622,230.746Z" transform="translate(-337.747 -213.329)" fill="#8d8cbe"/>
          </g>
        </g>
        <g id="Grupo_98687" data-name="Grupo 98687" transform="translate(486.594 378.907)">
          <g id="Grupo_98685" data-name="Grupo 98685" transform="translate(0 6.659)">
            <path id="Trazado_150424" data-name="Trazado 150424" d="M347.793,221.449H335.6a2.058,2.058,0,0,1,0-4.1h12.191a2.058,2.058,0,0,1,0,4.1Z" transform="translate(-333.727 -217.35)" fill="#8d8cbe"/>
          </g>
          <g id="Grupo_98686" data-name="Grupo 98686" transform="translate(6.094)">
            <path id="Trazado_150425" data-name="Trazado 150425" d="M339.622,230.746a1.968,1.968,0,0,1-1.875-2.05V215.378a1.883,1.883,0,1,1,3.752,0V228.7A1.969,1.969,0,0,1,339.622,230.746Z" transform="translate(-337.747 -213.329)" fill="#8d8cbe"/>
          </g>
        </g>
        <g id="Grupo_98690" data-name="Grupo 98690" transform="translate(662.184 89.081)">
          <g id="Grupo_98688" data-name="Grupo 98688" transform="translate(0 6.659)">
            <path id="Trazado_150426" data-name="Trazado 150426" d="M720.245,106.411H708.054a2.058,2.058,0,0,1,0-4.1h12.191a2.058,2.058,0,0,1,0,4.1Z" transform="translate(-706.179 -102.312)" fill="#8d8cbe"/>
          </g>
          <g id="Grupo_98689" data-name="Grupo 98689" transform="translate(6.095)">
            <path id="Trazado_150427" data-name="Trazado 150427" d="M712.075,115.708a1.968,1.968,0,0,1-1.875-2.049V100.34a1.883,1.883,0,1,1,3.752,0v13.32A1.968,1.968,0,0,1,712.075,115.708Z" transform="translate(-710.2 -98.291)" fill="#8d8cbe"/>
          </g>
        </g>
        <g id="Grupo_98693" data-name="Grupo 98693" transform="translate(-120.726 61.342)">
          <g id="Grupo_98691" data-name="Grupo 98691" transform="translate(0 7.893)">
            <path id="Trazado_150428" data-name="Trazado 150428" d="M413.254,103.587H398.8a1.425,1.425,0,0,1,0-2.839h14.451a1.425,1.425,0,0,1,0,2.839Z" transform="translate(-397.506 -100.748)" fill="#8d8cbe"/>
          </g>
          <g id="Grupo_98692" data-name="Grupo 98692" transform="translate(7.225)">
            <path id="Trazado_150429" data-name="Trazado 150429" d="M403.571,114.607a1.363,1.363,0,0,1-1.3-1.419V97.4a1.3,1.3,0,1,1,2.6,0v15.786A1.362,1.362,0,0,1,403.571,114.607Z" transform="translate(-402.272 -95.982)" fill="#8d8cbe"/>
          </g>
        </g>
        <g id="Grupo_98699" data-name="Grupo 98699" transform="translate(319.828 44.203)" opacity="0.3">
          <g id="Grupo_98697" data-name="Grupo 98697" transform="translate(0 6.659)">
            <path id="Trazado_150432" data-name="Trazado 150432" d="M503.7,85.821H491.505a2.058,2.058,0,0,1,0-4.1H503.7a2.058,2.058,0,0,1,0,4.1Z" transform="translate(-489.63 -81.722)" fill="#8d8cbe"/>
          </g>
          <g id="Grupo_98698" data-name="Grupo 98698" transform="translate(6.094)">
            <path id="Trazado_150433" data-name="Trazado 150433" d="M495.527,95.118a1.969,1.969,0,0,1-1.877-2.05V79.75a1.883,1.883,0,1,1,3.752,0V93.068A1.969,1.969,0,0,1,495.527,95.118Z" transform="translate(-493.65 -77.701)" fill="#8d8cbe"/>
          </g>
        </g>
        <g id="Grupo_98702" data-name="Grupo 98702" transform="translate(270.528 448.487)">
          <g id="Grupo_98700" data-name="Grupo 98700" transform="translate(0 4.692)">
            <path id="Trazado_150434" data-name="Trazado 150434" d="M436.492,240.894H427.9a1.449,1.449,0,0,1,0-2.887h8.589a1.449,1.449,0,0,1,0,2.887Z" transform="translate(-426.581 -238.007)" fill="#8d8cbe"/>
          </g>
          <g id="Grupo_98701" data-name="Grupo 98701" transform="translate(4.294)">
            <path id="Trazado_150435" data-name="Trazado 150435" d="M430.736,247.444A1.387,1.387,0,0,1,429.414,246v-9.385a1.327,1.327,0,1,1,2.644,0V246A1.386,1.386,0,0,1,430.736,247.444Z" transform="translate(-429.414 -235.174)" fill="#8d8cbe"/>
          </g>
        </g>
        <g id="Grupo_98705" data-name="Grupo 98705" transform="translate(453.958 0.448)" opacity="0.3">
          <g id="Grupo_98703" data-name="Grupo 98703" transform="translate(0 3.33)">
            <path id="Trazado_150436" data-name="Trazado 150436" d="M575.851,48.832h-6.1a1.028,1.028,0,0,1,0-2.049h6.1a1.028,1.028,0,0,1,0,2.049Z" transform="translate(-568.816 -46.783)" fill="#8d8cbe"/>
          </g>
          <g id="Grupo_98704" data-name="Grupo 98704" transform="translate(3.048)">
            <path id="Trazado_150437" data-name="Trazado 150437" d="M571.765,53.481a.984.984,0,0,1-.938-1.025V45.8a.942.942,0,1,1,1.876,0v6.659A.984.984,0,0,1,571.765,53.481Z" transform="translate(-570.827 -44.772)" fill="#8d8cbe"/>
          </g>
        </g>
        <g id="Grupo_98706" data-name="Grupo 98706" transform="translate(-61.811 6.948)">
          <path id="Trazado_150438" data-name="Trazado 150438" d="M454.34,88.59c-4.783,0-8.671-4.248-8.671-9.471s3.888-9.473,8.671-9.473,8.668,4.25,8.668,9.473S459.119,88.59,454.34,88.59Zm0-15.445a6,6,0,1,0,5.468,5.974A5.745,5.745,0,0,0,454.34,73.145Z" transform="translate(-445.669 -69.646)" fill="#8d8cbe"/>
        </g>
        <g id="Grupo_98707" data-name="Grupo 98707" transform="translate(641.714 274.325)">
          <path id="Trazado_150439" data-name="Trazado 150439" d="M717.5,243.71a4.754,4.754,0,1,1,4.336-4.735A4.554,4.554,0,0,1,717.5,243.71Zm0-7.722a3,3,0,1,0,2.733,2.988A2.871,2.871,0,0,0,717.5,235.988Z" transform="translate(-713.164 -234.239)" fill="#8d8cbe"/>
        </g>
        <g id="Grupo_98708" data-name="Grupo 98708" transform="translate(393.482)">
          <path id="Trazado_150440" data-name="Trazado 150440" d="M532.941,118.307c-4.779,0-8.669-4.25-8.669-9.471s3.89-9.473,8.669-9.473,8.671,4.25,8.671,9.473S537.724,118.307,532.941,118.307Zm0-15.447a6,6,0,1,0,5.471,5.975A5.744,5.744,0,0,0,532.941,102.861Z" transform="translate(-524.272 -99.363)" fill="#8d8cbe"/>
        </g>
        <g id="Grupo_98711" data-name="Grupo 98711" transform="translate(-302.2 89.983)">
          <path id="Trazado_150443" data-name="Trazado 150443" d="M285.908,131.011c-4.476,0-8.117-3.978-8.117-8.868s3.641-8.867,8.117-8.867,8.116,3.978,8.116,8.867S290.382,131.011,285.908,131.011Zm0-16.849c-4.029,0-7.307,3.581-7.307,7.981s3.277,7.982,7.307,7.982,7.3-3.581,7.3-7.982S289.935,114.162,285.908,114.162Z" transform="translate(-277.79 -113.276)" fill="#8d8cbe"/>
        </g>
        <g id="Grupo_98712" data-name="Grupo 98712" transform="translate(688.434 225.457)">
          <path id="Trazado_150444" data-name="Trazado 150444" d="M729.552,193.872a6.643,6.643,0,1,1,6.057-6.618A6.363,6.363,0,0,1,729.552,193.872Zm0-12.21a5.615,5.615,0,1,0,5.119,5.593A5.378,5.378,0,0,0,729.552,181.661Z" transform="translate(-723.496 -180.638)" fill="#8d8cbe"/>
        </g>
        <g id="Grupo_98713" data-name="Grupo 98713" transform="translate(-242.182 185.381)">
          <path id="Trazado_150445" data-name="Trazado 150445" d="M323.44,184.114A6.643,6.643,0,1,1,329.5,177.5,6.363,6.363,0,0,1,323.44,184.114Zm0-12.209a5.614,5.614,0,1,0,5.117,5.591A5.378,5.378,0,0,0,323.44,171.905Z" transform="translate(-317.383 -170.88)" fill="#8d8cbe"/>
        </g>
        <g id="Grupo_98714" data-name="Grupo 98714" transform="translate(461.473 14.906)">
          <path id="Trazado_150446" data-name="Trazado 150446" d="M707.258,155.122a.707.707,0,0,1-.264-.051,24.557,24.557,0,0,1-2.354-1.106.866.866,0,0,1-.347-1.108.734.734,0,0,1,1.016-.379,22.9,22.9,0,0,0,2.213,1.04.853.853,0,0,1,.447,1.065A.765.765,0,0,1,707.258,155.122Zm-7.362-4.664a.719.719,0,0,1-.482-.187,30.086,30.086,0,0,1-4.337-4.866.879.879,0,0,1,.13-1.163.716.716,0,0,1,1.063.142,28.593,28.593,0,0,0,4.106,4.606.879.879,0,0,1,.1,1.166A.728.728,0,0,1,699.9,150.459Zm-21.83-4.149c-.021,0-.042,0-.065,0a15.751,15.751,0,0,1-5.7-1.61l-.388-.2a.866.866,0,0,1-.344-1.11.734.734,0,0,1,1.016-.376l.358.189a14.3,14.3,0,0,0,5.184,1.459.808.808,0,0,1,.691.894A.788.788,0,0,1,678.065,146.31Zm6.029-.444a.776.776,0,0,1-.741-.661.829.829,0,0,1,.59-.977,25.876,25.876,0,0,0,5.6-1.987.737.737,0,0,1,1,.422.861.861,0,0,1-.385,1.093,27.329,27.329,0,0,1-5.913,2.093A.689.689,0,0,1,684.094,145.866Zm-16.632-5.285a.731.731,0,0,1-.558-.268,25.82,25.82,0,0,1-3.535-5.629.864.864,0,0,1,.327-1.115.728.728,0,0,1,1.02.358,24.247,24.247,0,0,0,3.3,5.265.882.882,0,0,1-.046,1.171A.721.721,0,0,1,667.462,140.582Zm27.613-.093a.737.737,0,0,1-.606-.331A.881.881,0,0,1,694.62,139a25.323,25.323,0,0,0,4.249-4.422.718.718,0,0,1,1.067-.118.883.883,0,0,1,.107,1.166,26.88,26.88,0,0,1-4.514,4.7A.72.72,0,0,1,695.075,140.489Zm-2.6-.381a.754.754,0,0,1-.682-.469,32.081,32.081,0,0,1-2.054-6.416.832.832,0,0,1,.572-.99.754.754,0,0,1,.906.624,30.539,30.539,0,0,0,1.94,6.065.862.862,0,0,1-.353,1.1A.7.7,0,0,1,692.478,140.108Zm10.05-9.859a.717.717,0,0,1-.271-.055.855.855,0,0,1-.436-1.07,15.593,15.593,0,0,0,.908-5.159c0-.325-.012-.649-.035-.975a.808.808,0,0,1,.7-.886.78.78,0,0,1,.813.763c.026.366.038.734.038,1.1a17.4,17.4,0,0,1-1.008,5.75A.762.762,0,0,1,702.528,130.249Zm-60.167-.149a22.816,22.816,0,0,1-2.819-.172.813.813,0,0,1-.667-.916.772.772,0,0,1,.838-.729,23.147,23.147,0,0,0,5.872-.058.781.781,0,0,1,.844.724.815.815,0,0,1-.659.921A26.114,26.114,0,0,1,642.362,130.1Zm19.476-1.128a.77.77,0,0,1-.729-.6l-.2-.79a48.974,48.974,0,0,1-1.023-5.816.816.816,0,0,1,.658-.924.783.783,0,0,1,.846.719,47.556,47.556,0,0,0,.985,5.6l.191.762a.842.842,0,0,1-.524,1.022A.746.746,0,0,1,661.838,128.972Zm-10.246-.512a.766.766,0,0,1-.722-.58.844.844,0,0,1,.494-1.038,34.905,34.905,0,0,0,5.5-2.449.728.728,0,0,1,1.019.364.865.865,0,0,1-.335,1.113,36.18,36.18,0,0,1-5.723,2.552A.735.735,0,0,1,651.592,128.461Zm-17.8-.234a.715.715,0,0,1-.309-.071,17.707,17.707,0,0,1-4.3-2.964q-.473-.442-.909-.911a.882.882,0,0,1-.008-1.171.714.714,0,0,1,1.072-.01q.4.43.829.831a16.151,16.151,0,0,0,3.931,2.713.858.858,0,0,1,.382,1.093A.756.756,0,0,1,633.794,128.227Zm56.075-.931h-.021a.8.8,0,0,1-.737-.853,17.2,17.2,0,0,1,1.413-6.76.73.73,0,0,1,1.02-.363.866.866,0,0,1,.333,1.113,15.39,15.39,0,0,0-1.251,6.06A.792.792,0,0,1,689.869,127.3ZM662.4,122.563a.741.741,0,0,1-.625-.359.875.875,0,0,1,.2-1.151,52.254,52.254,0,0,0,4.717-4,.717.717,0,0,1,1.07.078.883.883,0,0,1-.073,1.169,53.459,53.459,0,0,1-4.86,4.115A.707.707,0,0,1,662.4,122.563Zm-37.118-3.4a.749.749,0,0,1-.678-.459,28.542,28.542,0,0,1-2.011-6.454.829.829,0,0,1,.586-.979.764.764,0,0,1,.9.639,26.748,26.748,0,0,0,1.883,6.055.866.866,0,0,1-.338,1.111A.71.71,0,0,1,625.285,119.168Zm-33.869-.429-.446,0a.832.832,0,0,1,.017-1.656H591l.408,0a25.52,25.52,0,0,0,5.45-.639.764.764,0,0,1,.891.649.827.827,0,0,1-.6.974A26.867,26.867,0,0,1,591.416,118.739ZM701.3,117.713a.725.725,0,0,1-.523-.229,4.136,4.136,0,0,0-3.05-1.24h0a5.7,5.7,0,0,0-1.88.33.749.749,0,0,1-.953-.535.846.846,0,0,1,.491-1.042,7.077,7.077,0,0,1,2.342-.409h0a5.532,5.532,0,0,1,4.1,1.7.884.884,0,0,1,.024,1.171A.726.726,0,0,1,701.3,117.713Zm-116.245-.179a.708.708,0,0,1-.275-.056c-.238-.1-.474-.207-.711-.321a15.651,15.651,0,0,1-4.6-3.436.884.884,0,0,1-.012-1.171.714.714,0,0,1,1.072-.013,14.165,14.165,0,0,0,4.152,3.107c.212.1.426.2.643.291a.855.855,0,0,1,.435,1.07A.768.768,0,0,1,585.056,117.534Zm17.81-1.151a.771.771,0,0,1-.723-.576.847.847,0,0,1,.493-1.042c1.893-.657,3.8-1.394,5.675-2.186a.739.739,0,0,1,.979.474.852.852,0,0,1-.432,1.072c-1.9.8-3.838,1.55-5.763,2.219A.694.694,0,0,1,602.866,116.383Zm57.462-.507h-.015a.8.8,0,0,1-.743-.845,51.3,51.3,0,0,1,.567-6.709.765.765,0,0,1,.87-.682.821.821,0,0,1,.625.951,50.085,50.085,0,0,0-.546,6.474A.794.794,0,0,1,660.328,115.876Zm11.19-2.006a.72.72,0,0,1-.509-.215.88.88,0,0,1-.052-1.169,56.326,56.326,0,0,0,3.752-5.076.718.718,0,0,1,1.058-.192.879.879,0,0,1,.174,1.156,57.577,57.577,0,0,1-3.862,5.225A.727.727,0,0,1,671.518,113.87ZM614.167,111.6a.756.756,0,0,1-.688-.482.864.864,0,0,1,.371-1.1c1.807-.908,3.62-1.893,5.387-2.926a.724.724,0,0,1,1.025.34.868.868,0,0,1-.309,1.121c-1.795,1.05-3.635,2.049-5.469,2.971A.7.7,0,0,1,614.167,111.6Zm-37.682-3a.757.757,0,0,1-.681-.462,24.381,24.381,0,0,1-1.9-6.528.821.821,0,0,1,.631-.946.77.77,0,0,1,.869.687,22.5,22.5,0,0,0,1.758,6.053.867.867,0,0,1-.344,1.11A.7.7,0,0,1,576.485,108.6Zm46.186-2.261a.8.8,0,0,1-.758-.808q-.011-.514-.011-1.028a54.226,54.226,0,0,1,.312-5.7.773.773,0,0,1,.84-.725.815.815,0,0,1,.667.917,51.819,51.819,0,0,0-.3,5.508q0,.494.011.989a.8.8,0,0,1-.74.848Zm2.18-.994a.746.746,0,0,1-.646-.394.874.874,0,0,1,.249-1.139c1.7-1.143,3.389-2.358,5.025-3.614a.721.721,0,0,1,1.057.2.878.878,0,0,1-.185,1.154c-1.66,1.274-3.377,2.507-5.1,3.668A.7.7,0,0,1,624.85,105.345Zm53.708-2.226a.7.7,0,0,1-.365-.1.868.868,0,0,1-.3-1.124c.612-1.216,1.185-2.463,1.7-3.71.3-.724.564-1.451.784-2.161a.744.744,0,0,1,.958-.52.847.847,0,0,1,.478,1.048c-.235.763-.517,1.544-.84,2.319-.532,1.283-1.124,2.57-1.754,3.822A.752.752,0,0,1,678.558,103.119Zm-16.268-.272a.677.677,0,0,1-.227-.038.846.846,0,0,1-.5-1.04,49.211,49.211,0,0,1,2.278-6.262.732.732,0,0,1,1.014-.384.866.866,0,0,1,.352,1.106,46.907,46.907,0,0,0-2.2,6.038A.768.768,0,0,1,662.289,102.847ZM634.77,97.737a.74.74,0,0,1-.594-.313.88.88,0,0,1,.122-1.163c1.569-1.366,3.115-2.8,4.591-4.248a.715.715,0,0,1,1.073.061.884.884,0,0,1-.058,1.169c-1.5,1.476-3.069,2.926-4.663,4.313A.717.717,0,0,1,634.77,97.737ZM574.532,95.7a.637.637,0,0,1-.079,0,.812.812,0,0,1-.676-.909,36.353,36.353,0,0,1,1.292-6.633.745.745,0,0,1,.952-.538.844.844,0,0,1,.493,1.038,34.47,34.47,0,0,0-1.228,6.3A.787.787,0,0,1,574.532,95.7Zm49.493-2.5a.7.7,0,0,1-.174-.023.834.834,0,0,1-.564-1,61.321,61.321,0,0,1,1.767-6.439.744.744,0,0,1,.972-.494.85.85,0,0,1,.452,1.062,59.854,59.854,0,0,0-1.716,6.253A.776.776,0,0,1,624.026,93.207ZM667.6,90.993a.711.711,0,0,1-.447-.159.879.879,0,0,1-.164-1.158,14.4,14.4,0,0,1,4.689-4.682.728.728,0,0,1,1.023.348.866.866,0,0,1-.318,1.118,12.931,12.931,0,0,0-4.172,4.193A.736.736,0,0,1,667.6,90.993Zm14.131-.4a.777.777,0,0,1-.74-.661,5.7,5.7,0,0,0-1.317-2.784,4.693,4.693,0,0,0-1.994-1.312.846.846,0,0,1-.492-1.04.745.745,0,0,1,.952-.538A6.175,6.175,0,0,1,680.756,86,7.345,7.345,0,0,1,682.47,89.6a.827.827,0,0,1-.587.979A.714.714,0,0,1,681.728,90.6Zm-37.951-1.721a.719.719,0,0,1-.531-.238.881.881,0,0,1-.009-1.171c1.4-1.56,2.777-3.185,4.081-4.826a.714.714,0,0,1,1.07-.083.882.882,0,0,1,.076,1.168c-1.325,1.669-2.721,3.317-4.146,4.9A.727.727,0,0,1,643.776,88.876ZM578.083,83.11a.7.7,0,0,1-.338-.088.867.867,0,0,1-.339-1.111q.268-.586.552-1.163a52.924,52.924,0,0,1,2.56-4.644.719.719,0,0,1,1.05-.224.874.874,0,0,1,.2,1.149c-.9,1.454-1.733,2.968-2.478,4.5q-.273.559-.534,1.124A.752.752,0,0,1,578.083,83.11Zm50.136-2.3a.69.69,0,0,1-.353-.1.867.867,0,0,1-.317-1.118,42.2,42.2,0,0,1,3.308-5.7.717.717,0,0,1,1.063-.161.881.881,0,0,1,.146,1.161,40.3,40.3,0,0,0-3.174,5.475A.752.752,0,0,1,628.219,80.806ZM651.6,78.777a.7.7,0,0,1-.4-.126.872.872,0,0,1-.243-1.139,14.28,14.28,0,0,0,1.807-4.839,8.835,8.835,0,0,0,.1-.944.792.792,0,0,1,.8-.78.8.8,0,0,1,.714.873,10.154,10.154,0,0,1-.118,1.136,15.988,15.988,0,0,1-2.013,5.43A.744.744,0,0,1,651.6,78.777ZM584.84,72.151a.719.719,0,0,1-.5-.205.882.882,0,0,1-.073-1.168A53.491,53.491,0,0,1,588.594,66a.714.714,0,0,1,1.07.065.886.886,0,0,1-.058,1.171,51.205,51.205,0,0,0-4.194,4.637A.732.732,0,0,1,584.84,72.151Zm50.73-1.78a.73.73,0,0,1-.57-.283.881.881,0,0,1,.071-1.169,25.556,25.556,0,0,1,5.146-3.836.733.733,0,0,1,1.02.359.867.867,0,0,1-.329,1.116,23.929,23.929,0,0,0-4.84,3.607A.72.72,0,0,1,635.571,70.371Zm16.223-3.918a.733.733,0,0,1-.567-.278,4.663,4.663,0,0,0-1.852-1.409,5.786,5.786,0,0,0-3-.265.775.775,0,0,1-.855-.707.819.819,0,0,1,.647-.934,7.161,7.161,0,0,1,3.735.354,6.21,6.21,0,0,1,2.456,1.86.883.883,0,0,1-.064,1.169A.718.718,0,0,1,651.793,66.453Zm-57.946-3.125a.744.744,0,0,1-.623-.354.878.878,0,0,1,.188-1.153,50.735,50.735,0,0,1,5.243-3.513.729.729,0,0,1,1.026.343.868.868,0,0,1-.312,1.12,49.191,49.191,0,0,0-5.089,3.407A.711.711,0,0,1,593.848,63.328Zm10.681-6.205a.761.761,0,0,1-.708-.532.853.853,0,0,1,.437-1.07,45.275,45.275,0,0,1,5.88-1.994.753.753,0,0,1,.914.609.832.832,0,0,1-.559,1,43.919,43.919,0,0,0-5.694,1.934A.705.705,0,0,1,604.528,57.122Z" transform="translate(-573.773 -53.502)" fill="#8d8cbe"/>
        </g>
        <g id="Grupo_98718" data-name="Grupo 98718" transform="translate(-236.213 0.447)">
          <g id="Grupo_98715" data-name="Grupo 98715" transform="translate(43.805)">
            <path id="Trazado_150447" data-name="Trazado 150447" d="M350.977,61.82a.769.769,0,0,1-.719-.56.849.849,0,0,1,.475-1.052c.976-.364,1.971-.691,2.959-.969a.75.75,0,0,1,.923.595.839.839,0,0,1-.544,1.009c-.949.268-1.909.581-2.85.932A.669.669,0,0,1,350.977,61.82Z" transform="translate(-350.218 -59.212)" fill="#8d8cbe"/>
          </g>
          <g id="Grupo_98716" data-name="Grupo 98716" transform="translate(0 3.56)">
            <path id="Trazado_150448" data-name="Trazado 150448" d="M353.321,219.1c-.023,0-.044,0-.064,0a29.048,29.048,0,0,1-6.115-1.242.844.844,0,0,1-.517-1.027.75.75,0,0,1,.94-.565,27.514,27.514,0,0,0,5.816,1.182.81.81,0,0,1,.693.893A.789.789,0,0,1,353.321,219.1ZM341.7,215.462a.7.7,0,0,1-.34-.088,36.115,36.115,0,0,1-5.289-3.537.879.879,0,0,1-.164-1.158.72.72,0,0,1,1.061-.176,34.555,34.555,0,0,0,5.069,3.388.867.867,0,0,1,.34,1.111A.754.754,0,0,1,341.7,215.462Zm-9.756-7.825a.725.725,0,0,1-.544-.252,38.975,38.975,0,0,1-3.919-5.252.876.876,0,0,1,.2-1.151.722.722,0,0,1,1.052.22,37.24,37.24,0,0,0,3.755,5.028.884.884,0,0,1-.017,1.171A.72.72,0,0,1,331.947,207.637ZM325.167,196.7a.76.76,0,0,1-.693-.494c-.133-.328-.259-.657-.38-.989a43.517,43.517,0,0,1-1.605-5.432.832.832,0,0,1,.553-1,.756.756,0,0,1,.919.6,41.685,41.685,0,0,0,1.54,5.212q.173.472.359.936a.859.859,0,0,1-.385,1.093A.709.709,0,0,1,325.167,196.7Zm-2.935-12.83a.787.787,0,0,1-.753-.757c-.1-1.305-.158-2.645-.158-3.983q0-1.384.074-2.771a.782.782,0,0,1,.8-.778.8.8,0,0,1,.712.874c-.047.891-.073,1.784-.071,2.673,0,1.292.05,2.584.152,3.842a.81.81,0,0,1-.69.9C322.276,183.867,322.255,183.868,322.232,183.868Zm.684-13.217a.644.644,0,0,1-.147-.017.827.827,0,0,1-.6-.97,57.811,57.811,0,0,1,1.563-6.522.742.742,0,0,1,.957-.527.844.844,0,0,1,.482,1.045,56.024,56.024,0,0,0-1.513,6.32A.78.78,0,0,1,322.916,170.651Zm3.79-12.586a.708.708,0,0,1-.323-.078.863.863,0,0,1-.362-1.1,57.056,57.056,0,0,1,2.962-5.907.721.721,0,0,1,1.044-.262.875.875,0,0,1,.238,1.143,56,56,0,0,0-2.874,5.733A.754.754,0,0,1,326.705,158.064Zm6.461-11.21a.72.72,0,0,1-.479-.185.88.88,0,0,1-.109-1.166,61.35,61.35,0,0,1,4.141-4.977.717.717,0,0,1,1.073.007.886.886,0,0,1-.006,1.173,59.307,59.307,0,0,0-4.034,4.844A.732.732,0,0,1,333.166,146.854Zm31.7-4.781q-.85,0-1.7-.031a.831.831,0,0,1,.053-1.654c1.516.055,3.039.03,4.551-.051q.714-.037,1.44-.1a.831.831,0,0,1,.115,1.651c-.5.043-.99.076-1.481.1C366.853,142.043,365.859,142.073,364.864,142.073Zm-7.7-.77a.686.686,0,0,1-.153-.017,24.951,24.951,0,0,1-5.284-1.8c-.22-.106-.435-.214-.65-.325a.86.86,0,0,1-.362-1.1.732.732,0,0,1,1.008-.4c.2.1.408.205.611.3a23.533,23.533,0,0,0,4.98,1.693.829.829,0,0,1,.593.975A.779.779,0,0,1,357.161,141.3Zm18.094-.5a.77.77,0,0,1-.729-.6.84.84,0,0,1,.524-1.022,14.955,14.955,0,0,0,5.2-2.7.716.716,0,0,1,1.061.162.881.881,0,0,1-.149,1.161,16.661,16.661,0,0,1-5.706,2.971A.685.685,0,0,1,375.254,140.8Zm-33.466-3.277a.732.732,0,0,1-.59-.308.882.882,0,0,1,.115-1.164c.9-.795,1.834-1.572,2.792-2.325a30.7,30.7,0,0,1-2.554-3.239.881.881,0,0,1,.153-1.159.716.716,0,0,1,1.061.166,28.673,28.673,0,0,0,2.6,3.264q.45-.338.908-.671a.722.722,0,0,1,1.052.232.877.877,0,0,1-.214,1.148c-.2.149-.408.3-.608.447.1.094.2.187.294.278a.881.881,0,0,1,.091,1.166.713.713,0,0,1-1.069.1c-.2-.186-.4-.376-.6-.568q-1.524,1.19-2.958,2.451A.711.711,0,0,1,341.788,137.525Zm42.507-4.794a.727.727,0,0,1-.253-.048.85.85,0,0,1-.461-1.057,11.649,11.649,0,0,0,.564-3.536,9.721,9.721,0,0,0-.312-2.488.839.839,0,0,1,.514-1.027.749.749,0,0,1,.94.563,11.42,11.42,0,0,1,.374,2.951,13.485,13.485,0,0,1-.65,4.087A.765.765,0,0,1,384.3,132.731Zm-32.4-2.552a.746.746,0,0,1-.664-.432.867.867,0,0,1,.3-1.123c1.766-1.055,3.615-2.059,5.5-2.983a.734.734,0,0,1,1,.416.86.86,0,0,1-.38,1.095c-1.846.908-3.659,1.891-5.39,2.926A.718.718,0,0,1,351.895,130.179Zm-12.885-5.028a.757.757,0,0,1-.682-.467,42.965,42.965,0,0,1-2.219-6.325.843.843,0,0,1,.517-1.027.746.746,0,0,1,.94.565,40.93,40.93,0,0,0,2.127,6.065.863.863,0,0,1-.352,1.106A.705.705,0,0,1,339.01,125.151Zm23.957-.424a.765.765,0,0,1-.712-.545.851.851,0,0,1,.453-1.062c1.9-.755,3.858-1.454,5.827-2.078a.752.752,0,0,1,.94.565.844.844,0,0,1-.517,1.027c-1.937.613-3.865,1.3-5.732,2.044A.719.719,0,0,1,362.967,124.727Zm17.677-3.286a.724.724,0,0,1-.277-.058,9.5,9.5,0,0,0-5.594-.311.774.774,0,0,1-.872-.681.823.823,0,0,1,.623-.952,10.805,10.805,0,0,1,6.4.4.856.856,0,0,1,.429,1.073A.764.764,0,0,1,380.643,121.441Zm-45.029-8.984a.785.785,0,0,1-.75-.727q-.066-.584-.117-1.168c-.12-1.373-.18-2.786-.18-4.193,0-.467.006-.931.02-1.394a.783.783,0,0,1,.782-.8.8.8,0,0,1,.734.855c-.014.447-.018.894-.02,1.343,0,1.353.059,2.711.174,4.036.03.374.07.747.111,1.12a.815.815,0,0,1-.659.922A.594.594,0,0,1,335.614,112.457Zm.359-13.226a.616.616,0,0,1-.133-.013.824.824,0,0,1-.614-.959,53.4,53.4,0,0,1,1.493-6.548.748.748,0,0,1,.954-.533.844.844,0,0,1,.49,1.042,51.362,51.362,0,0,0-1.443,6.328A.78.78,0,0,1,335.973,99.231Zm3.708-12.606a.69.69,0,0,1-.325-.081.863.863,0,0,1-.362-1.1,55.51,55.51,0,0,1,2.994-5.894.72.72,0,0,1,1.047-.252.876.876,0,0,1,.229,1.144,53.192,53.192,0,0,0-2.9,5.712A.759.759,0,0,1,339.681,86.625Zm6.533-11.159a.718.718,0,0,1-.485-.192.883.883,0,0,1-.1-1.166,51.544,51.544,0,0,1,4.246-4.892.713.713,0,0,1,1.07.043.881.881,0,0,1-.039,1.171,50.011,50.011,0,0,0-4.113,4.74A.734.734,0,0,1,346.215,75.466Zm8.9-9a.739.739,0,0,1-.618-.349.88.88,0,0,1,.18-1.154,43.927,43.927,0,0,1,5.278-3.509.732.732,0,0,1,1.022.356.869.869,0,0,1-.326,1.116,42.1,42.1,0,0,0-5.1,3.39A.71.71,0,0,1,355.11,66.465Z" transform="translate(-321.321 -61.361)" fill="#8d8cbe"/>
          </g>
          <g id="Grupo_98717" data-name="Grupo 98717" transform="translate(37.438 158.805)">
            <path id="Trazado_150449" data-name="Trazado 150449" d="M346.776,157.409a.785.785,0,0,1-.75-.712.819.819,0,0,1,.644-.936,24.368,24.368,0,0,0,2.885-.631.751.751,0,0,1,.925.593.837.837,0,0,1-.543,1.009,25.622,25.622,0,0,1-3.053.669A.827.827,0,0,1,346.776,157.409Z" transform="translate(-346.018 -155.102)" fill="#8d8cbe"/>
          </g>
        </g>
      </g>
    </g>
    <g id="Grupo_98563" data-name="Grupo 98563" transform="translate(-20 -249.367)">
      <circle id="Elipse_4744" data-name="Elipse 4744" cx="59.5" cy="59.5" r="59.5" transform="translate(759 12193)" fill="#ffa648"/>
      <circle id="Elipse_4749" data-name="Elipse 4749" cx="59.5" cy="59.5" r="59.5" transform="translate(671 12528)" fill="#ffa648"/>
      <circle id="Elipse_4745" data-name="Elipse 4745" cx="59.5" cy="59.5" r="59.5" transform="translate(915 12257)" fill="#ffa648"/>
      <circle id="Elipse_4750" data-name="Elipse 4750" cx="59.5" cy="59.5" r="59.5" transform="translate(847 12528)" fill="#ffa648"/>
      <circle id="Elipse_4748" data-name="Elipse 4748" cx="59.5" cy="59.5" r="59.5" transform="translate(956 12409)" fill="#ffa648"/>
      <circle id="Elipse_4746" data-name="Elipse 4746" cx="59.5" cy="59.5" r="59.5" transform="translate(600 12257)" fill="#ffa648"/>
      <circle id="Elipse_4747" data-name="Elipse 4747" cx="59.5" cy="59.5" r="59.5" transform="translate(566 12409)" fill="#ffa648"/>
      <path id="Unión_1" data-name="Unión 1" d="M8664.426,11721.666H8648v-17.789h16.425V11700l14.575,13-14.575,13Z" transform="translate(9483.002 24299) rotate(180)" fill="#ff6d60"/>
      <path id="Unión_2" data-name="Unión 2" d="M8664.426,11721.666H8648v-17.789h16.425V11700l14.575,13-14.575,13Z" transform="translate(-2232.94 26803.762) rotate(-132)" fill="#ff6d60"/>
      <path id="Unión_3" data-name="Unión 3" d="M8664.426,11721.666H8648v-17.789h16.425V11700l14.575,13-14.575,13Z" transform="translate(-11078.564 21052.5) rotate(-90)" fill="#ff6d60"/>
      <path id="Unión_4" data-name="Unión 4" d="M8664.426,11721.666H8648v-17.789h16.425V11700l14.575,13-14.575,13Z" transform="translate(-12719.729 6706.031) rotate(-31)" fill="#ff6d60"/>
      <path id="Unión_5" data-name="Unión 5" d="M8664.426,11721.666H8648v-17.789h16.425V11700l14.575,13-14.575,13Z" transform="translate(262.339 -2270.768) rotate(34)" fill="#ff6d60"/>
      <path id="Unión_6" data-name="Unión 6" d="M8664.426,11721.666H8648v-17.789h16.425V11700l14.575,13-14.575,13Z" transform="translate(10269.063 1153.154) rotate(76)" fill="#ff6d60"/>
      <path id="Unión_7" data-name="Unión 7" d="M8664.426,11721.666H8648v-17.789h16.425V11700l14.575,13-14.575,13Z" transform="matrix(-0.788, 0.616, -0.616, -0.788, 14997.175, 16423.756)" fill="#ff6d60"/>
      <path id="Trazado_151013" data-name="Trazado 151013" d="M5.722-4.526H4.052V0H.967V-12.8H6a5.621,5.621,0,0,1,3.56,1.01,3.421,3.421,0,0,1,1.283,2.853,4.155,4.155,0,0,1-.541,2.213A3.837,3.837,0,0,1,8.613-5.3L11.285-.132V0H7.98ZM4.052-6.9H6a1.751,1.751,0,0,0,1.323-.463A1.788,1.788,0,0,0,7.77-8.653a1.809,1.809,0,0,0-.448-1.3A1.735,1.735,0,0,0,6-10.424H4.052ZM17.174.176a4.889,4.889,0,0,1-3.542-1.305,4.507,4.507,0,0,1-1.354-3.4v-.246a5.84,5.84,0,0,1,.541-2.575A3.955,3.955,0,0,1,14.4-9.075a4.763,4.763,0,0,1,2.461-.611,4.117,4.117,0,0,1,3.164,1.244,4.887,4.887,0,0,1,1.16,3.467v1.151H15.293a2.135,2.135,0,0,0,.694,1.257,2.066,2.066,0,0,0,1.389.457,2.662,2.662,0,0,0,2.2-.984l1.354,1.6A3.784,3.784,0,0,1,19.358-.277,5.3,5.3,0,0,1,17.174.176ZM16.84-7.4q-1.3,0-1.547,1.723h2.988v-.229a1.467,1.467,0,0,0-.36-1.1A1.434,1.434,0,0,0,16.84-7.4Zm9.554,5.291a1.317,1.317,0,0,0,.967-.338,1.241,1.241,0,0,0,.334-.945h2.777A3.288,3.288,0,0,1,29.351-.826a4.168,4.168,0,0,1-2.887,1,4.22,4.22,0,0,1-3.27-1.3,5.125,5.125,0,0,1-1.2-3.6v-.123A5.792,5.792,0,0,1,22.531-7.4a3.872,3.872,0,0,1,1.534-1.7,4.573,4.573,0,0,1,2.373-.593,4.116,4.116,0,0,1,2.944,1.028,3.647,3.647,0,0,1,1.09,2.786H27.694A1.626,1.626,0,0,0,27.334-7a1.244,1.244,0,0,0-.967-.4q-1.151,0-1.345,1.468a10.357,10.357,0,0,0-.062,1.283A4.068,4.068,0,0,0,25.3-2.663,1.187,1.187,0,0,0,26.394-2.109ZM36.325.176a4.889,4.889,0,0,1-3.542-1.305,4.507,4.507,0,0,1-1.354-3.4v-.246a5.84,5.84,0,0,1,.541-2.575,3.955,3.955,0,0,1,1.578-1.727,4.763,4.763,0,0,1,2.461-.611,4.117,4.117,0,0,1,3.164,1.244,4.887,4.887,0,0,1,1.16,3.467v1.151H34.444a2.135,2.135,0,0,0,.694,1.257,2.066,2.066,0,0,0,1.389.457,2.662,2.662,0,0,0,2.2-.984l1.354,1.6A3.784,3.784,0,0,1,38.509-.277,5.3,5.3,0,0,1,36.325.176ZM35.991-7.4q-1.3,0-1.547,1.723h2.988v-.229a1.467,1.467,0,0,0-.36-1.1A1.434,1.434,0,0,0,35.991-7.4ZM50.353-4.685a5.735,5.735,0,0,1-1,3.538A3.2,3.2,0,0,1,46.661.176a2.742,2.742,0,0,1-2.153-.958V3.656H41.546V-9.51h2.769l.088.879a2.742,2.742,0,0,1,2.241-1.055,3.224,3.224,0,0,1,2.733,1.3,5.805,5.805,0,0,1,.976,3.564Zm-2.962-.185q0-2.531-1.477-2.531a1.394,1.394,0,0,0-1.406.756V-2.9a1.439,1.439,0,0,0,1.424.791q1.415,0,1.459-2.443Zm8.288,2.76a1.317,1.317,0,0,0,.967-.338,1.241,1.241,0,0,0,.334-.945h2.777A3.288,3.288,0,0,1,58.636-.826a4.168,4.168,0,0,1-2.887,1,4.22,4.22,0,0,1-3.27-1.3,5.125,5.125,0,0,1-1.2-3.6v-.123A5.792,5.792,0,0,1,51.816-7.4a3.872,3.872,0,0,1,1.534-1.7,4.573,4.573,0,0,1,2.373-.593,4.116,4.116,0,0,1,2.944,1.028,3.647,3.647,0,0,1,1.09,2.786H56.979A1.626,1.626,0,0,0,56.619-7a1.244,1.244,0,0,0-.967-.4q-1.151,0-1.345,1.468a10.357,10.357,0,0,0-.062,1.283,4.068,4.068,0,0,0,.343,1.986A1.187,1.187,0,0,0,55.679-2.109ZM64.134,0H61.163V-9.51h2.971ZM60.987-11.962A1.322,1.322,0,0,1,61.444-13a1.724,1.724,0,0,1,1.187-.4,1.724,1.724,0,0,1,1.187.4,1.322,1.322,0,0,1,.457,1.037,1.322,1.322,0,0,1-.457,1.037,1.724,1.724,0,0,1-1.187.4,1.724,1.724,0,0,1-1.187-.4A1.322,1.322,0,0,1,60.987-11.962Zm4.6,7.119a5.613,5.613,0,0,1,.554-2.536,3.96,3.96,0,0,1,1.591-1.709,4.791,4.791,0,0,1,2.435-.6,4.373,4.373,0,0,1,3.366,1.323,5.076,5.076,0,0,1,1.23,3.6v.105a4.925,4.925,0,0,1-1.235,3.529A4.384,4.384,0,0,1,70.181.176,4.434,4.434,0,0,1,66.92-1.042a4.761,4.761,0,0,1-1.327-3.3Zm2.962.185a3.538,3.538,0,0,0,.413,1.934,1.376,1.376,0,0,0,1.222.615q1.582,0,1.617-2.435v-.3Q71.8-7.4,70.163-7.4q-1.485,0-1.608,2.206ZM70.567-13.5H73.7l-2.443,2.76-2.417,0Zm8.218,3.99.1,1.116A3.225,3.225,0,0,1,81.6-9.686a2.713,2.713,0,0,1,2.219.888,4.226,4.226,0,0,1,.76,2.672V0H81.606V-6a1.6,1.6,0,0,0-.29-1.059A1.342,1.342,0,0,0,80.262-7.4a1.413,1.413,0,0,0-1.292.686V0H76.008V-9.51Z" transform="translate(777 12257)" fill="#12263f"/>
      <path id="Trazado_151014" data-name="Trazado 151014" d="M8.235-2.391H4.008L3.27,0h-3.3L4.667-12.8h2.9L12.3,0H8.982ZM4.746-4.772H7.5L6.117-9.211ZM15.39-9.51l.1,1.116A3.225,3.225,0,0,1,18.2-9.686a2.713,2.713,0,0,1,2.219.888,4.226,4.226,0,0,1,.76,2.672V0H18.211V-6a1.6,1.6,0,0,0-.29-1.059A1.342,1.342,0,0,0,16.866-7.4a1.413,1.413,0,0,0-1.292.686V0H12.612V-9.51ZM28.178,0A3.344,3.344,0,0,1,27.9-.853,2.754,2.754,0,0,1,25.611.176a3.374,3.374,0,0,1-2.285-.813,2.588,2.588,0,0,1-.94-2.043,2.66,2.66,0,0,1,1.143-2.338,5.821,5.821,0,0,1,3.322-.791h.914v-.5q0-1.316-1.134-1.316a.927.927,0,0,0-1.055,1.042H22.614a2.655,2.655,0,0,1,1.173-2.239,4.931,4.931,0,0,1,2.993-.86,4.323,4.323,0,0,1,2.874.888,3.086,3.086,0,0,1,1.081,2.435v4.21a4.311,4.311,0,0,0,.4,2V0ZM26.323-1.934a1.652,1.652,0,0,0,.918-.237,1.487,1.487,0,0,0,.523-.536V-4.228H26.9q-1.547,0-1.547,1.389a.848.848,0,0,0,.272.655A.986.986,0,0,0,26.323-1.934ZM27.062-13.5H30.19l-2.443,2.76-2.417,0ZM35.5,0H32.528V-13.5H35.5Zm4.948,0H37.477V-9.51h2.971ZM37.3-11.962A1.322,1.322,0,0,1,37.758-13a1.724,1.724,0,0,1,1.187-.4,1.724,1.724,0,0,1,1.187.4,1.322,1.322,0,0,1,.457,1.037,1.322,1.322,0,0,1-.457,1.037,1.724,1.724,0,0,1-1.187.4,1.724,1.724,0,0,1-1.187-.4A1.322,1.322,0,0,1,37.3-11.962Zm9.949,9.29a.684.684,0,0,0-.4-.606,6.016,6.016,0,0,0-1.5-.475A6.853,6.853,0,0,1,43.523-4.4a3.062,3.062,0,0,1-1.1-.971,2.319,2.319,0,0,1-.378-1.31,2.628,2.628,0,0,1,1.081-2.158,4.453,4.453,0,0,1,2.83-.848,4.934,4.934,0,0,1,3.023.853,2.666,2.666,0,0,1,1.143,2.241H47.153q0-1.143-1.2-1.143a1.194,1.194,0,0,0-.782.259.8.8,0,0,0-.316.646.737.737,0,0,0,.387.642,3.654,3.654,0,0,0,1.235.4,10.671,10.671,0,0,1,1.49.378A2.706,2.706,0,0,1,50.106-2.76,2.491,2.491,0,0,1,48.951-.642a5.068,5.068,0,0,1-2.993.817,5.172,5.172,0,0,1-2.18-.439,3.645,3.645,0,0,1-1.494-1.2,2.707,2.707,0,0,1-.536-1.591h2.769a1.145,1.145,0,0,0,.439.962,1.808,1.808,0,0,0,1.081.3,1.422,1.422,0,0,0,.91-.246A.787.787,0,0,0,47.25-2.672ZM54.615,0H51.645V-9.51h2.971ZM51.469-11.962A1.322,1.322,0,0,1,51.926-13a1.724,1.724,0,0,1,1.187-.4A1.724,1.724,0,0,1,54.3-13a1.322,1.322,0,0,1,.457,1.037,1.322,1.322,0,0,1-.457,1.037,1.724,1.724,0,0,1-1.187.4,1.724,1.724,0,0,1-1.187-.4A1.322,1.322,0,0,1,51.469-11.962Zm9.949,9.29a.684.684,0,0,0-.4-.606,6.016,6.016,0,0,0-1.5-.475A6.853,6.853,0,0,1,57.691-4.4a3.062,3.062,0,0,1-1.1-.971,2.319,2.319,0,0,1-.378-1.31A2.628,2.628,0,0,1,57.3-8.837a4.453,4.453,0,0,1,2.83-.848,4.934,4.934,0,0,1,3.023.853,2.666,2.666,0,0,1,1.143,2.241H61.321q0-1.143-1.2-1.143a1.194,1.194,0,0,0-.782.259.8.8,0,0,0-.316.646.737.737,0,0,0,.387.642,3.654,3.654,0,0,0,1.235.4,10.671,10.671,0,0,1,1.49.378A2.706,2.706,0,0,1,64.274-2.76,2.491,2.491,0,0,1,63.119-.642a5.068,5.068,0,0,1-2.993.817,5.172,5.172,0,0,1-2.18-.439,3.645,3.645,0,0,1-1.494-1.2,2.707,2.707,0,0,1-.536-1.591h2.769a1.145,1.145,0,0,0,.439.962,1.808,1.808,0,0,0,1.081.3,1.422,1.422,0,0,0,.91-.246A.787.787,0,0,0,61.418-2.672Z" transform="translate(943 12322)" fill="#12263f"/>
      <path id="Trazado_151015" data-name="Trazado 151015" d="M.967,0V-12.8H5.089a6.064,6.064,0,0,1,3.05.769,5.406,5.406,0,0,1,2.114,2.171,6.554,6.554,0,0,1,.769,3.142v.589a6.592,6.592,0,0,1-.743,3.151A5.429,5.429,0,0,1,8.187-.8a5.93,5.93,0,0,1-3.01.8ZM4.052-10.415v8.042H5.124a2.4,2.4,0,0,0,2.039-.945,4.63,4.63,0,0,0,.712-2.808V-6.68a4.592,4.592,0,0,0-.712-2.795,2.442,2.442,0,0,0-2.074-.94ZM15.592,0H12.621V-9.51h2.971ZM12.445-11.962A1.322,1.322,0,0,1,12.9-13a1.724,1.724,0,0,1,1.187-.4,1.724,1.724,0,0,1,1.187.4,1.322,1.322,0,0,1,.457,1.037,1.322,1.322,0,0,1-.457,1.037,1.724,1.724,0,0,1-1.187.4,1.724,1.724,0,0,1-1.187-.4A1.322,1.322,0,0,1,12.445-11.962Zm9.949,9.29a.684.684,0,0,0-.4-.606,6.016,6.016,0,0,0-1.5-.475A6.853,6.853,0,0,1,18.668-4.4a3.062,3.062,0,0,1-1.1-.971,2.319,2.319,0,0,1-.378-1.31,2.628,2.628,0,0,1,1.081-2.158,4.453,4.453,0,0,1,2.83-.848,4.934,4.934,0,0,1,3.023.853,2.666,2.666,0,0,1,1.143,2.241H22.3q0-1.143-1.2-1.143a1.194,1.194,0,0,0-.782.259A.8.8,0,0,0,20-6.829a.737.737,0,0,0,.387.642,3.654,3.654,0,0,0,1.235.4,10.671,10.671,0,0,1,1.49.378A2.706,2.706,0,0,1,25.251-2.76,2.491,2.491,0,0,1,24.1-.642,5.068,5.068,0,0,1,21.1.176a5.172,5.172,0,0,1-2.18-.439,3.645,3.645,0,0,1-1.494-1.2,2.707,2.707,0,0,1-.536-1.591h2.769a1.145,1.145,0,0,0,.439.962,1.808,1.808,0,0,0,1.081.3,1.422,1.422,0,0,0,.91-.246A.787.787,0,0,0,22.395-2.672Zm7.69-9.2V-9.51h1.564v2.057H30.085V-3.1a1.111,1.111,0,0,0,.193.747,1.037,1.037,0,0,0,.765.211,4.345,4.345,0,0,0,.738-.053V-.079a5.466,5.466,0,0,1-1.67.255,3.1,3.1,0,0,1-2.259-.721,2.954,2.954,0,0,1-.729-2.188v-4.72H25.91V-9.51h1.213v-2.364Zm8.481,5.045-.976-.07a1.752,1.752,0,0,0-1.793.879V0H32.836V-9.51h2.777l.1,1.222a2.294,2.294,0,0,1,2.083-1.4,2.888,2.888,0,0,1,.826.105ZM42.759,0H39.788V-9.51h2.971ZM39.612-11.962A1.322,1.322,0,0,1,40.069-13a1.724,1.724,0,0,1,1.187-.4,1.724,1.724,0,0,1,1.187.4,1.322,1.322,0,0,1,.457,1.037,1.322,1.322,0,0,1-.457,1.037,1.724,1.724,0,0,1-1.187.4,1.724,1.724,0,0,1-1.187-.4A1.322,1.322,0,0,1,39.612-11.962Zm13.8,7.286a5.8,5.8,0,0,1-.967,3.595A3.238,3.238,0,0,1,49.72.176,2.81,2.81,0,0,1,47.382-.976L47.259,0H44.6V-13.5h2.962v4.755a2.711,2.711,0,0,1,2.136-.94,3.239,3.239,0,0,1,2.742,1.274,5.826,5.826,0,0,1,.967,3.586ZM50.44-4.865a3.866,3.866,0,0,0-.365-1.952A1.229,1.229,0,0,0,48.955-7.4a1.418,1.418,0,0,0-1.389.763v3.773a1.426,1.426,0,0,0,1.406.755A1.258,1.258,0,0,0,50.3-3.127,7.309,7.309,0,0,0,50.44-4.865Zm9.94,3.836a3.054,3.054,0,0,1-2.54,1.2,3,3,0,0,1-2.369-.91,3.826,3.826,0,0,1-.8-2.615V-9.51H57.63v6.179a1.065,1.065,0,0,0,1.187,1.222,1.548,1.548,0,0,0,1.45-.729V-9.51h2.979V0H60.469Zm8.508-1.081a1.317,1.317,0,0,0,.967-.338,1.241,1.241,0,0,0,.334-.945h2.777A3.288,3.288,0,0,1,71.846-.826a4.168,4.168,0,0,1-2.887,1,4.22,4.22,0,0,1-3.27-1.3,5.125,5.125,0,0,1-1.2-3.6v-.123A5.792,5.792,0,0,1,65.026-7.4a3.872,3.872,0,0,1,1.534-1.7,4.573,4.573,0,0,1,2.373-.593,4.116,4.116,0,0,1,2.944,1.028,3.647,3.647,0,0,1,1.09,2.786H70.189A1.626,1.626,0,0,0,69.829-7a1.244,1.244,0,0,0-.967-.4q-1.151,0-1.345,1.468a10.357,10.357,0,0,0-.062,1.283A4.068,4.068,0,0,0,67.8-2.663,1.187,1.187,0,0,0,68.889-2.109ZM77.344,0H74.373V-9.51h2.971ZM74.2-11.962A1.322,1.322,0,0,1,74.654-13a1.724,1.724,0,0,1,1.187-.4,1.724,1.724,0,0,1,1.187.4,1.322,1.322,0,0,1,.457,1.037,1.322,1.322,0,0,1-.457,1.037,1.724,1.724,0,0,1-1.187.4,1.724,1.724,0,0,1-1.187-.4A1.322,1.322,0,0,1,74.2-11.962Zm4.6,7.119a5.613,5.613,0,0,1,.554-2.536,3.96,3.96,0,0,1,1.591-1.709,4.791,4.791,0,0,1,2.435-.6,4.373,4.373,0,0,1,3.366,1.323,5.076,5.076,0,0,1,1.23,3.6v.105a4.925,4.925,0,0,1-1.235,3.529A4.384,4.384,0,0,1,83.391.176,4.434,4.434,0,0,1,80.13-1.042a4.761,4.761,0,0,1-1.327-3.3Zm2.962.185a3.538,3.538,0,0,0,.413,1.934,1.376,1.376,0,0,0,1.222.615q1.582,0,1.617-2.435v-.3q0-2.558-1.635-2.558-1.485,0-1.608,2.206ZM83.777-13.5h3.129l-2.443,2.76-2.417,0ZM92-9.51l.1,1.116a3.225,3.225,0,0,1,2.716-1.292,2.713,2.713,0,0,1,2.219.888,4.226,4.226,0,0,1,.76,2.672V0H94.816V-6a1.6,1.6,0,0,0-.29-1.059A1.342,1.342,0,0,0,93.472-7.4a1.413,1.413,0,0,0-1.292.686V0H89.218V-9.51Z" transform="translate(967 12473)" fill="#12263f"/>
      <path id="Trazado_151019" data-name="Trazado 151019" d="M4.254,0H1.178V-12.8H4.254ZM8.982-9.51l.1,1.116a3.225,3.225,0,0,1,2.716-1.292,2.713,2.713,0,0,1,2.219.888,4.226,4.226,0,0,1,.76,2.672V0H11.8V-6a1.6,1.6,0,0,0-.29-1.059A1.342,1.342,0,0,0,10.459-7.4a1.413,1.413,0,0,0-1.292.686V0H6.205V-9.51ZM16.04-4.825a5.809,5.809,0,0,1,.976-3.56,3.211,3.211,0,0,1,2.725-1.3,2.731,2.731,0,0,1,2.145,1V-13.5h2.971V0H22.192l-.149-1.02a2.8,2.8,0,0,1-2.32,1.2,3.205,3.205,0,0,1-2.689-1.3A5.993,5.993,0,0,1,16.04-4.825ZM19-4.641q0,2.531,1.477,2.531a1.458,1.458,0,0,0,1.406-.826V-6.557A1.419,1.419,0,0,0,20.5-7.4q-1.371,0-1.485,2.215ZM29.663,0H26.692V-9.51h2.971ZM26.517-11.962A1.322,1.322,0,0,1,26.974-13a1.724,1.724,0,0,1,1.187-.4,1.724,1.724,0,0,1,1.187.4,1.322,1.322,0,0,1,.457,1.037,1.322,1.322,0,0,1-.457,1.037,1.724,1.724,0,0,1-1.187.4,1.724,1.724,0,0,1-1.187-.4A1.322,1.322,0,0,1,26.517-11.962Zm8.991,9.853a1.317,1.317,0,0,0,.967-.338,1.241,1.241,0,0,0,.334-.945h2.777A3.288,3.288,0,0,1,38.465-.826a4.168,4.168,0,0,1-2.887,1,4.22,4.22,0,0,1-3.27-1.3,5.125,5.125,0,0,1-1.2-3.6v-.123A5.792,5.792,0,0,1,31.645-7.4a3.872,3.872,0,0,1,1.534-1.7,4.573,4.573,0,0,1,2.373-.593A4.116,4.116,0,0,1,38.5-8.657a3.647,3.647,0,0,1,1.09,2.786H36.809A1.626,1.626,0,0,0,36.448-7a1.244,1.244,0,0,0-.967-.4q-1.151,0-1.345,1.468a10.357,10.357,0,0,0-.062,1.283,4.068,4.068,0,0,0,.343,1.986A1.187,1.187,0,0,0,35.508-2.109ZM46.2,0a3.344,3.344,0,0,1-.281-.853A2.754,2.754,0,0,1,43.629.176a3.374,3.374,0,0,1-2.285-.813,2.588,2.588,0,0,1-.94-2.043,2.66,2.66,0,0,1,1.143-2.338,5.821,5.821,0,0,1,3.322-.791h.914v-.5q0-1.316-1.134-1.316a.927.927,0,0,0-1.055,1.042H40.632a2.655,2.655,0,0,1,1.173-2.239,4.931,4.931,0,0,1,2.993-.86,4.323,4.323,0,0,1,2.874.888,3.086,3.086,0,0,1,1.081,2.435v4.21a4.311,4.311,0,0,0,.4,2V0ZM44.341-1.934a1.652,1.652,0,0,0,.918-.237,1.487,1.487,0,0,0,.523-.536V-4.228h-.861q-1.547,0-1.547,1.389a.848.848,0,0,0,.272.655A.986.986,0,0,0,44.341-1.934Zm5.678-2.892a5.809,5.809,0,0,1,.976-3.56,3.211,3.211,0,0,1,2.725-1.3,2.731,2.731,0,0,1,2.145,1V-13.5h2.971V0H56.171l-.149-1.02A2.8,2.8,0,0,1,53.7.176a3.205,3.205,0,0,1-2.689-1.3A5.993,5.993,0,0,1,50.019-4.825Zm2.962.185q0,2.531,1.477,2.531a1.458,1.458,0,0,0,1.406-.826V-6.557A1.419,1.419,0,0,0,54.475-7.4q-1.371,0-1.485,2.215Zm7.163-.2A5.613,5.613,0,0,1,60.7-7.378a3.96,3.96,0,0,1,1.591-1.709,4.791,4.791,0,0,1,2.435-.6,4.373,4.373,0,0,1,3.366,1.323,5.076,5.076,0,0,1,1.23,3.6v.105a4.925,4.925,0,0,1-1.235,3.529A4.384,4.384,0,0,1,64.74.176a4.434,4.434,0,0,1-3.261-1.217,4.761,4.761,0,0,1-1.327-3.3Zm2.962.185a3.538,3.538,0,0,0,.413,1.934,1.376,1.376,0,0,0,1.222.615q1.582,0,1.617-2.435v-.3q0-2.558-1.635-2.558-1.485,0-1.608,2.206ZM76.377-6.829,75.4-6.9a1.752,1.752,0,0,0-1.793.879V0H70.646V-9.51h2.777l.1,1.222a2.294,2.294,0,0,1,2.083-1.4,2.888,2.888,0,0,1,.826.105Zm5.669,7A4.889,4.889,0,0,1,78.5-1.129a4.507,4.507,0,0,1-1.354-3.4v-.246a5.84,5.84,0,0,1,.541-2.575,3.955,3.955,0,0,1,1.578-1.727,4.763,4.763,0,0,1,2.461-.611,4.117,4.117,0,0,1,3.164,1.244,4.887,4.887,0,0,1,1.16,3.467v1.151H80.165a2.135,2.135,0,0,0,.694,1.257,2.066,2.066,0,0,0,1.389.457,2.662,2.662,0,0,0,2.2-.984l1.354,1.6A3.784,3.784,0,0,1,84.23-.277,5.3,5.3,0,0,1,82.046.176ZM81.712-7.4q-1.3,0-1.547,1.723h2.988v-.229a1.467,1.467,0,0,0-.36-1.1A1.434,1.434,0,0,0,81.712-7.4ZM92.224-2.672a.684.684,0,0,0-.4-.606,6.016,6.016,0,0,0-1.5-.475A6.853,6.853,0,0,1,88.5-4.4a3.062,3.062,0,0,1-1.1-.971,2.319,2.319,0,0,1-.378-1.31A2.628,2.628,0,0,1,88.1-8.837a4.453,4.453,0,0,1,2.83-.848,4.934,4.934,0,0,1,3.023.853A2.666,2.666,0,0,1,95.1-6.592H92.127q0-1.143-1.2-1.143a1.194,1.194,0,0,0-.782.259.8.8,0,0,0-.316.646.737.737,0,0,0,.387.642,3.654,3.654,0,0,0,1.235.4,10.671,10.671,0,0,1,1.49.378A2.706,2.706,0,0,1,95.08-2.76,2.491,2.491,0,0,1,93.924-.642a5.068,5.068,0,0,1-2.993.817,5.172,5.172,0,0,1-2.18-.439,3.645,3.645,0,0,1-1.494-1.2,2.707,2.707,0,0,1-.536-1.591H89.49a1.145,1.145,0,0,0,.439.962,1.808,1.808,0,0,0,1.081.3,1.422,1.422,0,0,0,.91-.246A.787.787,0,0,0,92.224-2.672Z" transform="translate(613 12322)" fill="#12263f"/>
      <path id="Trazado_151018" data-name="Trazado 151018" d="M7.567-3.4a1.268,1.268,0,0,0-.479-1.055,5.954,5.954,0,0,0-1.683-.782,16.147,16.147,0,0,1-1.969-.782Q.949-7.242.949-9.378a3.011,3.011,0,0,1,.62-1.876A4.008,4.008,0,0,1,3.322-12.52a6.823,6.823,0,0,1,2.549-.453,5.969,5.969,0,0,1,2.474.492,3.917,3.917,0,0,1,1.7,1.4A3.661,3.661,0,0,1,10.652-9H7.576A1.547,1.547,0,0,0,7.1-10.213a1.867,1.867,0,0,0-1.3-.431,2.106,2.106,0,0,0-1.305.365,1.119,1.119,0,0,0-.479.927,1.127,1.127,0,0,0,.527.892A6.65,6.65,0,0,0,6.4-7.633a11.36,11.36,0,0,1,2.18.918,3.663,3.663,0,0,1,2.074,3.3A3.125,3.125,0,0,1,9.387-.782,5.629,5.629,0,0,1,5.915.176,6.888,6.888,0,0,1,3.1-.382,4.247,4.247,0,0,1,1.2-1.912,3.985,3.985,0,0,1,.563-4.148H3.656a1.963,1.963,0,0,0,.532,1.516,2.513,2.513,0,0,0,1.727.488,1.985,1.985,0,0,0,1.208-.33A1.088,1.088,0,0,0,7.567-3.4ZM16.7.176a4.889,4.889,0,0,1-3.542-1.305,4.507,4.507,0,0,1-1.354-3.4v-.246a5.84,5.84,0,0,1,.541-2.575,3.955,3.955,0,0,1,1.578-1.727,4.763,4.763,0,0,1,2.461-.611,4.117,4.117,0,0,1,3.164,1.244,4.887,4.887,0,0,1,1.16,3.467v1.151H14.818a2.135,2.135,0,0,0,.694,1.257,2.066,2.066,0,0,0,1.389.457,2.662,2.662,0,0,0,2.2-.984l1.354,1.6A3.784,3.784,0,0,1,18.883-.277,5.3,5.3,0,0,1,16.7.176ZM16.365-7.4q-1.3,0-1.547,1.723h2.988v-.229a1.467,1.467,0,0,0-.36-1.1A1.434,1.434,0,0,0,16.365-7.4Zm5.186,2.575a6.421,6.421,0,0,1,.475-2.549,3.821,3.821,0,0,1,1.362-1.709,3.591,3.591,0,0,1,2.065-.6,2.855,2.855,0,0,1,2.32,1l.105-.826h2.689V-.36a4.009,4.009,0,0,1-.584,2.184,3.75,3.75,0,0,1-1.692,1.424,6.219,6.219,0,0,1-2.566.5,5.365,5.365,0,0,1-2.026-.4A3.657,3.657,0,0,1,22.2,2.32L23.44.58a2.716,2.716,0,0,0,2.18.976A1.764,1.764,0,0,0,27.589-.466v-.3a2.781,2.781,0,0,1-2.153.94,3.437,3.437,0,0,1-2.812-1.332A5.517,5.517,0,0,1,21.551-4.72Zm2.971.185a3.383,3.383,0,0,0,.439,1.85,1.386,1.386,0,0,0,1.23.681,1.573,1.573,0,0,0,1.4-.642v-4a1.534,1.534,0,0,0-1.38-.65,1.4,1.4,0,0,0-1.239.708A3.858,3.858,0,0,0,24.521-4.641ZM37.916-1.028a3.054,3.054,0,0,1-2.54,1.2,3,3,0,0,1-2.369-.91,3.826,3.826,0,0,1-.8-2.615V-9.51h2.962v6.179a1.065,1.065,0,0,0,1.187,1.222,1.548,1.548,0,0,0,1.45-.729V-9.51h2.979V0H38ZM45.527,0H42.557V-9.51h2.971ZM42.381-11.962A1.322,1.322,0,0,1,42.838-13a1.724,1.724,0,0,1,1.187-.4,1.724,1.724,0,0,1,1.187.4,1.322,1.322,0,0,1,.457,1.037,1.322,1.322,0,0,1-.457,1.037,1.724,1.724,0,0,1-1.187.4,1.724,1.724,0,0,1-1.187-.4A1.322,1.322,0,0,1,42.381-11.962ZM50.15-9.51l.1,1.116a3.27,3.27,0,0,1,2.716-1.292A2.407,2.407,0,0,1,55.4-8.253a3.165,3.165,0,0,1,2.795-1.433q2.892,0,2.971,3.5V0H58.192V-6a1.813,1.813,0,0,0-.246-1.063,1.048,1.048,0,0,0-.9-.334,1.4,1.4,0,0,0-1.31.782l.009.123V0H52.778V-5.985a1.906,1.906,0,0,0-.237-1.081,1.045,1.045,0,0,0-.905-.334,1.42,1.42,0,0,0-1.3.782V0H47.373V-9.51ZM65.979,0H63.009V-9.51h2.971ZM62.833-11.962A1.322,1.322,0,0,1,63.29-13a1.724,1.724,0,0,1,1.187-.4,1.724,1.724,0,0,1,1.187.4,1.322,1.322,0,0,1,.457,1.037,1.322,1.322,0,0,1-.457,1.037,1.724,1.724,0,0,1-1.187.4,1.724,1.724,0,0,1-1.187-.4A1.322,1.322,0,0,1,62.833-11.962ZM72.4.176a4.889,4.889,0,0,1-3.542-1.305,4.507,4.507,0,0,1-1.354-3.4v-.246a5.84,5.84,0,0,1,.541-2.575,3.955,3.955,0,0,1,1.578-1.727,4.763,4.763,0,0,1,2.461-.611,4.117,4.117,0,0,1,3.164,1.244,4.887,4.887,0,0,1,1.16,3.467v1.151H70.523a2.135,2.135,0,0,0,.694,1.257,2.066,2.066,0,0,0,1.389.457,2.662,2.662,0,0,0,2.2-.984l1.354,1.6A3.784,3.784,0,0,1,74.588-.277,5.3,5.3,0,0,1,72.4.176ZM72.07-7.4q-1.3,0-1.547,1.723h2.988v-.229a1.467,1.467,0,0,0-.36-1.1A1.434,1.434,0,0,0,72.07-7.4ZM80.323-9.51l.1,1.116a3.225,3.225,0,0,1,2.716-1.292,2.713,2.713,0,0,1,2.219.888,4.226,4.226,0,0,1,.76,2.672V0H83.145V-6a1.6,1.6,0,0,0-.29-1.059A1.342,1.342,0,0,0,81.8-7.4a1.413,1.413,0,0,0-1.292.686V0H77.546V-9.51ZM91.2-11.874V-9.51h1.564v2.057H91.2V-3.1a1.111,1.111,0,0,0,.193.747,1.037,1.037,0,0,0,.765.211A4.345,4.345,0,0,0,92.9-2.2V-.079a5.466,5.466,0,0,1-1.67.255,3.1,3.1,0,0,1-2.259-.721,2.954,2.954,0,0,1-.729-2.188v-4.72H87.029V-9.51h1.213v-2.364ZM93.3-4.843a5.613,5.613,0,0,1,.554-2.536A3.96,3.96,0,0,1,95.44-9.088a4.791,4.791,0,0,1,2.435-.6,4.373,4.373,0,0,1,3.366,1.323,5.076,5.076,0,0,1,1.23,3.6v.105a4.925,4.925,0,0,1-1.235,3.529A4.384,4.384,0,0,1,97.893.176a4.434,4.434,0,0,1-3.261-1.217,4.761,4.761,0,0,1-1.327-3.3Zm2.962.185a3.538,3.538,0,0,0,.413,1.934,1.376,1.376,0,0,0,1.222.615q1.582,0,1.617-2.435v-.3q0-2.558-1.635-2.558-1.485,0-1.608,2.206Z" transform="translate(575 12473)" fill="#12263f"/>
      <path id="Trazado_151017" data-name="Trazado 151017" d="M5.722-4.526H4.052V0H.967V-12.8H6a5.621,5.621,0,0,1,3.56,1.01,3.421,3.421,0,0,1,1.283,2.853,4.155,4.155,0,0,1-.541,2.213A3.837,3.837,0,0,1,8.613-5.3L11.285-.132V0H7.98ZM4.052-6.9H6a1.751,1.751,0,0,0,1.323-.463A1.788,1.788,0,0,0,7.77-8.653a1.809,1.809,0,0,0-.448-1.3A1.735,1.735,0,0,0,6-10.424H4.052ZM17.174.176a4.889,4.889,0,0,1-3.542-1.305,4.507,4.507,0,0,1-1.354-3.4v-.246a5.84,5.84,0,0,1,.541-2.575A3.955,3.955,0,0,1,14.4-9.075a4.763,4.763,0,0,1,2.461-.611,4.117,4.117,0,0,1,3.164,1.244,4.887,4.887,0,0,1,1.16,3.467v1.151H15.293a2.135,2.135,0,0,0,.694,1.257,2.066,2.066,0,0,0,1.389.457,2.662,2.662,0,0,0,2.2-.984l1.354,1.6A3.784,3.784,0,0,1,19.358-.277,5.3,5.3,0,0,1,17.174.176ZM16.84-7.4q-1.3,0-1.547,1.723h2.988v-.229a1.467,1.467,0,0,0-.36-1.1A1.434,1.434,0,0,0,16.84-7.4ZM27.352-2.672a.684.684,0,0,0-.4-.606,6.016,6.016,0,0,0-1.5-.475A6.853,6.853,0,0,1,23.625-4.4a3.062,3.062,0,0,1-1.1-.971,2.319,2.319,0,0,1-.378-1.31,2.628,2.628,0,0,1,1.081-2.158,4.453,4.453,0,0,1,2.83-.848,4.934,4.934,0,0,1,3.023.853,2.666,2.666,0,0,1,1.143,2.241H27.255q0-1.143-1.2-1.143a1.194,1.194,0,0,0-.782.259.8.8,0,0,0-.316.646.737.737,0,0,0,.387.642,3.654,3.654,0,0,0,1.235.4,10.671,10.671,0,0,1,1.49.378A2.706,2.706,0,0,1,30.208-2.76,2.491,2.491,0,0,1,29.052-.642,5.068,5.068,0,0,1,26.06.176a5.172,5.172,0,0,1-2.18-.439,3.645,3.645,0,0,1-1.494-1.2A2.707,2.707,0,0,1,21.85-3.05h2.769a1.145,1.145,0,0,0,.439.962,1.808,1.808,0,0,0,1.081.3,1.422,1.422,0,0,0,.91-.246A.787.787,0,0,0,27.352-2.672ZM40.421-4.685a5.735,5.735,0,0,1-1,3.538A3.2,3.2,0,0,1,36.729.176a2.742,2.742,0,0,1-2.153-.958V3.656H31.614V-9.51h2.769l.088.879a2.742,2.742,0,0,1,2.241-1.055,3.224,3.224,0,0,1,2.733,1.3,5.805,5.805,0,0,1,.976,3.564Zm-2.962-.185q0-2.531-1.477-2.531a1.394,1.394,0,0,0-1.406.756V-2.9A1.439,1.439,0,0,0,36-2.109q1.415,0,1.459-2.443Zm9.932,3.841a3.054,3.054,0,0,1-2.54,1.2,3,3,0,0,1-2.369-.91,3.826,3.826,0,0,1-.8-2.615V-9.51H44.64v6.179a1.065,1.065,0,0,0,1.187,1.222,1.548,1.548,0,0,0,1.45-.729V-9.51h2.979V0H47.479Zm9.088,1.2a4.889,4.889,0,0,1-3.542-1.305,4.507,4.507,0,0,1-1.354-3.4v-.246a5.84,5.84,0,0,1,.541-2.575A3.955,3.955,0,0,1,53.7-9.075a4.763,4.763,0,0,1,2.461-.611,4.117,4.117,0,0,1,3.164,1.244,4.887,4.887,0,0,1,1.16,3.467v1.151H54.6a2.135,2.135,0,0,0,.694,1.257,2.066,2.066,0,0,0,1.389.457,2.662,2.662,0,0,0,2.2-.984l1.354,1.6A3.784,3.784,0,0,1,58.663-.277,5.3,5.3,0,0,1,56.479.176ZM56.145-7.4q-1.3,0-1.547,1.723h2.988v-.229a1.467,1.467,0,0,0-.36-1.1A1.434,1.434,0,0,0,56.145-7.4ZM66.656-2.672a.684.684,0,0,0-.4-.606,6.016,6.016,0,0,0-1.5-.475A6.853,6.853,0,0,1,62.93-4.4a3.062,3.062,0,0,1-1.1-.971,2.319,2.319,0,0,1-.378-1.31,2.628,2.628,0,0,1,1.081-2.158,4.453,4.453,0,0,1,2.83-.848,4.934,4.934,0,0,1,3.023.853A2.666,2.666,0,0,1,69.53-6.592H66.56q0-1.143-1.2-1.143a1.194,1.194,0,0,0-.782.259.8.8,0,0,0-.316.646.737.737,0,0,0,.387.642,3.654,3.654,0,0,0,1.235.4,10.671,10.671,0,0,1,1.49.378A2.706,2.706,0,0,1,69.513-2.76,2.491,2.491,0,0,1,68.357-.642a5.068,5.068,0,0,1-2.993.817,5.172,5.172,0,0,1-2.18-.439,3.645,3.645,0,0,1-1.494-1.2,2.707,2.707,0,0,1-.536-1.591h2.769a1.145,1.145,0,0,0,.439.962,1.808,1.808,0,0,0,1.081.3,1.422,1.422,0,0,0,.91-.246A.787.787,0,0,0,66.656-2.672Zm7.69-9.2V-9.51h1.564v2.057H74.347V-3.1a1.111,1.111,0,0,0,.193.747,1.037,1.037,0,0,0,.765.211,4.345,4.345,0,0,0,.738-.053V-.079a5.466,5.466,0,0,1-1.67.255,3.1,3.1,0,0,1-2.259-.721,2.954,2.954,0,0,1-.729-2.188v-4.72H70.172V-9.51h1.213v-2.364ZM82.433,0a3.344,3.344,0,0,1-.281-.853A2.754,2.754,0,0,1,79.866.176a3.374,3.374,0,0,1-2.285-.813,2.588,2.588,0,0,1-.94-2.043,2.66,2.66,0,0,1,1.143-2.338,5.821,5.821,0,0,1,3.322-.791h.914v-.5q0-1.316-1.134-1.316a.927.927,0,0,0-1.055,1.042H76.869a2.655,2.655,0,0,1,1.173-2.239,4.931,4.931,0,0,1,2.993-.86,4.323,4.323,0,0,1,2.874.888A3.086,3.086,0,0,1,84.99-6.363v4.21a4.311,4.311,0,0,0,.4,2V0ZM80.578-1.934a1.652,1.652,0,0,0,.918-.237,1.487,1.487,0,0,0,.523-.536V-4.228h-.861q-1.547,0-1.547,1.389a.848.848,0,0,0,.272.655A.986.986,0,0,0,80.578-1.934Z" transform="translate(689 12593)" fill="#12263f"/>
      <path id="Trazado_151016" data-name="Trazado 151016" d="M11.443-1.582A4.96,4.96,0,0,1,9.36-.308,8.984,8.984,0,0,1,6.354.176,5.36,5.36,0,0,1,2.338-1.362,6.226,6.226,0,0,1,.729-5.643L.721-6.75a7.637,7.637,0,0,1,.668-3.3A4.96,4.96,0,0,1,3.3-12.221a5.407,5.407,0,0,1,2.878-.76,5.669,5.669,0,0,1,3.713,1.094,4.637,4.637,0,0,1,1.542,3.265H8.464a2.426,2.426,0,0,0-.686-1.529,2.212,2.212,0,0,0-1.494-.457,2.013,2.013,0,0,0-1.793.984A5.256,5.256,0,0,0,3.85-6.812v.773A5.145,5.145,0,0,0,4.5-3.16,2.316,2.316,0,0,0,6.565-2.2a2.592,2.592,0,0,0,1.793-.536V-4.72H6.214V-6.838h5.229ZM17.7.176a4.889,4.889,0,0,1-3.542-1.305,4.507,4.507,0,0,1-1.354-3.4v-.246a5.84,5.84,0,0,1,.541-2.575,3.955,3.955,0,0,1,1.578-1.727,4.763,4.763,0,0,1,2.461-.611,4.117,4.117,0,0,1,3.164,1.244,4.887,4.887,0,0,1,1.16,3.467v1.151H15.82a2.135,2.135,0,0,0,.694,1.257,2.066,2.066,0,0,0,1.389.457,2.662,2.662,0,0,0,2.2-.984l1.354,1.6A3.784,3.784,0,0,1,19.885-.277,5.3,5.3,0,0,1,17.7.176ZM17.367-7.4q-1.3,0-1.547,1.723h2.988v-.229a1.467,1.467,0,0,0-.36-1.1A1.434,1.434,0,0,0,17.367-7.4ZM27.879-2.672a.684.684,0,0,0-.4-.606,6.016,6.016,0,0,0-1.5-.475A6.853,6.853,0,0,1,24.152-4.4a3.062,3.062,0,0,1-1.1-.971,2.319,2.319,0,0,1-.378-1.31,2.628,2.628,0,0,1,1.081-2.158,4.453,4.453,0,0,1,2.83-.848,4.934,4.934,0,0,1,3.023.853,2.666,2.666,0,0,1,1.143,2.241H27.782q0-1.143-1.2-1.143a1.194,1.194,0,0,0-.782.259.8.8,0,0,0-.316.646.737.737,0,0,0,.387.642,3.654,3.654,0,0,0,1.235.4,10.671,10.671,0,0,1,1.49.378A2.706,2.706,0,0,1,30.735-2.76,2.491,2.491,0,0,1,29.58-.642a5.068,5.068,0,0,1-2.993.817,5.172,5.172,0,0,1-2.18-.439,3.645,3.645,0,0,1-1.494-1.2,2.707,2.707,0,0,1-.536-1.591h2.769a1.145,1.145,0,0,0,.439.962,1.808,1.808,0,0,0,1.081.3,1.422,1.422,0,0,0,.91-.246A.787.787,0,0,0,27.879-2.672Zm7.69-9.2V-9.51h1.564v2.057H35.569V-3.1a1.111,1.111,0,0,0,.193.747,1.037,1.037,0,0,0,.765.211,4.345,4.345,0,0,0,.738-.053V-.079A5.466,5.466,0,0,1,35.6.176a3.1,3.1,0,0,1-2.259-.721,2.954,2.954,0,0,1-.729-2.188v-4.72H31.395V-9.51h1.213v-2.364ZM41.423,0H38.452V-9.51h2.971ZM38.276-11.962A1.322,1.322,0,0,1,38.733-13a1.724,1.724,0,0,1,1.187-.4,1.724,1.724,0,0,1,1.187.4,1.322,1.322,0,0,1,.457,1.037,1.322,1.322,0,0,1-.457,1.037,1.724,1.724,0,0,1-1.187.4,1.724,1.724,0,0,1-1.187-.4A1.322,1.322,0,0,1,38.276-11.962Zm4.6,7.119a5.613,5.613,0,0,1,.554-2.536,3.96,3.96,0,0,1,1.591-1.709,4.791,4.791,0,0,1,2.435-.6,4.373,4.373,0,0,1,3.366,1.323,5.076,5.076,0,0,1,1.23,3.6v.105a4.925,4.925,0,0,1-1.235,3.529A4.384,4.384,0,0,1,47.47.176a4.434,4.434,0,0,1-3.261-1.217,4.761,4.761,0,0,1-1.327-3.3Zm2.962.185a3.538,3.538,0,0,0,.413,1.934,1.376,1.376,0,0,0,1.222.615q1.582,0,1.617-2.435v-.3q0-2.558-1.635-2.558-1.485,0-1.608,2.206ZM47.856-13.5h3.129l-2.443,2.76-2.417,0Zm8.218,3.99.1,1.116a3.225,3.225,0,0,1,2.716-1.292,2.713,2.713,0,0,1,2.219.888,4.226,4.226,0,0,1,.76,2.672V0H58.9V-6a1.6,1.6,0,0,0-.29-1.059A1.342,1.342,0,0,0,57.551-7.4a1.413,1.413,0,0,0-1.292.686V0H53.3V-9.51Z" transform="translate(874 12593)" fill="#12263f"/>
    </g>
  </g>
</svg>
