<svg xmlns="http://www.w3.org/2000/svg" width="294.779" height="255.287" viewBox="0 0 294.779 255.287">
  <g id="Grupo_100494" data-name="Grupo 100494" transform="translate(-1125.221 -3696.979)">
    <path id="Trazado_147706" data-name="Trazado 147706" d="M614.985,497.5,541.291,369.86l73.694-127.643H762.372l73.7,127.643L762.372,497.5Z" transform="translate(583.93 3454.762)" fill="#ff6d60"/>
    <path id="Trazado_151012" data-name="Trazado 151012" d="M-48.784-3.779a1.408,1.408,0,0,0-.532-1.172,6.615,6.615,0,0,0-1.87-.869,17.942,17.942,0,0,1-2.187-.869q-2.764-1.357-2.764-3.73a3.345,3.345,0,0,1,.688-2.085A4.453,4.453,0,0,1-53.5-13.911a7.582,7.582,0,0,1,2.832-.5,6.632,6.632,0,0,1,2.749.547,4.352,4.352,0,0,1,1.89,1.558A4.068,4.068,0,0,1-45.356-10h-3.418a1.719,1.719,0,0,0-.532-1.348,2.075,2.075,0,0,0-1.44-.479,2.339,2.339,0,0,0-1.45.405,1.243,1.243,0,0,0-.532,1.03,1.252,1.252,0,0,0,.586.991,7.389,7.389,0,0,0,2.061.918,12.623,12.623,0,0,1,2.422,1.021,4.07,4.07,0,0,1,2.3,3.662,3.472,3.472,0,0,1-1.406,2.93A6.255,6.255,0,0,1-50.62.2a7.653,7.653,0,0,1-3.13-.62,4.719,4.719,0,0,1-2.109-1.7,4.428,4.428,0,0,1-.708-2.485h3.438a2.181,2.181,0,0,0,.591,1.685,2.793,2.793,0,0,0,1.919.542,2.206,2.206,0,0,0,1.343-.366A1.209,1.209,0,0,0-48.784-3.779ZM-38.638.2a5.432,5.432,0,0,1-3.936-1.45,5.008,5.008,0,0,1-1.5-3.774V-5.3a6.489,6.489,0,0,1,.6-2.861,4.395,4.395,0,0,1,1.753-1.919,5.292,5.292,0,0,1,2.734-.679A4.574,4.574,0,0,1-35.474-9.38a5.43,5.43,0,0,1,1.289,3.853v1.279h-6.543a2.372,2.372,0,0,0,.771,1.4,2.3,2.3,0,0,0,1.543.508,2.958,2.958,0,0,0,2.441-1.094l1.5,1.777A4.2,4.2,0,0,1-36.211-.308,5.891,5.891,0,0,1-38.638.2Zm-.371-8.418q-1.445,0-1.719,1.914h3.32v-.254a1.63,1.63,0,0,0-.4-1.226A1.593,1.593,0,0,0-39.009-8.223Zm5.762,2.861a7.134,7.134,0,0,1,.527-2.832,4.245,4.245,0,0,1,1.514-1.9,3.99,3.99,0,0,1,2.295-.669,3.173,3.173,0,0,1,2.578,1.113l.117-.918h2.988V-.4a4.455,4.455,0,0,1-.649,2.427,4.167,4.167,0,0,1-1.88,1.582,6.91,6.91,0,0,1-2.852.552,5.961,5.961,0,0,1-2.251-.439,4.063,4.063,0,0,1-1.665-1.143L-31.147.645a3.018,3.018,0,0,0,2.422,1.084A1.96,1.96,0,0,0-26.538-.518V-.85A3.09,3.09,0,0,1-28.931.2a3.819,3.819,0,0,1-3.125-1.479,6.13,6.13,0,0,1-1.191-3.96Zm3.3.205A3.759,3.759,0,0,0-29.458-3.1a1.541,1.541,0,0,0,1.367.757,1.748,1.748,0,0,0,1.553-.713V-7.5a1.7,1.7,0,0,0-1.533-.723,1.551,1.551,0,0,0-1.377.786A4.287,4.287,0,0,0-29.946-5.156Zm14.883,4.014A3.393,3.393,0,0,1-17.886.2,3.328,3.328,0,0,1-20.518-.815a4.251,4.251,0,0,1-.894-2.905v-6.846h3.291V-3.7A1.183,1.183,0,0,0-16.8-2.344a1.72,1.72,0,0,0,1.611-.811v-7.412h3.311V0h-3.086ZM-6.606,0h-3.3V-10.566h3.3Zm-3.5-13.291a1.469,1.469,0,0,1,.508-1.152,1.916,1.916,0,0,1,1.318-.449,1.916,1.916,0,0,1,1.318.449,1.469,1.469,0,0,1,.508,1.152,1.469,1.469,0,0,1-.508,1.152,1.916,1.916,0,0,1-1.318.449,1.916,1.916,0,0,1-1.318-.449A1.469,1.469,0,0,1-10.1-13.291Zm8.633,2.725.107,1.24a3.633,3.633,0,0,1,3.018-1.436A2.675,2.675,0,0,1,4.36-9.17a3.517,3.517,0,0,1,3.105-1.592q3.213,0,3.3,3.887V0h-3.3V-6.67a2.014,2.014,0,0,0-.273-1.182,1.164,1.164,0,0,0-1-.371,1.559,1.559,0,0,0-1.455.869l.01.137V0H1.45V-6.65a2.117,2.117,0,0,0-.264-1.2A1.161,1.161,0,0,0,.181-8.223a1.578,1.578,0,0,0-1.445.869V0H-4.556V-10.566ZM16.118,0h-3.3V-10.566h3.3Zm-3.5-13.291a1.469,1.469,0,0,1,.508-1.152,1.916,1.916,0,0,1,1.318-.449,1.916,1.916,0,0,1,1.318.449,1.469,1.469,0,0,1,.508,1.152,1.469,1.469,0,0,1-.508,1.152,1.916,1.916,0,0,1-1.318.449,1.916,1.916,0,0,1-1.318-.449A1.469,1.469,0,0,1,12.622-13.291ZM23.257.2a5.432,5.432,0,0,1-3.936-1.45,5.008,5.008,0,0,1-1.5-3.774V-5.3a6.489,6.489,0,0,1,.6-2.861,4.395,4.395,0,0,1,1.753-1.919,5.292,5.292,0,0,1,2.734-.679A4.574,4.574,0,0,1,26.421-9.38,5.43,5.43,0,0,1,27.71-5.527v1.279H21.167a2.372,2.372,0,0,0,.771,1.4,2.3,2.3,0,0,0,1.543.508,2.958,2.958,0,0,0,2.441-1.094l1.5,1.777A4.2,4.2,0,0,1,25.684-.308,5.891,5.891,0,0,1,23.257.2Zm-.371-8.418q-1.445,0-1.719,1.914h3.32v-.254a1.63,1.63,0,0,0-.4-1.226A1.593,1.593,0,0,0,22.886-8.223Zm9.17-2.344.107,1.24a3.583,3.583,0,0,1,3.018-1.436,3.015,3.015,0,0,1,2.466.986,4.7,4.7,0,0,1,.845,2.969V0h-3.3V-6.67a1.783,1.783,0,0,0-.322-1.177A1.491,1.491,0,0,0,33.7-8.223a1.569,1.569,0,0,0-1.436.762V0H28.97V-10.566Zm12.09-2.627v2.627h1.738v2.285H44.146v4.834a1.234,1.234,0,0,0,.215.83,1.152,1.152,0,0,0,.85.234,4.828,4.828,0,0,0,.82-.059V-.088A6.074,6.074,0,0,1,44.175.2a3.448,3.448,0,0,1-2.51-.8,3.282,3.282,0,0,1-.811-2.432V-8.281H39.507v-2.285h1.348v-2.627ZM46.47-5.381A6.236,6.236,0,0,1,47.085-8.2a4.4,4.4,0,0,1,1.768-1.9,5.323,5.323,0,0,1,2.705-.664,4.858,4.858,0,0,1,3.74,1.47,5.64,5.64,0,0,1,1.367,4v.117a5.472,5.472,0,0,1-1.372,3.921A4.871,4.871,0,0,1,51.577.2a4.927,4.927,0,0,1-3.623-1.353,5.29,5.29,0,0,1-1.475-3.667Zm3.291.205a3.932,3.932,0,0,0,.459,2.148,1.529,1.529,0,0,0,1.357.684q1.758,0,1.8-2.705v-.332q0-2.842-1.816-2.842-1.65,0-1.787,2.451Z" transform="translate(1296.395 3884)" fill="#12263f"/>
    <path id="Trazado_151013" data-name="Trazado 151013" d="M-4.635-6.973A8.147,8.147,0,0,1-6.187-1.641,5.366,5.366,0,0,1-10.564.234a5.4,5.4,0,0,1-4.406-1.887,8.135,8.135,0,0,1-1.559-5.32V-10.09a8.147,8.147,0,0,1,1.553-5.332A5.379,5.379,0,0,1-10.588-17.3,5.381,5.381,0,0,1-6.193-15.41a8.155,8.155,0,0,1,1.559,5.332Zm-3.949-3.621a6.085,6.085,0,0,0-.48-2.748,1.606,1.606,0,0,0-1.523-.908,1.568,1.568,0,0,0-1.482.844,5.733,5.733,0,0,0-.5,2.555v4.359a6.131,6.131,0,0,0,.48,2.795,1.612,1.612,0,0,0,1.523.885,1.59,1.59,0,0,0,1.488-.861,5.853,5.853,0,0,0,.492-2.7ZM-2.35-8.335l1.043-8.728H8.666v3.07H1.9L1.518-10.6a4.658,4.658,0,0,1,1.107-.436,5.053,5.053,0,0,1,1.342-.188A5.006,5.006,0,0,1,7.875-9.721,6.066,6.066,0,0,1,9.24-5.5a6.055,6.055,0,0,1-.732,2.971A5.034,5.034,0,0,1,6.451-.48,6.493,6.493,0,0,1,3.322.234,6.987,6.987,0,0,1,.311-.427a5.4,5.4,0,0,1-2.2-1.815,4.41,4.41,0,0,1-.785-2.605H1.283a2.24,2.24,0,0,0,.6,1.485,1.9,1.9,0,0,0,1.418.55q1.992,0,1.992-2.947,0-2.725-2.437-2.725A2.432,2.432,0,0,0,.791-7.6Zm16.172,4.5a2.248,2.248,0,0,1,1.559.557A1.826,1.826,0,0,1,16-1.852a1.826,1.826,0,0,1-.621,1.424,2.248,2.248,0,0,1-1.559.557,2.229,2.229,0,0,1-1.564-.562,1.839,1.839,0,0,1-.615-1.418,1.839,1.839,0,0,1,.615-1.418A2.229,2.229,0,0,1,13.822-3.832Z" transform="translate(1213.08 3883)" fill="#12263f"/>
    <g id="Grupo_98616" data-name="Grupo 98616" transform="translate(732.647 3218.805)">
      <g id="Grupo_98596" data-name="Grupo 98596" transform="translate(474.729 517.885)">
        <path id="Trazado_150138" data-name="Trazado 150138" d="M1376.123,918.748l5.767,68.575s.6,4.157-2.488,4.164c-5.084.012-25.3,0-25.3,0s3.826-.865,3.78-2.812c-.054-2.295-6.741-70.576-6.741-70.576Z" transform="translate(-1292.73 -881.432)" fill="#4a75cb"/>
        <path id="Trazado_150139" data-name="Trazado 150139" d="M1335.8,977.906c1,0,20.313.063,25.264,0,2.158-.027,2.536-1.918,2.554-3.143a6.1,6.1,0,0,0-.066-1.021l-.15-1.782-.382-4.543-.337-4.014-.434-5.157-.366-4.353-4.1-48.727-24.985-.648s2.816,28.575,4.808,49.375c.223,2.318.434,4.54.63,6.614q.1.994.184,1.94c.185,1.968.353,3.775.5,5.371.077.841.149,1.623.213,2.338.254,2.805.4,4.6.405,4.937a2.867,2.867,0,0,1-.049.555C1339.077,977.834,1336.172,977.906,1335.8,977.906Z" transform="translate(-1276.068 -869.095)" fill="#afcdfb"/>
        <path id="Trazado_150140" data-name="Trazado 150140" d="M737.742,517.886H857.7L843.65,574.315l-1.924,7.728-6.543,26.283H713.626Z" transform="translate(-713.626 -517.886)" fill="#afcdfb"/>
        <path id="Trazado_150141" data-name="Trazado 150141" d="M2062.917,517.885l1.947.649-21.873,91.754-2.589-1.963Z" transform="translate(-1918.845 -517.885)" fill="#4a75cb"/>
        <path id="Trazado_150142" data-name="Trazado 150142" d="M837.776,1506.984H716.967l-3.336-1.963H835.187Z" transform="translate(-713.63 -1414.581)" fill="#4a75cb"/>
        <rect id="Rectángulo_35966" data-name="Rectángulo 35966" width="26.157" height="1.243" transform="translate(55.564 108.838)" fill="#4a75cb"/>
        <path id="Trazado_150143" data-name="Trazado 150143" d="M1392.675,1521.833l.135.95,24.928,5.036-.18-4.092-.5-2.359Z" transform="translate(-1330.462 -1429.432)" fill="#4a75cb"/>
        <path id="Trazado_150144" data-name="Trazado 150144" d="M1364.458,1628.734c1,0,20.412.034,25.364-.029,2.158-.027,2.536-1.918,2.554-3.143l-24.483-4.606c.254,2.8.4,4.6.405,4.937a2.873,2.873,0,0,1-.049.555C1367.838,1628.633,1364.833,1628.734,1364.458,1628.734Z" transform="translate(-1304.83 -1519.894)" fill="#699dee"/>
        <path id="Trazado_150145" data-name="Trazado 150145" d="M1474.815,1310.987l51.818,17.767,4.425-17.778Z" transform="translate(-1405.076 -1238.315)" fill="#699dee" opacity="0.2"/>
        <path id="Trazado_150146" data-name="Trazado 150146" d="M784.683,517.885H904.639L886.56,590.547,765.3,590.57Z" transform="translate(-760.566 -517.885)" fill="#699dee"/>
      </g>
      <path id="Trazado_150147" data-name="Trazado 150147" d="M1341.237,1379.516a4.11,4.11,0,0,1,3.855-3.228,2.583,2.583,0,0,1,2.6,3.228,4.111,4.111,0,0,1-3.855,3.228A2.583,2.583,0,0,1,1341.237,1379.516Z" transform="translate(-808.952 -779.758)" fill="#4a75cb"/>
      <path id="Trazado_150148" data-name="Trazado 150148" d="M826.167,626.023H938.482l12.719-50.67.975-3.886.832-3.314,1.951-7.772h-110.7l-2.142,7.772-.914,3.314-1.071,3.886Z" transform="translate(-341.127 -38.603)" fill="#fff"/>
      <path id="Trazado_150149" data-name="Trazado 150149" d="M1002.443,560.381h110.7l-1.951,7.772H1000.3Z" transform="translate(-499.307 -38.603)" fill="#afcdfb"/>
      <g id="Grupo_98597" data-name="Grupo 98597" transform="translate(600.576 524.319)">
        <path id="Trazado_150150" data-name="Trazado 150150" d="M2161.639,588.112a.734.734,0,0,1,.729.972,1.327,1.327,0,0,1-1.214.972.734.734,0,0,1-.729-.972A1.328,1.328,0,0,1,2161.639,588.112Z" transform="translate(-2153.691 -588.112)" fill="#e9f3fe"/>
        <path id="Trazado_150151" data-name="Trazado 150151" d="M2126.406,588.112a.734.734,0,0,1,.729.972,1.327,1.327,0,0,1-1.213.972.734.734,0,0,1-.729-.972A1.327,1.327,0,0,1,2126.406,588.112Z" transform="translate(-2121.686 -588.112)" fill="#e9f3fe"/>
        <path id="Trazado_150152" data-name="Trazado 150152" d="M2087.254,589.083a1.327,1.327,0,0,1,1.214-.972.734.734,0,0,1,.729.972,1.327,1.327,0,0,1-1.214.972A.734.734,0,0,1,2087.254,589.083Z" transform="translate(-2087.224 -588.112)" fill="#e9f3fe"/>
      </g>
      <g id="Grupo_98611" data-name="Grupo 98611" transform="translate(501.955 532.1)">
        <g id="Grupo_98608" data-name="Grupo 98608" transform="translate(0 42.82)">
          <g id="Grupo_98601" data-name="Grupo 98601" transform="translate(57.28)">
            <path id="Trazado_150153" data-name="Trazado 150153" d="M1641.018,1140.4a5.019,5.019,0,1,0,5.019,5.019A5.019,5.019,0,0,0,1641.018,1140.4Z" transform="translate(-1635.999 -1140.401)" fill="#aed3ff"/>
            <g id="Grupo_98598" data-name="Grupo 98598" transform="translate(13.202 2.215)">
              <path id="Trazado_150154" data-name="Trazado 150154" d="M1788.964,1164.58h-8.314a.549.549,0,0,0-.547.548h0a.549.549,0,0,0,.547.548h8.314a.549.549,0,0,0,.548-.548h0A.55.55,0,0,0,1788.964,1164.58Z" transform="translate(-1780.102 -1164.58)" fill="#599dad"/>
              <path id="Trazado_150155" data-name="Trazado 150155" d="M1788.964,1189.2h-8.314a.549.549,0,0,0-.547.548h0a.549.549,0,0,0,.547.548h8.314a.549.549,0,0,0,.548-.548h0A.55.55,0,0,0,1788.964,1189.2Z" transform="translate(-1780.102 -1186.945)" fill="#599dad"/>
              <path id="Trazado_150156" data-name="Trazado 150156" d="M1788.964,1213.823h-8.314a.548.548,0,0,0,0,1.1h8.314a.548.548,0,1,0,0-1.1Z" transform="translate(-1780.102 -1209.311)" fill="#599dad"/>
            </g>
            <path id="Trazado_150157" data-name="Trazado 150157" d="M1640.624,1148.824h4.6v-4.6A4.6,4.6,0,0,0,1640.624,1148.824Z" transform="translate(-1640.2 -1143.878)" fill="#86d1cd"/>
            <path id="Trazado_150158" data-name="Trazado 150158" d="M1649.814,1196h-9.19a4.6,4.6,0,0,0,4.6,4.6h0A4.6,4.6,0,0,0,1649.814,1196Z" transform="translate(-1640.2 -1190.906)" fill="#aed3ff"/>
            <g id="Grupo_98599" data-name="Grupo 98599" transform="translate(1.473 2.584)">
              <path id="Trazado_150159" data-name="Trazado 150159" d="M1654.832,1168.6h-2.494a.258.258,0,0,0,0,.516h2.494a.258.258,0,0,0,0-.516Z" transform="translate(-1652.08 -1168.6)" fill="#599dad"/>
              <path id="Trazado_150160" data-name="Trazado 150160" d="M1652.906,1178.847h-.568a.258.258,0,1,0,0,.516h.568a.258.258,0,1,0,0-.516Z" transform="translate(-1652.08 -1177.908)" fill="#599dad"/>
            </g>
            <g id="Grupo_98600" data-name="Grupo 98600" transform="translate(5.176 6.217)">
              <path id="Trazado_150161" data-name="Trazado 150161" d="M1695.244,1208.261h-2.494a.258.258,0,1,0,0,.516h2.494a.258.258,0,1,0,0-.516Z" transform="translate(-1692.492 -1208.261)" fill="#599dad"/>
              <path id="Trazado_150162" data-name="Trazado 150162" d="M1693.318,1218.508h-.568a.259.259,0,0,0-.258.258h0a.259.259,0,0,0,.258.258h.568a.259.259,0,0,0,.258-.258h0A.258.258,0,0,0,1693.318,1218.508Z" transform="translate(-1692.492 -1217.569)" fill="#599dad"/>
            </g>
          </g>
          <g id="Grupo_98604" data-name="Grupo 98604" transform="translate(28.764)">
            <path id="Trazado_150163" data-name="Trazado 150163" d="M1324.747,1145.42a5.019,5.019,0,1,1,5.019,5.019A5.019,5.019,0,0,1,1324.747,1145.42Z" transform="translate(-1324.747 -1140.401)" fill="#86d1cd"/>
            <g id="Grupo_98602" data-name="Grupo 98602" transform="translate(13.202 2.215)">
              <path id="Trazado_150164" data-name="Trazado 150164" d="M1469.4,1165.675h8.314a.548.548,0,0,0,0-1.1H1469.4a.548.548,0,1,0,0,1.1Z" transform="translate(-1468.85 -1164.579)" fill="#599dad"/>
              <path id="Trazado_150165" data-name="Trazado 150165" d="M1477.712,1189.2H1469.4a.548.548,0,1,0,0,1.1h8.314a.548.548,0,0,0,0-1.1Z" transform="translate(-1468.85 -1186.945)" fill="#599dad"/>
              <path id="Trazado_150166" data-name="Trazado 150166" d="M1477.712,1213.823H1469.4a.55.55,0,0,0-.548.548h0a.549.549,0,0,0,.548.548h8.314a.549.549,0,0,0,.548-.548h0A.549.549,0,0,0,1477.712,1213.823Z" transform="translate(-1468.85 -1209.311)" fill="#599dad"/>
            </g>
            <path id="Trazado_150167" data-name="Trazado 150167" d="M1333.967,1195.491l-4.595-.058c0,.019,0,.039,0,.058a4.6,4.6,0,0,0,7.061,3.878Z" transform="translate(-1328.948 -1190.391)" fill="#aed3ff"/>
            <g id="Grupo_98603" data-name="Grupo 98603" transform="translate(2.436 6.547)">
              <path id="Trazado_150168" data-name="Trazado 150168" d="M1354.091,1211.863H1351.6a.259.259,0,0,0-.258.258h0a.259.259,0,0,0,.258.258h2.494a.259.259,0,0,0,.258-.258h0A.259.259,0,0,0,1354.091,1211.863Z" transform="translate(-1351.339 -1211.863)" fill="#599dad"/>
              <path id="Trazado_150169" data-name="Trazado 150169" d="M1352.165,1222.11h-.568a.258.258,0,1,0,0,.516h.568a.258.258,0,1,0,0-.516Z" transform="translate(-1351.339 -1221.171)" fill="#599dad"/>
            </g>
          </g>
          <g id="Grupo_98607" data-name="Grupo 98607">
            <path id="Trazado_150170" data-name="Trazado 150170" d="M1010.8,1145.42a5.019,5.019,0,1,1,5.019,5.019A5.019,5.019,0,0,1,1010.8,1145.42Z" transform="translate(-1010.796 -1140.401)" fill="#aed3ff"/>
            <path id="Trazado_150171" data-name="Trazado 150171" d="M1020.017,1145.03a4.6,4.6,0,0,0-2.205,8.627c.736-1.364,2.205-4.032,2.205-4.032l2.176,4.048a4.6,4.6,0,0,0-2.176-8.643Z" transform="translate(-1014.998 -1144.606)" fill="#86d1cd"/>
            <g id="Grupo_98605" data-name="Grupo 98605" transform="translate(13.202 2.215)">
              <path id="Trazado_150172" data-name="Trazado 150172" d="M1163.761,1164.58h-8.314a.55.55,0,0,0-.548.548h0a.549.549,0,0,0,.548.548h8.314a.549.549,0,0,0,.548-.548h0A.549.549,0,0,0,1163.761,1164.58Z" transform="translate(-1154.899 -1164.58)" fill="#599dad"/>
              <path id="Trazado_150173" data-name="Trazado 150173" d="M1163.761,1189.2h-8.314a.548.548,0,1,0,0,1.1h8.314a.548.548,0,1,0,0-1.1Z" transform="translate(-1154.899 -1186.945)" fill="#599dad"/>
              <path id="Trazado_150174" data-name="Trazado 150174" d="M1163.761,1213.823h-8.314a.548.548,0,1,0,0,1.1h8.314a.548.548,0,1,0,0-1.1Z" transform="translate(-1154.899 -1209.311)" fill="#599dad"/>
            </g>
            <g id="Grupo_98606" data-name="Grupo 98606" transform="translate(2.436 2.824)">
              <path id="Trazado_150175" data-name="Trazado 150175" d="M1040.14,1171.228h-2.494a.258.258,0,1,0,0,.516h2.494a.258.258,0,1,0,0-.516Z" transform="translate(-1037.388 -1171.228)" fill="#599dad"/>
              <path id="Trazado_150176" data-name="Trazado 150176" d="M1038.214,1181.475h-.568a.259.259,0,0,0-.258.258h0a.259.259,0,0,0,.258.258h.568a.259.259,0,0,0,.258-.258h0A.259.259,0,0,0,1038.214,1181.475Z" transform="translate(-1037.388 -1180.536)" fill="#599dad"/>
            </g>
          </g>
        </g>
        <g id="Grupo_98609" data-name="Grupo 98609" transform="translate(36.354 7.861)">
          <path id="Trazado_150177" data-name="Trazado 150177" d="M1409.459,789.736h41.886a1.867,1.867,0,0,0,1.813-1.422l6.666-27.172a1.867,1.867,0,0,0-1.813-2.312h-41.756a1.867,1.867,0,0,0-1.811,1.414l-6.8,27.172A1.867,1.867,0,0,0,1409.459,789.736Z" transform="translate(-1407.591 -758.83)" fill="#d2e4ff"/>
          <path id="Trazado_150178" data-name="Trazado 150178" d="M1466.611,950.863s-6.562-5.031-12.412-.633-13.743.39-17.221,0c-6.047-.678-11.429,1.36-13.435,3.6l-1.682,6.73h42.369Z" transform="translate(-1420.553 -931.057)" fill="#86d1cd"/>
          <path id="Trazado_150179" data-name="Trazado 150179" d="M1852.5,823.376h.327l2.578-10.474h-.326Z" transform="translate(-1811.741 -807.948)" fill="#fff"/>
          <path id="Trazado_150180" data-name="Trazado 150180" d="M1700.384,872.41h.327l2.595-10.484h-.326Z" transform="translate(-1673.559 -852.481)" fill="#fff"/>
          <path id="Trazado_150181" data-name="Trazado 150181" d="M1562.352,846.55h.327l2.608-10.478h-.326Z" transform="translate(-1548.173 -828.995)" fill="#fff"/>
          <path id="Trazado_150182" data-name="Trazado 150182" d="M1834.439,825.03h2.5a.372.372,0,0,0,.339-.272h0a.207.207,0,0,0-.205-.272h-2.5a.371.371,0,0,0-.339.272h0A.206.206,0,0,0,1834.439,825.03Z" transform="translate(-1795.138 -818.471)" fill="#fff"/>
          <path id="Trazado_150183" data-name="Trazado 150183" d="M1831.8,835.724h2.5a.372.372,0,0,0,.339-.272h0a.207.207,0,0,0-.205-.272h-2.5a.372.372,0,0,0-.339.272h0A.207.207,0,0,0,1831.8,835.724Z" transform="translate(-1792.742 -828.185)" fill="#fff"/>
          <path id="Trazado_150184" data-name="Trazado 150184" d="M1682.249,883.284h2.5a.373.373,0,0,0,.34-.272h0a.207.207,0,0,0-.2-.272h-2.5a.373.373,0,0,0-.34.272h0A.207.207,0,0,0,1682.249,883.284Z" transform="translate(-1656.892 -871.387)" fill="#fff"/>
          <path id="Trazado_150185" data-name="Trazado 150185" d="M1679.649,893.77h2.5a.373.373,0,0,0,.34-.273h0a.207.207,0,0,0-.2-.273h-2.5a.373.373,0,0,0-.34.273h0A.207.207,0,0,0,1679.649,893.77Z" transform="translate(-1654.53 -880.912)" fill="#fff"/>
          <path id="Trazado_150186" data-name="Trazado 150186" d="M1546.262,840.181h2.5a.373.373,0,0,0,.34-.272h0a.206.206,0,0,0-.2-.272h-2.5a.373.373,0,0,0-.34.272h0A.206.206,0,0,0,1546.262,840.181Z" transform="translate(-1533.365 -832.233)" fill="#fff"/>
          <path id="Trazado_150187" data-name="Trazado 150187" d="M1543.65,850.66h2.5a.373.373,0,0,0,.34-.272h0a.206.206,0,0,0-.2-.272h-2.5a.373.373,0,0,0-.34.272h0A.206.206,0,0,0,1543.65,850.66Z" transform="translate(-1530.991 -841.751)" fill="#fff"/>
        </g>
        <path id="Trazado_150188" data-name="Trazado 150188" d="M1037.388,827.7h6.582l6.821-27.077h-6.4Z" transform="translate(-1034.952 -788.931)" fill="#86d1cd"/>
        <path id="Trazado_150189" data-name="Trazado 150189" d="M1128.937,901.223h6.582l4.9-19.661h-6.582Z" transform="translate(-1118.113 -862.456)" fill="#86d1cd"/>
        <path id="Trazado_150190" data-name="Trazado 150190" d="M1220.486,776.485h6.581l8.139-32.242h-6.582Z" transform="translate(-1201.275 -737.718)" fill="#86d1cd"/>
        <g id="Grupo_98610" data-name="Grupo 98610" transform="translate(28.843 4.508)">
          <path id="Trazado_150191" data-name="Trazado 150191" d="M1327.165,777.055a1.548,1.548,0,1,1,1.548-1.548A1.549,1.549,0,0,1,1327.165,777.055Zm0-2.5a.949.949,0,1,0,.949.949A.95.95,0,0,0,1327.165,774.559Z" transform="translate(-1325.617 -769.221)" fill="#2b478b"/>
          <path id="Trazado_150192" data-name="Trazado 150192" d="M1346.732,727.574a.3.3,0,0,1-.212-.511l4.827-4.827h52.977a.3.3,0,0,1,0,.6H1351.6l-4.651,4.651A.3.3,0,0,1,1346.732,727.574Z" transform="translate(-1344.525 -722.236)" fill="#2b478b"/>
        </g>
        <path id="Trazado_150193" data-name="Trazado 150193" d="M1465.283,676.357H1415.2a1.662,1.662,0,0,1-1.662-1.662h0a1.662,1.662,0,0,1,1.662-1.662h50.08a1.662,1.662,0,0,1,1.662,1.662h0A1.662,1.662,0,0,1,1465.283,676.357Z" transform="translate(-1376.642 -673.032)" fill="#86d1cd"/>
      </g>
      <g id="Grupo_98613" data-name="Grupo 98613" transform="translate(450.634 550.781)">
        <g id="Grupo_98612" data-name="Grupo 98612" transform="translate(0 3.114)">
          <path id="Trazado_150194" data-name="Trazado 150194" d="M557.722,1623.157l1.169,4.924,1.751-.01.064-4.914Z" transform="translate(-547.911 -1557.903)" fill="#e49963"/>
          <path id="Trazado_150195" data-name="Trazado 150195" d="M718.5,1619.022l3.327,4.714,1.3-1.665-2-3.7Z" transform="translate(-693.959 -1553.558)" fill="#e49963"/>
          <path id="Trazado_150196" data-name="Trazado 150196" d="M466.527,911.472a3.393,3.393,0,0,0-1.836-.351.858.858,0,0,1,.387-.184,2.846,2.846,0,0,0-1.016.265c-4.371-1.684-5.058,4.752-4.966,6.247s-1.469,1.983-3.743,3.161c-4.339,2.248-4.72,5.258-4.72,5.258.034.02.069.043.107.068.215-.365.658-1.05,1.032-1.153a15.5,15.5,0,0,0-.6,1.464c1.28.974,3.675,3.131,5.344,4.661a2.451,2.451,0,0,1,.114-.948l.206,1.242c.893.821,1.509,1.4,1.509,1.4-.11-1.208,5.465-7.585,8.373-9.494a8.406,8.406,0,0,0,.978-3.029,7.947,7.947,0,0,1-.6,2.74C469.563,920.552,468.129,912.383,466.527,911.472Z" transform="translate(-450.634 -910.923)" fill="#163560"/>
          <path id="Trazado_150197" data-name="Trazado 150197" d="M583.471,1002.247a4.029,4.029,0,0,1-2.472.451,3.207,3.207,0,0,1-1.646-1.578c.425-.084.548-.669.539-3.179l.192.038,3.232.64s-.074,1.017-.076,1.975C583.238,1001.4,583.286,1002.161,583.471,1002.247Z" transform="translate(-567.56 -989.968)" fill="#e49963"/>
          <path id="Trazado_150198" data-name="Trazado 150198" d="M584.41,920.674a2.583,2.583,0,0,1,3.6-.087A14,14,0,0,0,584.41,920.674Z" transform="translate(-572.154 -919.072)" fill="#e58638"/>
          <path id="Trazado_150199" data-name="Trazado 150199" d="M590.565,998.995s-.074,1.017-.076,1.975c-1.809-.051-2.764-1.7-3.156-2.615Z" transform="translate(-574.809 -990.345)" fill="#d68d5d"/>
          <path id="Trazado_150200" data-name="Trazado 150200" d="M571.763,928.678a9.507,9.507,0,0,1-1.175-2.778c-.162-.914.3-4.3,3.708-3.815a4.623,4.623,0,0,1,1.918.725c.739.5,1.806,1.577.613,4.534l-.31,1Z" transform="translate(-559.573 -921.02)" fill="#163560"/>
          <path id="Trazado_150201" data-name="Trazado 150201" d="M581.319,1277.116l-1.713.052-1.854.057a36.6,36.6,0,0,1-6.686-12.413q-.084-.266-.178-.539c-1.315-3.834-4.041-8.646-5.477-13-.229-.694-.434-1.347-.618-1.965q-.088-.3-.171-.584a46.2,46.2,0,0,1-1.648-8.673l10.372.083A193.352,193.352,0,0,0,581.319,1277.116Z" transform="translate(-552.682 -1209.895)" fill="#2b478b"/>
          <path id="Trazado_150202" data-name="Trazado 150202" d="M527.82,1042.627a23.268,23.268,0,0,0,.724,7.053,13.938,13.938,0,0,1-9.719.6c-.062-.02-4.37-1-4.37-1,.088-.2.874-3.526.96-3.709,1.114-2.393,1.96-3.442,2.093-4.178a15.651,15.651,0,0,0,.128-4.135,33.189,33.189,0,0,0-1.28-6.494,33.731,33.731,0,0,0,4.282-1.464,3.344,3.344,0,0,0,2.31.857c1.051-.023,1.392-.473,1.338-.965,1.12.623,2.014,1.212,2.014,1.212.952,1.654,2.884,3.26,3.023,5.8C529.358,1036.819,527.821,1042.489,527.82,1042.627Z" transform="translate(-508.608 -1018.35)" fill="#e7f1fd"/>
          <path id="Trazado_150203" data-name="Trazado 150203" d="M631.492,1035.294c-1.523-1.779-5.468-5.636-9.539-6.109l3.513,6.844a3.027,3.027,0,0,0,1.238,1.856,20.387,20.387,0,0,0,5.788,2.415,30.4,30.4,0,0,0,5.193-3.155,18,18,0,0,0,2.6-3.321l-.446-1.493s-2.809,1.57-3.812,2.023c-.572.258-1.888.875-2.815,1.31A1.447,1.447,0,0,1,631.492,1035.294Z" transform="translate(-606.257 -1018.35)" fill="#86d1cd"/>
          <path id="Trazado_150204" data-name="Trazado 150204" d="M586.27,943.659s-4.279.071-4.282-2.595-.557-4.451,2.174-4.609,3.264.859,3.481,1.748S587.383,943.571,586.27,943.659Z" transform="translate(-569.91 -934.101)" fill="#e49963"/>
          <path id="Trazado_150205" data-name="Trazado 150205" d="M572.472,930.255s-1.171,3.127-2.969,3.589a3.539,3.539,0,0,1-2.578-.019,8.954,8.954,0,0,0,1.07-3.161S571.588,928.766,572.472,930.255Z" transform="translate(-556.271 -927.966)" fill="#163560"/>
          <path id="Trazado_150206" data-name="Trazado 150206" d="M624.3,933.62A3.78,3.78,0,0,1,625.389,935c.213.679.309,2.076.716,2.029,0,0,.883-2.125-.109-3.328C624.945,932.422,624.3,933.62,624.3,933.62Z" transform="translate(-608.39 -931.077)" fill="#163560"/>
          <path id="Trazado_150207" data-name="Trazado 150207" d="M817.123,1044.72a2.671,2.671,0,0,1,2.993-1.867c.274.086,1.076.406.563,1.264-.377.633-.541.306-1.135,1.156a1.893,1.893,0,0,1-1.975.94Z" transform="translate(-783.546 -1030.739)" fill="#e49963"/>
          <path id="Trazado_150208" data-name="Trazado 150208" d="M567.36,1673.9a4.746,4.746,0,0,1-.223,2.019s-.287,1.306,1,1.33,1.6-.1,1.456-.9-.422-2.186-.422-2.186Z" transform="translate(-556.438 -1603.994)" fill="#e49963"/>
          <path id="Trazado_150209" data-name="Trazado 150209" d="M568.6,1697.488s-.027.017-.081.043H566a.573.573,0,0,1-.071-.043,6.313,6.313,0,0,1,.092-1.888c1.457,1.335,2.368-.033,2.368-.033A6.831,6.831,0,0,1,568.6,1697.488Z" transform="translate(-555.324 -1623.679)" fill="#e58638"/>
          <path id="Trazado_150210" data-name="Trazado 150210" d="M754.576,1662.7a32.192,32.192,0,0,1-3.1-3.971l-1.763.9,3.942,3.7.922-.121Z" transform="translate(-722.313 -1590.219)" fill="#e49963"/>
          <path id="Trazado_150211" data-name="Trazado 150211" d="M751.616,1673.026h-3.245a4.609,4.609,0,0,1-.967-1.5,1.59,1.59,0,0,0-1.074-.717V1673h-.673l-.637-2.33a2.144,2.144,0,0,1,.263-2.081c.343,0,1.268.234,3.019,2.208a2.3,2.3,0,0,0,1.843.86.15.15,0,0,0,.026.014A2.352,2.352,0,0,1,751.616,1673.026Z" transform="translate(-717.881 -1599.174)" fill="#e58638"/>
          <path id="Trazado_150212" data-name="Trazado 150212" d="M621.754,1029.185s2.476,6.115,2.548,7.353.291,20.239.291,20.239-.146.874,1.529.51a5.623,5.623,0,0,0,2.111-.728s-1.6-11.721-1.165-15.8-3.349-10.726-3.349-10.726Z" transform="translate(-606.076 -1018.35)" fill="#86d1cd"/>
          <path id="Trazado_150213" data-name="Trazado 150213" d="M595.942,1351.668l-1.854.057a36.6,36.6,0,0,1-6.686-12.413q-.084-.266-.178-.539c-1.315-3.834-4.041-8.646-5.477-13-.229-.694-.434-1.347-.618-1.965-.059-.2-.117-.393-.171-.584l1.527-1.159s4.586,7.426,6.005,14.414C589.724,1342.547,594.663,1349.852,595.942,1351.668Z" transform="translate(-569.018 -1284.395)" fill="#233862"/>
          <path id="Trazado_150214" data-name="Trazado 150214" d="M520.608,1317.588c.026,3.4-.146,11.212-.588,14.446h-1.642c-.908,0-1.361-.013-1.361-.013-1.11-5.624-1.9-10.278-2.475-14.288-.472-3.291-.891-6.112-1.214-8.541-.325-2.444-.55-4.491-.631-6.22-.012-.272-.022-.537-.027-.794s-.006-.51,0-.754l8.962-.874C521.514,1306.506,520.593,1315.613,520.608,1317.588Z" transform="translate(-506.981 -1264.855)" fill="#2b478b"/>
          <path id="Trazado_150215" data-name="Trazado 150215" d="M518.7,1356.043c-.908,0-1.361-.013-1.361-.013-1.11-5.624-1.9-10.278-2.475-14.287-.472-3.291-.891-6.112-1.214-8.541-.325-2.444-.55-4.49-.631-6.219l3.289,1.934s-2.1.74-1.3,6.346S517.583,1355.249,518.7,1356.043Z" transform="translate(-507.302 -1288.863)" fill="#233862"/>
          <path id="Trazado_150216" data-name="Trazado 150216" d="M499.28,1057.65a2.668,2.668,0,0,1-2.815,1.99,26.323,26.323,0,0,1-5.29-1.6s.933-2.949,2.094-6.824c1.405-4.691,3.144-10.738,3.964-14.552a23.609,23.609,0,0,0,.446-2.6l1.812-3.516s2.7,6.064,2.847,7.593S499.28,1057.65,499.28,1057.65Z" transform="translate(-487.461 -1019.586)" fill="#86d1cd"/>
          <path id="Trazado_150217" data-name="Trazado 150217" d="M517.989,1037.911l2.391-7.365a36.993,36.993,0,0,0-4.537,1.663,10.554,10.554,0,0,0-1.534,4.041s-.62,6.767.764,9.242c0,0,4.368.874,11.357-1.529v-1.6s-7.644.4-9.21.582Z" transform="translate(-508.35 -1019.586)" fill="#e49963"/>
          <path id="Trazado_150218" data-name="Trazado 150218" d="M519.943,1101.983c-.1,2.475-.68,7.28-5.873,9.853l-.042.019c1.405-4.691,3.144-10.737,3.964-14.552C518.946,1098.728,520,1100.62,519.943,1101.983Z" transform="translate(-508.22 -1080.227)" fill="#599dad"/>
          <path id="Trazado_150219" data-name="Trazado 150219" d="M518.078,1030.546s-4.433.313-5.5,2.691-1.408,10.29-.049,12.619a12.374,12.374,0,0,0,5.18-.086l.122-.023s1.056-2.584.109-3.094c0,0-2.791.146-2.5-.776S518.078,1030.546,518.078,1030.546Z" transform="translate(-506.048 -1019.586)" fill="#86d1cd"/>
          <path id="Trazado_150220" data-name="Trazado 150220" d="M639.424,1134.046a3.826,3.826,0,0,0,.739-1.492,1.622,1.622,0,0,1,1.584-1.45c1.051-.138,1.5-.153,1.5.143a7.846,7.846,0,0,1-2.367,3.6C639.372,1136.082,639.424,1134.046,639.424,1134.046Z" transform="translate(-622.127 -1110.845)" fill="#e49963"/>
        </g>
        <path id="Trazado_150221" data-name="Trazado 150221" d="M831.329,894.386a.2.2,0,0,0,.1-.029l28.037-17.048a.2.2,0,0,0-.21-.345l-28.037,17.048a.2.2,0,0,0,.105.375Z" transform="translate(-796.266 -876.933)" fill="#163560"/>
      </g>
      <g id="Grupo_98615" data-name="Grupo 98615" transform="translate(579.71 552.272)">
        <path id="Trazado_150222" data-name="Trazado 150222" d="M2165.939,1281.365a13.615,13.615,0,0,1-.472,2.6,9.334,9.334,0,0,1-1.749,2c-.448.26.274-1.744.182-2.134s-.369.712-.567.738-.147-.966-.154-1.327.962-1.252,1.3-2.02S2165.939,1281.365,2165.939,1281.365Z" transform="translate(-2135.354 -1245.395)" fill="#ffb27d"/>
        <path id="Trazado_150223" data-name="Trazado 150223" d="M1863.149,1027.7l-.5-.95a2.838,2.838,0,0,0-1.871-2.763,1.035,1.035,0,0,0-1.213.317c-.4.582.768.477.705,1.473a1.832,1.832,0,0,0,1.068,1.905l.544.63Z" transform="translate(-1859.477 -1011.937)" fill="#ffb27d"/>
        <path id="Trazado_150224" data-name="Trazado 150224" d="M1899.4,1037.266a16.8,16.8,0,0,1-11.844,11.86c-3.129.912-10.237-9.389-10.237-9.389s.25-.95,1.816-.731c0,0,6.921,4.582,7.792,5.08.773.442,5.858-5.677,8.176-6.664A5.916,5.916,0,0,1,1899.4,1037.266Z" transform="translate(-1875.682 -1023.77)" fill="#e58638"/>
        <g id="Grupo_98614" data-name="Grupo 98614" transform="translate(13.118 33.729)">
          <path id="Trazado_150225" data-name="Trazado 150225" d="M2204.275,1648.563s1.243,1.135,1,1.941-1.365,1.344-1.517,2.329-.758,1.523-1.3,1.523h-2.6s-.4-.693.569-.9,1.336-1.367,1.276-2.442a18.963,18.963,0,0,1,.091-2.509l2.062-.478Z" transform="translate(-2181.711 -1612.6)" fill="#233862"/>
          <path id="Trazado_150226" data-name="Trazado 150226" d="M2009.971,1676.017s.223,2.582-.323,2.851l-6.986-.014s0-.807,1.122-.985,3.094-.836,3.427-2.3S2009.971,1676.017,2009.971,1676.017Z" transform="translate(-2002.662 -1637.119)" fill="#233862"/>
          <path id="Trazado_150227" data-name="Trazado 150227" d="M2018.059,1281.543s.369,4.527.8,9.969c.589,7.392,1.3,16.471,1.366,18.191.121,2.987.607,7.765.607,7.765a3.857,3.857,0,0,0,3.457.657,77.065,77.065,0,0,0,2.641-14.036q.014-.177.028-.356c.546-7.346,1.395-22.815,1.395-22.815Z" transform="translate(-2016.648 -1279.124)" fill="#2b478b"/>
          <path id="Trazado_150228" data-name="Trazado 150228" d="M2018.059,1281.543s.369,4.527.8,9.969l8.072,12.576q.014-.177.028-.356c.546-7.346,1.395-22.815,1.395-22.815Z" transform="translate(-2016.648 -1279.124)" fill="#233862"/>
          <path id="Trazado_150229" data-name="Trazado 150229" d="M2036.425,1264.316s6.642,16.394,11.009,24.1,5.732,9.855,5.732,9.855,2.5-.986,2.729-1.657c0,0-1.67-14.874-4.594-18.5-1.653-2.049-3.594-8.2-3.685-10.347s-.592-6.405-.592-6.405Z" transform="translate(-2033.332 -1261.36)" fill="#2b478b"/>
        </g>
        <path id="Trazado_150230" data-name="Trazado 150230" d="M2061.563,963.881s-4.494,2.168-7.084,1.364a6.114,6.114,0,0,1,1.754-1.4c-.09-.52-.159-.971-.2-1.354a12.535,12.535,0,0,1-.109-1.383l1.734-1.364,1.644-1.3A6.625,6.625,0,0,0,2061.563,963.881Z" transform="translate(-2036.613 -952.46)" fill="#ffb27d"/>
        <path id="Trazado_150231" data-name="Trazado 150231" d="M2027.145,1030.912c.01.275-.578.589-.837.706a18.361,18.361,0,0,1-5.75,1.629,43.558,43.558,0,0,1-6.218-.275.406.406,0,0,1-.269-.108c-.07-.049-.119-2.943-.07-6.583,0-.147,0-.294.01-.442v-.049c.02-1.423.069-2.914.139-4.405a48.945,48.945,0,0,1,.837-8.183,8.875,8.875,0,0,1,2.81-4.415l.9-.785a4.308,4.308,0,0,0,2.79-.333c1.036-.5,2.152-1.04,2.332-.9,1.355.991,2.272,3.218,2.76,6.063a31.51,31.51,0,0,1,.409,5.4c0,.707-.02,1.433-.06,2.149a67.752,67.752,0,0,0,.139,9.213C2027.1,1030.156,2027.135,1030.6,2027.145,1030.912Z" transform="translate(-1999.826 -996.343)" fill="#ee9849"/>
        <path id="Trazado_150232" data-name="Trazado 150232" d="M2079.1,1091.066c-15.736-.031-2.9-17.076-2.9-17.076l2.549-.828a49.554,49.554,0,0,1,.3,5.765c0,.755-.015,1.53-.043,2.3C2078.83,1085.375,2079,1088.98,2079.1,1091.066Z" transform="translate(-2051.865 -1056.676)" fill="#e58638"/>
        <path id="Trazado_150233" data-name="Trazado 150233" d="M2073.655,972.777a5.954,5.954,0,0,1-3.3,2.649,12.509,12.509,0,0,1-.11-1.383l1.734-1.364Z" transform="translate(-2050.937 -965.398)" fill="#ed985f"/>
        <path id="Trazado_150234" data-name="Trazado 150234" d="M2053.325,917.671s4.287.7,4.689-1.934,1.227-4.32-1.493-4.879-3.407.367-3.758,1.215S2052.221,917.421,2053.325,917.671Z" transform="translate(-2034.805 -909.087)" fill="#ffb27d"/>
        <path id="Trazado_150235" data-name="Trazado 150235" d="M2045.837,894.669c.039-.044.129-.08.329-.091a.812.812,0,0,0-.373-.105,1,1,0,0,0-.668-.889.6.6,0,0,1,.291.432c-.554-.569-1.74-.982-5.026-.723-4.33.341-2.9,3.114-2.342,3.444s1.972-.576,3.016-.493,1.243,1.592,1.6,1.8.215-.159.694-.376.525.578.387,1.094.521,1.2.521,1.2l.665-.717a7.456,7.456,0,0,0,.99-4.4Z" transform="translate(-2021.069 -893.213)" fill="#2c3a64"/>
        <path id="Trazado_150236" data-name="Trazado 150236" d="M2100.95,1006.744a11.328,11.328,0,0,1,4.013,3.259c2.017,3.063,4.356,14.226,4.4,15.259s-1.707,8.332-1.707,8.332-1.775-.117-2.232-1.013c0,0,.354-7.5.13-7.98s-7.4-10.058-6.592-12.1S2100.95,1006.744,2100.95,1006.744Z" transform="translate(-2076.962 -996.343)" fill="#ee9849"/>
        <path id="Trazado_150237" data-name="Trazado 150237" d="M1880.84,1037.278s.148-.583-.257-.845-.776-.974-.946-.878c-.353.2.193.821.093,1.6C1879.695,1037.424,1880.327,1038.136,1880.84,1037.278Z" transform="translate(-1877.681 -1022.507)" fill="#ffb27d"/>
      </g>
    </g>
  </g>
</svg>
