<svg xmlns="http://www.w3.org/2000/svg" width="309.095" height="197.981" viewBox="0 0 309.095 197.981">
  <g id="Grupo_99204" data-name="Grupo 99204" transform="translate(-102.97 -70.672)">
    <g id="Background_Complete" data-name="Background Complete" transform="translate(140.269 70.672)">
      <g id="Grupo_99057" data-name="Grupo 99057" transform="translate(250.88 100.176)">
        <path id="Trazado_150704" data-name="Trazado 150704" d="M598.161,266.36l3.512,6.111,3.512,6.111,3.537-6.1,3.536-6.1-4.872-.01.047-23.56-4.353-.009-.047,23.56Z" transform="translate(-598.161 -242.809)" fill="#ffa648"/>
      </g>
      <g id="Grupo_99058" data-name="Grupo 99058" transform="translate(263.389 93.507)">
        <path id="Trazado_150705" data-name="Trazado 150705" d="M619.656,245.394l2.094,3.644,2.094,3.644,2.109-3.636,2.109-3.636-2.905-.006.028-14.05-2.6-.005-.028,14.05Z" transform="translate(-619.656 -231.35)" fill="#ffa648"/>
      </g>
      <g id="Grupo_99059" data-name="Grupo 99059" transform="translate(8.303)">
        <path id="Trazado_150706" data-name="Trazado 150706" d="M195.427,82.894l-3.512-6.111L188.4,70.672l-3.537,6.1-3.536,6.1,4.872.01-.047,23.56,4.353.009.047-23.56Z" transform="translate(-181.33 -70.672)" fill="#ffa648"/>
      </g>
      <g id="Grupo_99060" data-name="Grupo 99060" transform="translate(0 20.329)">
        <path id="Trazado_150707" data-name="Trazado 150707" d="M175.586,112.992l-2.123-3.694-2.123-3.694-2.138,3.686-2.138,3.686,2.945.006-.028,14.243,2.631.005.028-14.243Z" transform="translate(-167.063 -105.604)" fill="#ffa648"/>
      </g>
    </g>
    <g id="Windows" transform="translate(102.97 80.294)">
      <g id="Grupo_99092" data-name="Grupo 99092" transform="translate(68.766)">
        <g id="Grupo_99063" data-name="Grupo 99063" transform="translate(0.061 11.204)">
          <rect id="Rectángulo_36022" data-name="Rectángulo 36022" width="178.874" height="139.186" transform="translate(0.152 0.151)" fill="#fff"/>
          <g id="Grupo_99062" data-name="Grupo 99062">
            <g id="Grupo_99061" data-name="Grupo 99061">
              <path id="Trazado_150708" data-name="Trazado 150708" d="M400.264,245.8c0-1.042-.049-55.167-.125-139.186l.125.125-178.858.026h-.015l.151-.151c-.006,50.17-.011,97.623-.016,139.186l-.136-.136,178.873.136-178.873.136h-.136V245.8c0-41.563-.01-89.016-.016-139.186v-.151h.167l178.858.026h.125v.125C400.314,190.629,400.265,244.755,400.264,245.8Z" transform="translate(-221.239 -106.458)" fill="#263238"/>
            </g>
          </g>
        </g>
        <g id="Grupo_99091" data-name="Grupo 99091">
          <g id="Grupo_99065" data-name="Grupo 99065" transform="translate(49.246 71.27)">
            <g id="Grupo_99064" data-name="Grupo 99064">
              <path id="Trazado_150709" data-name="Trazado 150709" d="M305.907,277.255c-.084,0-.152-15.13-.152-33.79s.068-33.792.152-33.792.151,15.127.151,33.792S305.99,277.255,305.907,277.255Z" transform="translate(-305.755 -209.673)" fill="#263238"/>
            </g>
          </g>
          <g id="Grupo_99067" data-name="Grupo 99067" transform="translate(126.873 71.27)">
            <g id="Grupo_99066" data-name="Grupo 99066">
              <path id="Trazado_150710" data-name="Trazado 150710" d="M439.3,277.255c-.084,0-.151-15.13-.151-33.79s.067-33.792.151-33.792.152,15.127.152,33.792S439.381,277.255,439.3,277.255Z" transform="translate(-439.146 -209.673)" fill="#263238"/>
            </g>
          </g>
          <g id="Grupo_99069" data-name="Grupo 99069" transform="translate(75.748 52.455)">
            <g id="Grupo_99068" data-name="Grupo 99068">
              <path id="Trazado_150711" data-name="Trazado 150711" d="M351.445,263.739c-.083,0-.151-19.342-.151-43.2s.068-43.2.151-43.2.152,19.338.152,43.2S351.529,263.739,351.445,263.739Z" transform="translate(-351.294 -177.342)" fill="#263238"/>
            </g>
          </g>
          <g id="Grupo_99071" data-name="Grupo 99071" transform="translate(22.028 52.455)">
            <g id="Grupo_99070" data-name="Grupo 99070">
              <path id="Trazado_150712" data-name="Trazado 150712" d="M259.137,263.739c-.084,0-.152-19.342-.152-43.2s.068-43.2.152-43.2.151,19.338.151,43.2S259.22,263.739,259.137,263.739Z" transform="translate(-258.985 -177.342)" fill="#263238"/>
            </g>
          </g>
          <g id="Grupo_99073" data-name="Grupo 99073" transform="translate(157.342 52.455)">
            <g id="Grupo_99072" data-name="Grupo 99072">
              <path id="Trazado_150713" data-name="Trazado 150713" d="M491.654,263.739c-.084,0-.152-19.342-.152-43.2s.068-43.2.152-43.2.151,19.338.151,43.2S491.737,263.739,491.654,263.739Z" transform="translate(-491.502 -177.342)" fill="#263238"/>
            </g>
          </g>
          <g id="Grupo_99075" data-name="Grupo 99075" transform="translate(98.987 39.095)">
            <g id="Grupo_99074" data-name="Grupo 99074">
              <path id="Trazado_150714" data-name="Trazado 150714" d="M391.378,254.142c-.084,0-.151-22.333-.151-49.876s.068-49.881.151-49.881.151,22.328.151,49.881S391.462,254.142,391.378,254.142Z" transform="translate(-391.227 -154.384)" fill="#263238"/>
            </g>
          </g>
          <g id="Grupo_99076" data-name="Grupo 99076" transform="translate(48.763 70.637)">
            <path id="Trazado_150715" data-name="Trazado 150715" d="M306.194,209.218a.634.634,0,1,1-.634-.634A.634.634,0,0,1,306.194,209.218Z" transform="translate(-304.926 -208.584)" fill="#263238"/>
          </g>
          <g id="Grupo_99077" data-name="Grupo 99077" transform="translate(75.265 51.821)">
            <circle id="Elipse_4759" data-name="Elipse 4759" cx="0.634" cy="0.634" r="0.634" fill="#263238"/>
          </g>
          <g id="Grupo_99078" data-name="Grupo 99078" transform="translate(73.675 50.231)">
            <path id="Trazado_150716" data-name="Trazado 150716" d="M349.957,177.968a2.223,2.223,0,1,1,2.224-2.223A2.226,2.226,0,0,1,349.957,177.968Zm0-4.3a2.078,2.078,0,1,0,2.078,2.078A2.081,2.081,0,0,0,349.957,173.666Z" transform="translate(-347.733 -173.521)" fill="#263238"/>
          </g>
          <g id="Grupo_99079" data-name="Grupo 99079" transform="translate(98.504 38.461)">
            <circle id="Elipse_4760" data-name="Elipse 4760" cx="0.634" cy="0.634" r="0.634" fill="#263238"/>
          </g>
          <g id="Grupo_99080" data-name="Grupo 99080" transform="translate(126.391 71.27)">
            <circle id="Elipse_4761" data-name="Elipse 4761" cx="0.634" cy="0.634" r="0.634" fill="#263238"/>
          </g>
          <g id="Grupo_99081" data-name="Grupo 99081" transform="translate(156.875 51.821)">
            <circle id="Elipse_4762" data-name="Elipse 4762" cx="0.634" cy="0.634" r="0.634" fill="#263238"/>
          </g>
          <g id="Grupo_99082" data-name="Grupo 99082" transform="translate(21.545 52.455)">
            <path id="Trazado_150717" data-name="Trazado 150717" d="M259.424,177.976a.634.634,0,1,1-.634-.634A.634.634,0,0,1,259.424,177.976Z" transform="translate(-258.156 -177.342)" fill="#263238"/>
          </g>
          <g id="Grupo_99084" data-name="Grupo 99084" transform="translate(10.339 66.826)" style="isolation: isolate">
            <g id="Grupo_99083" data-name="Grupo 99083">
              <path id="Trazado_150718" data-name="Trazado 150718" d="M392.057,218.243a2.24,2.24,0,0,1-.5.162,10.777,10.777,0,0,0-1.439.493A13.857,13.857,0,0,0,385.5,222.4c-1.73,1.872-3.461,4.481-5.635,7.412a35.922,35.922,0,0,1-3.828,4.443,21.2,21.2,0,0,1-2.486,2.055,17.3,17.3,0,0,1-2.994,1.637,16.884,16.884,0,0,1-7.173,1.207,19.279,19.279,0,0,1-3.858-.484,10.071,10.071,0,0,1-3.734-1.643,12.1,12.1,0,0,1-2.915-3.041c-.805-1.166-1.528-2.4-2.227-3.652-1.393-2.52-2.839-5.057-4.485-7.6-1.615-2.581-3.112-5.3-4.784-7.975a38.2,38.2,0,0,0-5.857-7.557,17.02,17.02,0,0,0-3.934-2.818,13.066,13.066,0,0,0-4.674-1.369,16.447,16.447,0,0,0-9.694,2.073,24.566,24.566,0,0,0-7.379,6.881,76.317,76.317,0,0,0-5.274,8.481,86.421,86.421,0,0,1-5.11,8.3,40.785,40.785,0,0,1-6.186,7.052c-.588.5-1.166,1-1.795,1.428a20.543,20.543,0,0,1-1.9,1.242,16.527,16.527,0,0,1-4.121,1.7,13.655,13.655,0,0,1-2.155.4,7.4,7.4,0,0,1-1.082.063c-.36,0-.719.027-1.076.013a16.366,16.366,0,0,1-4.127-.765,27.959,27.959,0,0,1-6.976-3.645c-2.071-1.426-3.966-2.9-5.818-4.237a31.092,31.092,0,0,0-5.525-3.347,18.266,18.266,0,0,0-5.5-1.563,13.544,13.544,0,0,0-4.943.32,8.123,8.123,0,0,0-1.068.345,6.763,6.763,0,0,0-1,.393,12.812,12.812,0,0,0-1.746.968,18.561,18.561,0,0,0-2.627,2.1l-.914,1a8.314,8.314,0,0,0-.733.852l-.925,1.219a2.294,2.294,0,0,1-.342.4,2.211,2.211,0,0,1,.265-.452l.857-1.279a7.949,7.949,0,0,1,.706-.888l.893-1.043a18.14,18.14,0,0,1,2.625-2.208,13.063,13.063,0,0,1,1.774-1.03,7.072,7.072,0,0,1,1.022-.425,8.525,8.525,0,0,1,1.1-.374,13.906,13.906,0,0,1,5.108-.407,18.681,18.681,0,0,1,5.682,1.54,31.39,31.39,0,0,1,5.664,3.353c1.877,1.326,3.78,2.785,5.839,4.18a27.4,27.4,0,0,0,6.812,3.507,15.661,15.661,0,0,0,3.929.706c.338.011.677-.015,1.018-.019a6.849,6.849,0,0,0,1.023-.065,12.887,12.887,0,0,0,2.036-.391,18.523,18.523,0,0,0,7.468-4.222,40.124,40.124,0,0,0,6.028-6.924,86.153,86.153,0,0,0,5.042-8.23,76.6,76.6,0,0,1,5.326-8.587,25.4,25.4,0,0,1,7.657-7.132,17.318,17.318,0,0,1,10.233-2.181A13.952,13.952,0,0,1,332,203.584a17.9,17.9,0,0,1,4.139,2.972,38.868,38.868,0,0,1,5.984,7.745c1.68,2.706,3.169,5.432,4.758,7.991,1.634,2.547,3.1,5.148,4.472,7.656,1.395,2.475,2.755,4.964,4.883,6.471a9.339,9.339,0,0,0,3.468,1.549,18.65,18.65,0,0,0,3.712.49,16.273,16.273,0,0,0,6.9-1.1,16.687,16.687,0,0,0,2.892-1.547,20.711,20.711,0,0,0,2.433-1.97,35.919,35.919,0,0,0,3.822-4.331,92.38,92.38,0,0,1,5.781-7.346,13.476,13.476,0,0,1,4.808-3.434,8.49,8.49,0,0,1,1.487-.414A2.261,2.261,0,0,1,392.057,218.243Z" transform="translate(-238.9 -202.037)" fill="#ff6d60"/>
            </g>
          </g>
          <g id="Grupo_99085" data-name="Grupo 99085" transform="translate(21.546 26.979)">
            <rect id="Rectángulo_36023" data-name="Rectángulo 36023" width="31.188" height="1.735" fill="#263238"/>
          </g>
          <g id="Grupo_99086" data-name="Grupo 99086" transform="translate(21.546 31.04)">
            <rect id="Rectángulo_36024" data-name="Rectángulo 36024" width="15.412" height="1.735" fill="#263238"/>
          </g>
          <g id="Grupo_99087" data-name="Grupo 99087">
            <path id="Rectángulo_36025" data-name="Rectángulo 36025" d="M4.506,0H174.581a4.506,4.506,0,0,1,4.506,4.506v6.849a0,0,0,0,1,0,0H0a0,0,0,0,1,0,0V4.506A4.506,4.506,0,0,1,4.506,0Z" fill="#373660"/>
          </g>
          <g id="Grupo_99088" data-name="Grupo 99088" transform="translate(6.839 4.675)">
            <path id="Trazado_150719" data-name="Trazado 150719" d="M235.327,96.461a1.221,1.221,0,1,1-1.222-1.221A1.221,1.221,0,0,1,235.327,96.461Z" transform="translate(-232.885 -95.24)" fill="#fff"/>
          </g>
          <g id="Grupo_99089" data-name="Grupo 99089" transform="translate(12.171 4.675)">
            <path id="Trazado_150720" data-name="Trazado 150720" d="M244.491,96.461a1.222,1.222,0,1,1-1.222-1.221A1.221,1.221,0,0,1,244.491,96.461Z" transform="translate(-242.048 -95.24)" fill="#fff"/>
          </g>
          <g id="Grupo_99090" data-name="Grupo 99090" transform="translate(17.504 4.675)">
            <path id="Trazado_150721" data-name="Trazado 150721" d="M253.654,96.461a1.221,1.221,0,1,1-1.222-1.221A1.221,1.221,0,0,1,253.654,96.461Z" transform="translate(-251.212 -95.24)" fill="#fff"/>
          </g>
        </g>
      </g>
      <g id="Grupo_99101" data-name="Grupo 99101" transform="translate(0 93.259)">
        <g id="Grupo_99093" data-name="Grupo 99093">
          <rect id="Rectángulo_36026" data-name="Rectángulo 36026" width="73.449" height="20.593" rx="3.23" fill="#b3b2d4"/>
        </g>
        <g id="Grupo_99094" data-name="Grupo 99094" transform="translate(7.515 6.456)">
          <path id="Trazado_150722" data-name="Trazado 150722" d="M123.85,265.826a4.475,4.475,0,1,1-.692-6.291A4.475,4.475,0,0,1,123.85,265.826Z" transform="translate(-115.883 -258.551)" fill="#fff"/>
        </g>
        <g id="Grupo_99096" data-name="Grupo 99096" transform="translate(9.473 9.41)">
          <g id="Grupo_99095" data-name="Grupo 99095">
            <path id="Trazado_150723" data-name="Trazado 150723" d="M124.28,263.629a20.675,20.675,0,0,1-2.422,2.573l-.591.57-.106.1-.1-.1a14.34,14.34,0,0,1-1.811-2.019,14.337,14.337,0,0,1,2.019,1.811h-.207l.585-.577A20.733,20.733,0,0,1,124.28,263.629Z" transform="translate(-119.247 -263.627)" fill="#263238"/>
          </g>
        </g>
        <g id="Grupo_99098" data-name="Grupo 99098" transform="translate(24.576 8.636)">
          <g id="Grupo_99097" data-name="Grupo 99097">
            <path id="Trazado_150724" data-name="Trazado 150724" d="M186.9,262.449c0,.084-9.337.152-20.851.152s-20.853-.068-20.853-.152,9.335-.151,20.853-.151S186.9,262.366,186.9,262.449Z" transform="translate(-145.199 -262.298)" fill="#263238"/>
          </g>
        </g>
        <g id="Grupo_99100" data-name="Grupo 99100" transform="translate(25.064 12.709)">
          <g id="Grupo_99099" data-name="Grupo 99099">
            <path id="Trazado_150725" data-name="Trazado 150725" d="M170.149,269.447c0,.084-5.4.152-12.055.152s-12.056-.068-12.056-.152,5.4-.151,12.056-.151S170.149,269.364,170.149,269.447Z" transform="translate(-146.039 -269.296)" fill="#263238"/>
          </g>
        </g>
      </g>
      <g id="Grupo_99111" data-name="Grupo 99111" transform="translate(21.681 43.642)">
        <g id="Grupo_99102" data-name="Grupo 99102">
          <rect id="Rectángulo_36027" data-name="Rectángulo 36027" width="72.411" height="30.071" rx="2.616" fill="#b3b2d4"/>
        </g>
        <g id="Grupo_99106" data-name="Grupo 99106" transform="translate(8.293 6.129)">
          <g id="Grupo_99103" data-name="Grupo 99103">
            <path id="Trazado_150726" data-name="Trazado 150726" d="M161.225,176.1a3.376,3.376,0,1,1-3.376-3.375A3.376,3.376,0,0,1,161.225,176.1Z" transform="translate(-154.474 -172.729)" fill="#e8505b"/>
          </g>
          <g id="Grupo_99104" data-name="Grupo 99104" transform="translate(10.127 1.044)">
            <rect id="Rectángulo_36028" data-name="Rectángulo 36028" width="23.521" height="1.306" fill="#e8505b"/>
          </g>
          <g id="Grupo_99105" data-name="Grupo 99105" transform="translate(10.127 4.011)">
            <rect id="Rectángulo_36029" data-name="Rectángulo 36029" width="45.755" height="1.306" fill="#fff"/>
          </g>
        </g>
        <g id="Grupo_99110" data-name="Grupo 99110" transform="translate(8.293 16.507)">
          <g id="Grupo_99107" data-name="Grupo 99107">
            <path id="Trazado_150727" data-name="Trazado 150727" d="M161.225,193.937a3.376,3.376,0,1,1-3.376-3.375A3.376,3.376,0,0,1,161.225,193.937Z" transform="translate(-154.474 -190.562)" fill="#e8505b"/>
          </g>
          <g id="Grupo_99108" data-name="Grupo 99108" transform="translate(10.127 1.044)">
            <rect id="Rectángulo_36030" data-name="Rectángulo 36030" width="12.011" height="1.306" fill="#e8505b"/>
          </g>
          <g id="Grupo_99109" data-name="Grupo 99109" transform="translate(10.127 4.011)">
            <rect id="Rectángulo_36031" data-name="Rectángulo 36031" width="45.755" height="1.306" fill="#fff"/>
          </g>
        </g>
      </g>
      <g id="Grupo_99125" data-name="Grupo 99125" transform="translate(34.441 122.725)">
        <g id="Grupo_99112" data-name="Grupo 99112">
          <rect id="Rectángulo_36032" data-name="Rectángulo 36032" width="93.425" height="39.71" rx="3.958" fill="#b3b2d4"/>
        </g>
        <g id="Grupo_99121" data-name="Grupo 99121" transform="translate(7.129 11.136)">
          <g id="Grupo_99117" data-name="Grupo 99117">
            <g id="Grupo_99113" data-name="Grupo 99113">
              <path id="Trazado_150728" data-name="Trazado 150728" d="M184.365,325.279l-.052-8.055a10.277,10.277,0,0,0-6.645,2.591,9.525,9.525,0,0,0-3.2,8.342,11.281,11.281,0,0,0,.188,1.17c0,.01,0,.019.005.029h0l9.705-2.184Z" transform="translate(-174.402 -317.224)" fill="#ff6d60"/>
            </g>
            <g id="Grupo_99116" data-name="Grupo 99116" transform="translate(10.992 0.031)">
              <g id="Grupo_99114" data-name="Grupo 99114">
                <path id="Trazado_150729" data-name="Trazado 150729" d="M202.264,322.821a9.557,9.557,0,0,0-7.834-5.484c-.1-.01-.2-.019-.307-.027-.065,0-.13-.011-.2-.015-.192-.01-.387-.016-.585-.017h-.052l.052,8.055.012,1.893,9.709,2.118.012,0h0a9.551,9.551,0,0,0,.215-2.089A10.444,10.444,0,0,0,202.264,322.821Z" transform="translate(-193.29 -317.277)" fill="#ff9e95"/>
              </g>
              <g id="Grupo_99115" data-name="Grupo 99115" opacity="0.2">
                <path id="Trazado_150730" data-name="Trazado 150730" d="M202.264,322.821a9.557,9.557,0,0,0-7.834-5.484c-.1-.01-.2-.019-.307-.027-.065,0-.13-.011-.2-.015-.192-.01-.387-.016-.585-.017h-.052l.052,8.055.012,1.893,9.709,2.118.012,0h0a9.551,9.551,0,0,0,.215-2.089A10.444,10.444,0,0,0,202.264,322.821Z" transform="translate(-193.29 -317.277)" fill="#ff9e95"/>
              </g>
            </g>
          </g>
          <g id="Grupo_99120" data-name="Grupo 99120" transform="translate(0.777 10.953)">
            <g id="Grupo_99118" data-name="Grupo 99118">
              <path id="Trazado_150731" data-name="Trazado 150731" d="M185.443,336.045l-9.706,2.183a9.948,9.948,0,0,0,19.426-.065l-9.708-2.118" transform="translate(-175.737 -336.045)" fill="#ffceca"/>
            </g>
            <g id="Grupo_99119" data-name="Grupo 99119" opacity="0.1">
              <path id="Trazado_150732" data-name="Trazado 150732" d="M185.443,336.045l-9.706,2.183a9.948,9.948,0,0,0,19.426-.065l-9.708-2.118" transform="translate(-175.737 -336.045)" fill="#ffceca"/>
            </g>
          </g>
        </g>
        <g id="Grupo_99122" data-name="Grupo 99122" transform="translate(34.624 13.544)">
          <rect id="Rectángulo_36033" data-name="Rectángulo 36033" width="49.311" height="2.234" fill="#fff"/>
        </g>
        <g id="Grupo_99123" data-name="Grupo 99123" transform="translate(34.624 19.434)">
          <rect id="Rectángulo_36034" data-name="Rectángulo 36034" width="49.311" height="2.234" fill="#fff"/>
        </g>
        <g id="Grupo_99124" data-name="Grupo 99124" transform="translate(34.624 25.946)">
          <rect id="Rectángulo_36035" data-name="Rectángulo 36035" width="26.651" height="2.234" fill="#fff"/>
        </g>
      </g>
      <g id="Grupo_99159" data-name="Grupo 99159" transform="translate(143.343 94.567)">
        <g id="Grupo_99126" data-name="Grupo 99126">
          <rect id="Rectángulo_36036" data-name="Rectángulo 36036" width="97.415" height="93.792" rx="8.41" fill="#b3b2d4"/>
        </g>
        <g id="Grupo_99155" data-name="Grupo 99155" transform="translate(6.808 9.908)">
          <g id="Grupo_99149" data-name="Grupo 99149">
            <g id="Grupo_99127" data-name="Grupo 99127" transform="translate(0 54.345)">
              <rect id="Rectángulo_36037" data-name="Rectángulo 36037" width="3.197" height="0.921" fill="#263238"/>
            </g>
            <g id="Grupo_99128" data-name="Grupo 99128" transform="translate(7.233 59.271)">
              <rect id="Rectángulo_36038" data-name="Rectángulo 36038" width="4.089" height="0.921" fill="#263238"/>
            </g>
            <g id="Grupo_99129" data-name="Grupo 99129" transform="translate(21.466 59.271)">
              <rect id="Rectángulo_36039" data-name="Rectángulo 36039" width="4.089" height="0.921" fill="#263238"/>
            </g>
            <g id="Grupo_99130" data-name="Grupo 99130" transform="translate(35.699 59.271)">
              <rect id="Rectángulo_36040" data-name="Rectángulo 36040" width="4.089" height="0.921" fill="#263238"/>
            </g>
            <g id="Grupo_99131" data-name="Grupo 99131" transform="translate(49.932 59.271)">
              <rect id="Rectángulo_36041" data-name="Rectángulo 36041" width="4.089" height="0.921" fill="#263238"/>
            </g>
            <g id="Grupo_99132" data-name="Grupo 99132" transform="translate(64.165 59.271)">
              <rect id="Rectángulo_36042" data-name="Rectángulo 36042" width="4.089" height="0.921" fill="#263238"/>
            </g>
            <g id="Grupo_99133" data-name="Grupo 99133" transform="translate(78.398 59.271)">
              <rect id="Rectángulo_36043" data-name="Rectángulo 36043" width="4.089" height="0.921" fill="#263238"/>
            </g>
            <g id="Grupo_99134" data-name="Grupo 99134" transform="translate(0 42.04)">
              <rect id="Rectángulo_36044" data-name="Rectángulo 36044" width="3.197" height="0.921" fill="#263238"/>
            </g>
            <g id="Grupo_99135" data-name="Grupo 99135" transform="translate(0 18.882)">
              <rect id="Rectángulo_36045" data-name="Rectángulo 36045" width="3.197" height="0.921" fill="#263238"/>
            </g>
            <g id="Grupo_99136" data-name="Grupo 99136" transform="translate(0 7.244)">
              <rect id="Rectángulo_36046" data-name="Rectángulo 36046" width="3.197" height="0.921" fill="#263238"/>
            </g>
            <g id="Grupo_99137" data-name="Grupo 99137" transform="translate(0.162 30.461)">
              <rect id="Rectángulo_36047" data-name="Rectángulo 36047" width="3.197" height="0.921" fill="#263238"/>
            </g>
            <g id="Grupo_99139" data-name="Grupo 99139" transform="translate(4.715)">
              <g id="Grupo_99138" data-name="Grupo 99138">
                <path id="Trazado_150733" data-name="Trazado 150733" d="M446.741,322s-.116.01-.343.016l-1.006.015-3.869.028L427.3,322.1l-46.939.044-11.124,0h-.15V322c.02-15.7.038-29.508.051-39.409.019-4.937.034-8.9.045-11.638.011-1.355.02-2.407.026-3.133.006-.349.01-.617.013-.811s.014-.275.014-.275.009.093.014.275.008.463.013.811c.006.726.015,1.778.026,3.133.011,2.739.026,6.7.045,11.638.013,9.9.031,23.714.051,39.409l-.15-.15,11.124,0,46.939.044,14.227.048,3.869.029,1.006.015C446.625,321.985,446.741,322,446.741,322Z" transform="translate(-369.084 -266.729)" fill="#263238"/>
              </g>
            </g>
            <g id="Grupo_99141" data-name="Grupo 99141" transform="translate(7.957 30.77)">
              <g id="Grupo_99140" data-name="Grupo 99140">
                <path id="Trazado_150734" data-name="Trazado 150734" d="M449.97,319.754c0,.084-16.861.152-37.656.152s-37.659-.068-37.659-.152,16.857-.151,37.659-.151S449.97,319.671,449.97,319.754Z" transform="translate(-374.655 -319.603)" fill="#263238"/>
              </g>
            </g>
            <g id="Grupo_99143" data-name="Grupo 99143" transform="translate(7.957 19.191)">
              <g id="Grupo_99142" data-name="Grupo 99142">
                <path id="Trazado_150735" data-name="Trazado 150735" d="M449.97,299.857c0,.084-16.861.151-37.656.151s-37.659-.068-37.659-.151,16.857-.152,37.659-.152S449.97,299.773,449.97,299.857Z" transform="translate(-374.655 -299.705)" fill="#263238"/>
              </g>
            </g>
            <g id="Grupo_99145" data-name="Grupo 99145" transform="translate(7.957 7.553)">
              <g id="Grupo_99144" data-name="Grupo 99144">
                <path id="Trazado_150736" data-name="Trazado 150736" d="M449.97,279.858c0,.084-16.861.152-37.656.152s-37.659-.068-37.659-.152,16.857-.151,37.659-.151S449.97,279.775,449.97,279.858Z" transform="translate(-374.655 -279.707)" fill="#263238"/>
              </g>
            </g>
            <g id="Grupo_99147" data-name="Grupo 99147" transform="translate(7.957 42.349)">
              <g id="Grupo_99146" data-name="Grupo 99146">
                <path id="Trazado_150737" data-name="Trazado 150737" d="M449.97,339.652c0,.083-16.861.151-37.656.151s-37.659-.068-37.659-.151,16.857-.152,37.659-.152S449.97,339.568,449.97,339.652Z" transform="translate(-374.655 -339.5)" fill="#263238"/>
              </g>
            </g>
            <g id="Grupo_99148" data-name="Grupo 99148" transform="translate(8.734 0.854)">
              <path id="Trazado_150738" data-name="Trazado 150738" d="M375.989,320.117V309.844l6.4-9.941,4.345,3.334,8.918-13.854,5.26,3.7,7.318-12.78,5.946,4.844L423.1,268.2l9.605,18.949,7.775-9.481,9.148-2.618v45.071Z" transform="translate(-375.989 -268.196)" fill="#ff6d60"/>
            </g>
          </g>
          <g id="Grupo_99151" data-name="Grupo 99151" transform="translate(8.734 3.972)">
            <g id="Grupo_99150" data-name="Grupo 99150">
              <path id="Trazado_150739" data-name="Trazado 150739" d="M450.528,273.638a.791.791,0,0,1-.161.012l-.477.012-1.856.021-7.02.04.067-.033-7.521,9.832-.036.047h-.059l-18.833.026.125-.07-7.918,13.181c-2.7,4.483-5.308,8.822-7.774,12.921l-.113.189-.129-.179-10.2-14.027.2-.006-9.306,14.5-2.6,4.008-.688,1.046c-.157.235-.246.351-.246.351s.068-.129.214-.371l.658-1.066,2.539-4.044,9.217-14.556.1-.153.107.147,10.237,14-.243.01,7.764-12.926,7.927-13.175.043-.071h.082l18.833.026-.095.047,7.578-9.788.026-.033h.041l7.02.04,1.856.022.477.011A.925.925,0,0,1,450.528,273.638Z" transform="translate(-375.989 -273.554)" fill="#263238"/>
            </g>
          </g>
          <g id="Grupo_99152" data-name="Grupo 99152" transform="translate(23.108 28.551)">
            <path id="Trazado_150740" data-name="Trazado 150740" d="M402.134,316.485a.723.723,0,1,1-.723-.7A.71.71,0,0,1,402.134,316.485Z" transform="translate(-400.689 -315.79)" fill="#263238"/>
          </g>
          <g id="Grupo_99153" data-name="Grupo 99153" transform="translate(44.831 16.205)">
            <path id="Trazado_150741" data-name="Trazado 150741" d="M439.461,295.269a.723.723,0,1,1-.723-.7A.71.71,0,0,1,439.461,295.269Z" transform="translate(-438.016 -294.574)" fill="#263238"/>
          </g>
          <g id="Grupo_99154" data-name="Grupo 99154" transform="translate(61.718 13.171)">
            <path id="Trazado_150742" data-name="Trazado 150742" d="M468.479,290.057a.723.723,0,1,1-.723-.7A.709.709,0,0,1,468.479,290.057Z" transform="translate(-467.034 -289.361)" fill="#263238"/>
          </g>
        </g>
        <g id="Grupo_99156" data-name="Grupo 99156" transform="translate(14.041 76.991)">
          <ellipse id="Elipse_4763" data-name="Elipse 4763" cx="4.672" cy="4.499" rx="4.672" ry="4.499" fill="#fff"/>
        </g>
        <g id="Grupo_99157" data-name="Grupo 99157" transform="translate(30.318 78.476)">
          <rect id="Rectángulo_36048" data-name="Rectángulo 36048" width="54.888" height="1.684" fill="#fff"/>
        </g>
        <g id="Grupo_99158" data-name="Grupo 99158" transform="translate(30.318 82.681)">
          <rect id="Rectángulo_36049" data-name="Rectángulo 36049" width="22.79" height="1.684" fill="#fff"/>
        </g>
      </g>
      <g id="Grupo_99190" data-name="Grupo 99190" transform="translate(209.401 21.714)">
        <g id="Grupo_99160" data-name="Grupo 99160" style="isolation: isolate">
          <rect id="Rectángulo_36050" data-name="Rectángulo 36050" width="64.68" height="53.646" rx="4.937" fill="#b3b2d4"/>
        </g>
        <g id="Grupo_99189" data-name="Grupo 99189" transform="translate(3.828 5.592)">
          <g id="Grupo_99161" data-name="Grupo 99161" transform="translate(7.459 15.886)">
            <rect id="Rectángulo_36051" data-name="Rectángulo 36051" width="3.487" height="26.323" fill="#e8505b"/>
          </g>
          <g id="Grupo_99162" data-name="Grupo 99162" transform="translate(23.306 13.751)">
            <rect id="Rectángulo_36052" data-name="Rectángulo 36052" width="3.487" height="28.459" fill="#e8505b"/>
          </g>
          <g id="Grupo_99163" data-name="Grupo 99163" transform="translate(39.721 10.137)">
            <rect id="Rectángulo_36053" data-name="Rectángulo 36053" width="3.487" height="32.073" fill="#e8505b"/>
          </g>
          <g id="Grupo_99166" data-name="Grupo 99166" transform="translate(32.01 29.392)">
            <g id="Grupo_99164" data-name="Grupo 99164">
              <rect id="Rectángulo_36054" data-name="Rectángulo 36054" width="3.487" height="12.817" fill="#e8505b"/>
            </g>
            <g id="Grupo_99165" data-name="Grupo 99165" opacity="0.2">
              <rect id="Rectángulo_36055" data-name="Rectángulo 36055" width="3.487" height="12.817"/>
            </g>
          </g>
          <g id="Grupo_99169" data-name="Grupo 99169" transform="translate(11.523 13.067)">
            <g id="Grupo_99167" data-name="Grupo 99167">
              <rect id="Rectángulo_36056" data-name="Rectángulo 36056" width="3.487" height="29.143" fill="#e8505b"/>
            </g>
            <g id="Grupo_99168" data-name="Grupo 99168" opacity="0.1">
              <rect id="Rectángulo_36057" data-name="Rectángulo 36057" width="3.487" height="29.143"/>
            </g>
          </g>
          <g id="Grupo_99172" data-name="Grupo 99172" transform="translate(27.654 6.961)">
            <g id="Grupo_99170" data-name="Grupo 99170">
              <rect id="Rectángulo_36058" data-name="Rectángulo 36058" width="3.487" height="35.248" fill="#e8505b"/>
            </g>
            <g id="Grupo_99171" data-name="Grupo 99171" opacity="0.1">
              <rect id="Rectángulo_36059" data-name="Rectángulo 36059" width="3.487" height="35.248"/>
            </g>
          </g>
          <g id="Grupo_99175" data-name="Grupo 99175" transform="translate(48.713 6.961)">
            <g id="Grupo_99173" data-name="Grupo 99173">
              <rect id="Rectángulo_36060" data-name="Rectángulo 36060" width="3.487" height="35.248" fill="#e8505b"/>
            </g>
            <g id="Grupo_99174" data-name="Grupo 99174" opacity="0.2">
              <rect id="Rectángulo_36061" data-name="Rectángulo 36061" width="3.487" height="35.248"/>
            </g>
          </g>
          <g id="Grupo_99178" data-name="Grupo 99178" transform="translate(44.163)">
            <g id="Grupo_99176" data-name="Grupo 99176">
              <rect id="Rectángulo_36062" data-name="Rectángulo 36062" width="3.487" height="42.209" fill="#e8505b"/>
            </g>
            <g id="Grupo_99177" data-name="Grupo 99177" opacity="0.1">
              <rect id="Rectángulo_36063" data-name="Rectángulo 36063" width="3.487" height="42.209"/>
            </g>
          </g>
          <g id="Grupo_99181" data-name="Grupo 99181" transform="translate(15.788 23.713)">
            <g id="Grupo_99179" data-name="Grupo 99179">
              <rect id="Rectángulo_36064" data-name="Rectángulo 36064" width="3.487" height="18.496" fill="#e8505b"/>
            </g>
            <g id="Grupo_99180" data-name="Grupo 99180" opacity="0.2">
              <rect id="Rectángulo_36065" data-name="Rectángulo 36065" width="3.487" height="18.496"/>
            </g>
          </g>
          <g id="Grupo_99183" data-name="Grupo 99183" transform="translate(1.615 43.655)">
            <g id="Grupo_99182" data-name="Grupo 99182">
              <path id="Trazado_150743" data-name="Trazado 150743" d="M527.719,209.293c0,.084-12.441.151-27.785.151s-27.788-.067-27.788-.151,12.439-.151,27.788-.151S527.719,209.209,527.719,209.293Z" transform="translate(-472.146 -209.142)" fill="#263238"/>
            </g>
          </g>
          <g id="Grupo_99184" data-name="Grupo 99184" transform="translate(0 37.527)">
            <rect id="Rectángulo_36066" data-name="Rectángulo 36066" width="2.128" height="0.701" fill="#263238"/>
          </g>
          <g id="Grupo_99185" data-name="Grupo 99185" transform="translate(0 28.16)">
            <rect id="Rectángulo_36067" data-name="Rectángulo 36067" width="2.128" height="0.701" fill="#263238"/>
          </g>
          <g id="Grupo_99186" data-name="Grupo 99186" transform="translate(0 10.53)">
            <rect id="Rectángulo_36068" data-name="Rectángulo 36068" width="2.128" height="0.701" fill="#263238"/>
          </g>
          <g id="Grupo_99187" data-name="Grupo 99187" transform="translate(0 1.671)">
            <rect id="Rectángulo_36069" data-name="Rectángulo 36069" width="2.128" height="0.701" fill="#263238"/>
          </g>
          <g id="Grupo_99188" data-name="Grupo 99188" transform="translate(0.108 19.345)">
            <rect id="Rectángulo_36070" data-name="Rectángulo 36070" width="2.128" height="0.701" fill="#263238"/>
          </g>
        </g>
      </g>
      <g id="Grupo_99199" data-name="Grupo 99199" transform="translate(134.92 17.354)">
        <g id="Grupo_99191" data-name="Grupo 99191">
          <path id="Rectángulo_36071" data-name="Rectángulo 36071" d="M3.23,0H63.112a3.23,3.23,0,0,1,3.23,3.23V15.37a3.23,3.23,0,0,1-3.23,3.23H3.231A3.231,3.231,0,0,1,0,15.37V3.23A3.23,3.23,0,0,1,3.23,0Z" fill="#ff6d60"/>
        </g>
        <g id="Grupo_99192" data-name="Grupo 99192" transform="translate(6.773 5.816)">
          <path id="Trazado_150744" data-name="Trazado 150744" d="M353.67,133.617a4.042,4.042,0,1,1-.625-5.683A4.043,4.043,0,0,1,353.67,133.617Z" transform="translate(-346.458 -127.031)" fill="#fff"/>
          <path id="Trazado_150745" data-name="Trazado 150745" d="M350.5,135.135a4.058,4.058,0,1,1,3.173-1.519h0a4.07,4.07,0,0,1-3.173,1.519Zm.016-8.086a4.028,4.028,0,1,0,3.134,6.548h0a4.029,4.029,0,0,0-3.134-6.548Z" transform="translate(-346.448 -127.02)" fill="#263238"/>
        </g>
        <g id="Grupo_99194" data-name="Grupo 99194" transform="translate(8.555 8.498)">
          <g id="Grupo_99193" data-name="Grupo 99193">
            <path id="Trazado_150746" data-name="Trazado 150746" d="M354.058,131.632a16.893,16.893,0,0,1-2.177,2.335l-.534.515-.106.1-.1-.1a11.714,11.714,0,0,1-1.626-1.835,11.739,11.739,0,0,1,1.834,1.626h-.207l.528-.521A16.97,16.97,0,0,1,354.058,131.632Z" transform="translate(-349.511 -131.629)" fill="#e8505b"/>
          </g>
        </g>
        <g id="Grupo_99196" data-name="Grupo 99196" transform="translate(22.198 7.786)">
          <g id="Grupo_99195" data-name="Grupo 99195">
            <path id="Trazado_150747" data-name="Trazado 150747" d="M410.622,130.557c0,.083-8.433.151-18.834.151s-18.836-.068-18.836-.151,8.431-.152,18.836-.152S410.622,130.473,410.622,130.557Z" transform="translate(-372.953 -130.405)" fill="#fff"/>
          </g>
        </g>
        <g id="Grupo_99198" data-name="Grupo 99198" transform="translate(22.639 11.464)">
          <g id="Grupo_99197" data-name="Grupo 99197">
            <path id="Trazado_150748" data-name="Trazado 150748" d="M395.489,136.878c0,.084-4.876.151-10.888.151s-10.89-.068-10.89-.151,4.874-.152,10.89-.152S395.489,136.794,395.489,136.878Z" transform="translate(-373.711 -136.726)" fill="#fff"/>
          </g>
        </g>
      </g>
    </g>
    <g id="Speech_Bubble" data-name="Speech Bubble" transform="translate(380.202 109.935)">
      <g id="Grupo_99203" data-name="Grupo 99203">
        <g id="Grupo_99201" data-name="Grupo 99201">
          <g id="Grupo_99200" data-name="Grupo 99200">
            <path id="Trazado_150749" data-name="Trazado 150749" d="M605.13,161.243s-.077.1-.241.279-.4.455-.742.786a14.142,14.142,0,0,1-3.375,2.353,11.548,11.548,0,0,1-1.3.557l-.715.257-.768.2a14.882,14.882,0,0,1-1.659.318c-.29.033-.589.047-.892.071a6.426,6.426,0,0,1-.925.023,13.98,13.98,0,0,1-7.955-2.557l.1.021-6.918,1.336-.389.076.26-.3,3.809-4.386-.008.18a14.041,14.041,0,0,1-2.626-6.521A13.974,13.974,0,0,1,597.2,138.382a13.87,13.87,0,0,1,7.171,3.7,13.821,13.821,0,0,1,2.856,16.049l-.391.764c-.13.235-.278.44-.4.638a7.581,7.581,0,0,1-.681.963l-.46.56a1.563,1.563,0,0,1-.164.184,1.6,1.6,0,0,1,.141-.2l.435-.578a8.061,8.061,0,0,0,.653-.974c.119-.2.261-.405.387-.64l.375-.765a13.782,13.782,0,0,0,1.217-4.188,13.812,13.812,0,0,0-4.141-11.628,13.275,13.275,0,0,0-3.152-2.273,13.138,13.138,0,0,0-3.894-1.336A13.717,13.717,0,0,0,581.082,153.9a13.771,13.771,0,0,0,2.562,6.388l.068.1-.075.086-3.819,4.377-.129-.225,6.922-1.311.052-.01.044.031a13.822,13.822,0,0,0,7.814,2.558,6.43,6.43,0,0,0,.913-.016c.3-.022.593-.034.88-.063a14.834,14.834,0,0,0,1.64-.3l.761-.192.709-.247a11.488,11.488,0,0,0,1.288-.537,14.62,14.62,0,0,0,3.386-2.279c.345-.321.588-.589.765-.757S605.13,161.243,605.13,161.243Z" transform="translate(-579.35 -138.139)" fill="#373660"/>
          </g>
        </g>
        <g id="Grupo_99202" data-name="Grupo 99202" transform="translate(10.826 9.556)">
          <path id="Trazado_150750" data-name="Trazado 150750" d="M602.626,156.107l-2.337-.774-2.337-.774.5,2.411.5,2.411,1.271-1.131,5.471,6.147,1.136-1.011-5.471-6.147Z" transform="translate(-597.952 -154.559)" fill="#373660"/>
        </g>
      </g>
    </g>
  </g>
</svg>
