<svg xmlns="http://www.w3.org/2000/svg" width="376.252" height="323.4" viewBox="0 0 376.252 323.4">
  <g id="Grupo_100492" data-name="Grupo 100492" transform="translate(-810 -1425.3)">
    <path id="Trazado_148426" data-name="Trazado 148426" d="M786.941,354.786l19.018-23.122-19.018-23.122H598.649v46.243Z" transform="translate(211.351 1393.914)" fill="#42dabf"/>
    <path id="Trazado_148427" data-name="Trazado 148427" d="M831.911,370.816l19.019-23.122-19.019-23.122H598.649v46.243Z" transform="translate(211.351 1100.728)" fill="#2ecff1"/>
    <path id="Trazado_148428" data-name="Trazado 148428" d="M910.913,386.846l19.018-23.122L910.913,340.6H598.649v46.243Z" transform="translate(211.351 1269.367)" fill="#ffc967"/>
    <path id="Trazado_148429" data-name="Trazado 148429" d="M869.949,402.846l19.018-23.122L869.949,356.6h-271.3v46.243Z" transform="translate(211.351 1299.61)" fill="#ffa648"/>
    <path id="Trazado_148431" data-name="Trazado 148431" d="M887.82,418.788l19.018-23.122L887.82,372.544H598.649v46.243Z" transform="translate(211.351 1098.779)" fill="#ff9e95"/>
    <path id="Trazado_148432" data-name="Trazado 148432" d="M920.635,434.817,939.654,411.7l-19.018-23.122H598.649v46.243Z" transform="translate(211.351 1128.993)" fill="#ff6d60"/>
    <path id="Trazado_148433" data-name="Trazado 148433" d="M955.882,450.847,974.9,427.725,955.882,404.6H598.649v46.243Z" transform="translate(211.351 1159.206)" fill="#aa56f3"/>
    <path id="Trazado_151004" data-name="Trazado 151004" d="M3.845,0H1.876V-14.93H3.845ZM3.784-19.052h2.3L3.333-16.037,1.8-16.042Zm5.158,7.957L9-9.7a4.043,4.043,0,0,1,3.322-1.6q3.517,0,3.548,3.968V0h-1.9V-7.342a2.554,2.554,0,0,0-.549-1.774,2.2,2.2,0,0,0-1.677-.574,2.738,2.738,0,0,0-1.62.492A3.342,3.342,0,0,0,9.044-7.906V0h-1.9V-11.095ZM18.272-5.64a6.5,6.5,0,0,1,1.21-4.107A3.826,3.826,0,0,1,22.651-11.3a3.848,3.848,0,0,1,3.086,1.333V-15.75h1.9V0H25.891L25.8-1.189A3.863,3.863,0,0,1,22.63.205a3.789,3.789,0,0,1-3.143-1.579A6.573,6.573,0,0,1,18.272-5.5Zm1.9.215a4.921,4.921,0,0,0,.779,2.953A2.519,2.519,0,0,0,23.1-1.4a2.767,2.767,0,0,0,2.635-1.62v-5.1A2.789,2.789,0,0,0,23.123-9.69a2.531,2.531,0,0,0-2.174,1.077A5.418,5.418,0,0,0,20.169-5.424ZM32.638,0h-1.9V-11.095h1.9ZM30.587-14.038a1.132,1.132,0,0,1,.282-.779,1.059,1.059,0,0,1,.836-.318,1.075,1.075,0,0,1,.841.318,1.12,1.12,0,0,1,.287.779,1.084,1.084,0,0,1-.287.769,1.1,1.1,0,0,1-.841.308,1.078,1.078,0,0,1-.836-.308A1.1,1.1,0,0,1,30.587-14.038ZM40.124-1.343A2.732,2.732,0,0,0,41.9-1.958,2.164,2.164,0,0,0,42.738-3.5h1.794a3.44,3.44,0,0,1-.656,1.815A4.322,4.322,0,0,1,42.261-.308a4.66,4.66,0,0,1-2.138.513,4.57,4.57,0,0,1-3.6-1.512,6.024,6.024,0,0,1-1.338-4.137v-.318a6.679,6.679,0,0,1,.595-2.881A4.53,4.53,0,0,1,37.483-10.6a4.85,4.85,0,0,1,2.63-.7,4.45,4.45,0,0,1,3.1,1.118,3.994,3.994,0,0,1,1.318,2.9H42.738a2.614,2.614,0,0,0-.815-1.769,2.536,2.536,0,0,0-1.81-.692A2.655,2.655,0,0,0,37.873-8.7a4.888,4.888,0,0,0-.795,3.01v.359a4.79,4.79,0,0,0,.79,2.953A2.668,2.668,0,0,0,40.124-1.343ZM51.27.205A4.848,4.848,0,0,1,47.6-1.277,5.5,5.5,0,0,1,46.184-5.24v-.349a6.658,6.658,0,0,1,.631-2.948,4.919,4.919,0,0,1,1.764-2.03,4.434,4.434,0,0,1,2.456-.733A4.155,4.155,0,0,1,54.4-9.875a6.171,6.171,0,0,1,1.2,4.081V-5H48.081a3.944,3.944,0,0,0,.959,2.651,3.014,3.014,0,0,0,2.333,1.01,3.3,3.3,0,0,0,1.7-.41,4.277,4.277,0,0,0,1.22-1.087l1.159.9A4.659,4.659,0,0,1,51.27.205Zm-.236-9.946a2.53,2.53,0,0,0-1.928.836,4.062,4.062,0,0,0-.964,2.343H53.7v-.144a3.613,3.613,0,0,0-.779-2.24A2.382,2.382,0,0,0,51.034-9.741Z" transform="translate(839 1459.258)" fill="#12263f"/>
    <path id="Trazado_151005" data-name="Trazado 151005" d="M9.977-3.907H3.722L2.317,0H.287l5.7-14.93H7.711L13.422,0H11.4Zm-5.66-1.61H9.393L6.85-12.5ZM17.2,0H15.3V-15.75h1.9Zm7.485-1.343a2.732,2.732,0,0,0,1.774-.615A2.164,2.164,0,0,0,27.3-3.5H29.09a3.44,3.44,0,0,1-.656,1.815A4.322,4.322,0,0,1,26.819-.308a4.66,4.66,0,0,1-2.138.513,4.57,4.57,0,0,1-3.6-1.512,6.024,6.024,0,0,1-1.338-4.137v-.318a6.679,6.679,0,0,1,.595-2.881A4.53,4.53,0,0,1,22.041-10.6a4.85,4.85,0,0,1,2.63-.7,4.45,4.45,0,0,1,3.1,1.118,3.994,3.994,0,0,1,1.318,2.9H27.3a2.614,2.614,0,0,0-.815-1.769,2.536,2.536,0,0,0-1.81-.692A2.655,2.655,0,0,0,22.43-8.7a4.888,4.888,0,0,0-.795,3.01v.359a4.79,4.79,0,0,0,.79,2.953A2.668,2.668,0,0,0,24.681-1.343ZM38.073,0a3.985,3.985,0,0,1-.267-1.169A4.233,4.233,0,0,1,34.648.205a3.916,3.916,0,0,1-2.692-.928,3,3,0,0,1-1.051-2.353,3.136,3.136,0,0,1,1.318-2.692,6.212,6.212,0,0,1,3.707-.959h1.846V-7.6a2.131,2.131,0,0,0-.595-1.584,2.39,2.39,0,0,0-1.753-.59,2.766,2.766,0,0,0-1.7.513,1.511,1.511,0,0,0-.687,1.241H31.131a2.618,2.618,0,0,1,.59-1.6,4.024,4.024,0,0,1,1.6-1.225,5.381,5.381,0,0,1,2.22-.451,4.386,4.386,0,0,1,3,.959A3.458,3.458,0,0,1,39.672-7.7v5.106a6.243,6.243,0,0,0,.39,2.43V0ZM34.925-1.446a3.334,3.334,0,0,0,1.692-.461,2.791,2.791,0,0,0,1.159-1.2V-5.383H36.289q-3.486,0-3.486,2.041A1.727,1.727,0,0,0,33.4-1.948,2.286,2.286,0,0,0,34.925-1.446Zm9.516-9.649L44.5-9.7a4.043,4.043,0,0,1,3.322-1.6q3.517,0,3.548,3.968V0h-1.9V-7.342a2.554,2.554,0,0,0-.549-1.774A2.2,2.2,0,0,0,47.25-9.69a2.738,2.738,0,0,0-1.62.492,3.342,3.342,0,0,0-1.087,1.292V0h-1.9V-11.095ZM58.683-1.343a2.732,2.732,0,0,0,1.774-.615A2.164,2.164,0,0,0,61.3-3.5h1.794a3.44,3.44,0,0,1-.656,1.815A4.322,4.322,0,0,1,60.821-.308a4.66,4.66,0,0,1-2.138.513,4.57,4.57,0,0,1-3.6-1.512,6.024,6.024,0,0,1-1.338-4.137v-.318a6.679,6.679,0,0,1,.595-2.881A4.53,4.53,0,0,1,56.043-10.6a4.85,4.85,0,0,1,2.63-.7,4.45,4.45,0,0,1,3.1,1.118,3.994,3.994,0,0,1,1.318,2.9H61.3a2.614,2.614,0,0,0-.815-1.769,2.536,2.536,0,0,0-1.81-.692A2.655,2.655,0,0,0,56.432-8.7a4.888,4.888,0,0,0-.795,3.01v.359a4.79,4.79,0,0,0,.79,2.953A2.668,2.668,0,0,0,58.683-1.343ZM69.829.205a4.848,4.848,0,0,1-3.671-1.482A5.5,5.5,0,0,1,64.743-5.24v-.349a6.658,6.658,0,0,1,.631-2.948,4.919,4.919,0,0,1,1.764-2.03,4.434,4.434,0,0,1,2.456-.733,4.155,4.155,0,0,1,3.363,1.425,6.171,6.171,0,0,1,1.2,4.081V-5H66.64A3.944,3.944,0,0,0,67.6-2.353a3.014,3.014,0,0,0,2.333,1.01,3.3,3.3,0,0,0,1.7-.41,4.277,4.277,0,0,0,1.22-1.087l1.159.9A4.659,4.659,0,0,1,69.829.205Zm-.236-9.946a2.53,2.53,0,0,0-1.928.836A4.062,4.062,0,0,0,66.7-6.562h5.558v-.144a3.613,3.613,0,0,0-.779-2.24A2.382,2.382,0,0,0,69.593-9.741Z" transform="translate(839 1507.269)" fill="#12263f"/>
    <path id="Trazado_151006" data-name="Trazado 151006" d="M4.276-14.93,9.157-2.748,14.038-14.93h2.553V0H14.622V-5.814l.185-6.275L9.905,0H8.4L3.507-12.059,3.7-5.814V0H1.733V-14.93ZM24.374.205A4.848,4.848,0,0,1,20.7-1.277,5.5,5.5,0,0,1,19.288-5.24v-.349a6.658,6.658,0,0,1,.631-2.948,4.919,4.919,0,0,1,1.764-2.03,4.434,4.434,0,0,1,2.456-.733A4.155,4.155,0,0,1,27.5-9.875a6.171,6.171,0,0,1,1.2,4.081V-5H21.185a3.944,3.944,0,0,0,.959,2.651,3.014,3.014,0,0,0,2.333,1.01,3.3,3.3,0,0,0,1.7-.41A4.277,4.277,0,0,0,27.4-2.84l1.159.9A4.659,4.659,0,0,1,24.374.205Zm-.236-9.946a2.53,2.53,0,0,0-1.928.836,4.062,4.062,0,0,0-.964,2.343H26.8v-.144a3.613,3.613,0,0,0-.779-2.24A2.382,2.382,0,0,0,24.138-9.741Zm9.331-4.04v2.687H35.54v1.466H33.469v6.889a1.54,1.54,0,0,0,.277,1,1.165,1.165,0,0,0,.943.334,4.593,4.593,0,0,0,.9-.123V0a5.532,5.532,0,0,1-1.456.2,2.362,2.362,0,0,1-1.917-.769,3.3,3.3,0,0,1-.646-2.184v-6.88h-2.02v-1.466h2.02v-2.687ZM44.6,0a3.985,3.985,0,0,1-.267-1.169A4.233,4.233,0,0,1,41.18.205a3.916,3.916,0,0,1-2.692-.928,3,3,0,0,1-1.051-2.353,3.136,3.136,0,0,1,1.318-2.692,6.212,6.212,0,0,1,3.707-.959h1.846V-7.6a2.131,2.131,0,0,0-.595-1.584,2.39,2.39,0,0,0-1.753-.59,2.766,2.766,0,0,0-1.7.513,1.511,1.511,0,0,0-.687,1.241H37.663a2.618,2.618,0,0,1,.59-1.6,4.024,4.024,0,0,1,1.6-1.225,5.381,5.381,0,0,1,2.22-.451,4.386,4.386,0,0,1,3,.959A3.458,3.458,0,0,1,46.2-7.7v5.106a6.243,6.243,0,0,0,.39,2.43V0ZM41.457-1.446a3.334,3.334,0,0,0,1.692-.461,2.791,2.791,0,0,0,1.159-1.2V-5.383H42.82q-3.486,0-3.486,2.041a1.727,1.727,0,0,0,.595,1.395A2.286,2.286,0,0,0,41.457-1.446Z" transform="translate(839 1551.53)" fill="#12263f"/>
    <path id="Trazado_151007" data-name="Trazado 151007" d="M7.208-6.04H3.7V0H1.723V-14.93H6.665a5.85,5.85,0,0,1,3.881,1.148A4.132,4.132,0,0,1,11.9-10.438a4.019,4.019,0,0,1-.754,2.43,4.5,4.5,0,0,1-2.1,1.548L12.561-.123V0H10.449ZM3.7-7.649H6.727a3.412,3.412,0,0,0,2.333-.76,2.571,2.571,0,0,0,.866-2.034A2.707,2.707,0,0,0,9.1-12.57a3.5,3.5,0,0,0-2.384-.75H3.7ZM18.97.205A4.848,4.848,0,0,1,15.3-1.277,5.5,5.5,0,0,1,13.884-5.24v-.349a6.658,6.658,0,0,1,.631-2.948,4.919,4.919,0,0,1,1.764-2.03,4.434,4.434,0,0,1,2.456-.733A4.155,4.155,0,0,1,22.1-9.875a6.171,6.171,0,0,1,1.2,4.081V-5H15.781a3.944,3.944,0,0,0,.959,2.651,3.014,3.014,0,0,0,2.333,1.01,3.3,3.3,0,0,0,1.7-.41,4.277,4.277,0,0,0,1.22-1.087l1.159.9A4.659,4.659,0,0,1,18.97.205Zm-.236-9.946a2.53,2.53,0,0,0-1.928.836,4.062,4.062,0,0,0-.964,2.343H21.4v-.144a3.613,3.613,0,0,0-.779-2.24A2.382,2.382,0,0,0,18.734-9.741Zm13.217,6.8a1.4,1.4,0,0,0-.579-1.195,5.576,5.576,0,0,0-2.02-.733,9.551,9.551,0,0,1-2.287-.738,3.253,3.253,0,0,1-1.251-1.025,2.453,2.453,0,0,1-.405-1.415,2.878,2.878,0,0,1,1.154-2.307,4.505,4.505,0,0,1,2.948-.943,4.636,4.636,0,0,1,3.061.974,3.094,3.094,0,0,1,1.174,2.492H31.838a1.713,1.713,0,0,0-.661-1.343,2.478,2.478,0,0,0-1.666-.564,2.593,2.593,0,0,0-1.62.451,1.42,1.42,0,0,0-.584,1.179,1.151,1.151,0,0,0,.543,1.036,6.687,6.687,0,0,0,1.964.667,10.231,10.231,0,0,1,2.3.759,3.358,3.358,0,0,1,1.307,1.061,2.609,2.609,0,0,1,.426,1.512A2.839,2.839,0,0,1,32.659-.692a4.989,4.989,0,0,1-3.086.9,5.587,5.587,0,0,1-2.358-.472,3.836,3.836,0,0,1-1.6-1.318,3.176,3.176,0,0,1-.579-1.83h1.9A1.964,1.964,0,0,0,27.691-1.9a2.964,2.964,0,0,0,1.882.559A3.059,3.059,0,0,0,31.3-1.779,1.339,1.339,0,0,0,31.951-2.943Zm13.74-2.481a6.643,6.643,0,0,1-1.159,4.081A3.714,3.714,0,0,1,41.4.205a4.069,4.069,0,0,1-3.179-1.282V4.266h-1.9v-15.36h1.733l.092,1.23a3.908,3.908,0,0,1,3.22-1.436,3.783,3.783,0,0,1,3.163,1.507A6.716,6.716,0,0,1,45.691-5.6Zm-1.9-.215a4.9,4.9,0,0,0-.8-2.963A2.576,2.576,0,0,0,40.8-9.69a2.789,2.789,0,0,0-2.584,1.528v5.3a2.794,2.794,0,0,0,2.6,1.518A2.564,2.564,0,0,0,42.99-2.425,5.351,5.351,0,0,0,43.794-5.64Zm3.8-.01a6.553,6.553,0,0,1,.641-2.933,4.781,4.781,0,0,1,1.784-2.01,4.857,4.857,0,0,1,2.61-.708A4.679,4.679,0,0,1,56.3-9.731a6.036,6.036,0,0,1,1.4,4.173v.133a6.61,6.61,0,0,1-.62,2.907,4.71,4.71,0,0,1-1.774,2,4.913,4.913,0,0,1-2.651.718A4.667,4.667,0,0,1,49-1.364a6.005,6.005,0,0,1-1.4-4.153Zm1.907.226a4.746,4.746,0,0,0,.856,2.963,2.74,2.74,0,0,0,2.292,1.118,2.724,2.724,0,0,0,2.3-1.133A5.19,5.19,0,0,0,55.8-5.65a4.738,4.738,0,0,0-.866-2.958,2.755,2.755,0,0,0-2.3-1.133,2.724,2.724,0,0,0-2.266,1.118A5.152,5.152,0,0,0,49.506-5.424Zm12.366-5.67L61.934-9.7a4.043,4.043,0,0,1,3.322-1.6q3.517,0,3.548,3.968V0h-1.9V-7.342a2.554,2.554,0,0,0-.549-1.774,2.2,2.2,0,0,0-1.677-.574,2.738,2.738,0,0,0-1.62.492,3.342,3.342,0,0,0-1.087,1.292V0h-1.9V-11.095ZM78.125-2.943a1.4,1.4,0,0,0-.579-1.195,5.576,5.576,0,0,0-2.02-.733,9.551,9.551,0,0,1-2.287-.738,3.253,3.253,0,0,1-1.251-1.025,2.453,2.453,0,0,1-.405-1.415,2.878,2.878,0,0,1,1.154-2.307,4.505,4.505,0,0,1,2.948-.943,4.636,4.636,0,0,1,3.061.974,3.094,3.094,0,0,1,1.174,2.492H78.012a1.713,1.713,0,0,0-.661-1.343,2.478,2.478,0,0,0-1.666-.564,2.593,2.593,0,0,0-1.62.451,1.42,1.42,0,0,0-.584,1.179,1.151,1.151,0,0,0,.543,1.036,6.687,6.687,0,0,0,1.964.667,10.231,10.231,0,0,1,2.3.759A3.358,3.358,0,0,1,79.6-4.589a2.609,2.609,0,0,1,.426,1.512A2.839,2.839,0,0,1,78.832-.692a4.989,4.989,0,0,1-3.086.9,5.587,5.587,0,0,1-2.358-.472,3.836,3.836,0,0,1-1.6-1.318,3.176,3.176,0,0,1-.579-1.83h1.9A1.964,1.964,0,0,0,73.864-1.9a2.964,2.964,0,0,0,1.882.559,3.059,3.059,0,0,0,1.728-.436A1.339,1.339,0,0,0,78.125-2.943ZM89.342,0a3.985,3.985,0,0,1-.267-1.169A4.233,4.233,0,0,1,85.917.205a3.916,3.916,0,0,1-2.692-.928,3,3,0,0,1-1.051-2.353,3.136,3.136,0,0,1,1.318-2.692A6.212,6.212,0,0,1,87.2-6.727h1.846V-7.6a2.131,2.131,0,0,0-.595-1.584,2.39,2.39,0,0,0-1.753-.59,2.766,2.766,0,0,0-1.7.513,1.511,1.511,0,0,0-.687,1.241H82.4a2.618,2.618,0,0,1,.59-1.6,4.024,4.024,0,0,1,1.6-1.225,5.381,5.381,0,0,1,2.22-.451,4.386,4.386,0,0,1,3,.959A3.458,3.458,0,0,1,90.942-7.7v5.106a6.243,6.243,0,0,0,.39,2.43V0ZM86.194-1.446a3.334,3.334,0,0,0,1.692-.461,2.791,2.791,0,0,0,1.159-1.2V-5.383H87.558q-3.486,0-3.486,2.041a1.727,1.727,0,0,0,.595,1.395A2.286,2.286,0,0,0,86.194-1.446Zm17.114-3.979a6.6,6.6,0,0,1-1.169,4.086A3.735,3.735,0,0,1,99,.205a3.868,3.868,0,0,1-3.25-1.487L95.659,0H93.916V-15.75h1.9v5.875A3.846,3.846,0,0,1,98.981-11.3a3.758,3.758,0,0,1,3.174,1.528,6.8,6.8,0,0,1,1.154,4.184Zm-1.9-.215a5.126,5.126,0,0,0-.749-2.994A2.478,2.478,0,0,0,98.509-9.69a2.785,2.785,0,0,0-2.7,1.743v4.8A2.863,2.863,0,0,0,98.53-1.4a2.464,2.464,0,0,0,2.123-1.056A5.451,5.451,0,0,0,101.411-5.64ZM107.758,0h-1.9V-15.75h1.9ZM115.4.205a4.848,4.848,0,0,1-3.671-1.482,5.5,5.5,0,0,1-1.415-3.963v-.349a6.658,6.658,0,0,1,.631-2.948,4.919,4.919,0,0,1,1.764-2.03,4.434,4.434,0,0,1,2.456-.733,4.155,4.155,0,0,1,3.363,1.425,6.171,6.171,0,0,1,1.2,4.081V-5h-7.516a3.944,3.944,0,0,0,.959,2.651,3.014,3.014,0,0,0,2.333,1.01,3.3,3.3,0,0,0,1.7-.41,4.277,4.277,0,0,0,1.22-1.087l1.159.9A4.659,4.659,0,0,1,115.4.205Zm-.236-9.946a2.53,2.53,0,0,0-1.928.836,4.062,4.062,0,0,0-.964,2.343h5.558v-.144a3.613,3.613,0,0,0-.779-2.24A2.382,2.382,0,0,0,115.162-9.741Z" transform="translate(839 1598.064)" fill="#12263f"/>
    <path id="Trazado_151008" data-name="Trazado 151008" d="M9.967-6.593H3.7V0H1.733V-14.93h9.249v1.61H3.7V-8.2H9.967Zm2.358.943a6.553,6.553,0,0,1,.641-2.933,4.781,4.781,0,0,1,1.784-2.01,4.857,4.857,0,0,1,2.61-.708,4.679,4.679,0,0,1,3.666,1.569,6.036,6.036,0,0,1,1.4,4.173v.133a6.61,6.61,0,0,1-.62,2.907,4.71,4.71,0,0,1-1.774,2A4.913,4.913,0,0,1,17.38.205a4.667,4.667,0,0,1-3.656-1.569,6.005,6.005,0,0,1-1.4-4.153Zm1.907.226a4.746,4.746,0,0,0,.856,2.963A2.74,2.74,0,0,0,17.38-1.343a2.724,2.724,0,0,0,2.3-1.133,5.19,5.19,0,0,0,.851-3.174,4.738,4.738,0,0,0-.866-2.958,2.755,2.755,0,0,0-2.3-1.133,2.724,2.724,0,0,0-2.266,1.118A5.152,5.152,0,0,0,14.232-5.424ZM30.167-9.393a5.685,5.685,0,0,0-.933-.072A2.5,2.5,0,0,0,26.7-7.875V0H24.8V-11.095H26.65l.031,1.282A2.954,2.954,0,0,1,29.326-11.3a1.938,1.938,0,0,1,.841.144Zm3.527-1.7.051,1.23A4.1,4.1,0,0,1,37.037-11.3a3.172,3.172,0,0,1,3.168,1.784,4.2,4.2,0,0,1,1.441-1.292,4.255,4.255,0,0,1,2.1-.492q3.65,0,3.712,3.866V0h-1.9V-7.321A2.548,2.548,0,0,0,45.015-9.1a2.393,2.393,0,0,0-1.825-.59,2.515,2.515,0,0,0-1.753.631,2.558,2.558,0,0,0-.81,1.7V0H38.719V-7.27A2.117,2.117,0,0,0,36.35-9.69,2.538,2.538,0,0,0,33.8-8.1V0H31.9V-11.095ZM57.166,0A3.985,3.985,0,0,1,56.9-1.169,4.233,4.233,0,0,1,53.741.205a3.916,3.916,0,0,1-2.692-.928A3,3,0,0,1,50-3.076a3.136,3.136,0,0,1,1.318-2.692,6.212,6.212,0,0,1,3.707-.959h1.846V-7.6a2.131,2.131,0,0,0-.595-1.584,2.39,2.39,0,0,0-1.753-.59,2.766,2.766,0,0,0-1.7.513,1.511,1.511,0,0,0-.687,1.241H50.224a2.618,2.618,0,0,1,.59-1.6,4.024,4.024,0,0,1,1.6-1.225,5.381,5.381,0,0,1,2.22-.451,4.386,4.386,0,0,1,3,.959A3.458,3.458,0,0,1,58.765-7.7v5.106a6.243,6.243,0,0,0,.39,2.43V0ZM54.018-1.446a3.334,3.334,0,0,0,1.692-.461,2.791,2.791,0,0,0,1.159-1.2V-5.383H55.381q-3.486,0-3.486,2.041a1.727,1.727,0,0,0,.595,1.395A2.286,2.286,0,0,0,54.018-1.446ZM66.476-5.64a6.5,6.5,0,0,1,1.21-4.107A3.826,3.826,0,0,1,70.854-11.3a3.848,3.848,0,0,1,3.086,1.333V-15.75h1.9V0H74.095L74-1.189A3.863,3.863,0,0,1,70.834.205a3.789,3.789,0,0,1-3.143-1.579A6.573,6.573,0,0,1,66.476-5.5Zm1.9.215a4.921,4.921,0,0,0,.779,2.953A2.519,2.519,0,0,0,71.306-1.4a2.767,2.767,0,0,0,2.635-1.62v-5.1A2.789,2.789,0,0,0,71.326-9.69a2.531,2.531,0,0,0-2.174,1.077A5.418,5.418,0,0,0,68.373-5.424ZM83.385.205a4.848,4.848,0,0,1-3.671-1.482A5.5,5.5,0,0,1,78.3-5.24v-.349a6.658,6.658,0,0,1,.631-2.948,4.919,4.919,0,0,1,1.764-2.03,4.434,4.434,0,0,1,2.456-.733,4.155,4.155,0,0,1,3.363,1.425,6.171,6.171,0,0,1,1.2,4.081V-5H80.2a3.944,3.944,0,0,0,.959,2.651,3.014,3.014,0,0,0,2.333,1.01,3.3,3.3,0,0,0,1.7-.41A4.277,4.277,0,0,0,86.41-2.84l1.159.9A4.659,4.659,0,0,1,83.385.205Zm-.236-9.946a2.53,2.53,0,0,0-1.928.836,4.062,4.062,0,0,0-.964,2.343h5.558v-.144a3.613,3.613,0,0,0-.779-2.24A2.382,2.382,0,0,0,83.149-9.741Zm16.406,8.4a2.732,2.732,0,0,0,1.774-.615A2.164,2.164,0,0,0,102.17-3.5h1.794a3.44,3.44,0,0,1-.656,1.815,4.322,4.322,0,0,1-1.615,1.374,4.66,4.66,0,0,1-2.138.513,4.57,4.57,0,0,1-3.6-1.512,6.024,6.024,0,0,1-1.338-4.137v-.318a6.679,6.679,0,0,1,.595-2.881A4.53,4.53,0,0,1,96.915-10.6a4.85,4.85,0,0,1,2.63-.7,4.45,4.45,0,0,1,3.1,1.118,3.994,3.994,0,0,1,1.318,2.9H102.17a2.614,2.614,0,0,0-.815-1.769,2.536,2.536,0,0,0-1.81-.692A2.655,2.655,0,0,0,97.3-8.7a4.888,4.888,0,0,0-.795,3.01v.359a4.79,4.79,0,0,0,.79,2.953A2.668,2.668,0,0,0,99.555-1.343ZM112.947,0a3.985,3.985,0,0,1-.267-1.169A4.233,4.233,0,0,1,109.522.205a3.916,3.916,0,0,1-2.692-.928,3,3,0,0,1-1.051-2.353A3.136,3.136,0,0,1,107.1-5.768a6.212,6.212,0,0,1,3.707-.959h1.846V-7.6a2.131,2.131,0,0,0-.595-1.584,2.39,2.39,0,0,0-1.753-.59,2.766,2.766,0,0,0-1.7.513,1.511,1.511,0,0,0-.687,1.241H106a2.618,2.618,0,0,1,.59-1.6,4.024,4.024,0,0,1,1.6-1.225,5.381,5.381,0,0,1,2.22-.451,4.386,4.386,0,0,1,3,.959,3.458,3.458,0,0,1,1.128,2.64v5.106a6.243,6.243,0,0,0,.39,2.43V0ZM109.8-1.446a3.334,3.334,0,0,0,1.692-.461,2.791,2.791,0,0,0,1.159-1.2V-5.383h-1.487q-3.486,0-3.486,2.041a1.727,1.727,0,0,0,.595,1.395A2.286,2.286,0,0,0,109.8-1.446Zm1.753-14.3h2.3L111.1-12.735l-1.528-.005ZM119.581,0h-1.9V-15.75h1.9Zm7.485-1.343a2.732,2.732,0,0,0,1.774-.615,2.164,2.164,0,0,0,.841-1.538h1.794a3.44,3.44,0,0,1-.656,1.815A4.322,4.322,0,0,1,129.2-.308a4.66,4.66,0,0,1-2.138.513,4.57,4.57,0,0,1-3.6-1.512,6.024,6.024,0,0,1-1.338-4.137v-.318a6.679,6.679,0,0,1,.595-2.881,4.53,4.53,0,0,1,1.707-1.958,4.85,4.85,0,0,1,2.63-.7,4.45,4.45,0,0,1,3.1,1.118,3.994,3.994,0,0,1,1.318,2.9h-1.794a2.614,2.614,0,0,0-.815-1.769,2.536,2.536,0,0,0-1.81-.692,2.655,2.655,0,0,0-2.24,1.041,4.888,4.888,0,0,0-.795,3.01v.359a4.79,4.79,0,0,0,.79,2.953A2.668,2.668,0,0,0,127.066-1.343Zm13.392.246a4.029,4.029,0,0,1-3.25,1.3,3.449,3.449,0,0,1-2.7-1.031,4.461,4.461,0,0,1-.938-3.051v-7.219h1.9v7.167q0,2.522,2.051,2.522a2.84,2.84,0,0,0,2.892-1.62v-8.07h1.9V0h-1.8ZM147.246,0h-1.9V-15.75h1.9Zm2.533-5.65a6.553,6.553,0,0,1,.641-2.933,4.781,4.781,0,0,1,1.784-2.01,4.857,4.857,0,0,1,2.61-.708,4.679,4.679,0,0,1,3.666,1.569,6.036,6.036,0,0,1,1.4,4.173v.133a6.61,6.61,0,0,1-.62,2.907,4.71,4.71,0,0,1-1.774,2,4.913,4.913,0,0,1-2.651.718,4.667,4.667,0,0,1-3.656-1.569,6.005,6.005,0,0,1-1.4-4.153Zm1.907.226a4.746,4.746,0,0,0,.856,2.963,2.74,2.74,0,0,0,2.292,1.118,2.724,2.724,0,0,0,2.3-1.133,5.19,5.19,0,0,0,.851-3.174,4.738,4.738,0,0,0-.866-2.958,2.755,2.755,0,0,0-2.3-1.133,2.724,2.724,0,0,0-2.266,1.118A5.152,5.152,0,0,0,151.686-5.424Z" transform="translate(839 1644.308)" fill="#12263f"/>
    <path id="Trazado_151009" data-name="Trazado 151009" d="M12.243-14.93V-4.778a4.762,4.762,0,0,1-1.328,3.456A5.351,5.351,0,0,1,7.342.185L6.819.205A5.588,5.588,0,0,1,2.912-1.118a4.731,4.731,0,0,1-1.477-3.64V-14.93H3.384v10.11A3.415,3.415,0,0,0,4.276-2.3a3.429,3.429,0,0,0,2.543.9A3.452,3.452,0,0,0,9.377-2.3a3.408,3.408,0,0,0,.887-2.512V-14.93Zm4.6,3.835L16.909-9.7a4.043,4.043,0,0,1,3.322-1.6q3.517,0,3.548,3.968V0h-1.9V-7.342a2.554,2.554,0,0,0-.549-1.774,2.2,2.2,0,0,0-1.677-.574,2.738,2.738,0,0,0-1.62.492A3.342,3.342,0,0,0,16.95-7.906V0h-1.9V-11.095ZM28.7,0H26.8V-11.095h1.9ZM26.65-14.038a1.132,1.132,0,0,1,.282-.779,1.059,1.059,0,0,1,.836-.318,1.075,1.075,0,0,1,.841.318,1.12,1.12,0,0,1,.287.779,1.084,1.084,0,0,1-.287.769,1.1,1.1,0,0,1-.841.308,1.078,1.078,0,0,1-.836-.308A1.1,1.1,0,0,1,26.65-14.038Zm4.625,8.4a6.5,6.5,0,0,1,1.21-4.107A3.826,3.826,0,0,1,35.653-11.3a3.848,3.848,0,0,1,3.086,1.333V-15.75h1.9V0H38.893L38.8-1.189A3.863,3.863,0,0,1,35.632.205,3.789,3.789,0,0,1,32.49-1.374,6.573,6.573,0,0,1,31.274-5.5Zm1.9.215a4.921,4.921,0,0,0,.779,2.953A2.519,2.519,0,0,0,36.1-1.4a2.767,2.767,0,0,0,2.635-1.62v-5.1A2.789,2.789,0,0,0,36.125-9.69a2.531,2.531,0,0,0-2.174,1.077A5.418,5.418,0,0,0,33.171-5.424ZM50.429,0a3.985,3.985,0,0,1-.267-1.169A4.233,4.233,0,0,1,47,.205a3.916,3.916,0,0,1-2.692-.928,3,3,0,0,1-1.051-2.353,3.136,3.136,0,0,1,1.318-2.692,6.212,6.212,0,0,1,3.707-.959h1.846V-7.6a2.131,2.131,0,0,0-.595-1.584,2.39,2.39,0,0,0-1.753-.59,2.766,2.766,0,0,0-1.7.513,1.511,1.511,0,0,0-.687,1.241H43.487a2.618,2.618,0,0,1,.59-1.6,4.024,4.024,0,0,1,1.6-1.225A5.381,5.381,0,0,1,47.9-11.3a4.386,4.386,0,0,1,3,.959A3.458,3.458,0,0,1,52.028-7.7v5.106a6.243,6.243,0,0,0,.39,2.43V0ZM47.281-1.446a3.334,3.334,0,0,0,1.692-.461,2.791,2.791,0,0,0,1.159-1.2V-5.383H48.645q-3.486,0-3.486,2.041a1.727,1.727,0,0,0,.595,1.395A2.286,2.286,0,0,0,47.281-1.446Zm7.26-4.194a6.5,6.5,0,0,1,1.21-4.107A3.826,3.826,0,0,1,58.919-11.3a3.848,3.848,0,0,1,3.086,1.333V-15.75h1.9V0H62.159l-.092-1.189A3.863,3.863,0,0,1,58.9.205a3.789,3.789,0,0,1-3.143-1.579A6.573,6.573,0,0,1,54.541-5.5Zm1.9.215a4.921,4.921,0,0,0,.779,2.953A2.519,2.519,0,0,0,59.37-1.4a2.767,2.767,0,0,0,2.635-1.62v-5.1A2.789,2.789,0,0,0,59.391-9.69a2.531,2.531,0,0,0-2.174,1.077A5.418,5.418,0,0,0,56.438-5.424Z" transform="translate(839 1692.318)" fill="#12263f"/>
    <path id="Trazado_151010" data-name="Trazado 151010" d="M3.7-5.845V0H1.733V-14.93H7.239a5.532,5.532,0,0,1,3.84,1.251,4.241,4.241,0,0,1,1.389,3.312A4.185,4.185,0,0,1,11.11-7.019,5.779,5.779,0,0,1,7.219-5.845Zm0-1.61H7.239A3.537,3.537,0,0,0,9.659-8.2a2.723,2.723,0,0,0,.841-2.152,2.813,2.813,0,0,0-.841-2.136,3.314,3.314,0,0,0-2.307-.832H3.7ZM19.288.205a4.848,4.848,0,0,1-3.671-1.482A5.5,5.5,0,0,1,14.2-5.24v-.349a6.658,6.658,0,0,1,.631-2.948,4.919,4.919,0,0,1,1.764-2.03,4.434,4.434,0,0,1,2.456-.733,4.155,4.155,0,0,1,3.363,1.425,6.171,6.171,0,0,1,1.2,4.081V-5H16.1a3.944,3.944,0,0,0,.959,2.651,3.014,3.014,0,0,0,2.333,1.01,3.3,3.3,0,0,0,1.7-.41,4.277,4.277,0,0,0,1.22-1.087l1.159.9A4.659,4.659,0,0,1,19.288.205Zm-.236-9.946a2.53,2.53,0,0,0-1.928.836,4.062,4.062,0,0,0-.964,2.343h5.558v-.144a3.613,3.613,0,0,0-.779-2.24A2.382,2.382,0,0,0,19.052-9.741Zm12.12.349a5.685,5.685,0,0,0-.933-.072,2.5,2.5,0,0,0-2.533,1.589V0h-1.9V-11.095h1.846l.031,1.282A2.954,2.954,0,0,1,30.331-11.3a1.938,1.938,0,0,1,.841.144ZM34.976,0h-1.9V-11.095h1.9ZM32.925-14.038a1.132,1.132,0,0,1,.282-.779,1.059,1.059,0,0,1,.836-.318,1.075,1.075,0,0,1,.841.318,1.12,1.12,0,0,1,.287.779,1.084,1.084,0,0,1-.287.769,1.1,1.1,0,0,1-.841.308,1.078,1.078,0,0,1-.836-.308A1.1,1.1,0,0,1,32.925-14.038ZM37.509-5.65a6.553,6.553,0,0,1,.641-2.933,4.781,4.781,0,0,1,1.784-2.01,4.857,4.857,0,0,1,2.61-.708,4.679,4.679,0,0,1,3.666,1.569,6.036,6.036,0,0,1,1.4,4.173v.133a6.61,6.61,0,0,1-.62,2.907,4.71,4.71,0,0,1-1.774,2,4.913,4.913,0,0,1-2.651.718,4.667,4.667,0,0,1-3.656-1.569,6.005,6.005,0,0,1-1.4-4.153Zm1.907.226a4.746,4.746,0,0,0,.856,2.963,2.74,2.74,0,0,0,2.292,1.118,2.724,2.724,0,0,0,2.3-1.133,5.19,5.19,0,0,0,.851-3.174,4.738,4.738,0,0,0-.866-2.958,2.755,2.755,0,0,0-2.3-1.133,2.724,2.724,0,0,0-2.266,1.118A5.152,5.152,0,0,0,39.416-5.424Zm10.11-.215a6.5,6.5,0,0,1,1.21-4.107A3.826,3.826,0,0,1,53.9-11.3a3.848,3.848,0,0,1,3.086,1.333V-15.75h1.9V0H57.145l-.092-1.189A3.863,3.863,0,0,1,53.884.205a3.789,3.789,0,0,1-3.143-1.579A6.573,6.573,0,0,1,49.526-5.5Zm1.9.215A4.921,4.921,0,0,0,52.2-2.471,2.519,2.519,0,0,0,54.356-1.4a2.767,2.767,0,0,0,2.635-1.62v-5.1A2.789,2.789,0,0,0,54.376-9.69,2.531,2.531,0,0,0,52.2-8.613,5.418,5.418,0,0,0,51.423-5.424ZM63.892,0H62V-11.095h1.9ZM61.841-14.038a1.132,1.132,0,0,1,.282-.779,1.059,1.059,0,0,1,.836-.318,1.075,1.075,0,0,1,.841.318,1.12,1.12,0,0,1,.287.779,1.084,1.084,0,0,1-.287.769,1.1,1.1,0,0,1-.841.308,1.078,1.078,0,0,1-.836-.308A1.1,1.1,0,0,1,61.841-14.038ZM71.377-1.343a2.732,2.732,0,0,0,1.774-.615A2.164,2.164,0,0,0,73.992-3.5h1.794a3.44,3.44,0,0,1-.656,1.815A4.322,4.322,0,0,1,73.515-.308a4.66,4.66,0,0,1-2.138.513,4.57,4.57,0,0,1-3.6-1.512,6.024,6.024,0,0,1-1.338-4.137v-.318a6.679,6.679,0,0,1,.595-2.881A4.53,4.53,0,0,1,68.737-10.6a4.85,4.85,0,0,1,2.63-.7,4.45,4.45,0,0,1,3.1,1.118,3.994,3.994,0,0,1,1.318,2.9H73.992a2.614,2.614,0,0,0-.815-1.769,2.536,2.536,0,0,0-1.81-.692A2.655,2.655,0,0,0,69.127-8.7a4.888,4.888,0,0,0-.795,3.01v.359a4.79,4.79,0,0,0,.79,2.953A2.668,2.668,0,0,0,71.377-1.343ZM79.98,0h-1.9V-11.095h1.9ZM77.93-14.038a1.132,1.132,0,0,1,.282-.779,1.059,1.059,0,0,1,.836-.318,1.075,1.075,0,0,1,.841.318,1.12,1.12,0,0,1,.287.779,1.084,1.084,0,0,1-.287.769,1.1,1.1,0,0,1-.841.308,1.078,1.078,0,0,1-.836-.308A1.1,1.1,0,0,1,77.93-14.038Zm4.625,8.4a6.5,6.5,0,0,1,1.21-4.107A3.826,3.826,0,0,1,86.933-11.3a3.848,3.848,0,0,1,3.086,1.333V-15.75h1.9V0H90.173l-.092-1.189A3.863,3.863,0,0,1,86.912.205a3.789,3.789,0,0,1-3.143-1.579A6.573,6.573,0,0,1,82.554-5.5Zm1.9.215a4.921,4.921,0,0,0,.779,2.953A2.519,2.519,0,0,0,87.384-1.4a2.767,2.767,0,0,0,2.635-1.62v-5.1A2.789,2.789,0,0,0,87.4-9.69,2.531,2.531,0,0,0,85.23-8.613,5.418,5.418,0,0,0,84.451-5.424ZM101.708,0a3.985,3.985,0,0,1-.267-1.169A4.233,4.233,0,0,1,98.284.205a3.916,3.916,0,0,1-2.692-.928,3,3,0,0,1-1.051-2.353,3.136,3.136,0,0,1,1.318-2.692,6.212,6.212,0,0,1,3.707-.959h1.846V-7.6a2.131,2.131,0,0,0-.595-1.584,2.39,2.39,0,0,0-1.753-.59,2.766,2.766,0,0,0-1.7.513,1.511,1.511,0,0,0-.687,1.241H94.767a2.618,2.618,0,0,1,.59-1.6,4.024,4.024,0,0,1,1.6-1.225,5.381,5.381,0,0,1,2.22-.451,4.386,4.386,0,0,1,3,.959,3.458,3.458,0,0,1,1.128,2.64v5.106a6.243,6.243,0,0,0,.39,2.43V0ZM98.561-1.446a3.334,3.334,0,0,0,1.692-.461,2.791,2.791,0,0,0,1.159-1.2V-5.383H99.924q-3.486,0-3.486,2.041a1.727,1.727,0,0,0,.595,1.395A2.286,2.286,0,0,0,98.561-1.446Zm7.26-4.194a6.5,6.5,0,0,1,1.21-4.107A3.826,3.826,0,0,1,110.2-11.3a3.848,3.848,0,0,1,3.086,1.333V-15.75h1.9V0h-1.743l-.092-1.189A3.863,3.863,0,0,1,110.178.205a3.789,3.789,0,0,1-3.143-1.579A6.573,6.573,0,0,1,105.82-5.5Zm1.9.215a4.921,4.921,0,0,0,.779,2.953A2.519,2.519,0,0,0,110.65-1.4a2.767,2.767,0,0,0,2.635-1.62v-5.1A2.789,2.789,0,0,0,110.67-9.69,2.531,2.531,0,0,0,108.5-8.613,5.418,5.418,0,0,0,107.717-5.424Z" transform="translate(839.126 1736.585)" fill="#12263f"/>
  </g>
</svg>
